/* XPM */
static char * admin_ingame_xpm[] = {
"16 16 11 1",
" 	c None",
".	c #161616",
"+	c #C8C6C6",
"@	c #949493",
"#	c #000000",
"$	c #FF6000",
"%	c #E00000",
"&	c #FFCC00",
"*	c #7C7A7A",
"=	c #F6FF00",
"-	c #FFFFFF",
"      ......    ",
"     .+@@@@@.   ",
"    .+@@@@@@@.. ",
"   .+@@#@.......",
"  .+@@#$#.#     ",
"..+@#..%%.%#    ",
"+@@#%$#$%##$    ",
".@@.#.#$$$# #   ",
"@@@#%#&$&$&#%#. ",
"+@#%#$#&$&#$#*. ",
".@#%$$&&=&&$$#  ",
"**@@#&==-==&%#  ",
"...#&&=---=&&#  ",
"   .#$####$##   ",
"     #.**.#     ",
"       ...      "};
