/* XPM */
static const char * admin_broom_xpm[] = {
"16 16 14 1",
" 	c None",
".	c #161616",
"+	c #7E7E7E",
"@	c #000000",
"#	c #C8C6C6",
"$	c #949493",
"%	c #FFFFFF",
"&	c #BCBCBC",
"*	c #464646",
"=	c #FFEAAC",
"-	c #BC8E00",
";	c #7C7A7A",
">	c #FFD75F",
",	c #705400",
"      ......    ",
" +@@@.#$$$$$.   ",
" @+%%@$$$$$$$.. ",
" @&+&%@$$.......",
" @+&+&%@$.      ",
"..@+&+&%@.      ",
"#$$@+&+&%@      ",
".$$.@+&+&%@ @   ",
"$$$.*@+&+&%@=@. ",
"#$$.*.@+&+&=-@. ",
".$$.*##@+&&-@.  ",
";;$$...$@>-,,@  ",
"...;;$$@>-@,,,@ ",
"   ..;;$@@ @,,, ",
"     ..;;.  @,> ",
"       ...      "};
