/* XPM */
static const char * admin_xpm[] = {
"16 16 7 1",
" 	c None",
".	c #161616",
"+	c #C8C6C6",
"@	c #949493",
"#	c #464646",
"$	c #000000",
"%	c #7C7A7A",
"      ......    ",
"     .+@@@@@.   ",
"    .+@@@@@@@.. ",
"   .+@@@@.......",
"  .+@@@@@.      ",
"..+@...@@.      ",
"+@@.#++$@.      ",
".@@.#..$@.      ",
"@@@.#++$@...... ",
"+@@.#..$@.@@@%. ",
".@@.#++.@.@%%.  ",
"%%@@...@@.%..   ",
"...%%@@@@..     ",
"   ..%%@@.      ",
"     ..%%.      ",
"       ...      "};
