/* XPM */
static const char * arm_xpm[] = {
"16 16 6 1",
" 	c None",
".	c #000000",
"+	c #2370FD",
"@	c #005AFF",
"#	c #3B80FF",
"$	c #5591FF",
"                ",
"                ",
"      .  .      ",
"     .+..@.     ",
"    .++..@+.    ",
" ...##.@@.++... ",
".@@##.@@+$.##$$.",
" .....@#$$..... ",
".@@@@..$$..$$$$.",
" ...@#....$$... ",
"    .#+..#$.    ",
"     .+###.     ",
"      .##.      ",
"       ..       ",
"                ",
"                "};
