/* XPM */
static const char * arm_xpm[] = {
"16 16 84 1",
" 	c None",
".	c #020261",
"+	c #0A0A86",
"@	c #419CFF",
"#	c #08087C",
"$	c #050570",
"%	c #0176FF",
"&	c #398CFF",
"*	c #398BFF",
"=	c #034EC6",
"-	c #2F88FF",
";	c #5094FF",
">	c #4680EB",
",	c #0895FF",
"'	c #0891FF",
")	c #2A67CF",
"!	c #2F7EFF",
"~	c #020267",
"{	c #02026E",
"]	c #020271",
"^	c #0C0C9C",
"/	c #0667E8",
"(	c #066AF4",
"_	c #4B8AF5",
":	c #4987F3",
"<	c #0A0A87",
"[	c #0673FF",
"}	c #0563EF",
"|	c #2E74EC",
"1	c #68A0FF",
"2	c #3F73D0",
"3	c #3B71D2",
"4	c #4B7FD8",
"5	c #4C82D8",
"6	c #020288",
"7	c #0E0EB6",
"8	c #0D0DB2",
"9	c #0D0DAF",
"0	c #0C0CA7",
"a	c #0C0CA2",
"b	c #0674FF",
"c	c #5194FE",
"d	c #689FFC",
"e	c #6499F6",
"f	c #0A0A8B",
"g	c #0B0B8F",
"h	c #0B0BA1",
"i	c #0909AB",
"j	c #0202A0",
"k	c #1010D4",
"l	c #0896FF",
"m	c #0897FF",
"n	c #0794FF",
"o	c #0E0EC3",
"p	c #0D0DB3",
"q	c #75B4FF",
"r	c #70ADFF",
"s	c #0C0C9E",
"t	c #0D0DA6",
"u	c #73AEFC",
"v	c #7BB8F3",
"w	c #82BDEB",
"x	c #70B6EA",
"y	c #0202CD",
"z	c #1C1CFF",
"A	c #1D1DFF",
"B	c #0DBDFF",
"C	c #92D6FF",
"D	c #1616FF",
"E	c #1212FC",
"F	c #1010E9",
"G	c #0D0DCB",
"H	c #85CCFF",
"I	c #7EBFFF",
"J	c #1010E2",
"K	c #1414FE",
"L	c #1010FF",
"M	c #2323FF",
"N	c #A8D6FF",
"O	c #82CDFF",
"P	c #2121FF",
"Q	c #B9E1FF",
"R	c #2929FF",
"S	c #93CDFF",
"                ",
"                ",
"      .  .      ",
"     +@#$%.     ",
"    +&*++=-.    ",
" +++;>+,'+)!~{] ",
"^/(_:<[}|1+23456",
" 7890abcdefghij ",
"klmlnopqrstuvwxy",
" zAzBCDEFGHIJKL ",
"    MNOMPNQD    ",
"     RSNNNR     ",
"      RNNR      ",
"       RR       ",
"                ",
"                "};
