/* XPM */
static const char * battle_xpm[] = {
"12 12 9 1",
" 	c None",
".	c #000000",
"+	c #FFFFFF",
"@	c #BCBCBC",
"#	c #7E7E7E",
"$	c #FFEAAC",
"%	c #BC8E00",
"&	c #705400",
"*	c #FFD75F",
"....    ....",
".+++.  .+++.",
".@#@+..+@#@.",
".#@#@+.@#@#.",
" .#@#@+.@#. ",
" ..#@#@+... ",
".$..#@#@+.$.",
".%$@.#@#@$%.",
" .%@@.#@@%. ",
".&&%*..*%&&.",
"&&&.%**%.&&&",
"*&. .... .&*"};
