/* XPM */
static const char * bot_broom_xpm[] = {
"16 16 100 2",
"  	c None",
". 	c #41423C",
"+ 	c #52544B",
"@ 	c #6C6D61",
"# 	c #6E6B5C",
"$ 	c #7E7E7E",
"% 	c #000000",
"& 	c #363733",
"* 	c #C1C5B4",
"= 	c #DEE3CD",
"- 	c #44433A",
"; 	c #6B6451",
"> 	c #B8AF90",
", 	c #615D4C",
"' 	c #191712",
") 	c #FFFFFF",
"! 	c #7A7B81",
"~ 	c #484843",
"{ 	c #514027",
"] 	c #40321E",
"^ 	c #A49E90",
"/ 	c #675E50",
"( 	c #2E2723",
"_ 	c #BCBCBC",
": 	c #919399",
"< 	c #534128",
"[ 	c #302619",
"} 	c #65655C",
"| 	c #B0B39F",
"1 	c #65675C",
"2 	c #44423E",
"3 	c #211C12",
"4 	c #4B4639",
"5 	c #8A866F",
"6 	c #A7A995",
"7 	c #AAAC98",
"8 	c #232321",
"9 	c #948A65",
"0 	c #F6E29D",
"a 	c #D3C387",
"b 	c #2E2112",
"c 	c #1B1812",
"d 	c #5E5C5E",
"e 	c #F6E29E",
"f 	c #F4E09E",
"g 	c #2B2217",
"h 	c #0B0906",
"i 	c #9F9CA0",
"j 	c #636163",
"k 	c #787368",
"l 	c #A4A0A4",
"m 	c #474546",
"n 	c #7D7D71",
"o 	c #FFEAAC",
"p 	c #A8A4A8",
"q 	c #454444",
"r 	c #6C6D60",
"s 	c #494940",
"t 	c #BC8E00",
"u 	c #A5A1A5",
"v 	c #494747",
"w 	c #606155",
"x 	c #3C3D34",
"y 	c #0B0A09",
"z 	c #6A696A",
"A 	c #242322",
"B 	c #777869",
"C 	c #6E6E61",
"D 	c #0B0B09",
"E 	c #262621",
"F 	c #FFD75F",
"G 	c #705400",
"H 	c #2E2D2A",
"I 	c #595A50",
"J 	c #535449",
"K 	c #080806",
"L 	c #717170",
"M 	c #DCDCDA",
"N 	c #A3A3A0",
"O 	c #030302",
"P 	c #282823",
"Q 	c #959394",
"R 	c #CCCCCB",
"S 	c #E0E0DF",
"T 	c #4B4B4B",
"U 	c #010101",
"V 	c #6E6E6D",
"W 	c #CACAC9",
"X 	c #2A2828",
"Y 	c #807D7E",
"Z 	c #201E1F",
"` 	c #666666",
" .	c #6F6F6F",
"..	c #282828",
"+.	c #131313",
"@.	c #8D8D8C",
"#.	c #787878",
"$.	c #0B0B0B",
"%.	c #0C0C0C",
"&.	c #C8C8C8",
"            . + @ #             ",
"  $ % % % & * = - ; > , '       ",
"  % $ ) ) % ! ~ { ] ^ / (       ",
"  % _ $ _ ) % : < [ } | 1 2     ",
"  % $ _ $ _ ) % 3 4 5 6 7 8     ",
"    % $ _ $ _ ) % 9 0 a b c     ",
"    d % $ _ $ _ ) % e f g h     ",
"    i j % $ _ $ _ ) % k %       ",
"    l m n % $ _ $ _ ) % o %     ",
"    p q r s % $ _ $ _ o t %     ",
"    u v w x y % $ _ _ t %       ",
"    z A B C D E % F t G G %     ",
"      H I J K % F t % G G G %   ",
"      L M N O P % % Q % G G G   ",
"      R S T U V W X Y Z % G F   ",
"      `  ...+.@.#.$.%.&.&.      "};
