/* XPM */
static const char * bot_away_xpm[] = {
"16 16 138 2",
"  	c None",
". 	c #41423C",
"+ 	c #52544B",
"@ 	c #6C6D61",
"# 	c #6E6B5C",
"$ 	c #66685C",
"% 	c #EAEED2",
"& 	c #C4C8AE",
"* 	c #363733",
"= 	c #C1C5B4",
"- 	c #DEE3CD",
"; 	c #44433A",
"> 	c #6B6451",
", 	c #B8AF90",
"' 	c #615D4C",
") 	c #191712",
"! 	c #807654",
"~ 	c #B0A170",
"{ 	c #ABA074",
"] 	c #7A7866",
"^ 	c #717277",
"/ 	c #7A7B81",
"( 	c #484843",
"_ 	c #514027",
": 	c #40321E",
"< 	c #A49E90",
"[ 	c #675E50",
"} 	c #2E2723",
"| 	c #AA9C6C",
"1 	c #F6E29D",
"2 	c #8E8462",
"3 	c #B4B5BE",
"4 	c #B7B9C2",
"5 	c #919399",
"6 	c #534128",
"7 	c #302619",
"8 	c #65655C",
"9 	c #B0B39F",
"0 	c #65675C",
"a 	c #44423E",
"b 	c #554E36",
"c 	c #D7C589",
"d 	c #7F7556",
"e 	c #5B554A",
"f 	c #555656",
"g 	c #8A8C92",
"h 	c #8F9097",
"i 	c #211C12",
"j 	c #4B4639",
"k 	c #8A866F",
"l 	c #A7A995",
"m 	c #AAAC98",
"n 	c #232321",
"o 	c #3C3A38",
"p 	c #B8B4B3",
"q 	c #7C7B78",
"r 	c #A6AFAA",
"s 	c #959D9A",
"t 	c #6F7573",
"u 	c #373936",
"v 	c #948A65",
"w 	c #D3C387",
"x 	c #2E2112",
"y 	c #1B1812",
"z 	c #5E5C5E",
"A 	c #B7B4B8",
"B 	c #545556",
"C 	c #AFB9B4",
"D 	c #ADB7B3",
"E 	c #B6C0BC",
"F 	c #475A49",
"G 	c #A7A17A",
"H 	c #F6E29E",
"I 	c #F4E09E",
"J 	c #282A15",
"K 	c #0B0906",
"L 	c #9F9CA0",
"M 	c #636163",
"N 	c #404241",
"O 	c #A4ACA8",
"P 	c #AEB7B3",
"Q 	c #B5BEBA",
"R 	c #525755",
"S 	c #20201E",
"T 	c #453F38",
"U 	c #121210",
"V 	c #353535",
"W 	c #767676",
"X 	c #A4A0A4",
"Y 	c #474546",
"Z 	c #7D7D71",
"` 	c #5D5F56",
" .	c #5F6461",
"..	c #B0B5B3",
"+.	c #343434",
"@.	c #5F5E5E",
"#.	c #CAC4C5",
"$.	c #000000",
"%.	c #EDE7E7",
"&.	c #7B7B7B",
"*.	c #A8A4A8",
"=.	c #454444",
"-.	c #6C6D60",
";.	c #494940",
">.	c #262521",
",.	c #30302C",
"'.	c #A5A1A5",
").	c #494747",
"!.	c #606155",
"~.	c #3C3D34",
"{.	c #0B0A09",
"].	c #353630",
"^.	c #6A696A",
"/.	c #242322",
"(.	c #777869",
"_.	c #6E6E61",
":.	c #0B0B09",
"<.	c #2E2D2A",
"[.	c #595A50",
"}.	c #535449",
"|.	c #080806",
"1.	c #363634",
"2.	c #717170",
"3.	c #DCDCDA",
"4.	c #A3A3A0",
"5.	c #030302",
"6.	c #747474",
"7.	c #CCCCCB",
"8.	c #E0E0DF",
"9.	c #4B4B4B",
"0.	c #010101",
"a.	c #6E6E6D",
"b.	c #666666",
"c.	c #6F6F6F",
"d.	c #282828",
"e.	c #131313",
"f.	c #8D8D8C",
"g.	c #787878",
"            . + @ #             ",
"    $ % & * = - ; > , ' )       ",
"  ! ~ { ] ^ / ( _ : < [ }       ",
"  | 1 1 2 3 4 5 6 7 8 9 0 a     ",
"  b c d e f g h i j k l m n     ",
"    o p q r s t u v 1 w x y     ",
"    z A B C D E F G H I J K     ",
"    L M N O P Q R S T U V W     ",
"    X Y Z `  ...+.@.#.$.%.&.V   ",
"    *.=.-.;.>.,.&.%.%.$.%.%.&.W ",
"    '.).!.~.{.].%.%.%.$.%.%.%.V ",
"    ^./.(._.:.:.%.%.%.$.$.$.%.$.",
"      <.[.}.|.1.%.%.%.%.%.%.%.V ",
"      2.3.4.5.6.&.%.%.%.%.%.&.  ",
"      7.8.9.0.a.V &.%.%.%.&.V   ",
"      b.c.d.e.f.g.W V $.V       "};
