/* XPM */
static const char * channel_xpm[] = {
"12 12 6 1",
" 	c None",
".	c #000000",
"+	c #FFFDEA",
"@	c #A49300",
"#	c #FFE400",
"$	c #FFF9C5",
"   ..  ..   ",
"  .++..++.  ",
" ..+@..#@.. ",
".++##++###@.",
".+##@@@#@@@.",
" ..+@..$@.. ",
" ..+@..$@.. ",
".+###++####.",
".+##@@@#@@@.",
" ..+@..+@.. ",
"  .+@..+@.  ",
"   ..  ..   "};
