/* XPM */
static const char* channel_options_xpm[] = {
"16 16 16 1",
" 	c None",
".	c #000000",
"+	c #FFFDEA",
"@	c #A49300",
"#	c #FFE400",
"$	c #BABABA",
"%	c #514800",
"&	c #949494",
"*	c #A9A9A9",
"=	c #7E7000",
"-	c #767676",
";	c #878787",
">	c #BBBBBB",
",	c #7E7D73",
"'	c #5E5E5E",
")	c #696969",
"   ..  ..       ",
"  .++..++.      ",
" ..+@..#@..     ",
".++##++###@.    ",
".+##@@@#.....   ",
" ..+@..+.$$$... ",
" ..+@..+%.&*$$..",
".+###++##=.&&*&.",
".+##..%#@@%.-&;.",
" ..+.>.,@...-&'.",
"  .+.$$.%...-&'.",
"   ..&*$...*-&'.",
"    ..&*$$$*&&&.",
"     .-&&&&&&&&)",
"     ..'''''&&&&",
"      .......)&&"};
