/* XPM */
static char * closed_game_xpm[] = {
"16 16 36 1",
" 	c None",
".	c #000000",
"+	c #FF031B",
"@	c #FE0018",
"#	c #FC0018",
"$	c #FF1929",
"%	c #FF0F20",
"&	c #FFA197",
"*	c #EC0016",
"=	c #FF2F39",
"-	c #FF333D",
";	c #E00015",
">	c #D40014",
",	c #FF2D37",
"'	c #FFB0A5",
")	c #FF0920",
"!	c #EA0016",
"~	c #E20015",
"{	c #FF1526",
"]	c #FF9893",
"^	c #FFA89F",
"/	c #FF8885",
"(	c #FF4956",
"_	c #FF172D",
":	c #FF6367",
"<	c #FF3F4D",
"[	c #FF1329",
"}	c #B40011",
"|	c #FF293D",
"1	c #FF2B3F",
"2	c #FF1D32",
"3	c #FA0018",
"4	c #E60016",
"5	c #F20017",
"6	c #E80016",
"7	c #E40015",
"                ",
"     ......     ",
"    .+@####.    ",
"   .$%&&&&#*.   ",
"  .=-&&&&&&;>.  ",
" .-,&'&&)!~~;>. ",
" .{&]^/(_*~~>>. ",
" .+&&&:<[*~>>}. ",
" .@&&|1234~>>}. ",
" .#&&33567~>>}. ",
" .#!&447~~>>>}. ",
"  .47~~~>>>>}.  ",
"   .~~>>>>>}.   ",
"    .>>>}}}.    ",
"     ......     ",
"                "};
