/* XPM */
static const char * closed_game_xpm[] = {
"16 16 96 2",
"  	c None",
". 	c #D06456",
"+ 	c #DD8C81",
"@ 	c #E5A49B",
"# 	c #DE8D82",
"$ 	c #D16759",
"% 	c #C84C3C",
"& 	c #E49E94",
"* 	c #F5C8C3",
"= 	c #F8CAC4",
"- 	c #F9CAC3",
"; 	c #F7C9C3",
"> 	c #C74A39",
", 	c #EAA9A0",
"' 	c #F6BCB4",
") 	c #FBBEB5",
"! 	c #FCBEB6",
"~ 	c #FEBFB6",
"{ 	c #FABDB4",
"] 	c #F5BBB3",
"^ 	c #E9AAA1",
"/ 	c #DF897D",
"( 	c #F3ADA3",
"_ 	c #FBAFA5",
": 	c #FEB2A8",
"< 	c #FEB4AA",
"[ 	c #FFB5AB",
"} 	c #DE897E",
"| 	c #CB5141",
"1 	c #EC9B90",
"2 	c #F79E93",
"3 	c #FFA295",
"4 	c #FEA79C",
"5 	c #FEA99E",
"6 	c #FEABA0",
"7 	c #FFA79B",
"8 	c #F89E92",
"9 	c #EB9C91",
"0 	c #CC5444",
"a 	c #D36253",
"b 	c #EF8C7F",
"c 	c #FB8F81",
"d 	c #FF9587",
"e 	c #FF9B8D",
"f 	c #FF9D8F",
"g 	c #FB9081",
"h 	c #EE8C7E",
"i 	c #D36455",
"j 	c #D66252",
"k 	c #F07C6C",
"l 	c #FC8070",
"m 	c #FE897A",
"n 	c #FE8D7E",
"o 	c #FE8E80",
"p 	c #FE8778",
"q 	c #EF7B6B",
"r 	c #D56253",
"s 	c #CD3E2B",
"t 	c #EC5F4C",
"u 	c #FC705E",
"v 	c #FE7968",
"w 	c #FE7F6E",
"x 	c #FE8070",
"y 	c #EB604D",
"z 	c #C72F1B",
"A 	c #E2351E",
"B 	c #F93F27",
"C 	c #FF543D",
"D 	c #FF604B",
"E 	c #FF6753",
"F 	c #FF6B57",
"G 	c #FF523B",
"H 	c #F83F26",
"I 	c #E1361F",
"J 	c #C22E1A",
"K 	c #D9331D",
"L 	c #F13A21",
"M 	c #FD4229",
"N 	c #FF4B33",
"O 	c #FF5139",
"P 	c #EF3921",
"Q 	c #D7331D",
"R 	c #C92F1B",
"S 	c #F53A21",
"T 	c #FF482F",
"U 	c #FF4A31",
"V 	c #F43B22",
"W 	c #E0351E",
"X 	c #C9301B",
"Y 	c #CC311C",
"Z 	c #F03920",
"` 	c #F83D24",
" .	c #FC3E24",
"..	c #F73C23",
"+.	c #CB301B",
"@.	c #E63820",
"                                ",
"          . + @ @ # $           ",
"      % & * = - - ; * &         ",
"    > , ' ) ! ~ ~ ! { ] ^       ",
"    / ( _ : < [ [ < : _ ( }     ",
"  | 1 2 3 4 5 6 6 5 7 3 8 9 0   ",
"  a b c d e f f f f e d g h i   ",
"  j k l m n o o o o n p l q r   ",
"  s t u v w x x x x w v u y s   ",
"  z A B C D E F F E D G H I z   ",
"  J K L M N O G G O N M P Q J   ",
"    R I S M T U U T M V W X     ",
"      Y I Z `  . ...P W +.      ",
"        X Q I @.@.I Q X         ",
"          J z R X z J           ",
"                                "};
