/* XPM */
static char * closed_pw_game_xpm[] = {
"16 16 40 1",
" 	c None",
".	c #000000",
"+	c #FF031B",
"@	c #FE0018",
"#	c #FC0018",
"$	c #FF1929",
"%	c #FF0F20",
"&	c #FFA197",
"*	c #EC0016",
"=	c #FF2F39",
"-	c #FF333D",
";	c #FF2D37",
">	c #FFB0A5",
",	c #FF0920",
"'	c #EA0016",
")	c #FFFFFF",
"!	c #FF1526",
"~	c #FF9893",
"{	c #FFA89F",
"]	c #FF8885",
"^	c #FF4956",
"/	c #FF172D",
"(	c #6B6B6B",
"_	c #FF6367",
":	c #FF3F4D",
"<	c #FF1329",
"[	c #D40014",
"}	c #FF293D",
"|	c #FF2B3F",
"1	c #FF1D32",
"2	c #FA0018",
"3	c #F20017",
"4	c #E60016",
"5	c #E40015",
"6	c #FFEDB5",
"7	c #FFD75F",
"8	c #FFC000",
"9	c #D7A200",
"0	c #9B7500",
"a	c #E20015",
"                ",
"     ......     ",
"    .+@####.    ",
"   .$%&&&&#*.   ",
"  .=-&&&&&&...  ",
" .-;&>&&,'.)).. ",
" .!&~{]^/.)((). ",
" .+&&&_:<.)([). ",
" .@&&}|12.)([). ",
" .#&&223........",
" .#'&445.678890.",
"  .45aaa.678890.",
"   .aa[[.678890.",
"    .[[[.678890.",
"     ....678890.",
"        ........"};
