/* XPM */
static const char * closed_game_xpm[] = {
"16 16 42 1",
" 	c None",
".	c #595959",
"+	c #000000",
"@	c #A60111",
"#	c #FE0018",
"$	c #FC0018",
"%	c #A4000F",
"&	c #FF1929",
"*	c #FF0F20",
"=	c #FFA197",
"-	c #EC0016",
";	c #FF2F39",
">	c #FF333D",
",	c #E00015",
"'	c #D40014",
")	c #A62127",
"!	c #FF2D37",
"~	c #FFB0A5",
"{	c #FF0920",
"]	c #EA0016",
"^	c #E20015",
"/	c #8A000D",
"(	c #FF1526",
"_	c #FF9893",
":	c #FFA89F",
"<	c #FF8885",
"[	c #FF4956",
"}	c #FF172D",
"|	c #FF031B",
"1	c #FF6367",
"2	c #FF3F4D",
"3	c #FF1329",
"4	c #B40011",
"5	c #FF293D",
"6	c #FF2B3F",
"7	c #FF1D32",
"8	c #FA0018",
"9	c #E60016",
"0	c #F20017",
"a	c #E80016",
"b	c #E40015",
"c	c #75000B",
"                ",
"     .++++.     ",
"    +@#$$$%+    ",
"   +&*====$-+   ",
"  +;>======,'+  ",
" .)!=~=={]^^,/. ",
" +(=_:<[}-^^''+ ",
" +|===123-^''4+ ",
" +#==56789^''4+ ",
" +$==880ab^''4+ ",
" .%]=99b^^'''c. ",
"  +9b^^^''''4+  ",
"   +^^'''''4+   ",
"    +/''44c+    ",
"     .++++.     ",
"                "};
