/* XPM */
static const char * core_xpm[] = {
"16 16 24 1",
" 	c None",
".	c #171717",
"+	c #FF6D6D",
"@	c #AA1717",
"#	c #FF4646",
"$	c #D31717",
"%	c #E21717",
"&	c #000000",
"*	c #E91717",
"=	c #EE1717",
"-	c #D70000",
";	c #E41717",
">	c #F31717",
",	c #DE1717",
"'	c #D71717",
")	c #F71717",
"!	c #D21717",
"~	c #FA1717",
"{	c #D11717",
"]	c #CD1717",
"^	c #FD1717",
"/	c #C81717",
"(	c #F21717",
"_	c #C71717",
"                ",
"     .+@.++.    ",
"    .+#.+.#$.   ",
"   .+#.+##.#%.  ",
"   &+.+#*=-.#&  ",
"    .+#;*=>-.   ",
"   .+#,'.+#)-.  ",
"  .+#'!.+.+#~-. ",
" .+#{].+##.+#^-.",
" .+#/.+#*(-.+#-.",
"  .#_&+#*(-&+#. ",
"  .#_.+#---.+#. ",
"  .#_.......+#. ",
"   ._.     .+.  ",
"   ._.     .+.  ",
"    .       .   "};
