/* XPM */
static const char * exists_xpm[] = {
"16 16 3 1",
" 	c None",
".	c #00D705",
"+	c #C6C6C6",
"                ",
"                ",
"                ",
"                ",
"         .      ",
"        ..+     ",
"       ..++     ",
"    .  ..+      ",
"    .. .++      ",
"     ...+       ",
"      ..+       ",
"       ++       ",
"                ",
"                ",
"                ",
"                "};
