/* XPM */
static const char * host_spectator_xpm[] = {
"16 16 69 1",
" 	c None",
".	c #FF6B00",
"+	c #FFE684",
"@	c #FFD42A",
"#	c #FF7D00",
"$	c #FFAE00",
"%	c #FFDB4D",
"&	c #FFFF98",
"*	c #FFF46B",
"=	c #FFE16B",
"-	c #FFEDA9",
";	c #FFFFA9",
">	c #FFC64D",
",	c #FF8900",
"'	c #FFEA98",
")	c #FF4D00",
"!	c #FF8B00",
"~	c #FFFF6B",
"{	c #FF9E00",
"]	c #D54000",
"^	c #FFF24D",
"/	c #B4B4B4",
"(	c #A6A6A6",
"_	c #9E9E9E",
":	c #959595",
"<	c #8B8B8B",
"[	c #FF7400",
"}	c #FFCB00",
"|	c #ADADAD",
"1	c #E6E6E6",
"2	c #E7E7E7",
"3	c #D5D5D5",
"4	c #B24A00",
"5	c #FFED00",
"6	c #A0A0A0",
"7	c #EAEAEA",
"8	c #0049B8",
"9	c #003D9B",
"0	c #002F77",
"a	c #002764",
"b	c #797979",
"c	c #B5B5B5",
"d	c #FFFFFF",
"e	c #0043A9",
"f	c #C7DCF0",
"g	c #000070",
"h	c #00007D",
"i	c #000092",
"j	c #00245C",
"k	c #C5C5C5",
"l	c #848484",
"m	c #6D6D6D",
"n	c #002154",
"o	c #00007C",
"p	c #000087",
"q	c #0012A3",
"r	c #0026AB",
"s	c #606060",
"t	c #00183C",
"u	c #1549B8",
"v	c #5495D5",
"w	c #458BD1",
"x	c #D7D7D7",
"y	c #313131",
"z	c #424242",
"A	c #001A41",
"B	c #0058BE",
"C	c #6FA6DB",
"D	c #1E1E1E",
"       ..       ",
"      .+@.      ",
" #.  .+$$%.  .. ",
".&*..=$%%$=..-=.",
".;>=%$%$$,$%'$%)",
".;$$$$$!!$$$$$%)",
".&$$!!!!!!!!$$%)",
".~${]]]]]]).!$@]",
".^!]///(_(:<.[}]",
".^]|11111223<4}]",
"]56377890a777b}]",
"]bc7defghijddkl]",
"m(7dnoppqread7cm",
" sk7tqqruvwj7xy ",
"  zzxABwCCAxzD  ",
"    yyyyyyyz    "};
