/* XPM */
static const char * nexists_xpm[] = {
"16 16 3 1",
" 	c None",
".	c #000000",
"+	c #C8C8C8",
"                ",
"                ",
"                ",
"                ",
"                ",
"     .    .     ",
"      .  .      ",
"      +..  +    ",
"       .. +     ",
"      . +.      ",
"     .  ++.     ",
"       +  +     ",
"      +    +    ",
"                ",
"                ",
"                "};
