/* XPM */
static char * nexists_xpm[] = {
"16 16 5 1",
" 	c None",
".	c #000000",
"+	c #FFE57C",
"@	c #FFCC00",
"#	c #B38F00",
"                ",
"                ",
"       .        ",
"      .+.       ",
"      .+.       ",
"     .+@#.      ",
"     .+.#.      ",
"    .+@.@#.     ",
"    .+@.@#.     ",
"   .+@@@@@#.    ",
"   .+@@.@@#.    ",
"  .+########.   ",
"  ...........   ",
"                ",
"                ",
"                "};
