/* XPM */
static const char * not_found_icon_xpm[] = {
"64 64 254 2",
"  	c None",
". 	c #E8DEDE",
"+ 	c #E1CACA",
"@ 	c #E1C9C9",
"# 	c #E4D1D1",
"$ 	c #CE9898",
"% 	c #CE9595",
"& 	c #CE9696",
"* 	c #E4D2D2",
"= 	c #CF9999",
"- 	c #D6A5A5",
"; 	c #E4C2C2",
"> 	c #E6CACA",
", 	c #E6C9C9",
"' 	c #E5D3D3",
") 	c #CF9A9A",
"! 	c #D6A4A4",
"~ 	c #ECD6D6",
"{ 	c #ECD3D3",
"] 	c #EACBCB",
"^ 	c #EACACA",
"/ 	c #E9CACA",
"( 	c #E9C9C9",
"_ 	c #EBD2D2",
": 	c #ECD5D5",
"< 	c #D7A6A6",
"[ 	c #EACDCD",
"} 	c #E5BABA",
"| 	c #E5B9B9",
"1 	c #E5B8B8",
"2 	c #E5B7B7",
"3 	c #EBD5D5",
"4 	c #D8A9A9",
"5 	c #E4B7B7",
"6 	c #E4B6B6",
"7 	c #EACCCC",
"8 	c #EBD3D3",
"9 	c #D8A8A8",
"0 	c #E5D6D6",
"a 	c #EAD2D2",
"b 	c #E6D7D7",
"c 	c #D09B9B",
"d 	c #D7A7A7",
"e 	c #EBD4D4",
"f 	c #E4B5B5",
"g 	c #D7A5A5",
"h 	c #D09A9A",
"i 	c #E5D5D5",
"j 	c #CE9999",
"k 	c #E4B4B4",
"l 	c #D8A7A7",
"m 	c #E6D9D9",
"n 	c #E7DADA",
"o 	c #D09C9C",
"p 	c #E4B3B3",
"q 	c #EAD1D1",
"r 	c #E3B2B2",
"s 	c #E9C8C8",
"t 	c #E7DBDB",
"u 	c #E8DCDC",
"v 	c #E7C2C2",
"w 	c #E7C1C1",
"x 	c #E3B1B1",
"y 	c #EAD0D0",
"z 	c #E8DDDD",
"A 	c #D19E9E",
"B 	c #F3EFEF",
"C 	c #EDD6D6",
"D 	c #E3B3B3",
"E 	c #E9C7C7",
"F 	c #F3F0F0",
"G 	c #F5F5F5",
"H 	c #F5F4F4",
"I 	c #ECD4D4",
"J 	c #E3B0B0",
"K 	c #F4F2F2",
"L 	c #EDD7D7",
"M 	c #E8C6C6",
"N 	c #DEC2C2",
"O 	c #D39F9F",
"P 	c #F4F3F3",
"Q 	c #EDD8D8",
"R 	c #E2AFAF",
"S 	c #E8C7C7",
"T 	c #E9CDCD",
"U 	c #D39E9E",
"V 	c #DCBDBD",
"W 	c #F3F1F1",
"X 	c #ECD2D2",
"Y 	c #D8AAAA",
"Z 	c #E2B0B0",
"` 	c #E2AEAE",
" .	c #F4F4F4",
"..	c #EDD5D5",
"+.	c #E4B2B2",
"@.	c #E3AEAE",
"#.	c #E3ADAD",
"$.	c #E2ADAD",
"%.	c #ECD1D1",
"&.	c #F1E5E5",
"*.	c #E4AFAF",
"=.	c #E4B1B1",
"-.	c #E3ACAC",
";.	c #E3AFAF",
">.	c #E2ACAC",
",.	c #E4B0B0",
"'.	c #E3ABAB",
").	c #E4AEAE",
"!.	c #EDD4D4",
"~.	c #ECD0D0",
"{.	c #E4ADAD",
"].	c #E2AAAA",
"^.	c #E2A9A9",
"/.	c #E2A8A8",
"(.	c #E2A7A7",
"_.	c #E2A6A6",
":.	c #E2A5A5",
"<.	c #E2A4A4",
"[.	c #E1A4A4",
"}.	c #E1A3A3",
"|.	c #EBCBCB",
"1.	c #D8A6A6",
"2.	c #EDD3D3",
"3.	c #DF9E9E",
"4.	c #DF9C9C",
"5.	c #DF9A9A",
"6.	c #DE9898",
"7.	c #DE9696",
"8.	c #DE9595",
"9.	c #DF9898",
"0.	c #EAC5C5",
"a.	c #D7A4A4",
"b.	c #EBCCCC",
"c.	c #DF9999",
"d.	c #DF9595",
"e.	c #EAC7C7",
"f.	c #E09898",
"g.	c #E1A1A1",
"h.	c #EBCDCD",
"i.	c #EBCACA",
"j.	c #E19898",
"k.	c #D8A4A4",
"l.	c #E3AAAA",
"m.	c #E09999",
"n.	c #E09595",
"o.	c #F0E0E0",
"p.	c #ECCDCD",
"q.	c #EBC5C5",
"r.	c #E09F9F",
"s.	c #EAC9C9",
"t.	c #E19C9C",
"u.	c #EBC9C9",
"v.	c #E19A9A",
"w.	c #E19595",
"x.	c #E29898",
"y.	c #E4ACAC",
"z.	c #E09C9C",
"A.	c #E19999",
"B.	c #E09E9E",
"C.	c #DF9696",
"D.	c #EBC7C7",
"E.	c #ECCBCB",
"F.	c #E19696",
"G.	c #E1A2A2",
"H.	c #E7B8B8",
"I.	c #F3EEEE",
"J.	c #EAC6C6",
"K.	c #EBC6C6",
"L.	c #E8B8B8",
"M.	c #E29595",
"N.	c #E4ABAB",
"O.	c #E09B9B",
"P.	c #E29696",
"Q.	c #E49B9B",
"R.	c #ECC6C6",
"S.	c #D8A3A3",
"T.	c #D39D9D",
"U.	c #E6B6B6",
"V.	c #E09696",
"W.	c #E7B7B7",
"X.	c #F4F1F1",
"Y.	c #E8B7B7",
"Z.	c #E39696",
"`.	c #E9B5B5",
" +	c #E9C2C2",
".+	c #D39A9A",
"++	c #D6A0A0",
"@+	c #E6B4B4",
"#+	c #E8B9B9",
"$+	c #ECC9C9",
"%+	c #F4F0F0",
"&+	c #E9B9B9",
"*+	c #E39595",
"=+	c #E9B4B4",
"-+	c #EBC8C8",
";+	c #D7A0A0",
">+	c #D19D9D",
",+	c #D59E9E",
"'+	c #EAC8C8",
")+	c #E7B5B5",
"!+	c #E09797",
"~+	c #E39898",
"{+	c #E9B8B8",
"]+	c #E49797",
"^+	c #D69E9E",
"/+	c #E9C6C6",
"(+	c #E19797",
"_+	c #F3EBEB",
":+	c #E29999",
"<+	c #E39999",
"[+	c #ECC8C8",
"}+	c #E49595",
"|+	c #D7A1A1",
"1+	c #E9C5C5",
"2+	c #E6A9A9",
"3+	c #E49898",
"4+	c #E7A9A9",
"5+	c #E49696",
"6+	c #EAB5B5",
"7+	c #D8A1A1",
"8+	c #E8B5B5",
"9+	c #D69F9F",
"0+	c #E59696",
"a+	c #E29797",
"b+	c #E59595",
"c+	c #E59797",
"d+	c #E39797",
"e+	c #E69696",
"f+	c #EBB5B5",
"g+	c #E69595",
"h+	c #ECC7C7",
"i+	c #D8A0A0",
"j+	c #E79797",
"k+	c #EAB6B6",
"l+	c #E59898",
"m+	c #E79595",
"n+	c #E79898",
"o+	c #EBB6B6",
"p+	c #ECC5C5",
"q+	c #D79F9F",
"r+	c #EAC4C4",
"s+	c #ECB6B6",
"t+	c #EBC4C4",
"u+	c #E89595",
"v+	c #E89696",
"w+	c #ECB5B5",
"x+	c #EDC8C8",
"y+	c #D69D9D",
"z+	c #ECBEBE",
"A+	c #EBB1B1",
"B+	c #EAB1B1",
"C+	c #EDBEBE",
"D+	c #EDC7C7",
"E+	c #E7BCBC",
"                                    . + @ @ @ @ @ @ @ @ @ @ @ @ @ @ @ @ @ @ @ @ @ @ @ + .                                       ",
"                                  # $ % & & & & & & & & & & & & & & & & & & & & & & & % $ #                                     ",
"                                * = - ; > > > > > > , , , , , , , , , , , , , , , , , ; - = *                                   ",
"                              ' ) ! ~ { ] ^ ^ ^ ^ ^ ^ ^ ^ ^ ^ ^ / / / / / / ( ( ( ( ( _ : ! ) '                                 ",
"                            # = < ~ [ } | | | | | | 1 1 1 1 1 1 1 1 1 1 1 2 2 2 2 2 2 1 ] 3 - = #                               ",
"                          * $ 4 3 [ | | | | | 1 1 1 1 1 1 1 1 1 1 1 2 2 2 2 2 2 5 6 6 6 5 7 8 9 $ *                             ",
"                        0 = 4 8 [ } | 1 1 1 1 1 1 1 1 1 1 1 2 2 2 2 2 5 5 6 6 6 6 6 6 6 6 2 ] a 9 = 0                           ",
"                      b c d e [ } 1 1 1 1 1 1 1 1 2 2 2 2 2 2 5 5 6 6 6 6 6 6 6 6 6 6 f f f 2 ] 8 g c b                         ",
"                    b h - ~ [ | 1 1 1 1 1 2 2 2 2 2 2 5 6 6 6 6 6 6 6 6 6 6 6 f f f f f f f f 6 ] 3 ! h b                       ",
"                  i j 9 ~ 7 1 1 1 1 2 2 2 2 2 2 5 6 6 6 6 6 6 6 6 6 6 6 f f f f f f f f f f f k f ^ e l j i                     ",
"                m j 4 8 7 1 2 2 2 2 2 5 5 6 6 6 6 6 6 6 6 6 6 6 f f f f f f f f f f f k k k k k k f / a 9 j m                   ",
"              n o 9 8 7 | 2 2 5 5 6 6 6 6 6 6 6 6 6 6 6 f f f f f f f f f f k k k k k k k k p p p p f ( q l o n                 ",
"            n o - : 7 1 6 6 6 6 6 6 6 6 6 6 6 f f f f f f f f f f f k k k k k k k p p p p p p p p p p f ( e ! o n               ",
"          n o < ~ ] 1 6 6 6 6 6 6 6 6 f f f f f f f f f f f k k k k k k k p p p p p p p p p p p p p r r p s e - o n             ",
"        t = 9 e ] 6 6 6 6 6 6 6 f f f f f f f f f f f k k k k k k k p p p p p p p p p p p p p r r r r r r r s _ 9 = t           ",
"      u h 4 _ ] 2 6 6 f f f f f f f f f 6 v 2 k k k k k k k p p p p p p p p p p f w k r r r r r r r r r r x p s y 9 h u         ",
"    z A d 8 ] 2 f f f f f f f f f f k f 7 B C 6 k p p p p p p p p p p p p p r f C B ] p r r r r r x x x x x x D E q g A z       ",
"  . A - 3 ^ 5 f f f f f f f k k k k k ] F G H : 6 p p p p p p p p p r r r r f I H G F ^ r x x x x x x x J J J J r E 8 ! A .     ",
"  o l 3 / f f f f f k k k k k k k k [ K G G G H L f p p p p p r r r r r r k C H G G G K ] x x x x J J J J J J J J J M 8 < o     ",
"N O y ^ f f k k k k k k k p p p f ] K G G G G G P Q f r r r r r r r r r k Q P G G G G G K ^ r J J J J J J J J R R R J S T U N   ",
"V 4 : | k k k k k p p p p p p f 7 W G G G G G G G P Q k r r r r r x x p L P G G G G G G G F ^ x J J J R R R R R R R R p X 9 V   ",
"V Y : 6 k p p p p p p p p p p ] F G G G G G G G G G H I f x x x x x k I H G G G G G G G G G F ( Z R R R R R R R R R ` x X 4 V   ",
"V Y : 6 p p p p p p p p p r p Q H G G G G G G G G G G H : p x J J p : H G G G G G G G G G G H C J R R R R ` ` ` ` ` ` x X 4 V   ",
"V Y : 6 p p p p p p r r r r r f C H G G G G G G G G G G  .L p J p L  .G G G G G G G G G G H I x R R ` ` ` ` ` ` ` ` ` J X 4 V   ",
"V Y I f p p r r r r r r r r r r f ..H G G G G G G G G G G P Q f Q P G G G G G G G G G G H I +.` ` ` ` ` ` @.@.#.#.$.$.J %.4 V   ",
"V Y I f r r r r r r r r x x x x x p Q P G G G G G G G G G G P &.P G G G G G G G G G G P L J ` @.@.@.@.#.$.$.$.$.$.$.#.*.%.4 V   ",
"V Y I f r r r r x x x x x x x J J J p Q P G G G G G G G G G G G G G G G G G G G G G P L =.@.#.#.$.$.$.#.#.#.#.#.#.-.-.;.%.4 V   ",
"V Y I k r x x x x x x x J J J J J J J +.C H G G G G G G G G G G G G G G G G G G G H ..J #.#.$.$.#.#.#.#.#.#.-.-.-.>.-.*.%.4 V   ",
"V Y { p x x x x J J J J J J J J J J J ;.+.{ H G G G G G G G G G G G G G G G G G H { ,.#.#.#.#.#.#.#.-.-.-.-.-.-.-.'.'.).%.4 V   ",
"V Y { p J J J J J J J J J J J ;.;.;.;.;.;.+...P G G G G G G G G G G G G G G G P !.,.#.#.#.-.-.-.-.-.-.-.'.'.'.'.'.'.'.).~.9 V   ",
"V Y { p J J J J J J ;.;.;.;.;.;.;.;.;.;.;.@.=.L P G G G G G G G G G G G G G P C *.-.-.-.-.-.-.-.'.'.'.'.'.'.'.'.'.'.'.{.~.9 V   ",
"V Y { +.J J ;.;.;.;.;.;.;.;.;.;.;.@.@.@.@.@.@.=.C H G G G G G G G G G G G H C *.-.-.-.-.'.'.].^.^./.(.(._.:.:.<.[.}.}.:.|.1.V   ",
"V 4 { +.;.;.;.;.;.;.;.;.;.;.@.@.@.@.@.@.@.@.@.,.C H G G G G G G G G G G G H 2.[.3.4.5.6.7.8.8.8.8.8.8.8.8.8.8.8.8.8.8.9.0.a.V   ",
"V 4 X +.;.;.;.;.;.@.@.@.@.@.@.@.@.@.#.#.#.#.,.C P G G G G G G G G G G G G G K b.6.8.8.8.8.8.8.8.8.8.8.8.8.8.8.8.8.8.8.9.0.a.V   ",
"V 4 X =.;.@.@.@.@.@.@.@.@.@.#.#.#.#.#.#.#.,...P G G G G G G G G G G G G G G G P ^ c.8.8.8.8.8.8.8.8.8.8.8.8.8.d.d.d.d.9.0.a.V   ",
"V 4 X =.@.@.@.@.@.@.#.#.#.#.#.#.#.#.#.-.*.X H G G G G G G G G G G G G G G G G G  .e.c.8.8.8.8.8.8.d.d.d.d.d.d.d.d.d.d.f.0.a.V   ",
"V 4 X ,.@.#.#.#.#.#.#.#.#.#.#.#.-.'.[.g.h. .G G G G G G G G G G G G G G G G G G G  .i.9.d.d.d.d.d.d.d.d.d.d.d.d.d.d.d.j.0.k.V   ",
"V 4 X ,.#.#.#.#.#.#.#.#.#.-.l.[.4.7.c.h.P G G G G G G G G G G G G G G G G G G G G G P h.m.d.d.d.d.d.d.d.d.d.d.n.n.n.n.j.0.k.V   ",
"V 4 X ,.#.#.#.#.#.-.-.-.^.g.c.8.8.9.h.K G G G G G G G G G G P o.P G G G G G G G G G G K p.f.d.d.d.n.n.n.n.n.n.n.n.n.n.j.q.k.V   ",
"V 4 %.*.-.-.-.-.-.'.(.r.9.8.8.8.5.s.H G G G G G G G G G G K b.t.b.K G G G G G G G G G G H u.v.n.n.n.n.n.n.n.w.w.w.w.w.x.q.k.V   ",
"V 4 %.*.-.y.-.'.(.z.7.8.8.8.8.c.s.H G G G G G G G G G G P |.f.d.f.|.P G G G G G G G G G G H u.A.w.w.w.w.w.w.w.w.w.w.w.x.q.k.V   ",
"V 4 %.*.'.'./.B.8.8.8.8.8.8.C.|.H G G G G G G G G G G H e.f.d.d.d.f.D.H G G G G G G G G G G H E.F.w.w.w.w.w.w.w.w.w.w.x.q.k.V   ",
"V 4 %.).l.G.9.8.8.8.8.d.d.d.d.H.I.G G G G G G G G G H J.A.n.n.n.n.n.A.K.H G G G G G G G G G I.L.w.w.w.w.w.w.M.M.M.M.M.x.q.k.V   ",
"V l ~.N.O.d.d.d.d.d.d.d.d.d.d.C.H.B G G G G G G G K E.j.n.n.n.n.w.w.w.j.E.K G G G G G G G B L.P.M.M.M.M.M.M.M.M.M.M.M.Q.R.S.V   ",
"N T.S U.C.d.d.d.d.d.d.d.d.d.d.n.V.W.X.G G G G G K E.j.w.w.w.w.w.w.w.w.w.x.E.K G G G G G X.Y.P.M.M.M.M.M.M.M.M.M.M.M.Z.`. +.+N   ",
"  o ++s @+C.d.d.d.n.n.n.n.n.n.n.n.n.#+F G G G H u.x.w.w.w.w.w.w.w.w.w.w.M.x.$+H G G G %+&+M.M.M.M.M.M.M.*+*+*+*+*+Z.=+-+;+o     ",
"  . >+,+'+)+!+n.n.n.n.n.n.n.n.n.w.w.w.L.I.G H q.x.w.w.w.w.w.w.w.M.M.M.M.M.M.~+q.H G I.{+M.M.M.M.*+*+*+*+*+*+*+*+]+`.-+^+>+.     ",
"    z >+++/+)+(+n.n.w.w.w.w.w.w.w.w.w.F.L._+-+:+w.w.M.M.M.M.M.M.M.M.M.M.M.M.M.<+[+_+{+Z.*+*+*+*+*+*+*+*+*+}+}+]+`.K.;+>+z       ",
"      u h |+1+)+(+w.w.w.w.w.w.w.w.w.w.w.P.2+x.M.M.M.M.M.M.M.M.M.M.M.M.M.*+*+*+*+3+4+5+*+*+*+*+}+}+}+}+}+}+}+]+6+0.7+h u         ",
"        t = |+e.8+w.w.w.w.w.M.M.M.M.M.M.M.M.M.M.M.M.M.M.M.M.*+*+*+*+*+*+*+*+*+*+*+}+}+}+}+}+}+}+}+}+}+}+}+}+6+D.7+= t           ",
"          n o 9+'+8+P.M.M.M.M.M.M.M.M.M.M.M.M.M.M.M.M.*+*+*+*+*+*+*+*+*+*+}+}+}+}+}+}+}+}+}+}+}+}+}+}+}+0+6+[+9+o n             ",
"            n o ,+e.8+a+M.M.M.M.M.M.M.M.M.*+*+*+*+*+*+*+*+*+*+}+}+}+}+}+}+}+}+}+}+}+}+}+}+}+}+b+b+b+b+c+6+D.^+o n               ",
"              n o |+0.8+d+M.M.*+*+*+*+*+*+*+*+*+*+}+}+}+}+}+}+}+}+}+}+}+}+}+}+}+}+b+b+b+b+b+b+b+b+b+c+6+q.7+o n                 ",
"                m j 7+0.`.Z.*+*+*+*+*+}+}+}+}+}+}+}+}+}+}+}+}+}+}+}+}+b+b+b+b+b+b+b+b+b+b+b+b+b+b+e+f+q.7+j m                   ",
"                  i j ;+D.`.5+}+}+}+}+}+}+}+}+}+}+}+}+}+}+b+b+b+b+b+b+b+b+b+b+b+b+b+b+b+b+g+g+g+e+f+h+i+j i                     ",
"                    b h ^+-+6+]+}+}+}+}+}+}+}+}+}+b+b+b+b+b+b+b+b+b+b+b+b+b+b+b+b+g+g+g+g+g+g+j+f+[+^+h b                       ",
"                      b h 9+q.k+l+}+}+b+b+b+b+b+b+b+b+b+b+b+b+b+b+b+b+g+g+g+g+g+g+g+g+g+m+m+n+o+p+q+h b                         ",
"                        0 = 7+r+k+c+b+b+b+b+b+b+b+b+b+b+b+g+g+g+g+g+g+g+g+g+m+m+m+m+m+m+m+j+s+t+7+= 0                           ",
"                          * $ 7+K.k+b+b+b+b+b+g+g+g+g+g+g+g+g+g+m+m+m+m+m+m+m+m+m+m+m+m+m+s+R.7+$ *                             ",
"                            # = 9+[+f+e+g+g+g+g+g+g+g+g+m+m+m+m+m+m+m+m+m+m+m+m+m+m+u+v+w+x+q+= #                               ",
"                              ' h y+h+z+A+B+A+A+A+A+A+A+A+A+A+A+A+A+A+A+A+A+A+A+A+A+A+C+D+y+h '                                 ",
"                                * = ^+f E+E+E+E+E+E+E+E+E+E+E+E+E+E+E+E+E+E+E+E+E+E+E+f ^+= *                                   ",
"                                  # $ % % % % % % % % % % % % % % % % % % % % % % % % % $ #                                     ",
"                                    . + @ @ @ @ @ @ @ @ @ @ @ @ @ @ @ @ @ @ @ @ @ @ @ + .                                       "};
