/* XPM */
static const char * nready_unsync_xpm[] = {
"16 16 43 1",
" 	c None",
".	c #595959",
"+	c #000000",
"@	c #A60111",
"#	c #FE0018",
"$	c #FC0018",
"%	c #A4000F",
"&	c #FF1929",
"*	c #FF0F20",
"=	c #FFA197",
"-	c #EC0016",
";	c #FF2F39",
">	c #FF333D",
",	c #E00015",
"'	c #D40014",
")	c #A62127",
"!	c #FF2D37",
"~	c #FFB0A5",
"{	c #FF0920",
"]	c #EA0016",
"^	c #E20015",
"/	c #8A000D",
"(	c #FF1526",
"_	c #FF9893",
":	c #FFA89F",
"<	c #FF8885",
"[	c #FF4956",
"}	c #FF172D",
"|	c #FFE57C",
"1	c #FF031B",
"2	c #FF6367",
"3	c #FF3F4D",
"4	c #FF1329",
"5	c #B40011",
"6	c #FF293D",
"7	c #FF2B3F",
"8	c #FF1D32",
"9	c #FFCC00",
"0	c #B38F00",
"a	c #FA0018",
"b	c #F20017",
"c	c #E60016",
"d	c #E40015",
"                ",
"     .++++.     ",
"    +@#$$$%+    ",
"   +&*====$-+   ",
"  +;>======,'+  ",
" .)!=~=={]+^,/. ",
" +(=_:<[}+|+''+ ",
" +1===234+|+'5+ ",
" +#==678+|90+5+ ",
" +$==aab+|+0+5+ ",
" .%]=cc+|9+90+. ",
"  +cd^^+|9+90+  ",
"   +^^+|999990+ ",
"    +/+|99+990+ ",
"     +|00000000+",
"     +++++++++++"};
