/* XPM */
static const char * options_icon_xpm[] = {
"64 64 593 2",
"  	c None",
". 	c #898B86",
"+ 	c #888A85",
"@ 	c #8B8D89",
"# 	c #8D8F8A",
"$ 	c #8A8D87",
"% 	c #A3A4A0",
"& 	c #E6E6E6",
"* 	c #EAEAEA",
"= 	c #E9E9E9",
"- 	c #D5D6D5",
"; 	c #B3B4B1",
"> 	c #8B8D88",
", 	c #898C86",
"' 	c #878F9D",
") 	c #A2A4A1",
"! 	c #E7E7E7",
"~ 	c #E2E2E2",
"{ 	c #E4E4E4",
"] 	c #E0E0DF",
"^ 	c #A6A7A4",
"/ 	c #88909E",
"( 	c #A7B1BF",
"_ 	c #9AA3B2",
": 	c #9EA09C",
"< 	c #E8E8E8",
"[ 	c #DDDDDD",
"} 	c #DBDBDB",
"| 	c #E1E1E1",
"1 	c #B2B3B0",
"2 	c #88919E",
"3 	c #89919F",
"4 	c #B1BCC9",
"5 	c #C3D0DD",
"6 	c #C2CFDC",
"7 	c #A1ACB9",
"8 	c #898C87",
"9 	c #999B97",
"0 	c #DCDCDC",
"a 	c #A7A8A5",
"b 	c #8A8D88",
"c 	c #8D96A3",
"d 	c #BAC5D2",
"e 	c #C5D1DE",
"f 	c #A8B3C0",
"g 	c #868E9C",
"h 	c #888F9E",
"i 	c #8A8C87",
"j 	c #949692",
"k 	c #DFDFDE",
"l 	c #DEDEDE",
"m 	c #89909E",
"n 	c #949DA9",
"o 	c #C2CDD8",
"p 	c #C6D3DF",
"q 	c #ADB9C6",
"r 	c #8E908C",
"s 	c #E0E0E0",
"t 	c #ACADAA",
"u 	c #87919E",
"v 	c #9DA5B3",
"w 	c #C7D3DF",
"x 	c #C7D4E0",
"y 	c #BFCDDA",
"z 	c #D2D3D1",
"A 	c #CCCDCB",
"B 	c #A9B2BD",
"C 	c #CDD7E2",
"D 	c #C8D4E0",
"E 	c #C3D0DC",
"F 	c #9BA5B3",
"G 	c #CFCFCD",
"H 	c #DFDFDF",
"I 	c #E0E1E0",
"J 	c #ADB5C1",
"K 	c #CED8E2",
"L 	c #C6D2DE",
"M 	c #C0CDDA",
"N 	c #C0CDD9",
"O 	c #BFCCD9",
"P 	c #BFCCD8",
"Q 	c #BECBD8",
"R 	c #BECAD7",
"S 	c #C0CCD8",
"T 	c #ADB6C4",
"U 	c #8A8C88",
"V 	c #CCCCCA",
"W 	c #EDEDED",
"X 	c #E3E3E3",
"Y 	c #EBEBEB",
"Z 	c #C5CDD7",
"` 	c #C4D0DA",
" .	c #BCC8D4",
"..	c #BBC7D4",
"+.	c #BBC7D3",
"@.	c #BAC6D3",
"#.	c #BAC6D2",
"$.	c #B9C5D1",
"%.	c #BCC8D3",
"&.	c #B8C2CD",
"*.	c #8A92A1",
"=.	c #87909C",
"-.	c #8C8E89",
";.	c #C7C8C6",
">.	c #F0F0F0",
",.	c #ECECEC",
"'.	c #EEEEEE",
").	c #C3CAD3",
"!.	c #BDC8D3",
"~.	c #B7C2CE",
"{.	c #B6C2CD",
"].	c #B6C1CD",
"^.	c #B5C1CC",
"/.	c #B5C0CC",
"(.	c #BCC6CF",
"_.	c #939CAA",
":.	c #888B85",
"<.	c #A4A5A2",
"[.	c #ACACA9",
"}.	c #D3D3D2",
"|.	c #F3F3F3",
"1.	c #ECEDEC",
"2.	c #C0C8D1",
"3.	c #BAC4CE",
"4.	c #B1BCC8",
"5.	c #B1BCC7",
"6.	c #B0BBC7",
"7.	c #B0BBC6",
"8.	c #BAC4CD",
"9.	c #A2ACB7",
"0.	c #87909E",
"a.	c #D7D8D6",
"b.	c #F5F5F5",
"c.	c #B2B3AF",
"d.	c #C2C4C1",
"e.	c #F6F6F6",
"f.	c #F4F4F4",
"g.	c #F1F1F1",
"h.	c #E1E1E0",
"i.	c #C2C8D1",
"j.	c #B8C1CA",
"k.	c #ACB7C1",
"l.	c #ACB6C1",
"m.	c #ABB5C0",
"n.	c #B6BEC8",
"o.	c #B0B7C1",
"p.	c #C6C7C5",
"q.	c #C5C5C4",
"r.	c #8A8C86",
"s.	c #AEB4BF",
"t.	c #C4CBD2",
"u.	c #B2BAC4",
"v.	c #B5BEC6",
"w.	c #B6BEC7",
"x.	c #B6BFC7",
"y.	c #BAC2C9",
"z.	c #B7BFC7",
"A.	c #8F97A3",
"B.	c #888F9D",
"C.	c #8B8C87",
"D.	c #BFC0BE",
"E.	c #B9BAB8",
"F.	c #8A8B87",
"G.	c #CBCCCB",
"H.	c #DADADA",
"I.	c #D9D9D9",
"J.	c #C1C2BF",
"K.	c #ADB4BC",
"L.	c #C5CCD2",
"M.	c #B1B9C1",
"N.	c #BEC5CC",
"O.	c #B9BFC7",
"P.	c #AAB1BB",
"Q.	c #A6ACB6",
"R.	c #9FA6B1",
"S.	c #9097A4",
"T.	c #A2A4A0",
"U.	c #E5E5E5",
"V.	c #D5D6D4",
"W.	c #CBCCCA",
"X.	c #C0C0BF",
"Y.	c #DADAD9",
"Z.	c #A7A9A6",
"`.	c #878F9C",
" +	c #ACB2BC",
".+	c #C7CCD1",
"++	c #B0B7BF",
"@+	c #BFC4CB",
"#+	c #B1B7BF",
"$+	c #87909F",
"%+	c #86909D",
"&+	c #878984",
"*+	c #EFEFEF",
"=+	c #A9B0B9",
"-+	c #C8CDD2",
";+	c #AFB6BD",
">+	c #BFC4CA",
",+	c #B3B9C1",
"'+	c #8A929F",
")+	c #8C8D88",
"!+	c #B3B5B2",
"~+	c #D1D1D1",
"{+	c #D7D7D7",
"]+	c #9DA09A",
"^+	c #8A8B86",
"/+	c #A8ADB7",
"(+	c #CBCFD4",
"_+	c #B2B8BF",
":+	c #C2C7CC",
"<+	c #B8BCC4",
"[+	c #D8D8D7",
"}+	c #C7C7C7",
"|+	c #D0D0D0",
"1+	c #CACACA",
"2+	c #D6D6D6",
"3+	c #989A96",
"4+	c #8B8C88",
"5+	c #878F9E",
"6+	c #A5ABB5",
"7+	c #CFD3D7",
"8+	c #B6BCC2",
"9+	c #C5CACF",
"0+	c #BBC1C7",
"a+	c #F9F9F9",
"b+	c #F7F7F7",
"c+	c #F8F8F8",
"d+	c #CCCCCC",
"e+	c #ECECEB",
"f+	c #969793",
"g+	c #898C8C",
"h+	c #A2A9B2",
"i+	c #BABFC5",
"j+	c #C8CCD1",
"k+	c #C0C5CB",
"l+	c #8B92A0",
"m+	c #898B85",
"n+	c #C9CAC8",
"o+	c #FBFBFB",
"p+	c #FAFAFA",
"q+	c #E7E8E7",
"r+	c #F2F2F2",
"s+	c #D4D4D4",
"t+	c #D5D5D5",
"u+	c #D9DBDD",
"v+	c #888F9C",
"w+	c #A0A6B1",
"x+	c #CFD2D7",
"y+	c #BCC1C7",
"z+	c #C2C7CD",
"A+	c #8B93A0",
"B+	c #CDCECC",
"C+	c #EDEDEC",
"D+	c #F3F3F2",
"E+	c #D8D9D8",
"F+	c #AAABA8",
"G+	c #939590",
"H+	c #E9EAEC",
"I+	c #9198A5",
"J+	c #9EA5B0",
"K+	c #CED2D6",
"L+	c #BEC3C8",
"M+	c #C7CCD0",
"N+	c #C4C8CD",
"O+	c #8E95A3",
"P+	c #888A84",
"Q+	c #999B96",
"R+	c #D8D8D8",
"S+	c #CFD0D2",
"T+	c #9198A4",
"U+	c #9CA3AE",
"V+	c #CDD1D5",
"W+	c #C0C5CA",
"X+	c #C7CBD0",
"Y+	c #C4C8CE",
"Z+	c #8D95A2",
"`+	c #9C9E99",
" @	c #EAEBEC",
".@	c #949BA7",
"+@	c #99A1AB",
"@@	c #CCD0D5",
"#@	c #C2C6CC",
"$@	c #C5C9CF",
"%@	c #8E95A2",
"&@	c #888E97",
"*@	c #9E9F9B",
"=@	c #D2D3D4",
"-@	c #979EA9",
";@	c #CCD0D4",
">@	c #8E96A3",
",@	c #AAAEB6",
"'@	c #A0A29E",
")@	c #F0F1F2",
"!@	c #979EAA",
"~@	c #959CA8",
"{@	c #CBCFD3",
"]@	c #C5C9CE",
"^@	c #8F97A4",
"/@	c #D0D1CF",
"(@	c #214B89",
"_@	c #274F8A",
":@	c #476387",
"<@	c #88919B",
"[@	c #9BA2AD",
"}@	c #C9CDD2",
"|@	c #C6CBD0",
"1@	c #C6CAD0",
"2@	c #ADB2BA",
"3@	c #CACBC9",
"4@	c #204A87",
"5@	c #2B548F",
"6@	c #476FA6",
"7@	c #4C74AA",
"8@	c #355D96",
"9@	c #214B88",
"0@	c #6C7E9A",
"a@	c #9098A5",
"b@	c #B4B9C1",
"c@	c #C3C4C2",
"d@	c #234D89",
"e@	c #6084B5",
"f@	c #95B1D5",
"g@	c #BECFE6",
"h@	c #A2BBDA",
"i@	c #7A9CC9",
"j@	c #4B70A6",
"k@	c #234C89",
"l@	c #92A3B9",
"m@	c #ACB0B9",
"n@	c #BCBDBB",
"o@	c #224A89",
"p@	c #6689B9",
"q@	c #7FA2CE",
"r@	c #A1BADA",
"s@	c #BFD0E6",
"t@	c #BACCE3",
"u@	c #638BBF",
"v@	c #7597C5",
"w@	c #486EA3",
"x@	c #92A2B9",
"y@	c #9299A6",
"z@	c #B3B8C0",
"A@	c #B5B6B3",
"B@	c #204B87",
"C@	c #557AAC",
"D@	c #81A3CF",
"E@	c #648EC3",
"F@	c #7196C7",
"G@	c #A4BBDA",
"H@	c #82A3CC",
"I@	c #527DB6",
"J@	c #5C84B9",
"K@	c #6F92C0",
"L@	c #456BA1",
"M@	c #224B88",
"N@	c #77879B",
"O@	c #AEAFAC",
"P@	c #8B8D87",
"Q@	c #43699F",
"R@	c #82A3CE",
"S@	c #6991C4",
"T@	c #5D88BF",
"U@	c #5984BB",
"V@	c #5581B9",
"W@	c #4E7AB3",
"X@	c #4B77B0",
"Y@	c #567FB4",
"Z@	c #698DBB",
"`@	c #315A94",
" #	c #3B5A87",
".#	c #ADAEAB",
"+#	c #A8A9A6",
"@#	c #3D649B",
"##	c #80A1CD",
"$#	c #6C94C6",
"%#	c #5781B8",
"&#	c #4773AD",
"*#	c #000000",
"=#	c #AFB1AD",
"-#	c #204B88",
";#	c #3C6299",
">#	c #7FA0CC",
",#	c #6F96C7",
"'#	c #3C5F8C",
")#	c #40689D",
"!#	c #4370AA",
"~#	c #FFFFFF",
"{#	c #1E1E1E",
"]#	c #9F9F9F",
"^#	c #1D1D1D",
"/#	c #41689D",
"(#	c #7FA1CD",
"_#	c #6E95C7",
":#	c #5A84BC",
"<#	c #3A5F8E",
"[#	c #3D669B",
"}#	c #406CA7",
"|#	c #1F1F1F",
"1#	c #3E3E3E",
"2#	c #070707",
"3#	c #6990C3",
"4#	c #517AAF",
"5#	c #A0A0A0",
"6#	c #5D5D5D",
"7#	c #5E5E5E",
"8#	c #9B9B9B",
"9#	c #060606",
"0#	c #6086B7",
"a#	c #020202",
"b#	c #797979",
"c#	c #7A7A7A",
"d#	c #FDFDFD",
"e#	c #404040",
"f#	c #3F3F3F",
"g#	c #B9B9B9",
"h#	c #474747",
"i#	c #151515",
"j#	c #161616",
"k#	c #8D8D8D",
"l#	c #090909",
"m#	c #838383",
"n#	c #345D96",
"o#	c #8A8A8A",
"p#	c #9D9D9D",
"q#	c #0C0C0C",
"r#	c #525252",
"s#	c #4F4F4F",
"t#	c #B4B4B4",
"u#	c #030303",
"v#	c #040404",
"w#	c #191919",
"x#	c #1A1A1A",
"y#	c #375780",
"z#	c #5F86B7",
"A#	c #325A94",
"B#	c #214B87",
"C#	c #181818",
"D#	c #1B1B1B",
"E#	c #050505",
"F#	c #FEFEFE",
"G#	c #4E4E4E",
"H#	c #AAC0DD",
"I#	c #385A88",
"J#	c #315993",
"K#	c #D3D3D3",
"L#	c #6F6F6F",
"M#	c #515151",
"N#	c #A1A1A1",
"O#	c #5C5C5C",
"P#	c #3A6193",
"Q#	c #204B89",
"R#	c #363636",
"S#	c #777777",
"T#	c #202020",
"U#	c #3D3D3D",
"V#	c #8C8C8C",
"W#	c #858585",
"X#	c #3D679F",
"Y#	c #222222",
"Z#	c #080808",
"`#	c #7B7B7B",
" $	c #C6C6C6",
".$	c #AEAEAE",
"+$	c #B1C6E1",
"@$	c #4571A9",
"#$	c #727272",
"$$	c #888888",
"%$	c #FCFCFC",
"&$	c #7D7D7D",
"*$	c #A3A3A3",
"=$	c #4A4A4A",
"-$	c #BFBFBF",
";$	c #C5C5C5",
">$	c #3A3A3A",
",$	c #C1D2E7",
"'$	c #D4E0EE",
")$	c #406DA7",
"!$	c #5F86B9",
"~$	c #4A73A9",
"{$	c #ADADAD",
"]$	c #B5B5B5",
"^$	c #27508B",
"/$	c #86A8D2",
"($	c #90AED5",
"_$	c #D0DCED",
":$	c #E4EBF4",
"<$	c #D2DEED",
"[$	c #355681",
"}$	c #385E8E",
"|$	c #3B649B",
"1$	c #3C6AA5",
"2$	c #5780B5",
"3$	c #557EB3",
"4$	c #224C89",
"5$	c #C5C6C4",
"6$	c #C8C8C8",
"7$	c #ACACAC",
"8$	c #B6B6B6",
"9$	c #BABABA",
"0$	c #AAABA7",
"a$	c #878B84",
"b$	c #7EA0CC",
"c$	c #6B93C5",
"d$	c #87A7D0",
"e$	c #375D8D",
"f$	c #3B6399",
"g$	c #4C78B0",
"h$	c #5F87BB",
"i$	c #2B5490",
"j$	c #1F4884",
"k$	c #C6C6C4",
"l$	c #C0C0C0",
"m$	c #AAAAAA",
"n$	c #A6A6A6",
"o$	c #B0B0B0",
"p$	c #CFCFCF",
"q$	c #91938E",
"r$	c #5E84B5",
"s$	c #789CCA",
"t$	c #5A85BD",
"u$	c #3A6298",
"v$	c #4170AC",
"w$	c #6088BC",
"x$	c #3E69A3",
"y$	c #204A88",
"z$	c #C6C6C5",
"A$	c #CECECE",
"B$	c #CBCBCB",
"C$	c #D2D2D2",
"D$	c #ADAEAC",
"E$	c #1D447C",
"F$	c #2C5590",
"G$	c #7598C5",
"H$	c #6C92C2",
"I$	c #537EB6",
"J$	c #4671AA",
"K$	c #375C8B",
"L$	c #3A6197",
"M$	c #3C69A4",
"N$	c #3B6BA9",
"O$	c #5580B7",
"P$	c #557FB7",
"Q$	c #1A3B6D",
"R$	c #747670",
"S$	c #ACAEAB",
"T$	c #C4C4C4",
"U$	c #C2C2C1",
"V$	c #A0A19D",
"W$	c #396099",
"X$	c #7295C3",
"Y$	c #638ABC",
"Z$	c #3D659A",
"`$	c #396195",
" %	c #3B68A2",
".%	c #4272B0",
"+%	c #618AC0",
"@%	c #325B98",
"#%	c #1F4780",
"$%	c #80837E",
"%%	c #878985",
"&%	c #888985",
"*%	c #82847F",
"=%	c #3B649D",
"-%	c #6E92C0",
";%	c #5A82B6",
">%	c #3C659D",
",%	c #3B68A1",
"'%	c #3A6CAC",
")%	c #5783BC",
"!%	c #517AB4",
"~%	c #204A86",
"{%	c #214A87",
"]%	c #3E669D",
"^%	c #678CBB",
"/%	c #5D82B4",
"(%	c #4974AA",
"_%	c #406EAB",
":%	c #4373B0",
"<%	c #5582BB",
"[%	c #5D87BF",
"}%	c #2B528E",
"|%	c #1E4279",
"1%	c #305993",
"2%	c #5279AD",
"3%	c #6188BA",
"4%	c #6189BD",
"5%	c #608AC0",
"6%	c #527BB4",
"7%	c #2D5690",
"8%	c #1F4882",
"9%	c #224D89",
"0%	c #295391",
"a%	c #254E8A",
"b%	c #1F4680",
"                                                                                                                                ",
"                                                                                                                                ",
"                                                                                                                                ",
"                                                                                                                                ",
"                                                                                                                                ",
"                                                                                                                                ",
"                                                                                                                                ",
"                                      . + @ # . + $                                                                             ",
"                                    + % & * = & - ; > ,                                                 ' '                     ",
"                                    + ) ! * ~ { = * ] ^ .                                           / ' ( _ /                   ",
"                                      , : { < [ } | = < 1 .                                       2 3 4 5 6 7 /                 ",
"                                        8 9 ~ = [ } 0 ! < a b                                   2 c d e 5 5 5 f g h             ",
"                                          i j k = l } 0 < [ @                                 m n o p 5 5 5 5 5 q ' m           ",
"                                            b r { & } } s = t $                             u v w x 5 5 5 5 5 5 y ' '           ",
"                                              + z ! } } } * A +                           ' B C D 5 5 5 5 5 5 E F m             ",
"                                              + G * H H H = I +                         ' J K L M N O P Q R S T '               ",
"                    .                         U V W X X X = Y +                         / Z `  ...+.@.#.$.%.&.*.=.              ",
"                  . -.$                       > ;.>.< < < ,.'.+                         ' ).!.~.{.].^./.].(._.u                 ",
"                :.<.>.[.U                     + }.|.,.,.,.>.1.+                         ' 2.3.4.5.6.7.7.8.9.0.                  ",
"                + a.b.|.c.i                 + d.e.f.g.g.>.f.h.+                         ' i.j.k.l.m.m.n.o.3                     ",
"                . A & { * ; i             + p.'.< ~ X X { W q.r.                      ' s.t.u.v.w.x.y.z.A.B.                    ",
"                C.D.= } ~ * E.+ + + F.+ + G.* s H.I.I.I.I.< J.+                     ' K.L.M.N.O.P.Q.R.S.'                       ",
"                + T.'.~ s U.W ! l V.W.X.Y.,.X H H H l l l U.= Z.r.                `. +.+++@+#+3 $+/ %+'                         ",
"                  &+U.Y U.U.< * Y ,.W '.*+! { { { X X X X X * * % i             ' =+-+;+>+,+'+                                  ",
"                  )+!+|.,.* * * * * = = = = = = = < < s ~+{+! '.Y ]+^+        B./+(+_+:+<+'+                                    ",
"                    . [+b.>.*+*+*+'.'.'.'.'.'.'.*+W < }+|+1+2+,.g.Y 3+4+    5+6+7+8+9+0+'+                                      ",
"                      i H a+e.f.f.|.|.|.|.|.f.b+c+|.{ d+>.= |+0 g.b.e+f+g+h h+7+i+j+k+l+                                        ",
"                      m++ n+c+o+o+a+a+a+a+p+o+q+r+p+|.s+} b.W t+~ e.a+u+v+w+x+y+j+z+A+                                          ",
"                          8 f+B+C+o+o+o+D+E+F++ G+r+o+r+{+H c+'.I.! H+I+J+K+L+M+N+O+'                                           ",
"                            P+> + > G+# + 8 ,   b Q+r+p+g.R+| b+W S+T+U+V+W+X+Y+Z+%+                                            ",
"                                                  b `+|.p+>.R+~  @.@+@@@#@X+$@%@&@                                              ",
"                                                    > *@|.a+*+=@.@-@;@N+X+9+>@,@i                                               ",
"                                                      b '@|.)@!@~@{@]@X+9+^@<+a+/@.                                             ",
"                                                    (@_@:@<@[@.@}@|@X+1@S.2@Y b.c+3@.                                           ",
"                                                4@5@6@7@8@9@0@X+j+M+X+a@b@* s Y f.b+c@F.                                        ",
"                                              d@e@f@g@h@i@j@k@l@j+X+I+m@! r+= | ,.f.e.n@r.                                      ",
"                                            o@p@q@r@s@t@u@v@w@k@x@y@z@= l & *+! | = g.|.A@$                                     ",
"                                          B@C@D@E@F@G@H@I@J@K@L@M@N@r+>.& [ { ,.& | < *+g.O@P@                                  ",
"                                        B@Q@R@S@T@U@V@I@W@X@Y@Z@`@ #.#>.'.X 0 X = { | & '.'.+#>                                 ",
"                                      B@@###$#T@U@V@%#W@X@&#*#*#*#*#r.=#*+Y | } ~ & | s U.,.Y T.^+                              ",
"        *#*#*#*#*#*#*#              -#;#>#,#T@*#*#*#*#'#)#!#*#~#~#*#  i c.'.< s 0 | { ~ H ~ * q+]+F.                            ",
"      *#{#]#& p+U.]#^#*#          -#/#(#_#T@:#*#~#~#*#<#[#}#*#~#~#*#    . !+,.& l 0 H | s s | = { Q+:.                          ",
"    *#|#= ! 1#2#1#< < ^#*#*#*#*#*#*#*#*#*#3#*#*#~#~#*#*#*#4#*#*#*#*#      *#*#*#*#*#0 [ *#*#*#*#*#*#*#*#      *#*#*#*#*#*#      ",
"    *#5#~#6#*#  *#7#~#]#*#*#~#~#~#~#b.8#9#*#*#~#~#~#~#~#*#0#*#~#~#*#    a#b#s o+| c#a#} *#~#~#~#~#d#t+e#*#  *#f#}+b.e.g#h#*#    ",
"    *#! ~#i#      j#~#U.*#*#~#~#k#l#k#~#m#*#*#*#~#~#*#*#*#n#*#~#~#*#  *#c#~#o#l#k#~#b#*#*#~#~#p#q#r#~#0 *#  *#U.~#s#l#1#t#*#    ",
"    *#o+~#u#      v#~#p+*#*#~#~#w#*#x#~#~ *#y#*#~#~#*#z#A#B#*#~#~#*#  *#| ~#C#*#x#~#s *#*#~#~#D#*#E#~#F#*## *#r+o+G#|#*#*#*#    ",
"    *#! ~#i#      j#~#& *#*#~#~#a#H#u#~#o+*#I#*#~#~#*#J#9@  *#~#~#*#  *#o+~#a#  u#~#o+*#*#~#~#*#K#*#~#~#*#B+*#L#e.~#~#0 M#*#    ",
"    *#N#~#O#*#  *#6#~#]#*#*#~#~#w#*#w#~#~ *#P#*#~#~#*#Q#    *#~#~#*#  *#X ~#C#*#w#~#s *#*#~#~#*#t+*#~#~#*#| *#*#l#R#S#~#& *#    ",
"    *#T#Y ! U#9#1#! = {#*#*#~#~#k#l#V#~#W#*#X#*#>.~#Y#*#*#  *#~#~#*#  *#W#~#o#Z#V#~#`#*#*#~#~#*#K#*#~#~#*# $*#.$R#9#R#~#| *#    ",
"      *#T#N#! o+! 5#|#*#+$*#~#~#~#~#e.p#2#*#@$*##$*+~#~#*#  *#~#~#*#  *#E#$${ %$~ &$a#  *#~#~#*#1+*#~#~#*#*$*#=$-$b+e.;$>$*#    ",
"        *#*#*#*#*#*#*#,$'$*#~#~#*#*#*#*#*#)$!$~$*#*#*#*#*#  *#*#*#*#    *#*#*#*#*#*#    *#*#*#*#1+*#*#*#*#{$]$*#*#*#*#*#*#      ",
"              ^$/$($_$:$<$*#~#~#*#[$}$|$1$2$3$4$                                            > 5$H.6$7$8$K#*$9$0 0$a$            ",
"              B#b$c$d$>#V@*#~#~#*#e$f$1$g$h$i$j$                                              -.k$R+l$m$n$o$p$H.q$              ",
"              9@r$s$t$V@I@*#*#*#*#u$1$v$w$x$y$                                                  # z$R+A$B$C$H.D$.               ",
"              E$F$G$H$I$W@X@J$K$L$M$N$O$P$y$Q$                                                  R$-.S$T$d+U$V$+                 ",
"                B#W$X$Y$X@&#Z$`$ %N$.%+%@%#%                                                        $%%%+ &%*%                  ",
"                  B@=%-%;%!#>%,%N$'%)%!%~%                                                                                      ",
"                    {%]%^%/%(%_%:%<%[%}%|%                                                                                      ",
"                      {%1%2%3%4%5%6%7%j$                                                                                        ",
"                        8%4@9%0%a%~%b%                                                                                          ",
"                                                                                                                                ",
"                                                                                                                                ",
"                                                                                                                                ",
"                                                                                                                                "};
