/* XPM */
static const char * player_xpm[] = {
"16 16 12 1",
" 	c None",
".	c #000000",
"+	c #F1AB9D",
"@	c #FFFDEA",
"#	c #FFF6AA",
"$	c #FFE400",
"%	c #BCA800",
"&	c #DBC300",
"*	c #E4CB00",
"=	c #CEB800",
"-	c #453D00",
";	c #A49300",
"                ",
"       ..       ",
"  ..  .++.  ..  ",
"  .+..++++..+.  ",
"  .++......++.  ",
"   ...@@@@...   ",
"  ..@@##$$@@..  ",
" .+.@#.$$.$#.+. ",
".+.@#$.$$.$$%.+.",
" ..@#$$$$$$&%.. ",
"  .@$$$$$$$&%.  ",
"  .@$.$$$$.&%.  ",
"   .#$....*=.   ",
"   .%%$$$&=%.   ",
"    .-%%%;..    ",
"      ....      "};
