/* XPM */
static const char * rank1_xpm[] = {
"16 16 22 1",
" 	c None",
".	c #FF9200",
"+	c #FF7D00",
"@	c #FFFF84",
"#	c #FFFF2A",
"$	c #FFFF00",
"%	c #FFDE00",
"&	c #FF6B00",
"*	c #FFFF6B",
"=	c #B20000",
"-	c #FFE32A",
";	c #FFF7C3",
">	c #FFFF39",
",	c #FFEA00",
"'	c #FFFF98",
")	c #D52200",
"!	c #FF4D00",
"~	c #940000",
"{	c #D50000",
"]	c #FFED2A",
"^	c #941700",
"/	c #7B0000",
"                ",
"                ",
"                ",
"       .+       ",
"      .@#+      ",
"     .@$%$&     ",
"    .*%==%$&    ",
"   +$-=;>=%$&   ",
"  +#,='%%$=,$)  ",
"  !,=#%~~%$=,{  ",
"  {=#%~  ~%$==  ",
"  =#]~    ~,$~  ",
"  ~,~      ~,^  ",
"  ~/        ~/  ",
"                ",
"                "};
