/* XPM */
static const char * rank3_xpm[] = {
"16 16 36 1",
" 	c None",
".	c #FFAA00",
"+	c #FFFBD5",
"@	c #FFFACD",
"#	c #FFEA00",
"$	c #FF9200",
"%	c #FFFFC3",
"&	c #D52200",
"*	c #FFF9C3",
"=	c #FF6B00",
"-	c #D50000",
";	c #FFF698",
">	c #FFF8B7",
",	c #FFFFA9",
"'	c #FFF04D",
")	c #FF4D00",
"!	c #FF2900",
"~	c #FFF7A9",
"{	c #B20000",
"]	c #FFF484",
"^	c #B21C00",
"/	c #671000",
"(	c #7B1300",
"_	c #FFED2A",
":	c #940000",
"<	c #7B0000",
"[	c #941700",
"}	c #B23F00",
"|	c #FF7900",
"1	c #D52800",
"2	c #FFFF9A",
"3	c #FFFFC5",
"4	c #FFA400",
"5	c #FFBF00",
"6	c #671F00",
"7	c #670000",
"       ..       ",
"      .++.      ",
"     .@##@$     ",
"    $%#&&#*=    ",
"   $%#-;;-#>=   ",
"  =,#-;##;-#'=  ",
"  )#-;#&&#;-#)  ",
"  !-;#->~{#;-)  ",
"  &;#{]##]{#]&  ",
"  -#^]#/(_;{#&  ",
"  {:;#<  :#~:^  ",
"  :;#[    }#~(  ",
"  :#:{    |1_/  ",
"  :#234445>]'/  ",
"   ::##]]]#/6   ",
"     777777     "};
