/* XPM */
static char * C:\Users\Floris\Desktop\rank7_xpm[] = {
"16 16 80 1",
" 	c None",
".	c #2BB4E4",
"+	c #2FB6E3",
"@	c #B4EBEB",
"#	c #009BDF",
"$	c #AEE8EA",
"%	c #1278A7",
"&	c #00A1E6",
"*	c #A6E6EA",
"=	c #4BCDE3",
"-	c #0C82B6",
";	c #BAEBED",
">	c #BDEBEF",
",	c #0F7DAF",
"'	c #37BBE3",
")	c #36BAE3",
"!	c #3CC0E5",
"~	c #8BDDE8",
"{	c #AFE8EB",
"]	c #B7E9ED",
"^	c #5FD1E4",
"/	c #21B4E6",
"(	c #40C2E3",
"_	c #3EC1E3",
":	c #30B7E3",
"<	c #00A4E5",
"[	c #9CE3E8",
"}	c #B7EBEC",
"|	c #ADE8EB",
"1	c #A3E3EA",
"2	c #C5EEF0",
"3	c #99E2E8",
"4	c #B1EAEB",
"5	c #B4E9EB",
"6	c #A8E6EA",
"7	c #8EDEE7",
"8	c #008CC6",
"9	c #156F9A",
"0	c #0C7FB3",
"a	c #0094D2",
"b	c #20AFE4",
"c	c #ACE7EB",
"d	c #BDEBEE",
"e	c #93DFE7",
"f	c #009EE1",
"g	c #009EE4",
"h	c #028AC2",
"i	c #195D7F",
"j	c #1A475E",
"k	c #166D96",
"l	c #00A3D7",
"m	c #39C4E8",
"n	c #BCEBEE",
"o	c #3EC2E6",
"p	c #009AD4",
"q	c #1A4F69",
"r	c #1A5673",
"s	c #1A4C64",
"t	c #98E0E9",
"u	c #B7EAEC",
"v	c #82DCEA",
"w	c #A6E3EB",
"x	c #4BCCE3",
"y	c #0098DA",
"z	c #A7E6EA",
"A	c #01AFE7",
"B	c #1A6D94",
"C	c #76D8E7",
"D	c #A6E3EC",
"E	c #72D7E5",
"F	c #9FE4E9",
"G	c #186388",
"H	c #6DD5E6",
"I	c #87DCE7",
"J	c #1276A4",
"K	c #69D4E5",
"L	c #0091CF",
"M	c #185B7D",
"N	c #76D8E5",
"O	c #1A4256",
"       .        ",
"      +@#       ",
"      .$%       ",
"     &$*=-      ",
"     &;>=,      ",
" '')!~{]=^/(_:  ",
"<[*[}|123456$78 ",
" 90a0bcdefgahi  ",
"  jjklmnopgqr   ",
"    stuvwxq     ",
"   y7zABCDE-    ",
"   &7F0GaHI%    ",
"  .7FJGjkaK7%   ",
"  LFJMj rhaN%   ",
"  %hjO   jrhr   ",
"   j       q    "};
