/* XPM */
static const char * rank5_xpm[] = {
"16 16 50 1",
" 	c None",
".	c #706D34",
"+	c #565656",
"@	c #2D5C91",
"#	c #FFFFFF",
"$	c #FCFE72",
"%	c #6CD7FE",
"&	c #FCFE36",
"*	c #ACAAAA",
"=	c #FCFE5A",
"-	c #E8E8E8",
";	c #EEE330",
">	c #50A0FA",
",	c #939393",
"'	c #C7C7C7",
")	c #FCFE48",
"!	c #676767",
"~	c #87833F",
"{	c #CC9E00",
"]	c #FAD300",
"^	c #FCFE4A",
"/	c #FF7901",
"(	c #F4A600",
"_	c #FCFF0B",
":	c #D62300",
"<	c #CC8600",
"[	c #FEEC24",
"}	c #FEEF4A",
"|	c #EBEE00",
"1	c #CCBB00",
"2	c #FEEE38",
"3	c #FFEB0B",
"4	c #CC6500",
"5	c #D64100",
"6	c #B20000",
"7	c #CC7800",
"8	c #CC9000",
"9	c #FEF056",
"0	c #941800",
"a	c #B21D00",
"b	c #CCA800",
"c	c #7C1400",
"d	c #800000",
"e	c #CCB200",
"f	c #FF6D01",
"g	c #680000",
"h	c #D65B00",
"i	c #CCA300",
"j	c #D60000",
"k	c #940000",
"  .+.@.+.@.+.   ",
"  .#$%&*&%=-.   ",
"  .#;>;,;>;-.   ",
"  .-;>;,;>;-.   ",
"  .';>;';>;-.   ",
"   +)>)!&>=+    ",
"    .%~{~%.     ",
"     @]^/@      ",
"      (_:       ",
"    {<^[}{{     ",
"  {{^|1213245   ",
"   :67898<0a    ",
"     a2bbc      ",
"    <[7d<e:     ",
"    f8g hi6     ",
"    jk   66     "};
