/* XPM */
static const char * rank6_xpm[] = {
"16 16 53 1",
" 	c None",
".	c #C9C9C9",
"+	c #CBCBCB",
"@	c #FDFDFD",
"#	c #ADADAD",
"$	c #FBFBFB",
"%	c #838383",
"&	c #B4B4B4",
"*	c #F9F9F9",
"=	c #E2E2E2",
"-	c #909090",
";	c #8A8A8A",
">	c #D1D1D1",
",	c #D0D0D0",
"'	c #EEEEEE",
")	c #F8F8F8",
"!	c #F6F6F6",
"~	c #E6E6E6",
"{	c #C2C2C2",
"]	c #D6D6D6",
"^	c #CCCCCC",
"/	c #B7B7B7",
"(	c #FCFCFC",
"_	c #F3F3F3",
":	c #F5F5F5",
"<	c #F2F2F2",
"[	c #9C9C9C",
"}	c #757575",
"|	c #8D8D8D",
"1	c #A5A5A5",
"2	c #C3C3C3",
"3	c #F7F7F7",
"4	c #AEAEAE",
"5	c #B0B0B0",
"6	c #999999",
"7	c #595959",
"8	c #303030",
"9	c #727272",
"0	c #3D3D3D",
"a	c #4B4B4B",
"b	c #373737",
"c	c #E9E9E9",
"d	c #E0E0E0",
"e	c #AAAAAA",
"f	c #BABABA",
"g	c #646464",
"h	c #F0F0F0",
"i	c #EBEBEB",
"j	c #808080",
"k	c #A2A2A2",
"l	c #565656",
"m	c #ECECEC",
"n	c #242424",
"       .        ",
"      +@#       ",
"      .$%       ",
"     &$*=-      ",
"     &$*=;      ",
" >>,>')!=~{]]^  ",
"/!*!(*_*:($*$<[ ",
" }|1|23*_45167  ",
"  8891+*,150a   ",
"    b<$c<d0     ",
"   e<*fgchi-    ",
"   &<3|g1ch%    ",
"  .<3jg891c<%   ",
"  k3jl8 a61m%   ",
"  %68n   8a6a   ",
"   8       0    "};
