/* XPM */
static const char * rank5_xpm[] = {
"16 16 32 1",
" 	c None",
".	c #000000",
"+	c #F3F0F0",
"@	c #F8F2A9",
"#	c #95C6FB",
"$	c #F7F5F5",
"%	c #BFBDBD",
"&	c #F4EB6F",
"*	c #4E9FFB",
"=	c #B3B2B2",
"-	c #939292",
";	c #B5B5B5",
">	c #ADA64E",
",	c #3770B2",
"'	c #BDA33B",
")	c #B0942D",
"!	c #C6AC3F",
"~	c #C6AD40",
"{	c #DFD05A",
"]	c #E0D15B",
"^	c #DFD15B",
"/	c #E0D15C",
"(	c #E0D25C",
"_	c #F4EB70",
":	c #F4EA70",
"<	c #EBDB66",
"[	c #EADA66",
"}	c #CAB349",
"|	c #C9B248",
"1	c #C8B147",
"2	c #A28727",
"3	c #A18626",
"  ...........   ",
"  .+@#@$@#@%.   ",
"  .+&*&=&*&-.   ",
"  .+&*&=&*&-.   ",
"  .;&*&=&*&-.   ",
"   .>*&.&*>.    ",
"    .,&.&,.     ",
"     ..'..      ",
"      .).       ",
"   ...!~~...    ",
" ...{{{]^/(...  ",
"   ..._&:...    ",
"     .<<[.      ",
"    .}|.11.     ",
"    .2. .3.     ",
"   ...   ...    "};
