/* XPM */
static char * singleplayer_icon_xpm[] = {
"64 64 480 2",
"  	c None",
". 	c #4F4F4F",
"+ 	c #272727",
"@ 	c #040404",
"# 	c #1C1C1C",
"$ 	c #121212",
"% 	c #1E1E1E",
"& 	c #4D4D4D",
"* 	c #333333",
"= 	c #282828",
"- 	c #626262",
"; 	c #949494",
"> 	c #BCBCBC",
", 	c #D4D4D4",
"' 	c #C9C9C9",
") 	c #ABABAB",
"! 	c #7D7D7D",
"~ 	c #484848",
"{ 	c #232323",
"] 	c #5E5E5E",
"^ 	c #ACACAC",
"/ 	c #C8C8C8",
"( 	c #C2C2C2",
"_ 	c #868686",
": 	c #3D3D3D",
"< 	c #323232",
"[ 	c #595959",
"} 	c #B2B2B2",
"| 	c #BEBEBE",
"1 	c #8E8E8E",
"2 	c #404040",
"3 	c #222222",
"4 	c #929292",
"5 	c #B4B4B4",
"6 	c #B8B8B8",
"7 	c #CDCDCD",
"8 	c #D8D8D8",
"9 	c #D6D6D6",
"0 	c #CACACA",
"a 	c #575757",
"b 	c #A2A2A2",
"c 	c #AEAEAE",
"d 	c #DADADA",
"e 	c #FCFCFC",
"f 	c #FFFFFF",
"g 	c #FAFAFA",
"h 	c #D5D5D5",
"i 	c #AAAAAA",
"j 	c #727272",
"k 	c #4B4B4B",
"l 	c #262626",
"m 	c #989898",
"n 	c #A9A9A9",
"o 	c #EFEFEF",
"p 	c #E2E2E2",
"q 	c #A4A4A4",
"r 	c #A0A0A0",
"s 	c #6B6B6B",
"t 	c #353535",
"u 	c #0C0C0C",
"v 	c #878787",
"w 	c #999999",
"x 	c #ECECEC",
"y 	c #F6F6F6",
"z 	c #979797",
"A 	c #969696",
"B 	c #9C9C9C",
"C 	c #E9E9E9",
"D 	c #FEFEFE",
"E 	c #CCCCCC",
"F 	c #9F9F9F",
"G 	c #3C3C3C",
"H 	c #010101",
"I 	c #5B5B5B",
"J 	c #8A8A8A",
"K 	c #C4C4C4",
"L 	c #E3E3E3",
"M 	c #F8F8F8",
"N 	c #B1B1B1",
"O 	c #888888",
"P 	c #141414",
"Q 	c #535353",
"R 	c #818181",
"S 	c #838383",
"T 	c #F4F4F4",
"U 	c #DCDCDC",
"V 	c #F1F1F1",
"W 	c #EAEAEA",
"X 	c #A8A8A8",
"Y 	c #4E4E4E",
"Z 	c #1B1B1B",
"` 	c #777777",
" .	c #656565",
"..	c #B6B6B6",
"+.	c #919191",
"@.	c #F9F9F9",
"#.	c #DBDBDB",
"$.	c #D2D2D2",
"%.	c #848484",
"&.	c #737373",
"*.	c #090909",
"=.	c #000000",
"-.	c #6C6C6C",
";.	c #E0E0E0",
">.	c #191919",
",.	c #CBCBCB",
"'.	c #9E9E9E",
").	c #1A1A1A",
"!.	c #373737",
"~.	c #565656",
"{.	c #B5B5B5",
"].	c #4C4C4C",
"^.	c #050505",
"/.	c #8C8C8C",
"(.	c #C5C5C5",
"_.	c #252525",
":.	c #585858",
"<.	c #F0F0F0",
"[.	c #2A2A2A",
"}.	c #8D8D8D",
"|.	c #212121",
"1.	c #7A7A7A",
"2.	c #D0D0D0",
"3.	c #EBEBEB",
"4.	c #B7B7B7",
"5.	c #8B8B8B",
"6.	c #181818",
"7.	c #444444",
"8.	c #494949",
"9.	c #F3F3F3",
"0.	c #C3C3C3",
"a.	c #AFAFAF",
"b.	c #666666",
"c.	c #5D5D5D",
"d.	c #080808",
"e.	c #343434",
"f.	c #0B0B0B",
"g.	c #131313",
"h.	c #383838",
"i.	c #9A9A9A",
"j.	c #DDDDDD",
"k.	c #C3C3AC",
"l.	c #CACA87",
"m.	c #CECE6F",
"n.	c #BAB843",
"o.	c #9D941E",
"p.	c #DACF7A",
"q.	c #FBF0B3",
"r.	c #F3EDD3",
"s.	c #2E2E2E",
"t.	c #020202",
"u.	c #EAEA47",
"v.	c #FBFB0C",
"w.	c #FFFF00",
"x.	c #FFFE00",
"y.	c #FFF500",
"z.	c #FFEA00",
"A.	c #FFDE00",
"B.	c #FFD200",
"C.	c #FFC600",
"D.	c #FDAE0E",
"E.	c #F2A94F",
"F.	c #7B7B7B",
"G.	c #303030",
"H.	c #6A6A6A",
"I.	c #242424",
"J.	c #434343",
"K.	c #CECECE",
"L.	c #C6C692",
"M.	c #FAFA07",
"N.	c #FFFA00",
"O.	c #FFF000",
"P.	c #FFE400",
"Q.	c #FFD800",
"R.	c #FFCC00",
"S.	c #FFBC00",
"T.	c #FE9B0A",
"U.	c #D8BFA1",
"V.	c #4A4A4A",
"W.	c #1D1D1D",
"X.	c #2C2C2C",
"Y.	c #101010",
"Z.	c #BDBDBD",
"`.	c #C2C276",
" +	c #FEFE03",
".+	c #FFAA00",
"++	c #F0CA99",
"@+	c #EEEEEE",
"#+	c #E6E6E6",
"$+	c #DFDFDF",
"%+	c #ADADAD",
"&+	c #060606",
"*+	c #E7E7E7",
"=+	c #F4F48C",
"-+	c #F1C476",
";+	c #EDEDED",
">+	c #E5E5E5",
",+	c #E1E1E1",
"'+	c #505050",
")+	c #0F0F0F",
"!+	c #F4EF6D",
"~+	c #F4C351",
"{+	c #DEDEDE",
"]+	c #747474",
"^+	c #F6E44F",
"/+	c #F7C734",
"(+	c #E5E4E1",
"_+	c #D3D3D3",
":+	c #CFCFCF",
"<+	c #898989",
"[+	c #1F1F1F",
"}+	c #F8F7F0",
"|+	c #F6D433",
"1+	c #FACA1E",
"2+	c #E2DDCE",
"3+	c #858585",
"4+	c #787878",
"5+	c #F1ECDD",
"6+	c #E1D9BD",
"7+	c #E8E8E8",
"8+	c #686868",
"9+	c #EFEEEE",
"0+	c #EEEDEE",
"a+	c #EDEDEC",
"b+	c #BABABA",
"c+	c #424242",
"d+	c #696969",
"e+	c #0D0D0D",
"f+	c #ECEDEC",
"g+	c #EBECEB",
"h+	c #030303",
"i+	c #616161",
"j+	c #ECEBEC",
"k+	c #EAEAEB",
"l+	c #FCFDFC",
"m+	c #FCFBFC",
"n+	c #FBFBFB",
"o+	c #F7F7F8",
"p+	c #F1F1F2",
"q+	c #EFEFEE",
"r+	c #EDEEED",
"s+	c #E9E9E8",
"t+	c #E4E4E4",
"u+	c #E4E3E4",
"v+	c #E1E2E2",
"w+	c #3B3B3B",
"x+	c #FDFDFD",
"y+	c #F9F9FA",
"z+	c #F8F7F7",
"A+	c #F7F7F7",
"B+	c #F6F5F6",
"C+	c #F5F5F5",
"D+	c #EEEDED",
"E+	c #EDECEC",
"F+	c #E9E8E9",
"G+	c #E6E7E7",
"H+	c #E4E3E3",
"I+	c #E3E2E3",
"J+	c #E1E0E0",
"K+	c #DFDFE0",
"L+	c #DEDFDF",
"M+	c #414141",
"N+	c #FEFDFD",
"O+	c #FDFDFC",
"P+	c #FAF9FA",
"Q+	c #F9F8F8",
"R+	c #F8F8F7",
"S+	c #F7F6F7",
"T+	c #F5F5F4",
"U+	c #F3F4F3",
"V+	c #F2F3F3",
"W+	c #F0F1F1",
"X+	c #F0EFF0",
"Y+	c #EEEFEE",
"Z+	c #EBEAEB",
"`+	c #E9EAEA",
" @	c #E7E7E6",
".@	c #E5E6E5",
"+@	c #E2E3E3",
"@@	c #E2E2E3",
"#@	c #E2E1E1",
"$@	c #DCDDDD",
"%@	c #FBFCFB",
"&@	c #FBFAFB",
"*@	c #F3F3F2",
"=@	c #F2F2F2",
"-@	c #EDEDEE",
";@	c #E0E0DF",
">@	c #DDDCDD",
",@	c #DBDBDC",
"'@	c #DBDADB",
")@	c #FBFBFA",
"!@	c #F6F7F6",
"~@	c #F2F2F1",
"{@	c #F0F0F1",
"]@	c #F0F0EF",
"^@	c #ECEDED",
"/@	c #E8E9E8",
"(@	c #E8E7E7",
"_@	c #E7E6E6",
":@	c #E3E3E4",
"<@	c #DEDEDD",
"[@	c #DCDCDB",
"}@	c #D9D9D9",
"|@	c #F8F8F9",
"1@	c #F4F4F5",
"2@	c #F4F3F3",
"3@	c #EEEEEF",
"4@	c #E1E1E2",
"5@	c #DEDFDE",
"6@	c #DDDEDE",
"7@	c #FCFCFD",
"8@	c #FBFBFC",
"9@	c #F8F7F8",
"0@	c #F3F2F3",
"a@	c #EFEEEF",
"b@	c #E8E8E7",
"c@	c #E5E6E6",
"d@	c #E4E4E5",
"e@	c #E2E2E1",
"f@	c #E0DFE0",
"g@	c #DDDDDC",
"h@	c #D7D6D7",
"i@	c #FEFEFF",
"j@	c #FEFEFD",
"k@	c #FCFDFD",
"l@	c #FAFBFB",
"m@	c #F6F6F7",
"n@	c #F6F5F5",
"o@	c #EDECED",
"p@	c #E3E2E2",
"q@	c #DFE0E0",
"r@	c #DFDEDE",
"s@	c #D9D8D8",
"t@	c #D7D8D8",
"u@	c #D6D5D5",
"v@	c #F3F3F4",
"w@	c #F0EFEF",
"x@	c #ECEBEB",
"y@	c #E6E5E6",
"z@	c #E4E5E5",
"A@	c #E3E3E2",
"B@	c #DCDCDD",
"C@	c #D8D8D9",
"D@	c #D7D7D7",
"E@	c #D4D5D5",
"F@	c #939393",
"G@	c #E3E4E4",
"H@	c #A1A1A1",
"I@	c #9B9B9B",
"J@	c #909090",
"K@	c #E2E3E2",
"L@	c #555555",
"M@	c #C1C1C1",
"N@	c #B0B0B0",
"O@	c #A7A7A7",
"P@	c #808080",
"Q@	c #6D6D6D",
"R@	c #828282",
"S@	c #7F7F7F",
"T@	c #F0F1F0",
"U@	c #EFF0F0",
"V@	c #D1D1D1",
"W@	c #E8E8E9",
"X@	c #7C7C7C",
"Y@	c #5A5A5A",
"Z@	c #E7E8E8",
"`@	c #C6C6C6",
" #	c #C0C0C0",
".#	c #959595",
"+#	c #7E7E7E",
"@#	c #EEEEED",
"##	c #E4E5E4",
"$#	c #C2A270",
"%#	c #D7D8D7",
"&#	c #D5D6D5",
"*#	c #C5C6C5",
"=#	c #ECECEB",
"-#	c #E5E5E6",
";#	c #FFF0D4",
">#	c #DCDBDC",
",#	c #CBCACB",
"'#	c #C9C9CA",
")#	c #C8C9C9",
"!#	c #C8C7C8",
"~#	c #C5C4C5",
"{#	c #C0C1C0",
"]#	c #BFC0C0",
"^#	c #EBEAEA",
"/#	c #E1E1E0",
"(#	c #FFEABB",
"_#	c #D3D3D2",
":#	c #D0CFD0",
"<#	c #CECFCF",
"[#	c #CCCDCC",
"}#	c #CBCCCB",
"|#	c #C8C7C7",
"1#	c #C7C6C6",
"2#	c #C6C6C5",
"3#	c #C1C1C2",
"4#	c #EAEBEA",
"5#	c #E7E8E7",
"6#	c #D7D7D8",
"7#	c #D7D6D6",
"8#	c #D2D3D2",
"9#	c #D1D1D2",
"0#	c #C9CAC9",
"a#	c #C1C0C0",
"b#	c #C0C0BF",
"c#	c #E5E5E4",
"d#	c #E4E4E3",
"e#	c #FFD240",
"f#	c #DDDEDD",
"g#	c #DADBDA",
"h#	c #D5D5D6",
"i#	c #CECECD",
"j#	c #CBCBCC",
"k#	c #C9C9C8",
"l#	c #C4C5C4",
"m#	c #C4C3C4",
"n#	c #C2C3C2",
"o#	c #BFBFBF",
"p#	c #BEBEBF",
"q#	c #FBBA00",
"r#	c #D1B683",
"s#	c #FFCC08",
"t#	c #FFCE09",
"u#	c #DDDDDE",
"v#	c #DDDCDC",
"w#	c #D8D9D9",
"x#	c #D4D4D5",
"y#	c #D3D4D4",
"z#	c #D3D2D3",
"A#	c #A3A3A3",
"B#	c #C8C8C7",
"C#	c #C7C7C7",
"D#	c #FBC700",
"E#	c #B39D6F",
"F#	c #E6E6E5",
"G#	c #F9CB02",
"H#	c #FFCF00",
"I#	c #FFD600",
"J#	c #797979",
"K#	c #C6C5C5",
"L#	c #BDBEBD",
"M#	c #BCBCBD",
"N#	c #C49D22",
"O#	c #E7C111",
"P#	c #FFDB00",
"Q#	c #FFDA00",
"R#	c #DBDBDA",
"S#	c #D9D9DA",
"T#	c #D6D7D6",
"U#	c #D5D4D5",
"V#	c #D1D2D2",
"W#	c #D0D1D1",
"X#	c #C8C8C9",
"Y#	c #FEDE00",
"Z#	c #C3C2C2",
"`#	c #C1C1C0",
" $	c #BCBBBC",
".$	c #BBBBBB",
"+$	c #BABABB",
"@$	c #868583",
"#$	c #AA995A",
"$$	c #CDB625",
"%$	c #F3D806",
"&$	c #D8D9D8",
"*$	c #D3D3D4",
"=$	c #D2D1D2",
"-$	c #CAC9C9",
";$	c #A29361",
">$	c #C3B12F",
",$	c #C1C2C2",
"'$	c #C0BFBF",
")$	c #BAB9BA",
"!$	c #B9B8B9",
"~$	c #B4AB36",
"{$	c #C7C7C6",
"]$	c #C6C7C7",
"                                                                                                                                ",
"                                                                                                                                ",
"                                                                                                                                ",
"                                                                                                                                ",
"                                                      . + @ # # # # $ % &                                                       ",
"                                                * = - ; > , , , , , , ' ) ! ~ *                                                 ",
"                                            { ] ^ / / / / / / / / / / / / / / ( _ :                                             ",
"                                        < [ } | | | | | | | | | | | | | | | | | | | 1 2                                         ",
"                                      3 4 5 6 7 8 9 0 6 5 5 5 5 5 5 5 5 5 5 5 5 5 5 5 } a                                       ",
"                                    = b c d e f f f f g h ^ i i i i i i i i i i i i i i i j k                                   ",
"                                  l m n o f f f f f f f e p q r r r r r r r r r r r r r r r s t                                 ",
"                                u v w x f f f f f f f e y o , z A A A B / C e f D x E F A A A ~ G                               ",
"                              H I J K f f f f f f f e y o C L i J J 5 M f f f f f D M x N J J O P Q                             ",
"                            H P R S T f f f f f f e y o C L U ' R N f f f f f f D M V W p X R R Y H                             ",
"                          Z H : ` z f f f f f f e y o C 0  .- ..+.@.f f f f f D M V W p #.$.%.` &.@ *.                          ",
"                          H =.Q -.X f f f f f e y o C ;.Q 5 u >.,.r r f f f D M V W p #., 7 '.-.-.).H !.                        ",
"                        H =.=.~.- N f f f f e y o C L {.].x >.^././.=.r f D M V W L #., 7 (.X - - _.=.H                         ",
"                        H =.=.& :.'.f f f e y <.C L U ( [.[.[.[.! }.# +.D M V W L #., 7 (.| r :.:.|.=.H |.                      ",
"                      H =.=.=.2 Y 1.f f e y <.C L U 9 2./.] ] R ^ R %.3.M V W L #., 7 (.| 4.5.Y Y 6.=.=.H                       ",
"                      H =.=.=.[.7.8.9.e y <.C L U 9 2.' 0.{.a.q b.f D M V W L #., 7 (.| 4.a.c.7.7.d.=.=.H e.                    ",
"                    f.=.=.=.=.g.h.h.i.y <.C L j.9 2.0 0.k.l.m.n.o.p.q.r.W L #., 7 (.| 4.a.! h.h.s.=.=.=.=.t.                    ",
"                    H =.=.=.=.H = s.h., C L j.9 2.0 u.v.w.w.x.y.z.A.B.C.D.E., 7 (.| 4.a.F.G.s.s.$ =.=.=.=.H H.                  ",
"                    =.=.=.=.=.=.u I.I.J.K.j.9 2.0 0.L.M.w.w.N.O.P.Q.R.S.T.U.7 (.| 5 O V.I.I.I.W.H =.=.=.=.=.X.                  ",
"                  W.=.=.=.=.=.=.=.Y.).).= ; 7 0 0.Z.4.`. +x.y.z.A.B.C..+++@+#+$+%+s.).).).).6.@ =.=.=.=.=.=.&+                  ",
"                  H =.=.=.=.=.=.=.=.f.Y.Y.g.q *+$+U p M =+N.O.P.Q.R.S.-+;+;+C >+,+K.'+Y.Y.)+@ =.=.=.=.=.=.=.H                   ",
"                  H =.=.=.=.=.=.=.=.=.@ W.7 f f f f f f D !+z.A.B.C.~+C ;+C >+,+{+d 9 ]+d.t.=.=.=.=.=.=.=.=.H H.                ",
"                  H =.=.=.=.=.=.=.=.=.= L f f f f f f f f e ^+Q.R./+(+x C >+,+{+d 9 _+:+<+@ =.=.=.=.=.=.=.=.H ~                 ",
"                t.@ @ @ @ @ @ @ @ @ [+*+f f f f f f f f f f }+|+1+2+3.C >+,+{+d 9 _+:+E / 3+&+@ @ @ @ @ @ @ H H 4+              ",
"        =.=.=.=.=.=.=.=.=.&+=.=.=.=.=.f f f f f f f f f f e M 5+6+7+C >+,+{+d 9 _+=.=.=.=.=.8+&+&+&+&+&+&+@ H &+t.!             ",
"      =.=.f f f f f f f =.*.=.f f f =.f f f f f f f f f e M T <.3.C >+,+{+d 9 _+:+=.9+0+a+=.b+c+*.*.*.*.d.=.H *.d.t.d+          ",
"    =.=.f f f f f f f f =.e+=.f f f =.f f f f f f f f e M T <.x C >+,+j.d 9 _+:+E =.;+f+g+=.4.i [+e+e+e+@ =.t.e+e+u h+i+        ",
"    =.f f f =.=.=.=.=.f =.Y.=.=.=.=.=.=.=.=.=.=.=.=.=.=.=.<.x C =.=.=.=.=.=.=.=.=.=.j+k+W =.5 N =.=.=.=.=.=.=.Y.Y.Y.)+@ Q       ",
"    =.f f f =.=.P P =.=.=.P =.f f D =.=.l+m+n+=.@.M o+y =.=.C =.=.p+V <.=.q+r+;+=.=.W C s+=.N =.=.t+u+p v+,+=.=.P P P g.&+~     ",
"  w+=.f f f f =.=.=.=.=.6.6.=.f D x+=.=.n+g y+M z+A+B+C+T =.=.=.V <.o @+D+E+x 3.=.=.F+7+G+=.=.=.H+I+p ,+J+K+L+=.=.H H H H H M+  ",
"  7.=.=.f f f f f f f =.=.# =.N+O+e =.=.P+Q+R+S+=.=.T+U+V+=.=.W+X+Y+0+=.x 3.Z+`+=.=.*+ @.@=.=.+@@@#@=.=.=.{+j.$@=.              ",
"      =.=.f f f f f f f =.= =.e %@&@=.=.M A+y =.=.=.*@=@V =.=.o @+-@=.=.=.`+C 7+=.=..@>+t+=.=.v+J+;@$+{+j.>@,@'@=.              ",
"        =.=.=.=.f f f D =.d+=.)@g @.=.=.!@B+C+=.<.=.~@{@]@=.=.0+^@g+=./ =./@(@_@=.=.t+:@+@=.=.;.$+{+<@j.[@#.d }@=.              ",
"    =.=.=.=.  =.=.D x+e =.} =.@.|@M =.=.C+1@2@=.x =.<.o 3@=.=.x 3.W =.=.=.*+#+.@=.=.I+p 4@=.=.5@6@j.=.=.=.=.=.=.=.              ",
"    =.f f =.=.=.=.7@8@n+=.@+=.9@S+y =.=.2@0@=@=.7+=.a@r+;+=.=.W C C b@=._@c@d@u+=.=.e@;.f@=.=.j.g@[@=.=.=.=.=.h@=.              ",
"    =.f f i@j@k@e 8@l@=.=.f =.m@n@C+=.=.=@V W+=.>+=.;+o@g+=.=.=.7+*+*+#+>+t+:@p@=.=.q@$+r@=.=.=.'@d }@s@t@h@9 u@=.              ",
"    =.=.D x+e 8@n+g =.=.3+f =.1@T v@=.=.W+w@o =.,+=.x@3.W =.=.=.=.y@z@d@=.A@v+,+=.=.{+<@B@=.m =.=.C@8 D@9 h E@=.=.              ",
"      =.=.=.=.=.=.=.=.).n f =.=.=.=.=.=.=.=.=.=.j.=.=.=.=.=.=.#+=.=.=.=.p ,+J+$+=.=.=.=.=.=.A F@=.=.=.=.=.=.=.=.                ",
"                      h+( f f e M T <.x 7+>+,+j.d 9 $.:+,./ =.z@G@+@p 4@J+;.$+=.=.H@'.I@m A F@J@1 5.<+_ G.                      ",
"                      w+2.f e M T <.x 7+>+,+j.d 9 $.:+,./ K =.=.K@e@J+;@$+{+=.=.H@'.I@m A F@J@1 5.O _ %.L@                      ",
"                      ^ p e M T <.x 7+>+,+j.d 9 $.:+,./ K M@| =.=.=.=.=.=.=.=.H@'.I@m A F@J@1 5.O _ %.1.                        ",
"                        o M T <.x 7+>+,+j.d 9 $.:+,./ K M@| b+4.5 N@%+i O@q H@'.I@m A F@J@1 5.O _ %.R c.                        ",
"                        $.V @+3.*+t+,+j.d 9 $.:+,./ K M@| b+4.5 N@%+i O@q H@'.I@m A F@J@1 J O _ S P@Q@                          ",
"    =.=.=.=.=.=.=.=.=.=.L E =.=.=.=.=.8 9 $.:+,./ K M@Z.b+4.5 N@%+i O@q H@'.I@m A F@J@}.<+_ %.R@S@4+c.                          ",
"    =.9.=@V T@U@o 9+-@=.=.V@=.C W@*+=.:+K.K.,./ K M@Z.b+4.5 N@%+i O@q H@'.I@m A F@J@5.v %.R@P@! X@Y@                            ",
"    =.=@V <.o @+;+E+g+3.=.=.=.Z@ @#+=./ `@(  #M@ #Z.b+4.5 N@%+i O@q H@'.I@m .#+./.v %.R@P@+#X@F.[                               ",
"    =.<.o @+=.=.=.3.W `+F+=.=.#+>+z@=.( =.=.=.=.=.=.=.=.c ^ =.=.=.=.=.m ; =.=.=.=.R@=.=.=.=.=.=.=.    =.=.=.=.=.=.=.=.          ",
"    =.3@@#;+=.  =.=.C 7+*+=.=.##u+L =.$#=.;@L+{+<@>@,@=.=.'.=.%#9 &#=.}.=.=.$.V@=.=.=.K.7 E ,.0 =.=.  =.`@*#K =.0.( M@          ",
"    =.r+o@=#=.  =.=.*+*+-#=.=.L K@p =.;#=.{+6@$@>##.d }@=.=.=.9 h , =.O =.V@2.:+=.=.7 E ,.,#'#)#!#=.=.=.~#K 0.( M@{#]#          ",
"    =.x 3.^#=.=.=._@#+>+t+=.=.p /#;.=.(#=.=.=.=.=.=.s@8 D@=.=.=., _#=.=.=.:#<#K.=.[#}#,.=.=.=.|#1#2#=.=.0.( 3# #=.=.=.          ",
"    =.4#C s+5#*+#+.@>+t+=.=.=.;.f@$+=.=.=.=.'@d }@8 6#7#u@=.P@=.8#9#2.=.<#K.7 =.=.,.0 0#/ |#`@`@(.K =.=.3#a#b#=.=.              ",
"    =.s+7+Z@_@-#c#d#L =.=.e#=.$+{+f#=.=.g#d }@s@D@7#h#h , =.` =.=.2.:+=.i#[#j#=.=.'#k#/ 1#`@(.l#m#n#=.=. #o#p#=.q#r#            ",
"    =.5#*+#+=.=.=.=.=.=.s#t#=.u#v#>#=.=.}@w#D@=.=.=.x#y#z#=.z A#=.K.7 7 E ,.=.=.=.B#C#`@=.=.=.=.=.=.=.=.o#| Z.=.D#E#            ",
"    =.F#>+t+=.    G#R.H#B.I#=.U ,@g#=.=.t@D@9 =.=.y#_#$.V@=.J#R@=.7 [#,.,#'#=.B.=.C#K#~#=.=.=.=.=.]#=.=.L#M#> =.N#i.            ",
"    =.c#H+L =.      O#P#Q#A.=.R#S#}@=.=.T#&#U#, _+$.V#W#:#=.    =.=.,.0 ' X#=.Y#=.=.K 0.Z#M@`# #o#| =.=. $.$+$=.@$              ",
"    =.L p ,+=.        #$$$%$=.}@&$6#=.=.=., *$8#=$=.:#:+K.=.      =.-$/ / =.=.;$>$=.=.,$M@a#'$p#| =.=.=.+$)$!$=.                ",
"    =.=.=.=.=.            +.=.=.=.=.=.~$=.=.=.=.=.=.=.=.=.=.  =.=.=./ C#`@=.        =.=.=.=.=.=.=.=.  =.=.=.=.=.                ",
"                                                              =./ C#{$K#=.=.                                                    ",
"                                                              =.]$2#(.=.=.                                                      ",
"                                                              =.=.=.=.=.                                                        "};
