/* XPM */
static const char * spectator_xpm[] = {
"16 16 149 2",
"  	c None",
". 	c #E4DFD8",
"+ 	c #E5D6C6",
"@ 	c #E5D0BC",
"# 	c #E6CEB8",
"$ 	c #E6CBB4",
"% 	c #E6C9B1",
"& 	c #E7CAB4",
"* 	c #E7D5C7",
"= 	c #E3E3E3",
"- 	c #E6DACD",
"; 	c #E8D3BA",
"> 	c #EED5BE",
", 	c #E9CFB6",
"' 	c #D9BEA5",
") 	c #D5B89F",
"! 	c #DCBB9F",
"~ 	c #F1C8AA",
"{ 	c #EEC3A3",
"] 	c #EAC1A2",
"^ 	c #E9DCD3",
"/ 	c #E6D3C0",
"( 	c #ECD3BB",
"_ 	c #D0B9A1",
": 	c #B3A08F",
"< 	c #ABA19B",
"[ 	c #A6A8B3",
"} 	c #A1A5B4",
"| 	c #9BA1B2",
"1 	c #A69D9B",
"2 	c #C09D81",
"3 	c #ECBA94",
"4 	c #EEB891",
"5 	c #ECD2BF",
"6 	c #E0E0E0",
"7 	c #E6D6C5",
"8 	c #ECD1B7",
"9 	c #BFAB97",
"0 	c #C5CAD6",
"a 	c #A9C4EF",
"b 	c #A4C0EF",
"c 	c #9DBBEE",
"d 	c #95B6ED",
"e 	c #8EB1EB",
"f 	c #85ABE9",
"g 	c #B1C7EF",
"h 	c #D9BAA4",
"i 	c #E4AC83",
"j 	c #F0B186",
"k 	c #E3D3C7",
"l 	c #E4DCD3",
"m 	c #E5CBAD",
"n 	c #D6CABD",
"o 	c #FBFBFB",
"p 	c #B2C9F1",
"q 	c #A2BFEF",
"r 	c #9BBAEE",
"s 	c #10151D",
"t 	c #0F141B",
"u 	c #84AAEA",
"v 	c #7CA5E8",
"w 	c #84AAE9",
"x 	c #E7D2C4",
"y 	c #E5A67B",
"z 	c #D19A77",
"A 	c #DFCAB1",
"B 	c #E8E2DC",
"C 	c #F7F7F7",
"D 	c #ABC4F0",
"E 	c #98B8EC",
"F 	c #91B4EC",
"G 	c #0F131B",
"H 	c #0E1219",
"I 	c #7AA4E7",
"J 	c #739DE5",
"K 	c #7DA4E7",
"L 	c #ECDCD2",
"M 	c #CC8F68",
"N 	c #E4E0DD",
"O 	c #EEEEEE",
"P 	c #F4F4F4",
"Q 	c #F9F9F9",
"R 	c #BED1F0",
"S 	c #8EB1E9",
"T 	c #86ABE7",
"U 	c #7EA6E5",
"V 	c #77A0E4",
"W 	c #709BE3",
"X 	c #6896E1",
"Y 	c #9EBBEB",
"Z 	c #DDB194",
"` 	c #E3D2C2",
" .	c #E9E0D7",
"..	c #F0F0F0",
"+.	c #DCE4F2",
"@.	c #9AB7E7",
"#.	c #7BA1E2",
"$.	c #739DE1",
"%.	c #6C98DF",
"&.	c #6493DE",
"*.	c #7CA2E2",
"=.	c #CFDBEF",
"-.	c #E7D5CB",
";.	c #DFA179",
">.	c #E1DBD5",
",.	c #E8C8AD",
"'.	c #EAD3C0",
").	c #EDE6E0",
"!.	c #EFEFEF",
"~.	c #D1DAE9",
"{.	c #A1B9E1",
"].	c #779CDA",
"^.	c #7198D9",
"/.	c #95B0DF",
"(.	c #C9D4E8",
"_.	c #EEE9E6",
":.	c #E9C9B5",
"<.	c #E29666",
"[.	c #C69B81",
"}.	c #D9CFC7",
"|.	c #E3BC9C",
"1.	c #ECC09D",
"2.	c #EBD1BE",
"3.	c #EBDCD3",
"4.	c #EBE7E4",
"5.	c #EBEBEB",
"6.	c #EAEAEA",
"7.	c #E9D5C9",
"8.	c #E7B391",
"9.	c #E19666",
"0.	c #BA8E72",
"a.	c #CBC1BA",
"b.	c #C5A994",
"c.	c #DDAA85",
"d.	c #E9B48D",
"e.	c #E9BB9B",
"f.	c #E7C0A5",
"g.	c #E6BFA5",
"h.	c #E7BDA1",
"i.	c #E3B190",
"j.	c #E39A6C",
"k.	c #C38660",
"l.	c #B69682",
"m.	c #AC7F5F",
"n.	c #B0805F",
"o.	c #B6815F",
"p.	c #B9815C",
"q.	c #B77D59",
"r.	c #AE7551",
"                                ",
"                                ",
"        . + @ # $ % & *         ",
"    = - ; > , ' ) ! ~ { ] ^     ",
"  = / ( _ : < [ } | 1 2 3 4 5   ",
"6 7 8 9 0 a b c d e f g h i j k ",
"l m n o p q r s t u v w o x y z ",
"A B C o D E F G H I J K o C L M ",
"N O P Q R S T U V W X Y Q P O Z ",
"`  ...P +.@.#.$.%.&.*.=.P ..-.;.",
">.,.'.).!.~.{.].^./.(..._.:.<.[.",
"  }.|.1.2.3.4.5.5.5.6.7.8.9.0.  ",
"    a.b.c.d.e.f.g.h.i.j.k.l.    ",
"          m.n.o.p.q.r.          ",
"                                ",
"                                "};
