/* XPM */
static const char * spectator_xpm[] = {
"16 16 45 1",
" 	c None",
".	c #B4B4B4",
"+	c #A6A6A6",
"@	c #9E9E9E",
"#	c #959595",
"$	c #8B8B8B",
"%	c #ADADAD",
"&	c #E6E6E6",
"*	c #E7E7E7",
"=	c #D5D5D5",
"-	c #A0A0A0",
";	c #EAEAEA",
">	c #0049B8",
",	c #003D9B",
"'	c #002F77",
")	c #002764",
"!	c #797979",
"~	c #B5B5B5",
"{	c #FFFFFF",
"]	c #0043A9",
"^	c #C7DCF0",
"/	c #000070",
"(	c #00007D",
"_	c #000092",
":	c #00245C",
"<	c #C5C5C5",
"[	c #848484",
"}	c #6D6D6D",
"|	c #002154",
"1	c #00007C",
"2	c #000087",
"3	c #0012A3",
"4	c #0026AB",
"5	c #606060",
"6	c #00183C",
"7	c #1549B8",
"8	c #5495D5",
"9	c #458BD1",
"0	c #D7D7D7",
"a	c #313131",
"b	c #424242",
"c	c #001A41",
"d	c #0058BE",
"e	c #6FA6DB",
"f	c #1E1E1E",
"                ",
"                ",
"                ",
"                ",
"                ",
"    ...+@+#$    ",
"   %&&&&&**=$   ",
"  -=;;>,');;;!  ",
" !~;{]^/(_:{{<[ ",
"}+;{|12234]){;~}",
" 5<;6334789:;0a ",
"  bb0cd9eec0bf  ",
"    aaaaaaab    ",
"                ",
"                ",
"                "};
