/* XPM */
static const char * springlobby_xpm[] = {
"16 16 142 2",
"  	c None",
". 	c #8F8986",
"+ 	c #665E57",
"@ 	c #EDCFBE",
"# 	c #B39380",
"$ 	c #36261C",
"% 	c #949494",
"& 	c #9E9E9E",
"* 	c #998072",
"= 	c #EFBA9D",
"- 	c #EBA986",
"; 	c #6B4938",
"> 	c #644534",
", 	c #A97457",
"' 	c #93644B",
") 	c #82807D",
"! 	c #FCE6DA",
"~ 	c #DFC0AE",
"{ 	c #403933",
"] 	c #574E42",
"^ 	c #605841",
"/ 	c #605738",
"( 	c #524727",
"_ 	c #513D24",
": 	c #E09974",
"< 	c #F5A87E",
"[ 	c #724E3B",
"} 	c #594D47",
"| 	c #D5B09B",
"1 	c #463F3A",
"2 	c #E0DCB3",
"3 	c #FFF49F",
"4 	c #FFF17D",
"5 	c #FFEE63",
"6 	c #FFEB4C",
"7 	c #E8D42F",
"8 	c #4A3D11",
"9 	c #B77D5C",
"0 	c #45352E",
"a 	c #433A34",
"b 	c #F0E9B9",
"c 	c #4F4B2E",
"d 	c #CABE61",
"e 	c #FFEE5F",
"f 	c #FFEB45",
"g 	c #FFE82A",
"h 	c #FFE610",
"i 	c #F9DE00",
"j 	c #43370B",
"k 	c #694634",
"l 	c #58473D",
"m 	c #E7AD8E",
"n 	c #7F5C48",
"o 	c #BBB593",
"p 	c #999259",
"q 	c #A1984C",
"r 	c #F6E65B",
"s 	c #FFEB44",
"t 	c #FBE10F",
"u 	c #FADF00",
"v 	c #F9DF00",
"w 	c #C7B101",
"x 	c #70512E",
"y 	c #F0A57C",
"z 	c #533A2A",
"A 	c #805941",
"B 	c #584738",
"C 	c #FFF5A0",
"D 	c #E9DB6D",
"E 	c #F9E85B",
"F 	c #554E16",
"G 	c #FEE629",
"H 	c #FFE50F",
"I 	c #B09D00",
"J 	c #BCA700",
"K 	c #F4D900",
"L 	c #E8D000",
"M 	c #574513",
"N 	c #77523D",
"O 	c #453D2D",
"P 	c #FFF27E",
"Q 	c #FFED5C",
"R 	c #FFEB42",
"S 	c #DEC922",
"T 	c #FFE50D",
"U 	c #FEE200",
"V 	c #FCE100",
"W 	c #E9CF00",
"X 	c #ECD300",
"Y 	c #DFC800",
"Z 	c #483D05",
"` 	c #38351F",
" .	c #FFEE61",
"..	c #FFEB40",
"+.	c #FFE726",
"@.	c #FFE50C",
"#.	c #FEE300",
"$.	c #FDE100",
"%.	c #D9C100",
"&.	c #413900",
"*.	c #E2CA00",
"=.	c #D1BB00",
"-.	c #3E3601",
";.	c #23210F",
">.	c #F7E346",
",.	c #A89607",
"'.	c #EACF00",
").	c #FDE200",
"!.	c #F8DD00",
"~.	c #877700",
"{.	c #6E6200",
"].	c #D8C000",
"^.	c #BDA800",
"/.	c #2B2600",
"(.	c #5E5610",
"_.	c #FFE40A",
":.	c #AE9B00",
"<.	c #242000",
"[.	c #5C5200",
"}.	c #443D00",
"|.	c #3E3700",
"1.	c #C8B200",
"2.	c #594E00",
"3.	c #1F1B02",
"4.	c #9F8D00",
"5.	c #EFD400",
"6.	c #C0AB00",
"7.	c #BEA900",
"8.	c #DCC400",
"9.	c #CBB500",
"0.	c #817200",
"a.	c #221E00",
"b.	c #211D00",
"c.	c #514900",
"d.	c #CFB800",
"e.	c #E9D000",
"f.	c #DCC300",
"g.	c #4B4200",
"h.	c #231F00",
"i.	c #1D1A00",
"j.	c #2F2A00",
"k.	c #1D1B00",
"                                ",
"              . +               ",
"              @ #         $     ",
"    % &     * = - ;   > , '     ",
"    ) ! ~ { ] ^ / ( _ : < [     ",
"    } | 1 2 3 4 5 6 7 8 9       ",
"    0 a b c d e f g h i j k     ",
"l m n o p q r s g t u v w x y z ",
"  A B C D E F G H I J K L M N   ",
"    O P Q R S T U V W X Y Z     ",
"    `  ...+.@.#.$.%.&.*.=.-.    ",
"    ;.>.+.,.'.).!.~.{.].^./.    ",
"      (._.:.<.[.}.|.=.1.2.      ",
"      3.4.U 5.6.7.8.9.0.a.      ",
"        b.c.d.e.f.I g.h.        ",
"            i.j.j.k.            "};
