/* XPM */
static const char * springlobby12x12_xpm[] = {
"12 12 85 1",
" 	c None",
".	c #261E00",
"+	c #8F6643",
"@	c #261D00",
"#	c #271E00",
"$	c #D79982",
"%	c #221B00",
"&	c #9A6B47",
"*	c #FFAF9B",
"=	c #FFB69D",
"-	c #9A6F4C",
";	c #221900",
">	c #D79E84",
",	c #271D00",
"'	c #D19276",
")	c #D89376",
"!	c #352C00",
"~	c #483F10",
"{	c #483E00",
"]	c #352B00",
"^	c #D9AA8E",
"/	c #D1A483",
"(	c #291D00",
"_	c #959263",
":	c #D9D656",
"<	c #FFFF5E",
"[	c #FFFF41",
"}	c #DCD600",
"|	c #999100",
"1	c #2C2100",
"2	c #9B7452",
"3	c #412B13",
"4	c #FFFF12",
"5	c #A19800",
"6	c #E8D456",
"7	c #E8D24F",
"8	c #A09100",
"9	c #FFFD00",
"0	c #443213",
"a	c #A38050",
"b	c #553F15",
"c	c #926951",
"d	c #EFED00",
"e	c #FFF975",
"f	c #A18D36",
"g	c #E8CB00",
"h	c #9F8100",
"i	c #FFD500",
"j	c #F0A900",
"k	c #966B2C",
"l	c #624A0C",
"m	c #2F2200",
"n	c #E8D826",
"o	c #FFE51E",
"p	c #FFEA00",
"q	c #FFD600",
"r	c #FFDE00",
"s	c #FFCC00",
"t	c #E89900",
"u	c #352E00",
"v	c #332800",
"w	c #EFB809",
"x	c #E7D100",
"y	c #A28500",
"z	c #FFDF00",
"A	c #AB8C00",
"B	c #E9AD00",
"C	c #F09000",
"D	c #403A00",
"E	c #FFC000",
"F	c #B59700",
"G	c #5D4C00",
"H	c #604D00",
"I	c #B79700",
"J	c #FFA300",
"K	c #3F3A00",
"L	c #A26900",
"M	c #D99E00",
"N	c #FFC200",
"O	c #FFB900",
"P	c #D98A00",
"Q	c #A15E00",
"R	c #5D4300",
"S	c #5F4400",
"T	c #5C4000",
"            ",
"  .  ++  @  ",
" #$%&*=-;>, ",
"  ')!~{]^/  ",
"  (_:<[}|1  ",
" 234567890a ",
"bcdefgghijkl",
" mnopqqrstu ",
" vwxyzqABCD ",
"  !EFGHIJK  ",
"   LMNOPQ   ",
"    RSST    "};
