/* XPM */
static const char * start_enemy_xpm[] = {
"16 16 7 1",
" 	c None",
".	c #000000",
"+	c #FFFFFF",
"@	c #A20303",
"#	c #FFD6D6",
"$	c #FF0000",
"%	c #CB0000",
"     ......     ",
"   ..++++++..   ",
"  .+++@@@@+++.  ",
" .++@@@##@@@++. ",
" .+@@##$$##@@+. ",
".++@#$$$$$$%@++.",
".+@@#$$$$$$%@@+.",
".+@#$$$$$$$$%@+.",
".+@#$$$$$$$$%@+.",
".+@@#$$$$$$%@@+.",
".++@#$$$$$%%@++.",
" .+@@%%$$%%@@+. ",
" .++@@@%%@@@++. ",
"  .+++@@@@+++.  ",
"   ..++++++..   ",
"     ......     "};
