/* XPM */
static const char * started_game_xpm[] = {
"16 16 9 1",
" 	c None",
".	c #7E7E7E",
"+	c #000000",
"@	c #FFFFFF",
"#	c #BCBCBC",
"$	c #FFEAAC",
"%	c #BC8E00",
"&	c #705400",
"*	c #FFD75F",
"                ",
" .+++      +++. ",
" +.@@+    +@@.+ ",
" +#.#@+  +@#.#+ ",
" +.#.#@++@#.#.+ ",
"  +.#.#@+#.#.+  ",
"   +.#.#@+#.+   ",
"   ++.#.#@+++   ",
"  +$++.#.#@+$+  ",
"  +%$#+.#.#$%+  ",
"   +%##+.##%+   ",
"  +&&%*++*%&&+  ",
" +&&&+%**%+&&&+ ",
" &&&+ ++++ +&&& ",
" *&+        +&* ",
"                "};
