/* XPM */
static char * star_gold_xpm[] = {
"16 16 25 1",
" 	c None",
".	c #000000",
"+	c #F3F0F0",
"@	c #4E9FFB",
"#	c #B3B2B2",
"$	c #939292",
"%	c #BDA33B",
"&	c #B0942D",
"*	c #C6AC3F",
"=	c #C6AD40",
"-	c #DFD05A",
";	c #E0D15B",
">	c #DFD15B",
",	c #E0D15C",
"'	c #E0D25C",
")	c #F4EB70",
"!	c #F4EB6F",
"~	c #F4EA70",
"{	c #EBDB66",
"]	c #EADA66",
"^	c #CAB349",
"/	c #C9B248",
"(	c #C8B147",
"_	c #A28727",
":	c #A18626",
"  ...........   ",
"  .++@@+@@++.   ",
"  .++@@#@@$$.   ",
"  .++@@#@@$$.   ",
"   .+@@#@@$.    ",
"    .##.#$.     ",
"     .#.$.      ",
"      .%.       ",
"      .&.       ",
"   ...*==...    ",
" ...---;>,'...  ",
"   ...)!~...    ",
"     .{{].      ",
"    .^/.((.     ",
"    ._. .:.     ",
"   ...   ...    "};
