/* XPM */
static const char * up_down_xpm[] = {
"16 16 5 1",
" 	c None",
".	c #000000",
"+	c #69FFA5",
"@	c #00FF66",
"#	c #00943B",
"     .          ",
"    .+.         ",
"   .+@#.        ",
"  .+@@@#.       ",
" .+######.      ",
"...........     ",
"                ",
"                ",
"...........     ",
" .+++++++.      ",
"  .#@@@#.       ",
"   .#@#.        ",
"    .#.         ",
"     .          ",
"                ",
"                "};
