/* XPM */
static const char * upsel_down_xpm[] = {
"16 16 6 1",
" 	c None",
".	c #FFFFFF",
"+	c #69FFA5",
"@	c #00FF66",
"#	c #00943B",
"$	c #000000",
"     .          ",
"    .+.         ",
"   .+@#.        ",
"  .+@@@#.       ",
" .+######.      ",
"...........     ",
"                ",
"                ",
"$$$$$$$$$$$     ",
" $+++++++$      ",
"  $#@@@#$       ",
"   $#@#$        ",
"    $#$         ",
"     $          ",
"                ",
"                "};
