/* XPM */
static const char * userchat_xpm[] = {
"12 12 6 1",
" 	c None",
".	c #000000",
"+	c #FFFDEA",
"@	c #FFE400",
"#	c #A49300",
"$	c #FF0000",
"    ....    ",
"  ..++++..  ",
" .++++@@++. ",
" .++.@@.@+. ",
".++@.@@.@@#.",
".++@@@@@@##.",
".+@@@@@@@##.",
".+@......##.",
" .+@.$$.##. ",
" .##@$$###. ",
"  ..####..  ",
"    ....    "};
