/* XPM */
static const char *AD_xpm[] = {
/* columns rows colors chars-per-pixel */
"16 16 162 2",
"   c black",
".  c #00001111ADAD",
"X  c #03031F1FADAD",
"o  c #0D0D2B2BB1B1",
"O  c #19193333B7B7",
"+  c #2B2B4747BDBD",
"@  c #2F2F4949BFBF",
"#  c #39395151C5C5",
"$  c #41415B5BC7C7",
"%  c #49496161CBCB",
"&  c #51516767CFCF",
"*  c #55556B6BD7D7",
"=  c #59596D6DD1D1",
"-  c #5B5B7171D3D3",
";  c #5D5D7171D3D3",
":  c #5D5D7171D5D5",
">  c #5F5F7373D5D5",
",  c #67677B7BD7D7",
"<  c #7D7D8D8DDADA",
"1  c #C5C500000000",
"2  c #C7C700000000",
"3  c #CBCB00000000",
"4  c #CDCD00000000",
"5  c #D3D300000000",
"6  c #D5D500000000",
"7  c #DBDB00000000",
"8  c #DDDD00000000",
"9  c #E1E100000000",
"0  c #E5E500000000",
"q  c #E7E700000000",
"w  c #EBEB00000000",
"e  c #EFEF00000000",
"r  c #E6E610101010",
"t  c #E8E815151414",
"y  c #E8E815151515",
"u  c #E9E91B1B1B1B",
"i  c #EAEA1D1D1D1D",
"p  c #EAEA1E1E1E1E",
"a  c #F1F100000000",
"s  c #EBEB25252323",
"d  c #EBEB24242424",
"f  c #ECEC24242525",
"g  c #E8E82D2D2D2D",
"h  c #EEEE2C2C2C2C",
"j  c #EEEE2D2D2D2D",
"k  c #EEEE30302B2B",
"l  c #E9E931313131",
"z  c #EAEA36363636",
"x  c #EFEF37373333",
"c  c #ECEC3A3A3A3A",
"v  c #ECEC3B3B3B3B",
"b  c #F0F033333535",
"n  c #F0F036363535",
"m  c #F1F13C3C3C3C",
"M  c #F2F23D3D3D3D",
"N  c #F1F140403C3C",
"B  c #EDED42424242",
"V  c #EFEF49494949",
"C  c #F3F345454545",
"Z  c #F3F346464444",
"A  c #F5F54D4D4D4D",
"S  c #F1F150504F4F",
"D  c #F4F45C5C4B4B",
"F  c #F2F256565656",
"G  c #F4F45D5D5D5D",
"H  c #F1F162624C4C",
"J  c #F5F564646464",
"K  c #F7F76A6A6A6A",
"L  c #F8F86F6F7070",
"P  c #F3F37D7D6D6D",
"I  c #ACAC94946565",
"U  c #B0B099996B6B",
"Y  c #B1B199996B6B",
"T  c #B5B59D9D7171",
"R  c #B8B8A2A27676",
"E  c #BCBCA7A77D7D",
"W  c #C7C7B7B74F4F",
"Q  c #CBCBBCBC5757",
"!  c #CACAA2A26262",
"~  c #C2C2AEAE7C7C",
"^  c #D1D1A4A46A6A",
"/  c #D0D0AFAF7D7D",
"(  c #D8D8AEAE7474",
")  c #E0E0A9A97A7A",
"_  c #CFCFCFCF0000",
"`  c #D3D3D3D30000",
"'  c #D7D7D7D70000",
"]  c #DBDBDBDB0000",
"[  c #DFDFDFDF0000",
"{  c #E1E1E1E10000",
"}  c #F5F5F5F50000",
"|  c #F9F9F9F90000",
" . c #FBFBFBFB0505",
".. c #FDFDFDFD0000",
"X. c #EBEBEBEB2323",
"o. c #EDEDEDED2A2A",
"O. c #EEEEEEEE2B2B",
"+. c #F1F1F1F13C3C",
"@. c #CCCCC0C04D4D",
"#. c #DADACFCF6F6F",
"$. c #E5E5D0D05252",
"%. c #E9E9D3D36161",
"&. c #EDEDEDED4040",
"*. c #EEEEEEEE4646",
"=. c #F2F2F2F24040",
"-. c #F3F3F3F34444",
";. c #F0F0F0F04B4B",
":. c #F4F4F4F44848",
">. c #F5F5F5F54B4B",
",. c #F2F2F2F25252",
"<. c #F5F5F5F55050",
"1. c #F6F6F6F65454",
"2. c #F2F2F2F25858",
"3. c #F4F4F4F45F5F",
"4. c #F7F7F7F75C5C",
"5. c #F1F1EEEE6969",
"6. c #F3F3F1F16F6F",
"7. c #F9F9F9F96060",
"8. c #FAFAFAFA6868",
"9. c #FBFBFBFB6F6F",
"0. c #F9F9F9F97676",
"q. c #FCFCFCFC7575",
"w. c #FBFBFBFB7C7C",
"e. c #86869595DADA",
"r. c #84849494DDDD",
"t. c #8B8B9A9ADCDC",
"y. c #8C8C9A9ADBDB",
"u. c #8C8C9A9ADDDD",
"i. c #8C8C9B9BDEDE",
"p. c #91919F9FDEDE",
"a. c #91919F9FDFDF",
"s. c #9494A1A1DDDD",
"d. c #9999A6A6DFDF",
"f. c #9191A0A0E0E0",
"g. c #9696A4A4E0E0",
"h. c #9696A4A4E1E1",
"j. c #9797A5A5E2E2",
"k. c #9999A7A7E5E5",
"l. c #9B9BA8A8E2E2",
"z. c #9B9BA8A8E3E3",
"x. c #9E9EAAAAE1E1",
"c. c #9F9FACACE4E4",
"v. c #9F9FACACE5E5",
"b. c #9E9EAAAAE8E8",
"n. c #A3A3AEAEE2E2",
"m. c #A3A3AFAFE6E6",
"M. c #A7A7B2B2E5E5",
"N. c #A6A6B3B3E7E7",
"B. c #ABABB6B6E7E7",
"V. c #AEAEB9B9E8E8",
"C. c #B0B0BBBBEDED",
"Z. c #B2B2BCBCE9E9",
"A. c #B4B4BEBEEBEB",
"S. c #B4B4BFBFEBEB",
"D. c #B7B7C0C0ECEC",
"F. c #CCCCB9B98B8B",
"G. c #D3D3B2B28585",
"H. c #FBFBFBFB8181",
"J. c #FCFCFCFC8686",
"K. c #FCFCFCFC8C8C",
"L. c #FDFDFDFD8F8F",
"P. c None",
/* pixels */
"P.P.P.P.P.P.P.P.P.P.P.P.P.P.P.P.",
"P.P.P.P.P.P.P.P.P.P.P.P.P.P.P.P.",
"P.P.P.P.P.P.P.P.P.P.P.P.P.P.P.P.",
", , : : * .. .| | } } a a w q q ",
"- S.A.A.C.L.K.J.H.w.0.L K J G 9 ",
", S.N.m.b.q.q.5.5.4.1.A C M F 8 ",
"= A.m.v.z.0.F.G./ ~ >.C m x S 8 ",
"= Z.v.z.z.8.( P %.^ -.M x j V 6 ",
"& V.l.g.f.7.( %.D ! +.x j d B 5 ",
"$ B.g.p.i.#.E H $.Y @.j s p v 4 ",
"$ B.p.t.r.<.R T Y I o.d p y z 3 ",
"# n.i.e.< :.=.Q W o.X.i t r l 2 ",
"+ d.d.p.i.7.2.,.;.*.+.v z l g 2 ",
"# O o X . { ] ] ` ` _ 4 3 2 1 2 ",
"P.P.P.P.P.P.P.P.P.P.P.P.P.P.P.P.",
"P.P.P.P.P.P.P.P.P.P.P.P.P.P.P.P."
};
