/* XPM */
static const char * AE_xpm[] = {
"16 16 109 2",
"  	c None",
". 	c #FF0000",
"+ 	c #FD0000",
"@ 	c #007D00",
"# 	c #007900",
"$ 	c #007500",
"% 	c #007300",
"& 	c #006D00",
"* 	c #006900",
"= 	c #006300",
"- 	c #005D00",
"; 	c #005900",
"> 	c #005300",
", 	c #004D00",
"' 	c #FF7B7B",
") 	c #FE7979",
"! 	c #FE7777",
"~ 	c #74C774",
"{ 	c #70C571",
"] 	c #6DC36D",
"^ 	c #69C269",
"/ 	c #65C065",
"( 	c #61BE60",
"_ 	c #5CBB5C",
": 	c #58B957",
"< 	c #53B753",
"[ 	c #4EB44E",
"} 	c #004700",
"| 	c #FF7B7A",
"1 	c #FE5F5F",
"2 	c #FE5C5C",
"3 	c #FE5959",
"4 	c #54BA54",
"5 	c #51B751",
"6 	c #4CB64C",
"7 	c #47B347",
"8 	c #42B142",
"9 	c #3DAE3D",
"0 	c #37AB37",
"a 	c #31A931",
"b 	c #2CA62C",
"c 	c #49B249",
"d 	c #004100",
"e 	c #FD5454",
"f 	c #FDFDFD",
"g 	c #FCFCFC",
"h 	c #FBFBFB",
"i 	c #FAFAFA",
"j 	c #F9F9F9",
"k 	c #F8F8F8",
"l 	c #F7F7F7",
"m 	c #F6F6F6",
"n 	c #F5F5F5",
"o 	c #D7D7D7",
"p 	c #FE7676",
"q 	c #FE5858",
"r 	c #FD4F50",
"s 	c #F4F4F4",
"t 	c #D5D5D5",
"u 	c #FE7273",
"v 	c #FD5353",
"w 	c #FC4F4F",
"x 	c #FC4A4B",
"y 	c #F3F3F3",
"z 	c #F4F5F5",
"A 	c #D1D1D1",
"B 	c #FD6F6F",
"C 	c #FB4A49",
"D 	c #FB4545",
"E 	c #F2F2F2",
"F 	c #FB0000",
"G 	c #FC6A6A",
"H 	c #FB4949",
"I 	c #FA3F3F",
"J 	c #CFCFCF",
"K 	c #F90000",
"L 	c #FC6666",
"M 	c #FA4444",
"N 	c #F93A3A",
"O 	c #343434",
"P 	c #2E2E2E",
"Q 	c #292929",
"R 	c #232323",
"S 	c #1E1E1E",
"T 	c #181919",
"U 	c #131313",
"V 	c #0F0F0E",
"W 	c #0B0B0B",
"X 	c #2F2F2F",
"Y 	c #000000",
"Z 	c #F70000",
"` 	c #FB6162",
" .	c #FA5D5D",
"..	c #F95858",
"+.	c #F95455",
"@.	c #505050",
"#.	c #4B4B4B",
"$.	c #464646",
"%.	c #424242",
"&.	c #3D3D3D",
"*.	c #393939",
"=.	c #353535",
"-.	c #323232",
";.	c #2C2C2C",
">.	c #F50000",
",.	c #F30000",
"'.	c #F10000",
").	c #EF0000",
"!.	c #ED0000",
"                                ",
"                                ",
". . . . + @ # $ % & * = - ; > , ",
". ' ' ) ! ~ { ] ^ / ( _ : < [ } ",
". | 1 2 3 4 5 6 7 8 9 0 a b c d ",
". ) 2 3 e f g h i j k l m n m o ",
"+ p q e r g h i j k l m n s n t ",
"+ u v w x h i j k l m n s y z A ",
"+ B w C D i j k l m n s y E s A ",
"F G H D I j k l m n s y E E y J ",
"K L M I N O P Q R S T U V W X Y ",
"Z `  ...+.@.#.$.%.&.*.=.-.X ;.Y ",
">.,.'.).!.Y Y Y Y Y Y Y Y Y Y Y ",
"                                ",
"                                ",
"                                "};
