/* XPM */
static const char *AI_xpm[] = {
/* columns rows colors chars-per-pixel */
"16 16 162 2",
"   c black",
".  c #000000003636",
"X  c #000000003939",
"o  c #000000003E3E",
"O  c #000000004141",
"+  c #000000004444",
"@  c #000000004949",
"#  c #000000004F4F",
"$  c #000000005252",
"%  c #000000005757",
"&  c #000000005A5A",
"*  c #000000005F5F",
"=  c #000000006868",
"-  c #000000006D6D",
";  c #000000007070",
":  c #000000007676",
">  c #000001017E7E",
",  c #00000B0B8484",
"<  c #000012128989",
"1  c #000016169191",
"2  c #00001B1B9191",
"3  c #00001E1E9797",
"4  c #000022229797",
"5  c #000025259999",
"6  c #000027279C9C",
"7  c #00002E2EA2A2",
"8  c #00004B4BB4B4",
"9  c #00005B5BBABA",
"0  c #00005E5EBBBB",
"q  c #11115B5BB9B9",
"w  c #2B2B6060B7B7",
"e  c #2C2C7676B7B7",
"r  c #29297575BEBE",
"t  c #34347F7FC3C3",
"y  c #5F5F5A5AA6A6",
"u  c #4E4E6464B4B4",
"i  c #5D5D6868B6B6",
"p  c #2D2D8080C4C4",
"a  c #30308181C5C5",
"s  c #33338585C6C6",
"d  c #3A3A8484C2C2",
"f  c #3A3A8686C5C5",
"g  c #3F3F8888C6C6",
"h  c #3F3F8989C7C7",
"j  c #39398B8BC8C8",
"k  c #5A5A8686B8B8",
"l  c #41418989C7C7",
"z  c #44448D8DC8C8",
"x  c #45458E8EC8C8",
"c  c #4A4A8686C4C4",
"v  c #47479191C7C7",
"b  c #46469191C9C9",
"n  c #46469292CACA",
"m  c #48489292CACA",
"M  c #4A4A9191C9C9",
"N  c #4B4B9191C9C9",
"B  c #4C4C9292C8C8",
"V  c #4C4C9595CBCB",
"C  c #4D4D9595CBCB",
"Z  c #4E4E9494C9C9",
"A  c #4F4F9595CACA",
"S  c #4C4C9696CCCC",
"D  c #56569595C7C7",
"F  c #50509696CBCB",
"G  c #52529595CBCB",
"H  c #50509898CCCC",
"J  c #51519999CCCC",
"K  c #52529999CDCD",
"L  c #53539898CCCC",
"P  c #52529898CECE",
"I  c #54549999CECE",
"U  c #54549A9ACCCC",
"Y  c #55559B9BCECE",
"T  c #56569B9BCCCC",
"R  c #57579B9BCECE",
"E  c #55559C9CCECE",
"W  c #56569C9CCECE",
"Q  c #58589D9DCFCF",
"!  c #59599E9ECFCF",
"~  c #5A5A9D9DCECE",
"^  c #5B5B9D9DCECE",
"/  c #5C5C9D9DCECE",
"(  c #5A5A9E9ED0D0",
")  c #5D5DA0A0CFCF",
"_  c #5F5FA0A0CFCF",
"`  c #5C5CA0A0D1D1",
"'  c #5D5DA0A0D1D1",
"]  c #4A4AB4B4E6E6",
"[  c #4D4DB6B6E5E5",
"{  c #5555B5B5E3E3",
"}  c #6666A0A0CFCF",
"|  c #6262A1A1D0D0",
" . c #6262A2A2D0D0",
".. c #6262A3A3D3D3",
"X. c #6565A4A4D2D2",
"o. c #6666A4A4D2D2",
"O. c #6868A5A5D3D3",
"+. c #6A6AA6A6D3D3",
"@. c #6A6AA7A7D4D4",
"#. c #6B6BA6A6D4D4",
"$. c #6E6EA9A9D4D4",
"%. c #7171A8A8D4D4",
"&. c #7171ABABD6D6",
"*. c #7474ACACD6D6",
"=. c #7575ACACD7D7",
"-. c #7777ADADD7D7",
";. c #7979AEAED8D8",
":. c #7B7BB0B0D9D9",
">. c #7C7CB1B1D9D9",
",. c #7D7DB2B2D9D9",
"<. c #7F7FB0B0D9D9",
"1. c #6161BBBBE6E6",
"2. c #6464BDBDE6E6",
"3. c #6868BFBFE7E7",
"4. c #D2D254546D6D",
"5. c #A9A956568181",
"6. c #B0B059598181",
"7. c #C9C96C6C8989",
"8. c #F8F8D8D86B6B",
"9. c #F9F9DFDF7E7E",
"0. c #91919B9BBDBD",
"q. c #ADAD83839E9E",
"w. c #B0B080809A9A",
"e. c #B0B09090AAAA",
"r. c #8888A8A8CECE",
"t. c #8181B3B3DBDB",
"y. c #9E9EB1B1D2D2",
"u. c #9797CDCDEFEF",
"i. c #9E9EC7C7EAEA",
"p. c #A7A7CACAEAEA",
"a. c #AEAED4D4F2F2",
"s. c #DFDF9494A1A1",
"d. c #EFEF81818888",
"f. c #E5E593939D9D",
"g. c #FEFE81818686",
"h. c #FFFF87878B8B",
"j. c #FFFF8A8A8E8E",
"k. c #F8F888889090",
"l. c #FBFB91919595",
"z. c #FCFC90909595",
"x. c #FFFF94949898",
"c. c #EAEAA0A0AAAA",
"v. c #FFFFAAAAAEAE",
"b. c #FFFFADADB0B0",
"n. c #F7F7B1B1BABA",
"m. c #F4F4B4B4BDBD",
"M. c #FFFFBEBEBFBF",
"N. c #F5F5BABAC2C2",
"B. c #F7F7E2E29696",
"V. c #F5F5E5E5A7A7",
"C. c #F6F6E6E6A7A7",
"Z. c #D4D4CACADCDC",
"A. c #FFFFC5C5CACA",
"S. c #F9F9DCDCE5E5",
"D. c #EDEDF3F3F8F8",
"F. c #FFFFE5E5EFEF",
"G. c #F9F9EEEEEDED",
"H. c #F9F9EFEFEFEF",
"J. c #F0F0F5F5FAFA",
"K. c #FDFDF6F6F5F5",
"L. c #FEFEFAFAF9F9",
"P. c None",
/* pixels */
"P.P.P.P.P.P.P.P.P.P.P.P.P.P.P.P.",
"P.P.P.P.P.P.P.P.P.P.P.P.P.P.P.P.",
"P.P.P.P.P.P.P.P.P.P.P.P.P.P.P.P.",
"i q 0 5.6.9 c 7.5 3 1 < , > : ; ",
"w S.a.N.n.p.A.i.<.;.-.%.#.O.X.= ",
"4.v.x.h.g.j.k.d.} W O.>.-.)  .* ",
"y Z.M.z.l.b.c.e./ K J.H.H.D.^ % ",
"8 F.y.s.f.u.m.k R S C.9.L.B.R $ ",
"u r.f q.q.e D 0.G b C.K.8.C.K @ ",
"7 t...` ^ E K V m h 1.3.2.{ G + ",
"6 ,.( ( R Z S b x g j [ ] t Z o ",
"4 >.( W K Z b z h f t s t r m X ",
"2 -.$.$.O.X. .} ^ T K G n m v . ",
"< , > : - = * & $ # @ O o X . . ",
"P.P.P.P.P.P.P.P.P.P.P.P.P.P.P.P.",
"P.P.P.P.P.P.P.P.P.P.P.P.P.P.P.P."
};
