/* XPM */
static char *AI_png[] = {
/* columns rows colors chars-per-pixel */
"16 16 115 2",
"   c #0D4F0D4F3B2F",
".  c #0D620D623DB5",
"X  c #14E914E9365D",
"o  c #083908394143",
"O  c #086308614537",
"+  c #08BF08BD4566",
"@  c #0DA30DA34199",
"#  c #000000005A47",
"$  c #000000005E57",
"%  c #000000005EC0",
"&  c #000000006018",
"*  c #02FE03945DF6",
"=  c #0261025A5E8C",
"-  c #1A361A365F2F",
";  c #006C006C60B1",
":  c #000000006207",
">  c #00000000644D",
",  c #0000000064F7",
"<  c #0014003165BE",
"1  c #0000000066C8",
"2  c #007601C7684A",
"3  c #02EB02E5662E",
"4  c #02DB02E06682",
"5  c #03EC043E65EA",
"6  c #063007C26AE1",
"7  c #0DDD0534653F",
"8  c #089708976754",
"9  c #0AEF0A9369D1",
"0  c #0AE60B726D16",
"q  c #0CF808786896",
"w  c #0C470C476DF2",
"e  c #1AAD09546438",
"r  c #1F160BBC6488",
"t  c #16CC16CC61E2",
"y  c #0A5726627505",
"u  c #0B0A277A74E9",
"i  c #1C1823597081",
"p  c #1DE52797733F",
"a  c #2C5928787A6F",
"s  c #31EA20F270AD",
"d  c #45A415835C54",
"f  c #461319EE6096",
"g  c #4DAE33AA7677",
"h  c #437844AC7F1F",
"j  c #44EA45687F86",
"k  c #75194A9B7DAB",
"l  c #30963096833C",
"z  c #3911394D8886",
"x  c #3A703A708870",
"c  c #3AB43AB489E0",
"v  c #470D470E9103",
"b  c #474847489131",
"n  c #47E347E2919F",
"m  c #504150749513",
"M  c #6F6F511A8769",
"N  c #67DF652F82A5",
"B  c #6BE465CF8232",
"V  c #7F5F63A4935A",
"C  c #75CC6D22A261",
"Z  c #50E0AD52BCEA",
"A  c #4E7CAF3DC32E",
"S  c #93B533D457BA",
"D  c #9D15372056AC",
"F  c #B7F643DD560C",
"G  c #BAD34A2D5B85",
"H  c #BEDA6B587D5A",
"J  c #D20D298D2A7A",
"K  c #D2682D642F0A",
"L  c #D2043093327E",
"P  c #D4BC31FF3309",
"I  c #D1D14E3D541F",
"U  c #D299536B586D",
"Y  c #DD6D54A054AC",
"T  c #DC5259565A5B",
"R  c #E073605A5FE1",
"E  c #D68C5C2160D6",
"W  c #C5676A417899",
"Q  c #D54068716E9A",
"!  c #DE03657C6768",
"~  c #823579FD86BD",
"^  c #831A7B818BE8",
"/  c #CD1476D982AA",
"(  c #86C9843C973A",
")  c #8B7184B397BD",
"_  c #9A6F9072B714",
"`  c #B5C682559A84",
"'  c #B7DB856E9CE9",
"]  c #A8238AABAB12",
"[  c #A5EE9503B64D",
"{  c #B12398DEB5E3",
"}  c #AD19A518C48B",
"|  c #ACE9ACE9CE29",
" . c #D07882088D18",
".. c #D245AB1DB928",
"X. c #D23AAD92BC14",
"o. c #EA4AD7E6985C",
"O. c #EAE5D81F9E88",
"+. c #FFFFE0689D64",
"@. c #FF68E1F29D8E",
"#. c #C83AC83ADE97",
"$. c #CF31CF31D354",
"%. c #D10DD10DD57E",
"&. c #D0E1D0E1DA1D",
"*. c #CC56CC70E118",
"=. c #CCE1CCE1E169",
"-. c #CEB3D0AFE3D7",
";. c #D085D040E304",
":. c #D3D8D267E329",
">. c #EF0CD788DC09",
",. c #EF12D92BDDDE",
"<. c #E1ECD81EE31A",
"1. c #E503E2C1ECEE",
"2. c #F37AE4BCE826",
"3. c #F9C3EB4BEC50",
"4. c gray100",
/* pixels */
"4.4.4.4.4.4.4.4.4.4.4.4.4.4.4.4.",
"4.4.4.4.4.4.4.4.4.4.4.4.4.4.4.4.",
"3.1.-.,.>.;.<.2.;.#.;.#.#.#.#.| ",
"{ ..}  ./ ] X._ m n n n m n x t ",
"W U R P J Y E D e 4 4 4 5 4 ; + ",
"H Q T K L ! I S e 4 h ~ ^ j = + ",
"[ ' M G F C ` k q ; ( @.+.) = + ",
"V s 6 f d 9 a g 7 4 N o.O.B = + ",
"z 0 4 4 4 4 4 4 4 4 i Z A i = O ",
"x 0 4 4 4 4 4 4 4 4 4 y y 4 ; O ",
"l 6 = ; = ; = ; = ; = = = ; # o ",
"- @ . . . . . . . . . . . . . X ",
"&.$.$.$.$.$.$.$.$.$.$.$.$.$.$.$.",
"4.4.4.4.4.4.4.4.4.4.4.4.4.4.4.4.",
"4.4.4.4.4.4.4.4.4.4.4.4.4.4.4.4.",
"4.4.4.4.4.4.4.4.4.4.4.4.4.4.4.4."
};
