/* XPM */
static char *AM_png[] = {
/* columns rows colors chars-per-pixel */
"16 16 70 1",
"  c #182F337B627D",
". c #27A833CB57B5",
"X c #359E406B4FA4",
"o c #313E440E7E0B",
"O c #7BE818BF1952",
"+ c #68865DE4178C",
"@ c #7FFF714A10C2",
"# c #4767587570CE",
"$ c #4BFC5E5A7812",
"% c #4C705EC87866",
"& c #4CB45F1A78D6",
"* c #54D766447EDE",
"= c #18CC438B8F2A",
"- c #19ED47F39889",
"; c #1A7B487498D5",
": c #257850E69DE3",
"> c #342E487D865B",
", c #34B348FD86B3",
"< c #3E6C516B8C7A",
"1 c #4E99720BB092",
"2 c #62D5727BA239",
"3 c #7525836E972B",
"4 c #94AA0C1A07F3",
"5 c #B79C18D91A3E",
"6 c #8574762A10F3",
"7 c #860776B01102",
"8 c #8F5D7E8511A9",
"9 c #C0C91C9C16CC",
"0 c #C3F919EC1B8A",
"q c #C4221A7D1C1A",
"w c #C4D21A941C35",
"e c #DDFB06C70000",
"r c #C6C6255526E0",
"t c #EBBC08E80044",
"y c #EC9A08F00047",
"u c #ECE314B50C65",
"i c #F05E3FE43945",
"p c #EAFA409E3A70",
"a c #D1B34E6F4FC5",
"s c #EECF4CE346E0",
"d c #EED74D504752",
"f c #EF0B4DE747ED",
"g c #EFA0555B4FAA",
"h c #F1B96DDE6926",
"j c #975685690C09",
"k c #95F4840B1373",
"l c #C6CFB09A1FC3",
"z c #E2CEC63F05B1",
"x c #E111C49E1069",
"c c #F030D1E010E8",
"v c #F039D200117E",
"b c #F0DAD3E91CE7",
"n c #F1E7D39105A8",
"m c #F1F5D3B70638",
"M c #F2CED4710640",
"N c #F629D7F70EFC",
"B c #F115D2BC118E",
"V c #FE73E57D365E",
"C c #F354DBE74822",
"Z c #F809AFA1ACE9",
"A c #D97AD83ACF84",
"S c #DA6DD90BCF8B",
"D c #DC27DACCD164",
"F c #FAD6CA0AC83A",
"G c #FB61CE66CCB5",
"H c #FB64CE84CCD5",
"J c #FB81D07CCEEF",
"K c #FBEED5D5D49D",
"L c #E81DE529D194",
"P c gray100",
/* pixels */
"PPPPPPPPPPPPPPPP",
"PPPPPPPPPPPPPPPP",
"KJGGGGGGGGGGGGFZ",
"hgdddddfddddddp9",
"iuttttyyttyytye4",
"ar0qq0qqqqqqqq5O",
"2<>>>>>>,,>,>,o.",
"1:-;;;;;;;;;;;= ",
"3*$$&$&&&&%%%&#X",
"Cbvvvvvvvvvvvvxk",
"VNmmmmmmMMmmMMzj",
"l8777777777777@+",
"LAAAAAAAAAAAAAAA",
"PPPPPPPPPPPPPPPP",
"PPPPPPPPPPPPPPPP",
"PPPPPPPPPPPPPPPP"
};
