/* XPM */
static const char *AM_xpm[] = {
/* columns rows colors chars-per-pixel */
"16 16 157 2",
"   c black",
".  c #000000005B5B",
"X  c #000000006363",
"o  c #030303039B9B",
"O  c #090909099B9B",
"+  c #0F0F0F0F9F9F",
"@  c #42424242ADAD",
"#  c #46464646AFAF",
"$  c #47474747AEAE",
"%  c #4B4B4B4BB0B0",
"&  c #4B4B4B4BB1B1",
"*  c #50505050B3B3",
"=  c #50505050B4B4",
"-  c #53535353B6B6",
";  c #54545555B5B5",
":  c #55555555B6B6",
">  c #58585858B7B7",
",  c #58585858B8B8",
"<  c #59595959B8B8",
"1  c #5D5D5D5DB9B9",
"2  c #5C5C5C5CBBBB",
"3  c #5D5D5D5DBABA",
"4  c #5E5E5E5EBABA",
"5  c #60606060B9B9",
"6  c #61616161BCBC",
"7  c #61616161BDBD",
"8  c #62626262BDBD",
"9  c #65656565BCBC",
"0  c #66666666BEBE",
"q  c #66666666BFBF",
"w  c #66666666C0C0",
"e  c #6A6A6A6AC1C1",
"r  c #6B6B6B6BC1C1",
"t  c #6A6A6A6AC2C2",
"y  c #6F6F6E6EC3C3",
"u  c #6E6E6E6EC4C4",
"i  c #6F6F6F6FC4C4",
"p  c #72727272C5C5",
"a  c #72727272C6C6",
"s  c #73737373C6C6",
"d  c #76767676C7C7",
"f  c #77777777C7C7",
"g  c #79797A7AC9C9",
"h  c #E3E300000000",
"j  c #E5E500000000",
"k  c #E9E900000000",
"l  c #EBEB00000000",
"z  c #EDED00000000",
"x  c #EFEF00000000",
"c  c #F1F100000000",
"v  c #F3F300000000",
"b  c #F5F500000000",
"n  c #F7F700000000",
"m  c #F7F703030303",
"M  c #F7F709090909",
"N  c #FBFB05050505",
"B  c #F9F90D0D0D0D",
"V  c #FBFB13131313",
"C  c #FBFB15151515",
"Z  c #FBFB25252525",
"A  c #D7D749490000",
"S  c #D7D74B4B0000",
"D  c #D9D94F4F0000",
"F  c #D7D755550000",
"G  c #D9D951510000",
"H  c #D9D955550000",
"J  c #DDDD55550000",
"K  c #D9D959590000",
"L  c #DFDF59590000",
"P  c #DFDF5D5D0000",
"I  c #E1E161610000",
"U  c #E3E365650000",
"Y  c #E7E76B6B0000",
"T  c #E9E96F6F0000",
"R  c #EBEB73730000",
"E  c #EDED79790000",
"W  c #EFEF7D7D0000",
"Q  c #F4F453535252",
"!  c #F4F457575757",
"~  c #F5F557575757",
"^  c #F5F55C5C5B5B",
"/  c #F5F55C5C5C5C",
"(  c #F6F660605F5F",
")  c #F6F661616161",
"_  c #F7F764646464",
"`  c #F7F765656565",
"'  c #F4F46A6A6A6A",
"]  c #F6F66F6F6F6F",
"[  c #F8F868686868",
"{  c #F9F96D6D6D6D",
"}  c #F7F773737373",
"|  c #F7F776767676",
" . c #FAFA71717171",
".. c #FBFB75757575",
"X. c #F8F87A7A7A7A",
"o. c #FBFB78787878",
"O. c #FBFB79797979",
"+. c #FBFB7B7B7B7B",
"@. c #FBFB7B7B7C7C",
"#. c #F8F87E7E7E7E",
"$. c #FCFC7E7E7E7E",
"%. c #F1F183830000",
"&. c #F3F389890000",
"*. c #F1F18D8D0000",
"=. c #F5F597970000",
"-. c #F7F795950000",
";. c #EEEEACAC3B3B",
":. c #EFEFAEAE3F3F",
">. c #EFEFB0B04343",
",. c #EFEFB1B15555",
"<. c #EFEFB3B35757",
"1. c #EFEFB8B85959",
"2. c #F0F0B0B04343",
"3. c #F0F0B2B24747",
"4. c #F0F0B2B24848",
"5. c #F1F1B4B44B4B",
"6. c #F3F3B7B74F4F",
"7. c #F3F3B7B75050",
"8. c #F1F1B3B35B5B",
"9. c #F2F2B5B55E5E",
"0. c #F4F4B9B95454",
"q. c #F4F4B9B95555",
"w. c #F1F1B9B95B5B",
"e. c #F5F5BBBB5959",
"r. c #F6F6BEBE5E5E",
"t. c #F2F2B8B86161",
"y. c #F2F2B9B96464",
"u. c #F3F3BBBB6767",
"i. c #F5F5BDBD6B6B",
"p. c #F6F6BFBF6F6F",
"a. c #F7F7C0C06262",
"s. c #F8F8C3C36666",
"d. c #F8F8C3C36767",
"f. c #F9F9C5C56B6B",
"g. c #FAFAC6C66F6F",
"h. c #F7F7C1C17373",
"j. c #F7F7C3C37777",
"k. c #F8F8C5C57B7B",
"l. c #F9F9C8C87F7F",
"z. c #8C8C8C8CD0D0",
"x. c #8F8F8F8FD1D1",
"c. c #91919191D3D3",
"v. c #F9F981818181",
"b. c #FAFA84848484",
"n. c #FCFC81818181",
"m. c #FBFB88888888",
"M. c #FCFC8B8B8B8B",
"N. c #FCFC8F8F8F8F",
"B. c #FCFC91919191",
"V. c #FCFC94949494",
"C. c #FCFC95959595",
"Z. c #FDFD97979696",
"A. c #FDFD97979797",
"S. c #FAFAC9C98383",
"D. c #FBFBCFCF8686",
"F. c #FBFBD1D18A8A",
"G. c None",
/* pixels */
"G.G.G.G.G.G.G.G.G.G.G.G.G.G.G.G.",
"G.G.G.G.G.G.G.G.G.G.G.G.G.G.G.G.",
"G.G.G.G.G.G.G.G.G.G.G.G.G.G.G.G.",
"Z C C C V B M m m m v v v z z l ",
"V A.Z.A.V.B.N.M.M.n.v.#.O.| } l ",
"C A.n.$.O.O... .{ ' ` ) / ! ] h ",
"N A.$.O.O... .{ [ ) ( ^ ! Q ' h ",
"+ c.g d s i r q 8 4 < ; * % q X ",
"O x.d s i r q 8 4 < , - % # 4 . ",
"o z.s y r w 4 2 , - & % # @ 4 . ",
"-.F.g.f.d.u.r.e.q.7.5.5.>.:.w.H ",
"-.D.f.s.a.r.e.q.6.5.>.>.:.;.1.K ",
"&.S.l.k.j.p.p.p.y.y.t.9.8.<.<.A ",
"*.%.W E R R Y U I P L J G D A F ",
"G.G.G.G.G.G.G.G.G.G.G.G.G.G.G.G.",
"G.G.G.G.G.G.G.G.G.G.G.G.G.G.G.G."
};
