/* XPM */
static char *AN_png[] = {
/* columns rows colors chars-per-pixel */
"16 16 124 2",
"   c #0E8719B93A51",
".  c #0EE01AEB3DDC",
"X  c #0F2F1B563E12",
"o  c #0F861BC63E75",
"O  c #0FD41C3E3EE2",
"+  c #123318D52D7A",
"@  c #13861A952E69",
"#  c #10AB1BF33BC0",
"$  c #114D1CBF3C5F",
"%  c #10551CD73EFF",
"&  c #11871D953FC6",
"*  c #0E9D1F814253",
"=  c #11FE1E154047",
"-  c #10C51E20409F",
";  c #11871E7340B8",
":  c #124A1E6940B1",
">  c #12C61F5941A9",
",  c #13881F744191",
"<  c #12A02042428C",
"1  c #1462204E4240",
"2  c #143A207C430F",
"3  c #14F121424359",
"4  c #16C6236344F3",
"5  c #173523104503",
"6  c #15C726964865",
"7  c #1AE626844784",
"8  c #183426AE4881",
"9  c #1BF428ED4A1A",
"0  c #1D3428C54923",
"q  c #1DD4298F49C1",
"w  c #1E242A124B30",
"e  c #21382CF64DE2",
"r  c #22962F9F5028",
"t  c #24B034B754E9",
"y  c #2712372F5764",
"u  c #28773405543D",
"i  c #34093ED65D47",
"p  c #765F285C3C84",
"a  c #7B542CBF403C",
"s  c #45E54F986A49",
"d  c #482351CF6BF7",
"f  c #57195A6E65BE",
"g  c #7DD748C949C6",
"h  c #7931516C650A",
"j  c #63E767346FA0",
"k  c #689A689A6893",
"l  c #802180218017",
"z  c #7C8081F293F8",
"x  c #862A22CB2295",
"c  c #864E250024F5",
"v  c #864925762570",
"b  c #8656274E2741",
"n  c #9B7926D5354F",
"m  c #9BFE2A9238B7",
"M  c #9BF92B7D3978",
"N  c #9B992D1E3B33",
"B  c #885937724967",
"V  c #89133BE94DEC",
"C  c #9B835E4D6CBF",
"Z  c #862A6AE86AD8",
"A  c #EE7A28E728B1",
"S  c #F0192E662E87",
"D  c #F0822FEC3004",
"F  c #EF4131EA322C",
"G  c #FFFF2F182E3B",
"H  c #FFFF34A03394",
"J  c #FFFF35D134BE",
"K  c #FFFF39633881",
"L  c #E10676EB7931",
"P  c #FFFF67A067A6",
"I  c #FFFF6BE96BF1",
"U  c #FFFF6ED56EDB",
"Y  c #81316FA382A9",
"T  c #9B4A80228E95",
"R  c #83718484849E",
"E  c #86198617860D",
"W  c #86228796878C",
"Q  c #8F7F8F7F8F75",
"!  c #80E988709B5B",
"~  c #845C8A749D96",
"^  c #84678BDA9EE0",
"/  c #84D18AF19E06",
"(  c #9795977F979C",
")  c #8A949011A266",
"_  c #91CC963CA3E8",
"`  c #9B589F4AAE1E",
"'  c #9B63A041AEF8",
"]  c #9B9FA089AF3B",
"[  c #9C34A110AFCE",
"{  c #9B63A226B0F6",
"}  c #A05FA4E7B349",
"|  c #A13DA13AA129",
" . c #B29AB639C1D2",
".. c #FFFF8EF68E77",
"X. c #FFFFAC84AC86",
"o. c #F208BC63BC01",
"O. c #C6E9C6E9C6E2",
"+. c #D274D274D273",
"@. c #D8CED439D450",
"#. c #D977D13AD13B",
"$. c #D978D727D727",
"%. c #D975D97CD97C",
"&. c #DA6DDA6DDA6D",
"*. c #DC27DC27DC27",
"=. c #FFFFC9A0C922",
"-. c #FFFFD5BDD5BD",
";. c #FFFFD667D668",
":. c #FFFFD74FD74F",
">. c #E32AE305E325",
",. c #E81DE81DE81D",
"<. c #EDA5EF39EF78",
"1. c #FFFFE8D9E8D9",
"2. c #F1EBF1D9F1CD",
"3. c #F26DF23FF258",
"4. c #F33FF317F32E",
"5. c #F26FF53AF546",
"6. c #F691F66DF68A",
"7. c #FFFFF45DF45D",
"8. c #FD7DFD7DFD7C",
"9. c #FE99FE8CFE9D",
"0. c #FFFFFE93FE90",
"q. c #FFB9FFB9FFB9",
"w. c #FFFFFFA3FFA3",
"e. c gray100",
/* pixels */
"e.e.e.e.e.e.e.e.e.e.e.e.e.e.e.e.",
"e.e.e.e.e.e.e.e.e.e.e.e.e.e.e.e.",
"e.e.e.e.e.7.-.-.-.-.1.e.e.e.e.e.",
"e.e.e.e.e.-.U I I I X.e.e.e.8.+.",
"e.e.e.e.e.=.K H H G ..e.e.e.2.| ",
" .} [ [ [ T N m M n C ' ` ` _ j ",
"d q % & & 3 & q e > & 3 & & # + ",
"d q & % e u * 3 4 % q i 3 & $ @ ",
"d 7 X O & > t 6 * y 7 3 % o   + ",
"} ) ~ / ^ Y V a p B h ! ^ ^ z f ",
"e.5.4.2.5.o.F S F A L <.5.5.>.( ",
"O.Q R W W Z c c c x g R z Q Z k ",
",.%.%.%.%.$.#.#.#.#.@.$.%.%.%.&.",
"e.e.e.e.e.e.e.e.e.e.e.e.e.e.e.e.",
"e.e.e.e.e.e.e.e.e.e.e.e.e.e.e.e.",
"e.e.e.e.e.e.e.e.e.e.e.e.e.e.e.e."
};
