/* XPM */
static const char *AO_xpm[] = {
/* columns rows colors chars-per-pixel */
"16 16 116 2",
"   c black",
".  c gray11",
"X  c #1D1D1D1D1D1D",
"o  c #1E1E1E1E1E1E",
"O  c gray12",
"+  c #202020202020",
"@  c gray13",
"#  c #222222222222",
"$  c #232323232323",
"%  c gray15",
"&  c #282828282828",
"*  c #2A2A2A2A2A2A",
"=  c gray17",
"-  c #2C2C2C2C2C2C",
";  c #2D2D2D2D2D2D",
":  c gray18",
">  c #2F2F2F2F2F2F",
",  c gray19",
"<  c #313131313131",
"1  c #323232323232",
"2  c gray20",
"3  c #343434343434",
"4  c #353535353535",
"5  c gray21",
"6  c #373737373737",
"7  c gray22",
"8  c #393939393939",
"9  c #3A3A3A3A3A3A",
"0  c gray23",
"q  c #3C3C3C3C3C3C",
"w  c gray24",
"e  c #3F3F3F3F3F3F",
"r  c #6D6D6D6D2F2F",
"t  c #7F7F7F7F3131",
"y  c gray25",
"u  c #434343434343",
"i  c #888826262626",
"p  c #A3A327272727",
"a  c #A5A527272727",
"s  c #A8A827272727",
"d  c #ABAB27272727",
"f  c #B1B127272727",
"g  c #B5B528282828",
"h  c #B8B828282828",
"j  c #BABA28282828",
"k  c #BEBE28282828",
"l  c #BFBF29292929",
"z  c #80807F7F2B2B",
"x  c #C3C328282828",
"c  c #C4C428282828",
"v  c #C6C628282828",
"b  c #C7C728282828",
"n  c #CCCC29292929",
"m  c #CECE29292929",
"M  c #EBEB27272727",
"N  c #EBEB2B2B2B2B",
"B  c #ECEC31313131",
"V  c #ECEC32323232",
"C  c #ECEC34343434",
"Z  c #EDED38383838",
"A  c #EDED3A3A3A3A",
"S  c #EDED3C3C3C3C",
"D  c #EDED3F3F3F3F",
"F  c #EDED41414141",
"G  c #EEEE45454545",
"H  c #EEEE47474747",
"J  c #EEEE4F4F4747",
"K  c #EEEE48484848",
"L  c #EEEE4C4C4C4C",
"P  c #EFEF5A5A4040",
"I  c #EFEF50505050",
"U  c #EFEF53535353",
"Y  c #EFEF55555555",
"T  c #F0F059595959",
"R  c #F0F05B5B5B5B",
"E  c #F0F05E5E5E5E",
"W  c #F0F064645F5F",
"Q  c #F0F068685959",
"!  c #F0F060606060",
"~  c #F0F061616060",
"^  c #F0F062626262",
"/  c #F1F164646464",
"(  c #F1F166666666",
")  c #F1F169696969",
"_  c #F1F16D6D6D6D",
"`  c #F2F26F6F6F6F",
"'  c #F2F273737373",
"]  c #F2F276767676",
"[  c #F3F37C7C7C7C",
"{  c #F3F37F7F7F7F",
"}  c #838381812D2D",
"|  c #858585853030",
" . c #ADADADAD2F2F",
".. c #B9B9B7B72E2E",
"X. c #F3F3B0B03939",
"o. c #F1F184844646",
"O. c #F1F181815151",
"+. c #C8C8C8C82C2C",
"@. c #CCCCCCCC2C2C",
"#. c #D8D8D5D52B2B",
"$. c #F4F4C1C13131",
"%. c #F4F4C8C83535",
"&. c #F4F4D0D02E2E",
"*. c #F5F5D7D73030",
"=. c #F5F5D8D83131",
"-. c #E6E6E3E32C2C",
";. c #F5F5E6E62E2E",
":. c #F6F6F1F12B2B",
">. c #F6F6F2F22B2B",
",. c #F3F381818181",
"<. c #F3F383838383",
"1. c #F4F485858585",
"2. c #F4F487878787",
"3. c #F4F489898989",
"4. c #F4F48A8A8A8A",
"5. c None",
/* pixels */
"5.5.5.5.5.5.5.5.5.5.5.5.5.5.5.5.",
"5.5.5.5.5.5.5.5.5.5.5.5.5.5.5.5.",
"5.5.5.5.5.5.5.5.5.5.5.5.5.5.5.5.",
"m m m m n c c x x l l j h g f f ",
"m 4.4.2.2.<.{ [ ' ' ' ) ( ^ T d ",
"n 4._ _ ( ( W O.;.o.K K F S Y d ",
"n 2._ ) ( ! Q :.%.>.H S A C I p ",
"v <.( ^ E T =.I J $.A A B N K p ",
"l { ( E R U X.&.P *.Z B N M H i ",
"% u 9 9 7  .| ..-.r < ; ; ; 3 + ",
"+ y 7 4 4 | @.+.z #.; * * & , . ",
"+ y 4 4 2 < < , > ; t * & & , . ",
"$ e w 9 9 9 4 6 4 3 < < , ; , . ",
"+ + + @ + + O . . O . . . . . . ",
"5.5.5.5.5.5.5.5.5.5.5.5.5.5.5.5.",
"5.5.5.5.5.5.5.5.5.5.5.5.5.5.5.5."
};
