/* XPM */
static char *AP_xpm[] = {
/* columns rows colors chars-per-pixel */
"16 16 141 2",
"   c #0E99235157A4",
".  c #0D5B25315554",
"X  c #0D582562559A",
"o  c #0DA327925B66",
"O  c #5D32203D1A5A",
"+  c #708A1CC414A9",
"@  c #75A11D251514",
"#  c #76081DB21519",
"$  c #7693225514C9",
"%  c #4F58520C2F96",
"&  c #7DC77C464932",
"*  c #00002F58907D",
"=  c #027A2BCB942D",
"-  c #00002FF090A5",
";  c #02B92F6E9D53",
":  c #02A42FEA9DF9",
">  c #000032B39958",
",  c #000032E999F4",
"<  c #00003352996E",
"1  c #0000338C9A09",
"2  c #02AA30559D6F",
"3  c #01C7348F9A79",
"4  c #024E35329A98",
"5  c #04FF30F79E52",
"6  c #0897380996AA",
"7  c #0C173D369E9C",
"8  c #0C303D569EC7",
"9  c #0E653EF19F5A",
"0  c #1A363CA981D7",
"q  c #309659C1AC75",
"w  c #3A2A6201B0BC",
"e  c #3ACC627FB127",
"r  c #47116C01B605",
"t  c #492E6901B8CD",
"y  c #4FAA72F9B942",
"u  c #69268742C3AA",
"i  c #83C71B37119A",
"p  c #8B0B1CE8131A",
"a  c #8C691C69124F",
"s  c #8BB61D02132A",
"d  c #B9422FF8232C",
"f  c #82F665610EFB",
"g  c #85FF76B30D62",
"h  c #86C778690D28",
"j  c #86EB79520CF4",
"k  c #BF4A78DA0E7C",
"l  c #830B80734865",
"z  c #C3FC1DB50EBB",
"x  c #CFBD1FF91018",
"c  c #D0AF201A102A",
"v  c #D0FD1EC80FDB",
"b  c #D2011FC70FE7",
"n  c #D30D2A140EDA",
"m  c #E03C2D4C0FEF",
"M  c #D11D20A110A6",
"N  c #DD9D211C1102",
"B  c #DD8E2118111A",
"V  c #DDD721691115",
"C  c #DE682138112C",
"Z  c #DEA12241110B",
"A  c #DEA722521121",
"S  c #DE1723171372",
"D  c #DF8122731134",
"F  c #DF2C242C1370",
"G  c #DE482AB21073",
"H  c #E0AF2F6D1247",
"J  c #E18F2E230FF7",
"K  c #E0F92E680F9B",
"L  c #CD837D370F49",
"P  c #C372729A12F8",
"I  c #D1F06F0D0DA5",
"U  c #D19B7CA70CAA",
"Y  c #DAA674330BFF",
"T  c #E36F54814790",
"R  c #E7345F35537D",
"E  c #E7A260885413",
"W  c #E8E4679D52F2",
"Q  c #852884284840",
"!  c #83FA889C43B9",
"~  c #895788AE481A",
"^  c #8A428BFC47AC",
"/  c #8D8B909449DE",
"(  c #AC52B04C7B77",
")  c #C71496280B7C",
"_  c #C9BC975C0CBE",
"`  c #CAF39AB40E7A",
"'  c #D62490860AA9",
"]  c #DB7483E90AA4",
"[  c #D5F894580A4A",
"{  c #D4619B3D09D5",
"}  c #DB74915F06A3",
"|  c #DAC9965F06DE",
" . c #DD3B954B0973",
".. c #DB5A9E76066C",
"X. c #D24AA9390617",
"o. c #D473A9720A97",
"O. c #D91AAF64076D",
"+. c #DCC8B5F50460",
"@. c #DED6B35A0930",
"#. c #E1CB99EC07F6",
"$. c #E3AC9DE9080D",
"%. c #E6E1A7A7057B",
"&. c #E956ADBE0344",
"*. c #EE63AB650592",
"=. c #F004AD65058D",
"-. c #F5C1B6480687",
";. c #E6FEC96401D4",
":. c #EE2FC8650649",
">. c #EBD3D07B00C6",
",. c #F184CEAF0533",
"<. c #F33CCF4C0516",
"1. c #F7FCD5C50398",
"2. c #FB65CDEA49CC",
"3. c #FCF2E46747F3",
"4. c #FF52E6C14770",
"5. c #FF6EE99F474F",
"6. c #FFFFEBBA46CE",
"7. c #F4E0B80DB264",
"8. c #CF3BD133D567",
"9. c #CF2CD168D5F5",
"0. c #D815D09FCFD1",
"q. c #D82CD0F6CFCB",
"w. c #D926D6AFCF4B",
"e. c #D97CD81ACF30",
"r. c #D4DDD50CD225",
"t. c #D0E1D58FDEE1",
"y. c #DA9BD299D1B9",
"u. c #CCB5D6D1EB69",
"i. c #CCCAD6EBEB67",
"p. c #CD52D62DEC28",
"a. c #CEEFD8A2EC6A",
"s. c #D49DDD21EE91",
"d. c #F8D0CFA2CBDF",
"f. c #F93BD393D04A",
"g. c #F989D5DDD008",
"h. c #E8C0E9D7DB40",
"j. c #FEB0F1E3CD68",
"k. c #FFFFF9C9CCC2",
"l. c #FFFFFA45CCAE",
"z. c #FFFFF954CCCC",
"x. c gray100",
/* pixels */
"x.x.x.x.x.x.x.x.x.x.x.x.x.x.x.x.",
"x.x.x.x.x.x.x.x.x.x.x.x.x.x.x.x.",
"s.a.u.u.u.h.k.k.k.k.j.f.f.f.d.7.",
"u y r r t ( 6.4.3.6.2.W R R T d ",
"e 9 3 3 5 / 1.<.:.<.-.H S S b a ",
"e 9 > > ; ^ %.] { O.*.m S S x a ",
"e 7 > > 2 & } Y k ) | m V V x a ",
"w 7 > > 2 Q | I P ' $.m V S x a ",
"e 9 > > ; l ..U L [ #.m S V b a ",
"e 8 > > ; ^ @.` _ o.*.m V V x a ",
"q 6 - - = ! >.+.X.;.&.n b b z i ",
"0 o . .   % j g g g f $ # # + O ",
"t.8.8.8.8.r.e.e.w.e.w.q.q.q.q.y.",
"x.x.x.x.x.x.x.x.x.x.x.x.x.x.x.x.",
"x.x.x.x.x.x.x.x.x.x.x.x.x.x.x.x.",
"x.x.x.x.x.x.x.x.x.x.x.x.x.x.x.x."
};
