/* XPM */
static const char *AS_xpm[] = {
/* columns rows colors chars-per-pixel */
"16 16 163 2",
"   c black",
".  c #030300000000",
"X  c #777700000303",
"o  c #7B7B62624F4F",
"O  c #000000009D9D",
"+  c #00000000A1A1",
"@  c #00000000DFDF",
"#  c #00000000E1E1",
"$  c #00000000E3E3",
"%  c #00000000E7E7",
"&  c #00000000E9E9",
"*  c #00000000EBEB",
"=  c #00000000EDED",
"-  c #00000000EFEF",
";  c #00000000F3F3",
":  c #00000000F5F5",
">  c #00000000F7F7",
",  c #04040000F2F2",
"<  c #00000000F9F9",
"1  c #00000000FBFB",
"2  c #00000000FCFC",
"3  c #00000000FDFD",
"4  c #03030303FDFD",
"5  c #0B0B0B0BFDFD",
"6  c #0D0D0B0BFDFD",
"7  c #0D0D0D0DFFFF",
"8  c #11111111FFFF",
"9  c #21212121FFFF",
"0  c #65650000B6B6",
"q  c #73733939AFAF",
"w  c #40403D3DEDED",
"e  c #45454545F8F8",
"r  c #4C4C4C4CF9F9",
"t  c #56565050ECEC",
"y  c #57575757F7F7",
"u  c #53535353FAFA",
"i  c #5A5A5A5AF5F5",
"p  c #5A5A5A5AFBFB",
"a  c #5F5F5F5FF8F8",
"s  c #77775555CCCC",
"d  c #61616161FCFC",
"f  c #65656565F9F9",
"g  c #6F6F6A6AF6F6",
"h  c #6C6C6C6CF9F9",
"j  c #6F6F6F6FFDFD",
"k  c #74747474FAFA",
"l  c #74747474FEFE",
"z  c #75757474FEFE",
"x  c #79797979FEFE",
"c  c #7C7C7C7CFBFB",
"v  c #7D7D7D7DFEFE",
"b  c #818100000000",
"n  c #9B9B00000000",
"m  c #BBBB00000000",
"M  c #8E8E4D4D3232",
"N  c #989850502A2A",
"B  c #B9B940406565",
"V  c #A0A064644040",
"C  c #B1B17B7B5050",
"Z  c #C1C100000000",
"A  c #D7D745453C3C",
"S  c #DBDB4E4E4242",
"D  c #DFDF5D5D5151",
"F  c #D0D05A5A7373",
"G  c #DEDE60605F5F",
"H  c #D4D46C6C7D7D",
"J  c #E0E05C5C5151",
"K  c #E4E46C6C6666",
"L  c #E7E772726868",
"P  c #E5E578786D6D",
"I  c #E6E677777070",
"U  c #E9E97F7F7979",
"Y  c #EAEA7E7E7B7B",
"T  c #BBBB57578686",
"R  c #A0A05353B0B0",
"E  c #A1A16A6AB6B6",
"W  c #BABA7373AEAE",
"Q  c #95957272CFCF",
"!  c #CDCD75759292",
"~  c #C4C47D7DAAAA",
"^  c #E0E07B7B8181",
"/  c #B5B583835A5A",
"(  c #B5B58D8D6F6F",
")  c #BCBC9B9B7878",
"_  c #BFBFA6A67272",
"`  c #C4C4A0A07979",
"'  c #C5C5A2A27E7E",
"]  c #E5E58B8B7777",
"[  c #EAEA81817B7B",
"{  c #ECEC84847A7A",
"}  c #E9E9CBCB4B4B",
"|  c #EAEACECE5151",
" . c #E9E9D3D36666",
".. c #EDEDDCDC7F7F",
"X. c #88888A8A8C8C",
"o. c #9E9E9A9A9898",
"O. c #9D9D9D9D9D9D",
"+. c #A2A28C8C8181",
"@. c #A0A0A0A09999",
"#. c #A0A0A0A09E9E",
"$. c #BDBDA0A08686",
"%. c #A2A2A2A2A2A2",
"&. c #A5A5A5A5A5A5",
"*. c #83838484FCFC",
"=. c #8A8A8A8AFDFD",
"-. c #9A9A8686E9E9",
";. c #91919191FDFD",
":. c #95959595FDFD",
">. c #97979797FDFD",
",. c #9B9B9191F0F0",
"<. c #9A9A9A9AFDFD",
"1. c #9E9E9E9EFDFD",
"2. c #A1A1A1A1FEFE",
"3. c #A4A4A4A4FEFE",
"4. c #A7A7A6A6FEFE",
"5. c #A7A7A7A7FEFE",
"6. c #A8A8A8A8FFFF",
"7. c #A8A8A9A9FFFF",
"8. c #A9A9A9A9FFFF",
"9. c #B1B1A4A4F0F0",
"0. c #C6C69191BCBC",
"q. c #C3C3A7A78E8E",
"w. c #CECEB0B09595",
"e. c #D2D2B5B59E9E",
"r. c #E5E580808080",
"t. c #E8E88C8C8080",
"y. c #EBEB8C8C8181",
"u. c #E7E793939797",
"i. c #E9E993939191",
"p. c #EEEE96969494",
"a. c #F2F2A1A19A9A",
"s. c #F1F1ABAB9F9F",
"d. c #ECECB8B8B0B0",
"f. c #F3F3AFAFA7A7",
"g. c #F3F3AAAAA8A8",
"h. c #F4F4BBBBB2B2",
"j. c #EEEED9D98080",
"k. c #F0F0DEDE9393",
"l. c #F0F0E4E4AFAF",
"z. c #EDEDD6D6C5C5",
"x. c #E3E3DADAD3D3",
"c. c #F3F3C9C9C2C2",
"v. c #F8F8CFCFC7C7",
"b. c #F0F0D6D6CECE",
"n. c #E4E4E4E4C5C5",
"m. c #EAEAE0E0C2C2",
"M. c #E9E9E8E8C9C9",
"N. c #E8E8E9E9CFCF",
"B. c #F0F0E8E8C2C2",
"V. c #F9F9E4E4DCDC",
"C. c #E4E4E0E0E2E2",
"Z. c #F8F8F1F1E9E9",
"A. c #F4F4F4F4F0F0",
"S. c #F4F4F4F4F4F4",
"D. c #F6F6F6F6F6F6",
"F. c gray97",
"G. c #FAFAF1F1F0F0",
"H. c #F8F8F6F6F6F6",
"J. c #F8F8F8F8F8F8",
"K. c #F9F9F9F9F9F9",
"L. c gray98",
"P. c #FBFBFBFBFBFB",
"I. c None",
/* pixels */
"I.I.I.I.I.I.I.I.I.I.I.I.I.I.I.I.",
"I.I.I.I.I.I.I.I.I.I.I.I.I.I.I.I.",
"I.I.I.I.I.I.I.I.I.I.I.I.I.I.I.I.",
"9 8 8 8 7 1 1 1 1 1 1 : O X m Z ",
"7 8.8.8.4.2.1.<.:.,.0.u.i.g.v.+.",
"8 8.v x l j g E H K U h.z.q.) o ",
"8 4.x z Q ! P U f.Z.L.w.C M $.o.",
"6 9.~ ^ [ a.V.L.L.J.e./ ( N ` X.",
"0 p.{ f.Z.P.P.P.J...A.N.C.V ' O.",
"- -.W ^ L ] c.Z.D.D.l.j.M._ x.&.",
"1 <.d i s T K J t.b.S. .| } k.O.",
"1 ;.p u r r 9 q B A S ] m.n.B.%.",
"1 =.*.c z h f a p t R F J P d.@.",
": : : * * * & $ $ @ @ @ + . b n ",
"I.I.I.I.I.I.I.I.I.I.I.I.I.I.I.I.",
"I.I.I.I.I.I.I.I.I.I.I.I.I.I.I.I."
};
