/* XPM */
static char *AT_xpm[] = {
/* columns rows colors chars-per-pixel */
"16 16 60 1",
"  c #60C7179F14E9",
". c #755110DF0D4F",
"X c #7A5211110D5B",
"o c #7AD511200D63",
"O c #891309E7079B",
"+ c #836111C60DA3",
"@ c #925209A80783",
"# c #94E8364F3354",
"$ c #95AB3CC13B48",
"% c #B6A51FDB1A36",
"& c #CC2002580000",
"* c #C0CE1CA416CB",
"= c #D985029F0000",
"- c #DA3D02C00000",
"; c #DE5C0B9D07DE",
": c #E79304CC0000",
"> c #E86B04D20000",
", c #E8E010BB0AFE",
"< c #EAD933932EC0",
"1 c #ED3C3CB437EE",
"2 c #EB0240AB3A6E",
"3 c #DF77486B43B2",
"4 c #E0D85279504F",
"5 c #EED94CEF46DD",
"6 c #EE8C4CED47CD",
"7 c #EEBC4D5C47C7",
"8 c #EF154DF347E9",
"9 c #EF714DA74884",
"0 c #EFAA55674FA8",
"q c #EF3B55E75104",
"w c #F018580355D9",
"e c #F0BA60255DFD",
"r c #F1BF6DE86924",
"t c #F28E75D271E7",
"y c #F34B7E957CD7",
"u c #9E5A982B97C5",
"i c #9ED79AE39AD5",
"p c #9F269FDA9FDF",
"a c #F809AFA1ACE9",
"s c #D888CF84CF32",
"d c #D962CF8BCF2C",
"f c #DB21D164D10D",
"g c #E5F8D194D0E1",
"h c #FAD6CA0AC83A",
"j c #FB61CE66CCB5",
"k c #FB64CE84CCD5",
"l c #FB81D07CCEEF",
"z c #FBEED5D5D49D",
"x c #EEBDE4B9E424",
"c c #EF50E91CE905",
"v c #EFEDF0DAF0E1",
"b c #FEDDF41FF38A",
"n c #FEECF4B3F41E",
"m c #FFC9F502F46D",
"M c #FF26F6CCF652",
"N c #FF79F8DBF8C2",
"B c #FF7AF927F90E",
"V c #FF84FA8CFA78",
"C c #FFFFF9C1F9A8",
"Z c gray100",
/* pixels */
"ZZZZZZZZZZZZZZZZ",
"ZZZZZZZZZZZZZZZZ",
"zljjjjjjjjjjjlha",
"r07777777777771*",
"1,::::::::::::-@",
"tq7766666667763#",
"VVMVVNNNVVNNVVci",
"ZZZZZZZZZZZZZZvp",
"Mbbbbbbbbbbbbbxu",
"yewwwwwwwwwwwwq$",
"<;----------==&O",
"%+XXXXXXXXXX... ",
"gssssssssssssssd",
"ZZZZZZZZZZZZZZZZ",
"ZZZZZZZZZZZZZZZZ",
"ZZZZZZZZZZZZZZZZ"
};
