/* XPM */
static const char *AW_xpm[] = {
/* columns rows colors chars-per-pixel */
"16 16 171 2",
"   c black",
".  c #00001F1F8585",
"X  c #000023239191",
"o  c #000025259393",
"O  c #000029299595",
"+  c #00002D2D9595",
"@  c #00002D2D9797",
"#  c #000033338F8F",
"$  c #000031319999",
"%  c #000037379D9D",
"&  c #000039399191",
"*  c #00003F3F9393",
"=  c #00003B3BA1A1",
"-  c #00003F3FA3A3",
";  c #000045459797",
":  c #00004B4B9B9B",
">  c #00004D4D9D9D",
",  c #00004545A7A7",
"<  c #00004B4BABAB",
"1  c #00005151ADAD",
"2  c #00005D5DA7A7",
"3  c #00005555B1B1",
"4  c #00005B5BB5B5",
"5  c #00006161A9A9",
"6  c #00006363ABAB",
"7  c #00006767AFAF",
"8  c #00006161B7B7",
"9  c #00006D6DB1B1",
"0  c #00006D6DB5B5",
"q  c #00006F6FBFBF",
"w  c #00007171B3B3",
"e  c #00007575B7B7",
"r  c #00007979B9B9",
"t  c #00007D7DBDBD",
"y  c #00007D7DBFBF",
"u  c #05058181BDBD",
"i  c #07078181C1C1",
"p  c #0B0B8383C1C1",
"a  c #0D0D8787C1C1",
"s  c #0F0F8787C3C3",
"d  c #0F0F8989C3C3",
"f  c #0F0F8B8BC5C5",
"g  c #11118989C5C5",
"h  c #15158B8BC5C5",
"j  c #19199191C9C9",
"k  c #1D1D9191C9C9",
"l  c #21219191C7C7",
"z  c #36369494C4C4",
"x  c #3A3A9696C6C6",
"c  c #3E3E9898C7C7",
"v  c #3F3F9999C8C8",
"b  c #43439B9BC9C9",
"n  c #44449B9BC9C9",
"m  c #45459B9BC9C9",
"M  c #47479E9ECBCB",
"N  c #48489E9ECBCB",
"B  c #49499E9ECBCB",
"V  c #4B4B9F9FCACA",
"C  c #4C4CA1A1CDCD",
"Z  c #4D4DA1A1CDCD",
"A  c #4E4EA1A1CCCC",
"S  c #4F4FA2A2CCCC",
"D  c #5050A2A2CCCC",
"F  c #5151A3A3CFCF",
"G  c #5151A4A4CFCF",
"H  c #5353A4A4CECE",
"J  c #5555A3A3CCCC",
"K  c #5454A5A5CECE",
"L  c #5555A6A6CECE",
"P  c #5B5BA7A7CFCF",
"I  c #5858A8A8CFCF",
"U  c #5454A6A6D1D1",
"Y  c #5656A7A7D1D1",
"T  c #5757A7A7D0D0",
"R  c #5959A8A8D0D0",
"E  c #5959A9A9D0D0",
"W  c #5959A9A9D3D3",
"Q  c #5B5BAAAAD3D3",
"!  c #5C5CAAAAD2D2",
"~  c #5F5FA9A9D0D0",
"^  c #5E5EABABD1D1",
"/  c #5E5EABABD2D2",
"(  c #5E5EABABD4D4",
")  c #6262AEAED3D3",
"_  c #6060ACACD4D4",
"`  c #6161ADADD4D4",
"'  c #6363AEAED4D4",
"]  c #6262AEAED6D6",
"[  c #6363AFAFD6D6",
"{  c #6464ADADD2D2",
"}  c #6464AFAFD6D6",
"|  c #6868AFAFD3D3",
" . c #6666B0B0D5D5",
".. c #6767B0B0D5D5",
"X. c #6767B1B1D5D5",
"o. c #6767B1B1D8D8",
"O. c #6969B2B2D7D7",
"+. c #6A6AB3B3D7D7",
"@. c #6B6BB3B3D7D7",
"#. c #6C6CB2B2D5D5",
"$. c #6868B1B1D8D8",
"%. c #6D6DB4B4D9D9",
"&. c #6C6CB4B4DADA",
"*. c #6E6EB5B5D8D8",
"=. c #6E6EB6B6D8D8",
"-. c #6F6FB6B6D8D8",
";. c #7070B4B4D7D7",
":. c #7070B6B6DBDB",
">. c #7171B6B6DBDB",
",. c #7272B7B7DADA",
"<. c #7373B7B7DADA",
"1. c #7575B7B7D8D8",
"2. c #7676BABADBDB",
"3. c #7474B9B9DCDC",
"4. c #7575BABADCDC",
"5. c #7676BABADCDC",
"6. c #7979B9B9D9D9",
"7. c #7C7CBBBBDBDB",
"8. c #7E7EBBBBDADA",
"9. c #7D7DBFBFDFDF",
"0. c #7B7BBFBFE0E0",
"q. c #E2E26D6D6D6D",
"w. c #E3E371717171",
"e. c #DDDDAFAF0000",
"r. c #DFDFB3B30000",
"t. c #F7F7D5D50000",
"y. c #FBFBDBDB0000",
"u. c #F2F2DBDB2727",
"i. c #F2F2DCDC2C2C",
"p. c #F3F3DEDE2F2F",
"a. c #F4F4DFDF3434",
"s. c #F5F5E1E13939",
"d. c #F6F6E2E23E3E",
"f. c #F2F2DDDD4040",
"g. c #F2F2DFDF4242",
"h. c #F2F2DFDF4646",
"j. c #F3F3DFDF4646",
"k. c #F7F7E3E34343",
"l. c #F3F3E1E14949",
"z. c #F4F4E2E24B4B",
"x. c #F8F8E5E54848",
"c. c #F9F9E6E64D4D",
"v. c #F5F5E3E35050",
"b. c #F6F6E3E35454",
"n. c #F7F7E5E55858",
"m. c #F7F7E6E65C5C",
"M. c #FAFAE8E85252",
"N. c #FBFBE9E95757",
"B. c #FBFBEAEA5C5C",
"V. c #F8F8E8E86161",
"C. c #F9F9E9E96565",
"Z. c #F9F9EAEA6969",
"A. c #FAFAEBEB6E6E",
"S. c #FBFBEDED7272",
"D. c #FCFCEEEE7A7A",
"F. c #8080BEBEDDDD",
"G. c #8383BFBFDFDF",
"H. c #8484C0C0DDDD",
"J. c #8787C2C2DFDF",
"K. c #9D9DC4C4DDDD",
"L. c #9F9FC4C4DCDC",
"P. c #8A8AC3C3E0E0",
"I. c #8A8AC3C3E2E2",
"U. c #8D8DC5C5E2E2",
"Y. c #8E8EC6C6E2E2",
"T. c #8F8FC7C7E2E2",
"R. c #9191C8C8E3E3",
"E. c #9191C8C8E4E4",
"W. c #9999C8C8E1E1",
"Q. c #E8E889898989",
"!. c None",
/* pixels */
"!.!.!.!.!.!.!.!.!.!.!.!.!.!.!.!.",
"!.!.!.!.!.!.!.!.!.!.!.!.!.!.!.!.",
"!.!.!.!.!.!.!.!.!.!.!.!.!.!.!.!.",
"l h j g d p u t r e w 9 9 5 2 5 ",
"d L.Q.W.E.T.U.P.J.H.F.7.6.1.;.> ",
"k Q.w.q.0.3.<.-.@. .' ^ R K #.: ",
"f L.q.8.3.<.-.+. .' ^ T K D | ; ",
"a R.9.3.<.-.+. .) ^ P K S V { * ",
"i E.3.&.-.+.' ' ^ Y F S M m ^ & ",
"y U.&.&.o.[ ( ^ Y F S M b c P # ",
"y.D.B.N.M.c.z.k.d.s.a.p.i.u.j.r.",
"0 G.o.' ( W U U S M b c x z J . ",
"t.S.S.Z.C.V.m.n.b.v.l.l.j.g.g.e.",
"q 4 4 3 1 < , - = % $ @ O o X O ",
"!.!.!.!.!.!.!.!.!.!.!.!.!.!.!.!.",
"!.!.!.!.!.!.!.!.!.!.!.!.!.!.!.!."
};
