/* XPM */
static char *AW_png[] = {
/* columns rows colors chars-per-pixel */
"16 16 85 1",
"  c #50135DCB637B",
". c #5E90714F78AB",
"X c #632A76407E35",
"o c #636876957E8A",
"O c #69B27E728791",
"+ c #75F88A8C6266",
"@ c #76D38E44841C",
"# c #734C8C0295CA",
"$ c #73088BEE9731",
"% c #74788D209736",
"& c #EFA150E73755",
"* c #F45140BE2391",
"= c #DF897ED872AB",
"- c #E76067ED54FA",
"; c #826396424D6E",
": c #C1DBE1C66D55",
"> c #CF21F10A74D4",
", c #D12DF17C7B36",
"< c #95D9B0AEBE71",
"1 c #9BE6BA1CC67E",
"2 c #ADCCCE8F8E7C",
"3 c #B9B7DC3697C3",
"4 c #B9E5DC4C981F",
"5 c #BA85DD1198AB",
"6 c #BE99E0EF9F36",
"7 c #AA7ED0BCE095",
"8 c #AFABD48AC4B3",
"9 c #A9EDD098E2DD",
"0 c #AB86D222E21D",
"q c #B7EDDC4BEEE7",
"w c #B5B3DED0EFE7",
"e c #B5AFDED8EFEF",
"r c #B5BCDED7EFD3",
"t c #B54BDFA6F0D6",
"y c #B5BBDEDEEFDE",
"u c #B655DF75F028",
"i c #B5F6DFFDF0A3",
"p c #B6F7E02DF0D5",
"a c #B7C3DF36EFAA",
"s c #BB5ED933E71D",
"d c #B972DE21ED48",
"f c #B51EDEAFF237",
"g c #B5EDDDD2F158",
"h c #B4FBDEFCF2D4",
"j c #B52DDFE7F124",
"k c #B5CCDF78F319",
"l c #B8E0E03BF2E0",
"z c #BB48E2DAD23F",
"x c #BB63E303D22B",
"c c #BB37E340D2DE",
"v c #BC18E3D1D2EA",
"b c #BECEE41BD43C",
"n c #B82FE4BCF620",
"m c #D887927E8B7D",
"M c #D5509BC996F5",
"N c #CFACAAB4AA36",
"B c #DA0DF3B893FA",
"V c #CEE5ECAFB8B5",
"C c #C36DC4E4CCDC",
"Z c #CA25C285C474",
"A c #C4D6CE74D6DA",
"S c #DB78C840C931",
"D c #D676D83ED8C0",
"F c #D69ED86BD8F5",
"G c #D726D90FD9A8",
"H c #D8ECDAD0DB6A",
"J c #D0E4DD6EE5C7",
"K c #CAF7E95BDCC6",
"L c #C4A4E447F111",
"P c #C6E6E651F36D",
"I c #C65BE66AF550",
"U c #C6D2E867F5AF",
"Y c #C67EE915F62D",
"T c #CA4BE830F423",
"R c #CA9CEAB9F730",
"E c #CBADEC30F914",
"W c #D466EC2BF63A",
"Q c #E1BDE54CE6A2",
"! c #E7CEF549FAC4",
"~ c #EFEAF8F3FC95",
"^ c #F159F94DFCA5",
"/ c #F116FA4EFDF6",
"( c #F0FDFBA1FF5B",
") c #F36EFA54FD29",
"_ c gray100",
/* pixels */
"________________",
"________________",
"////^^^^^^^^^^~!",
"WEJSUTTTTTTPTTL1",
"UA=&Ndktttttyk0%",
"UZ-*mstyyyyyyy7%",
"PnCMakgtyyyyyk7#",
"Ilgdgggkgykggg0#",
"Kbxxxxxxxxvxxv8@",
"B,>>>>>>>>>>>>:;",
"V53333333333352+",
"1OXXXXXXXXXXXX. ",
"QFFFDDDDDDDGGGGG",
"________________",
"________________",
"________________"
};
