/* XPM */
static const char *AX_xpm[] = {
/* columns rows colors chars-per-pixel */
"16 16 174 2",
"   c black",
".  c #000000004747",
"X  c #000000004B4B",
"o  c #000000004D4D",
"O  c #000000004F4F",
"+  c #000000005555",
"@  c #000000005B5B",
"#  c #000000006161",
"$  c #000000006565",
"%  c #000000006767",
"&  c #000000006969",
"*  c #000000007575",
"=  c #000000007B7B",
"-  c #000007078989",
";  c #000009098787",
":  c #00000B0B8989",
">  c #000011118F8F",
",  c #000017178F8F",
"<  c #000021219595",
"1  c #00002B2B9B9B",
"2  c #000033339F9F",
"3  c #00003333A1A1",
"4  c #00003535A1A1",
"5  c #00003D3DA5A5",
"6  c #00004343ABAB",
"7  c #00004545AFAF",
"8  c #01014B4BA5A5",
"9  c #0B0B5353A9A9",
"0  c #1A1A5959ABAB",
"q  c #1F1F6363BBBB",
"w  c #1D1D6161BDBD",
"e  c #1F1F6161BDBD",
"r  c #1F1F6363BDBD",
"t  c #21215D5DAEAE",
"y  c #25256060ABAB",
"u  c #2C2C6565AEAE",
"i  c #23236565B7B7",
"p  c #27276262B1B1",
"a  c #25256969BBBB",
"s  c #27276969BDBD",
"d  c #2D2D6767B4B4",
"f  c #32326A6AB1B1",
"g  c #37376F6FB0B0",
"h  c #35356D6DB7B7",
"j  c #39396F6FB5B5",
"k  c #3B3B6D6DBFBF",
"l  c #3B3B7272B3B3",
"z  c #3B3B7070B7B7",
"x  c #3F3F7575B4B4",
"c  c #44447575B6B6",
"v  c #41417575B9B9",
"b  c #46467979B7B7",
"n  c #45457A7AB8B8",
"m  c #47477A7ABCBC",
"M  c #48487A7ABDBD",
"N  c #4A4A7E7EBABA",
"B  c #4C4C7F7FBBBB",
"V  c #48487B7BC0C0",
"C  c #4C4C7E7EC1C1",
"Z  c #4F4F8181BDBD",
"A  c #53538484BFBF",
"S  c #4F4F8181C3C3",
"D  c #55558383C3C3",
"F  c #56568686C7C7",
"G  c #5B5B8A8AC2C2",
"H  c #5E5E8A8AC0C0",
"J  c #5F5F8A8AC3C3",
"K  c #5E5E8B8BCACA",
"L  c #5E5E8C8CC8C8",
"P  c #5F5F8F8FCBCB",
"I  c #62628F8FC5C5",
"U  c #65659393C8C8",
"Y  c #64649191CDCD",
"T  c #67679292CFCF",
"R  c #68689292C9C9",
"E  c #6C6C9898CBCB",
"W  c #6F6F9898C9C9",
"Q  c #6A6A9292D3D3",
"!  c #75759B9BC7C7",
"~  c #72729C9CCDCD",
"^  c #74749C9CCCCC",
"/  c #74749D9DCFCF",
"(  c #78789F9FCDCD",
")  c #7878A0A0D0D0",
"_  c #7979A1A1D3D3",
"`  c #7E7EA5A5D3D3",
"'  c #7F7FA5A5D3D3",
"]  c #D3D300000000",
"[  c #E1E100000000",
"{  c #FDFD13130909",
"}  c #FDFD1D1D0F0F",
"|  c #ECEC2C2C2525",
" . c #EEEE34342C2C",
".. c #EFEF3B3B3333",
"X. c #CBCB59590000",
"o. c #CFCF6B6B0000",
"O. c #DDDD6F6F0000",
"+. c #F1F143433C3C",
"@. c #EDED4A4A4242",
"#. c #F3F349494343",
"$. c #F4F451514A4A",
"%. c #F4F453534848",
"&. c #F5F55A5A5050",
"*. c #F6F658585252",
"=. c #F7F75C5C5959",
"-. c #F7F75D5D5959",
";. c #F4F468685F5F",
":. c #F9F960606060",
">. c #FAFA6A6A6666",
",. c #FAFA6C6C6868",
"<. c #FBFB73736E6E",
"1. c #FBFB77776F6F",
"2. c #FCFC78787373",
"3. c #FCFC7D7D7575",
"4. c #CFCF8D8D0000",
"5. c #FBFBAFAF1515",
"6. c #F7F7B1B11111",
"7. c #E8E8AFAF3131",
"8. c #EAEAB2B23737",
"9. c #ECECB6B63F3F",
"0. c #F9F9BBBB2323",
"q. c #EAEAB9B94040",
"w. c #EDEDBABA4545",
"e. c #EBEBBABA4D4D",
"r. c #EDEDBCBC4848",
"t. c #F0F0BDBD4C4C",
"y. c #F2F2BCBC5151",
"u. c #F6F6BABA6060",
"i. c #EFEFC1C12D2D",
"p. c #EFEFC0C04E4E",
"a. c #EDEDC1C15A5A",
"s. c #F0F0C3C35555",
"d. c #F2F2C0C05454",
"f. c #F3F3C6C65A5A",
"g. c #F2F2C6C65C5C",
"h. c #F4F4C2C25959",
"j. c #EBEBCBCB6666",
"k. c #EDEDD1D17979",
"l. c #F2F2C3C36767",
"z. c #F3F3C9C96363",
"x. c #F6F6CFCF6A6A",
"c. c #F9F9C4C46F6F",
"v. c #F9F9CBCB6E6E",
"b. c #FAFACECE7676",
"n. c #F0F0D2D26B6B",
"m. c #F8F8D0D07474",
"M. c #FAFAD2D27B7B",
"N. c #FBFBD3D37B7B",
"B. c #FBFBD0D07C7C",
"V. c #8383A9A9D5D5",
"C. c #8686AAAAD5D5",
"Z. c #8484A9A9D8D8",
"A. c #8686ABABDADA",
"S. c #8888AAAADADA",
"D. c #8989ACACD8D8",
"F. c #8989ACACDDDD",
"G. c #8F8FB0B0D8D8",
"H. c #9393B3B3D7D7",
"J. c #9F9FBCBCDFDF",
"K. c #9C9CBABAE2E2",
"L. c #9E9EBCBCE2E2",
"P. c #9E9EBCBCE3E3",
"I. c #9E9EBDBDE2E2",
"U. c #FCFC92928E8E",
"Y. c #FDFD96968F8F",
"T. c #F5F5DCDC8585",
"R. c #F5F5DBDB8B8B",
"E. c #FBFBD8D88181",
"W. c #FBFBD9D98787",
"Q. c #FCFCDBDB9494",
"!. c #FCFCDADA9696",
"~. c #FCFCE1E19D9D",
"^. c #F7F7E2E2A2A2",
"/. c None",
/* pixels */
"/./././././././././././././././.",
"/./././././././././././././././.",
"/./././././././././././././././.",
"s i w w i.} 5.9 6 5 3 1 < , : ; ",
"s P.P.K.^.Y.!.H.A.V.` ) ~ E U = ",
"w P.F.A.R.3.N./ Q Y L F D V L * ",
"i J.D.C.T.1.b.! U I H D N b H $ ",
"0.~.W.E.N.,.c.x.z.g.s.p.r.q.a.o.",
"{ U.2.1.>.:.=.*.$.#.+... .| @.] ",
"6.!.M.m.v.=.u.f.y.t.w.q.8.7.e.X.",
"8 G.^ W n.*.h.C M v z f u y c O ",
"7 V.T P j.%.y.m k h d p t 0 j O ",
"4 ` _ ~ k.;.l.J D Z N n c l g . ",
"2 < > : 4.[ O.$ & # @ + O X . O ",
"/./././././././././././././././.",
"/./././././././././././././././."
};
