/* XPM */
static char *AZ_png[] = {
/* columns rows colors chars-per-pixel */
"16 16 86 1",
"  c #1F8D4DA11F82",
". c #1C095B051BF5",
"X c #1CBC5F3B1CA8",
"o c #1CCA5F731CB6",
"O c #1E80658C1E6D",
"+ c #195169BB1A79",
"@ c #281A67B81B8E",
"# c #1D754E117BDC",
"$ c #42DD3EEC5BF1",
"% c #228E6EC8B698",
"& c #350D6BA0A1CE",
"* c #2604757BC16C",
"= c #25F77644C24E",
"- c #262476C5C30C",
"; c #30AB7CD2C538",
": c #5C815661846F",
"> c #624D5BE78D0B",
", c #62AB5C408D4F",
"< c #62DC5CB78DBC",
"1 c #62AB5E2E8ECF",
"2 c #62AB62DA93AA",
"3 c #6A3F640292D3",
"4 c #1AEA9A631CE9",
"5 c #1C96A4891E9F",
"6 c #1CBFA5271ECC",
"7 c #31F097521DC2",
"8 c #3539A0471E9F",
"9 c #30708F1D3062",
"0 c #34BDA1011F02",
"q c #3539A12A1F8E",
"w c #3570A1D01FAA",
"e c #2580AA54276B",
"r c #3F11A5EB2A5D",
"t c #49BBBDB34B42",
"y c #63A5B6B352BB",
"u c #56C69524D00D",
"i c #59D19273CAD7",
"p c #65349A47CFF7",
"a c #65C59ABED044",
"s c #6C429F32D240",
"d c #983D1D821419",
"f c #9C961AEF11A9",
"g c #88C127B213DA",
"h c #CC5A3170117A",
"j c #DA14342611F9",
"k c #DA2D345511FF",
"l c #DA2D349D127B",
"z c #DAF634D7129F",
"x c #DA2D395D1713",
"c c #DBF63E7C1E02",
"v c #EBE81D3D0E53",
"b c #FBBB1DCE0DD7",
"n c #FBB71EA30EAF",
"m c #FBBB1F040F1B",
"M c #FBBB1F280F44",
"N c #FCA21F4E0F56",
"B c #FBBB201C1077",
"V c #E4C520E4120E",
"C c #F42A228512BE",
"Z c #F43422DF1353",
"A c #F514232F1365",
"S c #F43429601A62",
"D c #F4C92D8E1E99",
"F c #FBF229FE1ADC",
"G c #FBBB39C72A54",
"H c #DA2D54443301",
"J c #DA2D58A03772",
"K c #F43442C1343B",
"L c #F4344C113D97",
"P c #FBBB418332B5",
"I c #F70B55054924",
"U c #FCC95250460A",
"Y c #E2CD62FB48A1",
"T c #FBBB607752AB",
"R c #863B818AA753",
"E c #8184AD10D8F6",
"W c #BA63D25BEA8C",
"Q c #D073D630D073",
"! c #D268D88FD268",
"~ c #D3D5E092D3D5",
"^ c #D150E163F1AE",
"/ c #D534E3DFF293",
"( c #D570E402F2A3",
") c #D6BBE521F34C",
"_ c #DB81E814F4A9",
"` c gray100",
/* pixels */
"````````````````",
"````````````````",
"_)////////////^W",
"Espppppappppppi&",
"u;============%#",
"R3><<<,<2<>>><:$",
"IDCZCCZLKSZZZZVd",
"UFnnnnATPGNNNNvf",
"YcjjjjjJHxjjjjhg",
"yr00000088r8807@",
"te5555555555554+",
"9OXXXXXXooooXX. ",
"~QQQQQQQQQQQQQQQ",
"````````````````",
"````````````````",
"````````````````"
};
