/* XPM */
static const char *BB_xpm[] = {
/* columns rows colors chars-per-pixel */
"16 16 162 2",
"   c black",
".  c #000000001F1F",
"X  c #000000002121",
"o  c #000000002525",
"O  c #000000002B2B",
"+  c #000000002F2F",
"@  c #000000003131",
"#  c #000000003535",
"$  c #000000003939",
"%  c #000000003B3B",
"&  c #000000004141",
"*  c #000000004747",
"=  c #000000004D4D",
"-  c #000000005353",
";  c #000000005959",
":  c #000000005D5D",
">  c #000000005F5F",
",  c #000000006363",
"<  c #000000006767",
"1  c #000000006969",
"2  c #000000006F6F",
"3  c #000000007373",
"4  c #000000007777",
"5  c #000000007B7B",
"6  c #000000007D7D",
"7  c #000000007F7F",
"8  c #000003037F7F",
"9  c #727265652F2F",
"0  c #747466662A2A",
"q  c #7C7C6E6E3535",
"w  c #7D7D6F6F3636",
"e  c #7F7F71713636",
"r  c #000003038181",
"t  c #0B0B39399595",
"y  c #0F0F3C3C9797",
"u  c #10103D3D9797",
"i  c #13133D3D9C9C",
"p  c #141441419999",
"a  c #141441419A9A",
"s  c #191942429F9F",
"d  c #191945459C9C",
"f  c #1A1A46469D9D",
"g  c #1F1F4A4A9F9F",
"h  c #1F1F4747A2A2",
"j  c #20204B4B9F9F",
"k  c #25254F4FA2A2",
"l  c #25254C4CA5A5",
"z  c #26265050A2A2",
"x  c #2B2B5454A5A5",
"c  c #2C2C5353A2A2",
"v  c #2C2C5454A6A6",
"b  c #2F2F5555A4A4",
"n  c #2F2F5656A4A4",
"m  c #2B2B5252A8A8",
"M  c #31315757ABAB",
"N  c #32325858A6A6",
"B  c #33335959A6A6",
"V  c #31315959A9A9",
"C  c #35355959A9A9",
"Z  c #36365C5CA8A8",
"A  c #37375C5CAEAE",
"S  c #3A3A5C5CB0B0",
"D  c #3B3B6060AAAA",
"F  c #3F3F6464ADAD",
"G  c #3F3F6363B0B0",
"H  c #44446868AFAF",
"J  c #40406161B3B3",
"K  c #45456666B6B6",
"L  c #44446969B1B1",
"P  c #45456868B2B2",
"I  c #49496C6CB1B1",
"U  c #49496D6DB4B4",
"Y  c #49496D6DB5B5",
"T  c #4B4B6A6AB8B8",
"R  c #4E4E7070B4B4",
"E  c #4F4F7171B7B7",
"W  c #4F4F7171B8B8",
"Q  c #50506F6FBBBB",
"!  c #53537575B7B7",
"~  c #53537676B9B9",
"^  c #54547171BABA",
"/  c #54547373BDBD",
"(  c #54547575BABA",
")  c #59597676BFBF",
"_  c #58587878B9B9",
"`  c #58587878BABA",
"'  c #58587979BCBC",
"]  c #5C5C7A7ABEBE",
"[  c #5D5D7D7DBCBC",
"{  c #5C5C7C7CBEBE",
"}  c #5F5F7F7FBFBF",
"|  c #61618080BEBE",
" . c #66668484C0C0",
".. c #6A6A8888C3C3",
"X. c #6F6F8B8BC4C4",
"o. c #72728E8EC6C6",
"O. c #77778F8FCBCB",
"+. c #76769191C8C8",
"@. c #79799393C9C9",
"#. c #79799494C9C9",
"$. c #7B7B9595C9C9",
"%. c #7B7B9595CACA",
"&. c #8C8C7A7A2F2F",
"*. c #828274743B3B",
"=. c #818174743C3C",
"-. c #868678783C3C",
";. c #89897B7B4141",
":. c #88887B7B4646",
">. c #AEAE94943030",
",. c #8C8C80804B4B",
"<. c #B9B99F9F4040",
"1. c #E7E793930000",
"2. c #E5E59F9F0000",
"3. c #E9E999990000",
"4. c #E3E3A3A30000",
"5. c #EBEBA9A90000",
"6. c #EDEDB3B30000",
"7. c #FBFBB9B90000",
"8. c #FDFDBDBD0000",
"9. c #DADABCBC4242",
"0. c #DBDBBEBE4747",
"q. c #F7F7C5C50000",
"w. c #F9F9C3C30000",
"e. c #FDFDCFCF0000",
"r. c #F3F3D4D41919",
"t. c #F4F4D0D01E1E",
"y. c #F4F4D6D61F1F",
"u. c #F5F5CCCC2323",
"i. c #F6F6CECE2929",
"p. c #F5F5D6D62424",
"a. c #F6F6D1D12A2A",
"s. c #F7F7D6D62E2E",
"d. c #F5F5D8D82424",
"f. c #F6F6D9D92B2B",
"g. c #F5F5D6D63D3D",
"h. c #F7F7DBDB3030",
"j. c #F4F4DADA3939",
"k. c #F8F8DBDB3434",
"l. c #F8F8DCDC3434",
"z. c #F8F8DEDE3636",
"x. c #F9F9D8D83A3A",
"c. c #F9F9DEDE3A3A",
"v. c #F9F9DFDF3D3D",
"b. c #F6F6D2D24242",
"n. c #F7F7D3D34646",
"m. c #F7F7DBDB4B4B",
"M. c #FBFBDBDB4747",
"N. c #FCFCDCDC4C4C",
"B. c #FCFCDFDF6969",
"V. c #FAFAE0E04040",
"C. c #FAFAE0E04242",
"Z. c #FBFBE1E14646",
"A. c #FCFCE3E34B4B",
"S. c #F8F8E1E15050",
"D. c #FDFDE4E45151",
"F. c #FDFDE5E55454",
"G. c #FBFBE6E66060",
"H. c #FCFCE2E26565",
"J. c #FDFDE0E06D6D",
"K. c #FDFDE6E67171",
"L. c #FEFEEBEB7474",
"P. c None",
/* pixels */
"P.P.P.P.P.P.P.P.P.P.P.P.P.P.P.P.",
"P.P.P.P.P.P.P.P.P.P.P.P.P.P.P.P.",
"P.P.P.P.P.P.P.P.P.P.P.P.P.P.P.P.",
"r r r r 8 e.e.8.7.w.q.2 : ; - = ",
"r %.%.@.O.L.K.J.H.H.G.' ` ! R * ",
"r %.} { ) F.D.N.M.M.v.A V v I & ",
"8 %.{ ' / D.,.0.9.=.l.M x k H % ",
"8 o.` ( Q A.:.;.-.w h.x k g H # ",
"5 o.~ W U M.<.*.*.>.f.l g d D + ",
"4 X.W U P M.x.w 9 i.d.h d p Z O ",
"3 ..U P J c.k.&.0 p.y.s p u B o ",
"2  .L L S l.s.i.u.t.r.i u t v X ",
"1 } { ` ^ S.m.n.b.g.j.Z B v c . ",
", < , : : 6.5.3.1.2.4.% @ X . . ",
"P.P.P.P.P.P.P.P.P.P.P.P.P.P.P.P.",
"P.P.P.P.P.P.P.P.P.P.P.P.P.P.P.P."
};
