/* XPM */
static char *BF_png[] = {
/* columns rows colors chars-per-pixel */
"16 16 93 2",
"   c #1F824DA81F82",
".  c #1BF55B0F1BF5",
"X  c #1CAD5F461CA8",
"o  c #1CB65F7D1CB6",
"O  c #1E6D65961E6D",
"+  c #1A7169051A71",
"@  c #1C666F321C2E",
"#  c #17F1714C1C4D",
"$  c #4B554F461A9E",
"%  c #6A6E70A21C20",
"&  c #704A77E61DFD",
"*  c #6EF679051E10",
"=  c #714D780D1D82",
"-  c #71B178461E0B",
";  c #721178D31E2E",
":  c #78797ED028F3",
">  c #1CDA994E1CDA",
",  c #1895A7041F62",
"<  c #1C3BA2E71E94",
"1  c #1DC2A3341E99",
"2  c #1E8DA36B1E8B",
"3  c #1EBBA4081EBB",
"4  c #1F89A3491F32",
"5  c #1752B121216B",
"6  c #19CBB20F2106",
"7  c #1948B1FE218A",
"8  c #1A60B23C218C",
"9  c #1A75B2E721B2",
"0  c #30628F253062",
"q  c #210EADEE20B2",
"w  c #20BFADDD2139",
"e  c #219BAE1B213A",
"r  c #21BAAEC3215E",
"t  c #275BA93C275B",
"y  c #2601B32D2189",
"u  c #2548B6192C34",
"i  c #2CBCB142218B",
"p  c #2C53B2362BFB",
"a  c #3B82B5B82236",
"s  c #3DB0B9372239",
"d  c #76AC94C92002",
"f  c #4B34BCE24B34",
"g  c #4E76C3F9540B",
"h  c #5460C0CB5419",
"j  c #9A131B7E16D0",
"k  c #9BE61BB11642",
"l  c #CCA02F1D286B",
"z  c #E7391D551642",
"x  c #E89D1ED4167E",
"c  c #E9BD1F9D1737",
"v  c #F6BF1EE31746",
"b  c #F6B61F8217DB",
"n  c #F7A81F9117F2",
"m  c #F83A1E9B17DF",
"M  c #F8251F3B17F2",
"N  c #F83E20D917EA",
"B  c #F7FA21931A60",
"V  c #F7F5227919D9",
"C  c #F81423081A6F",
"Z  c #F72727BF18A1",
"A  c #F8A62A8A1907",
"S  c #F9202116181B",
"D  c #F7FE30341969",
"F  c #F7F736C119D9",
"G  c #F7302A382318",
"H  c #F8872B9A234B",
"J  c #F8462DA52525",
"K  c #F9466B0B1E7F",
"L  c #F88E7DAB2039",
"P  c #F75553A94CED",
"I  c #F8E652594C96",
"U  c #F9FC53684CBB",
"Y  c #F9C554554D5D",
"T  c #FA015ED05806",
"R  c #FA065F345871",
"E  c #FA3E5FBC590B",
"W  c #FA5366A76000",
"Q  c #FB4B7CC57765",
"!  c #8E0E9E68210F",
"~  c #923C96F75171",
"^  c #97A2CFE0257D",
"/  c #B04DD6582690",
"(  c #D6F3CF3B266C",
")  c #F235DAA827F1",
"_  c #FD4CB7A3B4E4",
"`  c #D073D630D073",
"'  c #D268D88FD268",
"]  c #D3D5E092D3D5",
"[  c #FE68CF7FCD9C",
"{  c #FE51D38AD16E",
"}  c #FE71D566D36D",
"|  c #FEC6DA49D8AD",
" . c gray100",
/* pixels */
" . . . . . . . . . . . . . . . .",
" . . . . . . . . . . . . . . . .",
"| } { { { { { { { { { { { { [ _ ",
"Q W T R R R R R R R R R R R P l ",
"U J V V V V Z B B B B B B V c k ",
"U H v B N N N A F N N N B N x k ",
"U G v b N N Z K L A B v b v x j ",
"~ : = - - & d ( ) ! & - - - % $ ",
"g u 9 9 9 9 y ^ / s 5 5 5 9 , # ",
"h p r 3 y 3 i a i i w y r r 4 @ ",
"f t 2 2 < 1 2 < < < 1 1 2 2 > + ",
"0 O O . o o O . O . o . . O .   ",
"] ` ` ` ` ` ` ` ` ` ` ` ` ` ` ' ",
" . . . . . . . . . . . . . . . .",
" . . . . . . . . . . . . . . . .",
" . . . . . . . . . . . . . . . ."
};
