/* XPM */
static char *BG_xpm[] = {
/* columns rows colors chars-per-pixel */
"16 16 56 1",
"  c #19A36FCE1B89",
". c #1ED96FC71EC9",
"X c #325661111ACE",
"o c #7C871F7C1807",
"O c #65DE22261CAF",
"+ c #1AD6A47A1E37",
"@ c #1C17AF3E1FCA",
"# c #1CA1AF692051",
"$ c #1CC1B0132076",
"% c #2328A4932308",
"& c #24F3AF5124D0",
"* c #2577AF7C2554",
"= c #25A0B026257C",
"- c #2787B3682B08",
"; c #2FFDB37D2FDB",
": c #42288CDC1D0E",
"> c #461095EC1E6F",
", c #467D96271EF9",
"< c #46C496B71F1B",
"1 c #4F639B3829DF",
"2 c #7A2B91657A2B",
"3 c #70C0AE2B5254",
"4 c #5055C1D9530E",
"5 c #571BC1BB5702",
"6 c #93681E451564",
"7 c #825020C2189C",
"8 c #82A720CD18A6",
"9 c #8B51228519A7",
"0 c #912226E51734",
"q c #DC9122E614C5",
"w c #D967303D1716",
"e c #C13E36322A67",
"r c #EB3124E11603",
"t c #EB42255B168C",
"y c #EC132581169B",
"u c #EF952DD11EEA",
"i c #E7F832E0181B",
"p c #E818335F18B0",
"a c #E9053D3E2406",
"s c #F9D651454438",
"d c #ECDB622F4DC6",
"f c #A2C7A18AA2C7",
"g c #B4ECD9F3B4EC",
"h c #D928D0BFD024",
"j c #DA0ED0ECD036",
"k c #D26FD26ED26F",
"l c #DBD0D2BFD213",
"z c #C111E8B1C111",
"x c #C1C6E98CC1C6",
"c c #C415E9E2C415",
"v c #CF57EDE9CF57",
"b c #E76AD4A5D306",
"n c #F2B8F233F2B8",
"m c #FD7BFD7BFD7B",
"M c #FFB9FFB9FFB9",
"N c gray100",
/* pixels */
"NNNNNNNNNNNNNNNN",
"NNNNNNNNNNNNNNNN",
"NNNNNNNNNNNNNNNN",
"NNNNNNNNNNNNNNNk",
"NNNNNNNNNNNNNNnf",
"vczzzzzzzzzzzzg2",
"5;&&&&&&&&&&&&%.",
"4-@##########@+ ",
"31><<<<<<<<<<<:X",
"dappppppppppppw0",
"surrrrttttttttq6",
"e9777777888877oO",
"bhhhhhhhhhhhhhhl",
"NNNNNNNNNNNNNNNN",
"NNNNNNNNNNNNNNNN",
"NNNNNNNNNNNNNNNN"
};
