/* XPM */
static const char *BG_xpm[] = {
/* columns rows colors chars-per-pixel */
"16 16 144 2",
"   c black",
".  c #00003B3B0000",
"X  c #00003D3D0000",
"o  c #00003F3F0000",
"O  c #000049490000",
"+  c #454576761010",
"@  c #49497A7A1414",
"#  c #4D4D7C7C1919",
"$  c #52527F7F1F1F",
"%  c #000083830000",
"&  c #000085850000",
"*  c #14149E9E1414",
"=  c #1A1A9C9C1A1A",
"-  c #1F1F9F9F1F1F",
";  c #1919A1A11919",
":  c #1F1FA4A41F1F",
">  c #20209E9E2020",
",  c #2525A0A02525",
"<  c #2525A2A22525",
"1  c #2424A5A52424",
"2  c #2A2AA5A52B2B",
"3  c #2B2BA4A42B2B",
"4  c #2A2AA8A82A2A",
"5  c #2F2FABAB2F2F",
"6  c #3030A6A63030",
"7  c #3030A8A83030",
"8  c #3636A9A93636",
"9  c #3636ABAB3636",
"0  c #3535AEAE3535",
"q  c #3636ACAC3636",
"w  c #3B3BAAAA3B3B",
"e  c #3B3BADAD3B3B",
"r  c #3B3BACAC3C3C",
"t  c #3F3FABAB3F3F",
"y  c #3B3BB0B03A3A",
"u  c #565683832424",
"i  c #5B5B87872A2A",
"p  c #5F5F8A8A2F2F",
"a  c #61618A8A3232",
"s  c #63638E8E3434",
"d  c #686891913A3A",
"f  c #6C6C94943F3F",
"g  c #4141AFAF4141",
"h  c #4040B0B04040",
"j  c #4040B3B34040",
"k  c #4646B2B24646",
"l  c #4545B6B64545",
"z  c #4B4BB4B44B4B",
"x  c #4B4BB5B54B4B",
"c  c #4F4FB7B74F4F",
"v  c #4949B8B84949",
"b  c #4F4FBBBB4F4F",
"n  c #5050B6B65050",
"m  c #5353B9B95353",
"M  c #5454B8B85454",
"N  c #5858BABA5858",
"B  c #707098984545",
"V  c #74749B9B4949",
"C  c #6F6FC8C86F6F",
"Z  c #7272C6C67373",
"A  c #7676C7C77676",
"S  c #DDDD00000000",
"D  c #DFDF00000000",
"F  c #E1E100000000",
"G  c #E3E300000000",
"H  c #E5E500000000",
"J  c #E7E700000000",
"K  c #E9E900000000",
"L  c #EBEB00000000",
"P  c #EDED00000000",
"I  c #EFEF00000000",
"U  c #F1F100000000",
"Y  c #F3F300000000",
"T  c #F5F500000000",
"R  c #F7F700000000",
"E  c #F1F10B0B0B0B",
"W  c #F1F10F0F0E0E",
"Q  c #F9F900000000",
"!  c #F2F213131313",
"~  c #F3F319191919",
"^  c #F4F41E1E1E1E",
"/  c #F5F523232323",
"(  c #F2F22C2C2C2C",
")  c #F2F22F2F2F2F",
"_  c #F6F629292929",
"`  c #F7F72E2E2E2E",
"'  c #F2F232323232",
"]  c #F3F335353535",
"[  c #F4F439393939",
"{  c #F5F53D3D3D3D",
"}  c #F8F834343434",
"|  c #F9F93A3A3A3A",
" . c #FAFA3F3F3F3F",
".. c #F6F642424242",
"X. c #F7F746464646",
"o. c #F7F74B4B4B4B",
"O. c #FAFA44444444",
"+. c #F8F850505050",
"@. c #F9F954545555",
"#. c #F9F958585858",
"$. c #FAFA5D5D5D5D",
"%. c #FBFB61616262",
"&. c #FCFC66666666",
"*. c #8E8EAEAE6A6A",
"=. c #B7B7D3D3B7B7",
"-. c #DDDDDDDDDDDD",
";. c #DFDFDFDFDFDF",
":. c #D1D1E7E7D1D1",
">. c #DBDBEBEBDBDB",
",. c #DDDDECECDDDD",
"<. c #DFDFEDEDDFDF",
"1. c #E0E0EDEDDFDF",
"2. c #E1E1E3E3E3E3",
"3. c gray90",
"4. c #E7E7E7E7E7E7",
"5. c #E0E0EFEFE0E0",
"6. c #E9E9E9E9E9E9",
"7. c gray92",
"8. c gray93",
"9. c #EFEFEFEFEFEF",
"0. c #E2E2F0F0E2E2",
"q. c #E3E3F1F1E3E3",
"w. c #E4E4F2F2E4E4",
"e. c #E6E6F3F3E6E6",
"r. c #E7E7F3F3E7E7",
"t. c #E8E8F4F4E8E8",
"y. c #E9E9F5F5E9E9",
"u. c #EAEAF6F6EAEA",
"i. c #EDEDF7F7EDED",
"p. c #F1F1F1F1F1F1",
"a. c #F3F3F3F3F3F3",
"s. c gray96",
"d. c #F6F6F6F6F6F6",
"f. c gray97",
"g. c #F8F8F8F8F8F8",
"h. c #F9F9F9F9F9F9",
"j. c gray98",
"k. c #FBFBFBFBFBFB",
"l. c gray99",
"z. c #FDFDFDFDFDFD",
"x. c #FDFDFDFDFEFE",
"c. c #FEFEFEFEFEFE",
"v. c gray100",
"b. c None",
/* pixels */
"b.b.b.b.b.b.b.b.b.b.b.b.b.b.b.b.",
"b.b.b.b.b.b.b.b.b.b.b.b.b.b.b.b.",
"b.b.b.b.b.b.b.b.b.b.b.b.b.b.b.b.",
"s.s.s.s.s.a.a.9.9.9.8.7.6.4.3.2.",
"s.v.v.v.v.v.x.x.v.k.j.j.j.j.s.;.",
"s.v.v.v.v.j.v.x.j.j.j.j.f.s.f.-.",
":.i.u.u.e.e.e.e.5.5.5.1.,.>.1.=.",
"% A N M c z g g r 8 6 3 , > t X ",
"% Z m c x k h e 8 7 2 < - = w . ",
"% C b v l h y 0 7 4 1 : ; * 0 X ",
"O *.V B f d s p i u u # @ + a   ",
"Q &.X. .| } ` _ / ^ ~ ! W E ) D ",
"Q %.$.#.@.+.o.X...{ [ ] ' ) ) S ",
"T T U P P P P J J H H D D S S S ",
"b.b.b.b.b.b.b.b.b.b.b.b.b.b.b.b.",
"b.b.b.b.b.b.b.b.b.b.b.b.b.b.b.b."
};
