/* XPM */
static const char *BJ_xpm[] = {
/* columns rows colors chars-per-pixel */
"16 16 141 2",
"   c black",
".  c #000049490000",
"X  c #000053530000",
"o  c #000057570000",
"O  c #00005D5D0000",
"+  c #000063630000",
"@  c #000067670000",
"#  c #00006F6F0000",
"$  c #000075750000",
"%  c #000077770000",
"&  c #00007B7B0000",
"*  c #00007F7F0000",
"=  c #000083830000",
"-  c #000085850000",
";  c #000087870000",
":  c #000089890000",
">  c #000091910000",
",  c #3A3AACAC3A3A",
"<  c #3C3CAAAA3A3A",
"1  c #3E3EAEAE3E3E",
"2  c #3F3FAFAF3F3F",
"3  c #4040AFAF3F3F",
"4  c #4343ADAD4040",
"5  c #4444B1B14444",
"6  c #4545B2B24545",
"7  c #4848B0B04646",
"8  c #4949B4B44949",
"9  c #4949B5B54949",
"0  c #4B4BB5B54B4B",
"q  c #4E4EB2B24B4B",
"w  c #4F4FB6B64F4F",
"e  c #4F4FB7B74F4F",
"r  c #5050B7B75050",
"t  c #5353B7B75151",
"y  c #5454B7B75555",
"u  c #5656B5B55555",
"i  c #5353B9B95353",
"p  c #5454B9B95454",
"a  c #5454BABA5454",
"s  c #5858BABA5656",
"d  c #5858B9B95858",
"f  c #5959BBBB5959",
"g  c #5858BCBC5858",
"h  c #5858BCBC5959",
"j  c #5959BCBC5959",
"k  c #5C5CBDBD5B5B",
"l  c #5C5CBDBD5C5C",
"z  c #5D5DBCBC5D5D",
"x  c #5C5CBEBE5C5C",
"c  c #5E5EBDBD5E5E",
"v  c #5F5FBFBF5F5F",
"b  c #6161BEBE6262",
"n  c #6666C0C06666",
"m  c #6A6AC3C36A6A",
"M  c #6F6FC4C46F6F",
"N  c #7272C6C67373",
"B  c #7676C8C87676",
"V  c #7777C8C87777",
"C  c #7979C8C87979",
"Z  c #7979C9C97979",
"A  c #7A7AC9C97A7A",
"S  c #7B7BCACA7A7A",
"D  c #7B7BCACA7B7B",
"F  c #DDDD00000000",
"G  c #DFDF00000000",
"H  c #E1E100000000",
"J  c #E3E300000000",
"K  c #E5E500000000",
"L  c #E7E700000000",
"P  c #E9E900000000",
"I  c #F1F10B0B0B0B",
"U  c #F1F10F0F0E0E",
"Y  c #F2F210101010",
"T  c #F2F213131313",
"R  c #F2F214141414",
"E  c #F3F319191919",
"W  c #F4F41E1E1E1E",
"Q  c #F4F41F1F1F1F",
"!  c #F3F326261A1A",
"~  c #F4F42B2B1F1F",
"^  c #F5F523232323",
"/  c #F5F524242424",
"(  c #F2F22C2C2C2C",
")  c #F2F22F2F2F2F",
"_  c #F6F629292929",
"`  c #F6F62A2A2A2A",
"'  c #F7F72F2F2F2F",
"]  c #F5F530302525",
"[  c #F6F636362B2B",
"{  c #F2F232323232",
"}  c #F3F332323232",
"|  c #F3F335353535",
" . c #F4F436363636",
".. c #F7F73B3B3030",
"X. c #F4F439393939",
"o. c #F5F53D3D3D3D",
"O. c #F8F835353535",
"+. c #F4F446463B3B",
"@. c #F8F840403636",
"#. c #F9F946463B3B",
"$. c #F6F642424242",
"%. c #F7F746464646",
"&. c #E7E7E7E70000",
"*. c #E9E9E9E90000",
"=. c #EBEBEBEB0000",
"-. c #EDEDEFEF0000",
";. c #EFEFEFEF0000",
":. c #F1F1F1F10000",
">. c #F3F3F3F30000",
",. c #F5F5F5F50000",
"<. c #F7F7F7F70000",
"1. c #F9F9F9F90000",
"2. c #FBFBFBFB0000",
"3. c #FDFDFDFD0000",
"4. c #F4F4F4F42020",
"5. c #F5F5F5F52525",
"6. c #F5F5F5F52626",
"7. c #F6F6F6F62B2B",
"8. c #F6F6F6F62C2C",
"9. c #F7F7F7F73030",
"0. c #F7F7F7F73131",
"q. c #F5F5F5F53F3F",
"w. c #F8F8F8F83636",
"e. c #F8F8F8F83737",
"r. c #F9F9F9F93C3C",
"t. c #F9F9F9F93D3D",
"y. c #F6F6F6F64444",
"u. c #F7F7F7F74949",
"i. c #F7F7F7F74E4E",
"p. c #FAFAFAFA4141",
"a. c #FAFAFAFA4242",
"s. c #FBFBFBFB4747",
"d. c #FCFCFCFC4C4C",
"f. c #F8F8F8F85353",
"g. c #F9F9F9F95757",
"h. c #FAFAFAFA5C5C",
"j. c #FBFBFBFB6060",
"k. c #FCFCFCFC6565",
"l. c #FCFCFCFC6969",
"z. c #FDFDFDFD6D6D",
"x. c None",
/* pixels */
"x.x.x.x.x.x.x.x.x.x.x.x.x.x.x.x.",
"x.x.x.x.x.x.x.x.x.x.x.x.x.x.x.x.",
"x.x.x.x.x.x.x.x.x.x.x.x.x.x.x.x.",
"> : : : - = = 3.2.1.<.,.,.:.-.-.",
"- D D D B D D z.l.k.j.h.g.f.i.=.",
": D v l p v k d.s.p.t.e.0.8.u.=.",
"- D k k a f p s.p.t.e.0.7.6.y.&.",
": B a a r a u p.t.e.8.7.6.4.q.&.",
"- N i w 0 w q #.o...[ ] ~ ! +.L ",
"* M e 9 6 8 7 O.' _ ^ W E R X.J ",
"& m 9 6 4 5 4 ' _ ^ W E R Y } G ",
"& b 5 1 , 1 < _ ^ W E R U I [ G ",
"# b c d y f y %.$.o.X.| { ) ( F ",
"$ @ + O o X . P L L J J G F F F ",
"x.x.x.x.x.x.x.x.x.x.x.x.x.x.x.x.",
"x.x.x.x.x.x.x.x.x.x.x.x.x.x.x.x."
};
