/* XPM */
static const char *BM_xpm[] = {
/* columns rows colors chars-per-pixel */
"16 16 160 2",
"   c black",
".  c #343430302F2F",
"X  c #000000005959",
"o  c #000000006B6B",
"O  c #33331B1B6B6B",
"+  c #7F7F15153D3D",
"@  c #6B6B1D1D4D4D",
"#  c #7F7F25254D4D",
"$  c #65656767A3A3",
"%  c #7676B5B55E5E",
"&  c #7979B8B86262",
"*  c #7C7CBDBD6666",
"=  c #7E7EBDBD6666",
"-  c #6B6BC3C3E4E4",
";  c #6F6FC5C5E5E5",
":  c #818100000000",
">  c #838300000000",
",  c #878700000000",
"<  c #898900000000",
"1  c #8B8B00000000",
"2  c #8F8F00000000",
"3  c #919100000000",
"4  c #939300000000",
"5  c #979700000000",
"6  c #999900000000",
"7  c #9B9B00000000",
"8  c #9D9D00000000",
"9  c #9F9F00000000",
"0  c #838317173D3D",
"q  c #A3A300000000",
"w  c #A7A700000000",
"e  c #ABAB00000000",
"r  c #AFAF00000000",
"t  c #B1B100000000",
"y  c #B3B300000000",
"u  c #B5B500000000",
"i  c #B7B700000000",
"p  c #B9B900000000",
"a  c #BBBB00000000",
"s  c #878746466A6A",
"d  c #929253537979",
"f  c #AFAF67677F7F",
"g  c #C2C20B0B0B0B",
"h  c #CACA0F0F0E0E",
"j  c #C5C510101010",
"k  c #C7C719191919",
"l  c #CBCB13131313",
"z  c #C9C91E1E1E1E",
"x  c #CBCB1F1F1F1F",
"c  c #CFCF19191919",
"v  c #D9D91B1B1515",
"b  c #CBCB23232323",
"n  c #CBCB24242424",
"m  c #CACA2C2C2C2C",
"M  c #CACA2F2F2F2F",
"N  c #CBCB2F2F2F2F",
"B  c #CDCD29292929",
"V  c #CDCD2A2A2A2A",
"C  c #CECE2A2A2A2A",
"Z  c #CFCF2C2C2C2C",
"A  c #CFCF2E2E2E2E",
"S  c #CFCF2F2F2F2F",
"D  c #CCCC32323232",
"F  c #CDCD32323232",
"G  c #CFCF30303030",
"H  c #CFCF31313131",
"J  c #CDCD35353535",
"K  c #CECE36363636",
"L  c #CFCF39393939",
"P  c #CFCF3B3B3B3B",
"I  c #D1D134343434",
"U  c #D1D135353535",
"Y  c #D1D136363636",
"T  c #D1D137373737",
"R  c #D3D336363636",
"E  c #D3D33A3A3A3A",
"W  c #D2D23B3B3D3D",
"Q  c #D0D03D3D3D3D",
"!  c #D2D23F3F3F3F",
"~  c #D4D43B3B3A3A",
"^  c #D4D43C3C3C3C",
"/  c #D4D43C3C3D3D",
"(  c #D4D43F3F3F3F",
")  c #D5D53F3F3F3F",
"_  c #D2D242424242",
"`  c #D3D344444444",
"'  c #D3D346464646",
"]  c #D5D541414242",
"[  c #D5D542424242",
"{  c #D6D640404040",
"}  c #D6D644444444",
"|  c #D6D645454545",
" . c #D7D747474747",
".. c #D5D549494949",
"X. c #D5D54B4B4B4B",
"o. c #D7D74E4E4E4E",
"O. c #D8D849494949",
"+. c #D8D84A4A4949",
"@. c #DBDB4F4F4F4F",
"#. c #D7D750505050",
"$. c #D8D853535353",
"%. c #D8D854545555",
"&. c #D9D957575757",
"*. c #DADA58585858",
"=. c #DBDB5C5C5C5C",
"-. c #DBDB5D5D5D5D",
";. c #C5C55B5B6767",
":. c #C6C65E5E6969",
">. c #C7C762626E6E",
",. c #C9C967677575",
"<. c #DDDD60606060",
"1. c #DDDD61616262",
"2. c #DFDF65656565",
"3. c #DEDE66666666",
"4. c #DDDD69696A6A",
"5. c #DEDE6E6E6E6E",
"6. c #DFDF78787A7A",
"7. c #E0E06A6A6A6A",
"8. c #E1E16F6F6F6F",
"9. c #E4E46B6B6969",
"0. c #E4E472726F6F",
"q. c #E5E574747272",
"w. c #E8E87C7C7979",
"e. c #858569699595",
"r. c #9C9C78789B9B",
"t. c #AFAF75758C8C",
"y. c #C3C37C7C8E8E",
"u. c #8080BFBF6A6A",
"i. c #8888C3C37272",
"p. c #99998B8B8B8B",
"a. c #91918686B1B1",
"s. c #B8B883839A9A",
"d. c #BABA83839999",
"f. c #8F8FA0A0CDCD",
"g. c #A3A3A0A0C3C3",
"h. c #D5D588889090",
"j. c #D9D9A1A1AAAA",
"k. c #D1D1AFAFBBBB",
"l. c #DADAADADB6B6",
"z. c #E2E282828484",
"x. c #E3E389898B8B",
"c. c #EBEB84848181",
"v. c #E7E794949595",
"b. c #E5E5B9B9BFBF",
"n. c #F1F1A5A5A2A2",
"m. c #F1F1AAAAA7A7",
"M. c #DADAB7B7C1C1",
"N. c #E7E7BDBDC3C3",
"B. c #DFDFC1C1CBCB",
"V. c #E8E8CFCFD6D6",
"C. c #E2E2D5D5DFDF",
"Z. c #EFEFD8D8D8D8",
"A. c #F1F1DADAD9D9",
"S. c #F2F2DCDCDBDB",
"D. c #F3F3DFDFDEDE",
"F. c #F2F2E0E0E0E0",
"G. c #F3F3E7E7E7E7",
"H. c #F4F4E5E5E5E5",
"J. c #F4F4E8E8E8E8",
"K. c None",
/* pixels */
"K.K.K.K.K.K.K.K.K.K.K.K.K.K.K.K.",
"K.K.K.K.K.K.K.K.K.K.K.K.K.K.K.K.",
"K.K.K.K.K.K.K.K.K.K.K.K.K.K.K.K.",
",.e.o + 0 X @ ;.u u u t r e w w ",
"O N.C.l.j.M.V.g.4.2.<.=.&.$.o.8 ",
"c v.c.q.9.w.w.5. .[ / T H Z ..7 ",
"# b.n.z.x.m.h.t.[ ^ H.J.G.F.` 5 ",
"$ B.a.s.s.f.k.r.W T D.; - A.! 4 ",
"v y.d >.:.s f 0.T S S.. p.A.L 2 ",
"p 8.@. . .[ E T S C i.& % = K 1 ",
"p 7.+. ./ E T Z C b x u.* j H , ",
"p 2. ./ E I Z m b z k l h g M , ",
"t <.=.*.%.#...` _ ! L K D M m + ",
"u t e w w 8 8 7 4 2 2 2 , , + 1 ",
"K.K.K.K.K.K.K.K.K.K.K.K.K.K.K.K.",
"K.K.K.K.K.K.K.K.K.K.K.K.K.K.K.K."
};
