/* XPM */
static char *BN_xpm[] = {
/* columns rows colors chars-per-pixel */
"16 16 146 2",
"   c #0DE206CF0449",
".  c #0EFF0A1408E5",
"X  c #105A0B35030C",
"o  c #15E2115C111F",
"O  c #166E11231376",
"+  c #183E11891457",
"@  c #26151D620821",
"#  c #29B3233E1336",
"$  c #2B0D285C19A1",
"%  c #38042B690A61",
"&  c #4E411E0F0E16",
"*  c #5DE51BBE0FD3",
"=  c #5AF6277E201C",
"-  c #40FA3C493E58",
";  c #49723D703EE5",
":  c #628B1F6D0EDD",
">  c #66C1256F12CD",
",  c #77FF274712EF",
"<  c #734827A51F3B",
"1  c #4D8449381A86",
"2  c #5B484FA2135F",
"3  c #639E576E1551",
"4  c #70596B19210D",
"5  c #4F324B5E4D4E",
"6  c #60B85C925CF3",
"7  c #7B50705647CB",
"8  c #6F006B846B67",
"9  c #6FAF6AC06B65",
"0  c #94CB31F51492",
"q  c #917F3CB53221",
"w  c #9F3063A61BD3",
"e  c #811E7E5C240B",
"r  c #A5FC45D9194B",
"t  c #B0F84E8E1BE8",
"y  c #B5DB51C91CA4",
"u  c #9CF55F6857B7",
"i  c #B4D157754DB5",
"p  c #B6AA7FFB7BB3",
"a  c #C39464CF1FA2",
"s  c #C71B55774805",
"d  c #93678A391E1A",
"f  c #857481E7242B",
"g  c #85FD82622450",
"h  c #86508301245F",
"j  c #861C847724CE",
"k  c #8658850324CE",
"l  c #865285A324CC",
"z  c #87A685F92515",
"x  c #88E886D324F0",
"c  c #8F5D8B60264E",
"v  c #9F149A4F231F",
"b  c #9F049A5425C1",
"n  c #A0CE9BE62552",
"m  c #A6659B632237",
"M  c #BDFCB0982547",
"N  c #9F279B884041",
"B  c #A12181997E48",
"V  c #C7658E0737E3",
"C  c #D2DA9D5524C7",
"Z  c #D268A3492571",
"A  c #D8D6AFDF2764",
"S  c #D9F4B7ED2845",
"D  c #D998B3776F42",
"F  c #C6CFC1493B79",
"G  c #D6A5CE5E34AD",
"H  c #D26ECCA03AEB",
"J  c #DD5ED57B2C5F",
"K  c #E43EC8832BDF",
"L  c #EB99D6B22E4E",
"P  c #EC26E3072D3E",
"I  c #EFD4E83529C6",
"U  c #EFC7E8592E1F",
"Y  c #F132E99B2DB9",
"T  c #F1AAEA912E08",
"R  c #F153E9BD2ED3",
"E  c #F660EAFD321E",
"W  c #F576EE033606",
"Q  c #FF85F8292F27",
"!  c #FFFFF7ED2EFC",
"~  c #F960F37830DA",
"^  c #FFFFF8D430D2",
"/  c #FFFFF81C318A",
"(  c #FFFFF84F3318",
")  c #FFFFF8E1333E",
"_  c #FFFFF8F23B80",
"`  c #FEB1F9043163",
"'  c #FFFFFA04318A",
"]  c #FFFFFCBD31B7",
"[  c #FFFFFE853254",
"{  c #FEE4F90738E9",
"}  c #FFFFFBEE3BD5",
"|  c #EC8CDF70687B",
" . c #F56FE87D40AE",
".. c #F495EF165E53",
"X. c #FFFFF9F945CA",
"o. c #FFFFFB744D63",
"O. c #FE31F8985836",
"+. c #FD7AF7556010",
"@. c #FFFFFB42603D",
"#. c #F035EB7B7536",
"$. c #FFFFF9F4608B",
"%. c #FFFFF9E666AA",
"&. c #FFFFF9F4689D",
"*. c #FFFFFA2A6AE7",
"=. c #FFFFFA3E6B6D",
"-. c #FFFFFB9B6B19",
";. c #FFFFFA0B6FAC",
":. c #8CF689F489FE",
">. c #95949187915A",
",. c #A05A9FE794B4",
"<. c #B6F9A25FA0BC",
"1. c #C048BC00BC77",
"2. c #CD828B3784F1",
"3. c #DB7BB6079658",
"4. c #C0F2BF4AC139",
"5. c #E780DB789DCD",
"6. c #FFFFFB968530",
"7. c #FFFFFB1C8687",
"8. c #FFFFFC78A54E",
"9. c #FFFFFEB8B6CE",
"0. c #FFFFFF5EB61C",
"q. c #FFB9FD4CBCE6",
"w. c #C9FBC8DAC9DF",
"e. c #D97CD921D111",
"r. c #D9E6D958D2C9",
"t. c #DA6EDA54D160",
"y. c #E81DE76AD55A",
"u. c #FB4AF821CE52",
"i. c #FFFFFE51D359",
"p. c #FFFFFE37D3E0",
"a. c #FFFFFE46D56D",
"s. c #FFFFFE54D685",
"d. c #FFFFFE7ADCF3",
"f. c #FFFFFFFFDD67",
"g. c #FFFFFF1ADFF3",
"h. c #E83DE732E8D4",
"j. c #EBBDEB27E6CD",
"k. c #EA6FE962EB42",
"l. c #F3E0EB68E4C2",
"z. c #F166F09BF134",
"x. c #FFFFFFFFE498",
"c. c #FFFFFF0DEAA1",
"v. c #FB09FB03F62B",
"b. c #FFFFFFFFF606",
"n. c #FFF1FFDBFA46",
"m. c gray100",
/* pixels */
"m.m.m.m.m.m.m.m.m.m.m.m.m.m.m.m.",
"m.m.m.m.m.m.m.m.m.m.m.m.m.m.m.m.",
"c.g.p.p.s.s.s.s.s.s.s.s.s.s.p.q.",
"b.g.8.7.;.%.*.*.*.*.*.*.*.*.+.H ",
"w.z.b.x.9.7.o.E L / / / / / R n ",
"5 6 :.1.h.v.u.D V  .{ Q ! Q U b ",
"7 #   + ; B <.i s 3.5.| X./ I v ",
"..G m 3 % * < = u B 2.l.g.9.#.N ",
"$.} [ ~ J w 0 : , , q >.4.k.j.,.",
"$.{ / / [ K a y t r & . O - 9 9 ",
"O.W I R R P S Z C A M d 2 @ X O ",
"F c h h h h k h k k x x e 4 1 $ ",
"y.t.t.t.e.e.e.e.e.e.e.t.e.e.e.t.",
"m.m.m.m.m.m.m.m.m.m.m.m.m.m.m.m.",
"m.m.m.m.m.m.m.m.m.m.m.m.m.m.m.m.",
"m.m.m.m.m.m.m.m.m.m.m.m.m.m.m.m."
};
