/* XPM */
static const char *BR_xpm[] = {
/* columns rows colors chars-per-pixel */
"16 16 148 2",
"   c black",
".  c #000003030000",
"X  c #000007070000",
"o  c #00000B0B0000",
"O  c #00000D0D0000",
"+  c #00000F0F0000",
"@  c #000013130000",
"#  c #000019190000",
"$  c #00001B1B0000",
"%  c #000021210000",
"&  c #000027270000",
"*  c #00002D2D0000",
"=  c #00002F2F0000",
"-  c #000035350000",
";  c #00003B3B0000",
":  c #000041410000",
">  c #000047470000",
",  c #00004B4B0000",
"<  c #00004D4D0000",
"1  c #000051510000",
"2  c #000053530000",
"3  c #000057570000",
"4  c #00005B5B0000",
"5  c #00005D5D0000",
"6  c #000061610000",
"7  c #000063630000",
"8  c #15157F7F1515",
"9  c #2A2A5E5EF6F6",
"0  c #2F2F6161F7F7",
"q  c #2F2F6B6BF7F7",
"w  c #36367070F8F8",
"e  c #3B3B7474F9F9",
"r  c #6D6D7373AAAA",
"t  c #42427171FAFA",
"y  c #47477575FBFB",
"u  c #40407878FAFA",
"i  c #44447878F8F8",
"p  c #60606767EEEE",
"a  c #65656969E2E2",
"s  c #6A6A6F6FEAEA",
"d  c #77777777E3E3",
"f  c #191982821919",
"g  c #1D1D85851D1D",
"h  c #1E1E85851E1E",
"j  c #373797971414",
"k  c #222287872222",
"l  c #2A2A8C8C2A2A",
"z  c #36368A8A3636",
"x  c #35358F8F3535",
"c  c #303090902F2F",
"v  c #343493933434",
"b  c #353593933535",
"n  c #363691913636",
"m  c #373792923737",
"M  c #3A3A93933B3B",
"N  c #3B3B94943B3B",
"B  c #3B3B96963B3B",
"V  c #3E3E96963E3E",
"C  c #3939A4A43434",
"Z  c #3F3F99994040",
"A  c #7676B7B73B3B",
"S  c #414198984141",
"D  c #42429B9B4242",
"F  c #454599994545",
"G  c #45459D9D4545",
"H  c #47479C9C4747",
"J  c #47479E9E4747",
"K  c #4C4C9E9E4C4C",
"L  c #4C4CA1A14C4C",
"P  c #4D4DA1A14D4D",
"I  c #5151A2A25151",
"U  c #5252A2A25252",
"Y  c #5151A4A45151",
"T  c #5656A4A45656",
"R  c #5757A4A45757",
"E  c #5B5BA7A75B5B",
"W  c #5B5BA8A85B5B",
"Q  c #5C5CAAAA5C5C",
"!  c #5F5FACAC5F5F",
"~  c #6060A9A95F5F",
"^  c #6363B2B24F4F",
"/  c #6060B0B05858",
"(  c #6060AAAA6060",
")  c #6060ACAC6060",
"_  c #6363AEAE6363",
"`  c #6464ADAD6464",
"'  c #6464ADAD6565",
"]  c #6767AFAF6767",
"[  c #6868AFAF6969",
"{  c #6666B0B06767",
"}  c #6B6BB1B16B6B",
"|  c #6D6DB3B36D6D",
" . c #7171B4B47171",
".. c #7575B8B87575",
"X. c #7777B8B87777",
"o. c #7A7ABABA7A7A",
"O. c #7B7BBBBB7B7B",
"+. c #7D7DBBBB7D7D",
"@. c #7F7FBDBD7F7F",
"#. c #5C5C8383E9E9",
"$. c #7E7E9F9FD9D9",
"%. c #73739A9AF9F9",
"&. c #9E9ED2D23131",
"*. c #A4A4D4D41919",
"=. c #AFAFDCDC3F3F",
"-. c #9595CACA7373",
";. c #ADADDDDD4646",
":. c #A8A8D9D95454",
">. c #B0B0E1E14242",
",. c #B3B3E2E26D6D",
"<. c #B7B7E2E26969",
"1. c #F4F4E9E91F1F",
"2. c #F3F3F3F31919",
"3. c #F3F3F3F31A1A",
"4. c #F4F4F4F41E1E",
"5. c #F4F4F4F41F1F",
"6. c #F8F8EFEF3636",
"7. c #F5F5F5F52525",
"8. c #F6F6F6F62B2B",
"9. c #F7F7F7F72E2E",
"0. c #F9F9F0F03A3A",
"q. c #F5F5EDED4444",
"w. c #F6F6F2F24949",
"e. c #FAFAFAFA4242",
"r. c #FBFBFBFB4545",
"t. c #FBFBFCFC4949",
"y. c #FCFCFCFC4B4B",
"u. c #FCFCFCFC4F4F",
"i. c #FDFDF3F35151",
"p. c #FBFBFBFB5555",
"a. c #FAFAFDFD5454",
"s. c #FDFDFCFC5050",
"d. c #FDFDFDFD5151",
"f. c #FDFDFDFD5353",
"g. c #FCFCFCFC5A5A",
"h. c #8F8F9494B3B3",
"j. c #8080BEBE8080",
"k. c #8080BEBE8181",
"l. c #8181BEBE8181",
"z. c #ADADACACA1A1",
"x. c #ACACC6C6EBEB",
"c. c #A8A8C0C0F3F3",
"v. c #A9A9C0C0F6F6",
"b. c #B9B9D5D5F7F7",
"n. c #CDCDCACAA6A6",
"m. c #D0D0E1E1FBFB",
"M. c #DFDFE9E9F4F4",
"N. c None",
/* pixels */
"N.N.N.N.N.N.N.N.N.N.N.N.N.N.N.N.",
"N.N.N.N.N.N.N.N.N.N.N.N.N.N.N.N.",
"N.N.N.N.N.N.N.N.N.N.N.N.N.N.N.N.",
"7 7 7 7 7 5 4 4 1 , > : ; - = & ",
"7 l.@.@.O.o.X.,.<.} { ' ~ E T % ",
"7 l.{ { ~ Q d.g.a.e.H V B b I # ",
"7 @._ ! :.i.d y t a 6.&.b c K @ ",
"7 O.Q d.d.n.m.M.x.w r 8.7.l H o ",
"5 -.f.y.y.#.u %.c.b.$.7.4.3.A   ",
"3 X.^ y.r.h.e i q v.z.4.3.j z + ",
"1  .I L >.0.p 0 9 s 1.*.g f B   ",
"< | L H D C 9.w.q.4.k g f 8 b   ",
", [ ' ( W T I ;.>.F S S N b x   ",
": ; - = & % # @ + X             ",
"N.N.N.N.N.N.N.N.N.N.N.N.N.N.N.N.",
"N.N.N.N.N.N.N.N.N.N.N.N.N.N.N.N."
};
