/* XPM */
static const char *BT_xpm[] = {
/* columns rows colors chars-per-pixel */
"16 16 153 2",
"   c black",
".  c #DDDD00000000",
"X  c #DFDF00000000",
"o  c #E1E100000000",
"O  c #E3E300000000",
"+  c #E5E500000000",
"@  c #E7E700000000",
"#  c #E9E900000000",
"$  c #EBEB00000000",
"%  c #E9E905050000",
"&  c #EDED0B0B0000",
"*  c #EDED0F0F0000",
"=  c #EFEF15150000",
"-  c #F1F100000000",
";  c #F3F307070000",
":  c #CECE6D6D3E3E",
">  c #EDED53530000",
",  c #F2F257571414",
"<  c #F1F167670B0B",
"1  c #F1F16B6B0E0E",
"2  c #F2F264641313",
"3  c #F3F363631919",
"4  c #F3F364641919",
"5  c #F2F26B6B1010",
"6  c #F2F26F6F1414",
"7  c #F3F370701A1A",
"8  c #F4F474741E1E",
"9  c #F4F474741F1F",
"0  c #F4F467672020",
"q  c #F4F463632C2C",
"w  c #F5F56D6D2323",
"e  c #F6F66D6D2A2A",
"r  c #F8F869693434",
"t  c #F5F573732626",
"y  c #F2F27B7B2C2C",
"u  c #F2F27C7C2F2F",
"i  c #F2F27D7D2F2F",
"p  c #F2F27F7F3232",
"a  c #F3F37F7F3232",
"s  c #BABA97977C7C",
"d  c #F3F39F9F0000",
"f  c #F3F380803535",
"g  c #F4F482823636",
"h  c #F4F482823939",
"j  c #F4F485853B3B",
"k  c #F5F587873D3D",
"l  c #F5F58A8A3F3F",
"z  c #EFEFBBBB0000",
"x  c #F3F3B1B10000",
"c  c #F3F3B3B30000",
"v  c #F1F1B7B70000",
"b  c #F5F5B1B10000",
"n  c #F7F7B7B70000",
"m  c #F5F5B9B90000",
"M  c #F7F7BBBB0000",
"N  c #F5F5BFBF0000",
"B  c #F9F9BDBD0000",
"V  c #F9F9BFBF0000",
"C  c #FBFBBDBD0000",
"Z  c #FBFBBFBF0000",
"A  c #D7D78B8B5757",
"S  c #DFDFBBBB5656",
"D  c #E6E688884444",
"F  c #F6F685854242",
"G  c #F7F786864949",
"H  c #F6F68D8D4444",
"J  c #F7F78E8E4E4E",
"K  c #F8F88A8A5050",
"L  c #F9F98F8F5555",
"P  c #F9F988885858",
"I  c #F1F191915151",
"U  c #F9F9ABAB5F5F",
"Y  c #F7F7C3C30000",
"T  c #F9F9C1C10000",
"R  c #F9F9C3C30000",
"E  c #ECECD7D75F5F",
"W  c #F2F2D2D24D4D",
"Q  c #FBFBD3D34646",
"!  c #FBFBD6D64747",
"~  c #FBFBDEDE4545",
"^  c #FBFBDADA4949",
"/  c #FBFBDCDC4949",
"(  c #FCFCDBDB4B4B",
")  c #FCFCD9D94F4F",
"_  c #FCFCDADA4F4F",
"`  c #FCFCDFDF4B4B",
"'  c #F7F7DDDD5757",
"]  c #F8F8D7D75353",
"[  c #FDFDD9D95151",
"{  c #FDFDDADA5050",
"}  c #FDFDDBDB5151",
"|  c #FDFDDBDB5353",
" . c #FDFDDBDB5454",
".. c #FAFADDDD5C5C",
"X. c #FEFEDCDC5858",
"o. c #FEFEDCDC5959",
"O. c #FEFEDEDE5C5C",
"+. c #FEFEDFDF5F5F",
"@. c #E5E5CDCD6161",
"#. c #FBFBDCDC6060",
"$. c #FCFCDFDF6A6A",
"%. c #FBFBE4E46262",
"&. c #FCFCE2E26666",
"*. c #FDFDE1E16F6F",
"=. c #FDFDE2E26D6D",
"-. c #FAFAE4E47272",
";. c #FDFDE2E27171",
":. c #FEFEE2E27373",
">. c #FEFEE2E27474",
",. c #FEFEE3E37676",
"<. c #FEFEE4E47777",
"1. c #FCFCE4E47979",
"2. c #FEFEE5E57979",
"3. c #FFFFE5E57A7A",
"4. c #FFFFE5E57B7B",
"5. c #ECECBABA9595",
"6. c #F5F5A4A48787",
"7. c #E6E6CACAB9B9",
"8. c #E8E8DBDBA7A7",
"9. c #F8F8E2E28B8B",
"0. c #FCFCE8E88F8F",
"q. c #F2F2E6E69B9B",
"w. c #E8E8E4E4BBBB",
"e. c #CFCFD7D7DDDD",
"r. c #D4D4CECECCCC",
"t. c #D6D6D0D0CFCF",
"y. c #D6D6D7D7D9D9",
"u. c #DDDDD8D8D8D8",
"i. c #DFDFDFDFDFDF",
"p. c #D6D6D7D7E5E5",
"a. c #D4D4DBDBE6E6",
"s. c #D6D6DDDDEEEE",
"d. c #D8D8E2E2CECE",
"f. c #D9D9E0E0E4E4",
"g. c #DEDEE0E0E1E1",
"h. c #DBDBE2E2EDED",
"j. c #DDDDE5E5ECEC",
"k. c #E0E0C0C0C0C0",
"l. c #E3E3CFCFC1C1",
"z. c #E0E0D7D7C9C9",
"x. c #EAEAD2D2C3C3",
"c. c #E8E8D8D8D0D0",
"v. c #EBEBDDDDD5D5",
"b. c #E7E7E4E4E2E2",
"n. c #E7E7E4E4E4E4",
"m. c #EFEFE8E8E5E5",
"M. c #EAEAEAEAEAEA",
"N. c #EAEAEAEAEBEB",
"B. c #EDEDEBEBEEEE",
"V. c #EAEAEDEDF3F3",
"C. c #F0F0F2F2F6F6",
"Z. c #FAFAFAFAF7F7",
"A. c None",
/* pixels */
"A.A.A.A.A.A.A.A.A.A.A.A.A.A.A.A.",
"A.A.A.A.A.A.A.A.A.A.A.A.A.A.A.A.",
"A.A.A.A.A.A.A.A.A.A.A.A.A.A.A.A.",
"R V V V V V M n V V n b c v v > ",
"V 4.4.4.,.:.:.=.0.9.#...' ] J $ ",
"R 4.+.O.o.| _ 4.Z.C.N.E S q G % ",
"R 4.O.O. .| / ! N.V.m.B.: t H @ ",
"R ,. . .| ^ W @.8.h.s e.l.0 l @ ",
"V :.| _ _ Q s.a.f.j.b.b.8 7 j @ ",
"M =._ ^ ~ w.a.v.c.y.x.D 4 6 g o ",
"M $.^ q.d.t.c.7.e 6.i.r., 1 a X ",
"c $.:.l.r.r a.A w 8 4 2 1 < p X ",
"N %.U P L K 5.I F j h f p u y X ",
"d ; - = = & $ $ $ @ o o o X . . ",
"A.A.A.A.A.A.A.A.A.A.A.A.A.A.A.A.",
"A.A.A.A.A.A.A.A.A.A.A.A.A.A.A.A."
};
