/* XPM */
static char *BW_xpm[] = {
/* columns rows colors chars-per-pixel */
"16 16 69 1",
"  c #2F242ED42F56",
". c #3D093C943D2B",
"X c #3A6155C260C0",
"o c #411A40E541A0",
"O c #4162410B41B4",
"+ c #4A404A244AB9",
"@ c #40FC662F7546",
"# c #43926AA07A48",
"$ c #43E06B197ACB",
"% c #6CA46C296C93",
"& c #7CB47D267DB2",
"* c #4807724B8359",
"= c #47FA76DE8989",
"- c #4B297E0C9250",
"; c #52F481C19475",
": c #65B6886595FF",
"> c #757282428530",
", c #6814A040B69D",
"< c #6508AEDECCD2",
"1 c #6BA7A899C0CE",
"2 c #6A14BA19DA25",
"3 c #6B91BAB4DA23",
"4 c #6BE6BAE8DA3B",
"5 c #6C45BB88DB05",
"6 c #72D3BFF4DEF9",
"7 c #7641C0F1DE71",
"8 c #7168C5F0E78E",
"9 c #71D9C6A0E866",
"0 c #783AC860E8DB",
"q c #7E3ECE30ED4C",
"w c #7EB7CEECEE27",
"e c #B8EDB9CDBACB",
"r c #8448D034EDE6",
"t c #8D4CD0A8EB63",
"y c #9470CB45E14C",
"u c #9280D201EB02",
"i c #9144D2E5ED37",
"p c #9A54D702EEDF",
"a c #9ACBD74EEF15",
"s c #9F3DD892EFAA",
"d c #9E96D924F089",
"f c #9BC4D93BF113",
"g c #9F30D9E9F163",
"h c #AD78C1DAC632",
"j c #B946CF08D3C0",
"k c #B942CF45D40F",
"l c #B9F0CFDFD48D",
"z c #BC8ED19DD617",
"x c #A335DAD2F118",
"c c #AD1ADE25F1BF",
"v c #B4C9E207F41D",
"b c #C538C618C6B3",
"n c #C53EC620C6F5",
"m c #C5F9C6DCC7C7",
"M c #C829C905C9A1",
"N c #C965DA27DDAD",
"B c #D2BFD340D3D4",
"V c #D3C0D70ED884",
"C c #D3D8D73AD8B6",
"Z c #D438D7DBD962",
"A c #D600D993DB21",
"S c #DB60E2E6E5F8",
"D c #D25BED4EF809",
"F c #E163F3C9FAD6",
"G c #E3DFF4ABFB64",
"H c #E402F4BCFB61",
"J c #E521F50CFB81",
"K c #E814F642FBEE",
"L c gray100",
/* pixels */
"LLLLLLLLLLLLLLLL",
"LLLLLLLLLLLLLLLL",
"JJGGGGGGGGGGGGFD",
"csppppppppppppu1",
"i08888888888892-",
"vxssdddsddddddy:",
"BMmmmbbmbbbbmme&",
"%+OOoOoooooooO. ",
"Nlkkkkkkkkkkklh>",
"srqqqqqqqqqqqq7;",
"t6355525225555<=",
",*$$$$$$$$$$$$@X",
"SVVVVVVVVVVVVVVA",
"LLLLLLLLLLLLLLLL",
"LLLLLLLLLLLLLLLL",
"LLLLLLLLLLLLLLLL"
};
