/* XPM */
static const char *BZ_xpm[] = {
/* columns rows colors chars-per-pixel */
"16 16 158 2",
"   c black",
".  c #00000000A7A7",
"X  c #00000000B1B1",
"o  c #00000000C9C9",
"O  c #00000000CBCB",
"+  c MediumBlue",
"@  c #00000000CFCF",
"#  c #00000000D1D1",
"$  c #00000000D7D7",
"%  c #00000101DBDB",
"&  c #00001F1FDDDD",
"*  c #00001717F1F1",
"=  c #00001F1FF1F1",
"-  c #00002525F1F1",
";  c #00002B2BF3F3",
":  c #00002F2FF5F5",
">  c #00003333F5F5",
",  c #13135151E7E7",
"<  c #17175353E5E5",
"1  c #17175353E7E7",
"2  c #1D1D5757E7E7",
"3  c #1C1C5757E9E9",
"4  c #3C3C5E5ED9D9",
"5  c #23235B5BEAEA",
"6  c #22225C5CE8E8",
"7  c #28286060E9E9",
"8  c #28286161EBEB",
"9  c #2E2E6565EBEB",
"0  c #2D2D6464EDED",
"q  c #37376A6AE4E4",
"w  c #33336969ECEC",
"e  c #36366A6AEAEA",
"r  c #34346969EEEE",
"t  c #39396D6DE9E9",
"y  c #39396D6DEFEF",
"u  c #3D3D6F6FE9E9",
"i  c #36367777E9E9",
"p  c #3E3E7171F0F0",
"a  c #40406060DADA",
"s  c #42426363DBDB",
"d  c #45456565DCDC",
"f  c #5B5B7979DFDF",
"g  c #41417373EBEB",
"h  c #44447676E9E9",
"j  c #46467676E8E8",
"k  c #46467676ECEC",
"l  c #4B4B7A7AEDED",
"z  c #41417B7BF4F4",
"x  c #46467F7FF5F5",
"c  c #50507E7EF0F0",
"v  c #61617575DEDE",
"b  c #65657979E0E0",
"n  c #6A6A7D7DE1E1",
"m  c #7676ACACBBBB",
"M  c #4A4A8787F2F2",
"N  c #4C4C8383F5F5",
"B  c #4C4C8383F6F6",
"V  c #4D4D8686F1F1",
"C  c #53538585F2F2",
"Z  c #51518686F6F6",
"A  c #51518787F6F6",
"S  c #56568A8AF7F7",
"D  c #57578A8AF8F8",
"F  c #5A5A8A8AF0F0",
"G  c #5B5B8D8DF8F8",
"H  c #5E5E9090F9F9",
"J  c #5E5E9191F9F9",
"K  c #5F5F9191F9F9",
"L  c #72728D8DD9D9",
"P  c #75759090D9D9",
"I  c #66668181E5E5",
"U  c #60608484ECEC",
"Y  c #65658888EDED",
"T  c #6E6E8080E1E1",
"R  c #69698C8CEDED",
"E  c #6D6D8F8FEEEE",
"W  c #61619292F6F6",
"Q  c #62629393F9F9",
"!  c #63639393F9F9",
"~  c #61619797F9F9",
"^  c #66669696FAFA",
"/  c #6D6D9292F0F0",
"(  c #6C6C9999F8F8",
")  c #79798F8FE7E7",
"_  c #70709C9CF8F8",
"`  c #75759F9FF9F9",
"'  c #7070A4A4C7C7",
"]  c #7D7DA2A2F6F6",
"[  c #7878A2A2F9F9",
"{  c #7B7BA4A4FAFA",
"}  c #7F7FA6A6FBFB",
"|  c #C3C300000000",
" . c #C7C700000000",
".. c #CBCB00000000",
"X. c #CFCF00000000",
"o. c #D1D100000000",
"O. c #D3D300000000",
"+. c #DDDD00000000",
"@. c #E1E100000000",
"#. c #E5E500000000",
"$. c #E7E700000000",
"%. c #E9E900000000",
"&. c #EBEB00000000",
"*. c #EDED00000000",
"=. c #EFEF00000000",
"-. c #F1F100000000",
";. c #F5F500000000",
":. c #F9F900000000",
">. c #9393A0A0B3B3",
",. c #B2B2A0A08E8E",
"<. c #B4B4ADADABAB",
"1. c #B3B3BDBDA6A6",
"2. c #84849797ECEC",
"3. c #84849B9BEEEE",
"4. c #86869E9EEEEE",
"5. c #8A8A9D9DE2E2",
"6. c #8F8F9F9FE6E6",
"7. c #88889E9EEFEF",
"8. c #8383ABABDEDE",
"9. c #8787B0B0D6D6",
"0. c #8080A8A8FBFB",
"q. c #A6A6B4B4C0C0",
"w. c #8888C7C7AEAE",
"e. c #8E8ED5D5BFBF",
"r. c #BCBCC9C9AFAF",
"t. c #BEBED5D5BEBE",
"y. c #B1B1F4F4A9A9",
"u. c #B1B1F4F4B2B2",
"i. c #B9B9F5F5BDBD",
"p. c #BABAF9F9B6B6",
"a. c #9F9FCCCCC6C6",
"s. c #9292D6D6C6C6",
"d. c #9494DBDBC0C0",
"f. c #9E9EDEDEC1C1",
"g. c #A1A1D5D5D7D7",
"h. c #A2A2E2E2C1C1",
"j. c #AFAFEEEECCCC",
"k. c #B7B7F1F1CFCF",
"l. c #C9C9F5F5BEBE",
"z. c #DDDDD5D5D3D3",
"x. c #D4D4E9E9D2D2",
"c. c #D2D2F5F5C8C8",
"v. c #D5D5FCFCCDCD",
"b. c #D8D8FAFACECE",
"n. c #D9D9F5F5D3D3",
"m. c #DEDEF3F3DADA",
"M. c #DDDDE2E2E1E1",
"N. c #E5E5FBFBDEDE",
"B. c #E1E1E6E6E2E2",
"V. c #E3E3E5E5E3E3",
"C. c #E5E5ECECE4E4",
"Z. c #E7E7FCFCE4E4",
"A. c #EAEAF3F3ECEC",
"S. c #F3F3EDEDE5E5",
"D. c #F0F0F1F1F0F0",
"F. c #F5F5F4F4F5F5",
"G. c #F9F9F9F9F9F9",
"H. c None",
/* pixels */
"H.H.H.H.H.H.H.H.H.H.H.H.H.H.H.H.",
"H.H.H.H.H.H.H.H.H.H.H.H.H.H.H.H.",
"H.H.H.H.H.H.H.H.H.H.H.H.H.H.H.H.",
":.:.:.:.:.;.-.%.%.=.=.=.=.%.%.%.",
"& 7.7.4.4.] 2.6.5.) / T n b v X ",
"> 0.^ ! H ! g.k.j.s.V p y r C $ ",
"> } Q H K i.Z.A.C.m.u.j r 9 l @ ",
": { H G 8.v.S.r.1.z.l.' 9 5 k @ ",
"; [ G D a.N.G.<.,.F.n.w.8 5 g @ ",
"- [ S A 9.b.D.q.>.B.c.m 5 2 u o ",
"= ( B N C p.x.B.M.t.y.q 2 < t o ",
"* ( B B z M d.h.f.e.i 3 < , e o ",
"% E R Y U F I P L f j d s a 4 . ",
"=.%.#.#.@.+.o...| X.O.o.o.X.X.X.",
"H.H.H.H.H.H.H.H.H.H.H.H.H.H.H.H.",
"H.H.H.H.H.H.H.H.H.H.H.H.H.H.H.H."
};
