/* XPM */
static const char *CA_xpm[] = {
/* columns rows colors chars-per-pixel */
"16 16 147 2",
"   c black",
".  c #A1A100000000",
"X  c #A5A500000000",
"o  c #A7A700000000",
"O  c #ADAD00000000",
"+  c #B1B100000000",
"@  c #B5B500000000",
"#  c #BBBB00000000",
"$  c #BFBF00000000",
"%  c #C3C300000000",
"&  c #C7C700000000",
"*  c #C9C900000000",
"=  c #CFCF00000000",
"-  c #D3D300000000",
";  c #D5D500000000",
":  c #D9D900000000",
">  c #DBDB00000000",
",  c #DFDF00000000",
"<  c #D4D415151414",
"1  c #D6D61D1D1D1D",
"2  c #D7D724242424",
"3  c #D8D823232B2B",
"4  c #DCDC2C2C2C2C",
"5  c #DADA29293232",
"6  c #D9D936363636",
"7  c #DDDD30303838",
"8  c #DEDE37373E3E",
"9  c #E3E300000000",
"0  c #E7E713131B1B",
"q  c #E9E91F1F2727",
"w  c #EDED27272F2F",
"e  c #E9E929292929",
"r  c #EDED2F2F3737",
"t  c #EFEF2D2D3737",
"y  c #E0E033333535",
"u  c #E2E23C3C3C3C",
"i  c #EFEF35353D3D",
"p  c #EFEF39393F3F",
"a  c #E0E03D3D4444",
"s  c #EFEF3B3B4343",
"d  c #F1F13F3F4545",
"f  c #DBDB44444444",
"g  c #DADA41414848",
"h  c #DCDC46464C4C",
"j  c #DDDD4A4A5050",
"k  c #DFDF4F4F5555",
"l  c #DBDB55555959",
"z  c #DEDE6A6A6B6B",
"x  c #E2E245454545",
"c  c #E7E743434343",
"v  c #E3E346464D4D",
"b  c #E5E54D4D5151",
"n  c #E6E64E4E5555",
"m  c #E6E64F4F5656",
"M  c #E2E255555B5B",
"N  c #E8E857575757",
"B  c #EAEA52525D5D",
"V  c #EAEA5D5D5E5E",
"C  c #EAEA5F5F5F5F",
"Z  c #ECEC59595959",
"A  c #F1F14B4B5353",
"S  c #E4E45B5B6060",
"D  c #ECEC5E5E6565",
"F  c #E5E561616464",
"G  c #E5E561616767",
"H  c #E2E26C6C6D6D",
"J  c #EDED63636666",
"K  c #ECEC66666666",
"L  c #E8E86A6A6A6A",
"P  c #EAEA6B6B6B6B",
"I  c #E8E868686D6D",
"U  c #E9E968686C6C",
"Y  c #E9E968686E6E",
"T  c #EEEE6D6D6E6E",
"R  c #EAEA6E6E7373",
"E  c #EEEE6E6E7474",
"W  c #EEEE6E6E7575",
"Q  c #ECEC71717676",
"!  c #EDED74747676",
"~  c #EFEF75757A7A",
"^  c #F0F073737373",
"/  c #F1F17A7A7A7A",
"(  c #F1F17E7E7E7E",
")  c #E8E87B7B8181",
"_  c #F1F17C7C8181",
"`  c gray75",
"'  c #EAEA83838484",
"]  c #EFEF80808484",
"[  c #E9E98B8B8B8B",
"{  c #F2F281818686",
"}  c #F0F084848A8A",
"|  c #F4F486868B8B",
" . c #F2F28B8B8F8F",
".. c #F5F58B8B9090",
"X. c #F3F390909494",
"o. c #F6F690909494",
"O. c #F4F497979696",
"+. c #F4F495959999",
"@. c #F5F599999E9E",
"#. c #F7F79E9EA2A2",
"$. c #E8E8A8A8A7A7",
"%. c #E9E9AFAFAFAF",
"&. c #ECECBDBDBEBE",
"*. c #F7F7A1A1A5A5",
"=. c #F8F8A4A4A7A7",
"-. c #F8F8A4A4A8A8",
";. c gray77",
":. c #C5C5C5C5C5C5",
">. c #CBCBCBCBCBCB",
",. c gray80",
"<. c gray83",
"1. c #E8E8C0C0C1C1",
"2. c #EEEECECECDCD",
"3. c #E8E8DDDDDBDB",
"4. c #F5F5D0D0D3D3",
"5. c #EBEBE3E3E3E3",
"6. c #EDEDE1E1E2E2",
"7. c #EDEDE6E6E6E6",
"8. c #E9E9E9E9E9E9",
"9. c gray92",
"0. c #ECECECECECEC",
"q. c gray93",
"w. c #EEEEEEEEEEEE",
"e. c #EFEFEFEFEFEF",
"r. c #F1F1ECECEDED",
"t. c #F0F0EEEEEEEE",
"y. c #F7F7EBEBEDED",
"u. c #F5F5EDEDEDED",
"i. c #F6F6EDEDEDED",
"p. c #F1F1F1F1F1F1",
"a. c gray95",
"s. c #F3F3F3F3F3F3",
"d. c #F3F3F5F5F5F5",
"f. c #F4F4F4F4F4F4",
"g. c gray96",
"h. c #F6F6F6F6F6F6",
"j. c gray97",
"k. c #F8F8F7F7F8F8",
"l. c #F9F9F9F9F9F9",
"z. c #F8F8FAFAFBFB",
"x. c gray98",
"c. c #FAFAFBFBFBFB",
"v. c #FBFBFBFBFBFB",
"b. c gray99",
"n. c #FDFDFDFDFDFD",
"m. c #FEFEFEFEFEFE",
"M. c None",
/* pixels */
"M.M.M.M.M.M.M.M.M.M.M.M.M.M.M.M.",
"M.M.M.M.M.M.M.M.M.M.M.M.M.M.M.M.",
"M.M.M.M.M.M.M.M.M.M.M.M.M.M.M.M.",
"A s d e f.f.f.s.f.s.s.q.- : - = ",
"t -.=.O.m.m.m.u.y.v.z.k.U Q R * ",
"p =.o.( m.v.z.' ) f.h.f.x n I % ",
"i *.../ v.4.2.J V 1.&.s.u h G $ ",
"t #.| ! v.U ! E I G f a.y a V # ",
"w @.{ T x.[ Z D B c H e.4 a M @ ",
"q +.( K z.u.H n b l 5.q.2 5 n + ",
"0 ..~ C h.h.e.$.%.7.q.8.1 5 j O ",
"9 ..E N h.s.a.3.5.q.q.8.< 3 h X ",
", } ] P h.f.a.t.e.q.q.q.6 h g X ",
": : - * <.,.>.>.;.;.;.` . X X X ",
"M.M.M.M.M.M.M.M.M.M.M.M.M.M.M.M.",
"M.M.M.M.M.M.M.M.M.M.M.M.M.M.M.M."
};
