/* XPM */
static char *CC_png[] = {
/* columns rows colors chars-per-pixel */
"16 16 157 2",
"   c #189D1E483B0F",
".  c #0F55176E42B4",
"X  c #0E2817FB495A",
"o  c #0C3215ED4C61",
"O  c #0E57188B4C7E",
"+  c #0EC918734D77",
"@  c #0F58190F4DF6",
"#  c #0F5019894E08",
"$  c #10C118D44131",
"%  c #106E18A6439D",
"&  c #10F8199443DB",
"*  c #1157197443B1",
"=  c #10B81A0747C0",
"-  c #17441E8246E6",
";  c #069E15C165E4",
":  c #04F2149A6A47",
">  c #04C915366B49",
",  c #065316866C36",
"<  c #076416A96BB6",
"1  c #069F17A16CAA",
"2  c #0743179A6CA3",
"3  c #07E416896E8D",
"4  c #0F061F126ED8",
"5  c #019714AB7072",
"6  c #029C16DB72A9",
"7  c #04FE16F67196",
"8  c #05901712721D",
"9  c #0599173572FE",
"0  c #060C174E726E",
"q  c #0682170A7395",
"w  c #060A178A72DC",
"e  c #072816B272DD",
"r  c #076116C17513",
"t  c #060218DD73A7",
"y  c #06A7182D72DE",
"u  c #0702191F7412",
"i  c #076B18D973B6",
"p  c #079619EA73D2",
"a  c #086217D372F9",
"s  c #09101A267439",
"d  c #0A261B737464",
"f  c #09011A797492",
"g  c #0AED1C4F7556",
"h  c #0BBD1CCC762D",
"j  c #0D131AD972CE",
"k  c #0D751F4A720D",
"l  c #0F151E087252",
"z  c #0F991F9A7A10",
"x  c #15B61D5C72F7",
"c  c #1AC61FC57302",
"v  c #1326214771C4",
"b  c #102C22D9785F",
"n  c #14F92488736D",
"m  c #110320F178BA",
"M  c #12F423357CB1",
"N  c #13F1250C7AC9",
"B  c #176726A37D66",
"V  c #1AF2216B752B",
"C  c #188D26E87BFD",
"Z  c #1E2327737937",
"A  c #199829627E7E",
"S  c #1DFB29A1787B",
"D  c #1D3728717AF7",
"F  c #1C712AF97E86",
"G  c #1EA72BAC7D4C",
"H  c #2D38323251DE",
"J  c #33E338815708",
"K  c #2567300F670C",
"L  c #219B2CB66B52",
"P  c #253D23CA74E0",
"I  c #27F92A0C7965",
"U  c #391528196B5D",
"Y  c #350431077BC5",
"T  c #3CED41CB5C8D",
"R  c #4C3C4F516447",
"E  c #76564E7C7CE6",
"W  c #25F634288536",
"Q  c #2EF138868896",
"!  c #312D3C7E8327",
"~  c #354E40C18AD6",
"^  c #3C4549B08CC0",
"/  c #40734BCB8F56",
"(  c #41BF4D899299",
")  c #44AF4E46947A",
"_  c #435851299262",
"`  c #42EC505393C9",
"'  c #4B7E572A990D",
"]  c #4D0758ED98DF",
"[  c #4D8659689994",
"{  c #4E3559F599B6",
"}  c #52435BF79C12",
"|  c #59455A5F9386",
" . c #582D64719E08",
".. c #58AA62DF9DD7",
"X. c #5AB5664C9FC9",
"o. c #5C0E654EA21E",
"O. c #744256E18908",
"+. c #96ED5BB2775A",
"@. c #C68E54E25D48",
"#. c #DD0368F36964",
"$. c #DD8070666F79",
"%. c #E6404FB348D1",
"&. c #E79B54EF4BB6",
"*. c #E2CC5D3D5D62",
"=. c #EB6065C35F7F",
"-. c #EE216834640D",
";. c #9D5B6F2D8D5B",
":. c #97BA77B19932",
">. c #846D7768A48B",
",. c #A3076C2A8DA4",
"<. c #CBFF7989821A",
"1. c #D6987FA6823E",
"2. c #880183B0ACAF",
"3. c #882A8EE4B458",
"4. c #91DD878BAC49",
"5. c #9EA39E54BEFC",
"6. c #AB308FDEA82E",
"7. c #B6FE93B5AB88",
"8. c #C02F9FFEB3B8",
"9. c #B7A8A24AB805",
"0. c #B80AA377B791",
"q. c #B0FDA505C044",
"w. c #B4DDB6E2CD9C",
"e. c #B69FBA0AD1C5",
"r. c #D04A8B8C94EF",
"t. c #DA8E814B839A",
"y. c #DB74890D8CB7",
"u. c #D4B1902598A6",
"i. c #D5209107964D",
"p. c #CC689636A1B9",
"a. c #C8D5A84FB8E2",
"s. c #CF84A9D8B436",
"d. c #D689B23ABACA",
"f. c #E33295CA9A12",
"g. c #E89AAD9FAD7C",
"h. c #E958A9AEAB64",
"j. c #CEE6CFB2D397",
"k. c #CF6AD037D3C2",
"l. c #CF7AD04AD3FB",
"z. c #D12FD1ACD4BF",
"x. c #D17DD1EDD4DE",
"c. c #D19AD244D611",
"v. c #D2A7D411DB31",
"b. c #CDD4D042E0ED",
"n. c #CF42D338E1F4",
"m. c #D093D359E21E",
"M. c #D0F0D3ECE2BF",
"N. c #D121D4C9E3D3",
"B. c #D23CD47AE32A",
"V. c #DBD3D970E3ED",
"C. c #DB0FDBAFE6D9",
"Z. c #E65EDDEDE4A6",
"A. c #E8A9E916EE76",
"S. c #EE01E165E4BC",
"D. c #F3EBE66CE7EE",
"F. c #F97CEEC2ED68",
"G. c gray100",
/* pixels */
"G.G.G.G.G.G.G.G.G.G.G.G.G.G.G.G.",
"G.G.G.G.G.G.G.G.G.G.G.G.G.G.G.G.",
"F.A.n.Z.S.N.V.D.C.M.N.N.N.B.n.w.",
"9.d.5.7.p.4.s.q.o.] ] ..X.] ( L ",
"6.u.h.y.$.f.g.:.I f y ` } r 3 + ",
"1.#.=.&.%.-.*.@.U > 7 N B M l + ",
"2.8.r.<.t.a.i.O.V B F r > ' ! o ",
"0.,.Y E +.Q >.;.P ~ ) r z F 4 + ",
"| Z y x V r h F h h h u W A : o ",
"( b h ^ ..x 7 7 u y u 7 h u 2 # ",
"^ l > 3.w.S > 1 1 1 1 v n 1 ; X ",
"K = % T R - & $ & & . H J & $   ",
"v.k.k.k.k.k.k.k.k.k.k.c.c.k.k.c.",
"G.G.G.G.G.G.G.G.G.G.G.G.G.G.G.G.",
"G.G.G.G.G.G.G.G.G.G.G.G.G.G.G.G.",
"G.G.G.G.G.G.G.G.G.G.G.G.G.G.G.G."
};
