/* XPM */
static const char *CD_xpm[] = {
/* columns rows colors chars-per-pixel */
"16 16 117 2",
"   c black",
".  c #00008484B2B2",
"X  c #00008686B2B2",
"o  c #00008686B4B4",
"O  c #00008888B4B4",
"+  c #00008989B6B6",
"@  c #00008989B9B9",
"#  c #00008D8DBFBF",
"$  c #00009292C1C1",
"%  c #00009494C4C4",
"&  c #00009898CBCB",
"*  c #0000B2B2E8E8",
"=  c #0000B4B4EDED",
"-  c #0000B9B9F4F4",
";  c #0000BDBDF8F8",
":  c #0000BFBFFBFB",
">  c #3D3DFFFFA0A0",
",  c #0000C1C1FDFD",
"<  c #0202C4C4FFFF",
"1  c #0404C8C8FFFF",
"2  c #0505CACAFFFF",
"3  c #0505CBCBFFFF",
"4  c #0505CFCFFFFF",
"5  c #0707FFFFF6F6",
"6  c #4848B1B1D1D1",
"7  c #4949B2B2D3D3",
"8  c #4949B3B3D4D4",
"9  c #4A4AB4B4D6D6",
"0  c #4A4AB5B5D6D6",
"q  c #4A4AB6B6D7D7",
"w  c #4B4BB7B7D9D9",
"e  c #4B4BB8B8DADA",
"r  c #6161BABAD4D4",
"t  c #6161BBBBD4D4",
"y  c #6262BBBBD5D5",
"u  c #6262BCBCD5D5",
"i  c #6262BDBDD7D7",
"p  c #6363BEBED9D9",
"a  c #6363BFBFDADA",
"s  c #4E4EC8C88484",
"d  c #5454CECEF4F4",
"f  c #5555D0D0F7F7",
"g  c #5555D1D1F8F8",
"h  c #5656D3D3FAFA",
"j  c #5757D4D4FBFB",
"k  c #5757D5D5FDFD",
"l  c #5858D7D7FFFF",
"z  c #6464C0C0DBDB",
"x  c #6565C2C2DDDD",
"c  c #6666C4C4E0E0",
"v  c #6C6CD4D4F3F3",
"b  c #6D6DD7D7F8F8",
"n  c #6E6ED9D9FAFA",
"m  c #6F6FDBDBFDFD",
"M  c #6F6FDCDCFEFE",
"N  c #7070DEDEFFFF",
"B  c #7070E0E0FFFF",
"V  c #7171E0E0FFFF",
"C  c #B2B200000000",
"Z  c #B8B800000000",
"A  c #C1C100000000",
"S  c #C4C400000000",
"D  c #C8C800000000",
"F  c #CACA00000000",
"G  c #F2F200000E0E",
"H  c #F4F400000E0E",
"J  c #F5F500000F0F",
"K  c #F6F600000F0F",
"L  c #F7F700000F0F",
"P  c #F8F800000F0F",
"I  c #F9F900000F0F",
"U  c #FCFC00000F0F",
"Y  c #FEFE00000F0F",
"T  c #FFFF00000F0F",
"R  c #FFFF00001010",
"E  c #FFFF00001111",
"W  c #FFFF37370D0D",
"Q  c #FFFF38380D0D",
"!  c #F5F525252828",
"~  c #FEFE25252929",
"^  c #FFFF25252A2A",
"/  c #C8C862620000",
"(  c #FFFF53532626",
")  c #FFFF56562727",
"_  c #FFFF63631919",
"`  c #FFFF64641919",
"'  c #FFFF65651919",
"]  c #FFFF78783131",
"[  c #B8B8B6B60000",
"{  c #C1C1DADA0707",
"}  c yellow",
"|  c #FFFFFFFF0A0A",
" . c #FFFFFDFD1010",
".. c #FFFFFFFF1010",
"X. c #FFFFFFFF1111",
"o. c #FFFFFFFF1212",
"O. c #FFFFFFFF2323",
"+. c #FFFFFBFB2A2A",
"@. c #FFFFFFFF2B2B",
"#. c #EFEFFFFF6F6F",
"$. c #BCBCEEEE8484",
"%. c #BDBDEFEF8585",
"&. c #BFBFF1F18686",
"*. c #B2B2EEEEACAC",
"=. c #B4B4EFEFABAB",
"-. c #B3B3F8F8A1A1",
";. c #BBBBF6F6AAAA",
":. c #B9B9FBFBB6B6",
">. c #BCBCFCFCB7B7",
",. c #C5C5EFEF9191",
"<. c #C5C5F1F19090",
"1. c #C6C6F3F39191",
"2. c #CCCCF1F19B9B",
"3. c #C3C3F6F6B2B2",
"4. c #C9C9FDFDB7B7",
"5. c #F6F6FFFF8181",
"6. c None",
/* pixels */
"6.6.6.6.6.6.6.6.6.6.6.6.6.6.6.6.",
"6.6.6.6.6.6.6.6.6.6.6.6.6.6.6.6.",
"6.6.6.6.6.6.6.6.6.6.6.6.6.6.6.6.",
"4 4 > 4 4 2 2 2 , ; - = * { D A ",
"4 >.O.:.B B N m b b v 2.@.( ! C ",
"5 @.o.o.-.l j g d <.o.W J G ^ Z ",
"4 5.o.#.k g g 1.o.W L J T T ] [ ",
"2 4.l ;.g *.o.W I J T T _ o.,.# ",
"< m g =.o.Q T I T T _ o.$.9 z + ",
", 3.| Q T L T T ' o.&.q 9 9 i O ",
"} ) I I T T ' o.&.e q 9 7 6 y . ",
"D T E E ' o.&.e e e q 9 7 6 y . ",
"D ^ ' | &.c c c x x z y y y y . ",
"S / s & & & % $ $ + O O . . . . ",
"6.6.6.6.6.6.6.6.6.6.6.6.6.6.6.6.",
"6.6.6.6.6.6.6.6.6.6.6.6.6.6.6.6."
};
