/* XPM */
static char *CD_png[] = {
/* columns rows colors chars-per-pixel */
"16 16 83 1",
"  c #0D4F24453B2F",
". c #0D1625193DD1",
"X c #0D5D254A3DB5",
"o c #14E9259B365D",
"O c #19DB2EA43DD1",
"+ c #083924B44143",
"@ c #087A26AF4533",
"# c #08E3271F4558",
"$ c #08EB27424596",
"% c #00002CED5A47",
"& c #00002FDE6000",
"* c #0000305B6043",
"= c #036E30B35FB3",
"- c #00002E0E614B",
"; c #007A2F1960CB",
": c #00002FFB6076",
"> c #00002E2169BB",
", c #00002FAA68BE",
"< c #00C430D760D5",
"1 c #000030EF67EA",
"2 c #00003179680A",
"3 c #000032C46646",
"4 c #00003341665B",
"5 c #000032A766B5",
"6 c #0000336166B0",
"7 c #01E9345C6786",
"8 c #028834E567C9",
"9 c #025D353967B0",
"0 c #061834556611",
"q c #0A01372D6423",
"w c #0A273663649A",
"e c #0F6B3B076197",
"r c #16CC3C1D61E2",
"t c #179240B9625F",
"y c #1D9447BB67E2",
"u c #1F00481E66AE",
"i c #1F4F4830669A",
"p c #19A9455568C9",
"a c #189D451A6B5B",
"s c #1C2E45EE686F",
"d c #23B146AC59E1",
"f c #259942BD5BDD",
"g c #24A346EE59BD",
"h c #282F49B4584C",
"j c #2B254BF55637",
"k c #2A2C4A555815",
"l c #343E4FE65459",
"z c #3ED2573A4FA9",
"x c #3C66539951A7",
"c c #3D5960B97F83",
"v c #70AE752C3C75",
"b c #433158494F2F",
"n c #4BC45BAA4C4B",
"m c #60FD6BF142EB",
"M c #3A7061968870",
"N c #434466CA86E8",
"B c #468C684F85C8",
"V c #453A687F855E",
"C c #480469658586",
"Z c #49F66B2583EC",
"A c #484E68C384C6",
"S c #46F76B6E913F",
"D c #47516C1F9125",
"F c #47ED6CAE9197",
"G c #57CC77B6933A",
"H c #6FE28AC8A385",
"J c #8ED3888B2E7E",
"K c #9BFC90912910",
"L c #C30CA93819E7",
"P c #CC70AEEC16C0",
"I c #EBA3C62308F0",
"U c #F2A4CB710583",
"Y c #ACE9BD86CE29",
"T c #C83AD37EDE97",
"R c #CEAFD120D3DD",
"E c #CF32D142D34E",
"W c #D06DD552DA57",
"Q c #D10DD346D57E",
"! c #CCB5D6D1E14A",
"~ c #CCD5D6EAE162",
"^ c #CF14D896E292",
"/ c #D4BDDD0BE62B",
"( c gray100",
/* pixels */
"((((((((((((((((",
"((((((((((((((((",
"/^!!!!!!!!!!!!TY",
"HGSDDDDDDDDDDDMr",
"Na309998899989<@",
"Va3333>gj>3339&@",
"Zy333wbJKne339&@",
"Vy3330mIUvw333<@",
"Au3332gLPx>933&@",
"Ay3332jblh2339&@",
"ct&&-<&---<&&&%+",
"fOXXXXXXXXXXXX o",
"WREEEEEEEEEEEEEQ",
"((((((((((((((((",
"((((((((((((((((",
"(((((((((((((((("
};
