/* XPM */
static const char *CF_xpm[] = {
/* columns rows colors chars-per-pixel */
"16 16 160 2",
"   c black",
".  c #00001D1D0000",
"X  c #000023230000",
"o  c #00005A5A0000",
"O  c #00005E5E0000",
"+  c #0C0C6D6D0C0C",
"@  c #00000000CECE",
"#  c #00000C0CCECE",
"$  c #00001010D3D3",
"%  c #00001616D7D7",
"&  c #00001C1CD9D9",
"*  c #00001F1FDCDC",
"=  c #00002525DEDE",
"-  c #09092F2FD8D8",
";  c #00002424E3E3",
":  c #00002929E1E1",
">  c #02023030E7E7",
",  c #05053C3CE7E7",
"<  c #0A0A3B3BE8E8",
"1  c #0A0A3C3CE9E9",
"2  c #0A0A3E3EE9E9",
"3  c #0C0C3E3EE8E8",
"4  c #0C0C3E3EE9E9",
"5  c #101096961010",
"6  c #141493931414",
"7  c #141499991414",
"8  c #191995951919",
"9  c #191996961919",
"0  c #1F1F98981F1F",
"q  c #3F3F8F8F0000",
"w  c #24249B9B2424",
"e  c #2A2A9E9E2A2A",
"r  c #3333A5A53232",
"t  c #3636A2A23636",
"y  c #3434AFAF3434",
"u  c #3A3AB2B23A3A",
"i  c #3B3BB2B23A3A",
"p  c #4040B4B43F3F",
"a  c #7474BCBC0000",
"s  c #4A4AA7A74A4A",
"d  c #4040B5B54040",
"f  c #4545B7B74545",
"g  c #4949B9B94949",
"h  c #4949BABA4949",
"j  c #4F4FBCBC4F4F",
"k  c #6A6AC7C76A6A",
"l  c #6F6FC8C86F6F",
"z  c #5D5D8282F1F1",
"x  c #62628686F2F2",
"c  c #66668989F4F4",
"v  c #6B6B8D8DF5F5",
"b  c #6F6F9090F6F6",
"n  c #74749393F2F2",
"m  c #77779E9EF2F2",
"M  c #7A7A9F9FF4F4",
"N  c #7B7B9999F8F8",
"B  c #7D7D9C9CF9F9",
"V  c #7F7FA3A3F5F5",
"C  c #7F7FA1A1F9F9",
"Z  c #D8D800000000",
"A  c #DADA00000000",
"S  c #F0F000000000",
"D  c #F3F300000000",
"F  c #F5F523232323",
"G  c #F6F629292929",
"H  c #F6F62A2A2A2A",
"J  c #F7F72F2F2F2F",
"K  c #F8F835353535",
"L  c #F8F836363636",
"P  c #F9F93B3B3B3B",
"I  c #F9F93B3B3C3C",
"U  c #F6F642424242",
"Y  c #F7F746464646",
"T  c #FAFA41414141",
"R  c #FAFA41414242",
"E  c #FBFB47474747",
"W  c #FCFC4C4C4C4C",
"Q  c #FCFC69696969",
"!  c #FDFD6D6D6D6D",
"~  c #BBBBBBBB0202",
"^  c #AAAAD5D50B0B",
"/  c #ACACD6D60E0E",
"(  c #AEAED7D71313",
")  c #B0B0DADA1919",
"_  c #B3B3DCDC1E1E",
"`  c #B6B6DADA2F2F",
"'  c #BABAE1E12E2E",
"]  c #BCBCE2E23434",
"[  c #BFBFE2E23A3A",
"{  c #C2C2C2C20000",
"}  c #C4C4C4C40000",
"|  c #CCCCCCCC0000",
" . c #CDCDCDCD0000",
".. c #CECECECE0000",
"X. c #D1D1D1D10000",
"o. c #D3D3D3D30000",
"O. c #D4D4D4D40000",
"+. c #D6D6D6D60000",
"@. c #DDDDDDDD0000",
"#. c #DFDFDFDF0000",
"$. c #DFDFE2E20000",
"%. c #C1C1E4E43F3F",
"&. c #F2F2F2F22C2C",
"*. c #F2F2F2F22F2F",
"=. c #F2F2F2F23232",
"-. c #F3F3F3F33535",
";. c #F4F4F4F43939",
":. c #F5F5F5F53D3D",
">. c #C3C3E5E54444",
",. c #CECEEAEA6666",
"<. c #F7F7F7F74B4B",
"1. c #F8F8F8F85050",
"2. c #F9F9F9F95555",
"3. c #F9F9F9F95858",
"4. c #FAFAFAFA5D5D",
"5. c #EDEDEDED7E7E",
"6. c #FBFBFBFB6262",
"7. c #FFFFFFFF7F7F",
"8. c #B7B7B7B7B7B7",
"9. c #8282A5A5F6F6",
"0. c #8181A0A0F9F9",
"q. c #8585A8A8F7F7",
"w. c #8A8AA5A5F8F8",
"e. c #9393ACACFAFA",
"r. c #9494B3B3FAFA",
"t. c #9797B5B5FAFA",
"y. c #9C9CB3B3FBFB",
"u. c #8787C8C88787",
"i. c #8B8BCACA8B8B",
"p. c #8E8ECBCB8E8E",
"a. c #9898CFCF9898",
"s. c #9090D1D19191",
"d. c #9494D3D39494",
"f. c #9D9DD8D89D9D",
"g. c #A0A0DADAA1A1",
"h. c #A3A3D8D8A3A3",
"j. c #A6A6DADAA6A6",
"k. c #A9A9DBDBA9A9",
"l. c #B9B9E2E2B9B9",
"z. c #EDEDEDED8F8F",
"x. c #E4E4E4E49999",
"c. c gray77",
"v. c #E4E4E4E4E4E4",
"b. c #E4E4E4E4E9E9",
"n. c #F4F4F4F4F4F4",
"m. c #F4F4F4F4F5F5",
"M. c gray96",
"N. c #F5F5F5F5F6F6",
"B. c #F6F6F6F6F6F6",
"V. c gray97",
"C. c #F8F8F8F8F8F8",
"Z. c #F9F9F9F9F9F9",
"A. c #FBFBFBFBFBFB",
"S. c #FBFBFBFBFEFE",
"D. c gray99",
"F. c #FCFCFCFCFDFD",
"G. c #FDFDFCFCFDFD",
"H. c #FDFDFDFDFDFD",
"J. c #FEFEFEFEFEFE",
"K. c None",
/* pixels */
"K.K.K.K.K.K.K.K.K.K.K.K.K.K.K.K.",
"K.K.K.K.K.K.K.K.K.K.K.K.K.K.K.K.",
"K.K.K.K.K.K.K.K.K.K.K.K.K.K.K.K.",
"- 4 ~ 1 2 2 : D S ; : = * * % $ ",
"4 x.7.z.t.r.e.! Q w.q.9.V M m # ",
"< y.5.0.V B N W E b v c x z n @ ",
"b.J.S.S.S.S.A.E T Z.C.V.N.N.N.c.",
"v.J.J.J.S.J.A.T P C.V.N.N.N.N.8.",
"s l.k.j.g.g.f.P L d.s.p.i.u.a.+ ",
"O l j g f p i L J e w 0 9 6 t . ",
"o k g f d i y J H w 0 9 7 5 r X ",
"a ,.>.%.[ ] ' H F _ ) ( / ^ ` q ",
"} 6.4.3.2.1.<.Y T :.;.-.=.*.*.| ",
"{ } ..O.$.$.@.A Z +.X.X.....| | ",
"K.K.K.K.K.K.K.K.K.K.K.K.K.K.K.K.",
"K.K.K.K.K.K.K.K.K.K.K.K.K.K.K.K."
};
