/* XPM */
static char *CG_png[] = {
/* columns rows colors chars-per-pixel */
"16 16 123 2",
"   c #5D32203D1A5A",
".  c #708A1CC414A9",
"X  c #75A91C4D1535",
"o  c #75C71DA51513",
"O  c #76061DAC1519",
"+  c #7DF54A221162",
"@  c #71E274A50DA3",
"#  c #2ED897D00000",
"$  c #2FB698600000",
"%  c #311E990B0000",
"&  c #32CF99650000",
"*  c #333B99960000",
"=  c #334C99A50000",
"-  c #33029A0F0266",
";  c #348F9A7901C7",
":  c #35109AC10266",
">  c #35ED9AEA0266",
",  c #38769B3D0000",
"<  c #3A459C120000",
"1  c #39A19DBC0C47",
"2  c #3D369E9C0C17",
"3  c #3D4E9EA50C29",
"4  c #3EF19F5A0E65",
"5  c #459C9F9F0000",
"6  c #5113885E1A36",
"7  c #4AD4A1850000",
"8  c #513AA3F90000",
"9  c #5663AB1F3096",
"0  c #653FA5EA0897",
"q  c #7EE8B3EC0266",
"w  c #6202B0BC3A2A",
"e  c #6246B1003AB4",
"r  c #6283B13E3AE4",
"t  c #6B2FB5E54752",
"y  c #6BC6B5FA46E0",
"u  c #6C23B62D4752",
"i  c #72F9B9424FAA",
"p  c #83C71B37119A",
"a  c #8C13196B1292",
"s  c #8B091CD5131B",
"d  c #8BB61D02132A",
"f  c #857674470DA9",
"g  c #862776090D60",
"h  c #880777090D5B",
"j  c #C3FC1DB50EBB",
"k  c #CFBD1E7B1019",
"l  c #CFC01FEA101A",
"z  c #D0AF201A102A",
"x  c #D0F91DF00FE7",
"c  c #D1471FA30FD4",
"v  c #D1FD1FBF0FE7",
"b  c #DDBD1CE51182",
"n  c #DD5E1F5C1159",
"m  c #DE481FCE1140",
"M  c #D21222BE0F75",
"N  c #DDE02232110F",
"B  c #DEB1225C1121",
"V  c #DF7D22671134",
"C  c #DF912616108E",
"Z  c #DF842A5F1031",
"A  c #E02C2D6F102F",
"S  c #E20B3A8E0F09",
"D  c #D9964DF10C93",
"F  c #C26761F01EF1",
"G  c #DE3868370942",
"H  c #E5BD488A0DAD",
"J  c #94C6BACE0000",
"K  c #9DB1BDF80000",
"L  c #AD09C3490000",
"P  c #B944C7870000",
"I  c #8742C3AA6926",
"U  c #A652CA004752",
"Y  c #EF1C84220891",
"T  c #F01083AB08AB",
"R  c #F155904E07AF",
"E  c #F4AAA22805D3",
"W  c #F64CADC204CC",
"Q  c #C3B0C3350000",
"!  c #C520CCC50000",
"~  c #EED2C6C300F7",
"^  c #EFF2D2180000",
"/  c #EB61D96B0266",
"(  c #FBBEC6DA04FC",
")  c #F1A9D1670000",
"_  c #F158D2F90000",
"`  c #F142DAED0000",
"'  c #F8DDDD740000",
"]  c #FE62D7EA0112",
"[  c #F956DD510000",
"{  c #FE8DDC6E00C3",
"}  c #FD6EDEF60000",
"|  c #FF54DEA7006A",
" . c #FFFFDE830000",
".. c #FFFFDE6C0260",
"X. c #FF2EDFCF0000",
"o. c #FFFFDF350000",
"O. c #FFFFDFF80000",
"+. c #FFFFDF370266",
"@. c #F83FC9A93D28",
"#. c #FFFBE2230000",
"$. c #FFFFE11C0000",
"%. c #FFFFE2A4024C",
"&. c #EF94E3164752",
"*. c #FFFFE7844753",
"=. c #FFFFEA2B47D5",
"-. c #FC55E3D8AECE",
";. c #D80BD08DCFD7",
":. c #D923D651CF5C",
">. c #D974D813CF31",
",. c #DAF1D924CF2C",
"<. c #DA9BD299D1B9",
"1. c #D6D1EB69CCB5",
"2. c #D57AEAFCCCCF",
"3. c #D65BEB43CCCF",
"4. c #D6E7EB70CCCF",
"5. c #D8A2EC6ACEEF",
"6. c #DECEE1EAD0E1",
"7. c #DD21EE91D49D",
"8. c #ED9DF319CCCF",
"9. c #FFFFFB44C820",
"0. c #FFF8F970CCCF",
"q. c #FFFFF94ACCF2",
"w. c gray100",
/* pixels */
"w.w.w.w.w.w.w.w.w.w.w.w.w.w.w.w.",
"w.w.w.w.w.w.w.w.w.w.w.w.w.w.w.w.",
"7.5.1.1.1.1.1.1.1.1.8.q.q.q.9.-.",
"I i y u u u u u y U &.*.*.=.@.F ",
"r 4 ; ; ; ; % ; q /  . .%.( D a ",
"r 4 % ; ; % < J /  . .%.W H k a ",
"r 2 % % % < K [  . . .E S b l s ",
"w 2 % $ 5 L [  . . .R A N N l s ",
"r 4 $ 7 P  . . . .Y Z N N V k d ",
"r 1 8 !  . .%.] Y C b N N V M d ",
"9 0 Q ^ ^ ^ ~ G M k k M k k j p ",
"6 @ g g g g + X X X X X X X .   ",
"6.>.:.>.>.:.;.;.;.;.;.;.<.;.;.<.",
"w.w.w.w.w.w.w.w.w.w.w.w.w.w.w.w.",
"w.w.w.w.w.w.w.w.w.w.w.w.w.w.w.w.",
"w.w.w.w.w.w.w.w.w.w.w.w.w.w.w.w."
};
