/* XPM */
static const char *CH_xpm[] = {
/* columns rows colors chars-per-pixel */
"16 16 66 1",
"  c black",
". c #E3E300000000",
"X c #E5E500000000",
"o c #E7E700000000",
"O c #E9E900000000",
"+ c #EBEB00000000",
"@ c #EDED00000000",
"# c #EFEF00000000",
"$ c #F1F100000000",
"% c #F3F300000000",
"& c #F5F500000000",
"* c #F7F700000000",
"= c #F9F900000000",
"- c #FBFB00000000",
"; c #FDFD00000000",
": c red",
"> c #F5F523232323",
", c #F6F629292929",
"< c #F6F62A2A2A2A",
"1 c #F7F72F2F2F2F",
"2 c #F5F53D3D3D3D",
"3 c #FAFA3F3F3F3F",
"4 c #F6F642424242",
"5 c #F7F746464646",
"6 c #F7F747474747",
"7 c #FAFA41414242",
"8 c #FAFA44444444",
"9 c #FBFB45454545",
"0 c #FBFB47474747",
"q c #FBFB49494949",
"w c #FCFC4C4C4C4C",
"e c #F7F750505050",
"r c #F8F857575858",
"t c #F9F958585858",
"y c #F9F958585959",
"u c #F8F85B5B5B5B",
"i c #F9F95B5B5B5B",
"p c #FAFA5B5B5B5B",
"a c #FAFA5D5D5D5D",
"s c #FEFE59595959",
"d c #FEFE5C5C5C5C",
"f c #FEFE5F5F5F5F",
"g c #FBFB60606060",
"h c #FBFB61616262",
"j c #FCFC65656565",
"k c #FCFC66666666",
"l c #FCFC69696969",
"z c #FCFC6A6A6A6A",
"x c #FDFD6D6D6D6D",
"c c #FDFD72727272",
"v c #FDFD75757575",
"b c #FEFE79797979",
"n c #FEFE7A7A7A7A",
"m c #FFFF7B7B7A7A",
"M c #FFFF7B7B7B7B",
"N c gray97",
"B c #F8F8F8F8F8F8",
"V c #F9F9F9F9F9F9",
"C c gray98",
"Z c #FBFBFBFBFBFB",
"A c #FBFBFCFCFBFB",
"S c gray99",
"D c #FDFDFCFCFDFD",
"F c #FDFDFDFDFDFD",
"G c #FEFEFEFEFEFE",
"H c None",
/* pixels */
"HHHHHHHHHHHHHHHH",
"HHHHHHHHHHHHHHHH",
"HHHHHHHHHHHHHHHH",
"HHH::::::::==*HH",
"HHH:MMMMMvxzj*HH",
"HHH:MfsGGGw0g%HH",
"HHH:MfsGGV07i%HH",
"HHH:vGGSGVVVi#HH",
"HHH:MGGGVVVVu#HH",
"HHH:xGVVGVNNeOHH",
"HHH=zq8VVV1,6OHH",
"HHH*j03VNN,>4oHH",
"HHH*gaiuuw642oHH",
"HHH*%%###OOoo.HH",
"HHHHHHHHHHHHHHHH",
"HHHHHHHHHHHHHHHH"
};
