/* XPM */
static char *CH_xpm[] = {
/* columns rows colors chars-per-pixel */
"16 16 103 2",
"   c #76AD10160D91",
".  c #82DA13AC10B3",
"X  c #928F12980F91",
"o  c #8354235920A9",
"O  c #836626FF2455",
"+  c #83B3387C36C2",
"@  c #83B6394C3754",
"#  c #881650EC4F6B",
"$  c #A44D490C4710",
"%  c #A9CB4A6D4834",
"&  c #AADB49B3474C",
"*  c #AA454A93487F",
"=  c #AA0F4D5D4BDB",
"-  c #AA134E2F4CA0",
";  c #AA204EF74DC0",
":  c #CFF5063E01F4",
">  c #DE8B076502E8",
",  c #DCF60E440AB3",
"<  c #DE0316A41255",
"1  c #EB9D065400EF",
"2  c #EC03083B0312",
"3  c #F9E609DD04A6",
"4  c #FAB30B760670",
"5  c #FA5511F90F40",
"6  c #F1D8178212FC",
"7  c #FB0C14831135",
"8  c #FA631F0D1A7D",
"9  c #FB4D1F8A1A4E",
"0  c #FA8221391CDA",
"q  c #FBFD22831DA9",
"w  c #FB4826B72246",
"e  c #F3DA3A1C3618",
"r  c #D2CE52674F95",
"t  c #D7EF59985732",
"y  c #DFAA72026F89",
"u  c #FBC9506E4CD6",
"i  c #FC0651414DDC",
"p  c #FBD65BC5583E",
"a  c #FBE45F425BDE",
"s  c #FC1362105E11",
"d  c #ED3F66B46103",
"f  c #EE297861744B",
"g  c #FC4965C061F4",
"h  c #FBAB6B83658A",
"j  c #FC486D0B69E5",
"k  c #FC4D6E036B0E",
"l  c #FC4470D76DDC",
"z  c #FC4971EB6EF3",
"x  c #FC6375217234",
"c  c #FC5775AF72C4",
"v  c #FCBD79AC75F0",
"b  c #FCCD7A837667",
"n  c #FC517C457809",
"m  c #FC987D187A2C",
"M  c #FCB27D947915",
"N  c #FD2E84097EB6",
"B  c #E03488508684",
"V  c #E0CA9FDC9E62",
"C  c #FD658EE38B07",
"Z  c #FE2495899200",
"A  c #FD0E94EE92C0",
"S  c #FE19B127AFA1",
"D  c #FF11BA34B8DE",
"F  c #FE36C09DBF2A",
"G  c #D91ACDB3CDC0",
"H  c #D91DCECBCE97",
"J  c #D91DCEEBCEB7",
"K  c #D8F2CF2BCECE",
"L  c #D914CFE1CF89",
"P  c #DB07CF3CCEE1",
"I  c #E4A9DCEDDCA7",
"U  c #F071DACBD98D",
"Y  c #EF63DD45DCE9",
"T  c #F0B2DED6DDD9",
"R  c #FEC4C690C510",
"E  c #FEAECC35CB44",
"W  c #FEB9CE2DCCF8",
"Q  c #FEC0CFC1CE83",
"!  c #FEBFCFFDCEC5",
"~  c #FEB9D224D112",
"^  c #FF01D4F3D401",
"/  c #FEECD7C4D619",
"(  c #FF5ADCD5DBBE",
")  c #FFFFDF90DEDC",
"_  c #FF13E100E065",
"`  c #FF1FE318E0F8",
"'  c #FF6BE731E52B",
"]  c #FF88ECBCEBD3",
"[  c #FFA9EEC1EE1B",
"{  c #FFBBF8AEF863",
"}  c #FCEBFBCCFBCF",
"|  c #FCEEFC8DFC8B",
" . c #FD5EFCDBFCD7",
".. c #FE02FC50FC48",
"X. c #FFBCFBC7FAEF",
"o. c #FFD8FC00FB6E",
"O. c #FFEEFDF4FDE6",
"+. c #FFEEFE5CFE40",
"@. c #FFFFFD84FD77",
"#. c #FFD4FF64FF57",
"$. c #FFFFFFC9FFB6",
"%. c #FFFFFFFFFFC9",
"&. c gray100",
/* pixels */
"&.&.&.&.&.&.&.&.&.&.&.&.&.&.&.&.",
"&.&.&.&.&.&.&.&.&.&.&.&.&.&.&.&.",
"&.&.&.) ! W W E E W W R F &.&.&.",
"&.&.&.A a u s b b g u e r &.&.&.",
"&.&.o.x 8 3 h ) ' M 3 > & } &.&.",
"&.&.&.x 0 5 b o.&.C 7 , $ o.&.&.",
"&.&.&.l a S / &.&.( D y = } &.&.",
"&.&.&.k m { &.&.&.&.&.V - } &.&.",
"&.&.&.k k ^ ] &.&.[ ) B - } &.&.",
"&.&.&.x w 8 N o.&.A q < % &.&.&.",
"&.&.&.k 6 1 d U T f 2 : $ } &.&.",
"&.&...t X . o @ @ O .   # o.&.&.",
"&.&.&.U K G L G G G G G I &.&.&.",
"&.&.&.&.&.&.&.&.&.&.&.&.&.&.&.&.",
"&.&.&.&.&.&.&.&.&.&.&.&.&.&.&.&.",
"&.&.&.&.&.&.&.&.&.&.&.&.&.&.&.&."
};
