/* XPM */
static const char *CI_xpm[] = {
/* columns rows colors chars-per-pixel */
"16 16 122 2",
"   c black",
".  c #000081810000",
"X  c #000083830000",
"o  c #000087870000",
"O  c #000089890000",
"+  c #00008B8B0000",
"@  c #00008F8F0000",
"#  c #000093930000",
"$  c #000097970000",
"%  c #00009B9B0000",
"&  c #00009D9D0000",
"*  c #0000A7A70000",
"=  c #0000A9A90000",
"-  c #0000ABAB0000",
";  c #0000AFAF0000",
":  c #0000B1B10000",
">  c #0B0BC2C20B0B",
",  c #0F0FC4C40E0E",
"<  c #1010C4C41010",
"1  c #1313C5C51313",
"2  c #1414C6C61414",
"3  c #1919C7C71919",
"4  c #1919C8C81919",
"5  c #1A1AC8C81A1A",
"6  c #1F1FC9C91F1F",
"7  c #1F1FCACA1F1F",
"8  c #2020CACA2020",
"9  c #2525CBCB2525",
"0  c #2525CCCC2525",
"q  c #2626CDCD2626",
"w  c #2B2BCDCD2B2B",
"e  c #2B2BCECE2B2B",
"r  c #2C2CCACA2C2C",
"t  c #2F2FCACA2F2F",
"y  c #2F2FCBCB2F2F",
"u  c #2C2CCECE2C2C",
"i  c #3131CFCF3131",
"p  c #3232CCCC3232",
"a  c #3333CCCC3232",
"s  c #3535CDCD3535",
"d  c #3636CDCD3636",
"f  c #3B3BCFCF3B3B",
"g  c #3131D0D03131",
"h  c #3737D1D13737",
"j  c #3F3FD2D23F3F",
"k  c #4444D3D34444",
"l  c #4949D5D54949",
"z  c #4E4ED7D74E4E",
"x  c #5353D8D85353",
"c  c #5858D9D95757",
"v  c #5C5CDADA5C5C",
"b  c #EDED53530000",
"n  c #EFEF5B5B0000",
"m  c #F1F163630000",
"M  c #F3F367670000",
"N  c #F7F76F6F0000",
"B  c #F5F575750000",
"V  c #F9F977770000",
"C  c #FBFB7B7B0000",
"Z  c #FDFD7F7F0000",
"A  c #FDFD83830000",
"S  c #FDFD87870000",
"D  c #FFFF85850000",
"F  c #FFFF87870000",
"G  c #FFFF89890000",
"H  c #FFFF91910000",
"J  c #F9F9AAAA3A3A",
"K  c #FAFAADAD3F3F",
"L  c #FAFAAEAE3F3F",
"P  c #FAFAB1B14444",
"I  c #FBFBB0B04545",
"U  c #FBFBB1B14545",
"Y  c #FBFBB4B44949",
"T  c #FCFCB3B34B4B",
"R  c #FCFCB6B64F4F",
"E  c #FCFCB7B74F4F",
"W  c #F9F9B5B55555",
"Q  c #FDFDB5B55050",
"!  c #FDFDB7B75454",
"~  c #FDFDB9B95353",
"^  c #FDFDB9B95454",
"/  c #F9F9B9B95858",
"(  c #FAFABCBC5D5D",
")  c #FEFEBABA5959",
"_  c #FEFEBBBB5959",
"`  c #FEFEBCBC5858",
"'  c #FEFEBDBD5C5C",
"]  c #FEFEBFBF5F5F",
"[  c #FBFBBEBE6262",
"{  c #FCFCC0C06666",
"}  c #FCFCC3C36A6A",
"|  c #FDFDC4C46F6F",
" . c #FEFEC6C67373",
".. c #FEFEC7C77777",
"X. c #FEFEC8C87676",
"o. c #FEFEC8C87979",
"O. c #FFFFCACA7A7A",
"+. c #FFFFCACA7B7B",
"@. c gray82",
"#. c LightGray",
"$. c #D7D7D7D7D7D7",
"%. c gray85",
"&. c #DDDDDDDDDDDD",
"*. c #E9E9E9E9E9E9",
"=. c gray92",
"-. c gray93",
";. c #EFEFEFEFEFEF",
":. c #EFEFEFEFF1F1",
">. c #F3F3F3F3F3F3",
",. c #F4F4F4F4F4F4",
"<. c gray96",
"1. c #F6F6F6F6F6F6",
"2. c gray97",
"3. c #F8F8F8F8F8F8",
"4. c #F9F9F9F9F9F9",
"5. c gray98",
"6. c #FBFBFBFBFBFB",
"7. c gray99",
"8. c #FDFDFDFDFDFD",
"9. c #FDFDFDFDFEFE",
"0. c #FEFEFEFEFEFE",
"q. c None",
/* pixels */
"q.q.q.q.q.q.q.q.q.q.q.q.q.q.q.q.",
"q.q.q.q.q.q.q.q.q.q.q.q.q.q.q.q.",
"q.q.q.q.q.q.q.q.q.q.q.q.q.q.q.q.",
"H G G F F :.;.=.=.=.=.: : = * = ",
"F +.+.+...9.9.9.6.9.6.v c x z & ",
"G +.' ' _ 9.9.9.5.5.5.h g u l % ",
"F +._ _ ! 9.7.6.5.5.5.y e q k $ ",
"F .._ ~ R 7.5.5.5.2.1.e q 8 j # ",
"F  .~ R T 5.5.5.2.2.1.9 7 3 j @ ",
"Z | R Y I 5.5.2.2.1.1.7 3 1 d + ",
"C } Y I K 5.5.1.1.1.>.3 2 < y o ",
"V [ P K J 2.2.1.1.>.>.1 , > p o ",
"N [ ( / W 5.1.2.1.1.>.d y p r . ",
"B M m n b &.%.$.$.@.@.+ o o . + ",
"q.q.q.q.q.q.q.q.q.q.q.q.q.q.q.q.",
"q.q.q.q.q.q.q.q.q.q.q.q.q.q.q.q."
};
