/* XPM */
static char *CL_xpm[] = {
/* columns rows colors chars-per-pixel */
"16 16 80 1",
"  c #7C941F7214A5",
". c #65E8221F1A11",
"X c #2C2C4C9F9BC0",
"o c #40695BACA312",
"O c #45F4628CA804",
"+ c #50FE6B2EACA4",
"@ c #5A476DC3ABCE",
"# c #573B7154B028",
"$ c #57EC7104AF09",
"% c #63F37A08B36F",
"& c #69837C8DB4EC",
"* c #7F449190C181",
"= c #9A331D190DEF",
"- c #926A1EED10EB",
"; c #825F20B81508",
": c #82B620C3150F",
"> c #8B60227B15AA",
", c #9B19215B1268",
"< c #A0D22F914067",
"1 c #A44132D24217",
"2 c #A6783A664A39",
"3 c #9C174F7E4687",
"4 c #B9D5619B6D8F",
"5 c #DB1823E50E14",
"6 c #C149362B24D9",
"7 c #E7FD2065083F",
"8 c #E99725E70E75",
"9 c #E9A826600F00",
"0 c #E96E27300F7F",
"q c #EA7626860F10",
"w c #EE032ED11781",
"e c #F78F226B08CC",
"r c #F872229208D7",
"t c #F8B528D80FBC",
"y c #F9F624DA0A19",
"u c #FC6927CE0B57",
"i c #FC69285C0BDF",
"p c #F8E429991076",
"a c #F9CD29D0108D",
"s c #F8E933CE1BFD",
"d c #FC7D32A317A2",
"f c #F89852033D6B",
"g c #D67F5AB95877",
"h c #F9DB5A5E474B",
"j c #FD2B593A435D",
"k c #EAF970E66294",
"l c #FAC978866939",
"z c #FBAF78F9699B",
"x c #FBE6798169BD",
"c c #9EF79BEB9B92",
"v c #9F069F3D9F44",
"b c #A0CEA0CEA0CE",
"n c #80B19200C137",
"m c #87B79876C4D8",
"M c #9E08AA81CF84",
"N c #9F1EAB6BCF05",
"B c #A114ACCFD051",
"V c #B151BC7ED97E",
"C c #B641BDC0D9A6",
"Z c #BBE2C48BDDFF",
"A c #D928D0BFCFD2",
"S c #DA0ED0ECCFD7",
"D c #D26ED26ED26E",
"F c #DBD0D2BFD1BC",
"G c #C846CFEAE4D2",
"H c #D136D5C9E762",
"J c #D286D97EEA1E",
"K c #D507DB51EB42",
"L c #D9D6DF80ED9C",
"P c #E76AD4A5D253",
"I c #EFA7EACDEA43",
"U c #EFCAF012F01B",
"Y c #ED28EF75F69C",
"T c #F153F153F153",
"R c #FFD1FAA6FA0D",
"E c #FFFFFB8DFAF4",
"W c #FFFFFD64FB84",
"Q c #FD7AFD7AFD7A",
"! c #FFB9FFB9FFB9",
"~ c gray100",
/* pixels */
"~~~~~~~~~~~~~~~~",
"~~~~~~~~~~~~~~~~",
"LKJJY~~~~~~~~~~~",
"*nm%Z~~~~~~~~~~D",
"&CH@B~~~~~~~~~Uv",
"$VGoM~~~~~~~~~Uv",
"#+OXMWRRRRRRRRIc",
"42<1gxllllllllk3",
"jdyuyeeeeeeeer7=",
"hsptpppppppppp9,",
"fw9999999999995-",
"6>;;;;;;;;;;;; .",
"PSSSAAAAASSSSSSS",
"~~~~~~~~~~~~~~~~",
"~~~~~~~~~~~~~~~~",
"~~~~~~~~~~~~~~~~"
};
