/* XPM */
static const char *CN_xpm[] = {
/* columns rows colors chars-per-pixel */
"16 16 136 2",
"   c black",
".  c #9D9D00000000",
"X  c #9F9F00000000",
"o  c #A1A100000000",
"O  c #A3A300000000",
"+  c #A5A500000000",
"@  c #A7A700000000",
"#  c #A9A900000000",
"$  c #ABAB00000000",
"%  c #AFAF00000000",
"&  c #B3B300000000",
"*  c #B7B700000000",
"=  c #B9B900000000",
"-  c #BDBD00000000",
";  c #C1C100000000",
":  c #C3C300000000",
">  c #C7C700000000",
",  c #CBCB00000000",
"<  c #CDCD00000000",
"1  c #CFCF00000000",
"2  c #D1D100000000",
"3  c #D3D300000000",
"4  c #D5D500000000",
"5  c #D7D700000000",
"6  c #D0D00B0B0B0B",
"7  c #D1D10F0F0E0E",
"8  c #D1D110101010",
"9  c #D3D313131313",
"0  c #D3D314141414",
"q  c #D4D419191919",
"w  c #D5D519191919",
"e  c #D5D51A1A1A1A",
"r  c #D5D51E1E1E1E",
"t  c #D6D61F1F1F1F",
"y  c #D7D71F1F1F1F",
"u  c #D7D720202020",
"i  c #D7D723232323",
"p  c #D6D62C2C2C2C",
"a  c #D6D62F2F2F2F",
"s  c #D7D72F2F2F2F",
"d  c #D8D824242424",
"f  c #D9D925252525",
"g  c #D9D926262626",
"h  c #D9D929292929",
"j  c #D9D92A2A2A2A",
"k  c #D9D92B2B2B2B",
"l  c #DADA2B2B2B2B",
"z  c #DBDB2C2C2C2C",
"x  c #DBDB2E2E2E2E",
"c  c #DBDB2F2F2F2F",
"v  c #D8D832323232",
"b  c #DBDB30303030",
"n  c #D8D835353535",
"m  c #D8D836363636",
"M  c #DCDC31313131",
"N  c #DCDC34343434",
"B  c #DDDD34343434",
"V  c #DDDD35353535",
"C  c #DDDD36363636",
"Z  c #DEDE37373636",
"A  c #DEDE37373737",
"S  c #DADA39393939",
"D  c #DADA3B3B3B3B",
"F  c #DBDB3D3D3D3D",
"G  c #DEDE3A3A3A3A",
"H  c #DEDE3B3B3A3A",
"J  c #DEDE3B3B3B3B",
"K  c #DEDE3B3B3C3C",
"L  c #DCDC3F3F3F3F",
"P  c #DEDE3C3C3C3C",
"I  c #DFDF3C3C3D3D",
"U  c #E0E03F3F3F3F",
"Y  c #E5E545450000",
"T  c #DCDC42424242",
"R  c #DFDF40404040",
"E  c #DDDD44444444",
"W  c #DDDD46464646",
"Q  c #DFDF49494949",
"!  c #DFDF4B4B4B4B",
"~  c #E0E041414242",
"^  c #E1E142424141",
"/  c #E0E042424242",
"(  c #E1E144444444",
")  c #E1E145454545",
"_  c #E1E147474747",
"`  c #E3E349494949",
"'  c #E3E34A4A4949",
"]  c #E1E14E4E4E4E",
"[  c #E3E34F4F4F4F",
"{  c #E4E44F4F4F4F",
"}  c #E4E452524B4B",
"|  c #E1E150505050",
" . c #E2E253535353",
".. c #E2E254545555",
"X. c #E3E357575757",
"o. c #E5E553535353",
"O. c #E4E454545454",
"+. c #E6E657575454",
"@. c #E3E358585858",
"#. c #E6E658585858",
"$. c #E7E75C5C5959",
"%. c #E4E45C5C5C5C",
"&. c #E4E45D5D5D5D",
"*. c #EAEA7F7F4747",
"=. c #E6E660606060",
"-. c #E6E661616262",
";. c #E7E765656565",
":. c #E8E866666666",
">. c #E8E869696969",
",. c #E8E86A6A6A6A",
"<. c #E8E86F6F6D6D",
"1. c #E9E96F6F6F6F",
"2. c #EAEA72727373",
"3. c #ECEC79797676",
"4. c #EDED7F7F7B7B",
"5. c #EDED89895050",
"6. c #ECEC90904646",
"7. c #EDED92924646",
"8. c #EDED96964C4C",
"9. c #EFEF98985959",
"0. c #F0F09B9B5454",
"q. c #EDED84847979",
"w. c #EEEE89897979",
"e. c #F1F1A8A85151",
"r. c #F2F2A5A57777",
"t. c #F5F5BFBF7171",
"y. c #F5F5CBCB4B4B",
"u. c #F5F5CCCC4B4B",
"i. c #F6F6CFCF5151",
"p. c #F9F9DADA7474",
"a. c #FAFADCDC7B7B",
"s. c #FAFADDDD7A7A",
"d. c #FAFAE2E25C5C",
"f. c #FBFBE6E65C5C",
"g. c #FDFDF3F35F5F",
"h. c None",
/* pixels */
"h.h.h.h.h.h.h.h.h.h.h.h.h.h.h.h.",
"h.h.h.h.h.h.h.h.h.h.h.h.h.h.h.h.",
"h.h.h.h.h.h.h.h.h.h.h.h.h.h.h.h.",
"4 4 3 4 4 Y 1 1 1 , > > ; ; - - ",
"4 4.a.q.r.p.t.<.,.:.=.%.+. .] * ",
"4 s.g.d.$.0.i.8._ R K A M x Q & ",
"3 w.f.9.+.e.y.*.R I A M k g E % ",
"3 3.#.+.5.y.6.R K A b l g u L $ ",
"3 2.o.{ } 7.I G A b l g r q D $ ",
"1 <.{ ` _ R P A x l g r q 0 m O ",
"1 ,.' _ I G A x l d t q 0 8 v o ",
", ;.( U G m x l u r q 0 7 6 a o ",
"> -.&.#...| Q E T F D m v a a X ",
"> ; ; - = * & % $ $ $ o o X X o ",
"h.h.h.h.h.h.h.h.h.h.h.h.h.h.h.h.",
"h.h.h.h.h.h.h.h.h.h.h.h.h.h.h.h."
};
