/* XPM */
static const char *CR_xpm[] = {
/* columns rows colors chars-per-pixel */
"16 16 162 2",
"   c black",
".  c #000000002323",
"X  c #000000002525",
"o  c #000000002929",
"O  c #000000002B2B",
"+  c #000000003131",
"@  c #000000003737",
"#  c #000000003B3B",
"$  c #000000003F3F",
"%  c #000000004545",
"&  c #000000004B4B",
"*  c #000000005151",
"=  c #000000005555",
"-  c #000000005757",
";  c #000000005B5B",
":  c #000000005D5D",
">  c #000000006161",
",  c #000000006363",
"<  c #000000006767",
"1  c #000000006D6D",
"2  c #000000007171",
"3  c #000000007373",
"4  c #000000007575",
"5  c #000000007979",
"6  c #000000007D7D",
"7  c #000001017F7F",
"8  c #000007078383",
"9  c #000009098585",
"0  c #00000F0F8585",
"q  c #000019198D8D",
"w  c #5B5B7979B5B5",
"e  c #5C5C7A7AB6B6",
"r  c #60607D7DB8B8",
"t  c #62627F7FB9B9",
"y  c #65658282BBBB",
"u  c #69698484BDBD",
"i  c #6C6C8888BEBE",
"p  c #6F6F8A8AC1C1",
"a  c #6F6F8A8AC2C2",
"s  c #73738E8EC3C3",
"d  c #74748E8EC3C3",
"f  c #77779191C5C5",
"g  c #77779090C6C6",
"h  c #7B7B9494C7C7",
"j  c #7A7A9494C8C8",
"k  c #7F7F9797C9C9",
"l  c #7F7F9797CACA",
"z  c #B7B700000000",
"x  c #B9B900000000",
"c  c #BBBB00000000",
"v  c #DDDD00000000",
"b  c #DFDF00000000",
"n  c #DCDC14141414",
"m  c #DDDD19191919",
"M  c #DEDE1A1A1A1A",
"N  c #DFDF1F1F1F1F",
"B  c #E1E100000000",
"V  c #E0E01F1F1F1F",
"C  c #E0E020202020",
"Z  c #E0E024242424",
"A  c #E1E125252525",
"S  c #E2E22A2A2A2A",
"D  c #E3E32B2B2B2B",
"F  c #E3E32F2F2F2F",
"G  c #E0E036363636",
"H  c #E4E430303030",
"J  c #E5E535353535",
"K  c #E6E636363636",
"L  c #E2E23B3B3B3B",
"P  c #E3E33F3F3F3F",
"I  c #E6E63B3B3A3A",
"U  c #E7E73B3B3B3B",
"Y  c #E7E73B3B3C3C",
"T  c #D3D341413F3F",
"R  c #DFDF69696767",
"E  c #E7E740404040",
"W  c #E8E840404040",
"Q  c #E9E941414141",
"!  c #E8E845454545",
"~  c #E9E946464646",
"^  c #E9E94A4A4949",
"/  c #EAEA4A4A4B4B",
"(  c #EAEA4B4B4B4B",
")  c #EBEB4F4F4F4F",
"_  c #EBEB4F4F5050",
"`  c #EDED53535353",
"'  c #EDED54545454",
"]  c #EEEE58585858",
"[  c #EFEF6F6F6F6F",
"{  c #F1F172727373",
"}  c #F1F176767676",
"|  c #82829A9ACBCB",
" . c #82829A9ACCCC",
".. c #85859D9DCDCD",
"X. c #85859E9ECDCD",
"o. c #8989A0A0CECE",
"O. c #8B8BA2A2D0D0",
"+. c #8F8FA4A4D2D2",
"@. c #9191A7A7D3D3",
"#. c #9393A8A8D4D4",
"$. c #9494A9A9D4D4",
"%. c #9595A9A9D4D4",
"&. c #F1F187878585",
"*. c #EBEBA0A09F9F",
"=. c #ECECA2A2A2A2",
"-. c #EEEEA4A4A3A3",
";. c #EEEEA7A7A6A6",
":. c #EFEFAAAAA9A9",
">. c #EDEDAEAEADAD",
",. c #F0F0ACACABAB",
"<. c #F1F1AFAFAEAE",
"1. c #F9F9A1A1A1A1",
"2. c #F3F3B2B2B1B1",
"3. c #F2F2B4B4B3B3",
"4. c #F3F3B6B6B5B5",
"5. c #F4F4B4B4B3B3",
"6. c #F5F5B7B7B6B6",
"7. c #F3F3BEBEBEBE",
"8. c #F4F4B9B9B8B8",
"9. c #F6F6B9B9B8B8",
"0. c #F4F4BCBCBBBB",
"q. c #F7F7BCBCBBBB",
"w. c #F5F5BDBDBDBD",
"e. c #F6F6BFBFBFBF",
"r. c #DDDDDFDFDFDF",
"t. c #F7F7C2C2C1C1",
"y. c #F8F8C4C4C3C3",
"u. c #F9F9C6C6C5C5",
"i. c #FAFAC8C8C7C7",
"p. c #F9F9C8C8C8C8",
"a. c #FAFAC9C9C9C9",
"s. c #FBFBCBCBCACA",
"d. c #FCFCD4D4D4D4",
"f. c #E5E5E9E9E9E9",
"g. c #F0F0F1F1F1F1",
"h. c #F1F1F1F1F1F1",
"j. c #F1F1F2F2F2F2",
"k. c #F2F2F3F3F3F3",
"l. c #F3F3F4F4F4F4",
"z. c #F4F4F5F5F5F5",
"x. c #F4F4F6F6F6F6",
"c. c #F5F5F6F6F6F6",
"v. c #F5F5F7F7F7F7",
"b. c gray97",
"n. c #F5F5F8F8F8F8",
"m. c #F6F6F9F9F9F9",
"M. c #F7F7F9F9F9F9",
"N. c #F7F7FAFAFAFA",
"B. c #F8F8F8F8F8F8",
"V. c #F9F9F9F9F9F9",
"C. c #F8F8FBFBFBFB",
"Z. c #F9F9FAFAFAFA",
"A. c gray98",
"S. c #F9F9FCFCFCFC",
"D. c #F9F9FFFFFFFF",
"F. c #FAFAFDFDFDFD",
"G. c #FBFBFCFCFCFC",
"H. c #FBFBFDFDFDFD",
"J. c #FBFBFEFEFEFE",
"K. c #FCFCFEFEFEFE",
"L. c #FCFCFFFFFFFF",
"P. c None",
/* pixels */
"P.P.P.P.P.P.P.P.P.P.P.P.P.P.P.P.",
"P.P.P.P.P.P.P.P.P.P.P.P.P.P.P.P.",
"P.P.P.P.P.P.P.P.P.P.P.P.P.P.P.P.",
"0 9 9 9 8 7 6 5 4 2 1 < < : = = ",
"q %.@.@.@.@.o.X.X. .l j f d s = ",
"D.L.L.L.L.G.G.D.D.N.n.n.B.c.c.f.",
"1.d.s.s.u.u.y.t.w.w.w.8.3.3.7.R ",
"B } ] ' _ / ~ Q Y K H D A C P c ",
"B { ` ) / ~ Q L K H D A N m L c ",
"b [ ) / ~ P I K F S Z N m n G c ",
"&.s.q.9.6.5.2.<.,.:.;.=.=.*.>.T ",
"n.A.V.V.V.V.b.c.c.k.k.k.g.g.k.r.",
"2 X.| | h f d p i u y t e e e O ",
"< , ; = * & % $ # @ + O O X . X ",
"P.P.P.P.P.P.P.P.P.P.P.P.P.P.P.P.",
"P.P.P.P.P.P.P.P.P.P.P.P.P.P.P.P."
};
