/* XPM */
static const char *CS_xpm[] = {
/* columns rows colors chars-per-pixel */
"16 16 140 2",
"   c black",
".  c #000000004343",
"X  c #000000004D4D",
"o  c #000000005D5D",
"O  c #000000006161",
"+  c #000000006363",
"@  c #000000006767",
"#  c #000000006D6D",
"$  c #000000007171",
"%  c #000000007575",
"&  c #000000007979",
"*  c #000000007B7B",
"=  c #000000007D7D",
"-  c #000000008181",
";  c #000000008383",
":  c #000000008585",
">  c #000000008787",
",  c #000000008989",
"<  c #000000009191",
"1  c #2C2C2C2CA1A1",
"2  c #31313131A4A4",
"3  c #37373737A7A7",
"4  c #35353535AFAF",
"5  c #3D3D3C3CAAAA",
"6  c #42424242ADAD",
"7  c #49494949AEAE",
"8  c #47474747B0B0",
"9  c #4C4C4C4CB2B2",
"0  c #4E4E4E4EB4B4",
"q  c #51515151B4B4",
"w  c #53535353B7B7",
"e  c #54545454B7B7",
"r  c #58585757B9B9",
"t  c #59595959B8B8",
"y  c #5C5C5C5CBABA",
"u  c #5C5C5C5CBBBB",
"i  c #5F5F5F5FBBBB",
"p  c #61616060BEBE",
"a  c #6A6A6A6ABEBE",
"s  c #65656565C0C0",
"d  c #69696969C2C2",
"f  c #6D6D6D6DC3C3",
"g  c #6E6E6E6EC0C0",
"h  c #72727272C2C2",
"j  c #70707070C5C5",
"k  c #74747474C7C7",
"l  c #76767676C4C4",
"z  c #77777777C8C8",
"x  c #7A7A7A7AC6C6",
"c  c #7F7F7F7FC6C6",
"v  c #79797979C9C9",
"b  c #7B7B7B7BC8C8",
"n  c #7B7B7B7BCACA",
"m  c #7D7D7D7DC9C9",
"M  c #DDDD00000000",
"N  c #DFDF00000000",
"B  c #E1E100000000",
"V  c #E3E300000000",
"C  c #E5E500000000",
"Z  c #E7E700000000",
"A  c #E9E900000000",
"S  c #EBEB00000000",
"D  c #EDED00000000",
"F  c #EFEF00000000",
"G  c #F1F100000000",
"H  c #F3F300000000",
"J  c #F5F500000000",
"K  c #F7F700000000",
"L  c #F1F10B0B0B0B",
"P  c #F1F10F0F0E0E",
"I  c #F9F900000000",
"U  c #F2F213131313",
"Y  c #F3F319191919",
"T  c #F4F41E1E1E1E",
"R  c #F5F523232323",
"E  c #F2F22C2C2C2C",
"W  c #F2F22F2F2F2F",
"Q  c #F6F629292929",
"!  c #F7F72E2E2E2E",
"~  c #FBFB29292929",
"^  c #F2F232323232",
"/  c #F3F335353535",
"(  c #F4F439393939",
")  c #F5F53D3D3D3D",
"_  c #F8F834343434",
"`  c #F9F93A3A3A3A",
"'  c #FAFA3F3F3F3F",
"]  c #F6F642424242",
"[  c #F7F746464646",
"{  c #F7F74B4B4B4B",
"}  c #FAFA44444444",
"|  c #F8F850505050",
" . c #F9F954545555",
".. c #F9F958585858",
"X. c #FAFA5D5D5D5D",
"o. c #F2F263636363",
"O. c #F2F266666666",
"+. c #F3F36A6A6A6A",
"@. c #F4F46E6E6E6E",
"#. c #FBFB61616262",
"$. c #FCFC66666666",
"%. c #F3F377777777",
"&. c #F5F571717171",
"*. c #F6F675757575",
"=. c #F7F778787979",
"-. c #F8F87C7C7C7C",
";. c #81818181CACA",
":. c #85858585CCCC",
">. c #88888888CECE",
",. c #8B8B8B8BCFCF",
"<. c #8E8E8F8FD1D1",
"1. c #90909090D2D2",
"2. c #A4A4A4A4DADA",
"3. c #F9F980808080",
"4. c #FAFA84848484",
"5. c #FBFB88888888",
"6. c #FBFB8B8B8B8B",
"7. c #FCFCA0A0A0A0",
"8. c #E3E3C7C7C7C7",
"9. c #E5E5C9C9C9C9",
"0. c #E7E7CDCDCDCD",
"q. c #FDFDE7E7E7E7",
"w. c #FDFDE9E9E9E9",
"e. c gray95",
"r. c #F3F3F3F3F3F3",
"t. c #F4F4F4F4F4F4",
"y. c #F4F4F5F5F5F5",
"u. c gray96",
"i. c #F6F6F6F6F6F6",
"p. c gray97",
"a. c #F8F8F8F8F8F8",
"s. c #F9F9F9F9F9F9",
"d. c gray98",
"f. c #FBFBFBFBFBFB",
"g. c #FBFBFCFCFBFB",
"h. c gray99",
"j. c #FDFDFCFCFDFD",
"k. c #FDFDFDFDFDFD",
"l. c #FEFEFEFEFEFE",
"z. c None",
/* pixels */
"z.z.z.z.z.z.z.z.z.z.z.z.z.z.z.z.",
"z.z.z.z.z.z.z.z.z.z.z.z.z.z.z.z.",
"z.z.z.z.z.z.z.z.z.z.z.z.z.z.z.z.",
"< , , , , - - = & % $ # @ O o O ",
": n n n k k j f d p p i r w 0 X ",
"- n i y y e q 9 7 6 5 3 2 1 7 . ",
"4 2.1.<.>.>.:.;.m x l h f a c = ",
"w.l.l.l.l.f.d.d.d.d.p.i.t.u.u.0.",
"w.l.l.l.f.d.d.d.u.d.u.u.u.r.u.9.",
"q.l.f.f.d.d.d.a.u.u.u.u.r.r.r.8.",
"~ 7.6.5.4.3.-.=.*.&.@.+.O.o.%.N ",
"K $.} ' ` _ ! Q R T Y U P L W N ",
"K #.X... .| { [ ] ) ( / ^ W W N ",
"K G G D D D S S Z Z B B N N M M ",
"z.z.z.z.z.z.z.z.z.z.z.z.z.z.z.z.",
"z.z.z.z.z.z.z.z.z.z.z.z.z.z.z.z."
};
