/* XPM */
static char *CX_xpm[] = {
/* columns rows colors chars-per-pixel */
"16 16 151 2",
"   c #186F3FE51861",
".  c #0DDB1F3662B8",
"X  c #0E751FC765CC",
"o  c #0F982E5D489E",
"O  c #0DF520C062F1",
"+  c #0E16202B6388",
"@  c #0D5520A269B9",
"#  c #2CAC38E86AE3",
"$  c #2E5039696BAA",
"%  c #0AED55C20A9E",
"&  c #0DF3522C0AF6",
"*  c #0FAF55D60B42",
"=  c #0F2256D40BD6",
"-  c #10EE410F1E52",
";  c #140F567F0BF0",
":  c #07147631026F",
">  c #05557C050000",
",  c #07037D560125",
"<  c #0744732519C6",
"1  c #0A7A7BD81BE7",
"2  c #19487F86049C",
"3  c #1D8B77581AA8",
"4  c #07C666763FE5",
"5  c #24355B8F0DD9",
"6  c #24CB7EF11EA9",
"7  c #03A84C7362EA",
"8  c #059C514B6D19",
"9  c #04F6646042D3",
"0  c #2D1A5E316587",
"q  c #4ACA772A467F",
"w  c #031F3C288E6F",
"e  c #02833B939596",
"r  c #01162395AAF6",
"t  c #0018239DAE2F",
"y  c #01752690AB15",
"u  c #01052564AD06",
"i  c #01DE2B1AA3C2",
"p  c #038B2CBCB04F",
"a  c #03892ED5AF3A",
"s  c #016C2382B0B5",
"d  c #019C277DB8C9",
"f  c #00E02993B76F",
"g  c #03322A18B62C",
"h  c #02942A98B6ED",
"j  c #07ED2C0AB14A",
"k  c #04B3297EB648",
"l  c #04572B74B68E",
"z  c #0A2F2D8DB4F0",
"x  c #0B4C2CB7B6CE",
"c  c #0B642F6FB7D6",
"v  c #08722A43BBF8",
"b  c #09C52EB2B8E6",
"n  c #0A912C46BC0D",
"m  c #0F9632F1B74A",
"M  c #0A013036B9DD",
"N  c #0BBC3276B9D0",
"B  c #0FB03306BD7A",
"V  c #106B33F4BDE8",
"C  c #16273780B934",
"Z  c #211F397F8E86",
"A  c #2B203EED9C15",
"S  c #20CA3FB2C0F7",
"D  c #40224DBF8D94",
"F  c #3B6D4B7393B3",
"G  c #20374116BEB3",
"H  c #20BA40C8C060",
"J  c #23584284BF78",
"K  c #37EF54DEBD74",
"L  c #3B1454EABBDF",
"P  c #3DE8550BBCC5",
"I  c #30F64DE1C212",
"U  c #33564F77C45D",
"Y  c #46C253868BAC",
"T  c #40955D42C084",
"R  c #41955DCBC06F",
"E  c #51F3752AB9AA",
"W  c #41345C9EC0E9",
"Q  c #41FD5D6FC2C7",
"!  c #475E620BC320",
"~  c #4D3465DBC462",
"^  c #4E1566E6CF1E",
"/  c #06A8836B012F",
"(  c #062882F6070C",
")  c #04E8848A01DC",
"_  c #06D084890055",
"`  c #062C850304F5",
"'  c #0781859204F1",
"]  c #08CF861B02B2",
"[  c #09F485C20349",
"{  c #088F86DD0000",
"}  c #09B888090213",
"|  c #0AA984FC014A",
" . c #0C9885400360",
".. c #0B23830A0BC8",
"X. c #0AE088F601E3",
"o. c #10DE8629018F",
"O. c #11038727021D",
"+. c #1BCF87EB023B",
"@. c #1CB78A040416",
"#. c #1FEF89F50650",
"$. c #22128CB90571",
"%. c #35248F2005D9",
"&. c #36CB8ADC080C",
"*. c #341790A5079E",
"=. c #36AA91230658",
"-. c #480A96D706C6",
";. c #4956990107E5",
":. c #535C97DD093E",
">. c #547098E90757",
",. c #5BEF9A8B0558",
"<. c #4F1FA3E53E94",
"1. c #627B94070763",
"2. c #609F9DB006A0",
"3. c #68259F88072D",
"4. c #7ACA9EFB112A",
"5. c #7AB7A4970ED8",
"6. c #4B448DBE7D68",
"7. c #4D8FA7754818",
"8. c #4D86A85346EF",
"9. c #4D6EA7AC4815",
"0. c #4CFBA6B149BA",
"q. c #4DB5A780484D",
"w. c #4CDAA55E4FB7",
"e. c #5A5DAAB14C7D",
"r. c #6F6D83AFCEB3",
"t. c #8F2EA8F10A09",
"y. c #9918A2440BF2",
"u. c #A1F3AED30A69",
"i. c #B028AEAE1A82",
"p. c #B98DB48D0CB8",
"a. c #BAD6B3B21287",
"s. c #BD98A9BE2831",
"d. c #94D2BB504F5C",
"f. c #B051D744AE48",
"g. c #CE11CFE2D645",
"h. c #CF2ED0C2D675",
"j. c #CF1FD016D7E1",
"k. c #CF4DD1ADD52F",
"l. c #CF40D0DFD662",
"z. c #CF2BD0E9D71C",
"x. c #D19CD672D267",
"c. c #D1C0D54EE046",
"v. c #D64DDD5AEF33",
"b. c #C999E4BEC8D1",
"n. c #CD5CE750CD0C",
"m. c #CE1DE7A0CCEE",
"M. c #CDFBE939CBC8",
"N. c #D00CE31EDA36",
"B. c #D405EA2DCE48",
"V. c #D7A7EAC6CF25",
"C. c gray100",
/* pixels */
"C.C.C.C.C.C.C.C.C.C.C.C.C.C.C.C.",
"C.C.C.C.C.C.C.C.C.C.C.C.C.C.C.C.",
"v.N.M.m.m.m.m.m.m.m.m.m.B.V.b.f.",
"r.E 6.w.8.0.9.0.9.9.9.0.e.d.<.3 ",
"R B a 8 1 X.} ` ` } } $.:.5.&.% ",
"R N S J w 9 ..-.>.o./  .,.p.1.; ",
"R b G J b j 0 a.u.%./ /  .t.y.5 ",
"! I h x U v D 4.2.3.+.$.%.;.2 * ",
"~ ^ b C m d A s.i.q 6 *.#.} > * ",
"R B h N h h k F Y x e 9 ( } > * ",
"K j L P r y y u t u t i 7 < : & ",
"Z @ # $ . . . . . . + + X o -   ",
"c.h.g.g.h.h.h.h.h.h.h.h.h.j.h.x.",
"C.C.C.C.C.C.C.C.C.C.C.C.C.C.C.C.",
"C.C.C.C.C.C.C.C.C.C.C.C.C.C.C.C.",
"C.C.C.C.C.C.C.C.C.C.C.C.C.C.C.C."
};
