/* XPM */
static char *CY_png[] = {
/* columns rows colors chars-per-pixel */
"16 16 72 1",
"  c #688668866886",
". c #7FFF7FFF7FFF",
"X c #EFFFDEC160D0",
"o c #F011DEBA6337",
"O c #EFF4DF2C63EC",
"+ c #F023DF7E6504",
"@ c #F0F5E03E69CF",
"# c #F2DDE46A7DC2",
"$ c #857485748574",
"% c #861C861B861B",
"& c #872087148720",
"* c #87CA87B487B8",
"= c #8F5D8F5D8F5D",
"- c #8BFD91218F28",
"; c #96E896E896E8",
": c #9B6FA07D9F1E",
"> c #9F109F109F10",
", c #9FD09FD09FD0",
"< c #A0CEA0CEA0CE",
"1 c #BED6C14DBC8F",
"2 c #F3C8E6AA85E1",
"3 c #F398E6F488F3",
"4 c #F57CEA349718",
"5 c #F888EF6BAAC1",
"6 c #F90CF10CB5DC",
"7 c #C1BAC452C2D1",
"8 c #C29AC4D3C327",
"9 c #C4FFC7BEC4DF",
"0 c #C6CFC6CFC6CF",
"q c #D26ED26ED26E",
"w c #D27BD4A2D44C",
"e c #D97AD97AD97A",
"r c #D982DAB1DA7E",
"t c #DA6DDA6DDA6D",
"y c #DC27DC27DC27",
"u c #DE9CDF00DE2E",
"i c #DF99E049DF60",
"p c #DFCAE0AFE05A",
"a c #E055E1A4E11D",
"s c #F9B7F34FC2E9",
"d c #FA25F402C746",
"f c #FA99F46EC9D6",
"g c #FB35F654D12E",
"h c #FB77F6D1D4A4",
"j c #FC28F820DAA2",
"k c #FCC3F94DDF4C",
"l c #E0E0E264E1B3",
"z c #E21EE21EE21E",
"x c #E81DE81DE81D",
"c c #EA13EB55EAFB",
"v c #EB08EC49EC90",
"b c #ECAEECEFECF3",
"n c #EFD0EFD0EFD0",
"m c #F062F071F074",
"M c #F0C9F18FF1A7",
"N c #FD76FA9DE6B9",
"B c #FE7CFC1FECD7",
"V c #FED2FD1EF06A",
"C c #F152F151F151",
"Z c #F212F212F212",
"A c #F576F576F576",
"S c #FECEFD63F3B8",
"D c #FF60FEE5FACB",
"F c #FF87FF15FBFA",
"G c #FFC8FF5AFCC3",
"H c #FD7AFD7AFD7A",
"J c #FE31FE31FE31",
"K c #FFE1FFE1FFE2",
"L c #FFFDFFFBFFFF",
"P c #FFFFFFDEFF36",
"I c #FFFFFFFFFFE7",
"U c gray100",
/* pixels */
"UUUUUUUUUUUUUUUU",
"UUUUUUUUUUUUUUUU",
"UUUUUUUUUUUUUUUU",
"UUUUUUUUUUDDUUUq",
"UUUUUSfshshSUUn,",
"UUUUk2@X+3NUUUn>",
"UUUUS4XX#jUUUUn>",
"UUUUUV56BUUUUUn>",
"UUUUUH<lv7pUUUn>",
"UUUUUA<89-qUUUM>",
"UCnMCCuuirnnCCl;",
"9=$&&&&&&&&&&&. ",
"xrrreeeeeeerrrer",
"UUUUUUUUUUUUUUUU",
"UUUUUUUUUUUUUUUU",
"UUUUUUUUUUUUUUUU"
};
