/* XPM */
static const char *CZ_xpm[] = {
/* columns rows colors chars-per-pixel */
"16 16 126 2",
"   c black",
".  c #5D5D00001111",
"X  c #00003939AFAF",
"o  c #00004141B3B3",
"O  c #00004747B5B5",
"+  c #00004D4DB9B9",
"@  c #03035151BBBB",
"#  c #07075555BFBF",
"$  c #00005F5FCDCD",
"%  c #0D0D5959C1C1",
"&  c #11115D5DC1C1",
"*  c #11115D5DC3C3",
"=  c #13135F5FC3C3",
"-  c #63639D9DDEDE",
";  c #71719D9DD8D8",
":  c #7575A0A0D9D9",
">  c #7676A0A0DADA",
",  c #7A7AA3A3DBDB",
"<  c #7D7DA6A6DCDC",
"1  c #7E7EA6A6DDDD",
"2  c #6D6DA4A4E1E1",
"3  c #7373A9A9E4E4",
"4  c #7979ADADE6E6",
"5  c #C3C300000000",
"6  c #C5C500000000",
"7  c #C7C700000000",
"8  c #C9C900000000",
"9  c #CDCD00000000",
"0  c #CFCF00000000",
"q  c #D1D100000000",
"w  c #D5D500000000",
"e  c #D7D700000000",
"r  c #D7D707070707",
"t  c #D9D900000000",
"y  c #DBDB00000000",
"u  c #E3E30B0B0B0B",
"i  c #E3E30F0F0E0E",
"p  c #E4E410101010",
"a  c #E5E513131313",
"s  c #E4E414141414",
"d  c #E5E514141414",
"f  c #E5E519191919",
"g  c #E6E619191919",
"h  c #E7E71F1F1F1F",
"j  c #E8E81E1E1E1E",
"k  c #E8E81F1F1F1F",
"l  c #E6E62C2C2C2C",
"z  c #E7E72F2F2F2F",
"x  c #E9E923232323",
"c  c #E8E824242424",
"v  c #E9E924242424",
"b  c #E9E92A2A2A2A",
"n  c #EAEA29292929",
"m  c #EAEA2A2A2A2A",
"M  c #EBEB2E2E2E2E",
"N  c #ECEC2F2F2F2F",
"B  c #E8E832323232",
"V  c #E8E835353535",
"C  c #E8E836363636",
"Z  c #EDED34343434",
"A  c #EDED35353535",
"S  c #E9E939393939",
"D  c #EAEA3D3D3D3D",
"F  c #EEEE3A3A3A3A",
"G  c #EEEE3B3B3A3A",
"H  c #EBEB42424242",
"J  c #EDED46464646",
"K  c #EDED4B4B4B4B",
"L  c #EEEE50505050",
"P  c #F0F054545555",
"I  c #F0F058585858",
"U  c #AFAF6B6B8989",
"Y  c #AFAF6C6C8989",
"T  c #B0B06D6D8A8A",
"R  c #BBBB83839C9C",
"E  c #8181A9A9DDDD",
"W  c #8383AAAADEDE",
"Q  c #8787ACACDEDE",
"!  c #8B8BAFAFDFDF",
"~  c #8B8BAFAFE1E1",
"^  c #8F8FB2B2E1E1",
"/  c #9292B4B4E2E2",
"(  c #9595B6B6E2E2",
")  c #9797B8B8E4E4",
"_  c #9191BCBCEAEA",
"`  c #9999B9B9E5E5",
"'  c #9C9CBBBBE6E6",
"]  c #BBBBD0D0EBEB",
"[  c #BFBFD3D3EDED",
"{  c #D2D287879696",
"}  c #EEEE89898989",
"|  c #EFEF8C8C8C8C",
" . c #EFEF99999999",
".. c #F0F08F8F8F8F",
"X. c #F0F092929292",
"o. c #F1F195959595",
"O. c #F3F399999999",
"+. c #F4F49C9C9C9C",
"@. c #D7D7D7D7D7D7",
"#. c gray86",
"$. c #DDDDDDDDDDDD",
"%. c #DFDFDFDFDFDF",
"&. c #C2C2D5D5EFEF",
"*. c #CECEDDDDF2F2",
"=. c #E1E1E3E3E3E3",
"-. c gray90",
";. c #E7E7E7E7E7E7",
":. c #E9E9E9E9E9E9",
">. c gray92",
",. c gray93",
"<. c #EFEFEFEFEFEF",
"1. c #F1F1F1F1F1F1",
"2. c #F3F3F3F3F3F3",
"3. c #F4F4F4F4F4F4",
"4. c gray96",
"5. c #F6F6F6F6F6F6",
"6. c gray97",
"7. c #F8F8F8F8F8F8",
"8. c #F9F9F9F9F9F9",
"9. c gray98",
"0. c #FBFBFBFBFBFB",
"q. c gray99",
"w. c #FDFDFDFDFDFD",
"e. c #FDFDFDFDFEFE",
"r. c #FEFEFEFEFEFE",
"t. c None",
/* pixels */
"t.t.t.t.t.t.t.t.t.t.t.t.t.t.t.t.",
"t.t.t.t.t.t.t.t.t.t.t.t.t.t.t.t.",
"t.t.t.t.t.t.t.t.t.t.t.t.t.t.t.t.",
"$ ~ 4.4.4.2.2.1.<.<.,.>.:.;.-.=.",
"& _ *.e.e.e.e.e.0.e.0.8.8.8.6.%.",
"& ' 4 &.e.e.e.0.0.8.8.8.6.4.6.$.",
"= ` W 3 &.e.0.0.0.8.8.6.4.4.4.$.",
"% ) W 1 2 ] 0.0.8.7.6.4.4.4.4.@.",
"# ( 1 , ; - { +.O.o.X...| }  .r ",
"+ / , , ; T G Z N b v h g s C 6 ",
"+ / ; ; T G Z N b v j g d p B 6 ",
"O ! ; T G Z N b x j g a i u z 6 ",
"o Q R P P L K J H D S C B z l 5 ",
"X . y y e e e 0 9 9 8 8 6 6 5 6 ",
"t.t.t.t.t.t.t.t.t.t.t.t.t.t.t.t.",
"t.t.t.t.t.t.t.t.t.t.t.t.t.t.t.t."
};
