/* XPM */
static char *DE_png[] = {
/* columns rows colors chars-per-pixel */
"16 16 68 1",
"  c #000000C000C0",
". c #000001C301C3",
"X c #000002600260",
"o c #07A108750875",
"O c #0B500E670E67",
"+ c #16CB16CC16CC",
"@ c #2BD109C709C7",
"# c #3774017D017D",
"$ c #3A8100F700F7",
"% c #3B4F019A019A",
"& c #38423AE53AE5",
"* c #3A6E3A703A70",
"= c #47D60CF10CF1",
"- c #6CF23A0B3A0B",
"; c #65E855B427AD",
": c #7C94661B271F",
"> c #46DE46E046E0",
", c #475E47604760",
"< c #4FA84FAA4FAA",
"1 c #692469266926",
"2 c #8BB209D609D6",
"3 c #91FE087E08C1",
"4 c #92611A030D66",
"5 c #825F6AF5284C",
"6 c #82B66B3A2864",
"7 c #8B6072372AB4",
"8 c #927478362826",
"9 c #9A3873482785",
"0 c #D068016B016B",
"q c #DA8B00000000",
"w c #DE6100F900F9",
"e c #DE9901A101A1",
"r c #DF6201A301A3",
"t c #DB661B0B0776",
"y c #E28A0CDA0CDA",
"u c #E94E00000000",
"i c #EA2200000000",
"p c #E9D40AFC0BCC",
"a c #EA251C43077F",
"s c #EA341CCF081B",
"d c #EB081CEB0825",
"f c #EB07279F13FB",
"g c #E9FB3A333A33",
"h c #EDF5391539E1",
"j c #EF3150664076",
"k c #DB28B0EA32D8",
"l c #E7D6A97F3127",
"z c #E9B6BD0035F7",
"x c #EA87BDA5363A",
"c c #F741B48433CB",
"v c #F744B4B13445",
"b c #F824B556347D",
"n c #F77FB84A3E47",
"m c #C149A03040C4",
"M c #EE13C2043E10",
"N c #F8A4D2595F0E",
"B c #F8A6C5AD62D6",
"V c #ACE9ACE9ACE9",
"C c #C83AC83AC83A",
"Z c #CCB5CCB5CCB5",
"A c #CCD5CCD5CCD5",
"S c #CEEFCEEFCEEF",
"D c #D49DD49DD49D",
"F c #D928D712D199",
"G c #DA0ED7DBD1BD",
"H c #DBD0D993D3A2",
"J c #E76AE2E6D618",
"K c gray100",
/* pixels */
"KKKKKKKKKKKKKKKK",
"KKKKKKKKKKKKKKKK",
"DZZZZZZZZZZZZZCV",
"1<,,,,,,,,,,,,&+",
"&O.............o",
"-=%%%%%%%%%%%%%@",
"gyrrrrrrrrrrrr02",
"hpuuuuuuuuuuuuq3",
"jfaasssssssssst4",
"Bnbbvvbbvvvvvbl9",
"NMxxxxxxxxxxxxk8",
"m7666:6:55:555:;",
"JHFFFFFFFFFFHFFH",
"KKKKKKKKKKKKKKKK",
"KKKKKKKKKKKKKKKK",
"KKKKKKKKKKKKKKKK"
};
