/* XPM */
static char *DM_png[] = {
/* columns rows colors chars-per-pixel */
"16 16 151 2",
"   c #3B6A3862316F",
".  c #1F894D821F89",
"X  c #1C1B5AB81BFF",
"o  c #19AC5DD919C0",
"O  c #1A115FC51C9F",
"+  c #1CCC5EFE1CB4",
"@  c #1C6F5F971CB8",
"#  c #1DF2661E1E76",
"$  c #196A69E619BD",
"%  c #195E6FE31B9A",
"&  c #28096CDE1D47",
"*  c #342D651D1E51",
"=  c #21C86FB22235",
"-  c #3E24695A4190",
";  c #59434CB11F7C",
":  c #54DE56901C95",
">  c #49F54B9F2651",
",  c #6C9E6D4F1AFD",
"<  c #4B444F4750D9",
"1  c #50F14BFB4090",
"2  c #54FB50BA4621",
"3  c #5653516845BA",
"4  c #55D351A14698",
"5  c #56825157455B",
"6  c #58BB52CA4586",
"7  c #5D4F597A4F56",
"8  c #6A367B2A6D52",
"9  c #7C2B78F0703D",
"0  c #1BED99BB1BCC",
"q  c #1786A2C919D4",
"w  c #1C13A3E51F7B",
"e  c #18AAA5151DDC",
"r  c #1D12A36C1D30",
"t  c #1DBFA4111DD9",
"y  c #1E2EA4471E14",
"u  c #1D51A5091DA6",
"i  c #1A89AD6B1F3A",
"p  c #1B62AF7822EE",
"a  c #1EB4AE742299",
"s  c #1F6EAE5422F1",
"d  c #1E93AEEA22DB",
"f  c #1F23AF2222F9",
"g  c #2ED196852F1D",
"h  c #30438F703067",
"j  c #327F9E5D20EA",
"k  c #3E639E882226",
"l  c #2765A4E9286A",
"z  c #25E1A9C7265F",
"x  c #251EADF728FC",
"c  c #2649AD37290C",
"v  c #2795ACAF2915",
"b  c #27C2AF1A2A18",
"n  c #2C4CA8792802",
"m  c #28D4AC802959",
"M  c #2AA7AF7B2B3A",
"N  c #2A10B26F2D84",
"B  c #3425A37425CF",
"V  c #33DBAAB4235D",
"C  c #34C5A9C82342",
"Z  c #358BA90322D1",
"A  c #3696A8CD230E",
"S  c #36C8A8FF2340",
"D  c #400FACF62DA0",
"F  c #3471B2F33594",
"G  c #4FBEA0861FE8",
"H  c #4925975720AB",
"J  c #55F0A9B123E1",
"K  c #4A95BC874A86",
"L  c #534DBF3353A9",
"P  c #63FEA34A5440",
"I  c #6E95A7E45275",
"U  c #6497BF355502",
"Y  c #5143C0D5543B",
"T  c #5A01C2655AA0",
"R  c #5B80C0ED5C20",
"E  c #5B53C4535ED9",
"W  c #5E22C4F85F1B",
"Q  c #5F0CC5065F68",
"!  c #5E83C5CD5FBC",
"~  c #65B1C81866A7",
"^  c #7C57CFE37CC5",
"/  c #93CA33B927DA",
"(  c #96AD36C02183",
")  c #9AE7354C29A2",
"_  c #BA77377C1703",
"`  c #995156F83813",
"'  c #9B8A6D931D80",
"]  c #B9F6483F295D",
"[  c #ACAE62171A53",
"{  c #AB207C6C1C79",
"}  c #A1D7657F2141",
"|  c #B79F718E5C6B",
" . c #A3347205669C",
".. c #D9093E5B1E5D",
"X. c #E68831EB11A6",
"o. c #F58B33FE1258",
"O. c #F7323625134F",
"+. c #F21D3A011380",
"@. c #C6624AC61E77",
"#. c #C31E5A141939",
"$. c #D0D541A4134D",
"%. c #D0644618214F",
"&. c #C1247F1A1C92",
"*. c #CA0C7BB51D5B",
"=. c #EECB4508160C",
"-. c #EAC747FD1AEC",
";. c #9FB89F1F1CBF",
":. c #BE4390F71D50",
">. c #A7EDAC481F78",
",. c #A9A0A9D01EDF",
"<. c #A996AA671FB9",
"1. c #A914AD041FA4",
"2. c #A5EDA9952114",
"3. c #A725A9B220F3",
"4. c #AA40ADD32C44",
"5. c #BCC988875C4B",
"6. c #B739B6795D08",
"7. c #BBEBBF9A5330",
"8. c #82F2CD4C6134",
"9. c #9ADAB6CCA034",
"0. c #9DD0BD87A44E",
"q. c #9E3BBF0FA6EC",
"w. c #A026BDBDA576",
"e. c #B18DA74281B3",
"r. c #A6C7A9DDAAD8",
"t. c #A137BE11A626",
"y. c #9256D3E096F3",
"u. c #A35BC215A93B",
"i. c #A61FC39EAB2D",
"p. c #A960C64DAEC7",
"a. c #BA53D0B1BE1C",
"s. c #B6BBE639B7A3",
"d. c #D06CD635D06F",
"f. c #D267D682D090",
"g. c #D53AD519D074",
"h. c #D42ED438D448",
"j. c #D268D892D268",
"k. c #D30CD6A4D346",
"l. c #D3D7E0A6D3D5",
"z. c #CEDCEEC4CF7F",
"x. c #D206EF21D24B",
"c. c #D264EF68D366",
"v. c #D346EF91D386",
"b. c #D2FEF047D3C4",
"n. c #D52FF012D566",
"m. c #DD8BF16ED3F2",
"M. c #DA1CF1FEDA49",
"N. c #EC93EB55D2D0",
"B. c #E8D4E8BCE8C6",
"V. c #E1BEF35CE292",
"C. c gray100",
/* pixels */
"C.C.C.C.C.C.C.C.C.C.C.C.C.C.C.C.",
"C.C.C.C.C.C.C.C.C.C.C.C.C.C.C.C.",
"M.n.v.v.b.v.m.N.B.V.v.v.v.b.z.s.",
"^ ~ W W W E 8.6.r.y.T W W W L g ",
"L N d d d p J &.| P i x d d w % ",
"U D Z Z Z k [ %...#.G Z Z Z j & ",
"7.4.2.2.>.:.+.) / o.*.1.<.<.;., ",
"9 7 2 4 4 ` O.( > X.] 6 4 4 1   ",
"a.p.u.t.q.e.-._ ; ..5.q.t.t.0.8 ",
"T F b v c n ' =.@.' j v m N l = ",
"K z w r w e G {  .P a w w w 0 # ",
"h # + + + @ * : < * X X + + X . ",
"l.d.d.d.d.d.d.g.h.d.d.d.d.d.d.j.",
"C.C.C.C.C.C.C.C.C.C.C.C.C.C.C.C.",
"C.C.C.C.C.C.C.C.C.C.C.C.C.C.C.C.",
"C.C.C.C.C.C.C.C.C.C.C.C.C.C.C.C."
};
