/* XPM */
static const char * DO_xpm[] = {
"16 16 142 2",
"  	c None",
". 	c #0329A3",
"+ 	c #0025A1",
"@ 	c #001F9F",
"# 	c #001D9D",
"$ 	c #EDF3FD",
"% 	c #FBEFED",
"& 	c #D90000",
"* 	c #D70000",
"= 	c #D50000",
"- 	c #D10000",
"; 	c #CF0000",
"> 	c #CB0000",
", 	c #C90000",
"' 	c #95A5D8",
") 	c #94A5D8",
"! 	c #93A4D8",
"~ 	c #91A1D7",
"{ 	c #8F9FD6",
"] 	c #8B9DD4",
"^ 	c #F7F9FD",
"/ 	c #FCF7F7",
"( 	c #EE6565",
"_ 	c #ED6060",
": 	c #EC5C5C",
"< 	c #EB5757",
"[ 	c #E95353",
"} 	c #E84E4E",
"| 	c #C50000",
"1 	c #94A4D8",
"2 	c #7E92D0",
"3 	c #7B8FCF",
"4 	c #798DCE",
"5 	c #758ACC",
"6 	c #7287CB",
"7 	c #F4F8FC",
"8 	c #FBF5F4",
"9 	c #E94242",
"0 	c #E83C3D",
"a 	c #E73737",
"b 	c #E53131",
"c 	c #E42C2C",
"d 	c #E74949",
"e 	c #C30000",
"f 	c #0027A3",
"g 	c #93A3D8",
"h 	c #788DCE",
"i 	c #7187CB",
"j 	c #6D83C9",
"k 	c #F2F7FB",
"l 	c #FAF4F2",
"m 	c #E83C3C",
"n 	c #E73736",
"o 	c #E42B2B",
"p 	c #E22626",
"q 	c #E64444",
"r 	c #BF0000",
"s 	c #0023A1",
"t 	c #8FA1D7",
"u 	c #7186CA",
"v 	c #697FC7",
"w 	c #F6F8FA",
"x 	c #F9F6F5",
"y 	c #E73636",
"z 	c #E53030",
"A 	c #E32B2B",
"B 	c #E22525",
"C 	c #E12020",
"D 	c #E43F3F",
"E 	c #BB0000",
"F 	c #FDFDFD",
"G 	c #FEFEFE",
"H 	c #FCFCFC",
"I 	c #FBFBFB",
"J 	c #FAFAFA",
"K 	c #F9F9F9",
"L 	c #F8F8F8",
"M 	c #F7F7F7",
"N 	c #F6F6F6",
"O 	c #F5F5F5",
"P 	c #F4F4F4",
"Q 	c #F3F3F3",
"R 	c #F4F5F5",
"S 	c #E5E5E5",
"T 	c #DD0000",
"U 	c #F06F6F",
"V 	c #EC4F4F",
"W 	c #EB4A49",
"X 	c #EA4545",
"Y 	c #E84040",
"Z 	c #E73B3A",
"` 	c #F8F4F3",
" .	c #F5F6F7",
"..	c #516BBB",
"+.	c #4D67B9",
"@.	c #4863B6",
"#.	c #445FB4",
"$.	c #3F5BB2",
"%.	c #5B72BD",
"&.	c #00005D",
"*.	c #DB0000",
"=.	c #EF6A6A",
"-.	c #EB4949",
";.	c #E83F3F",
">.	c #E73A3A",
",.	c #E63434",
"'.	c #F7EDEB",
").	c #EFF3F6",
"!.	c #435FB4",
"~.	c #3B57AF",
"{.	c #586FBB",
"].	c #000059",
"^.	c #EE6666",
"/.	c #EA4444",
"(.	c #E42E2E",
"_.	c #F6ECEA",
":.	c #EDF2F5",
"<.	c #4762B6",
"[.	c #435EB4",
"}.	c #3E5AB2",
"|.	c #3A57AF",
"1.	c #3654AE",
"2.	c #556DB9",
"3.	c #000055",
"4.	c #ED6162",
"5.	c #EC5D5D",
"6.	c #EB5858",
"7.	c #EA5455",
"8.	c #E85050",
"9.	c #E74B4B",
"0.	c #F7EEED",
"a.	c #6078C0",
"b.	c #5D75BE",
"c.	c #5A72BC",
"d.	c #566FBB",
"e.	c #546DB9",
"f.	c #516AB8",
"g.	c #000053",
"h.	c #E9D5D1",
"i.	c #D9DFE7",
"j.	c #000063",
"k.	c #00005F",
"                                ",
"                                ",
". . . . + @ # $ % & * = - ; > , ",
". ' ) ! ~ { ] ^ / ( _ : < [ } | ",
". 1 2 3 4 5 6 7 8 9 0 a b c d e ",
"f g 3 h 5 i j k l m n b o p q r ",
"s t h 5 u j v w x y z A B C D E ",
"F G F H H I J K L M N O P Q R S ",
"T U V W X Y Z `  ...+.@.#.$.%.&.",
"*.=.-.X ;.>.,.'.).+.@.!.$.~.{.].",
"& ^./.;.>.,.(._.:.<.[.}.|.1.2.3.",
"* 4.5.6.7.8.9.0.).a.b.c.d.e.f.g.",
"= - ; > , | e h.i.j.k.&.].3.g.g.",
"                                ",
"                                ",
"                                "};
