/* XPM */
static char *EC_png[] = {
/* columns rows colors chars-per-pixel */
"16 16 68 1",
"  c #2917401F6A48",
". c #166341027751",
"X c #682E1EC11879",
"o c #7FED1AAD11EC",
"O c #7B4021BD22FB",
"+ c #4C8B64305276",
"@ c #15D45961B0C3",
"# c #16BD5F3CBC43",
"$ c #174C5FA7BC65",
"% c #17675FFBBD1C",
"& c #339F57A49B72",
"* c #36A45D3EA581",
"= c #37225DAAA5B6",
"- c #37555DFAA654",
"; c #2281672DBFE4",
": c #40BD6549AA45",
"> c #6C1C91A2755F",
", c #73589B837D2B",
"< c #73CD9C1C7DA7",
"1 c #7A25A05D835F",
"2 c #646F8310BAC4",
"3 c #4C348426CBD5",
"4 c #85711BA1121A",
"5 c #85FD1BBB122D",
"6 c #8EEC1D221312",
"7 c #B5F228492A75",
"8 c #C4982F2E22C3",
"9 c #C2152AAB2CCE",
"0 c #C2432B222D46",
"q c #C2EF2B472D71",
"w c #C89B33043449",
"e c #DA9854C1550A",
"r c #9BCD9AA21B4E",
"t c #9F3F9A6D1BD4",
"y c #A0CE9BE61BB1",
"u c #D26ECCA02F1D",
"i c #EAA1E8C61D8E",
"p c #F015E8811ED0",
"a c #F153E9BD1F9D",
"s c #FA70F8661F1A",
"d c #FA73F86A1FA4",
"f c #FB5BF9501FC7",
"g c #FFFFF82120DF",
"h c #FFFFF7F52279",
"j c #FFFFF80F2302",
"k c #FAB6F8C42A69",
"l c #FFFFF86A2B97",
"z c #FFFFF8462DA5",
"x c #FFFFF9032112",
"c c #FD7AF75553A9",
"v c #FBBAFA27527E",
"b c #FFFFF9E65365",
"n c #FFFFF9C55455",
"m c #FFFFFA065F29",
"M c #FFFFFA3E5FBC",
"N c #FFFFFA5366A7",
"B c #FFFFFB4B7CC5",
"V c #9389B28E9A96",
"C c #FFB9FD4CB7A3",
"Z c #D922D071CFD7",
"A c #DA07D092CFDB",
"S c #DBCBD26AD1BE",
"D c #E761D3DAD256",
"F c #FFFFFE68CF7F",
"G c #FFFFFE51D38A",
"H c #FFFFFE71D566",
"J c #FFFFFEC6DA49",
"K c gray100",
/* pixels */
"KKKKKKKKKKKKKKKK",
"KKKKKKKKKKKKKKKK",
"JHGGGGGGGGGGGGFC",
"BNmmmmmNmmmmmmvu",
"bzgjjjgjjjjgggpt",
"blgggggggggxggpt",
"vkssgddddddddgir",
"V1,,,,,,,,,<<<>+",
"3;$$%%%###%%%%@.",
"2:*=******--**& ",
"ew0q00007qqq007O",
"86444455655544oX",
"DZZZZZZZZZZZZZZZ",
"KKKKKKKKKKKKKKKK",
"KKKKKKKKKKKKKKKK",
"KKKKKKKKKKKKKKKK"
};
