/* XPM */
static const char *EG_xpm[] = {
/* columns rows colors chars-per-pixel */
"16 16 127 2",
"   c black",
".  c #0B0B0B0B0B0B",
"X  c #0F0F0F0F0E0E",
"o  c #131313131313",
"O  c #181819191919",
"+  c #1E1E1E1E1E1E",
"@  c #232323232323",
"#  c gray16",
"$  c #2C2C2C2C2C2C",
"%  c gray18",
"&  c #2F2F2F2F2F2F",
"*  c #323232323232",
"=  c #343434343434",
"-  c #353535353535",
";  c #393939393939",
":  c #3A3A3A3A3A3A",
">  c gray24",
",  c #3F3F3F3F3F3F",
"<  c gray26",
"1  c #444444444444",
"2  c #464646464646",
"3  c #4B4B4B4B4B4B",
"4  c #505050505050",
"5  c #545454545555",
"6  c #585858585858",
"7  c #5D5D5D5D5D5D",
"8  c #616161616262",
"9  c gray39",
"0  c gray40",
"q  c #6A6A6A6A6A6A",
"w  c #6C6C6C6C6D6D",
"e  c #707070707171",
"r  c gray48",
"t  c #7B7B7B7B7C7C",
"y  c #CFCF00000000",
"u  c #D3D300000000",
"i  c #D5D500000000",
"p  c #D7D700000000",
"a  c #D9D900000000",
"s  c #DBDB00000000",
"d  c #DFDF00000000",
"f  c #E1E100000000",
"g  c #E3E300000000",
"h  c #E5E500000000",
"j  c #E7E700000000",
"k  c #E9E900000000",
"l  c #EBEB00000000",
"z  c #EDED00000000",
"x  c #E9E92C2C2C2C",
"c  c #E9E931313131",
"v  c #EBEB37373737",
"b  c #ECEC3C3C3D3D",
"n  c #F1F135353535",
"m  c #EDED42424242",
"M  c #EFEF47474747",
"N  c #EBEB49494949",
"B  c #EDED4E4E4E4E",
"V  c #EDED53535353",
"C  c #EEEE57575757",
"Z  c #F0F04C4C4C4C",
"A  c #F1F151515151",
"S  c #F2F254545454",
"D  c #F2F259595959",
"F  c #F0F05C5C5C5C",
"G  c #F3F35C5C5C5C",
"H  c #F3F35F5F5F5F",
"J  c #ECEC69696969",
"K  c #EDED6D6D6D6D",
"L  c #EEEE71717171",
"P  c #EFEF75757575",
"I  c #EDED7E7E7E7E",
"U  c #F1F160606060",
"Y  c #F2F265656565",
"T  c #F2F269696969",
"R  c #F3F36D6D6D6D",
"E  c #F4F470707171",
"W  c #F5F574747474",
"Q  c #F6F677777777",
"!  c #F1F17A7A7B7B",
"~  c #F6F679797979",
"^  c #F6F67B7B7A7A",
"/  c #F7F77B7B7B7B",
"(  c #EFEF7E7E8080",
")  c #F2F2BBBB7676",
"_  c #DEDECBCB6262",
"`  c #DFDFCCCC6666",
"'  c #EFEFDDDD7272",
"]  c #F0F0DDDD7474",
"[  c #F1F1DEDE7777",
"{  c #F2F2E0E07B7B",
"}  c #F3F3E2E27F7F",
"|  c #808080808080",
" . c #848484848484",
".. c #888888888888",
"X. c #8B8B8B8B8B8B",
"o. c #A0A0A0A0A0A0",
"O. c #F4F485858585",
"+. c #F4F488888888",
"@. c #F5F58B8B8B8B",
"#. c #F6F68E8E8E8E",
"$. c #F6F690909090",
"%. c #F8F8A4A4A4A4",
"&. c #E8E8D8D88383",
"*. c #E9E9DADA8888",
"=. c #EEEEDEDE8989",
"-. c #F4F4E3E38383",
";. c #F2F2E5E59797",
":. c gray89",
">. c gray90",
",. c #E7E7E7E7E7E7",
"<. c gray95",
"1. c #F3F3F3F3F3F3",
"2. c #F4F4F4F4F4F4",
"3. c #F4F4F5F5F5F5",
"4. c gray96",
"5. c #F6F6F6F6F6F6",
"6. c gray97",
"7. c #F7F7F8F8F3F3",
"8. c #FAFAFAFAF9F9",
"9. c gray98",
"0. c #FBFBFBFBFBFB",
"q. c #FBFBFCFCFBFB",
"w. c gray99",
"e. c #FDFDFCFCFDFD",
"r. c #FDFDFDFDFDFD",
"t. c #FEFEFEFEFEFE",
"y. c None",
/* pixels */
"y.y.y.y.y.y.y.y.y.y.y.y.y.y.y.y.",
"y.y.y.y.y.y.y.y.y.y.y.y.y.y.y.y.",
"y.y.y.y.y.y.y.y.y.y.y.y.y.y.y.y.",
"z l l l l l j j j f f d a a a p ",
"l / / / Q Q E R T Y U F C V B p ",
"l / H G D A A Z M m b v c x N y ",
"n %.$.#.@.+.+.! ) ! P L K J I p ",
"r.r.r.r.r.r.6.;.{ 7.6.3.3.3.3.,.",
"r.r.r.w.w.w.-.=.] [ 3.3.3.<.3.>.",
"r.r.w.w.8.8.-.*.&.' 3.3.3.<.3.:.",
"& o.X... .| t ` _ e w q 0 9 r   ",
"  0 1 , : - $ # @ + O o X . &   ",
"  8 7 6 5 4 3 2 < > : - * & $   ",
"                                ",
"y.y.y.y.y.y.y.y.y.y.y.y.y.y.y.y.",
"y.y.y.y.y.y.y.y.y.y.y.y.y.y.y.y."
};
