/* XPM */
static const char *ER_xpm[] = {
/* columns rows colors chars-per-pixel */
"16 16 167 2",
"   c black",
".  c #00003F3F0000",
"X  c #000049490000",
"o  c #00004D4D0000",
"O  c #000051510000",
"+  c #00005F5F0000",
"@  c #000063630000",
"#  c #000069690000",
"$  c #00006D6D0000",
"%  c #0B0B6B6B0000",
"&  c #000071710000",
"*  c #000077770000",
"=  c #00007B7B0000",
"-  c #00007F7F0000",
";  c #5F5F35350000",
":  c #555500004141",
">  c #6E6E70702121",
",  c #010100009D9D",
"<  c #00000000B9B9",
"1  c #00000000BBBB",
"2  c #00000000BDBD",
"3  c #00000000BFBF",
"4  c #00000000C1C1",
"5  c #00000000C3C3",
"6  c #00000000C5C5",
"7  c #00000000C9C9",
"8  c MediumBlue",
"9  c #00000000D5D5",
"0  c #00000505DDDD",
"q  c #00000D0DD5D5",
"w  c #39396464DFDF",
"e  c #34346D6DECEC",
"r  c #3C3C6868E1E1",
"t  c #3C3C6B6BE7E7",
"y  c #3D3D6E6EE7E7",
"u  c #3B3B7373EEEE",
"i  c #58586464CCCC",
"p  c #46467373E8E8",
"a  c #54547979E2E2",
"s  c #56567A7AE3E3",
"d  c #57577B7BE3E3",
"f  c #59597D7DE4E4",
"g  c #59597E7EE7E7",
"h  c #5C5C7F7FE6E6",
"j  c #61616B6BCECE",
"k  c #6F6F7676D3D3",
"l  c #000085850000",
"z  c #000089890000",
"x  c #00008B8B0000",
"c  c #000091910000",
"v  c #2626AAAA2626",
"b  c #2B2BA9A92B2B",
"n  c #2C2CA9A92C2C",
"m  c #3131ACAC3131",
"M  c #3737B0B03737",
"N  c #3D3DB4B43D3D",
"B  c #49499B9B3232",
"V  c #5555A0A03F3F",
"C  c #4242B4B44242",
"Z  c #4444B3B34444",
"A  c #4949B4B44949",
"S  c #4E4EB7B74E4E",
"D  c #5454AFAF4848",
"F  c #5353B9B95353",
"G  c #5858BCBC5757",
"H  c #5C5CBEBE5C5C",
"J  c #6161C0C06060",
"K  c #6565C2C26565",
"L  c #6969C5C56969",
"P  c #6D6DC8C86D6D",
"I  c #7070C5C57171",
"U  c #7E7E8A8ADDDD",
"Y  c #60608282E6E6",
"T  c #62628585E8E8",
"R  c #65658888EAEA",
"E  c #68688C8CEDED",
"W  c #6D6D8E8EECEC",
"Q  c #B1B100000000",
"!  c #B1B137375C5C",
"~  c #B9B93E3E6161",
"^  c #81817E7E3838",
"/  c #AAAA4F4F2828",
"(  c #B8B861613E3E",
")  c #C3C309090000",
"_  c #DFDF00000000",
"`  c #DBDB27272E2E",
"'  c #DFDF2F2F3737",
"]  c #DCDC35352E2E",
"[  c #E1E100000000",
"{  c #E5E500000000",
"}  c #E7E700000000",
"|  c #EFEF00000000",
" . c #F1F11A1A1A1A",
".. c #F4F41F1F1F1F",
"X. c #E7E72D2D2D2D",
"o. c #EBEB25252525",
"O. c #ECEC24242424",
"+. c #E9E92F2F2F2F",
"@. c #EEEE2A2A2A2A",
"#. c #EFEF2F2F2F2F",
"$. c #E7E733333333",
"%. c #E6E63F3F3C3C",
"&. c #E8E836363939",
"*. c #ECEC3B3B3F3F",
"=. c #F1F130303434",
"-. c #F3F336363939",
";. c #C5C53C3C5E5E",
":. c #ECEC5D5D3737",
">. c #EFEF77773D3D",
",. c #F4F476763434",
"<. c #F7F775753A3A",
"1. c #F5F575753F3F",
"2. c #D3D34A4A4A4A",
"3. c #CACA68685252",
"4. c #D3D364647E7E",
"5. c #E4E448484444",
"6. c #ECEC46464848",
"7. c #EFEF4D4D4545",
"8. c #EFEF5F5F4444",
"9. c #EFEF59594D4D",
"0. c #F5F547474A4A",
"q. c #EDED5F5F6363",
"w. c #EFEF78785757",
"e. c #F1F16B6B5656",
"r. c #FBFB73735B5B",
"t. c #FAFA7F7F5E5E",
"y. c #F5F561616262",
"u. c #F4F467676262",
"i. c #F1F166666969",
"p. c #F2F27E7E7E7E",
"a. c #F5F57B7B7C7C",
"s. c #FBFB7B7B7E7E",
"d. c #80804A4A9595",
"f. c #878752529797",
"g. c #969656569494",
"h. c #ACAC7272A9A9",
"j. c #979787874E4E",
"k. c #8A8AB6B67575",
"l. c #B1B1A0A07878",
"z. c #F4F4B9B93A3A",
"x. c #D8D889897A7A",
"c. c #F2F29D9D4242",
"v. c #F5F590905959",
"b. c #F5F59C9C5050",
"n. c #F3F38F8F6D6D",
"m. c #F6F690907A7A",
"M. c #F4F4AFAF4646",
"N. c #F6F6A1A15555",
"B. c #F7F7BDBD4B4B",
"V. c #FAFAB5B54D4D",
"C. c #F6F6D6D63B3B",
"Z. c #F6F6C1C14242",
"A. c #F6F6C0C04646",
"S. c #F7F7C6C64C4C",
"D. c #F6F6C9C94040",
"F. c #F7F7CDCD4747",
"G. c #F8F8CBCB4A4A",
"H. c #F8F8C2C25151",
"J. c #F9F9C1C15656",
"K. c #F8F8C8C85151",
"L. c #FAFACCCC5151",
"P. c #FAFACBCB5E5E",
"I. c #F9F9D0D05959",
"U. c #FAFAD8D86F6F",
"Y. c #FBFBD7D77676",
"T. c #FBFBDDDD7373",
"R. c None",
/* pixels */
"R.R.R.R.R.R.R.R.R.R.R.R.R.R.R.R.",
"R.R.R.R.R.R.R.R.R.R.R.R.R.R.R.R.",
"R.R.R.R.R.R.R.R.R.R.R.R.R.R.R.R.",
") ; % z c z l - - * & $ # @ + + ",
"| s.p.x.l.k.I P L K J H G F S O ",
"} a.u.t.r.w.3.j.D C N M m n A o ",
"} m.P.I.J.L.V.0.5.( ^ B b v Z X ",
"} Y.v.N.K.9.F.8.*.-.=.] / > V . ",
"} T.e.H.S.6.Z.>.&.$.X.o... .2.  ",
"} U.b.B.A.c.C.:.+.@.O.` ! d.k 7 ",
"_ n.G.M.D.z.,.#.' ~ f.i y e g 4 ",
"_ i.7.1.<.%.;.g.j p u t r w d 2 ",
"} y.q.4.h.U W E R T Y h g d a < ",
"Q : , q 0 9 8 7 6 6 4 2 2 < < < ",
"R.R.R.R.R.R.R.R.R.R.R.R.R.R.R.R.",
"R.R.R.R.R.R.R.R.R.R.R.R.R.R.R.R."
};
