/* XPM */
static const char *FK_xpm[] = {
/* columns rows colors chars-per-pixel */
"16 16 170 2",
"   c black",
".  c #000000000303",
"X  c #000000000707",
"o  c #000000000909",
"O  c #000000000F0F",
"+  c #000000001313",
"@  c #000000001717",
"#  c #000000001919",
"$  c #000000001D1D",
"%  c #000000001F1F",
"&  c #000000002121",
"*  c #000000002525",
"=  c #000000002B2B",
"-  c #000000002D2D",
";  c #000000002F2F",
":  c #000000003333",
">  c #000000003939",
",  c #000000003F3F",
"<  c #000000004545",
"1  c #000000004949",
"2  c #000000004B4B",
"3  c #000000004F4F",
"4  c #000000005353",
"5  c #000000005757",
"6  c #000000005959",
"7  c #000000005B5B",
"8  c #000000005D5D",
"9  c #000000006161",
"0  c #000000006565",
"q  c #000000006969",
"w  c #000003037D7D",
"e  c #797931316565",
"r  c #727269696767",
"t  c #74746C6C6E6E",
"y  c #7D7D72726D6D",
"u  c #00001D1D9393",
"i  c #21213B3B8F8F",
"p  c #23233B3B9191",
"a  c #2A2A3C3C9191",
"s  c #3B3B33338383",
"d  c #292942429494",
"f  c #2A2A42429494",
"g  c #2C2C43439393",
"h  c #2E2E47479797",
"j  c #2F2F46469696",
"k  c #2F2F47479797",
"l  c #2F2F49499898",
"z  c #313144449797",
"x  c #363647479696",
"c  c #32324A4A9595",
"v  c #36364B4B9191",
"b  c #36364B4B9A9A",
"n  c #353549499C9C",
"m  c #34344C4C9A9A",
"M  c #34344C4C9B9B",
"N  c #3C3C4C4C9696",
"B  c #3B3B4C4C9898",
"V  c #3B3B4D4D9C9C",
"C  c #3C3C4F4F9D9D",
"Z  c #3C3C50509494",
"A  c #3A3A51519D9D",
"S  c #3A3A51519E9E",
"D  c #3D3D53539A9A",
"F  c #3D3D54549D9D",
"G  c #3F3F5353A0A0",
"H  c #3F3F5555A1A1",
"J  c #3A3A7878B8B8",
"K  c #3D3D7A7AB9B9",
"L  c #404052529C9C",
"P  c #424257579F9F",
"I  c #444456569E9E",
"U  c #40405656A0A0",
"Y  c #40405656A1A1",
"T  c #42425757A2A2",
"R  c #44445A5AA4A4",
"E  c #45455A5AA4A4",
"W  c #45455A5AA6A6",
"Q  c #46465959A7A7",
"!  c #46465C5CA2A2",
"~  c #49495959A0A0",
"^  c #49495D5DA2A2",
"/  c #49495F5FA7A7",
"(  c #49495F5FA8A8",
")  c #52525E5EA1A1",
"_  c #4B4B6060A5A5",
"`  c #4E4E6363A8A8",
"'  c #4F4F6363A9A9",
"]  c #46467575A9A9",
"[  c #50506363A8A8",
"{  c #54546767A9A9",
"}  c #54546868AAAA",
"|  c #5A5A6B6BABAB",
" . c #58586C6CADAD",
".. c #5C5C6E6EAEAE",
"X. c #53536A6AB2B2",
"o. c #5D5D7070B0B0",
"O. c #7A7A79798585",
"+. c #61617373B0B0",
"@. c #61617474B3B3",
"#. c #65657777B3B3",
"$. c #66667878B4B4",
"%. c #6B6B7A7AB6B6",
"&. c #68687C7CB6B6",
"*. c #6A6A7C7CB7B7",
"=. c #6F6F7F7FB9B9",
"-. c #73737777AFAF",
";. c #4F4F8080B0B0",
":. c #53538484B3B3",
">. c #7A7AA8A8B6B6",
",. c #45458787D1D1",
"<. c #45458F8FDCDC",
"1. c #4C4C9090D8D8",
"2. c #58589393D7D7",
"3. c #5E5E9595D1D1",
"4. c #58589797DBDB",
"5. c #4D4D9595E0E0",
"6. c #54549999E2E2",
"7. c #55559A9AE3E3",
"8. c #9D9D1F1F4545",
"9. c #818129295B5B",
"0. c #A3A31F1F4343",
"q. c #A5A52D2D5151",
"w. c #828278787373",
"e. c #808078787575",
"r. c #80807A7A7878",
"t. c #FDFD13131515",
"y. c #CDCD63637575",
"u. c #DFDF71717B7B",
"i. c #FEFE68686767",
"p. c #F0F06C6C7070",
"a. c #FEFE72727070",
"s. c #F9F976767878",
"d. c #FDFD78787575",
"f. c #FBFB7B7B7D7D",
"g. c #8D8D6B6B9898",
"h. c #929271719C9C",
"j. c #87877979A7A7",
"k. c #BCBC7C7C9696",
"l. c #FEFE80807D7D",
"z. c #92928E8E9191",
"x. c #969691919090",
"c. c #989891919191",
"v. c #9F9F9E9E9D9D",
"b. c #90908B8BB7B7",
"n. c #8585ABABB1B1",
"m. c #A3A38181A4A4",
"M. c #A4A48383A6A6",
"N. c #A4A49696B9B9",
"B. c #9B9BAEAED5D5",
"V. c #9F9FADADD3D3",
"C. c #B4B4CACAD5D5",
"Z. c #BCBCD7D7E8E8",
"A. c #D4D487879797",
"S. c #D7D789899898",
"D. c #EBEB87878D8D",
"F. c #FAFA85858686",
"G. c #FCFC93939494",
"H. c #FEFE9F9F9C9C",
"J. c #FDFDA1A19E9E",
"K. c #E7E7A1A1A9A9",
"L. c #E9E9AEAEB6B6",
"P. c #E8E8B2B2B7B7",
"I. c #F2F2B8B8BEBE",
"U. c #E2E2B9B9C2C2",
"Y. c #F0F0BFBFC4C4",
"T. c #C0C0D9D9E8E8",
"R. c #EEEEC6C6CBCB",
"E. c #EFEFD3D3D8D8",
"W. c #E6E6D8D8E2E2",
"Q. c None",
/* pixels */
"Q.Q.Q.Q.Q.Q.Q.Q.Q.Q.Q.Q.Q.Q.Q.Q.",
"Q.Q.Q.Q.Q.Q.Q.Q.Q.Q.Q.Q.Q.Q.Q.Q.",
"Q.Q.Q.Q.Q.Q.Q.Q.Q.Q.Q.Q.Q.Q.Q.Q.",
"u.j.u 0.8.w 9.y.q 7 5 3 1 < , < ",
"s Y.W.L.K.U.E.V.%.#.+...| { ` ; ",
"t.G.l.a.i.d.s.p.) T 2.4.1.,.^ = ",
"q.I.H.f.F.J.D.k.~ C 7.T.Z.<.I * ",
"-.R.N.S.A.B.P.M.G b 5.>.n.J L % ",
"e b.X.h.g.W &.m.N z 7.C.v.K C $ ",
"0 =.` / W T V M l a 3.x.y ] x + ",
"9 &./ W H A m k f c.z.:.;.t O.O ",
"8 $.R H A b k f p i e.w.y r k o ",
"4 @.o. .} [ _ ! T F D Z v c g   ",
"7 1 < , > : ; * & % + + O o o + ",
"Q.Q.Q.Q.Q.Q.Q.Q.Q.Q.Q.Q.Q.Q.Q.Q.",
"Q.Q.Q.Q.Q.Q.Q.Q.Q.Q.Q.Q.Q.Q.Q.Q."
};
