/* XPM */
static char *GA_png[] = {
/* columns rows colors chars-per-pixel */
"16 16 69 1",
"  c #22263A635297",
". c #18E46EBC1B98",
"X c #1F8041016223",
"o c #1E1B47D37278",
"O c #20A943976609",
"+ c #20CB43E56675",
"@ c #228A480B6DA5",
"# c #2ADA52EB71DD",
"$ c #40C97AFE1D47",
"% c #3637681799F1",
"& c #227164B2A8C5",
"* c #24516B39B37E",
"= c #24CB6B8FB3AC",
"- c #24EF6BEEB455",
"; c #2D457292B923",
": c #361E75F4A808",
"> c #39227D97B2DD",
", c #399F7DF7B311",
"< c #1ABDA26E1F76",
"1 c #1D38AC8B2251",
"2 c #1DC5ACC822DA",
"3 c #2F25963B2F1D",
"4 c #28B7B0E32D7F",
"5 c #5961B63B2102",
"6 c #5061BF885436",
"7 c #53B9BEE153A9",
"8 c #5EDDC23622AE",
"9 c #5F3DC2572333",
"0 c #5F99C30F235B",
"q c #66F5C55E2DC9",
"w c #5EE1C4BD5ED0",
"e c #5F43C4E55F32",
"r c #5FCDC5375FBC",
"t c #66B7C77566A7",
"y c #7CD1CFB17CC5",
"u c #433D8439B6C6",
"i c #50C88D18CA62",
"p c #66F09BA1C3EF",
"a c #A0319BC11F9D",
"s c #87238C823082",
"d c #9B8099532112",
"f c #83A0D0755529",
"g c #C9BCD22B3FB8",
"h c #EA05E6C226C3",
"j c #F14EEA6B2471",
"k c #F9BFF66F28B4",
"l c #F9C4F6772934",
"z c #FAAAF75C295F",
"x c #FFFFFA3326A9",
"c c #FFFFFB1926DE",
"v c #FA0EF6E73391",
"b c #FFFFFA72313B",
"n c #D75DE06B43C0",
"m c #D825E13A4410",
"M c #D93BE1F74CF3",
"N c #E091E7B06E69",
"B c #FB2EF8CB59EA",
"V c #FFFFFB88580D",
"C c #B7A3E550B7A3",
"Z c #D0BFD3C0D6C6",
"A c #D0C6D3D8D6EC",
"S c #D0ECD438D782",
"D c #D2BFD600D940",
"F c #D4A5DB60E21A",
"G c #CF7FEE20CF7F",
"H c #D38AEFA6D38A",
"J c #D566F045D566",
"K c #DA49F235DA49",
"L c gray100",
/* pixels */
"LLLLLLLLLLLLLLLL",
"LLLLLLLLLLLLLLLL",
"KJHHHHHHHHHHHHGC",
"yteeeeerwweerr63",
"6411112211112<<.",
"fq8880008888q85$",
"Bvkkkkkkzzkkkkha",
"Vbxxxxxxxxxcccja",
"NMnnnnnnmmmmmmn5",
"pu>>>>>;>>,,>,:@",
"i;====***-----&@",
"%@OOOXXXXX@XOOO ",
"FZZZZZZZZZZZDZZZ",
"LLLLLLLLLLLLLLLL",
"LLLLLLLLLLLLLLLL",
"LLLLLLLLLLLLLLLL"
};
