/* XPM */
static char *GB_png[] = {
/* columns rows colors chars-per-pixel */
"16 16 165 2",
"   c #329A31F65F45",
".  c #340B32305EEB",
"X  c #348733525F40",
"o  c #36B13590605D",
"O  c #3E4D392E67D8",
"+  c #7F032BC31DE4",
"@  c #4D683ED459A3",
"#  c #55C13CEA40E4",
"$  c #7F4344A93C69",
"%  c #4CA34C6F6B00",
"&  c #4EA54DAF6BDD",
"*  c #448D43B07524",
"=  c #4CED4DB279F3",
"-  c #58D04EC664BC",
";  c #5B0A5AAD7F2D",
":  c #71FF4F595075",
">  c #783E567B5182",
",  c #745E6AF4712D",
"<  c #6596533A99E5",
"1  c #6B995D14AA52",
"2  c #646B624CAEB7",
"3  c #6C3E6E58B5DE",
"4  c #775873E3BC83",
"5  c #7C2478C2BF39",
"6  c #7B087B60C372",
"7  c #96511F8A0A34",
"8  c #919F5E6E5889",
"9  c #98F75EC95412",
"0  c #87C073E770EF",
"q  c #E17E2481022A",
"w  c #EEE425A60182",
"e  c #EF2525BC0241",
"r  c #EEFB27BA0094",
"t  c #F0BD267101CA",
"y  c #F09726CE024C",
"u  c #EEE628A90025",
"i  c #EFD7346711E5",
"p  c #EF99356A1389",
"a  c #F1A527170261",
"s  c #F16231590E6C",
"d  c #E33E3C9D20D1",
"f  c #F01940302454",
"g  c #F1053FEC2388",
"h  c #F13C4269251C",
"j  c #F2354FB532AC",
"k  c #F28654C73859",
"l  c #F44658793C16",
"z  c #E3996E445DE2",
"x  c #F2EB75946468",
"c  c #F19D76A2654E",
"v  c #F36678116722",
"b  c #F4F475D16065",
"n  c #834D62768DA4",
"m  c #833869EDA767",
"M  c #83FF7DB0BE23",
"N  c #A32A7C2B9C50",
"B  c #B0827F939DBC",
"V  c #81787E0DC218",
"C  c #DB4589887F9B",
"Z  c #E6B989BD7882",
"A  c #F82F8A2B7304",
"S  c #F2AE902F7FC6",
"D  c #F4DC922B807C",
"F  c #F58892008037",
"G  c #F73291227D95",
"H  c #F97994187FC8",
"J  c #82C181B5BD33",
"K  c #83A08355BDA0",
"L  c #8AB78702BCF5",
"P  c #95928110ADF0",
"I  c #A0038BB8BAFE",
"U  c #A08D977EA895",
"Y  c #9D9A93CEBE41",
"T  c #A5269183BE4A",
"R  c #BA86A5A9ABBD",
"E  c #83C78129C286",
"W  c #80E883A7C7B8",
"Q  c #83EE8226C602",
"!  c #89938682C6E7",
"~  c #8AF78983C8AA",
"^  c #8E218CA4C9B4",
"/  c #92F69263CC7C",
"(  c #92869444D025",
")  c #97A69474CB25",
"_  c #99879534C5DF",
"`  c #9BFC9E5AD40A",
"'  c #A52EA452D4BE",
"]  c #AABBA9DCD790",
"[  c #AFCFAD2CD744",
"{  c #B080AF19D895",
"}  c #BA40AB3ACD0A",
"|  c #C39980A98F69",
" . c #C4038AA59263",
".. c #D2259CF59F65",
"X. c #C2A39D34B37D",
"o. c #C37BAB24BC1B",
"O. c #CDEEA70BB70F",
"+. c #DE7CAC1DB0AE",
"@. c #D2C3AE7DB444",
"#. c #D184AD05BBBA",
"$. c #D107ADF2BE13",
"%. c #DCEBB6FCBF6C",
"&. c #E6BF8FF7873B",
"*. c #E84490D18747",
"=. c #E8D1937589B5",
"-. c #E8F69279893A",
";. c #EB2198218DE7",
":. c #F33592B882B5",
">. c #F503951082AB",
",. c #F6E1950882E3",
"<. c #F8D894F78099",
"1. c #F8459660818B",
"2. c #F6E0985586AB",
"3. c #F19B9C158E4B",
"4. c #F3E49B178EC7",
"5. c #F9BC960F80D7",
"6. c #F9459A4985F2",
"7. c #FAD59F518ADC",
"8. c #FAD29FE08B8E",
"9. c #F68BA9989C61",
"0. c #E362AD70AF40",
"q. c #EA7FACA6A787",
"w. c #EDA7A9B4A257",
"e. c #E9EABD30BC31",
"r. c #EA8DBF7EBCB2",
"t. c #C42BB451CF35",
"y. c #D08EBA60CD43",
"u. c #C897B8A2D266",
"i. c #D6D9BB52C9AD",
"p. c #D0E2C076D55C",
"a. c #F654C6A2BF8A",
"s. c #F9ADC59DBB8F",
"d. c #D8D3D1BDD0A2",
"f. c #D1AAD148D57B",
"g. c #D199D1ECD65E",
"h. c #D28BD276D62D",
"j. c #D491D47ED73A",
"k. c #D8CDD3D1D33B",
"l. c #D879D3D5D3A7",
"z. c #D55DD49DD68E",
"x. c #D7E0D7DFD8FA",
"c. c #DC46D821D712",
"v. c #CB2CC8FEE3B9",
"b. c #D275D361EBB2",
"n. c #DA1CD411E5CE",
"m. c #DB27DA24ED9D",
"M. c #DCB6DB5FEDE6",
"N. c #DB3DDB37EEF6",
"B. c #DCFFDBCAEE2E",
"V. c #DD4EDC43EE87",
"C. c #E280C7D4D089",
"Z. c #EB95D1E9D69C",
"A. c #F415D698D401",
"S. c #FBFFD8E3D34B",
"D. c #FBCBDDECD8B2",
"F. c #E731DB2FE4A7",
"G. c #EFECDEA2E2D6",
"H. c #E74BE1F1E0D3",
"J. c #F9C8E108DF08",
"K. c #E94AE52AEFE3",
"L. c #E229E2DFF2F9",
"P. c #E51EE4C7F2C2",
"I. c #FFAEF022EC9F",
"U. c #F705F4F5F907",
"Y. c gray100",
/* pixels */
"Y.Y.Y.Y.Y.Y.Y.Y.Y.Y.Y.Y.Y.Y.Y.Y.",
"Y.Y.Y.Y.Y.Y.Y.Y.Y.Y.Y.Y.Y.Y.Y.Y.",
"I.U.L.m.M.M.P.J.S.K.M.M.V.M.G.D.",
"$.e.C.[ ^ V ] 4.b } Q ! T #.e.R ",
"5 m | q.t.4 ~ c h I 1 B 0.y.L * ",
"' ( ) O.s.F.b.x h i.%.A.v.` K ; ",
"9.2.D :.G H <.j i A <.,.:.D Z 9 ",
"l s t t e e e e u e e e t a q 7 ",
"w.;.*.*.4.8.6.k p ,.8.>.=.=.C 8 ",
"/ 6 W { Z.+.u.v h p.n.a.X.M 3 = ",
"E _ o...N < M z p P 2 Y @. .n O ",
"U 0 : @ o X & $ + & X X % , > # ",
"H.z.g.g.g.g.z.d.d.z.g.g.g.g.x.c.",
"Y.Y.Y.Y.Y.Y.Y.Y.Y.Y.Y.Y.Y.Y.Y.Y.",
"Y.Y.Y.Y.Y.Y.Y.Y.Y.Y.Y.Y.Y.Y.Y.Y.",
"Y.Y.Y.Y.Y.Y.Y.Y.Y.Y.Y.Y.Y.Y.Y.Y."
};
