/* XPM */
static char *GD_xpm[] = {
/* columns rows colors chars-per-pixel */
"16 16 134 2",
"   c #592C1BAF17CB",
".  c #72721B140E28",
"X  c #784F1DF20F75",
"o  c #78881DD80F77",
"O  c #7A4C1C600E80",
"+  c #79011E300F88",
"@  c #6A12204C13B7",
"#  c #753F2411154C",
"$  c #7557244B1556",
"%  c #765827E81621",
"&  c #766028741646",
"*  c #7A0721EB14C2",
"=  c #790825211581",
"-  c #78F5298A1680",
";  c #79FF2917164C",
":  c #5F67708F186D",
">  c #64207B311BD3",
",  c #62367E921BE9",
"<  c #77F17BDF22D2",
"1  c #164FA4162069",
"2  c #175BA49F207F",
"3  c #167EA9BB20C7",
"4  c #1CA0A4F320C8",
"5  c #1D58A50120EB",
"6  c #1D15A8752180",
"7  c #1D24A884217B",
"8  c #1EF1A55F2105",
"9  c #1E06A8AC2194",
"0  c #1EF3AB1521D6",
"q  c #1F55AAB3221D",
"w  c #3B1C82931ABD",
"e  c #3B7D837B1AEF",
"r  c #3DF381B51AB2",
"t  c #2160A5A92124",
"y  c #225CA4FB2102",
"u  c #240CA6112197",
"i  c #259FA692219E",
"p  c #27C3A6E5219B",
"a  c #210BABD5224F",
"s  c #2F90A4A221A4",
"d  c #2D86A7D42209",
"f  c #3AC8A8F22306",
"g  c #3A9EAB19231E",
"h  c #49CF906E273D",
"j  c #4B7C9083279C",
"k  c #4DAB8F012752",
"l  c #499C90D12797",
"z  c #4F1990FE27F4",
"x  c #4B579FBD215D",
"c  c #43C6A69422D6",
"v  c #4687AA1623DC",
"b  c #471BAD5B2465",
"n  c #5200ABA124EB",
"m  c #517AAEFE2512",
"M  c #5410AD60251C",
"N  c #649385E52800",
"B  c #6421B0522634",
"V  c #662BACC32609",
"C  c #7C23A7AA2716",
"Z  c #A9BD26612000",
"A  c #B19324DA1CDF",
"S  c #AACC79F01E6D",
"D  c #B7717C421FA3",
"F  c #D088475E38B1",
"G  c #D13E526B4232",
"H  c #D1925276424B",
"J  c #D1DD531742D0",
"K  c #D39E512742C8",
"L  c #D5425B6144E3",
"P  c #D4646E4458D5",
"I  c #E54770F753D7",
"U  c #E7B97118543B",
"Y  c #E7DB71225463",
"T  c #E7D971CD5469",
"R  c #E7E870B85460",
"E  c #E9CA7BEC5713",
"W  c #EA2A7BE756E6",
"Q  c #EA387D4657B0",
"!  c #EE237E195801",
"~  c #E583743E6E26",
"^  c #94169BC123C6",
"/  c #9C46990B23C1",
"(  c #8D69B33D28EB",
")  c #9F3AA1FA2618",
"_  c #9CE8ADCF2A8D",
"`  c #9BFEB8BD2A8D",
"'  c #9F7EBB082B45",
"]  c #A8128EEA2295",
"[  c #A1C0B9FA2B22",
"{  c #ABD6B9E32B8F",
"}  c #AF10BC522BD7",
"|  c #ACD9BE3A2C41",
" . c #B999BBEA2C8B",
".. c #D3639EFE27A5",
"X. c #D17BA16627FB",
"o. c #D12BB0CB2D2B",
"O. c #DC59B3FB2E62",
"+. c #E59FA5562972",
"@. c #E68CA57A297E",
"#. c #E2BDADD82B54",
"$. c #EBA3A2252996",
"%. c #E960A5E329D3",
"&. c #E976AC3F2B2B",
"*. c #F52CB74F2FEE",
"=. c #F7EAB68C3015",
"-. c #F74FB762301C",
";. c #F847B7B73024",
":. c #F80DB77D305C",
">. c #EE2D825A5916",
",. c #EE5483F559C7",
"<. c #DC1AC3652F61",
"1. c #E842C66A3081",
"2. c #F404C7AC3199",
"3. c #F1AAC9043189",
"4. c #FAE5C92731B0",
"5. c #F9B5CB1F3205",
"6. c #FAA1CB483204",
"7. c #FB4FC92F31D3",
"8. c #FD55CA4231FF",
"9. c #F2EAB1DDAF9C",
"0. c #D797CF0FCF5F",
"q. c #D7D3D042CFA6",
"w. c #D86BCF3ECF6B",
"e. c #D7EFD047CFAB",
"r. c #DA88D1AFD162",
"t. c #E479D246D192",
"y. c #F87EC99CC966",
"u. c #F73ACD60CD96",
"i. c #F7F7CD3FCD92",
"p. c #F7F5D0BECEA5",
"a. c #F99CD08FD02D",
"s. c #F847D25ACF13",
"d. c #F943D755D5D0",
"f. c gray100",
/* pixels */
"f.f.f.f.f.f.f.f.f.f.f.f.f.f.f.f.",
"f.f.f.f.f.f.f.f.f.f.f.f.f.f.f.f.",
"d.a.i.s.s.i.i.p.p.i.i.i.s.s.y.9.",
"~ P I ! W U I W Q I U U ,.,.L A ",
"K N C o.;.;.*.*.*.*.-.-.O._ > O ",
"K l 3 f ( <.6.6.6.6.1.' b q w X ",
"K l c f 4 v ` #.&.[ M i 4 q r X ",
"G z ) ] y 2 i S D d 2 4 y 4 r X ",
"K z x , s V { +.$.} B i 4 q r X ",
"G l q n  .2.7.6.6.7.2.| m a w X ",
"F < / ..%.+.+.+.+.+.+.%.X.^ : . ",
"Z # = ; % # % % % # # # ; ; @   ",
"t.w.0.w.q.0.0.q.q.0.0.0.q.q.0.r.",
"f.f.f.f.f.f.f.f.f.f.f.f.f.f.f.f.",
"f.f.f.f.f.f.f.f.f.f.f.f.f.f.f.f.",
"f.f.f.f.f.f.f.f.f.f.f.f.f.f.f.f."
};
