/* XPM */
static const char *GH_xpm[] = {
/* columns rows colors chars-per-pixel */
"16 16 149 2",
"   c black",
".  c #00001F1F0000",
"X  c #000021210000",
"o  c #000025250000",
"O  c #000027270000",
"+  c #000029290000",
"@  c #00002D2D0000",
"#  c #000033330000",
"$  c #000039390000",
"%  c #00003D3D0000",
"&  c #000041410000",
"*  c #000047470000",
"=  c #00004D4D0000",
"-  c #000053530000",
";  c #000059590000",
":  c #00005D5D0000",
">  c #000063630000",
",  c #000069690000",
"<  c #00006F6F0000",
"1  c #000073730000",
"2  c #434343433636",
"3  c #4A4A4B4B3B3B",
"4  c #60605E5E2F2F",
"5  c #686866663535",
"6  c #0B0B95950B0B",
"7  c #0F0F97970E0E",
"8  c #101097971010",
"9  c #131399991313",
"0  c #141499991414",
"q  c #18189C9C1919",
"w  c #19199C9C1919",
"e  c #1E1E9F9F1E1E",
"r  c #1F1F9F9F1F1F",
"t  c #2323A1A12323",
"y  c #2424A2A22424",
"u  c #2929A4A42929",
"i  c #2A2AA4A42A2A",
"p  c #2C2CA2A22C2C",
"a  c #2F2FA4A42F2F",
"s  c #2E2EA6A62E2E",
"d  c #2F2FA7A72F2F",
"f  c #3232A5A53232",
"g  c #3333A6A63232",
"h  c #3434A9A93434",
"j  c #3535A8A83535",
"k  c #3434AAAA3434",
"l  c #3939A9A93939",
"z  c #3A3AACAC3A3A",
"x  c #3D3DACAC3D3D",
"c  c #3F3FAFAF3F3F",
"v  c #4040AFAF3F3F",
"b  c #4242AEAE4242",
"n  c #4444B1B14444",
"m  c #4545B2B24545",
"M  c #4646B0B04646",
"N  c #4B4BB2B24B4B",
"B  c #4949B4B44949",
"V  c #5050B4B45050",
"C  c #5454B7B75555",
"Z  c #5858B9B95858",
"A  c #5D5DBCBC5D5D",
"S  c #6161BEBE6262",
"D  c #6666C0C06666",
"F  c #6A6AC3C36A6A",
"G  c #E7E700000000",
"H  c #E9E900000000",
"J  c #EBEB00000000",
"K  c #EDED00000000",
"L  c #EFEF00000000",
"P  c #F1F100000000",
"I  c #F3F300000000",
"U  c #F5F500000000",
"Y  c #F7F700000000",
"T  c #F9F900000000",
"R  c #FBFB00000000",
"E  c #FDFD00000000",
"W  c red",
"Q  c #F5F526262626",
"!  c #F6F62B2B2B2B",
"~  c #F6F62C2C2C2C",
"^  c #F7F731313131",
"/  c #F8F837373636",
"(  c #F8F837373737",
")  c #F9F93C3C3C3C",
"_  c #F9F93C3C3D3D",
"`  c #F6F644444444",
"'  c #F7F749494949",
"]  c #F7F74E4E4E4E",
"[  c #FAFA41414242",
"{  c #FAFA42424242",
"}  c #FBFB47474747",
"|  c #FCFC4B4B4B4B",
" . c #FCFC4C4C4C4C",
".. c #F8F853535353",
"X. c #F9F957575757",
"o. c #FDFD51515151",
"O. c #FDFD54545454",
"+. c #FAFA5C5C5C5C",
"@. c #FEFE59595959",
"#. c #FEFE5C5C5C5C",
"$. c #FEFE5F5F5F5F",
"%. c #FBFB60606060",
"&. c #FCFC65656565",
"*. c #FCFC69696969",
"=. c #FDFD6D6D6D6D",
"-. c #FDFD70707171",
";. c #FEFE74747474",
":. c #FEFE77777777",
">. c #FEFE79797979",
",. c #FFFF7B7B7A7A",
"<. c #FFFF7B7B7B7B",
"1. c #939394943030",
"2. c #929295953C3C",
"3. c #98989A9A4141",
"4. c #A1A1A1A14040",
"5. c #E3E3E3E30000",
"6. c #E5E5E5E50000",
"7. c #E7E7E7E70000",
"8. c #FDFDFDFD0000",
"9. c #F2F2F2F21414",
"0. c #F3F3F3F31919",
"q. c #F3F3F3F31A1A",
"w. c #F4F4F4F41F1F",
"e. c #ECECEFEF3636",
"r. c #F2F2EFEF2A2A",
"t. c #F4F4F4F42020",
"y. c #F5F5F5F52424",
"u. c #F5F5F5F52525",
"i. c #F6F6F6F62B2B",
"p. c #F7F7F7F73030",
"a. c #F4F4F4F43636",
"s. c #F4F4F5F53B3B",
"d. c #F5F5F5F53F3F",
"f. c #F9F9F4F43A3A",
"g. c #F0F0F3F34646",
"h. c #FAFAFAFA4040",
"j. c #FBFBFBFB4545",
"k. c #FBFBFBFB4646",
"l. c #FBFBFCFC4949",
"z. c #FCFCFCFC4B4B",
"x. c #FCFCFCFC4F4F",
"c. c #FDFDFCFC5050",
"v. c #FDFDFDFD5353",
"b. c #FDFDFDFD5454",
"n. c #FEFEFEFE5858",
"m. c #FDFDFDFD6F6F",
"M. c #FEFEFEFE7373",
"N. c #FEFEFEFE7676",
"B. c None",
/* pixels */
"B.B.B.B.B.B.B.B.B.B.B.B.B.B.B.B.",
"B.B.B.B.B.B.B.B.B.B.B.B.B.B.B.B.",
"B.B.B.B.B.B.B.B.B.B.B.B.B.B.B.B.",
"W W W W R W W W R R Y Y I I K K ",
"W <.<.:.:.;.-.=.*.&.%.+.X...] J ",
"W <.$.#.#.O.o. .} { _ / ^ ~ ' J ",
"W <.#.#.o.o.| } { _ / ^ ! Q ` G ",
"8.N.b.b.c.z.g.3.2.e.p.i.u.t.d.7.",
"8.N.v.z.z.l.4.3 2 1.i.u.w.0.d.7.",
"8.m.z.l.l.d.f.5 4 r.u.w.0.9.a.5.",
"1 F B m v z k d i y e q 0 7 f o ",
"1 D n v z k a i t e q 9 7 6 a X ",
", S A Z C V N M b x l j f a p . ",
"> : ; - = * & % $ # @ + o X . . ",
"B.B.B.B.B.B.B.B.B.B.B.B.B.B.B.B.",
"B.B.B.B.B.B.B.B.B.B.B.B.B.B.B.B."
};
