/* XPM */
static char *GI_xpm[] = {
/* columns rows colors chars-per-pixel */
"16 16 94 2",
"   c #78AF1FDC0E2B",
".  c #6363228E15BE",
"X  c #7E50209A0E3D",
"o  c #7E9C207B0E3D",
"O  c #7C37293B0E68",
"+  c #7B3E2C380E62",
"@  c #8DB51B0E0786",
"#  c #875A22BA0E9E",
"$  c #A6801B4E0000",
"%  c #A7771B580000",
"&  c #AA931FAC0302",
"*  c #B92A2BE40E66",
"=  c #B1742E481437",
"-  c #B7A32F0213A6",
";  c #BC3136961C2B",
":  c #B99D39EC1F44",
">  c #B4DF3AC72622",
",  c #BC7144133183",
"<  c #BA31492C31DB",
"1  c #997A4DAB4149",
"2  c #BF1760204B84",
"3  c #BCDB67AB5681",
"4  c #D32E1DB30000",
"5  c #D0AB32621355",
"6  c #DE9A33870000",
"7  c #D46F33CC1486",
"8  c #D77636A5131E",
"9  c #E15C1F110000",
"0  c #E1711F880000",
"q  c #E23B1FAC0000",
"w  c #E1E4211A0000",
"e  c #E1F021D70000",
"r  c #E2A223150000",
"t  c #E25F23B00000",
"y  c #E240256C0000",
"u  c #E60D285D07C9",
"i  c #DA4C43C60000",
"p  c #D8D44145263C",
"a  c #DB444E363356",
"s  c #EB3C47B429A5",
"d  c #EB374A692BD4",
"f  c #EA5F4D0A2A77",
"g  c #E9B552412A7F",
"h  c #F1E04C832E78",
"j  c #E4DF63DD25EA",
"k  c #C32356EF41FE",
"l  c #EF955D94434F",
"z  c #F0AE63E54B2C",
"x  c #E6BF6DB05A1A",
"c  c #F64874D65FEF",
"v  c #F66D758A60EB",
"b  c #F739757A60A0",
"n  c #F69F7BDB6815",
"m  c #C96B85477A86",
"M  c #9EB59A739971",
"N  c #9F129F329F39",
"B  c #A0FCA102A102",
"V  c #CEFE93C486BC",
"C  c #DBA2AEF2A530",
"Z  c #F80D9516854C",
"A  c #F1B8C0A4B74C",
"S  c #CFD6CF7ACF7A",
"D  c #D8CCD12ACF9D",
"F  c #D8F5D135CF9E",
"G  c #DB78D32CD175",
"H  c #E6ABD553D1D7",
"J  c #EEB4D889D366",
"K  c #F0E6DA94D574",
"L  c #F5B9D5FECFF3",
"P  c #F2BBDF29DACB",
"I  c #F350E39BDF97",
"U  c #EF3AE866E6DE",
"Y  c #EFCEEFCEEFCE",
"T  c #EFE0F062F07B",
"R  c #F763ED10EA76",
"E  c #F929EE6EEB98",
"W  c #F984F114EF44",
"Q  c #F16FF173F173",
"!  c #FF63F830F69A",
"~  c #FFFFF8F6F756",
"^  c #FD49F973F7E6",
"/  c #FD12F9BBF88D",
"(  c #FFB2F937F7BF",
")  c #FF97F9CBF87F",
"_  c #FBA5FB38FB38",
"`  c #FD2BFCC3FCC3",
"'  c #FEC5FCD2FC23",
"]  c #FDA7FD44FD44",
"[  c #FE63FE2FFE31",
"{  c #FEBFFEFCFF1A",
"}  c #FEEDFF1EFF2E",
"|  c #FFB0FEE8FEB9",
" . c #FFCDFFCFFFC5",
".. c gray100",
/* pixels */
"................................",
"................................",
".._ .._ _ ..` _ _ _ _ _ .._ _ _ ",
".._ ...._ .............._ .._ S ",
"..........` _ J C I ^ ......R B ",
"..........E m 2 ; 3 V ~ ....T N ",
"..........P , - * = 2 R ....T N ",
"..........K > $ & $ < R ....T N ",
"^ ^ ^ ^ _ A p 7 8 5 a L ~ ~ U M ",
"Z n v v c l s g j f d z v v x 1 ",
"h u r r q q r 6 i y r r q q 4 @ ",
"> @ X     @   O +   o o #     . ",
"H F F F D D D D D D D D D D D G ",
"................................",
"................................",
"................................"
};
