/* XPM */
static const char *GI_xpm[] = {
/* columns rows colors chars-per-pixel */
"16 16 115 2",
"   c black",
".  c #B9B93D3D3535",
"X  c #ADAD69696565",
"o  c #D5D500000000",
"O  c #DDDD00000000",
"+  c #DFDF00000000",
"@  c #DEDE3D3D3131",
"#  c #E1E100000000",
"$  c #E3E300000000",
"%  c #E5E500000000",
"&  c #E7E700000000",
"*  c #E9E900000000",
"=  c #EDED00000000",
"-  c #EFEF00000000",
";  c #F1F100000000",
":  c #F3F300000000",
">  c #F5F500000000",
",  c #F7F700000000",
"<  c #F9F915150505",
"1  c #F2F238382C2C",
"2  c #F2F23B3B2F2F",
"3  c #F2F23F3F3232",
"4  c #E1E148483C3C",
"5  c #F0F043433737",
"6  c #F3F341413535",
"7  c #F4F446463939",
"8  c #F2F248483B3B",
"9  c #F5F54A4A3D3D",
"0  c #E8E855554A4A",
"q  c #ECEC5E5E5454",
"w  c #F1F14E4E4343",
"e  c #F2F24D4D4141",
"r  c #F1F152524545",
"t  c #F4F450504242",
"y  c #F1F154544848",
"u  c #F3F35A5A4141",
"i  c #F2F258584C4C",
"p  c #F4F458584D4D",
"a  c #F0F05B5B5151",
"s  c #F3F35C5C5151",
"d  c #F5F55E5E5353",
"f  c #F8F85B5B5050",
"g  c #F9F95F5F5555",
"h  c #F7F760605555",
"j  c #F9F963635858",
"k  c #FAFA68685D5D",
"l  c #F2F26A6A6060",
"z  c #F8F86B6B6161",
"x  c #FBFB6B6B6262",
"c  c #F8F86D6D6363",
"v  c #F7F777776E6E",
"b  c #F9F974746A6A",
"n  c #FAFA78786E6E",
"m  c #FAFA7C7C7272",
"M  c #E1E1A1A13F3F",
"N  c #E8E8A7A73C3C",
"B  c #FBFB84847C7C",
"V  c #EEEEABAB5858",
"C  c #EBEBB0B05555",
"Z  c #FCFC94948D8D",
"A  c #C9C9C7C7C7C7",
"S  c #CBCBCBCBCBCB",
"D  c #CDCDCDCDCDCD",
"F  c gray81",
"G  c gray82",
"H  c #D5D5D5D5D5D5",
"J  c #D7D7D7D7D7D7",
"K  c gray85",
"L  c gray86",
"P  c #DFDFDFDFDFDF",
"I  c #E3E3CACAC8C8",
"U  c #EDEDCCCCCACA",
"Y  c #EBEBD3D3D0D0",
"T  c #EDEDD4D4D3D3",
"R  c #F1F1DEDEDDDD",
"E  c #F7F7E0E0DEDE",
"W  c #E1E1E1E1E1E1",
"Q  c gray89",
"!  c gray90",
"~  c #E7E7E7E7E7E7",
"^  c #E9E9E7E7E7E7",
"/  c #EFEFE2E2E1E1",
"(  c #EEEEE5E5E4E4",
")  c #E9E9E9E9E9E9",
"_  c gray92",
"`  c gray93",
"'  c #EFEFEFEFEFEF",
"]  c #F7F7E5E5E4E4",
"[  c #F9F9E3E3E2E2",
"{  c #F2F2F1F1F1F1",
"}  c gray95",
"|  c #F3F3F2F2F2F2",
" . c #F3F3F3F3F3F3",
".. c #F7F7F2F2F1F1",
"X. c #F6F6F3F3F3F3",
"o. c #F4F4F4F4F4F4",
"O. c #F4F4F5F5F5F5",
"+. c gray96",
"@. c #F6F6F6F6F6F6",
"#. c gray97",
"$. c #FAFAF3F3F3F3",
"%. c #F8F8F8F8F8F8",
"&. c #F9F9F9F9F9F9",
"*. c gray98",
"=. c #FBFBFAFAFAFA",
"-. c #FBFBFBFBFBFB",
";. c #FBFBFCFCFBFB",
":. c gray99",
">. c #FDFDFCFCFCFC",
",. c #FDFDFCFCFDFD",
"<. c #FDFDFDFDFDFD",
"1. c #FDFDFDFDFEFE",
"2. c #FEFEFEFEFEFE",
"3. c gray100",
"4. c None",
/* pixels */
"4.4.4.4.4.4.4.4.4.4.4.4.4.4.4.4.",
"4.4.4.4.4.4.4.4.4.4.4.4.4.4.4.4.",
"4.4.4.4.4.4.4.4.4.4.4.4.4.4.4.4.",
"' ' ' ' ' ' _ ^ ) ~ ~ W W W K K ",
"' 3.3.*.3.3.>.3.*.3.*.*.*.*.@.J ",
"' 3.3.3.3.*.$.B ] *.*.@.@.@.@.J ",
"' 3.3.3.3.[ z q d R *.@.@.@.@.F ",
"' 3.3.*.*.T q X 0 Y @.@. .@.@.F ",
") 3.-.3.3.v e 8 5 w @.@. . . .F ",
") 3.-.-.*.U 4 . @ I @. . . . .S ",
"^ 3.*.*.*.../ M R ]  . .' '  .A ",
"< Z m n b z h N u p s i 0 r k O ",
"> z k j h f V C t 9 7 6 6 2 1 O ",
"> : : : - - * o % % % # # O O O ",
"4.4.4.4.4.4.4.4.4.4.4.4.4.4.4.4.",
"4.4.4.4.4.4.4.4.4.4.4.4.4.4.4.4."
};
