/* XPM */
static const char *GL_xpm[] = {
/* columns rows colors chars-per-pixel */
"16 16 126 2",
"   c black",
".  c #DDDD00000000",
"X  c #DFDF00000000",
"o  c #E1E100000000",
"O  c #E3E300000000",
"+  c #E5E500000000",
"@  c #E7E700000000",
"#  c #E9E900000000",
"$  c #EBEB00000000",
"%  c #EDED00000000",
"&  c #EFEF00000000",
"*  c #E5E511111111",
"=  c #F1F100000000",
"-  c #F3F300000000",
";  c #F5F500000000",
":  c #F7F700000000",
">  c #F1F10B0B0B0B",
",  c #F1F10F0F0E0E",
"<  c #F9F900000000",
"1  c #FBFB00000000",
"2  c #FDFD00000000",
"3  c #F2F210101010",
"4  c #F2F213131313",
"5  c #F2F214141414",
"6  c #F3F319191919",
"7  c #F4F41E1E1E1E",
"8  c #F4F41F1F1F1F",
"9  c #F5F524242424",
"0  c #F2F22C2C2C2C",
"q  c #F2F22F2F2F2F",
"w  c #F2F232323232",
"e  c #F3F332323232",
"r  c #F3F335353535",
"t  c #F4F436363636",
"y  c #F4F439393939",
"u  c #F5F53D3D3D3D",
"i  c #F9F93B3B3C3C",
"p  c #F6F642424242",
"a  c #FAFA41414141",
"s  c #FAFA44444444",
"d  c #FAFA46464747",
"f  c #FBFB46464646",
"g  c #FBFB47474747",
"h  c #FBFB4B4B4B4B",
"j  c #FCFC4B4B4B4B",
"k  c #FDFD4F4F5050",
"l  c #F7F752525252",
"z  c #F5F558585858",
"x  c #FAFA51515151",
"c  c #F9F954545555",
"v  c #FDFD51515151",
"b  c #FDFD54545454",
"n  c #FDFD55555555",
"m  c #F9F958585858",
"M  c #FAFA5D5D5D5D",
"N  c #FDFD5E5E5E5E",
"B  c #F5F56E6E6E6E",
"V  c #FBFB61616262",
"C  c #FDFD65656565",
"Z  c #FCFC66666666",
"A  c #FCFC67676767",
"S  c #F8F86A6A6A6A",
"D  c #FCFC6A6A6A6A",
"F  c #FCFC6D6D6D6D",
"G  c #FDFD6F6F6F6F",
"H  c #F7F770707070",
"J  c #F8F875757575",
"K  c #F3F387878787",
"L  c #F4F48B8B8B8B",
"P  c #F5F58E8E8E8E",
"I  c #F6F691919191",
"U  c #F7F794949494",
"Y  c #F4F498989898",
"T  c #F8F897979797",
"R  c #FEFE92929292",
"E  c #FEFE93939393",
"W  c #F9F99A9A9A9A",
"Q  c #FAFA9D9D9D9D",
"!  c #FBFBA0A0A1A1",
"~  c #FCFCA3A3A3A3",
"^  c #FCFCA5A5A5A5",
"/  c #FDFDA9A9A9A9",
"(  c #F6F6B6B6B6B6",
")  c #F9F9BEBEBEBE",
"_  c #FEFEB9B9B9B9",
"`  c #D5D5D5D5D5D5",
"'  c #D7D7D7D7D7D7",
"]  c gray85",
"[  c #DDDDDDDDDDDD",
"{  c #DFDFDFDFDFDF",
"}  c #FBFBC0C0C0C0",
"|  c #FBFBC2C2C2C2",
" . c #F9F9CFCFCFCF",
".. c #F6F6DCDCDCDC",
"X. c #E1E1E1E1E1E1",
"o. c gray89",
"O. c gray90",
"+. c #E7E7E7E7E7E7",
"@. c #E9E9E9E9E9E9",
"#. c gray92",
"$. c gray93",
"%. c #EFEFEFEFEFEF",
"&. c #EFEFEFEFF1F1",
"*. c #FEFEE3E3E3E3",
"=. c #FDFDE5E5E5E5",
"-. c #FEFEEDEDEDED",
";. c #F1F1F1F1F1F1",
":. c #F6F6F2F2F2F2",
">. c #F4F4F4F4F4F4",
",. c gray96",
"<. c #F7F7F4F4F4F4",
"1. c #F6F6F6F6F6F6",
"2. c gray97",
"3. c #F8F8F1F1F1F1",
"4. c #FEFEF2F2F2F2",
"5. c #FDFDF7F7F7F7",
"6. c #F8F8F8F8F8F8",
"7. c #F9F9F9F9F9F9",
"8. c gray98",
"9. c #FBFBFBFBFBFB",
"0. c #FBFBFCFCFBFB",
"q. c gray99",
"w. c #FEFEFDFDFDFD",
"e. c #FEFEFEFEFEFE",
"r. c gray100",
"t. c None",
/* pixels */
"t.t.t.t.t.t.t.t.t.t.t.t.t.t.t.t.",
"t.t.t.t.t.t.t.t.t.t.t.t.t.t.t.t.",
"t.t.t.t.t.t.t.t.t.t.t.t.t.t.t.t.",
";.;.;.;.;.;.$.$.$.$.@.+.O.o.X.{ ",
";.r.r.r.r.-.=.5.9.r.9.7.7.7.1.[ ",
";.r.r.4.R M n A } 7.7.7.2.2.2.] ",
";.r.r.R x x j g d  .7.1.2.1.1.' ",
";.r.*.x k j g a i J 1.1.1.;.1.` ",
"A _ / ^ ! ! Q W T U I P P K U * ",
"2 F F q.r.7.7.7.1.( 9 8 6 4 t o ",
"2 D j ) 7.7.2.1.;.m 8 6 4 4 e X ",
"< A s x ) :.1...B 8 6 4 , > e X ",
"< V M m c S H l p u y r e q 0 . ",
"; - - % % % $ $ @ @ o o X X . . ",
"t.t.t.t.t.t.t.t.t.t.t.t.t.t.t.t.",
"t.t.t.t.t.t.t.t.t.t.t.t.t.t.t.t."
};
