/* XPM */
static char *GN_xpm[] = {
/* columns rows colors chars-per-pixel */
"16 16 113 2",
"   c #1F824DA81F82",
".  c #1BF55B0F1BF5",
"X  c #1C595F2C1CA9",
"o  c #1CBA5F7F1CB6",
"O  c #1FC05FFE1CC3",
"+  c #1A7169051A71",
"@  c #1BEE6EC21BEE",
"#  c #1BB16FA11BB1",
"$  c #1C336F521C33",
"%  c #6765787A1F70",
"&  c #1CDA994E1CDA",
"*  c #1DECA32B1E9B",
"=  c #1EF8A2BD1EF8",
"-  c #1EC4A40C1EBB",
";  c #1F38A3801F38",
":  c #1F9DA3CD1F9D",
">  c #2F1D96392F1D",
",  c #248CA53B1ECB",
"<  c #2042AD62211C",
"1  c #2066AE0B213F",
"2  c #214FAE592143",
"3  c #216FAF012164",
"4  c #2241AE0D22FE",
"5  c #2326AEFC231D",
"6  c #271DAFAC2150",
"7  c #274EB0582173",
"8  c #292DB04D2331",
"9  c #53A9BEDF53A9",
"0  c #5EA1C49F5F32",
"q  c #5FC3C5375FBC",
"w  c #6384C5EC5F53",
"e  c #82311E7818AB",
"r  c #822A20B61893",
"t  c #8B60227B19A7",
"y  c #842355C41D2A",
"u  c #C149362B2A67",
"i  c #E93C21F91653",
"p  c #E99725E7160A",
"a  c #E9AB268D1695",
"s  c #EE032ED11EF0",
"d  c #F790244E17C5",
"f  c #F884247B17E3",
"g  c #F79126691A1F",
"h  c #F7F228A31781",
"j  c #F8E428CC179F",
"k  c #F7FB29481803",
"l  c #F83729631820",
"z  c #F7F52A8419D9",
"x  c #F7FE2B321A70",
"c  c #F84333822359",
"v  c #F84635602525",
"b  c #F91633C3238E",
"n  c #F8985203443D",
"m  c #F9C659D84CD7",
"M  c #F9FE5A574D5B",
"N  c #F9C55A8F4D5D",
"B  c #FA0164C95806",
"V  c #F9B761C1587D",
"C  c #FA09654D5870",
"Z  c #FA536C326000",
"A  c #8600825C20B9",
"S  c #8604844520F2",
"D  c #86E5835320C3",
"F  c #B3BED64523E0",
"G  c #BEC7E3A3269E",
"H  c #BF3FE47F26C6",
"J  c #BF69E3C3287B",
"K  c #ED8890A61F57",
"L  c #FC27998721C1",
"P  c #FCDA99DA21E6",
"I  c #FC289A9923B8",
"U  c #FB4B81787765",
"Y  c #FD22B60C5FA0",
"T  c #F13AE989265D",
"R  c #F301EB68266F",
"E  c #F143ED8526C4",
"W  c #FFFFF7CD291D",
"Q  c #FFFFF7E52929",
"!  c #FFFFF8C8294B",
"~  c #FFFFF7D92B01",
"^  c #FFFFF9D12927",
"/  c #FFFFF9D12939",
"(  c #FFFFFAC2295E",
")  c #FFFFF9D02B14",
"_  c #FFFFFC2D29A8",
"`  c #FFFFFC0F2B7B",
"'  c #D0E0EB4F6322",
"]  c #FFFFF9E3652A",
"[  c #FFFFF9F9652B",
"{  c #FFFFFB616536",
"}  c #FFFFFD0B654E",
"|  c #B7A3E550B7A3",
" . c #D087D631D072",
".. c #D921D0B3D023",
"X. c #D6DED852D0B7",
"o. c #DA0ED0ECD036",
"O. c #D955D567D088",
"+. c #D97FD92DD0BF",
"@. c #D268D88FD268",
"#. c #D978D950D0D5",
"$. c #CF7FEE20CF7F",
"%. c #D38BEFA2D3A5",
"&. c #D488EFD7D391",
"*. c #E76AD4A5D306",
"=. c #FE53D42DD179",
"-. c #FE50D52ED15D",
";. c #FE71D6BBD36D",
":. c #FEC6DB81D8AD",
">. c #FF3BEB87D39B",
",. c #F2EEFA59D4AC",
"<. c #FFFFFE73D537",
"1. c #FFFFFF2AD539",
"2. c gray100",
/* pixels */
"2.2.2.2.2.2.2.2.2.2.2.2.2.2.2.2.",
"2.2.2.2.2.2.2.2.2.2.2.2.2.2.2.2.",
":.-.-.-.-.>.<.<.<.<.,.&.%.%.$.| ",
"U Z C C V Y { ] ] ] ' w q q 9 > ",
"N v z x g I _ W ~ W J 8 2 2 < + ",
"N c k k d I ( W W _ G 6 < 2 = @ ",
"N c f k d L ( W W _ G 6 < 2 = @ ",
"N c k k d I _ ( W W G 6 < 2 = @ ",
"N c j j d L _ W W W G 8 , 2 = # ",
"N v j j d L _ _ W _ G 8 < 2 = # ",
"n s p p i K E T T R F < = - & + ",
"u t r e e y A A A A % O X X .   ",
"*.........X.X.X.#.#.X. . . . .@.",
"2.2.2.2.2.2.2.2.2.2.2.2.2.2.2.2.",
"2.2.2.2.2.2.2.2.2.2.2.2.2.2.2.2.",
"2.2.2.2.2.2.2.2.2.2.2.2.2.2.2.2."
};
