/* XPM */
static const char *GP_xpm[] = {
/* columns rows colors chars-per-pixel */
"16 16 150 2",
"   c black",
".  c #0000C1C10000",
"X  c #0000C3C30000",
"o  c #0000C5C50000",
"O  c #0000C7C70000",
"+  c #0000CBCB0000",
"@  c #0000CDCD0000",
"#  c #0000CFCF0000",
"$  c #0000D3D30000",
"%  c #0000D5D50000",
"&  c #0000D7D70000",
"*  c #0000D9D90000",
"=  c #0000DBDB0000",
"-  c #0000DDDD0000",
";  c #0000DFDF0000",
":  c #0000E1E10000",
">  c #0000E3E30000",
",  c #0000E5E50000",
"<  c #0000E7E70000",
"1  c #0000E9E90000",
"2  c #0303EBEB0000",
"3  c #0909EBEB0000",
"4  c #0D0DEDED0000",
"5  c #0000F1F10000",
"6  c #1D1DEDED0000",
"7  c #1717F9F90303",
"8  c #5757EDED4747",
"9  c #5959EDED4B4B",
"0  c #5C5CEFEF4D4D",
"q  c #6060F0F05050",
"w  c #6262F0F05454",
"e  c #6565F1F15757",
"r  c #6969F2F25B5B",
"t  c #6D6DF3F35F5F",
"y  c #7171F4F46363",
"u  c #7575F5F56767",
"i  c #7575F6F66A6A",
"p  c #7878F6F66B6B",
"a  c #7979F7F76E6E",
"s  c #7C7CF7F76F6F",
"d  c #7D7DF7F77272",
"f  c #7F7FF7F77474",
"g  c #DBDB00000000",
"h  c #DFDF00000000",
"j  c #E1E100000000",
"k  c #E3E300000000",
"l  c #E5E500000000",
"z  c #FBFB00000000",
"x  c #F9F90B0B0000",
"c  c #FBFB09090000",
"v  c #FFFF0F0F0000",
"b  c #FBFB15150000",
"n  c #F0F041411F1F",
"m  c #F1F146462424",
"M  c #F2F243432828",
"N  c #F3F347472C2C",
"B  c #F1F149492929",
"V  c #F1F14A4A2A2A",
"C  c #F2F24E4E2E2E",
"Z  c #F2F24E4E2F2F",
"A  c #F2F24F4F2F2F",
"S  c #F4F44A4A3131",
"D  c #F5F54F4F3636",
"F  c #F4F452523333",
"G  c #F4F453533434",
"H  c #F4F453533535",
"J  c #F4F454543535",
"K  c #F5F557573838",
"L  c #F5F557573A3A",
"P  c #F6F654543939",
"I  c #F6F654543B3B",
"U  c #F5F558583B3B",
"Y  c #F7F759593E3E",
"T  c #F6F65B5B3E3E",
"R  c #F2F25C5C4040",
"E  c #F7F758584040",
"W  c #F6F65C5C4040",
"Q  c #F8F85D5D4343",
"!  c #F8F85D5D4545",
"~  c #F2F260604343",
"^  c #F7F760604343",
"/  c #F7F761614545",
"(  c #F3F364644848",
")  c #F4F468684C4C",
"_  c #F9F961614949",
"`  c #F9F961614A4A",
"'  c #F8F864644848",
"]  c #F8F865654A4A",
"[  c #FAFA66664E4E",
"{  c #FAFA66664F4F",
"}  c #F9F969694D4D",
"|  c #F9F969694F4F",
" . c #F9F96A6A4F4F",
".. c #F5F56C6C5050",
"X. c #FBFB69695353",
"o. c #FAFA6A6A5151",
"O. c #FBFB6A6A5353",
"+. c #FAFA6E6E5353",
"@. c #FAFA6E6E5454",
"#. c #FCFC6E6E5757",
"$. c #FBFB6A6A5858",
"%. c #FAFA6D6D5858",
"&. c #FAFA72725858",
"*. c #FBFB75755C5C",
"=. c #FDFD72725B5B",
"-. c #FDFD76766060",
";. c #FEFE75756464",
":. c #8181F7F77676",
">. c #8484F8F87878",
",. c #8484F8F87A7A",
"<. c #8888F9F97D7D",
"1. c #FEFE83836868",
"2. c #FBFB88886262",
"3. c #FCFC86867777",
"4. c #FBFBB5B55F5F",
"5. c #FCFCCACA7F7F",
"6. c #FCFCD6D66868",
"7. c #FCFCE3E36969",
"8. c #FEFEE9E97070",
"9. c #FDFDFAFA6F6F",
"0. c #8B8BFAFA8080",
"q. c #8F8FFBFB8484",
"w. c #9191FCFC8888",
"e. c #9494FCFC8A8A",
"r. c #9696FCFC8D8D",
"t. c #9898FCFC8F8F",
"y. c #9999FCFC9090",
"u. c #C9C9B1B19797",
"i. c #DDDDBFBFA9A9",
"p. c #FEFE93938282",
"a. c #FDFDB5B58484",
"s. c #FEFEEDED8888",
"d. c #EBEBD9D9C5C5",
"f. c #F5F5DFDFCFCF",
"g. c #F1F1F1F1F1F1",
"h. c gray95",
"j. c #F3F3F3F3F3F3",
"k. c #F4F4F4F4F4F4",
"l. c gray96",
"z. c #F6F6F6F6F6F6",
"x. c gray97",
"c. c #F8F8F8F8F8F8",
"v. c #F9F9F9F9F9F9",
"b. c gray98",
"n. c #FBFBFBFBFBFB",
"m. c gray99",
"M. c #FDFDFDFDFDFD",
"N. c #FEFEFEFEFEFE",
"B. c gray100",
"V. c None",
/* pixels */
"V.V.V.V.V.V.V.V.V.V.V.V.V.V.V.V.",
"V.V.V.V.V.V.V.V.V.V.V.V.V.V.V.V.",
"V.V.V.V.V.V.V.V.V.V.V.V.V.V.V.V.",
"6 4 4 4 3 2 < < < < > ; ; * * & ",
"7 y.t.t.r.e.q.q.0.<.,.:.d a i < ",
"f.B.B.B.B.B.B.B.B.v.v.v.x.x.x.i.",
"v p.1.;.*.=.#.O.[ ! W W P J ) l ",
"b a.8.2.*.%.#.) ] / R P F F ) l ",
"b s.9.6.%.@.o.[ / R P J C V ( j ",
"b a.7.4.+. .! W T U F C V m ~ h ",
"z 3.$.O.[ ! W W I D N N N n R g ",
"d.b.b.b.b.v.x.x.x.k.x.g.g.g.g.u.",
"5 ,.f s p u y t r e w q 0 9 8 $ ",
"> ; * * & & $ @ @ @ X + X . . . ",
"V.V.V.V.V.V.V.V.V.V.V.V.V.V.V.V.",
"V.V.V.V.V.V.V.V.V.V.V.V.V.V.V.V."
};
