/* XPM */
static char *GR_xpm[] = {
/* columns rows colors chars-per-pixel */
"16 16 94 2",
"   c #519D55B45EE8",
".  c #634C684D73F7",
"X  c #67DA6CB2791D",
"o  c #68426D1D7994",
"O  c #687C6D6479DB",
"+  c #6EE774BA81D8",
"@  c #73DC7C1C8CED",
"#  c #74607C998D76",
"$  c #795480838F6B",
"%  c #83F187618EF2",
"&  c #8B718F4296DF",
"*  c #8B938F7997FE",
"=  c #8D3590DE97BA",
"-  c #94B39DDCB1E6",
";  c #9CB7A690BBFF",
":  c #A1F6B34FD849",
">  c #A795B89EDA75",
",  c #ACABB947D383",
"<  c #ADC3BA3DD4A2",
"1  c #AEDDBDDADDD1",
"2  c #B23AC05CDF33",
"3  c #B71CC1C8D83C",
"4  c #B300C169DFA4",
"5  c #B787C533E18A",
"6  c #B83AC5C0E20E",
"7  c #B851C5D7E25B",
"8  c #B940C697E2AD",
"9  c #B928C68AE31C",
"0  c #B9E3C6D5E266",
"q  c #B9D9C73EE3EB",
"w  c #BC5CC890E3B9",
"e  c #BCC6C965E43E",
"r  c #BD42C9FEE409",
"t  c #C015CBBEE57A",
"y  c #C06FCC71E594",
"u  c #CA35CE6FD7E0",
"i  c #D537D5EDD7B1",
"p  c #D593D655D833",
"a  c #D7CFD8A6DA58",
"s  c #C138CCEFE5A3",
"d  c #C38ACE49E6EE",
"f  c #C376CEDDE6DB",
"g  c #C393CED8E6E9",
"h  c #C44ACF9BE7BA",
"j  c #C518CFEEE749",
"k  c #C7C4D203E88D",
"l  c #C8AFD334E8D3",
"z  c #CC68D569E8C9",
"x  c #D03BD8A2EBB3",
"c  c #D5C9DAA6E5C7",
"v  c #D6B7DBA4E557",
"b  c #D7A7DC24E668",
"n  c #D86BDCEAE737",
"m  c #D1D3DA0AEC84",
"M  c #D37BDB6DED34",
"N  c #D3E4DBCBED77",
"B  c #D516DCE1EE35",
"V  c #D719DEE3EEF0",
"C  c #D8C6DFA8EF8F",
"Z  c #DA43DEC5E6B8",
"A  c #DF09E0BFE473",
"S  c #DC4FE0BBEABB",
"D  c #D9C0E0A5F006",
"F  c #DAD4E160EFB9",
"G  c #DAE1E167F0B5",
"H  c #DC6DE2E0F0CC",
"J  c #DC6AE2BDF13F",
"K  c #DDAAE41BF1CB",
"L  c #DE5EE469F227",
"P  c #E048E5F6F2EF",
"I  c #E10EE6D7F2EE",
"U  c #E117E6C1F302",
"Y  c #E25AE7CEF380",
"T  c #E308E839F3D6",
"R  c #E3C9E910F462",
"E  c #E53DEA75F4D7",
"W  c #E5BEEAA6F524",
"Q  c #E601EAD1F547",
"!  c #E609EB4CF5B7",
"~  c #E756EC27F5EF",
"^  c #E8FBEDC2F656",
"/  c #E96AEE23F686",
"(  c #E9D2EE9EF739",
")  c #EA97EEC7F712",
"_  c #EC50EFE2F785",
"`  c #EC70F000F793",
"'  c #EC95F066F827",
"]  c #ED78F12FF84A",
"[  c #EE50F1CCF8A6",
"{  c #F09EF379F98A",
"}  c #F16BF40EF9D8",
"|  c #F22EF4C0FA28",
" . c #F2D2F556FA95",
".. c gray100",
/* pixels */
"................................",
"................................",
"{ [ | | [ ` ` ` _ _ _ _ ` ` ^ P ",
"l r D L 0 y m N m B m B m B z ; ",
"k y P P r y J R T R R R R R c * ",
"J R | | P D y y y g g y g j 3 $ ",
"0 > m B : 4 P ^ ^ ^ ^ ^ ^ ^ Z = ",
"r 4 D D 1 4 0 0 0 0 5 5 0 0 < @ ",
"L ~ ' _ ~ R R R R R R R R R n * ",
"h r 5 0 0 q 0 0 q 0 0 q q w < @ ",
"D F c n n n c n Z c Z c Z n u % ",
"; O o o o o o o o o o o o O .   ",
"A i i i i i i i i i i i i i i a ",
"................................",
"................................",
"................................"
};
