/* XPM */
static char *HK_xpm[] = {
/* columns rows colors chars-per-pixel */
"16 16 81 1",
"  c #57D414E914E9",
". c #69090D4F0D4F",
"X c #6D430AE30AE3",
"o c #6D420B110B11",
"O c #6DEE0CE70CE7",
"+ c #6E0C0D5D0D5D",
"@ c #756D0DA30DA3",
"# c #7A4B08390839",
"$ c #80F408E508E5",
"% c #8222087A087A",
"& c #A45C1A361A36",
"* c #AD1C16CC16CC",
"= c #B4C300000000",
"- c #BF8D00000000",
"; c #C06D00000000",
": c #C11E001C001C",
"> c #C13502480248",
", c #C19F04B704B7",
"< c #C20E06AA06AA",
"1 c #C5F408970897",
"2 c #CC9A00000000",
"3 c #CC99015B015B",
"4 c #CC5B032C032C",
"5 c #CD3500000000",
"6 c #CD0F01B501B5",
"7 c #CE4800000000",
"8 c #CD4C025D025D",
"9 c #CE1402560256",
"0 c #CD5407740774",
"q c #CE4907E307E3",
"w c #CC4308100810",
"e c #CF050C2B0C2B",
"r c #CF730E650E65",
"t c #CE9514E314E3",
"y c #D155197A197A",
"u c #C839227F227F",
"i c #C88724962496",
"p c #CA762D3E2D3E",
"a c #D6672F6B2F6B",
"s c #D5F030963096",
"d c #D65A3A703A70",
"f c #D8273A2A3A2A",
"g c #D8853AB53AB5",
"h c #D8C63DD43DD4",
"j c #D9373EE23EE2",
"k c #DAC645364536",
"l c #DABD45AA45AA",
"z c #DAE144A944A9",
"x c #DB28470F470F",
"c c #DB3B47664766",
"v c #DCB14FAA4FAA",
"b c #DF385BCF5BCF",
"n c #E08C5F845F84",
"m c #E1E369266926",
"M c #E51D6F3B6F3B",
"N c #E6E17E037E03",
"B c #E9208AC18AC1",
"V c #E9E18F508F50",
"C c #EBB890699069",
"Z c #EAF395B695B6",
"A c #EDE09A0D9A0D",
"S c #EF94A758A758",
"D c #F042A79CA79C",
"F c #F0BCAB5EAB5E",
"G c #EF67ACE9ACE9",
"H c #F041AD04AD04",
"J c #F0F0A686A686",
"K c #F163AC84AC84",
"L c #F209B246B246",
"P c #D76BCF31CF31",
"I c #D831CF2CCF2C",
"U c #D9EED10DD10D",
"Y c #E36FD0E1D0E1",
"T c #F487C18AC18A",
"R c #F5EFC1B6C1B6",
"E c #F4F5C83AC83A",
"W c #F5E4CCB5CCB5",
"Q c #F5ECCCD5CCD5",
"! c #F64CCEEFCEEF",
"~ c #F77AD49DD49D",
"^ c gray100",
/* pixels */
"^^^^^^^^^^^^^^^^",
"^^^^^^^^^^^^^^^^",
"~WWWWWWWWWWWWWEG",
"mvccccccccccccf*",
"gr22422aj22232>%",
"fr2224eBBte232-%",
"fe222cZKLKn222-#",
"fe222zLLCKj222>%",
"ge2224bKRN4222>%",
"ge2224ADMDy229>%",
"s1>>>>pu<u<>>>=#",
"&@OOOOXXOXXOXO. ",
"YIPPPPPPPPPPIPPU",
"^^^^^^^^^^^^^^^^",
"^^^^^^^^^^^^^^^^",
"^^^^^^^^^^^^^^^^"
};
