/* XPM */
static const char *HK_xpm[] = {
/* columns rows colors chars-per-pixel */
"16 16 137 2",
"   c black",
".  c #BBBB00000000",
"X  c #BDBD00000000",
"o  c #BFBF00000000",
"O  c #C1C100000000",
"+  c #C3C300000000",
"@  c #C7C700000000",
"#  c #C9C900000000",
"$  c #CBCB00000000",
"%  c #CDCD00000000",
"&  c #CFCF00000000",
"*  c #D1D100000000",
"=  c #D5D500000000",
"-  c #D7D700000000",
";  c #D9D900000000",
":  c #DBDB00000000",
">  c #DFDF00000000",
",  c #DFDF0B0B0B0B",
"<  c #E1E100000000",
"1  c #E3E300000000",
"2  c #E5E500000000",
"3  c #E7E700000000",
"4  c #E1E10F0F0E0E",
"5  c #E9E900000000",
"6  c #EBEB00000000",
"7  c #EDED00000000",
"8  c #E1E110101010",
"9  c #E1E113131313",
"0  c #E2E214141414",
"q  c #E3E319191919",
"w  c #E2E21B1B1B1B",
"e  c #E4E41A1A1A1A",
"r  c #E4E41F1F1F1F",
"t  c #E5E520202020",
"y  c #E5E524242424",
"u  c #E6E625252525",
"i  c #E6E626262626",
"p  c #E2E22C2C2C2C",
"a  c #E3E32F2F2F2F",
"s  c #E7E72B2B2B2B",
"d  c #E8E82C2C2C2C",
"f  c #E9E92C2C2C2C",
"g  c #EAEA2E2E2E2E",
"h  c #E4E432323232",
"j  c #E6E635353535",
"k  c #E6E636363636",
"l  c #E6E639393939",
"z  c #E7E73B3B3B3B",
"x  c #E7E73D3D3D3D",
"c  c #E8E831313131",
"v  c #E9E931313131",
"b  c #EBEB31313131",
"n  c #EAEA37373737",
"m  c #EBEB38383838",
"M  c #EBEB3A3A3A3A",
"N  c #E8E83F3F3F3F",
"B  c #EBEB3C3C3D3D",
"V  c #ECEC38383838",
"C  c #EEEE38383838",
"Z  c #ECEC3E3E3D3D",
"A  c #ECEC3F3F3F3F",
"S  c #E8E842424242",
"D  c #E9E944444444",
"F  c #E9E946464646",
"G  c #ECEC40404040",
"H  c #EDED42424242",
"J  c #EEEE44444444",
"K  c #EEEE45454545",
"L  c #EAEA49494949",
"P  c #EBEB4B4B4B4B",
"I  c #EFEF49494949",
"U  c #EFEF4A4A4949",
"Y  c #EFEF4A4A4C4C",
"T  c #ECEC4E4E4E4E",
"R  c #ECEC50505050",
"E  c #EDED53535353",
"W  c #EDED54545555",
"Q  c #EEEE57575757",
"!  c #EEEE58585858",
"~  c #EFEF5C5C5C5C",
"^  c #EFEF5D5D5D5D",
"/  c #F0F04F4F4F4F",
"(  c #F2F24F4F4F4F",
")  c #F0F051515151",
"_  c #F0F053535353",
"`  c #F3F350505050",
"'  c #F3F353535353",
"]  c #F1F154545454",
"[  c #F1F156565656",
"{  c #F2F254545454",
"}  c #F2F255555555",
"|  c #F3F356565656",
" . c #F5F555555555",
".. c #F1F158585858",
"X. c #F1F159595959",
"o. c #F2F25C5C5C5C",
"O. c #F3F35F5F5F5F",
"+. c #F0F060606060",
"@. c #F0F061616262",
"#. c #F1F165656565",
"$. c #F2F266666666",
"%. c #F2F26A6A6A6A",
"&. c #F2F26D6D6D6D",
"*. c #F2F26F6F6F6F",
"=. c #F3F370707171",
"-. c #F3F372727373",
";. c #F3F374747474",
":. c #F4F476767676",
">. c #F4F477777777",
",. c #F5F579797979",
"<. c #F5F57B7B7A7A",
"1. c #F5F57B7B7B7B",
"2. c #F6F67E7E7E7E",
"3. c #F6F68F8F8F8F",
"4. c #FCFC8B8B8C8C",
"5. c #FBFB96969696",
"6. c #F9F99E9E9F9F",
"7. c #F8F8A7A7A8A8",
"8. c #F9F9AAAAAAAA",
"9. c #FBFBAAAAAAAA",
"0. c #FAFABDBDBDBD",
"q. c #F7F7C3C3C3C3",
"w. c #F7F7CACACBCB",
"e. c #F7F7CECECECE",
"r. c #F7F7CECECFCF",
"t. c #FBFBC0C0C0C0",
"y. c #F9F9C5C5C6C6",
"u. c #FAFACDCDCECE",
"i. c #F6F6D8D8D8D8",
"p. c #F8F8D0D0D1D1",
"a. c #FCFCD1D1D1D1",
"s. c #F8F8D8D8D8D8",
"d. c #F5F5E1E1E1E1",
"f. c #F8F8E7E7E7E7",
"g. c #FAFAECECECEC",
"h. c #FBFBEEEEEEEE",
"j. c None",
/* pixels */
"j.j.j.j.j.j.j.j.j.j.j.j.j.j.j.j.",
"j.j.j.j.j.j.j.j.j.j.j.j.j.j.j.j.",
"j.j.j.j.j.j.j.j.j.j.j.j.j.j.j.j.",
"7 6 6 6 6 7 1 1 1 1 > : : - - - ",
"6 1.1.1.:.:.=.&.%.#.+.~ Q E T & ",
"6 1.O.~ ..' ' 4.5.H B n v d L & ",
"6 ,.~ ..] ] ] h.0. .Z v s i D $ ",
"6 :...] ] a.t.a.y.f.r.m i t x $ ",
"6 -.' ( / 7.g.6.7.q.2.g r e M @ ",
"1 =.T I J H 7.p.r.i.s r q 0 k + ",
"1 %.I K Z ( i.w.3.d.V w 9 9 h + ",
"1 $.K G m V ' v i ' w 9 4 , a X ",
"1 @.~ ! Q T L F S x l k h a p . ",
"1 : : - - * & & $ @ + + + X X + ",
"j.j.j.j.j.j.j.j.j.j.j.j.j.j.j.j.",
"j.j.j.j.j.j.j.j.j.j.j.j.j.j.j.j."
};
