/* XPM */
static char *HT_xpm[] = {
/* columns rows colors chars-per-pixel */
"16 16 145 2",
"   c #1BC920B7482E",
".  c #1963212D4913",
"X  c #09CE23567030",
"o  c #0A122464704B",
"O  c #15D722FB6950",
"+  c #1B8C240C6856",
"@  c #1B102721665E",
"#  c #1F2826F564CA",
"$  c #1FB1273F6595",
"%  c #12542A1B73B7",
"&  c #17512F4B7742",
"*  c #1C14339E79EB",
"=  c #1DD433BB7932",
"-  c #1E4535657B1F",
";  c #22AD2ABA6CB9",
":  c #2D713503669D",
">  c #20C1362A7B74",
",  c #211D36647B5F",
"<  c #2031370A7B7B",
"1  c #2240369B799A",
"2  c #207D37137C90",
"3  c #292B30BA70B1",
"4  c #2E1C37357663",
"5  c #3019371A74D9",
"6  c #58E92359303E",
"7  c #7C951F711807",
"8  c #65E8221F1CAF",
"9  c #7FF42AFB3EF4",
"0  c #44BD7FC11DD6",
"q  c #519F7C1420D5",
"w  c #5C3B5C735B4C",
"e  c #52C67DA64DDE",
"r  c #567364E760E5",
"t  c #678B472E6688",
"y  c #65614F7F6832",
"u  c #6F763F5F9633",
"i  c #46C159BB92F8",
"p  c #47525A8F93BB",
"a  c #4B7759E39131",
"s  c #530F59C08D08",
"d  c #521763E5997B",
"f  c #521C640D99B4",
"g  c #53D96409990E",
"h  c #52F364B899F6",
"j  c #540E64CF99D7",
"k  c #535465C59ADD",
"l  c #5E4B63E393E2",
"z  c #5C7463E194A6",
"x  c #5EBF648D9483",
"c  c #5FDE65B6955B",
"v  c #5C3E6C319EDE",
"b  c #7A3144CD8856",
"n  c #64F57518A569",
"m  c #748F79F3A302",
"M  c #3263C0CF1775",
"N  c #355ACADB1A57",
"B  c #41D99FBC1BBB",
"V  c #4441A6C424E7",
"C  c #4718B68A2998",
"Z  c #51EBBB0E3491",
"A  c #52858C99503D",
"S  c #53D1C1375EBC",
"D  c #5B96C70D649C",
"F  c #7320C9AB775E",
"G  c #70A8D8E66D20",
"H  c #73778178AD14",
"J  c #855D1DE817FB",
"K  c #842A1EF618B4",
"L  c #83BF1F8918B8",
"P  c #85EB1DAB187D",
"I  c #92691EED1569",
"U  c #81D220AD1885",
"Y  c #82A720D618A3",
"T  c #8B61227B19A7",
"R  c #9B2A212316E2",
"E  c #9C3221621617",
"W  c #859A27C23DB0",
"Q  c #9CEB235934C0",
"!  c #A4B433BB4316",
"~  c #94787B9A12D1",
"^  c #BF13468B153E",
"/  c #BF61482B153F",
"(  c #BFF54764157E",
")  c #BF9748611542",
"_  c #ACF86BC5123C",
"`  c #B6D859E1666D",
"'  c #DB0E23F214CA",
"]  c #D4F236651559",
"[  c #DA9132371594",
"{  c #C149362B2A67",
"}  c #EA952500162E",
"|  c #E96127191684",
" . c #EB31258916C2",
".. c #EB5D27A2153C",
"X. c #EDFA2EDA1EEF",
"o. c #FEF2236B11D5",
"O. c #FE2B243E1317",
"+. c #FD1624391892",
"@. c #F8C133F323A9",
"#. c #FC8733BC20C1",
"$. c #C15943D316DF",
"%. c #C377465317FD",
"&. c #C33743F818E5",
"*. c #C5BB452E1A9C",
"=. c #D68173C23E78",
"-. c #C25574287F38",
";. c #F8985203443D",
":. c #F9DB5A574D76",
">. c #FD3D59E14AC0",
",. c #921C76A3A5F5",
"<. c #95BEE0606506",
"1. c #A3BDE1887978",
"2. c #CBE08835533D",
"3. c #87E08ECEB2D3",
"4. c #A1458C3E8CE0",
"5. c #A42392AAB8EF",
"6. c #AEF7A19A8534",
"7. c #B5ECBA63D09B",
"8. c #B081CB80BD8E",
"9. c #BABBD036C712",
"0. c #C0C58F679A38",
"q. c #C5C9CF68AED3",
"w. c #C407CB53C5DD",
"e. c #CE4FD150E068",
"r. c #D925D0C4D024",
"t. c #DA0ED0ECD036",
"y. c #DBD0D2BFD213",
"u. c #CE11D38BE253",
"i. c #D042D51AE3D9",
"p. c #D03FD543E3E9",
"a. c #D25DD545E2EC",
"s. c #D3A1D551E24D",
"d. c #D3EDD553E280",
"f. c #D231D6BBE51D",
"g. c #D250D6DFE5BF",
"h. c #D5CED7C1E4AD",
"j. c #D7B3DB81E814",
"k. c #DD5CDE82E4A9",
"l. c #E76AD4A5D306",
"z. c #E80FE907EB98",
"x. c #EB4AECCFED85",
"c. c #F001EFB2EC8C",
"v. c #FD82FE31FE4A",
"b. c #FEF0FF79FF6A",
"n. c gray100",
/* pixels */
"n.n.n.n.n.n.n.n.n.n.n.n.n.n.n.n.",
"n.n.n.n.n.n.n.n.n.n.n.n.n.n.n.n.",
"j.f.i.i.i.i.i.i.i.i.i.s.s.i.e.7.",
"H v j h d d d d h d l l x c s : ",
"p - % & < < - > = = 5 5 3 ; ;   ",
"p * o h i.f.9.D S 9.h.d.m + #   ",
"a * X n n.x.w.1.<.q.k.v.3.O @   ",
"` ! Q -.c.5.u 4.6.u ,.z.6.W 9 6 ",
">.#.o.=.G A r y t w e F 2.o.} E ",
":.@.+._ N Z V 0 q B C M ~ o.} E ",
";.X.} [ &.*.( ^ $.$.$.$.] } ' I ",
"{ T L L J J L L I J J J L Y 7 8 ",
"l.r.r.r.r.r.r.r.r.t.t.t.t.t.t.t.",
"n.n.n.n.n.n.n.n.n.n.n.n.n.n.n.n.",
"n.n.n.n.n.n.n.n.n.n.n.n.n.n.n.n.",
"n.n.n.n.n.n.n.n.n.n.n.n.n.n.n.n."
};
