/* XPM */
static const char * HT_xpm[] = {
"16 16 114 2",
"  	c None",
". 	c #0527C7",
"+ 	c #0327C7",
"@ 	c #001FC5",
"# 	c #0019C3",
"$ 	c #0013C1",
"% 	c #0007BB",
"& 	c #0001B9",
"* 	c #0000B5",
"= 	c #0000B1",
"- 	c #0000AF",
"; 	c #0000AB",
"> 	c #95A4E8",
", 	c #94A3E8",
"' 	c #93A1E7",
") 	c #919FE7",
"! 	c #8F9EE6",
"~ 	c #8C9BE5",
"{ 	c #8A99E3",
"] 	c #8696E2",
"^ 	c #8393E1",
"/ 	c #7B8CDE",
"( 	c #7889DD",
"_ 	c #7687DF",
": 	c #6F82DA",
"< 	c #0000A3",
"[ 	c #7E8FE2",
"} 	c #7B8DE2",
"| 	c #798AE0",
"1 	c #7286DF",
"2 	c #6F83DE",
"3 	c #6B7DDB",
"4 	c #667ADA",
"5 	c #677AD7",
"6 	c #5D71D6",
"7 	c #586DD5",
"8 	c #5469D3",
"9 	c #6B7ED8",
"0 	c #00009F",
"a 	c #7689E0",
"b 	c #6075D5",
"c 	c #586DD4",
"d 	c #4F65D1",
"e 	c #000099",
"f 	c #6276D8",
"g 	c #5E74D8",
"h 	c #546CD4",
"i 	c #5068D3",
"j 	c #4B63D1",
"k 	c #465FCF",
"l 	c #0B15AF",
"m 	c #969ADC",
"n 	c #7B81D3",
"o 	c #787DD1",
"p 	c #7379CF",
"q 	c #6F76CD",
"r 	c #6A70C8",
"s 	c #676DC9",
"t 	c #6369C7",
"u 	c #565CC0",
"v 	c #5258BE",
"w 	c #000079",
"x 	c #FD0000",
"y 	c #FD7B6F",
"z 	c #FB5A49",
"A 	c #FB5445",
"B 	c #FA5040",
"C 	c #F94B3A",
"D 	c #F84535",
"E 	c #F63B2A",
"F 	c #F53724",
"G 	c #F32D19",
"H 	c #F22814",
"I 	c #F44636",
"J 	c #E70000",
"K 	c #E90000",
"L 	c #F5796A",
"M 	c #F25A49",
"N 	c #F15645",
"O 	c #F15544",
"P 	c #F04C3A",
"Q 	c #EE4734",
"R 	c #ED412F",
"S 	c #EC3C29",
"T 	c #EB3723",
"U 	c #E9321E",
"V 	c #E82E19",
"W 	c #E72A14",
"X 	c #E52510",
"Y 	c #E94432",
"Z 	c #CB0000",
"` 	c #F47566",
" .	c #EE4634",
"..	c #EC3C2A",
"+.	c #E82D19",
"@.	c #E5240E",
"#.	c #E5200B",
"$.	c #E8412F",
"%.	c #C50000",
"&.	c #F37062",
"*.	c #F26C5D",
"=.	c #F16455",
"-.	c #EF6050",
";.	c #EF5B4B",
">.	c #ED5242",
",.	c #EC4E3D",
"'.	c #EB4B39",
").	c #E94735",
"!.	c #E8402F",
"~.	c #E73E2C",
"{.	c #E10000",
"].	c #D90000",
"^.	c #D70000",
"/.	c #CF0000",
"                                ",
"                                ",
"                                ",
". + . . @ @ # $ $ % & * = - ; ; ",
"+ > , ' ) ! ~ { ] ^ / / ( _ : < ",
"+ , [ } | _ 1 2 3 4 5 6 7 8 9 0 ",
"+ ' } a _ 1 2 3 4 b 6 c 8 d 5 e ",
"@ ! a a 2 3 4 f g 7 h i j k g e ",
"l m ^ n o p q r s t t u v v r w ",
"x y z z A B C D D E F F G H I J ",
"K L M N O P Q R S T U V W X Y Z ",
"J ` N P P  .R ..T U +.X @.#.$.%.",
"J &.*.=.=.-.;.N >.,.'.).Y !.~.%.",
"{.{.{.].].^.^./././.Z Z Z %.%.%.",
"                                ",
"                                "};
