/* XPM */
static char *IE_xpm[] = {
/* columns rows colors chars-per-pixel */
"16 16 89 1",
"  c #1C8D5F0C1C8D",
". c #1ED45FEF1ED4",
"X c #1E6D65961E6D",
"o c #60C03A5E1F82",
"O c #754640F91BF5",
"+ c #7AE843D91C9C",
"@ c #7B0144E21ED4",
"# c #631E78FF631E",
"$ c #1E31A3351E31",
"% c #30628F253062",
"& c #2274A4BE2274",
"* c #2097AD752097",
"= c #20BAAE1E20BA",
"- c #2285AE1E2285",
"; c #275BA93C275B",
": c #24D2AF1824D2",
"> c #24FFAFC724FF",
", c #26DEAFBB26DE",
"< c #2BD2B1EE2BD2",
"1 c #2DA5B2732DA5",
"2 c #4B34BCE24B34",
"3 c #539FC09F539F",
"4 c #5455C09C5455",
"5 c #541FC0F4541F",
"6 c #5ED0C4AF5ED0",
"7 c #61B0C5C061B0",
"8 c #66A7C77066A7",
"9 c #7CC5CFAF7CC5",
"0 c #8996485D1A71",
"q c #911F4CCC1BEE",
"w c #928F4D2E1BB1",
"e c #91CF4D131C33",
"r c #820F701F631E",
"t c #CCE6659A1CDA",
"y c #D9316C0A1EF8",
"u c #DA4F6C4F1E3B",
"i c #DA596CD01F6B",
"p c #DB1B6CFA1EC0",
"a c #C0CE6BA12F1D",
"s c #DAD26EB02274",
"d c #E7E5732A2091",
"f c #E8C4739B20B5",
"g c #E8B973DD214B",
"h c #E7F47463228E",
"j c #E8CF75162323",
"k c #E87075BA24D2",
"l c #E87F76F526DE",
"z c #E997744E216C",
"x c #E954763324FF",
"c c #EB03927753A9",
"v c #EEDF9A395ECA",
"b c #EF169AC35FC2",
"n c #EF439C7961B0",
"m c #860086008600",
"M c #8613868086C8",
"N c #86C8864886C8",
"B c #AB75D751AB75",
"V c #B61CE4BBB61C",
"C c #B6C5E4DEB6C5",
"Z c #B68CE556B68C",
"A c #E975C562AB75",
"S c #F7DCD161B61C",
"D c #F88BD1ECB68C",
"F c #F7E0D1EAB6C5",
"G c #F809D25BB7A3",
"H c #D085D64ED085",
"J c #D884D3C0D070",
"K c #D8A0D3DFD08D",
"L c #D67AD85CD67A",
"P c #D3D5E092D3D5",
"I c #DB21D600D268",
"U c #D91FD796D67A",
"Y c #D97DD97CD980",
"T c #CA99EC3CCA99",
"R c #D36EEF94D36E",
"E c #D422EFD4D422",
"W c #D566F045D566",
"Q c #DA49F235DA49",
"! c #FA3ADE81CA99",
"~ c #FAD6E163CF7F",
"^ c #FB64E3DDD36A",
"/ c #FB61E402D3C6",
"( c #FB7FE487D422",
") c #F13AF13AF13A",
"_ c #F164F23CF2CE",
"` c #F2CEF1CCF2CE",
"' c #F11FFA91F11F",
"] c #FE7CF6A2F11F",
"[ c gray100",
/* pixels */
"[[[[[[[[[[[[[[[[",
"[[[[[[[[[[[[[[[[",
"QWRRR'[[[[]///~G",
"98667T[[[[!nbbca",
"41**<V[[[[Slhjiw",
"3<**:V[[[[Sjdfyw",
"3<**:V[[[[Gjfjyw",
"3<**:V[[[[Gjfji0",
"3<**:V[[[[Gjffiw",
"31**>V[[[[Glffye",
"2;$$&B))))Asiit0",
"%X  .#mmmmr@++Oo",
"RHHHHLYYYYUJJJJI",
"[[[[[[[[[[[[[[[[",
"[[[[[[[[[[[[[[[[",
"[[[[[[[[[[[[[[[["
};
