/* XPM */
static const char *IE_xpm[] = {
/* columns rows colors chars-per-pixel */
"16 16 136 2",
"   c black",
".  c #000053530000",
"X  c #00005B5B0000",
"o  c #000063630000",
"O  c #000067670000",
"+  c #00006F6F0000",
"@  c #000075750000",
"#  c #000077770000",
"$  c #00007B7B0000",
"%  c #00007F7F0000",
"&  c #000083830000",
"*  c #000085850000",
"=  c #000087870000",
"-  c #000089890000",
";  c #000091910000",
":  c #3A3AAAAA3A3A",
">  c #3F3FAEAE3F3F",
",  c #4040ADAD3F3F",
"<  c #4444B1B14444",
"1  c #4545B0B04545",
"2  c #4545B1B14545",
"3  c #4B4BB3B34B4B",
"4  c #4949B4B44949",
"5  c #4F4FB6B64F4F",
"6  c #4F4FB7B74F4F",
"7  c #5050B5B55050",
"8  c #5454B5B55555",
"9  c #5454B7B75454",
"0  c #5353B9B95353",
"q  c #5454B9B95454",
"w  c #5858B9B95858",
"e  c #5858BBBB5959",
"r  c #5959BABA5959",
"t  c #5858BCBC5858",
"y  c #5C5CBDBD5C5C",
"u  c #5D5DBCBC5D5D",
"i  c #5F5FBFBF5F5F",
"p  c #6161BEBE6262",
"a  c #6666C0C06666",
"s  c #6A6AC3C36A6A",
"d  c #6F6FC4C46F6F",
"f  c #7272C6C67373",
"g  c #7777C7C77777",
"h  c #7676C8C87676",
"j  c #7979C8C87979",
"k  c #7B7BCACA7A7A",
"l  c #7B7BCACA7B7B",
"z  c #DDDD00000000",
"x  c #DFDF00000000",
"c  c #E1E100000000",
"v  c #E3E300000000",
"b  c #E5E500000000",
"n  c #E7E700000000",
"m  c #E9E900000000",
"M  c #EBEB00000000",
"N  c #EFEF13130000",
"B  c #EDED1B1B0000",
"V  c #F1F119190000",
"C  c #F3F31F1F0000",
"Z  c #F5F521210000",
"A  c #F1F167670B0B",
"S  c #F1F169690E0E",
"D  c #F2F269691313",
"F  c #F2F26A6A1010",
"G  c #F2F26D6D1414",
"H  c #F2F26E6E1414",
"J  c #F3F36D6D1919",
"K  c #F3F36F6F1919",
"L  c #F3F370701A1A",
"P  c #F4F472721F1F",
"I  c #F4F474741F1F",
"U  c #F4F475752020",
"Y  c #F5F575752525",
"T  c #F5F577772525",
"R  c #F5F57A7A2626",
"E  c #F2F27B7B2C2C",
"W  c #F2F27C7C2F2F",
"Q  c #F2F27D7D2F2F",
"!  c #F6F679792B2B",
"~  c #F6F67B7B2B2B",
"^  c #F6F67C7C2C2C",
"/  c #F2F27F7F3232",
"(  c #F3F37F7F3232",
")  c #F3F37F7F3535",
"_  c #F7F77E7E3131",
"`  c #F7F781813131",
"'  c #F4F482823636",
"]  c #F4F485853B3B",
"[  c #F5F589893F3F",
"{  c #F8F882823737",
"}  c #F6F68C8C4444",
"|  c #F7F78F8F4949",
" . c #F7F793934E4E",
".. c #F8F896965353",
"X. c #F9F998985757",
"o. c #FAFA99995C5C",
"O. c #B7B7C7C7B7B7",
"+. c #C5C5B5B5A9A9",
"@. c gray79",
"#. c #CBCBCBCBCBCB",
"$. c gray81",
"%. c gray82",
"&. c #E1E1DFDFDBDB",
"*. c gray89",
"=. c gray90",
"-. c #E5E5E7E7E5E5",
";. c #E7E7E7E7E7E7",
":. c #E9E9F2F2E9E9",
">. c #EAEAF3F3EAEA",
",. c #EBEBF3F3EBEB",
"<. c #ECECF4F4ECEC",
"1. c #EDEDF5F5EDED",
"2. c #EEEEF6F6EEEE",
"3. c #EFEFF7F7EFEF",
"4. c #F3F3EAEAE2E2",
"5. c #F4F4EBEBE4E4",
"6. c #F5F5ECECE5E5",
"7. c #F4F4ECECE6E6",
"8. c #F6F6EEEEE7E7",
"9. c #F7F7EFEFE8E8",
"0. c #F8F8F0F0EAEA",
"q. c #F9F9F1F1EBEB",
"w. c #F4F4F4F4F4F4",
"e. c gray96",
"r. c #F6F6F6F6F6F6",
"t. c gray97",
"y. c #F0F0F8F8F0F0",
"u. c #F8F8F8F8F8F8",
"i. c #F9F9F9F9F9F9",
"p. c #FBFBFAFAF8F8",
"a. c gray98",
"s. c #FBFBFBFBFBFB",
"d. c gray99",
"f. c #FDFDFDFDFDFD",
"g. c #FDFDFDFDFEFE",
"h. c None",
/* pixels */
"h.h.h.h.h.h.h.h.h.h.h.h.h.h.h.h.",
"h.h.h.h.h.h.h.h.h.h.h.h.h.h.h.h.",
"h.h.h.h.h.h.h.h.h.h.h.h.h.h.h.h.",
"; - - = & ;.;.;.;.*.&.Z C V N B ",
"= l l l g s.d.d.d.d.p.o.X... .M ",
"- l i y e y.d.d.p.d.q.{ ` ^ | M ",
"= l r r 0 3.d.d.a.i.9._ ~ R } b ",
"= g r 0 5 2.d.i.i.u.9.~ T U [ b ",
"& f 0 5 3 2.i.i.u.u.9.Y P K ] b ",
"% d 5 4 1 2.i.i.r.r.5.P K G ' v ",
"$ s 3 < > :.i.e.r.e.5.J G S ( x ",
"$ p < > : :.u.e.e.w.5.D S A / x ",
"+ p u e 8 <.r.u.e.e.7.) / W E z ",
"@ O o X . O.%.$.#.@.+.v v x z z ",
"h.h.h.h.h.h.h.h.h.h.h.h.h.h.h.h.",
"h.h.h.h.h.h.h.h.h.h.h.h.h.h.h.h."
};
