/* XPM */
static char *IO_png[] = {
/* columns rows colors chars-per-pixel */
"16 16 174 2",
"   c #1BCC1BD0310C",
".  c #23BE2431448A",
"X  c #2558254844B1",
"o  c #260426894626",
"O  c #26B126BA4609",
"+  c #26D5276146DB",
"@  c #26CE274247E3",
"#  c #2728272046B0",
"$  c #27CE27EB4681",
"%  c #282E283946BC",
"&  c #28A528DC4766",
"*  c #2B2E2B7548CF",
"=  c #2C0E7ED13AD6",
"-  c #769F3D656D34",
";  c #4733473F6664",
":  c #481748E166DC",
">  c #4888496A6488",
",  c #4CD04BEC677D",
"<  c #4B2A4BB06880",
"1  c #4D7A4D4168A2",
"2  c #4D9D4D857B6C",
"3  c #5075506F6CE0",
"4  c #51826D5C75FF",
"5  c #591C72BA75A2",
"6  c #7EE4507F7DB9",
"7  c #5F865FCA8A14",
"8  c #412C5632A1E2",
"9  c #47AE57ABA204",
"0  c #6D1176599F75",
"q  c #6EC872C1ABBB",
"w  c #74746FB3A61A",
"e  c #744774E0A889",
"r  c #75B57562A86D",
"t  c #72D476A9AE5E",
"y  c #76BF7570AB61",
"u  c #7698772EACA5",
"i  c #7793783AADAD",
"p  c #78407889AE20",
"a  c #76E27AB9AD6D",
"s  c #79FA77B3A6D7",
"d  c #78B976BDAC95",
"f  c #7937797BAE4E",
"g  c #79A379BCAD92",
"h  c #799F79A4AEA4",
"j  c #793E7AA6B007",
"k  c #7A167AD1AEF2",
"l  c #7B2E7A65AD6C",
"z  c #7B4E7C0EAF6C",
"x  c #7B887C13AFBD",
"c  c #7C6C7CFDAF04",
"v  c #7DCB7AACAD96",
"b  c #7D297D27B041",
"n  c #744979CBB12D",
"m  c #73AF79A6B1FB",
"M  c #73D97A82B27C",
"N  c #75927A95B180",
"B  c #77D479F3B196",
"V  c #7A0D7AAEB30A",
"C  c #79967C14B3F5",
"Z  c #7BF47D25B0B9",
"A  c #7A6D7D65B4DC",
"S  c #7CA47D4AB0EA",
"D  c #7D827E70B14A",
"F  c #7E0A7E9CB192",
"G  c #7F687EF4B1AA",
"H  c #7F7D8040B2AB",
"J  c #80087F51B196",
"K  c #7EB47ECAB4EA",
"L  c #60BCA81E61EA",
"P  c #B94C3B294B3C",
"I  c #9A075E9D7F7B",
"U  c #BDC441C74FAB",
"Y  c #D74724942282",
"T  c #DA282A4E2727",
"R  c #D2DD401444A7",
"E  c #CDF841584778",
"W  c #C84D524B5D5F",
"Q  c #CCC262246B8C",
"!  c #C59E6F5F7E39",
"~  c #CA2D73FC7EC9",
"^  c #F7BF5BBA4F81",
"/  c #F9C25E1750AD",
"(  c #8A1B58028229",
")  c #8140621E8F5A",
"_  c #963672759766",
"`  c #8327761FA6B9",
"'  c #80847C41AAB8",
"]  c #8B6C805BA370",
"[  c #C5A67A788B01",
"{  c #A2CC8B197DE0",
"}  c #CA608C835ACE",
"|  c #F075A015438C",
" . c #809D9C799B66",
".. c #82298120B2EA",
"X. c #809483E6B2E3",
"o. c #82D881B9B288",
"O. c #838184F2B7F8",
"+. c #850A847CB402",
"@. c #858F85A2B609",
"#. c #87238741B8DE",
"$. c #8AC58AACBBB4",
"%. c #8E918D1EBA72",
"&. c #8D398D53BDBA",
"*. c #90509089BF33",
"=. c #8C6F9F0EAADA",
"-. c #906890B8BC32",
";. c #90399095BE1D",
":. c #9DB48687AABB",
">. c #97CA8C85B238",
",. c #90DA910BBF77",
"<. c #91D591FDBF9F",
"1. c #91FF924EC04B",
"2. c #942C9433BEB0",
"3. c #932D952BBCE5",
"4. c #96959711BF6F",
"5. c #93CD9D37B619",
"6. c #96D59DB7B90F",
"7. c #9BE99483B99E",
"8. c #99939760BEBE",
"9. c #ACDC9C2C9941",
"0. c #A533898BA974",
"q. c #A7B08973A8E7",
"w. c #A3978FA7B1AD",
"e. c #AB779A9DAD45",
"r. c #ADDE940BB1F5",
"t. c #AA879DD1B463",
"y. c #95949455C1DF",
"u. c #94BC94E0C1B2",
"i. c #98CD98FBC18E",
"p. c #992B9952C6D1",
"a. c #A0C0A193C706",
"s. c #A69DA6D6CBA3",
"d. c #AD89A4EAC426",
"f. c #B88FADACC62D",
"g. c #D50A96419F62",
"h. c #D340A1C9AC63",
"j. c #D5B9ACE1B870",
"k. c #D8E1D8CED823",
"l. c #DA11DA09D8D4",
"z. c #DA61DA53D928",
"x. c #DB28DB04D95A",
"c. c #DB9BDB83D9E5",
"v. c #DC06DC02DA0D",
"b. c #DE65DE60DB72",
"n. c #DEF9DEC2DBCD",
"m. c #DF89DF8CDC55",
"M. c #E098E08CDCF5",
"N. c #E017E017DF2A",
"B. c #C60BCE3FE65C",
"V. c #C78BCFEAE6CF",
"C. c #CC23CC1DE25D",
"Z. c #DC5DDCBAEA49",
"A. c #DD4CDAF3ED78",
"S. c #E55BDB71E4B7",
"D. c #ECB9DC3AE2F3",
"F. c #EE1CDEA0E445",
"G. c #E143E149DD41",
"H. c #E514E56FF016",
"J. c #EB77EB7BE8EC",
"K. c #E695E628F153",
"L. c #E951EB14F368",
"P. c #F0C9F0C2F685",
"I. c #FA95EE86EF4D",
"U. c #F413F0E4FB1C",
"Y. c #F4E4F45BF99C",
"T. c #FE2DF232F178",
"R. c #FD88FDA4FEA0",
"E. c #FE4DFE45FE6D",
"W. c #FEC9FEC0FF38",
"Q. c #FF22FE32FE76",
"!. c #FF8CFEE9FF05",
"~. c #FF64FF40FF75",
"^. c #FFFAFFFFFFFF",
"/. c gray100",
/* pixels */
"!.!.!.!.!.!.!.!.!.!.!.R.!.!.!.R.",
"!.!.!.!.!.!.!.!.!.!.!.!.!.!.!.!.",
"T.L.B.D.F.B.S.I.K.P.K.A.Y.Y.Z.C.",
"w.h.d.[ ! q.j.>.-.i.2.=. .5.u.7 ",
"Q E ^ T Y ^ R P ` A 6.L = q r > ",
":.g.I P W 0.~ 6 y c X.4 5 a l < ",
"r.w 9 I - 8 7._ e l V f.e.H e : ",
"2.M ` u M l q M H H O.} | t.t < ",
"a.O.l H o.H H o.H l l 9.{ l c < ",
"4.Z l l u l l a u l V ' ] B r ; ",
"p.*.2.$.#.*.,.#.-.s.1.%.8.,.+.3 ",
"2 @ @ @ @ @ + + @ * @ . @ & X   ",
"J.b.l.b.N.x.x.N.n.k.b.N.l.l.G.N.",
"!.!.!.!.!.!.!.!.!.!.!.!.!.!.!.!.",
"!.!.!.!.!.!.R.!.!.!.!.!.!.!.!.!.",
"!.!.!.!.!.!.!.!.!.!.!.!.!.!.!.!."
};
