/* XPM */
static const char *IQ_xpm[] = {
/* columns rows colors chars-per-pixel */
"16 16 142 2",
"   c black",
".  c #0B0B0B0B0B0B",
"X  c #0F0F0F0F0E0E",
"o  c #131313131313",
"O  c #181819191919",
"+  c #1E1E1E1E1E1E",
"@  c #232323232323",
"#  c gray16",
"$  c #2C2C2C2C2C2C",
"%  c gray18",
"&  c #2F2F2F2F2F2F",
"*  c #323232323232",
"=  c #343434343434",
"-  c #353535353535",
";  c #393939393939",
":  c #3A3A3A3A3A3A",
">  c gray24",
",  c #3F3F3F3F3F3F",
"<  c gray26",
"1  c #444444444444",
"2  c #464646464646",
"3  c #4B4B4B4B4B4B",
"4  c #505050505050",
"5  c #545454545555",
"6  c #585858585858",
"7  c #5D5D5D5D5D5D",
"8  c #616161616262",
"9  c gray39",
"0  c gray40",
"q  c #6B6B6A6A6B6B",
"w  c #6C6C68686C6C",
"e  c #70706E6E7070",
"r  c #737372727373",
"t  c #787876767878",
"y  c gray48",
"u  c #7D7D7A7A7D7D",
"i  c #7F7F7D7D7F7F",
"p  c #6B6BBFBF6D6D",
"a  c #E7E700000000",
"s  c #E9E900000000",
"d  c #EBEB00000000",
"f  c #EDED00000000",
"g  c #EFEF00000000",
"h  c #F1F100000000",
"j  c #F3F300000000",
"k  c #F5F500000000",
"l  c #F7F700000000",
"z  c #F9F900000000",
"x  c #FBFB00000000",
"c  c #FDFD00000000",
"v  c red",
"b  c #F6F62C2C2C2C",
"n  c #F7F731313131",
"m  c #F8F837373737",
"M  c #FFFF35353535",
"N  c #F9F93C3C3D3D",
"B  c #F7F749494949",
"V  c #F7F74E4E4E4E",
"C  c #FAFA42424242",
"Z  c #FBFB47474747",
"A  c #FCFC4C4C4C4C",
"S  c #F8F853535353",
"D  c #F9F957575757",
"F  c #FDFD51515151",
"G  c #FDFD54545454",
"H  c #FAFA5C5C5C5C",
"J  c #FEFE59595959",
"K  c #FEFE5C5C5C5C",
"L  c #FEFE5F5F5F5F",
"P  c #F5F56A6A6A6A",
"I  c #FBFB60606060",
"U  c #FCFC65656565",
"Y  c #FCFC69696969",
"T  c #FDFD6D6D6D6D",
"R  c #F6F670707171",
"E  c #F7F772727373",
"W  c #F6F67F7F7F7F",
"Q  c #F8F877777777",
"!  c #FDFD70707171",
"~  c #FEFE74747474",
"^  c #FEFE77777777",
"/  c #F9F97A7A7A7A",
"(  c #FAFA7E7E7F7F",
")  c #FEFE79797979",
"_  c #FFFF7B7B7A7A",
"`  c #FFFF7B7B7B7B",
"'  c #848482828484",
"]  c #888885858888",
"[  c #8C8C8B8B8C8C",
"{  c #8D8D8A8A8D8D",
"}  c #A0A0A0A0A0A0",
"|  c #8989CDCD8B8B",
" . c #8D8DCFCF8E8E",
".. c #8F8FCDCD9292",
"X. c #8B8BD0D08D8D",
"o. c #9595CFCF9696",
"O. c #9B9BD1D19D9D",
"+. c #9C9CD3D39E9E",
"@. c #A8A8DADAA9A9",
"#. c #ADADDDDDAEAE",
"$. c #B3B3E0E0B4B4",
"%. c #B4B4E1E1B7B7",
"&. c #BCBCE2E2BDBD",
"*. c #BDBDE3E3BDBD",
"=. c #BDBDE0E0C0C0",
"-. c #BEBEE4E4C4C4",
";. c #FBFB82828484",
":. c #FCFC85858585",
">. c #FDFD88888989",
",. c #FDFD8B8B8B8B",
"<. c #FEFE8F8F9191",
"1. c #FEFE90909191",
"2. c #FEFEA4A4A4A4",
"3. c #C1C1E5E5C4C4",
"4. c #C3C3E6E6C5C5",
"5. c #CACAE7E7CDCD",
"6. c #D4D4ECECD6D6",
"7. c gray89",
"8. c gray90",
"9. c #E7E7E7E7E7E7",
"0. c #E4E4F3F3E4E4",
"q. c #E7E7F6F6E7E7",
"w. c #E9E9F4F4E9E9",
"e. c #EAEAF5F5EAEA",
"r. c #EFEFF4F4EFEF",
"t. c #EDEDF7F7F2F2",
"y. c #EEEEF6F6F1F1",
"u. c gray95",
"i. c #F2F2F4F4F4F4",
"p. c #F4F4F4F4F4F4",
"a. c #F4F4F5F5F5F5",
"s. c gray96",
"d. c #F1F1F9F9F0F0",
"f. c #F5F5F8F8F8F8",
"g. c #F6F6FBFBFAFA",
"h. c #F8F8FCFCFCFC",
"j. c #F9F9FEFEFCFC",
"k. c gray99",
"l. c #FCFCFCFCFDFD",
"z. c #FDFDFDFDFDFD",
"x. c #FEFEFEFEFEFE",
"c. c None",
/* pixels */
"c.c.c.c.c.c.c.c.c.c.c.c.c.c.c.c.",
"c.c.c.c.c.c.c.c.c.c.c.c.c.c.c.c.",
"c.c.c.c.c.c.c.c.c.c.c.c.c.c.c.c.",
"v v v v x v v v x x l l j j f f ",
"v ` ` ` ^ ~ ! T Y U I H D S V d ",
"v ` K K J G F A Z C N m n b B d ",
"M 2.1.1.,.>.;.;.( / Q E R P W a ",
"z.z.j.%.z.j.g.3.3.f.t.t.+.i.a.9.",
"z.z.$. .@.-.6.|  .5.=.o.p O.i.7.",
"z.z.z.#.q.0.d.*.*.e.w.y.o.u.a.7.",
"& } [ { ] ' i u t r e q w 9 y   ",
"  0 < < ; * & # @ + O o X . &   ",
"  9 7 6 5 4 3 2 < > ; - * & &   ",
"                                ",
"c.c.c.c.c.c.c.c.c.c.c.c.c.c.c.c.",
"c.c.c.c.c.c.c.c.c.c.c.c.c.c.c.c."
};
