/* XPM */
static char *IQ_xpm[] = {
/* columns rows colors chars-per-pixel */
"16 16 100 2",
"   c black",
".  c #07E207E207E2",
"X  c #083C0839083C",
"o  c #0D660D660D66",
"O  c #14E914E914E9",
"+  c #1A7A19E01A77",
"@  c #1A8C1A351A9C",
"#  c #1B7E1A4B1B89",
"$  c #1B941B391B9A",
"%  c #1F4C1F501F4C",
"&  c #23C923C223C9",
"*  c #23F4247123F0",
"=  c #259924B02577",
"-  c #26B5265226D2",
";  c #2768269D2784",
":  c #285326F42852",
">  c #28B6274428EA",
",  c #2FDE2FD42FDE",
"<  c #4C7E4DAF4C7E",
"1  c #925207830783",
"2  c #94E433523350",
"3  c #C0CE16CB16CB",
"4  c #DA2B00000000",
"5  c #E75B00000000",
"6  c #E87A00000000",
"7  c #E8A60BC50BBA",
"8  c #EB023A6E3A6E",
"9  c #ED6F38C338C3",
"0  c #DFB843D143EE",
"q  c #EEDE46DA46DA",
"w  c #EEE4474D474D",
"e  c #EF1547E947E9",
"r  c #EEDE48514858",
"t  c #EF6948994917",
"y  c #F0C6493249F0",
"u  c #EF4A4C084BB1",
"i  c #EFAC4FA54FA5",
"p  c #EFD853D3535E",
"a  c #F01754225338",
"s  c #F052541953A3",
"d  c #F09C54885415",
"f  c #F04D5BFD5B51",
"g  c #F1BF69226922",
"h  c #F0F179BC77B4",
"j  c #8DB68D7C8DB8",
"k  c #9F159AE59B0E",
"l  c #A144A0B1A179",
"z  c #83B9D4ED8311",
"x  c #883ED63986B8",
"c  c #B167CF89AD67",
"v  c #B286CFC3AEBC",
"b  c #B68DD1D3B52D",
"n  c #BF04D5ABBDEB",
"m  c #A6DFE141A4E5",
"M  c #B1DEE5CFB03B",
"N  c #B56AE797B340",
"B  c #B7A1E70AB3DD",
"V  c #B528E6C8B4D5",
"C  c #BFA0EB04BEBD",
"Z  c #F809ACE9ACE9",
"A  c #C13AD1ACBFB2",
"S  c #C1BDD1B9C089",
"D  c #C0ECD588BEFC",
"F  c #CF31CF31CF31",
"G  c #C437D318C323",
"H  c #CA84D5BEC999",
"J  c #CD7CD173CD69",
"K  c #CE2ED769CD8A",
"L  c #CF11DA9BCD75",
"P  c #D0F7D0F7D0F7",
"I  c #D3CEDD23D338",
"U  c #D9F8DBD9D9D6",
"Y  c #D9B9DFF1D9B9",
"T  c #CFA1EF4CCCB5",
"R  c #D822EDFAD389",
"E  c #DD72EF12D833",
"W  c #D47EF105D269",
"Q  c #D6B2F31AD4C2",
"!  c #D8E8F398D734",
"~  c #E0C3EBD2E0F8",
"^  c #FAD6C83AC83A",
"/  c #FB61CCB5CCB5",
"(  c #FB64CCD5CCD5",
")  c #FB81CEEFCEEF",
"_  c #FBEED49DD49D",
"`  c #E2DDF100DE09",
"'  c #E3EDF173DE4A",
"]  c #E3ABF269E02B",
"[  c #EBF5E835E63A",
"{  c #E686F3E2E2B0",
"}  c #EFB5F46BEB17",
"|  c #ED69F5F9E9F8",
" . c #F7EDF88AF3F4",
".. c #F8B8F8EAF44A",
"X. c #F77DF98FF48A",
"o. c #FC95F9F3F7E5",
"O. c #F962FE94F9A7",
"+. c #FF61FB83FB11",
"@. c #FF44FFFFFF16",
"#. c gray100",
/* pixels */
"#.#.#.#.#.#.#.#.#.#.#.#.#.#.#.#.",
"#.#.#.#.#.#.#.#.#.#.#.#.#.#.#.#.",
"_ / / / / / / / / / / / / / ^ Z ",
"g i w w w w w w w w w w w w 8 3 ",
"9 7 5 5 5 5 5 5 5 5 5 6 5 6 4 1 ",
"h f s d p d d s d d t y t y 0 2 ",
"X.+.] ] o.X.| { R X.' E | ` [ k ",
"O.#.M m ! T Q C x W B V V z ~ l ",
"Y U H G A S K L n I c c D b J j ",
"< ; @ @ @ @ @ ; : ; ; ; : > * % ",
", .                           X ",
"@ o o o o o o o o o o o o o o O ",
"F F F F F F F F F F F F F F F P ",
"#.#.#.#.#.#.#.#.#.#.#.#.#.#.#.#.",
"#.#.#.#.#.#.#.#.#.#.#.#.#.#.#.#.",
"#.#.#.#.#.#.#.#.#.#.#.#.#.#.#.#."
};
