/* XPM */
static char *IR_xpm[] = {
/* columns rows colors chars-per-pixel */
"16 16 77 1",
"  c #18E4739B18E4",
". c #635E17931793",
"X c #78AA10CC10CC",
"o c #7E4F110B110B",
"O c #7EA3110F110F",
"+ c #40C97F7E40C9",
"@ c #1ABDA9FC1ABD",
"# c #1DB2B4AD1DB1",
"$ c #1DD5B5111DD9",
"% c #1DDEB53D1E4D",
"& c #2F259BE82F25",
"* c #28B7B89A28B7",
"= c #5961BDC25961",
"- c #53B9C4A953B9",
"; c #5061C5C35061",
": c #5F1BC7D55CAA",
"> c #5F33C9C35E96",
", c #5F36CA525F36",
"< c #5F9DCAAB5FB0",
"1 c #5F4CCAF35FC8",
"2 c #5F99CB245F99",
"3 c #66D6CD1466D6",
"4 c #7CD1D4667CD1",
"5 c #8E0A0B580B58",
"6 c #875511B311B3",
"7 c #97641B5E1B5E",
"8 c #BC2C1FCC1FCC",
"9 c #D38D04A104A1",
"0 c #E1BD048F048F",
"q c #E1D405250525",
"w c #E29C05270527",
"e c #E66D0DEA0DEA",
"r c #E3321D5E1D5E",
"t c #F2731EEB1EEB",
"y c #F27A1F881F88",
"u c #F3571F9A1F9A",
"i c #F28A20B120B1",
"p c #F2EA2A4C2A4C",
"a c #F23935693569",
"s c #F51E52D852D8",
"d c #F5897F537F4F",
"f c #9DC989FD89FD",
"g c #9B809DEF9B80",
"h c #9F53A032A051",
"j c #83A0D6B183A0",
"k c #B7A3E7CEB7A3",
"l c #F48F8D0D8D95",
"z c #F52590FD9199",
"x c #F730921A9215",
"c c #F42BC0B5BD90",
"v c #D8CDCF84CF84",
"b c #D8F0CF84CF84",
"n c #DB78D164D164",
"m c #CF7FEFEACF7F",
"M c #D38AF14DD38A",
"N c #D566F1D1D566",
"B c #DA49F36EDA49",
"V c #ED95CE1BCE1B",
"C c #E6ABD194D194",
"Z c #F53AC953C677",
"A c #FC8BD2F6D2F3",
"S c #FD2CD8B1D8AD",
"D c #FCFEDAE3DB42",
"F c #FDA9DC20DC20",
"G c #FE92DCD9DCD9",
"H c #FDB9DDBADDBA",
"J c #EA05EE05EA05",
"K c #F029F14EF171",
"L c #F8AEE99EE63A",
"P c #FE1AE44CE44C",
"I c #FDC3EA24EA87",
"U c #F957F6D6F380",
"Y c #F9C3FE0BF9C3",
"T c #F9CBFE76FA28",
"R c #FA5CFE93FA5C",
"E c #FB2EFE91FB2E",
"W c gray100",
/* pixels */
"WWWWWWWWWWWWWWWW",
"WWWWWWWWWWWWWWWW",
"BNMMMMMMMMMMMMmk",
"43,,,,,,,,,,,3;&",
";*############@ ",
"j3,,,,,,,,,,,,=+",
"EEEEYYUZcLEEEEJg",
"WWWWWWLzlSWWWWJh",
"PGGGGGGxdAGGGGVf",
"spttuuuiiyuuuur7",
"ae00000999w90w95",
"86OOOOOO6O66OOX.",
"Cbbbbbbbbbbbbbbn",
"WWWWWWWWWWWWWWWW",
"WWWWWWWWWWWWWWWW",
"WWWWWWWWWWWWWWWW"
};
