/* XPM */
static char *IS_png[] = {
/* columns rows colors chars-per-pixel */
"16 16 112 2",
"   c #1CAF221F3D30",
".  c #15FD1F0146A4",
"X  c #18071F724488",
"o  c #154A1ECD4CCE",
"O  c #15A01FB550EC",
"+  c #18A320C04774",
"@  c #182922704996",
"#  c #199722464BFC",
"$  c #1577215C52A6",
"%  c #18CA248C5424",
"&  c #149B23B36CA2",
"*  c #10F1228E7236",
"=  c #162D262473E2",
"-  c #166A26387416",
";  c #144026DF7587",
":  c #104C25A37BAC",
">  c #13A2260A7A02",
",  c #14CD29A07873",
"<  c #15B529567D7B",
"1  c #15DC29857DC4",
"2  c #15642B537EAB",
"3  c #19592C557820",
"4  c #195A29E97BFB",
"5  c #1AE32F3E8050",
"6  c #1B1C2F768071",
"7  c #1E812E317AA1",
"8  c #3BC23E0A57F4",
"9  c #2A69362E6D6A",
"0  c #286C3504713B",
"q  c #585B40F04EBA",
"w  c #65975DBF7046",
"e  c #6CC55EDD6F41",
"r  c #14112D70825B",
"t  c #17992D9E80A6",
"y  c #1B012F6C80C8",
"u  c #1974330F8544",
"i  c #20D73354834D",
"p  c #23D033DA81E6",
"a  c #25B838C8862C",
"s  c #441A51DE944E",
"d  c #4CEE59C19892",
"f  c #4B8D5A9F9B04",
"g  c #4C8A59B7995F",
"h  c #4F185EAB9D81",
"j  c #547662429EFF",
"k  c #5C6160AB9523",
"l  c #58796533A04E",
"z  c #578D67C4A3ED",
"x  c #590C65B4A0BA",
"c  c #5FE36BD5A4AA",
"v  c #631367999EED",
"b  c #612968AFA15C",
"n  c #64466BCDA2AB",
"m  c #7769817DB204",
"M  c #8356414D3BE8",
"N  c #A0744B564271",
"B  c #F89139292AC9",
"V  c #FC8F5805494E",
"C  c #EBF767435CD7",
"Z  c #F1786A8D5BB6",
"A  c #F9EA61F3566F",
"S  c #F9E265C159F9",
"D  c #FECB6AC25C03",
"F  c #FA736EAC633C",
"G  c #FA706F20641A",
"H  c #FADF6F7563D8",
"J  c #FFFF71C661D8",
"K  c #FFFF72576288",
"L  c #FFFF7885695F",
"P  c #95F3668E8237",
"I  c #9E8F6ED08C77",
"U  c #9FC06E108B2C",
"Y  c #A143708E8CF2",
"T  c #8E3291C1B9B0",
"R  c #941087CFA491",
"E  c #9FA9894BA389",
"W  c #9BDA904FAFC2",
"Q  c #9E22910AAFCB",
"!  c #9D4F93F0B381",
"~  c #A87991F7AEC0",
"^  c #AA6192C0AE90",
"/  c #AAFF933EAF2D",
"(  c #A29D9637B346",
")  c #AA5395C1B20C",
"_  c #AE469785B256",
"`  c #BA339624AB13",
"'  c #BD34A55DB92D",
"]  c #B475AA5EC1CB",
"[  c #BDADAB91C113",
"{  c #B4E4BA63D517",
"}  c #D51D8D939572",
"|  c #DB838C489197",
" . c #C4FFA31FB4F0",
".. c #FFFF920185BB",
"X. c #FC0D96A28E9F",
"o. c #D01FD0BCD415",
"O. c #D02BD0F3D46D",
"+. c #D213D2BFD654",
"@. c #D329D350D586",
"#. c #D58FD39AD4C8",
"$. c #D306D4A5DBFC",
"%. c #D938D395D320",
"&. c #CD9CD150E333",
"*. c #D068D456E52A",
"=. c #D175D540E593",
"-. c #D163D5F6E659",
";. c #D36FD6A3E67F",
":. c #D8ADDB83E9B1",
">. c #E080E181EC80",
",. c #FEF8E2CDE091",
"<. c #ECC0E2BAE876",
"1. c gray100",
/* pixels */
"1.1.1.1.1.1.1.1.1.1.1.1.1.1.1.1.",
"1.1.1.1.1.1.1.1.1.1.1.1.1.1.1.1.",
":.-.-.<.,.<.-.-.&.-.-.-.-.-.&.{ ",
"m c z ` X.T j l z j j l l l g 0 ",
"g p t U G v > 4 4 4 4 4 4 4 = o ",
"h a u Y F n 2 6 6 6 6 6 5 5 3 % ",
"[ _ ) | A  .~ ~ ~ / ~ ~ / ~ E e ",
"..L K V B D K K J K K K K K Z N ",
"] ( W } S ' W W W W W Q Q W R w ",
"f i r I G b > 2 2 4 < 2 4 < - $ ",
"s 6 , P C k * - = = = - - - & o ",
"9 # @ q M 8 . + X + + + X @ X   ",
"$.o.o.#.%.O.O.O.o.o.o.O.O.o.o.O.",
"1.1.1.1.1.1.1.1.1.1.1.1.1.1.1.1.",
"1.1.1.1.1.1.1.1.1.1.1.1.1.1.1.1.",
"1.1.1.1.1.1.1.1.1.1.1.1.1.1.1.1."
};
