/* XPM */
static char *IT_xpm[] = {
/* columns rows colors chars-per-pixel */
"16 16 92 1",
"  c #1A165E731A16",
". c #1CAE5F211CAE",
"X c #1E6D65961E6D",
"o c #60C0178714E9",
"O c #754610BA0D4F",
"+ c #7AE810B40D47",
"@ c #7B3318181521",
"# c #54CE73EC54CE",
"$ c #19A2A17B19A2",
"% c #1E79A3601E79",
"& c #1BA0AB991BA0",
"* c #1BC5AC451BC5",
"= c #1DBCAC431DBC",
"- c #30628F253062",
"; c #2096AD7E2096",
": c #20B8AE2820B8",
"> c #215DADE2215D",
", c #2279AE272279",
"< c #2336AE6A2336",
"1 c #275BA93C275B",
"2 c #2BD2B1EE2BD2",
"3 c #2DA5B2732DA5",
"4 c #4B34BCE24B34",
"5 c #539FC09F539F",
"6 c #5455C09C5455",
"7 c #541FC0F4541F",
"8 c #5B2AC32B5B2A",
"9 c #5ED0C4B95ED0",
"0 c #5F5CC4F35F5C",
"q c #66A7C77066A7",
"w c #7CC5CFAF7CC5",
"e c #89960C940839",
"r c #911F0D9408E3",
"t c #928F0CEB087A",
"y c #91CF0DA108EB",
"u c #83C16F196E59",
"i c #CCE606980000",
"p c #C0CE1C9916CC",
"a c #DA4A05FA0000",
"s c #D93107560000",
"d c #DA5907B10062",
"f c #DB1B07530000",
"g c #DB8E14DF0F59",
"h c #E7DF06A90000",
"j c #E8BE06B70000",
"k c #E8B9081C0000",
"l c #E7EF091401F3",
"z c #E8CF0A780256",
"x c #E997082C0000",
"c c #E94616451064",
"v c #EA2C1664107D",
"b c #E952189212B2",
"n c #EB03409C3A70",
"m c #EEDD4C4F46FF",
"M c #EF164DEF47ED",
"N c #EF9B57905330",
"B c #8627860E8627",
"V c #8622873E874B",
"C c #8ED1CCDF8ED1",
"Z c #9794D9699794",
"A c #979FD96D979F",
"S c #97F1D9FF97F1",
"D c #98AED9D798AE",
"F c #B491E40DB491",
"G c #F809AFA1ACE9",
"H c #D06BD647D06B",
"J c #D895CF7FCF2F",
"K c #D890D018CFDF",
"L c #D54FD7FFD54F",
"P c #D3D5E092D3D5",
"I c #DB21D164D10D",
"U c #D951D77FD771",
"Y c #D97BD980D981",
"T c #D25AEF30D25A",
"R c #D382EFA3D382",
"E c #D566F045D566",
"W c #DA49F235DA49",
"Q c #ECD1C346C1D4",
"! c #FAD6CA0AC83A",
"~ c #FB63CE38CCB8",
"^ c #FB61CEC6CD16",
"/ c #FB6CCF49CDCC",
"( c #FB6CCF68CDEB",
") c #FC1FCFD4CE56",
"_ c #FB90D14BD00F",
"` c #FC9EDCDFDBC4",
"' c #EB20F832EB20",
"] c #F13AF13AF13A",
"[ c #F222F191F222",
"{ c #F17CF3B8F3D1",
"} c #FF2EF64DF5FD",
"| c gray100",
/* pixels */
"||||||||||||||||",
"||||||||||||||||",
"WERRR'||||}(^^!G",
"wq008F||||`NMMnp",
"53;<=D||||(bhkdy",
"52;;=D||||(chkdy",
"52;;=Z||||(cjxse",
"52;;&Z||||(chxdy",
"53;;&Z||||^cjxde",
"53;;=Z||||)cjxft",
"41%%$C]]]{Qgffie",
"-X.  #BBBBu@++Oo",
"THHHHLYYYYUKKJJK",
"||||||||||||||||",
"||||||||||||||||",
"||||||||||||||||"
};
