/* XPM */
static char *JO_png[] = {
/* columns rows colors chars-per-pixel */
"16 16 121 2",
"   c #015700160016",
".  c #022F006F006F",
"X  c #038B00A500A7",
"o  c #0499008F008F",
"O  c #054201410141",
"+  c #062201080108",
"@  c #04B504D30502",
"#  c #0BE608760876",
"$  c #1A1D096C08F1",
"%  c #222C1C741C74",
"&  c #38B135B835B8",
"*  c #1F994AE61F99",
"=  c #1C1B57801C1B",
"-  c #19545E5F1D5B",
";  c #1BB05C611CDC",
":  c #1CD35B4C1CCE",
">  c #1CDE5B871CDE",
",  c #186963551869",
"<  c #250853A01B84",
"1  c #31C2748331C2",
"2  c #5D392D581441",
"3  c #55AC27FD26E8",
"4  c #6A750B520804",
"5  c #5D6E671114A7",
"6  c #4641404E404E",
"7  c #4B72476C476C",
"8  c #49AC49154918",
"9  c #4A9E49114911",
"0  c #4B31494F494D",
"q  c #4B7549AC49AC",
"w  c #4AB84ABB4A32",
"e  c #4CF24A534A53",
"r  c #4E1E4AB44AB4",
"t  c #4EB04B7D4B7D",
"y  c #4FBB4BB64BB6",
"u  c #522E4C204C22",
"i  c #51174C974C97",
"p  c #522D4D2B4D2B",
"a  c #52E34EB24EB2",
"s  c #67584C904AD6",
"d  c #197B9084197B",
"f  c #1B1499F81B13",
"g  c #1B389A671B4C",
"h  c #1A169DD91DE5",
"j  c #25DA94F81D47",
"k  c #4B9B93AC293E",
"l  c #40DFABFC40DF",
"z  c #4550B7714556",
"x  c #458DB820458D",
"c  c #4462B9094618",
"v  c #4573B946476B",
"b  c #961A04D302F4",
"n  c #ACCE26B20715",
"m  c #B203209E1B7E",
"M  c #93AB43220CA9",
"N  c #AEB053E65202",
"B  c #C22506E00424",
"V  c #E08C086B0139",
"C  c #DB4F0E1109BA",
"Z  c #DAEA210415E8",
"A  c #E403004A0000",
"S  c #E7E801FE0202",
"D  c #E8140315030E",
"F  c #E8C00BD70BD7",
"G  c #E8C10C0D0C0D",
"H  c #E7E70FA70EAB",
"J  c #E9C800000000",
"K  c #EBE500000000",
"L  c #EC5300000000",
"P  c #E91A0B420B42",
"I  c #EA620C050C38",
"U  c #E9570C0D0C17",
"Y  c #EC6C14291512",
"T  c #EF0020272013",
"R  c #E8B621CC2187",
"E  c #ECEC24E72538",
"W  c #EE592B312B3C",
"Q  c #EDCB301A307E",
"!  c #EECC339E3437",
"~  c #ED4F3A2A3A2A",
"^  c #ED703AB33AB4",
"/  c #EEDE3AD23AD8",
"(  c #DE5E8061716D",
")  c #EBD26A5E698B",
"_  c #F2F46DE26E09",
"`  c #91D99AAC91D9",
"'  c #9B1B9AE59AE5",
"]  c #A0189F99A01A",
"[  c #B22DAFA5AFA5",
"{  c #F0F18876886D",
"}  c #F7B286CB8860",
"|  c #F7879B0F9B0E",
" . c #CBDDCA08CA08",
".. c #CC9ECCB7CCBD",
"X. c #CA80CCF4CD01",
"o. c #CD12CCF6CCF6",
"O. c #CE61CDADCDAD",
"+. c #CF4ECE0FCE0F",
"@. c #D020CE85CE85",
"#. c #D088CED0CED0",
"$. c #D076D5CFD070",
"%. c #D062D5E6D075",
"&. c #D1F8CFFACFB1",
"*. c #D0DBD60BD091",
"=. c #D268D83AD268",
"-. c #DAA8E8CEDAA8",
";. c #E7FADD29D05C",
":. c #E18AD435D18B",
">. c #ECC2D65AD555",
",. c #E99AE923E923",
"<. c #E975F7A7E92A",
"1. c #E965F883E969",
"2. c #EA3BF964EA3B",
"3. c #F7E0E3E9E3DD",
"4. c #F12BF083F130",
"5. c #F942F7C4F7C0",
"6. c #F960F8DEF8DE",
"7. c #FFF6F5C7F64A",
"8. c #F95DF90DF90E",
"9. c #FA45F9CBF9CB",
"0. c gray100",
/* pixels */
"0.0.0.0.0.0.0.0.0.0.0.0.0.0.0.0.",
"0.0.0.0.0.0.0.0.0.0.0.0.0.0.0.0.",
">.&.X...............&...%.=. .[ ",
") N s w w w w w r r w r w a 3 % ",
"/ H B 4 $ @ X O X X X X @ @ @ @ ",
"/ I J A b 3 a a t r r r t a 9 & ",
"~ F S W Y E { 3.8.8.8.8.8.8.,.' ",
"~ F F | _ D Y } 7.0.0.0.0.0.4.] ",
"/ I S ! E Z ( ;.<.1.1.1.1.1.-.` ",
"~ I J V M k c v z z z z z z l 1 ",
"! C n 5 j h f f f f f f f g d , ",
"m 2 < ; ; : : : : : : : : : = * ",
"=.*.*.*.%.%.%.%.%.*.%.%.*.*.%.=.",
"0.0.0.0.0.0.0.0.0.0.0.0.0.0.0.0.",
"0.0.0.0.0.0.0.0.0.0.0.0.0.0.0.0.",
"0.0.0.0.0.0.0.0.0.0.0.0.0.0.0.0."
};
