/* XPM */
static char *JP_png[] = {
/* columns rows colors chars-per-pixel */
"16 16 66 1",
"  c #659665966596",
". c #7EB97EB97EB9",
"X c #EF6720C90000",
"o c #EFBB23A00000",
"O c #EFC224D30000",
"+ c #EFD9268E068A",
"@ c #F01627140703",
"# c #F00A27CC089D",
"$ c #EFF828B50000",
"% c #F17638F21C0B",
"& c #F18239981CAF",
"* c #F1974AEF2CC2",
"= c #F1944ABC2D59",
"- c #F4FA7896650F",
"; c #F6C37A7B678F",
": c #F4B87B5E688E",
"> c #F73780C46CF1",
", c #F7528B4D7A4F",
"< c #F78B8E8E7E35",
"1 c #842D842D842D",
"2 c #84C184BF84BE",
"3 c #84CB85CF85FD",
"4 c #84ED87BD8836",
"5 c #8E0E8E0E8E0E",
"6 c #93C893C893C8",
"7 c #9BDD9BDD9BDD",
"8 c #9DC39DC39DC3",
"9 c #BA6EBA6EBA6E",
"0 c #F810A1DA92E9",
"q c #F8CFA355948D",
"w c #F95CAA059C5B",
"e c #F992AABD9D22",
"r c #ED30C5FBBF1C",
"t c #CA8DCA8DCA8D",
"y c #D8D4D8D4D8D4",
"u c #D965D965D965",
"i c #DB5BDB5BDB5B",
"p c #E236E236E236",
"a c #E592E592E592",
"s c #F025E393E154",
"d c #F049E538E32B",
"f c #EFD9EFD9EFD9",
"g c #F0C5F0C5F0C5",
"h c #FCD9E8C1E569",
"j c #FCD9E904E557",
"k c #FECFED6BE98A",
"l c #FEFAEECCEB6A",
"z c #FEBDEF78EC44",
"x c #FEE4F060ED51",
"c c #F151F14FF14F",
"v c #F15EF253F281",
"b c #F222F222F222",
"n c #F411F411F411",
"m c #F573F573F573",
"M c #F64CF64CF64C",
"N c #F6F7F6F7F6F7",
"B c #FA92FA92FA92",
"V c #FB24FB24FB24",
"C c #FF7EFCC4FBDA",
"Z c #FFB2FCDEFC3F",
"A c #FF8AFD10FC5B",
"S c #FD2FFD32FD33",
"D c #FD42FDE6FE02",
"F c #FFB8FFFAFFCF",
"G c #FFFDFFFFFFFF",
"H c gray100",
/* pixels */
"HHHHHHHHHHHHHHHH",
"HHHHHHHHHHHHHHHH",
"VVVVVVVVVVVVVVVn",
"nHVHHVVHSSSSSHVt",
"nHHHHHHjjVHHHHf8",
"nHHHHz,**<zHHHf7",
"nHHHHe#XO#wHHHf7",
"nHHHH-X$$X-VHHf7",
"nHHHHq+OO@0HHHf7",
"nHHHHk-%&>kHHHf7",
"nnfnnnsrrdnnfnp6",
"95111133433213. ",
"aiyyyyyyyyyyyyyi",
"HHHHHHHHHHHHHHHH",
"HHHHHHHHHHHHHHHH",
"HHHHHHHHHHHHHHHH"
};
