/* XPM */
static const char *KG_xpm[] = {
/* columns rows colors chars-per-pixel */
"16 16 133 2",
"   c black",
".  c #C7C700000000",
"X  c #C9C900000000",
"o  c #CBCB00000000",
"O  c #CDCD00000000",
"+  c #D1D100000000",
"@  c #D3D300000000",
"#  c #D5D500000000",
"$  c #D7D700000000",
"%  c #D9D900000000",
"&  c #DBDB00000000",
"*  c #DDDD00000000",
"=  c #E1E100000000",
"-  c #E3E300000000",
";  c #E5E500000000",
":  c #E7E700000000",
">  c #E5E50B0B0B0B",
",  c #E5E50F0F0E0E",
"<  c #E9E900000000",
"1  c #EBEB00000000",
"2  c #EDED00000000",
"3  c #EFEF00000000",
"4  c #E5E510101010",
"5  c #E7E713131313",
"6  c #E7E714141414",
"7  c #E8E819191919",
"8  c #E8E81A1A1A1A",
"9  c #E9E91F1F1F1F",
"0  c #F1F100000000",
"q  c #E9E920201F1F",
"w  c #EAEA28281F1F",
"e  c #EAEA2C2C1E1E",
"r  c #E7E72C2C2C2C",
"t  c #E9E920202020",
"y  c #EBEB25252525",
"u  c #EBEB26262525",
"i  c #EBEB26262626",
"p  c #E8E82F2F2F2F",
"a  c #ECEC2B2B2B2B",
"s  c #ECEC2C2C2C2C",
"d  c #EDED38382E2E",
"f  c #E9E932323232",
"g  c #E9E935353535",
"h  c #E9E936363636",
"j  c #EDED31313131",
"k  c #EEEE34343434",
"l  c #EFEF37373737",
"z  c #EBEB39393939",
"x  c #EBEB3B3B3B3B",
"c  c #EFEF3A3A3A3A",
"v  c #ECEC3D3D3D3D",
"b  c #ECEC3F3F3F3F",
"n  c #F0F03C3C3D3D",
"m  c #F0F03F3F3F3F",
"M  c #F1F13F3F3F3F",
"N  c #EFEF40403636",
"B  c #EEEE5F5F2323",
"V  c #F0F041413A3A",
"C  c #EFEF67672929",
"Z  c #EFEF69692424",
"A  c #F2F269693030",
"S  c #EDED42424242",
"D  c #EDED44444444",
"F  c #EEEE46464646",
"G  c #EEEE49494949",
"H  c #EFEF4B4B4B4B",
"J  c #EFEF4E4E4E4E",
"K  c #EFEF50505050",
"L  c #F1F144444444",
"P  c #F1F145454545",
"I  c #F2F248484242",
"U  c #F2F249494949",
"Y  c #F2F24A4A4949",
"T  c #F2F24A4A4B4B",
"R  c #F3F34F4F4F4F",
"E  c #F0F053535353",
"W  c #F3F350505050",
"Q  c #F1F154545555",
"!  c #F2F257575757",
"~  c #F4F453535353",
"^  c #F4F455555151",
"/  c #F4F454545454",
"(  c #F4F459595151",
")  c #F2F258585858",
"_  c #F2F25C5C5C5C",
"`  c #F2F25D5D5D5D",
"'  c #F5F558585858",
"]  c #F5F559595959",
"[  c #F6F65C5C5C5C",
"{  c #F6F65F5F5F5F",
"}  c #F4F473734040",
"|  c #F5F577774747",
" . c #F5F576764C4C",
".. c #F6F67D7D4B4B",
"X. c #F3F360606060",
"o. c #F3F361616262",
"O. c #F4F465656565",
"+. c #F4F466666666",
"@. c #F5F569696969",
"#. c #F5F56A6A6A6A",
"$. c #F6F66D6D6D6D",
"%. c #F6F66F6F6F6F",
"&. c #F6F670707171",
"*. c #F7F772727373",
"=. c #F7F774747474",
"-. c #F7F776767676",
";. c #F7F777777777",
":. c #F7F779797979",
">. c #F8F87B7B7A7A",
",. c #F8F87B7B7B7B",
"<. c #F1F185852B2B",
"1. c #F3F382823636",
"2. c #F5F588883B3B",
"3. c #F3F394942F2F",
"4. c #F2F299992424",
"5. c #F4F497973535",
"6. c #F5F59E9E3434",
"7. c #F6F69B9B3C3C",
"8. c #F6F6A0A03C3C",
"9. c #F4F4B7B72A2A",
"0. c #F7F792924646",
"q. c #F6F6A0A04141",
"w. c #F8F8A5A54B4B",
"e. c #F5F5C4C42A2A",
"r. c #F6F6C7C72F2F",
"t. c #F5F5C3C33030",
"y. c #F7F7C2C23636",
"u. c #F8F8C0C03A3A",
"i. c #F8F8CBCB4040",
"p. c #F9F9C8C84646",
"a. c #FAFAD4D44242",
"s. c #FAFAD7D74747",
"d. c None",
/* pixels */
"d.d.d.d.d.d.d.d.d.d.d.d.d.d.d.d.",
"d.d.d.d.d.d.d.d.d.d.d.d.d.d.d.d.",
"d.d.d.d.d.d.d.d.d.d.d.d.d.d.d.d.",
"0 0 0 0 3 3 3 1 1 1 : : = = * * ",
"0 ,.,.:.:.-.&.$.@.O.X._ ! W K % ",
"0 ,.[ [ ' / (  .| I n l j s G # ",
"3 :.[ ' / ^ w.s.a.8.n j r i D @ ",
"3 -.' / W ..p.q.7.y.A r i t V @ ",
"3 *.~ R T 0.i.2.1.r.<.y 9 8 x O ",
"3 %.R U P } u.5.3.9.Z 9 7 5 h O ",
"1 #.H L L n 6.r.e.4.w 7 6 4 f O ",
"1 +.L V c k d C B e 7 5 4 > r . ",
": o.` ) ! J H D S v z h f p r . ",
": = = * % % % # @ @ O o o . . o ",
"d.d.d.d.d.d.d.d.d.d.d.d.d.d.d.d.",
"d.d.d.d.d.d.d.d.d.d.d.d.d.d.d.d."
};
