/* XPM */
static char *KG_png[] = {
/* columns rows colors chars-per-pixel */
"16 16 90 1",
"  c #60C014E914E9",
". c #75460D4F0D4F",
"X c #7A720CE60D4A",
"o c #7A480D5B0D5B",
"O c #7AA90CD10D43",
"+ c #7ACF0D600D62",
"@ c #83590DA30DA3",
"# c #899608390839",
"$ c #911F08E308E3",
"% c #922F08B208B2",
"& c #B69D1A361A36",
"* c #CCE600000000",
"= c #C0CE16CC16CC",
"- c #D93100000000",
"; c #DA4C001E0016",
": c #DB1B00000000",
"> c #DC2B0DEC02FB",
", c #DF0D08970897",
"< c #DC7113B50461",
"1 c #DEE4262308B8",
"2 c #DF702EAC0ABD",
"3 c #E7D100110004",
"4 c #E86600000000",
"5 c #E80D01450046",
"6 c #E7ED01C701C7",
"7 c #E7E501B90244",
"8 c #E7EA01E9024C",
"9 c #E815021200BD",
"0 c #E848039F00EA",
"q c #E82202610262",
"w c #E8C90C240C24",
"e c #E99700000000",
"r c #E93D0A510281",
"t c #E8F80BF504BA",
"y c #E9D30CC402D5",
"u c #E9910C470C47",
"i c #E93F0E650E65",
"p c #E993118205EF",
"a c #EA0E140C04C6",
"s c #EB06147F04BE",
"d c #EB9222C609F8",
"f c #EBC723DF0860",
"g c #EC2523800889",
"h c #EC3A25D9090E",
"j c #ECDA29B80A20",
"k c #ECE92F960A23",
"l c #ED022F360CDD",
"z c #ED9630E00B6B",
"x c #ED85314F0B8F",
"c c #EDB131EF0C26",
"v c #EE5236720D65",
"b c #EE3B37A00CD8",
"n c #EEB23AF40D94",
"m c #EED23DF10E79",
"M c #EEFA3C600E20",
"N c #EFCD3DF60E34",
"B c #EFE13EBA0E9B",
"V c #EB7430963096",
"C c #EB033A703A70",
"Z c #ED523A2A3A2A",
"A c #ED893ACC3ACC",
"S c #EF1B40690F54",
"D c #EF6F414E0F30",
"F c #F0B64D011208",
"G c #F0954ECA11A6",
"H c #F06B52FC11F7",
"J c #F2DE58BA1462",
"K c #F1EC5F3014BD",
"L c #F3E4647E1678",
"P c #F38672E8181E",
"I c #F46C7B6F1A15",
"U c #EEC646244703",
"Y c #EED546CD471B",
"T c #EEE147524752",
"R c #EF1647ED47ED",
"E c #EFAA4FAA4FAA",
"W c #F1BF69266926",
"Q c #F66D93261ED1",
"! c #F809ACE9ACE9",
"~ c #D888CF31CF31",
"^ c #D962CF2CCF2C",
"/ c #DB21D10DD10D",
"( c #E5F8D0E1D0E1",
") c #FAD6C83AC83A",
"_ c #FB61CCB5CCB5",
"` c #FB63CCC7CCCE",
"' c #FB64CCD7CCD7",
"] c #FB81CEEFCEEF",
"[ c #FBEED49DD49D",
"{ c gray100",
/* pixels */
"{{{{{{{{{{{{{{{{",
"{{{{{{{{{{{{{{{{",
"[_____________)!",
"WETTTTTTTTTTUUZ&",
"Ai33qqtdlpqqee:%",
"Ai333tcMFma3ee:%",
"Aw333hGkhBb33e:#",
"Aw333jKPHcm0ee:%",
"Aw33ehDIQvc33e:#",
"Ai33eyMJLma3ee:%",
"V,::::>12<::::*#",
"&@oooooooooo++. ",
"(~~~~~~~~~~~/~~/",
"{{{{{{{{{{{{{{{{",
"{{{{{{{{{{{{{{{{",
"{{{{{{{{{{{{{{{{"
};
