/* XPM */
static char *KH_png[] = {
/* columns rows colors chars-per-pixel */
"16 16 125 2",
"   c #1DA622723BD8",
".  c #2FFF1A973C5F",
"X  c #18CD1FFA42B0",
"o  c #19831F6343E7",
"O  c #1AA51FD643C7",
"+  c #195C208044C1",
"@  c #195B2154459A",
"#  c #1ACA20C24497",
"$  c #1AE521224504",
"%  c #1C4722D64983",
"&  c #2D6F1CD84178",
"*  c #3F041CC951F9",
"=  c #33A6212E5ECA",
"-  c #3BE121465B19",
";  c #2E8036736970",
":  c #2D2135786CCF",
">  c #3541284564DE",
",  c #38352F176A4A",
"<  c #36E02F2C6ABB",
"1  c #37022F516B00",
"2  c #3AE62A4C66E2",
"3  c #3E3F30ED6A59",
"4  c #7F230C7F1296",
"5  c #43171E73571D",
"6  c #43671EEC57BE",
"7  c #42F123A56027",
"8  c #54F1209D57EF",
"9  c #55C520FA5824",
"0  c #555821235855",
"q  c #514721AE5A1D",
"w  c #555421275858",
"e  c #414723BA607D",
"r  c #41A3246A6128",
"t  c #41B024C16195",
"y  c #42C628806077",
"u  c #42E1311A686C",
"i  c #42BD32176965",
"p  c #5D712BDD6084",
"a  c #7B0652D57DD6",
"s  c #5B194E7283A9",
"d  c #50AD5A72947C",
"f  c #5C2A65E49C6E",
"g  c #5A2466289D39",
"h  c #5A9D66349D0A",
"j  c #5CB366689CE5",
"k  c #61DE6D31A20A",
"l  c #78B78237AF5F",
"z  c #86240C211130",
"x  c #910A08E308E3",
"c  c #92CA08CE08AD",
"v  c #BC6A05E40F86",
"b  c #BA9507A5178E",
"n  c #BA82089D184E",
"m  c #BDDB151D23EC",
"M  c #BE412ED93CD6",
"N  c #C7FF04DF0D21",
"B  c #C93606581099",
"V  c #C91B071810A8",
"C  c #C9EA067010B3",
"Z  c #C90B085311C3",
"A  c #D53503BC0C9D",
"S  c #D635053B0E0C",
"D  c #D90E00000000",
"F  c #DB9D00000000",
"G  c #DC1A00000000",
"H  c #DBF004980AED",
"J  c #E0AB02C00861",
"K  c #E0B8031F08BC",
"L  c #CAB91DD225F4",
"P  c #C86B278B2FCA",
"I  c #D5692E6534AB",
"U  c #E7D800000000",
"Y  c #E88F00000000",
"T  c #E7CA02380229",
"R  c #E12204930A1B",
"E  c #E8CB0C290C29",
"W  c #E96300000000",
"Q  c #EA7400000000",
"!  c #EB3600000000",
"~  c #EBA207E0071D",
"^  c #EABA0B040A00",
"/  c #EA390BF10B91",
"(  c #EBC60BBE0B0D",
")  c #E20D0F27148E",
"_  c #EA0D18461720",
"`  c #E9F425642387",
"'  c #EBD124AF2295",
"]  c #EB9C2BB72920",
"[  c #E70333673087",
"{  c #EB213DF03A6A",
"}  c #ED533A343A34",
"|  c #EE7B3A0039A2",
" . c #EFD439CC3921",
".. c #E7983C8940E1",
"X. c #CAB841C64D65",
"o. c #D78E79E97DE3",
"O. c #D7D77B967EF1",
"+. c #EB2F4ABA4687",
"@. c #EB4D4DF24965",
"#. c #E99E54BD523C",
"$. c #EBD8613C5D3A",
"%. c #E8316A386610",
"&. c #E7B36B0B65D8",
"*. c #E82E6F0A6986",
"=. c #E8F26D1E68A7",
"-. c #EC9680097A19",
";. c #C42078A18478",
":. c #CFFC7D2C8377",
">. c #EC1F81637B6A",
",. c #ED69817E7C38",
"<. c #EDB481767D08",
"1. c #B7BABA5ED24E",
"2. c #C4D383FB905F",
"3. c #C7A986D1928D",
"4. c #D074D0BFD3C0",
"5. c #D077D0C6D3D6",
"6. c #D092D0ECD434",
"7. c #D26AD2BFD5FB",
"8. c #D3DAD4A5DB5B",
"9. c #CF9FD148E14C",
"0. c #D3ADD52AE3C5",
"q. c #D3E3D568E3EB",
"w. c #D597D6B1E503",
"e. c #DA74DB7AE7FC",
"r. c gray100",
/* pixels */
"r.r.r.r.r.r.r.r.r.r.r.r.r.r.r.r.",
"r.r.r.r.r.r.r.r.r.r.r.r.r.r.r.r.",
"e.w.0.0.q.q.0.q.0.0.0.0.0.0.8.1.",
"l k g g g g g f f f f f g g d : ",
"a p 8 8 8 8 q 7 t t t t t t * & ",
"..) J R R R H L P Z B B B B b 4 ",
"| / Y Y Y _ ` { @.] ' Y ! Y G c ",
"| E U U Y [ %.%.=.=.#.T Y U D c ",
"} E U T ~ +.-.,.-.-.#.E ~ ! G c ",
"X.m n n M ;.3.3.:.:.O.I S S N z ",
"s 2 > * > < < < i u u y 6 6 * . ",
": % O O O O O o O O O O O O O   ",
"8.6.4.4.4.4.4.4.4.4.4.4.6.6.6.6.",
"r.r.r.r.r.r.r.r.r.r.r.r.r.r.r.r.",
"r.r.r.r.r.r.r.r.r.r.r.r.r.r.r.r.",
"r.r.r.r.r.r.r.r.r.r.r.r.r.r.r.r."
};
