/* XPM */
static char *KI_png[] = {
/* columns rows colors chars-per-pixel */
"16 16 137 2",
"   c #4D194FF859A4",
".  c #42454C7D6466",
"X  c #4B6D51EB644C",
"o  c #51A157A9670C",
"O  c #52FF5830661A",
"+  c #56E45D876CC7",
"@  c #5A1E5F066CFB",
"#  c #5B3D5E866C81",
"$  c #5C3560396EA8",
"%  c #5DFE621A6ECF",
"&  c #5627622F77DB",
"*  c #6E1852F461C4",
"=  c #626666447400",
"-  c #62466704747E",
";  c #640167CE74EE",
":  c #65E8698C751E",
">  c #68826D977C4F",
",  c #5492669A80DC",
"<  c #745A8F8FC059",
"1  c #80128E24B1CC",
"2  c #751E91D0BF8D",
"3  c #7BBD91C6BB99",
"4  c #7F2892C0B9EF",
"5  c #6FA18F2EC4E5",
"6  c #911208910893",
"7  c #928F087A087A",
"8  c #92F714551342",
"9  c #C0CE16CC16CC",
"0  c #D90B00000000",
"q  c #DA8700C400C4",
"w  c #E0021B0C0752",
"e  c #DF0826FB0D55",
"r  c #DD4121D41C29",
"t  c #D3B037441203",
"y  c #DE42393015D2",
"u  c #E7C100000000",
"i  c #E83000130005",
"p  c #E7ED01C701C7",
"a  c #E8240253025F",
"s  c #E761040F02F4",
"d  c #E5D1094302DB",
"f  c #E87D0B2A0B40",
"g  c #E8C60C170C17",
"h  c #ECB70D6107F4",
"j  c #E93F0E650E65",
"k  c #ED330C4C0831",
"l  c #E29410E6077B",
"z  c #E299192408AC",
"x  c #E9EF26F42327",
"c  c #ED5522B62103",
"v  c #ECF62A0923CF",
"b  c #EBC331372C85",
"n  c #EAF036413082",
"m  c #EA7538253799",
"M  c #EB033A703A70",
"N  c #E9803FA23C40",
"B  c #ED3C38B738C0",
"V  c #ED503A0D3A0D",
"C  c #ED853AE43AE4",
"Z  c #D4BE476F1AAF",
"A  c #C7326BFB2509",
"S  c #C24175452A12",
"D  c #D6D07E712F2A",
"F  c #EED946E046E0",
"G  c #EEE147504752",
"H  c #EEF1472A4746",
"J  c #EF0647A8479F",
"K  c #EE00491147CE",
"L  c #EBC44FD94A13",
"P  c #EFAA4FAA4FAA",
"I  c #F09C4FB24ED7",
"U  c #E83A5C3E4E55",
"Y  c #EBEB5E4A4F65",
"T  c #EB3E66C552AD",
"R  c #F1BF69266926",
"E  c #B7A3783D86C0",
"W  c #B91A799285FB",
"Q  c #DA4E87D05744",
"!  c #D9C68BF4560C",
"~  c #DD93BBEE5438",
"^  c #E3EFC1BA52F3",
"/  c #8A9194F5AA6E",
"(  c #80A4948AB94D",
")  c #84B295D1BCC9",
"_  c #873D99E0BE5E",
"`  c #89129873BD35",
"'  c #8ABD98B0BA9D",
"]  c #90649A26BDB3",
"[  c #905B9B49C01F",
"{  c #92279AE1BC92",
"}  c #A0A887349A51",
"|  c #B7858A459AB6",
" . c #A657892EA5FB",
".. c #AC6A9550AA68",
"X. c #A67D9909B4AA",
"o. c #A8F39C25B37C",
"O. c #A3A7A0CEC081",
"+. c #C079BBB6AC91",
"@. c #B711B61FB0D5",
"#. c #81B49B15C173",
"$. c #817098EFC7BA",
"%. c #85E29CC2C52E",
"&. c #90FD9FCFC253",
"*. c #93B5A1BEC34A",
"=. c #9801A294C18D",
"-. c #9197A5BDCE02",
";. c #A042A931C72B",
":. c #98B0AA44CFD0",
">. c #A235A541C431",
",. c #A0A8A909C3D7",
"<. c #A3CEB31AD643",
"1. c #A474B3FED4DB",
"2. c #A190B513D5AF",
"3. c #AA48B9CFD6FC",
"4. c #AD38BB83DC76",
"5. c #B12BBB89DA8B",
"6. c #B4E9BF63DCD7",
"7. c #B50CBFE1DBEB",
"8. c #C198A287B30C",
"9. c #F809ACE9ACE9",
"0. c #CEFCD256D5A6",
"q. c #D0A9D2C5D5CB",
"w. c #CF9CD2D9D5F5",
"e. c #D001D2F5D5EE",
"r. c #D161D35FD618",
"t. c #D257D45BD6A7",
"y. c #D36DD504D72B",
"u. c #D3F3D515D703",
"i. c #D4E1D5F9D8A3",
"p. c #D645DAFDE0F2",
"a. c #FAD6C83AC83A",
"s. c #FBA2CB66CC4C",
"d. c #FB6FCCA3CCB9",
"f. c #FB63CCDBCCDB",
"g. c #FB81CEEFCEEF",
"h. c #FBEED49DD49D",
"j. c gray100",
/* pixels */
"j.j.j.j.j.j.j.j.j.j.j.j.j.j.j.j.",
"j.j.j.j.j.j.j.j.j.j.j.j.j.j.j.j.",
"h.d.d.d.d.d.f.s.s.s.d.d.d.d.a.9.",
"R P G G G G P U T Y K G G G M 9 ",
"C j u u s s l Z D y s s u i q 7 ",
"C j u u i i i w e d u u u i q 7 ",
"C f u u u i w A S t u u u u q 6 ",
"I c m b h x Q ~ ^ ! n h v N r 8 ",
"8.| X.o.E  .;.@.+.;.X.E ..>.} * ",
"2.%.6.1.2 -.5.$.5 4.<.2 :.6.#., ",
"4.) { ] ( _ =._ 3 &.&.( ' ] ( & ",
"/ > X $ ; % o - = o + : # . #   ",
"p.y.0.0.u.r.0.r.u.0.r.r.0.0.r.u.",
"j.j.j.j.j.j.j.j.j.j.j.j.j.j.j.j.",
"j.j.j.j.j.j.j.j.j.j.j.j.j.j.j.j.",
"j.j.j.j.j.j.j.j.j.j.j.j.j.j.j.j."
};
