/* XPM */
static char *KM_xpm[] = {
/* columns rows colors chars-per-pixel */
"16 16 104 2",
"   c #0CC3125D7A26",
".  c #140014E9696F",
"X  c #0D88334F483C",
"o  c #09727E9B13CB",
"O  c #127C7FD304B4",
"+  c #1A386AED2F21",
"@  c #3C946AF00000",
"#  c #065158EE4F3D",
"$  c #3B11451F465C",
"%  c #74D908EB33DF",
"&  c #0BDA0D4F8174",
"*  c #0BD10D638799",
"=  c #0C470D0587CD",
"-  c #0D2A0C108859",
";  c #130708398BF7",
":  c #02D52003B271",
">  c #0EFA0328DD44",
",  c #11140000D09C",
"<  c #126C0000DE7C",
"1  c #12760000DF45",
"2  c #14FC0000DE8E",
"3  c #025181F10337",
"4  c #000085AB0000",
"5  c #026484FD0265",
"6  c #0A9985400265",
"7  c #11EC887411EE",
"8  c #142E8A941190",
"9  c #1ADB8E881E13",
"0  c #1FF790A31FF1",
"q  c #1EBA85743597",
"w  c #3BEC9FF10E67",
"e  c #2A9C980C235F",
"r  c #296395B22957",
"t  c #30399CB52F20",
"y  c #304B9BFC3056",
"u  c #32609E6B30F6",
"i  c #32989C9F333D",
"p  c #38E79F6239D5",
"a  c #546BAACF369E",
"s  c #40DFA29A40E3",
"d  c #47B7A5EA47B0",
"f  c #512FAEFB4D98",
"g  c #5074AB4453F9",
"h  c #5B09B04F59EF",
"j  c #6F89B9856FDB",
"k  c #773BBC4A6926",
"l  c #785FBD2E785F",
"z  c #7760BE437B9E",
"x  c #A17F08650756",
"c  c #A591322F0000",
"v  c #9AC4110B48F7",
"b  c #AC5D0000446B",
"n  c #B81A000048DF",
"m  c #B92C003848F6",
"M  c #85D26F3E3152",
"N  c #9F14441D441D",
"B  c #F06A07D30000",
"V  c #F1EE00000000",
"C  c red",
"Z  c #EFD45E775E77",
"A  c #F7AC658861BB",
"S  c #FFFF65076517",
"D  c #A0CEA0CE1F81",
"F  c #9E7AD058078F",
"G  c #9836CCED4F91",
"H  c #D26ED26E15FF",
"J  c #EF9AF83D1EF8",
"K  c #F153F153264A",
"L  c #FFFFFFFF2ABF",
"P  c #FFFFFFFF2BB5",
"I  c #FFFFFFFF2F72",
"U  c #FD7AFD7A3924",
"Y  c #DC6BEEDD468A",
"T  c #FCFBFE9C4721",
"R  c #FFFFFFFF45EE",
"E  c #FFFFFFFF466E",
"W  c #9F049F488C12",
"Q  c #9F149B209C8B",
"!  c #8242C2E78242",
"~  c #8EEFC9458EF0",
"^  c #9A36CE379A32",
"/  c #9C71CF589C78",
"(  c #BE66DFFC9F2A",
")  c #ACE4D849ACE4",
"_  c #FFB9FFB9ACE9",
"`  c #CF2CCE8DDBA6",
"'  c #CF32CF2DD983",
"]  c #D10DD10DDC27",
"[  c #D0E1D7BEDB15",
"{  c #D9ECEF97DE84",
"}  c #EFC7F021D163",
"|  c #EA54F564D49D",
" . c #FFFFFFFFC83A",
".. c #FFFFFFFFCCB5",
"X. c #FD4BFEC4CEEF",
"o. c #FFFFFFFFCCD5",
"O. c #F833FC45D9C3",
"+. c #FFFFFFFFDF77",
"@. c #FFFFFFFFE092",
"#. c #EFD4E982EBC1",
"$. c #FEADF9BCFBB6",
"%. c #FFFFF943FBAD",
"&. c #FFFFFA2AFC93",
"*. c gray100",
/* pixels */
"*.*.*.*.*.*.*.*.*.*.*.*.*.*.*.*.",
"*.*.*.*.*.*.*.*.*.*.*.*.*.*.*.*.",
"| .......................... ._ ",
"k G Y T T T T T R R R R R T U H ",
"p 7 w F J I L L L L L L L L K D ",
"d j g e a ( O.+.+.+.+.+.+.+.} W ",
"~ ^ 0 i 3 9 z { %.%.%.%.%.%.#.Q ",
") z 7 t 5 5 O M A S S S S S Z N ",
"! / r i 6 @ c B C C C C C C V x ",
"a h f q $ v n n n n n n n n b % ",
"y o # : < 2 < < < < < < < < , ; ",
"+ X   = * * * * * * * * * * & . ",
"[ ` ` ` ' ' ' ' ' ' ' ' ' ' ' ] ",
"*.*.*.*.*.*.*.*.*.*.*.*.*.*.*.*.",
"*.*.*.*.*.*.*.*.*.*.*.*.*.*.*.*.",
"*.*.*.*.*.*.*.*.*.*.*.*.*.*.*.*."
};
