/* XPM */
static const char *KP_xpm[] = {
/* columns rows colors chars-per-pixel */
"16 16 160 2",
"   c black",
".  c #00000B0BDDDD",
"X  c #00000F0FDDDD",
"o  c #00001111DFDF",
"O  c #00001919DDDD",
"+  c #00001717E1E1",
"@  c #00001D1DE3E3",
"#  c #00002121E5E5",
"$  c #00002525E7E7",
"%  c #00002B2BE9E9",
"&  c #00003131EBEB",
"*  c #00003737EDED",
"=  c #00003F3FEDED",
"-  c #00004343EFEF",
";  c #00004949EFEF",
":  c #00004949F1F1",
">  c #00004F4FF3F3",
",  c #00005555F5F5",
"<  c #00005B5BF7F7",
"1  c #03035F5FF5F5",
"2  c #05055F5FF9F9",
"3  c #0B0B6363FBFB",
"4  c #11116767FDFD",
"5  c #17176D6DFDFD",
"6  c #1B1B6F6FFDFD",
"7  c #21217373FDFD",
"8  c #25257575FFFF",
"9  c #31317D7DFFFF",
"0  c #7F7FA3A3DDDD",
"q  c #C7C700000000",
"w  c #CDCD00000000",
"e  c #CFCF00000000",
"r  c #D1D100000000",
"t  c #D5D500000000",
"y  c #D7D700000000",
"u  c #E9E900000000",
"i  c #EDED00000000",
"p  c #EFEF00000000",
"a  c #E7E710101010",
"s  c #E7E714141414",
"d  c #E9E914141414",
"f  c #E8E819191919",
"g  c #E8E81A1A1A1A",
"h  c #EAEA19191919",
"j  c #E9E91F1F1F1F",
"k  c #EBEB1F1F1F1F",
"l  c #F1F100000000",
"z  c #F1F100000101",
"x  c #E6E623232323",
"c  c #E6E627272727",
"v  c #E9E920202020",
"b  c #EBEB24242424",
"n  c #EBEB25252525",
"m  c #ECEC24242424",
"M  c #EDED26262626",
"N  c #E8E82B2B2B2B",
"B  c #ECEC2A2A2A2A",
"V  c #ECEC2B2B2B2B",
"C  c #EEEE2A2A2A2A",
"Z  c #EEEE2B2B2B2B",
"A  c #EDED2F2F2F2F",
"S  c #E9E930303030",
"D  c #EBEB32323232",
"F  c #E9E936363636",
"G  c #EAEA34343434",
"H  c #EDED30303030",
"J  c #EFEF31313131",
"K  c #EFEF34343434",
"L  c #EFEF36363636",
"P  c #EBEB3B3B3B3B",
"I  c #ECEC39393939",
"U  c #ECEC3F3F3F3F",
"Y  c #EDED3E3E3E3E",
"T  c #F0F037373636",
"R  c #F0F03B3B3C3C",
"E  c #F1F13C3C3C3C",
"W  c #E9E943434343",
"Q  c #EDED41414242",
"!  c #EEEE44444444",
"~  c #ECEC4A4A4C4C",
"^  c #EEEE4D4D4D4D",
"/  c #EDED50505151",
"(  c #EFEF54545656",
")  c #F2F241414242",
"_  c #F3F347474747",
"`  c #F0F048484848",
"'  c #F0F04E4E4E4E",
"]  c #F2F24D4D4D4D",
"[  c #F0F051515252",
"{  c #F0F059595B5B",
"}  c #F2F258585858",
"|  c #F1F15E5E5F5F",
" . c #EEEE64646565",
".. c #F2F261616161",
"X. c #F2F261616363",
"o. c #F2F265656565",
"O. c #F3F366666767",
"+. c #F4F469696969",
"@. c #F7F76A6A6A6A",
"#. c #F6F66F6F6F6F",
"$. c #F4F46E6E7171",
"%. c #F4F472727272",
"&. c #F4F472727373",
"*. c #F7F772727373",
"=. c #F5F576767676",
"-. c #F6F674747575",
";. c #F7F776767676",
":. c #F6F677777979",
">. c #F8F879797979",
",. c #F9F979797979",
"<. c #9D9DBBBBEBEB",
"1. c #B3B3CDCDF7F7",
"2. c #F6F685858484",
"3. c #F5F58A8A8A8A",
"4. c #F7F78C8C8C8C",
"5. c #F8F88F8F8F8F",
"6. c #F7F799999999",
"7. c #F9F9A3A3A3A3",
"8. c #C1C1D9D9FFFF",
"9. c #CBCBD9D9F2F2",
"0. c #CBCBDADAF2F2",
"q. c #CDCDDBDBF3F3",
"w. c #CECEDCDCF3F3",
"e. c #D0D0DDDDF4F4",
"r. c #D1D1DEDEF5F5",
"t. c #D3D3E0E0F6F6",
"y. c #D4D4E1E1F7F7",
"u. c #D6D6E2E2F7F7",
"i. c #D7D7E3E3F7F7",
"p. c #D8D8E4E4F8F8",
"a. c #D8D8E5E5F8F8",
"s. c #D9D9E6E6F9F9",
"d. c #DADAE6E6F9F9",
"f. c #DADAE7E7F9F9",
"g. c #DCDCE8E8FAFA",
"h. c #DDDDE8E8FBFB",
"j. c #DEDEE9E9FCFC",
"k. c #DFDFEBEBFCFC",
"l. c #F8F8C2C2C2C2",
"z. c #FAFAC5C5C5C5",
"x. c #FBFBC8C8C7C7",
"c. c #FBFBC8C8C8C8",
"v. c #FBFBC9C9C9C9",
"b. c #FAFACACACACA",
"n. c #F9F9D3D3D3D3",
"m. c #FBFBD2D2D2D2",
"M. c #FBFBDDDDDCDC",
"N. c #FAFADEDEDEDE",
"B. c #E1E1ECECFDFD",
"V. c #E2E2EDEDFEFE",
"C. c #E4E4EEEEFEFE",
"Z. c #E5E5EEEEFEFE",
"A. c #E5E5EFEFFFFF",
"S. c #F9F9E1E1E1E1",
"D. c #F9F9E3E3E2E2",
"F. c #FDFDE1E1E1E1",
"G. c #F9F9E8E8E8E8",
"H. c #F9F9EAEAEAEA",
"J. c #FCFCE8E8E8E8",
"K. c None",
/* pixels */
"K.K.K.K.K.K.K.K.K.K.K.K.K.K.K.K.",
"K.K.K.K.K.K.K.K.K.K.K.K.K.K.K.K.",
"K.K.K.K.K.K.K.K.K.K.K.K.K.K.K.K.",
"9 8 8 8 7 6 5 4 3 2 < , > : - ; ",
"8.A.A.A.V.V.V.V.k.j.g.g.d.d.u.<.",
"z 5.:.;.$.&.O.O.X.| { ( / ~  .t ",
"z ,.,.x.J.F.5._ ) E L J Z M ! t ",
"p ;.x.7.z.6.N.] Y L A Z M v U r ",
"p *.M.m.%.n.G.X.T A Z n k f P w ",
"p #.z.2.l.3.S._ A Z b k f s F w ",
"p +.+.b.S.G.O.T Z m k h s a D w ",
"u =.{ [ ^ ^ Q U F G S N c x W q ",
"1.g.g.a.d.d.t.t.t.e.e.w.q.0.0.0 ",
"3 > : - = * & % $ # @ + o X . O ",
"K.K.K.K.K.K.K.K.K.K.K.K.K.K.K.K.",
"K.K.K.K.K.K.K.K.K.K.K.K.K.K.K.K."
};
