/* XPM */
static const char *KY_xpm[] = {
/* columns rows colors chars-per-pixel */
"16 16 153 2",
"   c black",
".  c #000000000303",
"X  c #000000000B0B",
"o  c #000000001111",
"O  c #000000001919",
"+  c #000000001F1F",
"@  c #000000002525",
"#  c #000000002727",
"$  c #000000002D2D",
"%  c #000000002F2F",
"&  c #000000003131",
"*  c #000000003333",
"=  c #000000003939",
"-  c #000000003B3B",
";  c #000000003F3F",
":  c #000000004949",
">  c #000009096363",
",  c #00001D1D7575",
"<  c #272733337373",
"1  c #303043437F7F",
"2  c #3B3B4E4E7F7F",
"3  c #575739396565",
"4  c #77772D2D4F4F",
"5  c #7F7F2F2F4F4F",
"6  c #71713D3D6161",
"7  c #75753D3D6161",
"8  c #5D5D66666F6F",
"9  c #606070704949",
"0  c #636374744D4D",
"q  c #646473735050",
"w  c #6F6F7E7E5D5D",
"e  c #6A6A72727777",
"r  c #23233D3D8282",
"t  c #2A2A41418787",
"y  c #292944448585",
"u  c #2C2C43438585",
"i  c #2D2D44448686",
"p  c #2F2F40408888",
"a  c #2E2E48488989",
"s  c #2F2F49498989",
"d  c #2E2E4B4B8E8E",
"f  c #303042428888",
"g  c #36364E4E8787",
"h  c #353548488B8B",
"j  c #34344D4D8D8D",
"k  c #34344E4E8D8D",
"l  c #37374E4E8C8C",
"z  c #3B3B4E4E8686",
"x  c #39394B4B8F8F",
"c  c #3A3A4E4E8B8B",
"v  c #3B3B4D4D8D8D",
"b  c #3B3B4F4F8D8D",
"n  c #36364C4C9090",
"m  c #3B3B52528989",
"M  c #3D3D54548F8F",
"N  c #3A3A52529090",
"B  c #3C3C52529191",
"V  c #3F3F55559292",
"C  c #3F3F57579393",
"Z  c #3F3F55559494",
"A  c #414154548383",
"S  c #474759598787",
"D  c #4C4C5E5E8B8B",
"F  c #404057579393",
"G  c #404058589393",
"H  c #424259599393",
"J  c #424258589595",
"K  c #44445A5A9595",
"L  c #464659599797",
"P  c #44445C5C9797",
"I  c #45455C5C9797",
"U  c #46465E5E9696",
"Y  c #41415C5C9999",
"T  c #45455B5B9898",
"R  c #48485C5C9595",
"E  c #49495F5F9898",
"W  c #494960609A9A",
"Q  c #494960609B9B",
"!  c #4B4B60609999",
"~  c #4E4E64649B9B",
"^  c #4F4F64649D9D",
"/  c #525261619696",
"(  c #505065659C9C",
")  c #545469699E9E",
"_  c #53536868A3A3",
"`  c #54546969A0A0",
"'  c #58586D6DA2A2",
"]  c #5D5D7272A4A4",
"[  c #67676F6F9B9B",
"{  c #7E7E70709797",
"}  c #7F7F74749B9B",
"|  c #61617575A7A7",
" . c #61617474A9A9",
".. c #65657777A8A8",
"X. c #64647A7AA9A9",
"o. c #66667A7AAAAA",
"O. c #6D6D7B7BA0A0",
"+. c #6D6D7A7AA2A2",
"@. c #6B6B7C7CACAC",
"#. c #6A6A7E7EADAD",
"$. c #6F6F7F7FAEAE",
"%. c #737381815959",
"&. c #777784845E5E",
"*. c #7C7C9292BABA",
"=. c #7F7F9595BCBC",
"-. c #B5B571717F7F",
";. c #CBCB32322E2E",
":. c #C3C333333939",
">. c #D1D142423D3D",
",. c #C0C065656B6B",
"<. c #C2C269696F6F",
"1. c #E0E077777B7B",
"2. c #8D8D7F7FA1A1",
"3. c #ACAC9C9C6E6E",
"4. c #B0B099997878",
"5. c #B2B29D9D7F7F",
"6. c #B7B7A1A16E6E",
"7. c #CECE96966D6D",
"8. c #C0C0A0A06565",
"9. c #CCCCA3A37373",
"0. c #CACAACAC7272",
"q. c #8B8B8E8EB2B2",
"w. c #9C9C9797B4B4",
"e. c #9797AAAACBCB",
"r. c #BFBFCACADADA",
"t. c #C3C38E8E9E9E",
"y. c #DEDE86868B8B",
"u. c #C0C09090A1A1",
"i. c #D3D39797A0A0",
"p. c #D7D7BFBF9595",
"a. c #CBCBACACB5B5",
"s. c #D8D8A9A9B3B3",
"d. c #D0D0B4B4BCBC",
"f. c #D9D9B5B5BEBE",
"g. c #DADAB5B5BEBE",
"h. c #E4E480808484",
"j. c #E8E88A8A8C8C",
"k. c #E0E08E8E9393",
"l. c #E0E093939898",
"z. c #EAEA92929393",
"x. c #E6E69F9FA4A4",
"c. c #F1F1B3B3B4B4",
"v. c #F1F1B6B6B6B6",
"b. c #DADABFBFCACA",
"n. c #C1C1CBCBDBDB",
"m. c #C3C3CDCDDDDD",
"M. c #C5C5CFCFDEDE",
"N. c #DFDFC2C2CACA",
"B. c #E2E2C1C1C8C8",
"V. c #E4E4C9C9D1D1",
"C. c #E4E4D3D3DCDC",
"Z. c #E2E2D9D9E2E2",
"A. c None",
/* pixels */
"A.A.A.A.A.A.A.A.A.A.A.A.A.A.A.A.",
"A.A.A.A.A.A.A.A.A.A.A.A.A.A.A.A.",
"A.A.A.A.A.A.A.A.A.A.A.A.A.A.A.A.",
"-.2., 4 5 > 6 @ ; = & % @ + O o ",
"< N.Z.g.s.b.C.O.@.o.| O.p.` ^ X ",
":.x.z.h.1.j.y.D / J T &.%.d E   ",
"7 B.c.k.l.v.i.S U M >.7.9.;.K   ",
"[ V.w.u.t.e.g.A M n s.,.-.a.Z   ",
"3 q._ } { T X.2 v f w q.*.q N   ",
": *.^ W T C m h h i M.M.r.r.l   ",
"= o.W T C N k a r 4.0.0 9 6.t.  ",
"= o.T Z N l a y r i e 6.3.8 m   ",
"& | ] ' ) ( ! W H V v m 2 i i   ",
"% @ @ O o X                     ",
"A.A.A.A.A.A.A.A.A.A.A.A.A.A.A.A.",
"A.A.A.A.A.A.A.A.A.A.A.A.A.A.A.A."
};
