/* XPM */
static const char *KZ_xpm[] = {
/* columns rows colors chars-per-pixel */
"16 16 163 2",
"   c black",
".  c #00007F7FDDDD",
"X  c #00008181DDDD",
"o  c #00008383DFDF",
"O  c #00008585DFDF",
"+  c #00008787DDDD",
"@  c #00008787DFDF",
"#  c #00008585E1E1",
"$  c #00008787E3E3",
"%  c #00008989E3E3",
"&  c #00008B8BE5E5",
"*  c #00008F8FE7E7",
"=  c #00009595E7E7",
"-  c #00009393E9E9",
";  c #00009797E9E9",
":  c #00009797EBEB",
">  c #00009D9DEBEB",
",  c #00009D9DEDED",
"<  c #0000A1A1EFEF",
"1  c #0000A3A3EDED",
"2  c #0000A7A7EFEF",
"3  c #0000ABABF1F1",
"4  c #0000AFAFF3F3",
"5  c #0000ADADF5F5",
"6  c #0000B1B1F7F7",
"7  c #0000B3B3F9F9",
"8  c #0000B5B5F9F9",
"9  c #0000B5B5FBFB",
"0  c #0000B9B9FDFD",
"q  c #0000BBBBFDFD",
"w  c #0000BDBDFDFD",
"e  c #0000BFBFFDFD",
"r  c #0303BFBFFFFF",
"t  c #0909C3C3FFFF",
"y  c #0F0FC3C3FDFD",
"u  c #1313C3C3FFFF",
"i  c #3838C2C2F1F1",
"p  c #3B3BC6C6F2F2",
"a  c #3C3CC4C4F1F1",
"s  c #3D3DC4C4F2F2",
"d  c #7878C7C7B2B2",
"f  c #4141C6C6F2F2",
"g  c #4545C8C8F3F3",
"h  c #4646C8C8F3F3",
"j  c #4A4ACACAF4F4",
"k  c #4B4BCACAF4F4",
"l  c #4F4FCCCCF5F5",
"z  c #5E5ECECEE7E7",
"x  c #5353CACAF2F2",
"c  c #5050CDCDF5F5",
"v  c #5555CACAF2F2",
"b  c #5656CBCBF2F2",
"n  c #5454CECEF6F6",
"m  c #5555CECEF6F6",
"M  c #5555CFCFF7F7",
"N  c #5858CCCCF3F3",
"B  c #5959CCCCF3F3",
"V  c #5B5BCDCDF3F3",
"C  c #5C5CCDCDF4F4",
"Z  c #5E5ECFCFF4F4",
"A  c #5353D0D0F7F7",
"S  c #5959D0D0F7F7",
"D  c #5B5BD1D1F8F8",
"F  c #5C5CD2D2F8F8",
"G  c #5F5FD3D3F9F9",
"H  c #7272CBCBC9C9",
"J  c #7C7CD1D1D0D0",
"K  c #7E7ED3D3D4D4",
"L  c #6161CDCDE1E1",
"P  c #6060CFCFF5F5",
"I  c #6F6FD0D0E5E5",
"U  c #6464D2D2F5F5",
"Y  c #6262D5D5F9F9",
"T  c #6464D4D4FAFA",
"R  c #6464D6D6FAFA",
"E  c #6868D3D3F6F6",
"W  c #6868D3D3F7F7",
"Q  c #6868D4D4F1F1",
"!  c #6C6CD5D5F7F7",
"~  c #6969D6D6FBFB",
"^  c #6B6BD8D8FBFB",
"/  c #6D6DDADAFCFC",
"(  c #6F6FDADAFCFC",
")  c #7171D2D2E7E7",
"_  c #7575D6D6ECEC",
"`  c #7F7FD6D6E0E0",
"'  c #7C7CD7D7E4E4",
"]  c #7070D7D7F7F7",
"[  c #7171D7D7F8F8",
"{  c #7171D8D8F7F7",
"}  c #7575D8D8F3F3",
"|  c #7373DADAFBFB",
" . c #7272DADAFCFC",
".. c #7373DBDBFDFD",
"X. c #7575D8D8F8F8",
"o. c #7575D8D8F9F9",
"O. c #7474DADAF8F8",
"+. c #7575DBDBFDFD",
"@. c #7676DBDBFDFD",
"#. c #7575DCDCFEFE",
"$. c #7979D9D9F9F9",
"%. c #7979DADAF9F9",
"&. c #7979DCDCFEFE",
"*. c #7A7ADCDCFEFE",
"=. c #7A7ADFDFFEFE",
"-. c #7C7CDBDBFAFA",
";. c #7F7FDDDDFBFB",
":. c #7C7CDEDEFEFE",
">. c #8787A9A90303",
",. c #A2A2C8C87F7F",
"<. c #B5B5CACA6D6D",
"1. c #B2B2CACA7171",
"2. c #DFDFBFBF0000",
"3. c #DFDFCACA3838",
"4. c #F8F8D1D13636",
"5. c #F8F8D3D33636",
"6. c #F9F9D5D53C3C",
"7. c #D3D3CECE5656",
"8. c #D2D2D1D15F5F",
"9. c #C5C5D0D06D6D",
"0. c #D0D0D4D46E6E",
"q. c #E7E7CFCF4646",
"w. c #EAEAD3D35252",
"e. c #ECECD6D65353",
"r. c #FAFAD5D54343",
"t. c #EBEBDDDD7575",
"y. c #EDEDDEDE7A7A",
"u. c #8B8BCBCBACAC",
"i. c #8282CDCDBBBB",
"p. c #9797CFCFA9A9",
"a. c #9F9FD2D2A7A7",
"s. c #A2A2CCCC8D8D",
"d. c #AAAACCCC8181",
"f. c #A8A8CDCD8B8B",
"g. c #AFAFD1D19191",
"h. c #BCBCD3D38888",
"j. c #BEBED7D79494",
"k. c #A3A3D5D5AEAE",
"l. c #ABABD5D5A5A5",
"z. c #8D8DD5D5C9C9",
"x. c #8E8ED8D8D5D5",
"c. c #8383D8D8E1E1",
"v. c #8787DDDDF7F7",
"b. c #8E8EDFDFF4F4",
"n. c #8A8AE0E0FCFC",
"m. c #8C8CE2E2FEFE",
"M. c #8F8FE2E2FEFE",
"N. c #9191E3E3FEFE",
"B. c #9494E4E4FEFE",
"V. c #C2C2D7D78F8F",
"C. c #C6C6D8D88A8A",
"Z. c #CACADBDB9191",
"A. c #CCCCDBDB9696",
"S. c #CECEDEDE9797",
"D. c #D3D3E0E09F9F",
"F. c #D4D4E1E1A2A2",
"G. c #D8D8E4E4A9A9",
"H. c #D8D8E4E4AAAA",
"J. c #D8D8E4E4ABAB",
"K. c #EFEFE2E28484",
"L. c #F0F0E3E38787",
"P. c #F2F2E4E48D8D",
"I. c None",
/* pixels */
"I.I.I.I.I.I.I.I.I.I.I.I.I.I.I.I.",
"I.I.I.I.I.I.I.I.I.I.I.I.I.I.I.I.",
"I.I.I.I.I.I.I.I.I.I.I.I.I.I.I.I.",
"r 2.t u t t 0 0 9 7 6 5 4 3 2 < ",
"r P.H.B.N.M.m.n.b.v.:.-.$.O.] > ",
"r H.=.:.@.#. .x.V.l.Q G S m ! ; ",
"r H.S.@.#.O.o.V.r.w.a.c m c E = ",
"r K.#.#.O.} ' e.6.5.8.z l k U * ",
"r K.Z.( c.c.k.h.5.q.f.u.h h P % ",
"0 F.( ^ _ z.0.J p.i.H 1.h s C $ ",
"9 D.C.~ Y K g.9.7.s.3.d.f s B O ",
"9 y.Y T G D M L d.1.d p s i b o ",
"6 t.A.$.O.] ! W ) ) Z B B b x . ",
"5 >.3 2 < , ; - * % % $ O + . o ",
"I.I.I.I.I.I.I.I.I.I.I.I.I.I.I.I.",
"I.I.I.I.I.I.I.I.I.I.I.I.I.I.I.I."
};
