/* XPM */
static char *KZ_xpm[] = {
/* columns rows colors chars-per-pixel */
"16 16 124 2",
"   c #24F7504860C0",
".  c #2BA25DB76F8D",
"X  c #234C5EBD7546",
"o  c #23E262F77B0E",
"O  c #23D4634B7BA2",
"+  c #23A063AE7BE5",
"@  c #245162F67AD8",
"#  c #245B63F07B2F",
"$  c #45A45CB754DC",
"%  c #23BB6D798996",
"&  c #25BE734E911F",
"*  c #25E073E491CF",
"=  c #25527478928F",
"-  c #7F5D9DF77F6A",
";  c #3DE89C7DC004",
":  c #2B43A085CCE6",
">  c #3AEB9BE6C0CE",
",  c #2F87A726D6BD",
"<  c #2BD0AB8BDCDB",
"1  c #2E27AA7DD931",
"2  c #2DDFAB10DA6C",
"3  c #2CE7AB53DB99",
"4  c #2CDFABBEDC39",
"5  c #2E23ABA7DB1B",
"6  c #2E94AB66DA59",
"7  c #3B0BA275C583",
"8  c #332BA9C1D35D",
"9  c #3771AE23DC56",
"0  c #3D18AAEFD38A",
"q  c #3C7AAB27D45D",
"w  c #3EECADB0D2A1",
"e  c #4008ADABD192",
"r  c #3549B0EDE07C",
"t  c #3A95B6A0DD6C",
"y  c #2FFCB5B3E9CE",
"u  c #300CB6ABE9DC",
"i  c #3008B697EA02",
"p  c #2E69B733ECBA",
"a  c #2F8EB749EB13",
"s  c #33D1B1BCE474",
"d  c #3296B49AE5F8",
"f  c #3120B5AEE7E8",
"g  c #311BB5C5E7FC",
"h  c #3171B5CEE787",
"j  c #3164B663E8BA",
"k  c #3257B51DE5FE",
"l  c #337EB542E603",
"z  c #32F6B626E7E4",
"x  c #3309B655E7FF",
"c  c #32D8B6CBE871",
"v  c #333AB6F7E8CF",
"b  c #304DB66FEA11",
"n  c #3196B713E997",
"m  c #31D2B721E9F5",
"M  c #587383389B4D",
"N  c #5CEB87E2997E",
"B  c #45E99072B655",
"V  c #4110936BAE2A",
"C  c #4EA4919CA8C2",
"Z  c #4B6F90F4B739",
"A  c #580A9BD1AAEF",
"S  c #45E5A0A4B6D1",
"D  c #4BC9AA43BF04",
"F  c #51E6A536B70F",
"G  c #6DC7883F8705",
"H  c #68E397268FD8",
"J  c #6E1395178982",
"K  c #648293169308",
"L  c #608897C898D6",
"P  c #6FFA99A09781",
"I  c #73F99A55852F",
"U  c #7D1E9DFC88C6",
"Y  c #72B39C6D922E",
"T  c #74B19AFE9148",
"R  c #76419EB89130",
"E  c #60CBA10EA03D",
"W  c #6302AEBFA5A5",
"Q  c #445E9C38C542",
"!  c #4654A0E5C0CC",
"~  c #4238A40ECA8B",
"^  c #4422A573C9DC",
"/  c #463CA93EC7AE",
"(  c #4798AE2FC87C",
")  c #42BBAE8ACEEE",
"_  c #4E8FADDAC225",
"`  c #408FAD29D247",
"'  c #618FBF69DE20",
"]  c #6010C4A4EB03",
"[  c #687FC1EEDF78",
"{  c #6A62C39EDEF0",
"}  c #69A7C439E04B",
"|  c #6B95C2CBDD51",
" . c #6BF3C597DDD4",
".. c #6CF0C1DEDB9C",
"X. c #776BC559DC1D",
"o. c #6A3BCB24EFCC",
"O. c #6A06CB35F044",
"+. c #6AECCA45EEDA",
"@. c #6ADBCA95EF17",
"#. c #6B6DCA96EF16",
"$. c #6B3FCB6EEE51",
"%. c #917F9E576CCB",
"&. c #9C34AA7E65E7",
"*. c #B801BB835017",
"=. c #B1F2B3C150D0",
"-. c #E474DEBF2DBD",
";. c #E14AD9EC30BB",
":. c #FFFFF9C41740",
">. c #C8A7C9A946E8",
",. c #8659AB0082E1",
"<. c #A32DBFA8A977",
"1. c #8D9FD38CE831",
"2. c #BCE6E7CEF809",
"3. c #D1C5D60BD78E",
"4. c #D112D679D88A",
"5. c #D399D5DED5C5",
"6. c #D314D8E6DB21",
"7. c #D5C2E125E558",
"8. c #D313EFEAFAD6",
"9. c #D943EF14F6C9",
"0. c #D677F155FB72",
"q. c #DF0CF314F923",
"w. c #E4F5ECE6E8DA",
"e. c gray100",
/* pixels */
"e.e.e.e.e.e.e.e.e.e.e.e.e.e.e.e.",
"e.e.e.e.e.e.e.e.e.e.e.e.e.e.e.e.",
"q.w.9.0.0.0.0.0.0.0.0.9.0.0.8.2.",
"1.<.X.O.$.o.o.$.o.o.o.o.o.o.] > ",
"{ R ` i i l ^ Z Q d i v l i 8 = ",
"{ T 0 i i 9 - =.%.^ m l i l 3 = ",
"{ P q i l / >.:.-.A l i l i 3 & ",
" .,.) p D L &.-.=.K L d i l 3 & ",
"[ Y w p ( I M J N H W i i i 8 & ",
"..U ` p i _ S C B F t p i i 5 = ",
"' J 7 5 5 5 8 B ; , 3 8 3 5 : % ",
"V $ . + + + O O # # # # # @ X   ",
"7.5.5.4.4.4.4.4.4.4.3.3.3.3.3.6.",
"e.e.e.e.e.e.e.e.e.e.e.e.e.e.e.e.",
"e.e.e.e.e.e.e.e.e.e.e.e.e.e.e.e.",
"e.e.e.e.e.e.e.e.e.e.e.e.e.e.e.e."
};
