/* XPM */
static char *LI_png[] = {
/* columns rows colors chars-per-pixel */
"16 16 80 1",
"  c #11D11BD04D03",
". c #10D11C374D26",
"X c #0EE81EFA6C1B",
"o c #0D081F436D1A",
"O c #0FA21F9D6D2B",
"+ c #0D591F2275B7",
"@ c #0FCC21187381",
"# c #0FDD213F73EB",
"$ c #0C73203975A3",
"% c #0E0321577499",
"& c #0E11216E74CB",
"* c #1E622DBF6AC5",
"= c #111C21DD75E6",
"- c #1271230374B5",
"; c #388D3E355673",
": c #23402EA8682E",
"> c #22BB2F1D6BA1",
", c #57D414E914E9",
"< c #56DA10F52433",
"1 c #69090D4F0D4F",
"2 c #6E100D620D62",
"3 c #756D0DA30DA3",
"4 c #7A4B08390839",
"5 c #7C9D0CC72BDB",
"6 c #6FF067C339AC",
"7 c #7AFC747436D8",
"8 c #698F65634410",
"9 c #6CF56B575115",
"0 c #72D16F70466B",
"q c #46DF53A99277",
"w c #4AF658989119",
"e c #51F45CD38D2C",
"r c #524E5E749B5E",
"t c #53455F329A50",
"y c #53975F5C990C",
"u c #53D75FBC9AC2",
"i c #5C5863BF8634",
"p c #5C8C65188FCA",
"a c #58F564EB9F8C",
"s c #72237C57AD42",
"d c #814908EB08EB",
"f c #846608D208A7",
"g c #84380CEC2EFB",
"h c #85240D992ED4",
"j c #859A0DA52F09",
"k c #8A86117C2A6E",
"l c #8FEB1C7B3505",
"z c #90AB15A12643",
"x c #A45C1A361A36",
"c c #B4C300000000",
"v c #C02600000000",
"b c #A08F44625EB6",
"n c #C12500000000",
"m c #C53700000000",
"M c #C5F408970897",
"N c #CD4600000000",
"B c #CDFD00000000",
"V c #CF520C470C47",
"C c #D15900000000",
"Z c #D2AA00000000",
"A c #D37C00000000",
"S c #D3F40BB20BA5",
"D c #D5F030963096",
"F c #D8313AB43AB4",
"G c #DCE839FD397C",
"H c #9BE48D3D22B6",
"J c #BD0EA5CC13CC",
"K c #B5C0A32B25BA",
"L c #C8FFAEFA0DEE",
"P c #B229B7A3D25B",
"I c #D76ACF32CF32",
"U c #D831CF2CCF2C",
"Y c #D9EED10DD10D",
"T c #CBDECF7FE163",
"R c #D02BD387E3E0",
"E c #D034D396E3F4",
"W c #D209D54CE536",
"Q c #D76EDA43E817",
"! c #E36FD0E1D0E1",
"~ c gray100",
/* pixels */
"~~~~~~~~~~~~~~~~",
"~~~~~~~~~~~~~~~~",
"QWEEEEEEREEEEWTP",
"sapyryyyyyyryrq:",
"e968:=-----#==@ ",
"iKLJ;+@@@@@@$-X ",
"w0H7*$$-#%@@@@X.",
"blzkgggghhgggh5<",
"GSABABABBBABAAmf",
"FSBBBBBBBBBBBBnf",
"DMnnnnnnnnnnnnc4",
"x32222222222221,",
"!IIIIIIIIIIIYIIY",
"~~~~~~~~~~~~~~~~",
"~~~~~~~~~~~~~~~~",
"~~~~~~~~~~~~~~~~"
};
