/* XPM */
static const char *LI_xpm[] = {
/* columns rows colors chars-per-pixel */
"16 16 162 2",
"   c black",
".  c #000000000B0B",
"X  c #000000006F6F",
"o  c #000000007171",
"O  c #000000007575",
"+  c #000000007979",
"@  c #000000007F7F",
"#  c #29290B0B6161",
"$  c #000000008383",
"%  c #000000008787",
"&  c #000000008B8B",
"*  c #000000009191",
"=  c #000000009595",
"-  c #000000009999",
";  c #000003039B9B",
":  c #000009099D9D",
">  c #00000F0FA1A1",
",  c #00001515A5A5",
"<  c #00001919A7A7",
"1  c #00001B1BA7A7",
"2  c #00001D1DA7A7",
"3  c #00001919A9A9",
"4  c #00001D1DA9A9",
"5  c #27275A5ABBBB",
"6  c #2C2C5E5EBDBD",
"7  c #30305E5EBBBB",
"8  c #35356262BDBD",
"9  c #36366262BDBD",
"0  c #3A3A6666BFBF",
"q  c #32326363C0C0",
"w  c #37376666C2C2",
"e  c #3B3B6767C0C0",
"r  c #3F3F6B6BC2C2",
"t  c #3D3D6A6AC4C4",
"y  c #61614A4A8686",
"u  c #65654E4E8989",
"i  c #696952528C8C",
"p  c #6C6C57579090",
"a  c #70705B5B9393",
"s  c #757560609696",
"d  c #777764649797",
"f  c #797965659999",
"g  c #7D7D69699B9B",
"h  c #40406B6BC2C2",
"j  c #41416F6FC6C6",
"k  c #45456F6FC4C4",
"l  c #46467171C4C4",
"z  c #46467373C8C8",
"x  c #4A4A7272C6C6",
"c  c #4A4A7373C7C7",
"v  c #4D4D7474C4C4",
"b  c #4C4C7777CBCB",
"n  c #4F4F7676C9C9",
"m  c #51517878C6C6",
"M  c #51517B7BCBCB",
"N  c #54547B7BCBCB",
"B  c #57577C7CC8C8",
"V  c #58587E7EC6C6",
"C  c #5B5B7F7FCACA",
"Z  c #5C5C8181C8C8",
"A  c #5D5D8484CFCF",
"S  c #60608383CCCC",
"D  c #64648787CECE",
"F  c #68688A8AD0D0",
"G  c #6C6C8E8ED2D2",
"H  c #70709090D3D3",
"J  c #74749494D4D4",
"K  c #7A7A9B9BDADA",
"L  c #7F7F9D9DD9D9",
"P  c #B9B900000000",
"I  c #BBBB00000000",
"U  c #BDBD00000000",
"Y  c #BFBF00000000",
"T  c #C1C100000000",
"R  c #C3C300000000",
"E  c #C5C500000000",
"W  c #C9C900000000",
"Q  c #CBCB00000000",
"!  c #CFCF00000000",
"~  c #D1D100000000",
"^  c #D5D500000000",
"/  c #D7D700000000",
"(  c #DBDB00000000",
")  c #DDDD00000000",
"_  c #DFDF00000000",
"`  c #DEDE26260B0B",
"'  c #E9E900000000",
"]  c #E0E029290E0E",
"[  c #E0E02A2A1010",
"{  c #E1E12D2D1313",
"}  c #E1E12E2E1414",
"|  c #EAEA2E2E1414",
" . c #E2E232321919",
".. c #E2E233331919",
"X. c #E3E337371E1E",
"o. c #E3E337371F1F",
"O. c #ECEC32321919",
"+. c #EDED37371F1F",
"@. c #E4E43C3C2323",
"#. c #E4E43D3D2424",
"$. c #EEEE3C3C2424",
"%. c #E2E243432C2C",
"&. c #E2E246462F2F",
"*. c #E6E641412929",
"=. c #E6E642422A2A",
"-. c #E7E746462E2E",
";. c #E7E747472F2F",
":. c #EFEF41412A2A",
">. c #E3E349493232",
",. c #E5E54B4B3535",
"<. c #E6E64F4F3939",
"1. c #E9E94B4B3434",
"2. c #E9E94C4C3434",
"3. c #EDED4C4C3636",
"4. c #E6E653533D3D",
"5. c #EAEA50503A3A",
"6. c #EBEB55553F3F",
"7. c #ECEC56563F3F",
"8. c #F0F046462F2F",
"9. c #F1F14B4B3535",
"0. c #F2F250503A3A",
"q. c #E8E857574242",
"w. c #E8E85B5B4646",
"e. c #EDED5A5A4444",
"r. c #EDED5A5A4545",
"t. c #EEEE5F5F4949",
"y. c #F3F355554040",
"u. c #F4F45A5A4545",
"i. c #F5F55F5F4949",
"p. c #EAEA60604B4B",
"a. c #EBEB63635050",
"s. c #EDED68685555",
"d. c #EDED6C6C5858",
"f. c #EEEE70705D5D",
"g. c #F6F662624F4F",
"h. c #F0F074746262",
"j. c #F1F178786666",
"k. c #F2F27C7C6A6A",
"l. c #F6F67F7F6F6F",
"z. c #80806D6D9F9F",
"x. c #83837171A4A4",
"c. c #86867575A7A7",
"v. c #8A8A7979A8A8",
"b. c #F5F5DBDB5D5D",
"n. c #FBFBDFDF5F5F",
"m. c #E0E0CFCF6E6E",
"M. c #E9E9D6D67575",
"N. c #F4F4DCDC6767",
"B. c #F0F0DADA6D6D",
"V. c #F9F9DEDE6161",
"C. c #FBFBE0E06363",
"Z. c #8F8F9E9EA1A1",
"A. c #9F9F9191B7B7",
"S. c #A1A1ABABA2A2",
"D. c #81819E9ED9D9",
"F. c #81819E9EDADA",
"G. c #9494A8A8C2C2",
"H. c #9F9FB0B0C4C4",
"J. c #BEBEC1C1A7A7",
"K. c #C2C2C3C3AAAA",
"L. c #F2F2E0E08686",
"P. c None",
/* pixels */
"P.P.P.P.P.P.P.P.P.P.P.P.P.P.P.P.",
"P.P.P.P.P.P.P.P.P.P.P.P.P.P.P.P.",
"P.P.P.P.P.P.P.P.P.P.P.P.P.P.P.P.",
"2 1 2 4 3 , > : ; - = * & % $ $ ",
"1 F.H.K.L.J.G.J G G F D S Z B + ",
"1 F.M.B.N.n.m.N n c l r 0 9 M O ",
"1 L S.C.n.b.Z.n c k t 0 9 7 v X ",
"3 K A C V M b l j t w 8 6 5 l X ",
"# A.v.c.x.z.g f s a p i u y f . ",
"' l.g.i.u.y.0.3.8.8.$.+.O.| 3.~ ",
"_ k.t.e.7.5.2.-.#.#.X. . .` >.U ",
"_ j.e.7.5.1.-.*.#.X. .{ ] ` &.U ",
") h.d.d.s.a.p.w.q.4.<.,.>.&.%.I ",
") / / ~ ! ! Q Q E R R U U I P I ",
"P.P.P.P.P.P.P.P.P.P.P.P.P.P.P.P.",
"P.P.P.P.P.P.P.P.P.P.P.P.P.P.P.P."
};
