/* XPM */
static char *LK_png[] = {
/* columns rows colors chars-per-pixel */
"16 16 138 2",
"   c #382907770EC5",
".  c #388308600EE5",
"X  c #3A350B2B0EFD",
"o  c #3ACF0B410F1D",
"O  c #3F312C1D16A3",
"+  c #3F612C14169F",
"@  c #3FE52CD316BC",
"#  c #403A2D5216BB",
"$  c #3A8B5BD01B84",
"%  c #36106A751EA9",
"&  c #413713E50FDF",
"*  c #425715241017",
"=  c #45CF15B81326",
"-  c #444D16C51059",
";  c #49451D341059",
":  c #4B5A1F981062",
">  c #4C361F3D11F3",
",  c #4AA81E1D1424",
"<  c #4C091EAA1449",
"1  c #4C0C235611B3",
"2  c #4E7221861222",
"3  c #4F4221AC1463",
"4  c #4EA726C911EA",
"5  c #44DD34131769",
"6  c #44D0365A179B",
"7  c #4FFB3A701575",
"8  c #52F828B41319",
"9  c #53BF2864149D",
"0  c #574329AB1246",
"q  c #567E2A95132E",
"w  c #56F32C411564",
"e  c #58632CC512A7",
"r  c #50563AC21579",
"t  c #519A3C0715BC",
"y  c #5C2437311532",
"u  c #60033B8913DD",
"i  c #706B2DFD121F",
"p  c #61103C7C13E5",
"a  c #61AF3D6514E9",
"s  c #7E3223290FF5",
"d  c #4C7445601DBD",
"f  c #576D475415A8",
"g  c #54BB4A851993",
"h  c #5B27489515D9",
"j  c #62D640BE13ED",
"k  c #647D41AB148D",
"l  c #668A42251548",
"z  c #663F453B13FD",
"x  c #69AD481816E5",
"c  c #6CDB46D6147E",
"v  c #6A04492F1661",
"b  c #6BD24F4F13E9",
"n  c #6D4E498C177D",
"m  c #6FAB52B615C4",
"M  c #757953851662",
"N  c #778D5BB01930",
"B  c #7BCA51A216AE",
"V  c #7BD35B191711",
"C  c #7D585F3117D8",
"Z  c #7BFE5DAA1851",
"A  c #7EF2665316A1",
"S  c #315C90941ABA",
"D  c #34659A861EA7",
"F  c #362A9AA41CBF",
"G  c #36469AEE1CC4",
"H  c #230FAA6627B4",
"J  c #2707B3E72E04",
"K  c #2911B3D22C26",
"L  c #291EB47B2C60",
"P  c #BC3A1E2B051B",
"I  c #819160031787",
"U  c #85A265CE1727",
"Y  c #84F069791981",
"T  c #85196A761A19",
"R  c #87696FC219DD",
"E  c #8F9C77C91A6D",
"W  c #921272C717CF",
"Q  c #94617F681BBE",
"!  c #8D546DFB549F",
"~  c #8DC66E6C54C8",
"^  c #8E026EA1549F",
"/  c #8ED86FDC54D1",
"(  c #95987AAE4B09",
")  c #9118724A55A4",
"_  c #97467AB855D0",
"`  c #DF39055E0018",
"'  c #C81B216C079C",
"]  c #C86E225C0573",
"[  c #C92C2277057A",
"{  c #ED2606E6001E",
"}  c #EE0106EF001E",
"|  c #ED34071E0255",
" . c #D46A6FA81012",
".. c #E1B37767138C",
"X. c #E41A7A5E117B",
"o. c #E42A7A7D1181",
"O. c #E1337BE64F58",
"+. c #F4CF6B724B89",
"@. c #987E845C1B7D",
"#. c #9D328A6D1D7D",
"$. c #93D5810929C6",
"%. c #9950AE4E305F",
"&. c #A6D698C21F30",
"*. c #AE9D986F1AE9",
"=. c #B318A2021C42",
"-. c #99B5BDA65D2A",
";. c #AEFE9BA558F7",
":. c #946ACA0F66E0",
">. c #AA15D93C4B31",
",. c #ACBCDB7F5452",
"<. c #ADC3DBA553B6",
"1. c #C75CB9CA1D96",
"2. c #C7DFB8F71DD6",
"3. c #EF0EAF105616",
"4. c #DC0BD2681F69",
"5. c #E764E0B4216A",
"6. c #EE07E4842025",
"7. c #F34DED442092",
"8. c #D5C3E6727CC2",
"9. c #FC86F913B755",
"0. c #D95CD8C0D075",
"q. c #DA25D8AAD094",
"w. c #D98DD8F4D078",
"e. c #DA03D9B5D091",
"r. c #DA66DA63D0A8",
"t. c #DB73D970D095",
"y. c #DC18DBD5D27A",
"u. c #E857E6EAD3D5",
"i. c #FB25F7D0CED8",
"p. c #FBD2F91FD2EB",
"a. c #FC9DFA1DD32E",
"s. c #FD0DFA5ED305",
"d. c #FF9CFA99D2FF",
"f. c #FFB8FBB2D374",
"g. c #FF88FC3FD325",
"h. c #FFFFFBC0D567",
"j. c #FFF5FD95DA49",
"k. c gray100",
/* pixels */
"k.k.k.k.k.k.k.k.k.k.k.k.k.k.k.k.",
"k.k.k.k.k.k.k.k.k.k.k.k.k.k.k.k.",
"j.h.f.f.f.g.p.p.f.p.f.p.f.p.i.9.",
"8.:.-.O.+.3.;._ ! ^ ! ! ! ) ( $.",
",.J F ' | ..Y n , = 3 9 0 , m h ",
"<.K F ] | X.j e V E #.N x y * 7 ",
"<.K F ] | X.u 0 C Q &.V A l X 7 ",
"<.K F ] | X.u 0 Y =.5.6.7.W . 7 ",
"<.K F ] | X.p 2 @.2.1.*.4.U . t ",
"<.L F ] | X.j 8 a c M 2 R v * t ",
">.H S P `  .A z o > > o 4 1 m f ",
"%.% $ i s B g 5 @ @ O @ @ @ 6 d ",
"u.e.e.e.e.e.e.e.e.e.e.e.e.e.e.y.",
"k.k.k.k.k.k.k.k.k.k.k.k.k.k.k.k.",
"k.k.k.k.k.k.k.k.k.k.k.k.k.k.k.k.",
"k.k.k.k.k.k.k.k.k.k.k.k.k.k.k.k."
};
