/* XPM */
static char *MC_xpm[] = {
/* columns rows colors chars-per-pixel */
"16 16 64 1",
"  c #688668866886",
". c #7FFF7FFF7FFF",
"X c #90E00A2D07DF",
"o c #91150D9208DF",
"O c #928F0CEB087A",
"+ c #95E23FAF3CE6",
"@ c #C0CE1C9916CC",
"# c #D8D201EC0000",
"$ c #D928074D0000",
"% c #DA87080100C4",
"& c #E76B01990000",
"* c #E77C02370000",
"= c #E84D023C0000",
"- c #E7E407DF0000",
"; c #E84F07F50000",
": c #E7ED09D201C7",
"> c #E80B0A6B0265",
", c #E8650E450A0B",
"< c #E8C513CE0C0C",
"1 c #E93F161E0E65",
"2 c #ED063BCF3724",
"3 c #EB03409C3A70",
"4 c #ED5040463A03",
"5 c #ED85411E3AE4",
"6 c #EED94CDF46E0",
"7 c #EEE14D4C4752",
"8 c #EEE14D4D4753",
"9 c #EF164DE347ED",
"0 c #EFAA55574FAA",
"q c #E0F9576B5301",
"w c #F01E5D06583D",
"e c #F0295D6B58A6",
"r c #F1045DC458F9",
"t c #F0C16531609F",
"y c #F1BF6DDA6926",
"u c #F3C482547EAB",
"i c #857485748574",
"p c #860786078607",
"a c #8F5D8F5D8F5D",
"s c #96E896E896E8",
"d c #9F079D1D9D21",
"f c #9FD3A004A004",
"g c #F809AFA1ACE9",
"h c #C6CFC6CFC6CF",
"j c #D97AD97AD97A",
"k c #DA6DDA6DDA6D",
"l c #DC27DC27DC27",
"z c #FAD6CA0AC83A",
"x c #FB61CE66CCB5",
"c c #FB64CE84CCD5",
"v c #FB81D07CCEEF",
"b c #FBEED5D5D49D",
"n c #E21EE21EE21E",
"m c #E81DE81DE81D",
"M c #EFA3ECADECB3",
"N c #F0C1F100F100",
"B c #F139F139F139",
"V c #F212F212F212",
"C c #F576F576F576",
"Z c #FFD3FCABFCB2",
"A c #FE31FE31FE31",
"S c #FFCDFD7AFD7E",
"D c #FFFFFD92FD99",
"F c gray100",
/* pixels */
"FFFFFFFFFFFFFFFF",
"FFFFFFFFFFFFFFFF",
"bvxxxxxxxxxxxxzg",
"y08888888888883@",
"51::::::>>>:::%O",
"5<---:::---;:;$O",
"2,&&&&&&&&;&&=#X",
"utwwwwwwwwwwwwq+",
"FZZFZZZFFZZZZFMd",
"FFFFFFFFFFFFFFNd",
"ZCNNMNMNNNNNNNns",
"happpppppppppp. ",
"mkjjjjjjjkkkkkkk",
"FFFFFFFFFFFFFFFF",
"FFFFFFFFFFFFFFFF",
"FFFFFFFFFFFFFFFF"
};
