/* XPM */
static const char *MC_xpm[] = {
/* columns rows colors chars-per-pixel */
"16 16 108 2",
"   c black",
".  c #E5E500000000",
"X  c #E7E700000000",
"o  c #E9E900000000",
"O  c #EBEB00000000",
"+  c #EDED00000000",
"@  c #EFEF00000000",
"#  c #F1F100000000",
"$  c #F3F300000000",
"%  c #F5F500000000",
"&  c #F7F700000000",
"*  c #F9F900000000",
"=  c #FBFB00000000",
"-  c #FDFD00000000",
";  c red",
":  c #FDFD05050505",
">  c #F4F420202020",
",  c #F5F525252525",
"<  c #F5F526262626",
"1  c #F6F62B2B2B2B",
"2  c #F6F62C2C2C2C",
"3  c #F7F730303030",
"4  c #F7F731313131",
"5  c #F5F53F3F3F3F",
"6  c #F8F836363636",
"7  c #F8F837373636",
"8  c #F8F837373737",
"9  c #F9F93B3B3C3C",
"0  c #F9F93C3C3C3C",
"q  c #F9F93C3C3D3D",
"w  c #F6F644444444",
"e  c #F3F34C4C4C4C",
"r  c #F7F749494949",
"t  c #F7F74E4E4E4E",
"y  c #FAFA41414141",
"u  c #FAFA41414242",
"i  c #FAFA42424242",
"p  c #FBFB46464646",
"a  c #FBFB47474747",
"s  c #FCFC4B4B4B4B",
"d  c #FCFC4C4C4C4C",
"f  c #FDFD4F4F5050",
"g  c #F4F451515151",
"h  c #F5F555555555",
"j  c #F6F65A5A5A5A",
"k  c #F7F75E5E5E5E",
"l  c #F8F853535353",
"z  c #F9F957575757",
"x  c #FDFD51515151",
"c  c #FDFD54545454",
"v  c #FAFA5C5C5C5C",
"b  c #FEFE58585858",
"n  c #FEFE59595959",
"m  c #FEFE5C5C5C5C",
"M  c #FEFE5F5F5F5F",
"N  c #F4F466666666",
"B  c #F8F863636363",
"V  c #FBFB60606060",
"C  c #F9F967676767",
"Z  c #FCFC65656565",
"A  c #FAFA6B6B6B6B",
"S  c #FCFC69696969",
"D  c #FDFD6D6D6D6D",
"F  c #FBFB70707070",
"G  c #FDFD70707171",
"H  c #FCFC74747474",
"J  c #FEFE74747474",
"K  c #FEFE76767676",
"L  c #FEFE77777777",
"P  c #FCFC77777878",
"I  c #FDFD7A7A7A7A",
"U  c #FEFE79797979",
"Y  c #FFFF7B7B7A7A",
"T  c #FFFF7B7B7B7B",
"R  c #FEFE93939393",
"E  c #C5C5C5C5C5C5",
"W  c gray78",
"Q  c gray79",
"!  c #C9C9CBCBC9C9",
"~  c #CBCBCBCBCBCB",
"^  c gray81",
"/  c gray82",
"(  c LightGray",
")  c #D7D7D7D7D7D7",
"_  c gray85",
"`  c gray86",
"'  c #DFDFDFDFDFDF",
"]  c gray89",
"[  c gray90",
"{  c #E7E7E7E7E7E7",
"}  c #E9E9E9E9E9E9",
"|  c gray92",
" . c #F1F1F1F1F1F1",
".. c gray95",
"X. c #F2F2F2F2F3F3",
"o. c #F3F3F3F3F3F3",
"O. c #F4F4F4F4F4F4",
"+. c gray96",
"@. c #F6F6F6F6F6F6",
"#. c gray97",
"$. c #F8F8F8F8F8F8",
"%. c #F9F9F9F9F9F9",
"&. c gray98",
"*. c #FBFBFBFBFBFB",
"=. c #FBFBFCFCFBFB",
"-. c gray99",
";. c #FDFDFDFDFDFD",
":. c None",
/* pixels */
":.:.:.:.:.:.:.:.:.:.:.:.:.:.:.:.",
":.:.:.:.:.:.:.:.:.:.:.:.:.:.:.:.",
":.:.:.:.:.:.:.:.:.:.:.:.:.:.:.:.",
"; ; ; ; = ; ; ; = = & & $ $ + + ",
"; T T T K J D D S Z V m z l t O ",
"; T m m m c c s a u 5 6 4 2 r O ",
"; T m m c c s a u 9 6 4 1 < w . ",
"; K z c d s i y 9 6 3 1 < > 5 . ",
": R T P K F A C V k j h g e N . ",
"| -.-.-.%.%.%.%.#.#.O.O.O...O.! ",
"} -.*.*.*.%.%.+.@.+.O.O.....X.! ",
"{ -.%.%.%.%.%.+.+.O.O.........E ",
"[ *.%.%.*.%.#.#.+.+.+.X.......E ",
"] ] ' ` ) ) ) ( / ^ ~ ! ! E E E ",
":.:.:.:.:.:.:.:.:.:.:.:.:.:.:.:.",
":.:.:.:.:.:.:.:.:.:.:.:.:.:.:.:."
};
