/* XPM */
static const char *ME_xpm[] = {
/* columns rows colors chars-per-pixel */
"16 16 145 2",
"   c black",
".  c #5D5D3B3B6868",
"X  c #0F0F6565B1B1",
"o  c #0E0E6666B1B1",
"O  c #21219C9C7C7C",
"+  c #4242A6A66868",
"@  c #C8C803030808",
"#  c #CACA03030808",
"$  c #CBCB03030808",
"%  c #CCCC03030808",
"&  c #CDCD03030808",
"*  c #CFCF03030808",
"=  c #D0D003030909",
"-  c #D1D103030909",
";  c #D2D203030909",
":  c #D4D403030909",
">  c #D5D503030909",
",  c #D6D603030909",
"<  c #D7D703030909",
"1  c #D8D803030909",
"2  c #D9D903030909",
"3  c #DBDB03030909",
"4  c #DCDC03030909",
"5  c #DDDD03030909",
"6  c #DFDF03030909",
"7  c #E4E400000606",
"8  c #E0E003030909",
"9  c #E1E103030909",
"0  c #E3E303030909",
"q  c #E4E403030909",
"w  c #E5E504040909",
"e  c #E7E704040909",
"r  c #E8E804040909",
"t  c #EAEA04040A0A",
"y  c #EBEB04040A0A",
"u  c #ECEC04040A0A",
"i  c #EEEE04040A0A",
"p  c #EFEF04040A0A",
"a  c #F0F004040A0A",
"s  c #F1F104040A0A",
"d  c #F3F304040A0A",
"f  c #F4F404040A0A",
"g  c #F5F504040A0A",
"h  c #F6F604040A0A",
"j  c #F7F704040A0A",
"k  c #FAFA04040A0A",
"l  c #E3E324241212",
"z  c #ECEC21211212",
"x  c #D4D441413535",
"c  c #D5D541413535",
"v  c #D7D741413535",
"b  c #D8D841413535",
"n  c #D9D941413535",
"m  c #DBDB41413535",
"M  c #DCDC41413636",
"N  c #DDDD41413636",
"B  c #D8D864642626",
"V  c #DCDC68682626",
"C  c #DEDE77772B2B",
"Z  c #E0E041413636",
"A  c #E1E141413636",
"S  c #E2E241413636",
"D  c #E3E341413636",
"F  c #E5E541413636",
"G  c #E7E741413636",
"H  c #E8E841413636",
"J  c #EAEA41413636",
"K  c #ECEC42423636",
"L  c #EDED42423636",
"P  c #EEEE42423636",
"I  c #F0F042423737",
"U  c #F2F242423737",
"Y  c #F3F342423737",
"T  c #F4F442423737",
"R  c #F6F642423737",
"E  c #F8F842423737",
"W  c #FBFB42423737",
"Q  c #FCFC42423737",
"!  c #E9E96F6F2929",
"~  c #DEDE9C9C3232",
"^  c #D8D8A7A72A2A",
"/  c #DADAA9A92A2A",
"(  c #DBDBAAAA2A2A",
")  c #DEDEADAD2A2A",
"_  c #D5D5B2B23535",
"`  c #D6D6B3B33535",
"'  c #D8D8B3B33535",
"]  c #D8D8B5B53535",
"[  c #D9D9B5B53535",
"{  c #DBDBB7B73737",
"}  c #DDDDB8B83737",
"|  c #DFDFB9B93838",
" . c #E2E294943333",
".. c #E6E696963434",
"X. c #E8E89C9C3333",
"o. c #F0F088883131",
"O. c #F3F38A8A3131",
"+. c #E1E1AEAE2B2B",
"@. c #E3E3A0A03434",
"#. c #E8E8A4A43737",
"$. c #EBEBAEAE3A3A",
"%. c #E3E3B0B02C2C",
"&. c #E7E7B3B32C2C",
"*. c #EBEBB5B52E2E",
"=. c #EFEFB9B92F2F",
"-. c #E3E3B4B43D3D",
";. c #E7E7B5B53D3D",
":. c #E1E1BCBC3838",
">. c #E3E3BDBD3939",
",. c #E6E6B8B83F3F",
"<. c #EDEDB6B63E3E",
"1. c #EBEBBABA3F3F",
"2. c #E8E8BCBC3B3B",
"3. c #F2F2BCBC3030",
"4. c #D3D3ACAC4444",
"5. c #E3E3BCBC4040",
"6. c #E9E9BCBC4040",
"7. c #E6E6C0C03A3A",
"8. c #E7E7C1C13A3A",
"9. c #EBEBC3C33C3C",
"0. c #EDEDC6C63C3C",
"q. c #EFEFC7C73D3D",
"w. c #F2F2CBCB3E3E",
"e. c #F6F6CECE3F3F",
"r. c #FEFED4D43838",
"t. c #FFFFD8D83939",
"y. c #FFFFDBDB3A3A",
"u. c #FFFFDFDF3C3C",
"i. c #FFFFE2E23D3D",
"p. c #FFFFE6E63E3E",
"a. c #FFFFE7E73E3E",
"s. c #FFFFE9E93F3F",
"d. c #FFFFEBEB3F3F",
"f. c #FFFFEDED3F3F",
"g. c #FAFAD0D04141",
"h. c #FBFBD1D14141",
"j. c #FEFED4D44141",
"k. c #FFFFD6D64242",
"l. c #FFFFD8D84343",
"z. c #FFFFDADA4343",
"x. c #FFFFDDDD4545",
"c. c #FFFFDEDE4545",
"v. c #FFFFDFDF4646",
"b. c #FFFFE1E14646",
"n. c None",
/* pixels */
"n.n.n.n.n.n.n.n.n.n.n.n.n.n.n.n.",
"n.n.n.n.n.n.n.n.n.n.n.n.n.n.n.n.",
"b.b.b.b.b.c.c.c.z.z.k.k.h.h.e.w.",
"f.Q Q W W R W R R I I P P H H 3.",
"d.Q k g g g s s y p e 0 8 5 G =.",
"d.W g d d d p X.#.7 8 8 5 3 S *.",
"p.W d d p o.z $.@.l ..5 3 : S &.",
"p.R p p t o.<.X o ;. .3 : : N +.",
"i.I p y y ! 1.O + -.V : = = m +.",
"u.P e e 8 8 5 6.,.4.. = = * m ) ",
"y.P 0 8 8 5 2.C 5.B ~ * # # c ( ",
"y.H 5 3 3 3 : = = * * # # @ c ( ",
"r.G F F S S N m m m m c c c c ^ ",
"q.0.9.7.7.>.>.| | ] ] ] ' ` ` ` ",
"n.n.n.n.n.n.n.n.n.n.n.n.n.n.n.n.",
"n.n.n.n.n.n.n.n.n.n.n.n.n.n.n.n."
};
