/* XPM */
static const char *MG_xpm[] = {
/* columns rows colors chars-per-pixel */
"16 16 134 2",
"   c black",
".  c #000027270000",
"X  c #000029290000",
"o  c #00002D2D0000",
"O  c #00002F2F0000",
"+  c #000031310000",
"@  c #000033330000",
"#  c #000035350000",
"$  c #000039390000",
"%  c #00003D3D0000",
"&  c #00003F3F0000",
"*  c #000041410000",
"=  c #000047470000",
"-  c #00005D5D0000",
";  c #0B0B95950B0B",
":  c #0F0F97970E0E",
">  c #101097971010",
",  c #131399991313",
"<  c #141499991414",
"1  c #18189C9C1919",
"2  c #19199C9C1919",
"3  c #1E1E9F9F1E1E",
"4  c #1F1F9F9F1F1F",
"5  c #1414A3A31414",
"6  c #1919A5A51919",
"7  c #1F1FA8A81F1F",
"8  c #2323A1A12323",
"9  c #2424A2A22424",
"0  c #2424ABAB2424",
"q  c #2929A4A42929",
"w  c #2A2AA4A42A2A",
"e  c #2C2CA2A22C2C",
"r  c #2F2FA4A42F2F",
"t  c #2E2EA6A62E2E",
"y  c #2F2FA7A72F2F",
"u  c #2A2AADAD2A2A",
"i  c #2F2FB0B02F2F",
"p  c #3232A5A53232",
"a  c #3333A6A63232",
"s  c #3434A9A93434",
"d  c #3535A8A83535",
"f  c #3535ADAD3535",
"g  c #3939A9A93939",
"h  c #3B3BAEAE3A3A",
"j  c #3D3DACAC3D3D",
"k  c #3636B0B03636",
"l  c #4242AEAE4242",
"z  c #4646B0B04646",
"x  c #4B4BB1B14B4B",
"c  c #4D4DB4B44D4D",
"v  c #5252B7B75252",
"b  c #5555BBBB5858",
"n  c #6464BDBD6464",
"m  c #9B9B00000000",
"M  c #CECE31311A1A",
"N  c #D1D135351F1F",
"B  c #D2D23A3A2525",
"V  c #D4D43F3F2B2B",
"C  c #E7E700000000",
"Z  c #E9E900000000",
"A  c #EBEB00000000",
"S  c #EDED00000000",
"D  c #EFEF00000000",
"F  c #F1F100000000",
"G  c #F3F300000000",
"H  c #F5F500000000",
"J  c #F7F700000000",
"K  c #F9F900000000",
"L  c #FBFB00000000",
"P  c #FDFD00000000",
"I  c #F4F420202020",
"U  c #F5F525252525",
"Y  c #F5F526262626",
"T  c #F6F62B2B2B2B",
"R  c #F6F62C2C2C2C",
"E  c #F7F730303030",
"W  c #F7F731313131",
"Q  c #F5F53F3F3F3F",
"!  c #F8F836363636",
"~  c #F8F837373636",
"^  c #F8F837373737",
"/  c #F9F93B3B3C3C",
"(  c #F9F93C3C3C3C",
")  c #F9F93C3C3D3D",
"_  c #D6D644443030",
"`  c #D5D54E4E3B3B",
"'  c #D8D849493636",
"]  c #D9D94E4E3B3B",
"[  c #DBDB52524040",
"{  c #F6F644444444",
"}  c #F7F749494949",
"|  c #F7F74E4E4E4E",
" . c #FAFA41414141",
".. c #FAFA41414242",
"X. c #FAFA42424242",
"o. c #FBFB46464646",
"O. c #FBFB47474747",
"+. c #FCFC4B4B4B4B",
"@. c #FCFC4C4C4C4C",
"#. c #F8F853535353",
"$. c #F9F957575757",
"%. c #FDFD51515151",
"&. c #FAFA5C5C5C5C",
"*. c #E7E767675D5D",
"=. c #FBFB60606060",
"-. c #FCFC60606262",
";. c #FCFC65656565",
":. c #FDFD66666666",
">. c #FCFC69696969",
",. c #FDFD6A6A6A6A",
"<. c #FDFD6D6D6D6D",
"1. c #FDFD70707171",
"2. c #FEFE85858585",
"3. c gray85",
"4. c gray86",
"5. c #DFDFDFDFDFDF",
"6. c #E1E1E1E1E1E1",
"7. c gray89",
"8. c gray90",
"9. c #E7E7E7E7E7E7",
"0. c #E9E9E9E9E9E9",
"q. c gray92",
"w. c gray93",
"e. c #EFEFEFEFEFEF",
"r. c #F9F9F9F9F9F9",
"t. c gray98",
"y. c #FBFBFBFBFBFB",
"u. c #FBFBFCFCFBFB",
"i. c gray99",
"p. c #FDFDFCFCFDFD",
"a. c #FDFDFDFDFDFD",
"s. c #FEFEFEFEFEFE",
"d. c gray100",
"f. c None",
/* pixels */
"f.f.f.f.f.f.f.f.f.f.f.f.f.f.f.f.",
"f.f.f.f.f.f.f.f.f.f.f.f.f.f.f.f.",
"f.f.f.f.f.f.f.f.f.f.f.f.f.f.f.f.",
"e.e.e.e.e.P P P L L J J G G S S ",
"e.d.d.t.d.2.1.<.>.;.=.&.$.#.| A ",
"e.d.d.d.d.>.%.@.O...) ^ W R } A ",
"e.d.d.d.d.;.+.o...) ^ W T Y { C ",
"e.d.d.t.t.=.o...) ^ R T Y I Q C ",
"0.d.d.u.d.*.] ] ' _ _ B M M ` m ",
"0.d.u.u.u.b h f i u 0 8 6 5 k = ",
"0.d.t.u.t.v s y q 8 4 1 < > a @ ",
"9.y.t.t.t.c r q 8 7 1 > : ; r o ",
"9.t.t.t.t.n x z l j g d a r e . ",
"6.6.5.3.3.- * % * % $ @ o o X # ",
"f.f.f.f.f.f.f.f.f.f.f.f.f.f.f.f.",
"f.f.f.f.f.f.f.f.f.f.f.f.f.f.f.f."
};
