/* XPM */
static const char *MH_xpm[] = {
/* columns rows colors chars-per-pixel */
"16 16 159 2",
"   c black",
".  c #000000001313",
"X  c #000000001717",
"o  c #000000001919",
"O  c #000000001B1B",
"+  c #000000001F1F",
"@  c #000000002525",
"#  c #000000002727",
"$  c #000000002D2D",
"%  c #000000003333",
"&  c #000000003939",
"*  c #000000003F3F",
"=  c #3B3B00000000",
"-  c #000000004545",
";  c #000000004B4B",
":  c #000000004F4F",
">  c #000000005151",
",  c #000000005555",
"<  c #000000005B5B",
"1  c #000000005F5F",
"2  c #000000006565",
"3  c #000000006969",
"4  c #000000006B6B",
"5  c #000000006D6D",
"6  c #000000006F6F",
"7  c #000000007171",
"8  c #000000007373",
"9  c #000001017575",
"0  c #000003037575",
"q  c #000007077777",
"w  c #000009097979",
"e  c #000009097B7B",
"r  c #0F0F29297373",
"t  c #474743436B6B",
"y  c #12123D3D8F8F",
"u  c #14143B3B8F8F",
"i  c #161641419292",
"p  c #171741419292",
"a  c #191940409292",
"s  c #181843439393",
"d  c #1B1B44449494",
"f  c #1E1E48489696",
"g  c #1E1E48489797",
"h  c #202049499797",
"j  c #232349499797",
"k  c #2C2C50509B9B",
"l  c #323257579E9E",
"z  c #353559599E9E",
"x  c #363659599F9F",
"c  c #34345A5AA2A2",
"v  c #36365B5BA1A1",
"b  c #37375C5CA1A1",
"n  c #38385C5CA1A1",
"m  c #3B3B6060A4A4",
"M  c #3C3C6464ADAD",
"N  c #3D3D6565B0B0",
"B  c #545467679C9C",
"V  c #5E5E67679595",
"C  c #40406262A4A4",
"Z  c #42426565A7A7",
"A  c #46466262A2A2",
"S  c #42426767AEAE",
"D  c #47476969A9A9",
"F  c #47476A6AADAD",
"G  c #4D4D6969A7A7",
"H  c #4A4A6A6AABAB",
"J  c #4B4B6A6AABAB",
"K  c #49496D6DAFAF",
"L  c #4C4C6E6EAFAF",
"P  c #41416868B2B2",
"I  c #42426969B0B0",
"U  c #45456868B2B2",
"Y  c #46466A6AB1B1",
"T  c #49496F6FB4B4",
"R  c #4E4E7171B0B0",
"E  c #4F4F7171B0B0",
"W  c #50507171B1B1",
"Q  c #51517272B1B1",
"!  c #53537474B2B2",
"~  c #53537575B3B3",
"^  c #54547575B3B3",
"/  c #55557575B3B3",
"(  c #58587979B4B4",
")  c #58587979B5B5",
"_  c #5C5C7A7AB2B2",
"`  c #58587A7AB9B9",
"'  c #5E5E7F7FB9B9",
"]  c #6F6F71719696",
"[  c #727269698484",
"{  c #7E7E7E7E9D9D",
"}  c #65658181B9B9",
"|  c #65658282B9B9",
" . c #66668383BDBD",
".. c #6B6B8383B1B1",
"X. c #6A6A8686BCBC",
"o. c #6C6C8686B9B9",
"O. c #6E6E8A8ABEBE",
"+. c #6F6F8B8BBEBE",
"@. c #71718D8DC0C0",
"#. c #72728E8EC0C0",
"$. c #71718F8FC4C4",
"%. c #75758F8FC2C2",
"&. c #71719090C5C5",
"*. c #75759090C2C2",
"=. c #78789292C3C3",
"-. c #7F7F9898C7C7",
";. c #84846B6B7777",
":. c #959575757777",
">. c #AFAF6F6F5959",
",. c #BBBB78785D5D",
"<. c #A2A26E6E6262",
"1. c #EBEB00000000",
"2. c #D3D374743C3C",
"3. c #E9E95D5D0000",
"4. c #F2F276762C2C",
"5. c #E2E27E7E4141",
"6. c #F6F681812D2D",
"7. c #F7F781813535",
"8. c #D2D28A8A6262",
"9. c #F7F792924B4B",
"0. c #F5F5A5A56F6F",
"q. c #F7F7A9A96B6B",
"w. c #F6F6A8A86E6E",
"e. c #F8F8A8A86A6A",
"r. c #F1F1A6A67474",
"t. c #B2B2A4A4ACAC",
"y. c #84849B9BC8C8",
"u. c #85859B9BC8C8",
"i. c #8A8A9E9EC6C6",
"p. c #9797A7A7CECE",
"a. c #9090A7A7D1D1",
"s. c #9D9DADADD1D1",
"d. c #9C9CADADD2D2",
"f. c #AEAEB8B8CFCF",
"g. c #A3A3B3B3D5D5",
"h. c #A9A9B6B6D6D6",
"j. c #B6B6C2C2DDDD",
"k. c #B9B9C3C3DCDC",
"l. c #BFBFC7C7D9D9",
"z. c #B5B5C5C5E1E1",
"x. c #CFCF9D9D8282",
"c. c #D8D8C1C1B9B9",
"v. c #F5F5CDCDAEAE",
"b. c #F7F7DEDEBFBF",
"n. c #F8F8D8D8B8B8",
"m. c #C3C3CBCBE2E2",
"M. c #D6D6DADAE6E6",
"N. c #D7D7E0E0EEEE",
"B. c #F5F5DEDECCCC",
"V. c #F6F6E3E3CCCC",
"C. c #F6F6E2E2D3D3",
"Z. c #E7E7E7E7E7E7",
"A. c #EEEEEFEFF3F3",
"S. c #EEEEF3F3F5F5",
"D. c #F4F4F4F4F4F4",
"F. c gray96",
"G. c #FDFDFDFDFEFE",
"H. c #FEFEFEFEFEFE",
"J. c None",
/* pixels */
"J.J.J.J.J.J.J.J.J.J.J.J.J.J.J.J.",
"J.J.J.J.J.J.J.J.J.J.J.J.J.J.J.J.",
"J.J.J.J.J.J.J.J.J.J.J.J.J.J.J.J.",
"e e e e q 0 7 5 3 2 1 < , > : = ",
"e y.j.m.y.=.%.+.+.X.} ' ` { 8.1.",
"e d.H.H.p.( / Q L F N A <.4.9.3.",
"e g.H.H.d./ E L I M [ 2.6.0.C.Z.",
"0 -.h.k.} E K P B >.7.w.B.D.S...",
"7 *.) ~ R F S ;.5.q.V.D.N.i._ @ ",
"5 $.Q R U V ,.q.b.A.z.o.k u v + ",
"5 +.T G :.r.n.M.a.J j p s p n O ",
"2  .] x.v.l.$.v j g g d p y x X ",
"1 t.c.f.$.E J J D Z C m b x l . ",
"t r 3 ; - - & % $ @ @ + O X . . ",
"J.J.J.J.J.J.J.J.J.J.J.J.J.J.J.J.",
"J.J.J.J.J.J.J.J.J.J.J.J.J.J.J.J."
};
