/* XPM */
static char *MK_xpm[] = {
/* columns rows colors chars-per-pixel */
"16 16 156 2",
"   c #688651FF14E9",
".  c #7FFF73670D4F",
"X  c #86000ADA0D63",
"o  c #86000CE10D63",
"O  c #860011BA0D63",
"+  c #85FF132F0D63",
"@  c #860018870D63",
"#  c #860019E00D63",
"$  c #9FD0077D08EB",
"%  c #9F04082108E3",
"&  c #96E817020839",
"*  c #9F122BE708E3",
"=  c #A0CE0DD9087A",
"-  c #857447C50D5B",
";  c #864E58FE0D63",
":  c #86005C800D63",
">  c #9F14468A08E3",
",  c #860071490D63",
"<  c #8F5D80580DA3",
"1  c #EFC700000000",
"2  c #F0BC00000000",
"3  c #F13A00000000",
"4  c #F13A022B0000",
"5  c #F13A0A2F0000",
"6  c #FFFF01870266",
"7  c #FFFF049F0266",
"8  c #FFFF07620000",
"9  c #FFFF08250000",
"0  c #FFFF0A7F0266",
"q  c #FFFF0C170000",
"w  c #FFFF09ED0C17",
"e  c #FFFF0AE60C47",
"r  c #F13A1D8B0000",
"t  c #FFFF12250000",
"y  c #FFFF15DA0000",
"u  c #FFFF17DD0000",
"i  c #FFFF1A5C0000",
"p  c #EFD22E580000",
"a  c #FFFF20C10000",
"s  c #FFFF23150000",
"d  c #FFFF24B40000",
"f  c #FFFF28570000",
"g  c #FFFF29ED0000",
"h  c #FFFF2E180000",
"j  c #F13A318E0000",
"k  c #F153370100C4",
"l  c #FFFF309C0000",
"z  c #FFFF326B0000",
"x  c #FFFF34E30000",
"c  c #FFFF3AE00000",
"v  c #FFFF3B700000",
"b  c #FFFF3CC90266",
"n  c #FFFF38D50C29",
"m  c #FFFF35B93AB4",
"M  c #FFFF37843A0D",
"N  c #E21E52E80000",
"B  c #EFD454130000",
"V  c #FFFF42BE0000",
"C  c #FFFF48180000",
"Z  c #FFFF4AB50000",
"A  c #FFFF4BDF0000",
"S  c #FFFF4DA90000",
"D  c #FFFF501E0000",
"F  c #FFFF533C0000",
"G  c #FFFF53D80000",
"H  c #FFFF547C0000",
"J  c #FFFF56BC0000",
"K  c #FFFF56A20266",
"L  c #FFFF55880E65",
"P  c #FFFF5A430000",
"I  c #FFFF5B400000",
"U  c #FFFF602C0000",
"Y  c #FFFF5D9C0C29",
"T  c #FFFF46183AE4",
"R  c #FE3157163096",
"E  c #FFFF62FF0000",
"W  c #FFFF648B0000",
"Q  c #FFFF66F70000",
"!  c #FFFF67FE0000",
"~  c #F576760B0897",
"^  c #F13A7E820000",
"/  c #F1397FF40000",
"(  c #FFFF71360000",
")  c #FFFF76210000",
"_  c #FFFF76F10000",
"`  c #FFFF7DF40000",
"'  c #FFFF7E360266",
"]  c #FFFF7F460000",
"[  c #FFFF66DC3A34",
"{  c #FFFF45044752",
"}  c #FFFF46944752",
"|  c #FFFF4D074752",
" . c #FFFF56E54752",
".. c #FFFF5EDF4751",
"X. c #FFFF6CE04753",
"o. c #9F148C1308E3",
"O. c #D26E944216CC",
"+. c #C6CFA44D1A36",
"@. c #FFFF82C30000",
"#. c #FFFF863A0000",
"$. c #FFFF8DCB0000",
"%. c #FFFF8ED00000",
"&. c #F13B946C0000",
"*. c #FFFF92180256",
"=. c #FFFF95130000",
"-. c #FFFF964D0000",
";. c #FFFF89173A35",
":. c #F212A7A30000",
">. c #F13AA9180000",
",. c #FFFFA58701C7",
"<. c #FFFFA4F80265",
"1. c #FFFFA7590000",
"2. c #FFFFAB3C0000",
"3. c #FFFFAB0D0266",
"4. c #FFFFADAA0000",
"5. c #F12BB1990000",
"6. c #FFFFB0D20267",
"7. c #FFFFBC240000",
"8. c #FFFFB04F46E0",
"9. c #FFFFBC7E4752",
"0. c #EFD4C3990000",
"q. c #FFFFC0D30000",
"w. c #FFFFCF5D0C29",
"e. c #FD7AD8813A70",
"r. c #FFFFE4ED0000",
"t. c #FFFFF3720000",
"y. c #FFFFE4CC3A34",
"u. c #FFFFC35A47ED",
"i. c #FFFFDC554752",
"p. c #FFFFDEDE4FAA",
"a. c #FFFFCB496926",
"s. c #FFB9FFB2ACE9",
"d. c #D964CDCACF32",
"f. c #D976CE9DCF32",
"g. c #D978CF23CF32",
"h. c #D978CFDECF32",
"j. c #D978D106CF32",
"k. c #D9ADD6AACF2D",
"l. c #DA6DD575CF2C",
"z. c #D978D721CF32",
"x. c #D978D8A4CF32",
"c. c #DC27DD08D10D",
"v. c #FFFFCAB9CCCF",
"b. c #FFFFCB36CCCF",
"n. c #FFFFCCA7CCCF",
"m. c #FFFFCD85CCB5",
"M. c #FFFFCF90CCCF",
"N. c #FFFFD2A0CD16",
"B. c #FFFFD4E7CCCF",
"V. c #E81DE96DD0E1",
"C. c #FFFFECA9CEEF",
"Z. c #FFFFF52FC83A",
"A. c #FFFFF2DFCCCF",
"S. c #FFFFFAF9CCCF",
"D. c #FFFFFFFFD49D",
"F. c gray100",
/* pixels */
"F.F.F.F.F.F.F.F.F.F.F.F.F.F.F.F.",
"F.F.F.F.F.F.F.F.F.F.F.F.F.F.F.F.",
"D.C.m.b.b.b.B.S.A.m.m.m.b.N.Z.s.",
"a.p.8...} }  .i.9.| } } X.u.e.O.",
"T L 1.1.b 6 0 2.' 6 0 J 4.*.k = ",
"M w q S @.F t ( S u ! ' b 8 1 % ",
";.Y V l h F I 2.=.J Z g l Z B > ",
"y.w.7.1.#.U ' t.r.! ! *.4.q.0.o.",
"[ n r i l I Z %.) Z F d i d p * ",
"M w d ) %.c 8 ' J 8 F =.E u 4 $ ",
"R ~ 5.@.r 4 5 >.^ 4 4 j &.:.N & ",
"+.< - O X X @ , : O o X @ ; .   ",
"V.z.d.d.d.d.h.x.z.h.d.d.d.d.z.c.",
"F.F.F.F.F.F.F.F.F.F.F.F.F.F.F.F.",
"F.F.F.F.F.F.F.F.F.F.F.F.F.F.F.F.",
"F.F.F.F.F.F.F.F.F.F.F.F.F.F.F.F."
};
