/* XPM */
static char *MO_xpm[] = {
/* columns rows colors chars-per-pixel */
"16 16 103 2",
"   c #0D4F521F0D4F",
".  c #0CB954E90CB9",
"X  c #0CDC55750CDC",
"o  c #0D5B55540D5B",
"O  c #0D6555BB0D65",
"+  c #0F9A55C90F9A",
"@  c #08395DBB0839",
"#  c #0DA35B660DA3",
"$  c #14E9471214E9",
"%  c #103C55FD103C",
"&  c #08E562B508E5",
"*  c #087A639D087A",
"=  c #0000876A0000",
"-  c #000090230000",
";  c #003190F10031",
":  c #0403917C0403",
">  c #0000994A0000",
",  c #00119A160011",
"<  c #01C79A7901C7",
"1  c #016E9A140266",
"2  c #00009AC60000",
"3  c #02D8992E0336",
"4  c #036799C10368",
"5  c #02629AEF0261",
"6  c #05969B5A0000",
"7  c #06429BC50642",
"8  c #094E93E0094E",
"9  c #089796AA0897",
"0  c #0BA99D940000",
"q  c #0A529D300267",
"w  c #0F6D9EE801A0",
"e  c #0EFB9FB90268",
"r  c #0C179E9C0C17",
"t  c #0C309EC70C30",
"y  c #0E659F5A0E65",
"u  c #0FFE9EBF0FFF",
"i  c #16CC875816CC",
"p  c #1A3681D71A36",
"a  c #10C19FA603EB",
"s  c #134AA0500000",
"d  c #104B9E731157",
"f  c #154FA10D0000",
"g  c #17D1A2810204",
"h  c #1A50A3DF0243",
"j  c #1B5FA2DB107B",
"k  c #277BA80002E9",
"l  c #264BA7B9111A",
"z  c #29CFA8961966",
"x  c #3423AE150371",
"c  c #275AA81127BF",
"v  c #290CA0A7290C",
"b  c #3797A67A3797",
"n  c #3096AC753096",
"m  c #32ACADD832AC",
"M  c #3A70AF803A70",
"N  c #3E4DB0593EAB",
"B  c #3A2AB0BC3A2A",
"V  c #3ACCB1273ACC",
"C  c #4665B5894752",
"Z  c #46E0B5FA46E0",
"A  c #4723B6094752",
"S  c #4769B5A44751",
"D  c #4772B6404771",
"F  c #49A9B6EF49A9",
"G  c #4FAAB9424FAA",
"H  c #53FDBAA54746",
"J  c #5991BD6D4742",
"K  c #5761BBD354E5",
"L  c #5DBAB5E35DBA",
"P  c #6596B9336596",
"I  c #6926C3AA6926",
"U  c #6DB3C5596C90",
"Y  c #71EEC67871F4",
"T  c #793AC95F7A95",
"R  c #7F4CCD2A7F4C",
"E  c #82CCCE9C82CC",
"W  c #86CBD02686CB",
"Q  c #8C8BD2608C8B",
"!  c #9716D5D6971A",
"~  c #A200DA58A2FC",
"^  c #ACE9DEC4ACE9",
"/  c #B35FE15EB38C",
"(  c #B6FDE2FFB6FD",
")  c #CF2ED55FCF2E",
"_  c #CF2CD5F5CF2C",
"`  c #D10DD7B6D10D",
"'  c #D0E1DEE1D0E1",
"]  c #C4A8E848C4A8",
"[  c #C6CDE92EC6CB",
"{  c #C83AE9DCC83A",
"}  c #C948EA07C94B",
"|  c #CCB5EB69CCB5",
" . c #CBB2EB04CCCF",
".. c #CC8AEB53CCCF",
"X. c #CCD9EB73CCD9",
"o. c #CEEFEC6ACEEF",
"O. c #D49DEE91D49D",
"+. c #D9C5F08FD9C4",
"@. c #DA0CF0C8DA0D",
"#. c #DB0CF142DB29",
"$. c #DF4DF307DF4D",
"%. c #E95EF6CDE95E",
"&. c gray100",
/* pixels */
"&.&.&.&.&.&.&.&.&.&.&.&.&.&.&.&.",
"&.&.&.&.&.&.&.&.&.&.&.&.&.&.&.&.",
"O.o.| |  .| | |  .| | | | | { ^ ",
"I G D D D D D H J D D D D D M i ",
"V y > > 4 q h k x h e > > 4 ; * ",
"V r > > 6 g a K U j s 0 > > ; & ",
"V r > > 6 l c / @.N z a > > ; & ",
"V r > > > T  .@.%.{ ~ d > > - & ",
"V y > > 7 Y @.] ( $.! d > > ; & ",
"V y > > > m E W R Q F 7 > > ; & ",
"n 9 ; ; ; ; v L P b 8 ; ; ; = @ ",
"p # + . . .   . % . . . . .   $ ",
"' _ _ _ ) ) ) ) _ _ _ _ _ _ _ ` ",
"&.&.&.&.&.&.&.&.&.&.&.&.&.&.&.&.",
"&.&.&.&.&.&.&.&.&.&.&.&.&.&.&.&.",
"&.&.&.&.&.&.&.&.&.&.&.&.&.&.&.&."
};
