/* XPM */
static const char *MO_xpm[] = {
/* columns rows colors chars-per-pixel */
"16 16 157 2",
"   c black",
".  c #000027270000",
"X  c #000029290000",
"o  c #00002D2D0000",
"O  c #00002F2F0000",
"+  c #000031310000",
"@  c #000033330000",
"#  c #000035350000",
"$  c #000039390000",
"%  c #00003B3B0000",
"&  c #00003D3D0000",
"*  c #00003F3F0000",
"=  c #000045450000",
"-  c #00004B4B0000",
";  c #00004D4D0000",
":  c #000051510000",
">  c #000057570000",
",  c #00005D5D0000",
"<  c #000061610000",
"1  c #000063630000",
"2  c #000067670000",
"3  c #00006D6D0000",
"4  c #00006F6F0000",
"5  c #000071710000",
"6  c #000075750000",
"7  c #000077770000",
"8  c #00007B7B0000",
"9  c #00007D7D0000",
"0  c #00007F7F0000",
"q  c #000081810000",
"w  c #000083830000",
"e  c #000085850000",
"r  c #000087870000",
"t  c #000089890000",
"y  c #000091910000",
"u  c #0B0B95950B0B",
"i  c #0F0F97970E0E",
"p  c #101097971010",
"a  c #131398981313",
"s  c #141499991414",
"d  c #14149A9A1414",
"f  c #19199B9B1919",
"g  c #1A1A9C9C1A1A",
"h  c #1B1B9C9C1B1B",
"j  c #20209F9F2020",
"k  c #2525A1A12525",
"l  c #2626A2A22626",
"z  c #2828A2A22B2B",
"x  c #2B2BA5A52B2B",
"c  c #2C2CA2A22C2C",
"v  c #2C2CA6A62C2C",
"b  c #2F2FA4A42F2F",
"n  c #3939AAAA2B2B",
"m  c #3030A5A53030",
"M  c #3232A5A53232",
"N  c #3333A6A63232",
"B  c #3131A9A93131",
"V  c #3535A8A83535",
"C  c #3636A8A83636",
"Z  c #3737A9A93737",
"A  c #3737AAAA3737",
"S  c #3939A9A93939",
"D  c #3A3AABAB3A3A",
"F  c #3B3BAAAA3B3B",
"G  c #3D3DABAB3D3D",
"H  c #3E3EACAC3E3E",
"J  c #3F3FADAD3F3F",
"K  c #3F3FAFAF3F3F",
"L  c #4141AEAE3030",
"P  c #4040AEAE3F3F",
"I  c #4545B0B03636",
"U  c #4545B1B13D3D",
"Y  c #4B4BB3B33E3E",
"T  c #4242ADAD4242",
"R  c #4444AFAF4444",
"E  c #4545AEAE4545",
"W  c #4444B1B14444",
"Q  c #4545B0B04545",
"!  c #4545B2B24545",
"~  c #4646B1B14646",
"^  c #4747B0B04747",
"/  c #4646B2B24747",
"(  c #4545B0B04949",
")  c #4949B0B04949",
"_  c #4949B2B24949",
"`  c #4B4BB2B24B4B",
"'  c #4949B4B44949",
"]  c #4949B5B54949",
"[  c #4E4EB4B44E4E",
"{  c #4F4FB7B74F4F",
"}  c #5151B5B54242",
"|  c #5757B9B94B4B",
" . c #5C5CBBBB4B4B",
".. c #5F5FBDBD4C4C",
"X. c #5050B3B35050",
"o. c #5353B7B75353",
"O. c #5454B7B75555",
"+. c #5353B9B95353",
"@. c #5656B9B95050",
"#. c #5454B9B95454",
"$. c #5757BABA5454",
"%. c #5858B9B95757",
"&. c #5858B9B95858",
"*. c #5959BBBB5959",
"=. c #5858BCBC5858",
"-. c #5858BCBC5959",
";. c #5C5CBBBB5C5C",
":. c #5C5CBDBD5C5C",
">. c #5D5DBCBC5D5D",
",. c #5C5CBEBE5C5C",
"<. c #5F5FBFBF5F5F",
"1. c #6262BEBE5151",
"2. c #6161BDBD6060",
"3. c #6161BEBE6262",
"4. c #6666BABA6767",
"5. c #6565BEBE6565",
"6. c #6666C0C06666",
"7. c #6A6AC1C16A6A",
"8. c #6A6AC3C36A6A",
"9. c #6F6FC4C46F6F",
"0. c #7171C5C56969",
"q. c #7171C5C56D6D",
"w. c #7070C3C37171",
"e. c #7272C6C67373",
"r. c #7474C7C77474",
"t. c #7676C8C87676",
"y. c #7777C8C87777",
"u. c #7979C8C87979",
"i. c #7979C9C97979",
"p. c #7B7BCACA7A7A",
"a. c #7B7BCACA7B7B",
"s. c #7F7FC9C97E7E",
"d. c #9C9CC0C02727",
"f. c #A7A7C7C73737",
"g. c #BEBED4D44D4D",
"h. c #B2B2D0D05050",
"j. c #B9B9D4D45656",
"k. c #8686CBCB8888",
"l. c #9393CDCD9393",
"z. c #9797CFCF9797",
"x. c #9A9AD1D19A9A",
"c. c #A8A8D7D7AAAA",
"v. c #ABABDADAABAB",
"b. c #AEAEDCDCAFAF",
"n. c #B4B4DCDCB4B4",
"m. c #B8B8DEDEB7B7",
"M. c #D1D1EAEAD1D1",
"N. c #D6D6EAEAD6D6",
"B. c #D8D8ECECD8D8",
"V. c #DCDCECECDCDC",
"C. c #E1E1EDEDE1E1",
"Z. c #EEEEF4F4EEEE",
"A. c #F3F3F6F6F3F3",
"S. c #F3F3F7F7F4F4",
"D. c #F6F6F6F6F6F6",
"F. c #F9F9F9F9F9F9",
"G. c None",
/* pixels */
"G.G.G.G.G.G.G.G.G.G.G.G.G.G.G.G.",
"G.G.G.G.G.G.G.G.G.G.G.G.G.G.G.G.",
"G.G.G.G.G.G.G.G.G.G.G.G.G.G.G.G.",
"y t t t t q q 9 7 7 5 3 2 < , < ",
"e a.a.a.t.e.w.q.0.5.3.;.*.o.[ ; ",
"t a.<.,.*.$.1...g.} U D B v _ - ",
"e a.;.=.$.j.| 8.s.Y L f.x l R = ",
"t t.=.+.|  .( b.S.( L n l j J * ",
"e e.+.{ h.k.v.B.S.n.c.z d.h D $ ",
"9 9.{ ' E M.F.Z.B.D.V.l.f s C # ",
"9 8.' W P E [ ) H T m h s p N + ",
"8 5.W U D A x.n.C.z.4.a i u b o ",
"3 3.;.*.O.X._ _ R H D C m m c . ",
"7 2 < , > : ; = * * $ + o o X # ",
"G.G.G.G.G.G.G.G.G.G.G.G.G.G.G.G.",
"G.G.G.G.G.G.G.G.G.G.G.G.G.G.G.G."
};
