/* XPM */
static const char *MP_xpm[] = {
/* columns rows colors chars-per-pixel */
"16 16 154 2",
"   c black",
".  c #000000001D1D",
"X  c #000000001F1F",
"o  c #000000002323",
"O  c #000000002727",
"+  c #000000002929",
"@  c #000000002B2B",
"#  c #000000002F2F",
"$  c #000000003131",
"%  c #000000003333",
"&  c #000000003737",
"*  c #000000003939",
"=  c #000000003B3B",
"-  c #000000003F3F",
";  c #000000004141",
":  c #000000004545",
">  c #000000004B4B",
",  c #000000005151",
"<  c #000000005757",
"1  c #000000005D5D",
"2  c #000003036161",
"3  c #000007076767",
"4  c #00000B0B6767",
"5  c #00000F0F6B6B",
"6  c #000011116D6D",
"7  c #000017177171",
"8  c #00001D1D7373",
"9  c #00001F1F7777",
"0  c #000023237777",
"q  c #000023237979",
"w  c #000025257B7B",
"e  c #000029297D7D",
"r  c #00002B2B7D7D",
"t  c #00002D2D7F7F",
"y  c #00002D2D8181",
"u  c #303057579494",
"i  c #34345B5B9696",
"p  c #37375E5E9898",
"a  c #38385F5F9999",
"s  c #39395F5F9999",
"d  c #36365858A3A3",
"f  c #3C3C62629B9B",
"g  c #3D3D63639C9C",
"h  c #414167679E9E",
"j  c #424267679E9E",
"k  c #47476A6AA1A1",
"l  c #48486C6CA1A1",
"z  c #4B4B6E6EA1A1",
"x  c #4E4E6F6FA3A3",
"c  c #47476B6BB2B2",
"v  c #46466A6AB9B9",
"b  c #4C4C7070A5A5",
"n  c #4D4D7070A5A5",
"m  c #4D4D7878ACAC",
"M  c #50507272A5A5",
"N  c #51517272A5A5",
"B  c #54547575A7A7",
"V  c #55557575A7A7",
"C  c #52527474A8A8",
"Z  c #57577777A9A9",
"A  c #59597979A9A9",
"S  c #58587979ABAB",
"D  c #5D5D7C7CACAC",
"F  c #5D5D7D7DAEAE",
"G  c #51517B7BC4C4",
"H  c #6B6B9F9F9D9D",
"J  c #61618080AEAE",
"K  c #62628181B1B1",
"L  c #65658484B1B1",
"P  c #66668484B2B2",
"I  c #66668585B4B4",
"U  c #67678585B4B4",
"Y  c #60608A8AB3B3",
"T  c #6A6A8787B3B3",
"R  c #6A6A8888B3B3",
"E  c #6B6B8989B6B6",
"W  c #6E6E8A8AB6B6",
"Q  c #6F6F8B8BB6B6",
"!  c #6F6F8C8CB9B9",
"~  c #77778E8EA6A6",
"^  c #72728484B5B5",
"/  c #70708D8DB9B9",
"(  c #72728E8EB9B9",
")  c #73738F8FB9B9",
"_  c #72728F8FBBBB",
"`  c #76769191BABA",
"'  c #76769292BBBB",
"]  c #76769292BDBD",
"[  c #79799595BEBE",
"{  c #7A7A9595BDBD",
"}  c #7E7E9797BABA",
"|  c #7F7F9999BFBF",
" . c #7D7DA1A1A3A3",
".. c #7A7A9595C6C6",
"X. c #7F7F9797C1C1",
"o. c #F4F4DBDB7F7F",
"O. c #828294948888",
"+. c #80809A9ABBBB",
"@. c #86869C9CB9B9",
"#. c #8989A4A48888",
"$. c #8F8FA2A2B7B7",
"%. c #9494A6A6B9B9",
"&. c #9E9EB5B5A6A6",
"*. c #A6A6B8B8BDBD",
"=. c #ADADBCBCB5B5",
"-. c #A9A9BBBBBFBF",
";. c #83839B9BC2C2",
":. c #84849A9AC1C1",
">. c #85859E9EC3C3",
",. c #8989A1A1C6C6",
"<. c #8B8BA4A4C7C7",
"1. c #8D8DA4A4C8C8",
"2. c #8F8FA5A5C8C8",
"3. c #8F8FA6A6C8C8",
"4. c #9191A6A6C7C7",
"5. c #9090A7A7C9C9",
"6. c #9090A7A7CACA",
"7. c #A1A1B2B2C3C3",
"8. c #ACACBDBDC1C1",
"9. c #B2B2C2C2C5C5",
"0. c #B4B4C3C3C8C8",
"q. c #B4B4C5C5CACA",
"w. c #B8B8C5C5E2E2",
"e. c #C9C9B9B98080",
"r. c #C0C0B8B89797",
"t. c #E6E6BFBF9999",
"y. c #F4F4BFBFAAAA",
"u. c #D7D7CACA8A8A",
"i. c #D0D0D0D09595",
"p. c #C3C3C1C1A6A6",
"a. c #C0C0CCCCBEBE",
"s. c #CDCDD4D4AAAA",
"d. c #CFCFD4D4BABA",
"f. c #D3D3CFCFB1B1",
"g. c #DDDDDCDCBBBB",
"h. c #E5E5C8C88181",
"j. c #E9E9CECE9090",
"k. c #EFEFD5D58D8D",
"l. c #EFEFDFDF8787",
"z. c #E0E0DDDD9F9F",
"x. c #EEEED1D19090",
"c. c #F4F4D6D68D8D",
"v. c #E3E3D4D4A2A2",
"b. c #E6E6DFDFA5A5",
"n. c #F4F4E4E48686",
"m. c #F7F7E5E59B9B",
"M. c #FAFAE2E29595",
"N. c #FDFDEDEDA4A4",
"B. c #F3F3E8E8B8B8",
"V. c #FCFCE8E8B4B4",
"C. c #FAFAF0F0A6A6",
"Z. c #CCCCD5D5D8D8",
"A. c #F8F8F8F8F8F8",
"S. c None",
/* pixels */
"S.S.S.S.S.S.S.S.S.S.S.S.S.S.S.S.",
"S.S.S.S.S.S.S.S.S.S.S.S.S.S.S.S.",
"S.S.S.S.S.S.S.S.S.S.S.S.S.S.S.S.",
"y y y y e w 0 8 7 5 3 2 1 < , > ",
"y 6.5.6.1.7.a.B.V.g.%.` _ W T : ",
"y 6.] ] $.s.e.t.y.M.u.~ C n J - ",
"t 2.] _ =.N.&.+.q.^ h.b.n z J * ",
"e <._ _ v.i.v | w.d  .l.k j F % ",
"w ,.! E z.d...4.A.:.c n.h f A # ",
"9 >.E U f.N.m +.Z.G #.k.f s V + ",
"7 ;.U K @.x.x.-.-.p.o.O.s i N o ",
"6 | K F S H m.-.*.c.r.p i u n X ",
"4 ] ' ` Q R J q.9.Y A A N n j . ",
"2 1 < , > : : = & % + O o X . . ",
"S.S.S.S.S.S.S.S.S.S.S.S.S.S.S.S.",
"S.S.S.S.S.S.S.S.S.S.S.S.S.S.S.S."
};
