/* XPM */
static const char *MT_xpm[] = {
/* columns rows colors chars-per-pixel */
"16 16 113 2",
"   c black",
".  c #DDDD00000000",
"X  c #DFDF00000000",
"o  c #E1E100000000",
"O  c #E3E300000000",
"+  c #E5E500000000",
"@  c #E7E700000000",
"#  c #E9E900000000",
"$  c #EBEB00000000",
"%  c #EDED00000000",
"&  c #EFEF00000000",
"*  c #F1F100000000",
"=  c #F3F300000000",
"-  c #F5F500000000",
";  c #F7F700000000",
":  c #F1F10B0B0B0B",
">  c #F1F10F0F0E0E",
",  c #F9F900000000",
"<  c #FBFB00000000",
"1  c #F2F210101010",
"2  c #F2F213131313",
"3  c #F2F214141414",
"4  c #F3F319191919",
"5  c #F3F31A1A1A1A",
"6  c #F4F41E1E1E1E",
"7  c #F4F41F1F1F1F",
"8  c #F4F420202020",
"9  c #F5F524242424",
"0  c #F5F525252525",
"q  c #F5F526262626",
"w  c #F2F22C2C2C2C",
"e  c #F2F22F2F2F2F",
"r  c #F6F62A2A2A2A",
"t  c #F6F62B2B2B2B",
"y  c #F6F62C2C2C2C",
"u  c #F2F232323232",
"i  c #F3F332323232",
"p  c #F3F335353535",
"a  c #F5F530303030",
"s  c #F7F730303030",
"d  c #F7F731313131",
"f  c #F4F436363636",
"g  c #F6F636363636",
"h  c #F4F439393939",
"j  c #F4F43B3B3B3B",
"k  c #F7F73B3B3B3B",
"l  c #F5F53D3D3D3D",
"z  c #F5F53F3F3F3F",
"x  c #F8F836363636",
"c  c #F8F837373636",
"v  c #F8F837373737",
"b  c #F9F93C3C3C3C",
"n  c #F9F93C3C3D3D",
"m  c #F6F644444444",
"M  c #F7F749494949",
"N  c #F6F64C4C4C4C",
"B  c #F7F74E4E4E4E",
"V  c #F8F841414141",
"C  c #FAFA42424242",
"Z  c #F9F947474747",
"A  c #FAFA4C4C4C4C",
"S  c #F8F853535353",
"D  c #FBFB52525252",
"F  c #F9F957575757",
"G  c #FAFA5C5C5C5C",
"H  c #FBFB60606060",
"J  c #FCFC65656565",
"K  c #FCFC72727272",
"L  c #BDBDB8B8B8B8",
"P  c #C9C9C8C8C8C8",
"I  c #CFCFCDCDCDCD",
"U  c #D9D9C5C5C5C5",
"Y  c #D3D3D2D2D2D2",
"T  c #D6D6D4D4D3D3",
"R  c gray86",
"E  c #DDDDDDDDDDDD",
"W  c #EFEFDDDDDDDD",
"Q  c #E1E1E1E1E1E1",
"!  c gray89",
"~  c gray90",
"^  c #E7E7E7E7E7E7",
"/  c gray92",
"(  c gray93",
")  c #EFEFEFEFEFEF",
"_  c #F1F1EFEFEFEF",
"`  c #F6F6EAEAEAEA",
"'  c #F7F7EBEBECEC",
"]  c #F7F7EDEDEDED",
"[  c #F8F8EDEDEDED",
"{  c #F9F9EEEEEEEE",
"}  c #FAFAEFEFEFEF",
"|  c #F1F1F1F1F1F1",
" . c #F3F3F1F1F1F1",
".. c #F3F3F3F3F3F3",
"X. c gray96",
"o. c gray97",
"O. c #FBFBF0F0F0F0",
"+. c #FCFCF2F2F2F2",
"@. c #FDFDF5F5F5F5",
"#. c #F8F8F8F8F8F8",
"$. c #F9F9F9F9F9F9",
"%. c #FAFAF9F9F9F9",
"&. c gray98",
"*. c #FBFBFBFBFBFB",
"=. c #FBFBFCFCFBFB",
"-. c gray99",
";. c #FDFDFCFCFDFD",
":. c #FDFDFDFDFDFD",
">. c #FDFDFDFDFEFE",
",. c #FEFEFCFCFCFC",
"<. c #FEFEFDFDFCFC",
"1. c #FEFEFEFEFEFE",
"2. c None",
/* pixels */
"2.2.2.2.2.2.2.2.2.2.2.2.2.2.2.2.",
"2.2.2.2.2.2.2.2.2.2.2.2.2.2.2.2.",
"2.2.2.2.2.2.2.2.2.2.2.2.2.2.2.2.",
"| _ | | | | | W < , , - = = % % ",
"X.%.Y ,.1.1.1.@.K J H G F S B $ ",
"| T L I 1.1.1.} D C n x d y M $ ",
"X.1.P 1.,.1.*.} A n x d y q m + ",
"..1.1.1.-.*.*.} Z x s t q 8 z + ",
"| 1.1.=.=.=.%.} V d t q 7 4 j + ",
") 1.=.=.*.%.%.] k t 9 7 4 2 f O ",
") *.*.*.*.o.%.' x q 7 4 2 2 u X ",
"( =.%.*.*.o.o.` y 7 4 2 > : e X ",
"( *.*.%.%.%.X.] B l h p u e w X ",
"/ ^ ~ ! Q E R U + + O O X X . . ",
"2.2.2.2.2.2.2.2.2.2.2.2.2.2.2.2.",
"2.2.2.2.2.2.2.2.2.2.2.2.2.2.2.2."
};
