/* XPM */
static const char *MU_xpm[] = {
/* columns rows colors chars-per-pixel */
"16 16 162 2",
"   c black",
".  c #000017170000",
"X  c #000019190000",
"o  c #00001B1B0000",
"O  c #00001F1F0000",
"+  c #000000003F3F",
"@  c #000025250000",
"#  c #000029290000",
"$  c #00002D2D0000",
"%  c #000033330000",
"&  c #000039390000",
"*  c #00003D3D0000",
"=  c #000000004949",
"-  c #000019194B4B",
";  c #000043430000",
":  c #000049490000",
">  c #00004D4D0000",
",  c #000053530000",
"<  c #000059590000",
"1  c #00005F5F0000",
"2  c #000063630000",
"3  c #494900000000",
"4  c #49495C5C7B7B",
"5  c #4E4E60607E7E",
"6  c #000000008383",
"7  c #000000008B8B",
"8  c #20204242A7A7",
"9  c #26264242A2A2",
"0  c #25254646AAAA",
"q  c #2B2B4646A5A5",
"w  c #2B2B4B4BADAD",
"e  c #31314C4CA8A8",
"r  c #37375151ABAB",
"t  c #3C3C5555AEAE",
"y  c #30305050B0B0",
"u  c #36365555B2B2",
"i  c #3B3B5A5AB5B5",
"p  c #3F3F5D5DB4B4",
"a  c #44445C5CAFAF",
"s  c #42425A5AB0B0",
"d  c #41415F5FB7B7",
"f  c #47475F5FB3B3",
"g  c #525264648282",
"h  c #565668688585",
"j  c #5A5A6C6C8888",
"k  c #5F5F70708C8C",
"l  c #46466363BABA",
"z  c #4B4B6363B6B6",
"x  c #4B4B6767BCBC",
"c  c #51516767B7B7",
"v  c #50506C6CBFBF",
"b  c #54546B6BBABA",
"n  c #58586E6EBCBC",
"m  c #5C5C7171BEBE",
"M  c #636373738D8D",
"N  c #646475758F8F",
"B  c #686879799292",
"V  c #6D6D7C7C9696",
"C  c #71717F7F9999",
"Z  c #54547070C0C0",
"A  c #58587272C2C2",
"S  c #0F0F8B8B0000",
"D  c #2C2C9E9E2C2C",
"F  c #2F2F9F9F2F2F",
"G  c #3232A2A23232",
"H  c #3535A4A43535",
"J  c #3939A5A53939",
"K  c #3D3DA8A83D3D",
"L  c #6161B9B90000",
"P  c #4242AAAA4242",
"I  c #4646ADAD4646",
"U  c #4B4BAFAF4B4B",
"Y  c #5050B2B25050",
"T  c #5454B4B45555",
"R  c #5858B7B75858",
"E  c #5D5DB9B95D5D",
"W  c #6161BBBB6262",
"Q  c #757583839C9C",
"!  c #797987879F9F",
"~  c #76768B8BCDCD",
"^  c #79798A8AC9C9",
"/  c #878700000000",
"(  c #A7A700000000",
")  c #ABAB00000000",
"_  c #AFAF00000000",
"`  c #B1B100000000",
"'  c #B3B300000000",
"]  c #B7B700000000",
"[  c #B9B900000000",
"{  c #BDBD00000000",
"}  c #A5A52C2C4141",
"|  c #A8A831314646",
" . c #AAAA37374B4B",
".. c #ADAD3C3C5050",
"X. c #B0B042425454",
"o. c #B3B347475959",
"O. c #B1B149495B5B",
"+. c #B5B54C4C5E5E",
"@. c #B8B851516262",
"#. c #B9B954546666",
"$. c #BBBB59596969",
"%. c #BDBD5C5C6D6D",
"&. c #BEBE5F5F7070",
"*. c #C1C100000000",
"=. c #C3C300000000",
"-. c #C7C700000000",
";. c #CDCD00000000",
":. c #DCDC4E4E4E4E",
">. c #DDDD53535353",
",. c #DEDE57575757",
"<. c #E0E05C5C5C5C",
"1. c #E1E160606060",
"2. c #E2E265656565",
"3. c #E3E369696969",
"4. c #E5E56D6D6D6D",
"5. c #E6E670707171",
"6. c #E7E774747474",
"7. c #E8E877777777",
"8. c #E8E879797979",
"9. c #E8E87B7B7B7B",
"0. c #E9E97B7B7B7B",
"q. c #C9C97B7B8888",
"w. c #8888C5C50B0B",
"e. c #8B8BC7C70E0E",
"r. c #8E8EC8C81313",
"t. c #9191CACA1919",
"y. c #9494CCCC1E1E",
"u. c #9696CECE2323",
"i. c #9A9ACDCD2F2F",
"p. c #9999D0D02929",
"a. c #9C9CD1D12E2E",
"s. c #9F9FD3D33434",
"d. c #A2A2D5D53A3A",
"f. c #A6A6D7D73F3F",
"g. c #A8A8D9D94444",
"h. c #B9B9E0E06666",
"j. c #DFDFDFDF0000",
"k. c #E3E3E3E30000",
"l. c #FBFBFBFB0000",
"z. c #FDFDFDFD0000",
"x. c #F2F2F2F21010",
"c. c #F2F2F2F21414",
"v. c #F3F3F3F31919",
"b. c #F4F4F4F41F1F",
"n. c #F5F5F5F52424",
"m. c #F6F6F6F62A2A",
"M. c #F7F7F7F72F2F",
"N. c #F3F3F3F33232",
"B. c #F4F4F4F43636",
"V. c #F8F8F8F83434",
"C. c #F8F8F8F83535",
"Z. c #F9F9F9F93A3A",
"A. c #FAFAFAFA3F3F",
"S. c #FAFAFAFA4040",
"D. c #FBFBFBFB4545",
"F. c #FBFBFBFB4949",
"G. c #FBFBFCFC4949",
"H. c #FCFCFCFC4F4F",
"J. c #FCFCFCFC6A6A",
"K. c #FDFDFDFD6F6F",
"L. c #90909D9DB0B0",
"P. c None",
/* pixels */
"P.P.P.P.P.P.P.P.P.P.P.P.P.P.P.P.",
"P.P.P.P.P.P.P.P.P.P.P.P.P.P.P.P.",
"P.P.P.P.P.P.P.P.P.P.P.P.P.P.P.P.",
"-.=.=.=.=.=.{ { [ ] ' ' _ ) ( ( ",
";.0.0.0.6.6.5.4.3.2.1.<.,.>.:.) ",
"/ q.&.%.$.#.@.+.o.X... .| } O.3 ",
"6 ^ m n b c z f s t r e q 9 a + ",
"7 ~ A Z v x l d i u y w 0 8 p = ",
"- L.! Q C V B N k j h g 5 4 M   ",
"z.K.H.G.D.S.Z.C.M.m.n.b.v.c.B.k.",
"l.J.F.D.A.Z.C.M.m.n.b.v.c.x.N.j.",
"L h.g.f.d.s.a.p.u.y.t.r.e.w.i.S ",
"2 W E R T Y U I P K J H G F D . ",
"1 < , > : ; * & % $ # @ O o o o ",
"P.P.P.P.P.P.P.P.P.P.P.P.P.P.P.P.",
"P.P.P.P.P.P.P.P.P.P.P.P.P.P.P.P."
};
