/* XPM */
static char *MW_png[] = {
/* columns rows colors chars-per-pixel */
"16 16 104 2",
"   c #0006020402E6",
".  c #000402D003AB",
"X  c #002303460428",
"o  c #000004260670",
"O  c #0225046C068B",
"+  c #059A07270BD0",
"@  c #09ED09F40B78",
"#  c #0C8E0F13103D",
"$  c #19B106E00AD7",
"%  c #1C0B19671C05",
"&  c #2DE508420C3A",
"*  c #345F04790819",
"=  c #36DB05EA0AF6",
"-  c #368F064F0B6E",
";  c #33290B270CFB",
":  c #3F28113A150F",
">  c #3BD73B3B3BD3",
",  c #3C2F3D793FAA",
"<  c #1F8B4DA11F82",
"1  c #1C045B021BF5",
"2  c #1CB75F361CA8",
"3  c #1CC55F6E1CB6",
"4  c #1E7B65891E6D",
"5  c #198669C31A7E",
"6  c #2567674C1B21",
"7  c #444F03F10727",
"8  c #48AD03B10723",
"9  c #497D03FC07EE",
"0  c #48ED04580937",
"q  c #4B8E061E0A8B",
"w  c #6BB5047907B0",
"e  c #6BFE088E0A2A",
"r  c #785B05BD07EF",
"t  c #750209470A53",
"y  c #7C4D1BED0D36",
"u  c #65C53F084283",
"i  c #47124761477B",
"p  c #47AC472B47A6",
"a  c #47CB47BB47C5",
"s  c #498F4878496E",
"d  c #4C9A490F4AE7",
"f  c #500B4FBE5006",
"g  c #6AC449E54A3D",
"h  c #77EE4BBF4DE2",
"j  c #6B5F6A306B56",
"k  c #1B599AA11CF2",
"l  c #1D07A4E11EAC",
"z  c #1D30A57E1ED6",
"x  c #2D8A97191D13",
"c  c #306B8F1B3062",
"v  c #3005A0DC1E49",
"b  c #3085A1101ED2",
"n  c #30B6A1AB1EF1",
"m  c #25EFAA912775",
"M  c #3A9FA5B529A8",
"N  c #4A20BDE64B49",
"B  c #6014B651522C",
"V  c #8A70040705EA",
"C  c #8E8809150949",
"Z  c #9733074508BC",
"A  c #9374089008D3",
"S  c #A2CA02AF0474",
"D  c #A5B10669078F",
"F  c #ACDE01C403C9",
"G  c #B8051E6306AE",
"H  c #8C594BFF4CC1",
"J  c #97694C1D4D36",
"K  c #C4591FF7068A",
"L  c #D4BE011D019C",
"P  c #D4BA01B70236",
"I  c #D55A006B00A2",
"U  c #D50601B4022E",
"Y  c #D8B7016501D5",
"T  c #D7A601B50231",
"R  c #D6D00DC70E48",
"E  c #DB1A00BE012E",
"W  c #DD1500370072",
"Q  c #DFBF006C00E3",
"!  c #C48920820725",
"~  c #C53D20A4072C",
"^  c #C7302B4312F5",
"/  c #DF6A3B733BE5",
"(  c #E1C80020008E",
")  c #E445007100C8",
"_  c #EC3D00000000",
"`  c #ED6C00000000",
"'  c #EE610B110BDF",
"]  c #F1D0392539ED",
"[  c #D215533B3FC8",
"{  c #AFA9AE50AFA9",
"}  c #C88BC837C88B",
"|  c #CC99CCC5CCB9",
" . c #CC6DCCD1CCD5",
".. c #CCD0CCCDCCCA",
"X. c #CD19CD09CD19",
"o. c #CE9CCD19CD5C",
"O. c #CEE6CEEACEE6",
"+. c #D073D630D073",
"@. c #D45FCD58CD8B",
"#. c #D656CDA2CDB2",
"$. c #D268D88FD268",
"%. c #D54FD4D9D54F",
"&. c #D3D5E092D3D5",
"*. c gray100",
/* pixels */
"*.*.*.*.*.*.*.*.*.*.*.*.*.*.*.*.",
"*.*.*.*.*.*.*.*.*.*.*.*.*.*.*.*.",
"%.X.X.X. . .X.@.#.X.X.X.X.X.} { ",
"j f p a s s g H J h d p p p > % ",
", # X O + $ e Z D t & O . X . @ ",
"g q * - - q r S F V w 0 8 8 7 ; ",
"/ R P P P T E E W W ( ( ) ) T C ",
"] ' ) _ _ _ _ _ _ _ _ _ _ _ E A ",
"[ ^ K ! K ~ K ~ ~ ~ ~ ~ ~ ~ G y ",
"B M v v v b v b b b b b b b x 6 ",
"N m l l l l l l l l l l l l k 5 ",
"c 4 3 3 3 3 3 3 3 3 3 3 3 3 1 < ",
"&.+.+.+.+.+.+.+.+.+.+.+.+.+.+.$.",
"*.*.*.*.*.*.*.*.*.*.*.*.*.*.*.*.",
"*.*.*.*.*.*.*.*.*.*.*.*.*.*.*.*.",
"*.*.*.*.*.*.*.*.*.*.*.*.*.*.*.*."
};
