/* XPM */
static char *MY_png[] = {
/* columns rows colors chars-per-pixel */
"16 16 122 2",
"   c #35A43A0C7DA7",
".  c #3B3C3BC87BCC",
"X  c #635332E232E2",
"o  c #7897328F328F",
"O  c #7E2733D533D5",
"+  c #41B840D177C0",
"@  c #501F42617ABF",
"#  c #481C63627CA6",
"$  c #489A65757CFD",
"%  c #5F2475816C7B",
"&  c #59FD74337D5B",
"*  c #623356A162BA",
"=  c #660E5AB060D4",
"-  c #657278B66C1B",
";  c #69737A116777",
":  c #6C257CDC6458",
">  c #19A7456A9965",
",  c #24EE4D7494C1",
"<  c #2EF658E58B5D",
"1  c #395F4B968F00",
"2  c #37735012933B",
"3  c #305558F18BD5",
"4  c #39B5515B9240",
"5  c #452A462A821C",
"6  c #4EC17044AFFE",
"7  c #4F9970E2B014",
"8  c #4D22723DB1C1",
"9  c #5DC47DB0B1CC",
"0  c #661F682D9AB9",
"q  c #7B7988C869B0",
"w  c #686782E4ACD3",
"e  c #6D9F869FA9B4",
"r  c #706D896EAFE7",
"t  c #716C80F4AFAA",
"y  c #7B949408C17F",
"u  c #86F135D635D6",
"i  c #96B143894389",
"p  c #97B849B549B5",
"a  c #90C1529C529C",
"s  c #984F55A955A9",
"d  c #98D459965996",
"f  c #996E5E495E49",
"g  c #9A495D025D02",
"h  c #BC00538D538D",
"j  c #D22E4A155775",
"k  c #D45F4C0C5679",
"l  c #D4F64C6355CD",
"z  c #D90F4E8856AA",
"x  c #D70E54FE5E11",
"c  c #D81E76917691",
"v  c #D56574147F6E",
"b  c #DF10758A7C91",
"n  c #E2445DA95DA9",
"m  c #ED175F2B6082",
"M  c #E3BB67996799",
"N  c #E4E37AD87AD8",
"B  c #E6737E7A7E7F",
"V  c #E6897EAB7EAD",
"C  c #E75C7F237F23",
"Z  c #F196641E641E",
"A  c #F1E4647F645D",
"S  c #F27364756475",
"D  c #F31A6E696E6A",
"F  c #F3C66F116ED8",
"G  c #F3FC6ED66ED6",
"H  c #F6AC712F7005",
"J  c #F73671556FE8",
"K  c #F73A717F7014",
"L  c #F77A789C773D",
"P  c #D71679B48240",
"I  c #843B8BA255F3",
"U  c #88B2900754B1",
"Y  c #8CD393E35D10",
"T  c #9369990D4D16",
"R  c #9EA3A0854648",
"E  c #DA70CB9F1C54",
"W  c #90A39E0192E8",
"Q  c #A2DDA8968703",
"!  c #CB6788B488B4",
"~  c #D1D580AE8901",
"^  c #D58181928C7A",
"/  c #E61E810E810E",
"(  c #E6DB83918391",
")  c #E6A588568856",
"_  c #EABE83C883CD",
"`  c #F451833F833F",
"'  c #F53283BB83BB",
"]  c #F75E8456834C",
"[  c #F4F18C3F8C42",
"{  c #F5BF89C989C9",
"}  c #F6A28A4B8A4B",
"|  c #F4F58C428C42",
" . c #F82F8B158A1A",
".. c #F7E08D688C40",
"X. c #F5DA8CB68CB6",
"o. c #F63F91949194",
"O. c #F723921F921F",
"+. c #F8B5928A917B",
"@. c #F53295BA95BD",
"#. c #F94592CD91BF",
"$. c #E10EAA8CB19C",
"%. c #F682B445B445",
"&. c #F941B74BB74B",
"*. c #F92DB802B802",
"=. c #FB3EB8FAB82B",
"-. c #D957D880D880",
";. c #DA51D94CD94C",
":. c #DBEDDA2CDA2C",
">. c #D8A3DA47E73C",
",. c #D21CDABBEB4B",
"<. c #D282DB84EB29",
"1. c #D410DC50EC24",
"2. c #D555DCD5E912",
"3. c #D5D0DD68E8ED",
"4. c #DE6EE30DE36E",
"5. c #DA5EE139EDB6",
"6. c #FBBCD0B2D0B2",
"7. c #F6D8D526D751",
"8. c #FBC3D48DD48D",
"9. c #FC79D470D43D",
"0. c #E7BBE3C4E3C4",
"q. c gray100",
/* pixels */
"q.q.q.q.q.q.q.q.q.q.q.q.q.q.q.q.",
"q.q.q.q.q.q.q.q.q.q.q.q.q.q.q.q.",
"5.1.2.4.2.<.<.>.7.8.8.8.8.8.6.*.",
"y r Q W e w 9 t $.=.*.*.*.*.%.! ",
"7 q U , - R $ 4 ~ | | | [ | ( g ",
"6 Y : > I E % 1 v ] ` ` ` ` N s ",
"7 & T < # ; < 2 ^ ....O.O...) g ",
"0 5 * = + .   @ P ..{ [ [ [ ( d ",
"b x j l l l l z Z A A Z Z A n i ",
"..L K K K K K G D D D D D D M p ",
"@._ V V V V V V V V V V V C c a ",
"h u O O O O O O O O O O O O o X ",
"0.;.;.;.-.-.-.-.-.-.-.;.;.;.-.;.",
"q.q.q.q.q.q.q.q.q.q.q.q.q.q.q.q.",
"q.q.q.q.q.q.q.q.q.q.q.q.q.q.q.q.",
"q.q.q.q.q.q.q.q.q.q.q.q.q.q.q.q."
};
