/* XPM */
static const char *MZ_xpm[] = {
/* columns rows colors chars-per-pixel */
"16 16 171 2",
"   c black",
".  c gray10",
"X  c gray12",
"o  c #141416162222",
"O  c #19191B1B2626",
"+  c #1F1F21212B2B",
"@  c #252525252525",
"#  c #2A2A2B2B2B2B",
"$  c #242426263131",
"%  c #2A2A2C2C3636",
"&  c #2F2F31313B3B",
"*  c #313128283131",
"=  c #36362D2D3636",
"-  c gray19",
";  c gray21",
":  c #3B3B33333B3B",
">  c gray23",
",  c #353536364040",
"<  c #363637374141",
"1  c #00004D4D0000",
"2  c #000051510000",
"3  c #00005D5D0000",
"4  c #000061610000",
"5  c #000063630000",
"6  c #000067670000",
"7  c #00006D6D0000",
"8  c #000071710000",
"9  c #000075750000",
"0  c #000079790000",
"q  c #00007D7D0000",
"w  c #404037374040",
"e  c #46463C3C4545",
"r  c #55553C3C4646",
"t  c #4B4B42424B4B",
"y  c #4E4E46464E4E",
"u  c #505047475050",
"i  c #6A6A4C4C5454",
"p  c #6C6C72726E6E",
"a  c #000081810000",
"s  c #000083830000",
"d  c #000085850000",
"f  c #000087870000",
"g  c #000089890000",
"h  c #000091910000",
"j  c #2C2CA8A82C2C",
"k  c #3131ABAB3131",
"l  c #3737AEAE3737",
"z  c #3D3DB0B03D3D",
"x  c #4242B3B34242",
"c  c #4747B5B54747",
"v  c #4949B3B34949",
"b  c #4C4CB7B74C4C",
"n  c #4E4EB4B44E4E",
"m  c #5353B7B75353",
"M  c #5151BABA5151",
"N  c #5454BCBC5454",
"B  c #5858B9B95757",
"V  c #5C5CBBBB5C5C",
"C  c #6161BEBE6060",
"Z  c #5959C1C15959",
"A  c #6565C0C06565",
"S  c #6969C2C26969",
"D  c #6D6DC3C36D6D",
"F  c #7070C5C57171",
"G  c #7474C7C77474",
"H  c #7777C8C87777",
"J  c #7979CECE7979",
"K  c #8D8D2F2F0000",
"L  c #91917E7E7474",
"P  c #BCBC40404040",
"I  c #E7E700000000",
"U  c #EFEF00000000",
"Y  c #F5F500000000",
"T  c #F7F700000000",
"R  c #F9F900000000",
"E  c red",
"W  c #F5F515150000",
"Q  c #C2C242424B4B",
"!  c #CFCF51515959",
"~  c #FBFB46464646",
"^  c #FAFA45454848",
"/  c #FAFA4D4D4444",
"(  c #FBFB4A4A4949",
")  c #FBFB55554545",
"_  c #FCFC57574B4B",
"`  c #FDFD56565555",
"'  c #F9F959595959",
"]  c #E5E56A6A5454",
"[  c #F0F067675F5F",
"{  c #FEFE68685C5C",
"}  c #FCFC66666666",
"|  c #FBFB7B7B6262",
" . c #FCFC7A7A6A6A",
".. c #FEFE79797979",
"X. c #FFFF7B7B7A7A",
"o. c #8F8FA0A05C5C",
"O. c #9191BEBE7B7B",
"+. c #BBBBAFAF7F7F",
"@. c #DDDD81810000",
"#. c #DDDD83830000",
"$. c #DDDD87870000",
"%. c #DFDF87870000",
"&. c #DDDD89890000",
"*. c #DFDF95950000",
"=. c #E1E18B8B0000",
"-. c #E3E38F8F0000",
";. c #E5E591910000",
":. c #E7E793930000",
">. c #E9E999990000",
",. c #EBEB9D9D0000",
"<. c #EDED9F9F0000",
"1. c #FAFA9E9E3F3F",
"2. c #EDEDA3A30000",
"3. c #EFEFA7A70000",
"4. c #F3F3A1A10000",
"5. c #F1F1B7B70000",
"6. c #CDCD83837676",
"7. c #DFDF8F8F7B7B",
"8. c #E2E287876666",
"9. c #F1F1CACA0B0B",
"0. c #F1F1CBCB0E0E",
"q. c #F2F2CCCC1313",
"w. c #F3F3CECE1919",
"e. c #F4F4D0D01E1E",
"r. c #F2F2CACA2C2C",
"t. c #F2F2CACA2F2F",
"y. c #F2F2CCCC3232",
"u. c #F3F3CDCD3535",
"i. c #F4F4CFCF3939",
"p. c #F5F5D2D22323",
"a. c #F2F2D1D12F2F",
"s. c #F6F6D4D42929",
"d. c #F7F7D6D62E2E",
"f. c #F5F5D0D03D3D",
"g. c #F8F8D8D83434",
"h. c #F9F9DBDB3A3A",
"j. c #EEEEC5C55858",
"k. c #F2F2C9C95E5E",
"l. c #FAFAC4C45D5D",
"z. c #F6F6D2D24242",
"x. c #F7F7D3D34646",
"c. c #F7F7D5D54B4B",
"v. c #F8F8D7D75050",
"b. c #F9F9D9D95555",
"n. c #E6E6C9C97777",
"m. c #F4F4CFCF6464",
"M. c #F9F9E1E15858",
"N. c #B9B9CDCDB9B9",
"B. c #DFDFD8D8BFBF",
"V. c #DEDEE7E7DEDE",
"C. c #E0E0DADAC1C1",
"Z. c #E2E2DBDBC4C4",
"A. c #E2E2DDDDC6C6",
"S. c #E2E2DDDDC8C8",
"D. c #E4E4D8D8CACA",
"F. c #E4E4DEDEC8C8",
"G. c #F9F9D5D5C2C2",
"H. c #E5E5E0E0CACA",
"J. c #E6E6E2E2CCCC",
"K. c #E6E6E3E3CDCD",
"L. c #EAEAE5E5CFCF",
"P. c #E0E0E9E9E0E0",
"I. c #E1E1EAEAE1E1",
"U. c #E2E2EBEBE2E2",
"Y. c #E3E3EBEBE3E3",
"T. c #E4E4EDEDE4E4",
"R. c #E5E5EEEEE5E5",
"E. c #E7E7EFEFE7E7",
"W. c #E8E8F0F0E8E8",
"Q. c #E9E9F1F1E9E9",
"!. c None",
/* pixels */
"!.!.!.!.!.!.!.!.!.!.!.!.!.!.!.!.",
"!.!.!.!.!.!.!.!.!.!.!.!.!.!.!.!.",
"!.!.!.!.!.!.!.!.!.!.!.!.!.!.!.!.",
"K d h g g a a q 0 9 8 7 6 4 3 4 ",
"E 7.O.J G G F D D C C V B M b 1 ",
"E X.[ o.Z N M b c x z l k j n 1 ",
"E X.{ ' D.Q.Q.E.T.T.T.U.U.V.U.N.",
"Y 6.j.] ` ! i u t e : : = * y   ",
"U n.p k._ ~ P > ; - # @ X . >   ",
"I L m.8.~ Q r < & % $ $ o o <   ",
"T  .( ) G.L.K.J.J.F.S.A.C.B.S.+.",
"T } / 1.h.g.d.s.p.w.w.q.0.9.a.;.",
"T | l.M.b.v.c.x.z.f.i.u.y.t.t.@.",
"W 4.5.4.2.<.,.>.:.;.-.=.&.&.@.&.",
"!.!.!.!.!.!.!.!.!.!.!.!.!.!.!.!.",
"!.!.!.!.!.!.!.!.!.!.!.!.!.!.!.!."
};
