/* XPM */
static const char *NA_xpm[] = {
/* columns rows colors chars-per-pixel */
"16 16 160 2",
"   c black",
".  c #000027270000",
"X  c #000029290000",
"o  c #00002D2D0000",
"O  c #00002F2F0000",
"+  c #000031310000",
"@  c #000033330000",
"#  c #000035350000",
"$  c #000039390000",
"%  c #00003B3B0000",
"&  c #00003D3D0000",
"*  c #00003F3F0000",
"=  c #000000007373",
"-  c #000000007979",
";  c #000000007D7D",
":  c #000041410000",
">  c #000047470000",
",  c #000049490000",
"<  c #00005B5B0000",
"1  c #000065650000",
"2  c #000000008181",
"3  c #000000008383",
"4  c #000000008787",
"5  c #000000008989",
"6  c #000000008D8D",
"7  c #000000009191",
"8  c #51515151B7B7",
"9  c #53535353BBBB",
"0  c #56565555BCBC",
"q  c #58585757B5B5",
"w  c #5A5A5A5ABABA",
"e  c #6F6F6A6AAEAE",
"r  c #79797070A3A3",
"t  c #7D7D7575A1A1",
"y  c #7C7C7575A6A6",
"u  c #67676767C6C6",
"i  c #69696969C0C0",
"p  c #6D6D6D6DC3C3",
"a  c #6F6F6F6FC3C3",
"s  c #70707070C5C5",
"d  c #72727272C6C6",
"f  c #74747474C7C7",
"g  c #75757777CACA",
"h  c #77777676C8C8",
"j  c #7D7D7B7BC5C5",
"k  c #7E7E7D7DCACA",
"l  c #0B0B95950B0B",
"z  c #0F0F97970E0E",
"x  c #101097971010",
"c  c #131399991313",
"v  c #141499991414",
"b  c #14149A9A1414",
"n  c #19199B9B1919",
"m  c #1A1A9A9A1A1A",
"M  c #18189C9C1919",
"N  c #19199C9C1919",
"B  c #1F1F9C9C1F1F",
"V  c #1E1E9E9E1E1E",
"C  c #2525A1A12525",
"Z  c #2C2CA2A22C2C",
"A  c #2F2FA4A42F2F",
"S  c #3232A5A53232",
"D  c #3232A6A63232",
"F  c #3333A6A63232",
"G  c #3535A8A83535",
"H  c #3636A8A83636",
"J  c #3939A9A93939",
"K  c #3B3BAAAA3B3B",
"L  c #3F3FABAB3F3F",
"P  c #3D3DACAC3D3D",
"I  c #3F3FB1B14242",
"U  c #4242AEAE4242",
"Y  c #4646AEAE4646",
"T  c #5555BCBC5C5C",
"R  c #7C7CCBCB8383",
"E  c #EBEB00000000",
"W  c #EDED00000000",
"Q  c #EFEF00000000",
"!  c #F1F100000000",
"~  c #F3F300000000",
"^  c #F5F500000000",
"/  c #F7F70D0D0707",
"(  c #F6F62C2C2D2D",
")  c #F7F730303030",
"_  c #F7F731313131",
"`  c #F8F835353535",
"'  c #F8F836363636",
"]  c #F8F837373636",
"[  c #F8F837373737",
"{  c #F9F93A3A3A3A",
"}  c #F9F93B3B3A3A",
"|  c #F9F93B3B3B3B",
" . c #F9F93B3B3C3C",
".. c #FAFA3F3F3F3F",
"X. c #F8F83D3D4343",
"o. c #F7F741414848",
"O. c #F7F74E4E4E4E",
"+. c #FAFA42424040",
"@. c #FAFA4B4B4545",
"#. c #F6F64C4C5353",
"$. c #F9F950504A4A",
"%. c #F8F853535353",
"&. c #FAFA5D5D5656",
"*. c #F9F95B5B5F5F",
"=. c #FAFA5D5D5D5D",
"-. c #F9F961615F5F",
";. c #FBFB61616262",
":. c #F8F866666D6D",
">. c #FBFB70706B6B",
",. c #F7F777777A7A",
"<. c #F9F978787474",
"1. c #F7F7DADA5D5D",
"2. c #EDEDD2D26666",
"3. c #ECECD2D26B6B",
"4. c #F4F4D9D96262",
"5. c #94948F8FB9B9",
"6. c #85858282C3C3",
"7. c #84848282C5C5",
"8. c #8C8C8888C1C1",
"9. c #8F8F9595D6D6",
"0. c #91919595D3D3",
"q. c #9B9B9F9FD8D8",
"w. c #A3A3A8A8DEDE",
"e. c #B5B5BABAE3E3",
"r. c #8181C9C98989",
"t. c #8888D0D08D8D",
"y. c #9696D5D59C9C",
"u. c #ABABDDDDAFAF",
"i. c #B9B9C7C7ADAD",
"p. c #CBCBA9A99393",
"a. c #F6F686868888",
"s. c #FAFA8C8C8A8A",
"d. c #F9F99F9F9F9F",
"f. c #EDEDB2B2ADAD",
"g. c #F7F7A9A9ABAB",
"h. c #F3F3B2B2AEAE",
"j. c #D7D7BBBBCDCD",
"k. c #ECECC0C0BBBB",
"l. c #DDDDD7D7E7E7",
"z. c #C5C5E2E2C5C5",
"x. c #C7C7E3E3C7C7",
"c. c #D1D1E5E5D0D0",
"v. c #DEDEE2E2D5D5",
"b. c #DDDDEAEADCDC",
"n. c #E9E9CBCBC4C4",
"m. c #E2E2D8D8CCCC",
"M. c #E2E2DFDFD3D3",
"N. c #F9F9C1C1C2C2",
"B. c #F3F3D0D0D3D3",
"V. c #F1F1D3D3D7D7",
"C. c #F2F2DDDDE1E1",
"Z. c #EBEBE1E1EBEB",
"A. c #ECECE7E7EFEF",
"S. c #E0E0E1E1F2F2",
"D. c #E1E1E2E2F2F2",
"F. c #E4E4E4E4F2F2",
"G. c #EAEAEAEAF4F4",
"H. c #EDEDE9E9F1F1",
"J. c #F2F2E4E4E9E9",
"K. c None",
/* pixels */
"K.K.K.K.K.K.K.K.K.K.K.K.K.K.K.K.",
"K.K.K.K.K.K.K.K.K.K.K.K.K.K.K.K.",
"K.K.K.K.K.K.K.K.K.K.K.K.K.K.K.K.",
"7 5 6 7 5 3 3 ; - = 4 0.j.~ W W ",
"4 k 8.5.j f s p i q.G.B.-.%.O.E ",
"6 7.3.4.y 0 8 w e.Z.<.] _ ( g.i.",
"6 6.2.1.t 8 h F.V.$.] _ #.n.z.< ",
"4 h e r q w.A.s. .] _ a.v.R L * ",
"4 d 9 u D.C.&.{ ] X.k.x.I m K * ",
"- p 9.H.d.+.{ ] ,.M.y.C m v H @ ",
"5 D.J.>...{ X.f.c.T V M v x D + ",
"l.N.@...{ :.m.u.D V M v x l A o ",
"/ ;.=.*.h.b.t.Y U P J H S A Z X ",
"^ ^ ~ p.r.1 , > * * % @ o o X @ ",
"K.K.K.K.K.K.K.K.K.K.K.K.K.K.K.K.",
"K.K.K.K.K.K.K.K.K.K.K.K.K.K.K.K."
};
