/* XPM */
static const char *NC_xpm[] = {
/* columns rows colors chars-per-pixel */
"16 16 157 2",
"   c black",
".  c #000005050000",
"X  c #00000D0D0000",
"o  c #000015150000",
"O  c #00001B1B0000",
"+  c #000023230000",
"@  c #000029290000",
"#  c #000031310000",
"$  c #000037370000",
"%  c #252500003535",
"&  c #0B0B6D6D3939",
"*  c #0F0F6F6F3C3C",
"=  c #10106F6F3D3D",
"-  c #131372724040",
";  c #141472724141",
":  c #181875754545",
">  c #191975754545",
",  c #1E1E79794949",
"<  c #1F1F79794949",
"1  c #23237C7C4E4E",
"2  c #24247D7D4E4E",
"3  c #2C2C7F7F5353",
"4  c #71711D1D7D7D",
"5  c #474747473434",
"6  c #484848483A3A",
"7  c #4D4D4D4D3A3A",
"8  c #545455552F2F",
"9  c #535352523F3F",
"0  c #5C5C5E5E4040",
"q  c #50507F7F6A6A",
"w  c #6D6D6D6D4646",
"e  c #727271714B4B",
"r  c #767676765050",
"t  c #767676765151",
"y  c #00000000A5A5",
"u  c #00000000A9A9",
"i  c #00000505ADAD",
"p  c #00000D0DAFAF",
"a  c #00001515B3B3",
"s  c #00001B1BB7B7",
"d  c #00002323B9B9",
"f  c #00002929BDBD",
"g  c #00002F2FBFBF",
"h  c #00003535C3C3",
"j  c #00003939C3C3",
"k  c #00003F3FC7C7",
"l  c #00004343C9C9",
"z  c #00004747C9C9",
"x  c #00004B4BCBCB",
"c  c #0F0F4B4BC3C3",
"v  c #2F2F81815555",
"b  c #2F2F81815656",
"n  c #323283835858",
"m  c #333384845959",
"M  c #353585855B5B",
"N  c #393989895F5F",
"B  c #3D3D8B8B6262",
"V  c #42428E8E6565",
"C  c #4B4B8A8A6C6C",
"Z  c #464691916969",
"A  c #545484846E6E",
"S  c #585891917878",
"D  c #5D5DA0A07D7D",
"F  c #7676ACAC4343",
"G  c #7979A8A84040",
"H  c #6161A3A38080",
"J  c #6666A6A68484",
"K  c #4B4B8282D5D5",
"L  c #50508686D7D7",
"P  c #55558989D9D9",
"I  c #5A5A8D8DDBDB",
"U  c #5E5E9090DCDC",
"Y  c #62629494DEDE",
"T  c #64649393DBDB",
"R  c #69699696DCDC",
"E  c #6D6D9999DDDD",
"W  c #71719C9CDFDF",
"Q  c #75759F9FE1E1",
"!  c #7979A2A2E2E2",
"~  c #7C7CA5A5E3E3",
"^  c #7F7FA8A8E4E4",
"/  c #E3E300000000",
"(  c #E5E500000000",
")  c #E7E700000000",
"_  c #FDFD00000505",
"`  c #FDFD00000707",
"'  c #FDFD00000B0B",
"]  c #F2F214144141",
"[  c #F3F319194545",
"{  c #F3F31A1A4545",
"}  c #F4F41F1F4949",
"|  c #F4F41F1F4A4A",
" . c #F4F420204545",
".. c #F5F525254A4A",
"X. c #F5F524244F4F",
"o. c #F5F525254E4E",
"O. c #F6F62B2B4F4F",
"+. c #F6F62B2B5353",
"@. c #F6F62A2A5454",
"#. c #F7F730305353",
"$. c #F7F730305959",
"%. c #F4F436365C5C",
"&. c #F8F836365959",
"*. c #F4F43B3B6060",
"=. c #F5F53F3F6060",
"-. c #98986161A0A0",
";. c #9B9B6565A3A3",
":. c #9E9E6969A6A6",
">. c #A1A16D6DA9A9",
",. c #A4A47171ABAB",
"<. c #A6A67777ADAD",
"1. c #919191913434",
"2. c #989898984040",
"3. c #9B9B9B9B4545",
"4. c #9E9E9E9E4B4B",
"5. c #A0A0A0A04F4F",
"6. c #A4A4A4A45454",
"7. c #A8A8C7C75353",
"8. c #B7B7D4D47979",
"9. c #FCFCB9B97B7B",
"0. c #F5F5C1C13A3A",
"q. c #F5F5F5F52F2F",
"w. c #F8F8F1F13737",
"e. c #F8F8F8F83535",
"r. c #F9F9F9F93A3A",
"t. c #F9F9F9F93B3B",
"y. c #D3D3D7D75050",
"u. c #DEDEE2E27070",
"i. c #F7F7C6C64444",
"p. c #ECECEEEE5B5B",
"a. c #FAFAFAFA4141",
"s. c #FBFBFBFB4646",
"d. c #F9F9F9F94848",
"f. c #FBFBF9F94F4F",
"g. c #FBFBFCFC4949",
"h. c #FCFCFCFC4B4B",
"j. c #F1F1F1F15A5A",
"k. c #FDFDFDFD5353",
"l. c #FCFCFCFC5454",
"z. c #FDFDFDFD5454",
"x. c #FBFBF9F95858",
"c. c #FEFEFEFE5959",
"v. c #FCFCEEEE7575",
"b. c #F5F5F5F56161",
"n. c #9F9FBCBCA8A8",
"m. c #9898ADADCACA",
"M. c #9999AEAEC9C9",
"N. c #8383AAAAE5E5",
"B. c #8989A4A4E1E1",
"V. c #8F8FAAAAE2E2",
"C. c #8F8FB3B3E8E8",
"Z. c #8F8FB3B3E9E9",
"A. c #C6C6A8A88686",
"S. c #FDFDBEBE8383",
"D. c #C2C2CFCF9595",
"F. c #E2E2D0D09E9E",
"G. c None",
/* pixels */
"G.G.G.G.G.G.G.G.G.G.G.G.G.G.G.G.",
"G.G.G.G.G.G.G.G.G.G.G.G.G.G.G.G.",
"G.G.G.G.G.G.G.G.G.G.G.G.G.G.G.G.",
"x x x x z l k j h g f d s a p i ",
"c Z.Z.V.M.M.B.N.^ ~ ! Q W E R u ",
"x Z.D.u.j.l.p.n.Y U I P L K T y ",
"4 F.b.c.6.t h.d.A.,.>.:.;.-.<.% ",
"` S.x.k.t 4.s.a.i.&.#.O... .=.) ",
"' v.l.5.e w 1.t.w.$.+.X.| { %.) ",
"` 9.l.d.3.3.t.e.0.@.X.| { ] %./ ",
"$ 8.y.3.0 6 1.q.F 2 , > ; = m   ",
"# J 7.0 6 5 8 G 1 , > - = & b   ",
"@ D D S A A C Z V B N M m v v   ",
"+ O o X .                       ",
"G.G.G.G.G.G.G.G.G.G.G.G.G.G.G.G.",
"G.G.G.G.G.G.G.G.G.G.G.G.G.G.G.G."
};
