/* XPM */
static char *NF_xpm[] = {
/* columns rows colors chars-per-pixel */
"16 16 112 2",
"   c #0D4F3B2F0D4F",
".  c #0C383C820C38",
"X  c #0D0D3D8E0D0D",
"o  c #14E9365D14E9",
"O  c #10153DDD1015",
"+  c #083941430839",
"@  c #087A4533087A",
"#  c #08E5456508E5",
"$  c #0DA3419C0DA3",
"%  c #00005A470000",
"&  c #00005DD10000",
"*  c #00005FF20000",
"=  c #1BF244DA1BF2",
"-  c #1A365F2F1A36",
";  c #00C460D500C4",
":  c #0000640C0000",
">  c #000065480000",
",  c #000066260000",
"<  c #0000668A0000",
"1  c #019E676E019E",
"2  c #056460BB0564",
"3  c #05D7671F05D7",
"4  c #057367B30573",
"5  c #0897675A0897",
"6  c #082C6868082C",
"7  c #0A606AEF0A60",
"8  c #0DBE6C3A0DBE",
"9  c #0C2B6D9C0C2B",
"0  c #0EB96CE10EB9",
"q  c #0F286E0A0F28",
"w  c #0E656F0F0E65",
"e  c #16CC61E216CC",
"r  c #1D026EA31D02",
"t  c #1620724B1620",
"y  c #1EE375ED1EE3",
"u  c #20E976F820E9",
"i  c #239278A92392",
"p  c #25CF7B4125CF",
"a  c #28667CD32866",
"s  c #54AB682854AB",
"d  c #6D4A770E6D4A",
"f  c #6E8677CC6E86",
"g  c #73FF7B1473FF",
"h  c #2EA381BE2EA3",
"j  c #3096833C3096",
"k  c #3A4E86BD3A4E",
"l  c #3A7088703A70",
"z  c #3A2A896D3A2A",
"x  c #3ACC89BE3ACC",
"c  c #41168A924116",
"v  c #446B8D0C446B",
"b  c #45228F4C4522",
"n  c #476791274767",
"m  c #4B8E91814B8E",
"M  c #4FAA966D4FAA",
"N  c #5D919C145D91",
"B  c #5E519D855E51",
"V  c #6926A57B6926",
"C  c #6A5FA5C06A5F",
"Z  c #752AA678752A",
"A  c #7405AACA7405",
"S  c #87F1872787F1",
"D  c #88E487BB88E4",
"F  c #8B1089168B10",
"G  c #8B02B3F78B02",
"H  c #8FB7B6628FB7",
"J  c #8BA3B9088BA3",
"K  c #90EEBD8B90EE",
"L  c #981DC15A981D",
"P  c #98CFC1CB98CF",
"I  c #9AD7C3389AD7",
"U  c #9C25C4409C25",
"Y  c #A963CB38A963",
"T  c #AF00C8E0AF00",
"R  c #AD01CE0DAD01",
"E  c #AF3DCF00AF3D",
"W  c #B76ACE89B76A",
"Q  c #B4FED2AEB4FE",
"!  c #BD5CD80EBD5C",
"~  c #C198D499C198",
"^  c #C83ADE97C83A",
"/  c #CF35D360CF35",
"(  c #D071D3F3D071",
")  c #CC39E0C9CC39",
"_  c #D074DD07D074",
"`  c #D10DD57ED10D",
"'  c #D539D6ECD539",
"]  c #D77BD836D77B",
"[  c #D0E1DA1DD0E1",
"{  c #D956D961D956",
"}  c #CC97E145CC97",
"|  c #CCF1E165CCF1",
" . c #CDFFE198CDFF",
".. c #CE73E22CCE73",
"X. c #CEEAE26ECEEA",
"o. c #D013E306D013",
"O. c #D305E445D305",
"+. c #D49DE60AD49D",
"@. c #D833E1A3D833",
"#. c #DBEBEA57DBEB",
"$. c #DF1AEBF4DF1A",
"%. c #E452EF6CE452",
"&. c #EB2CF37AEB2C",
"*. c #EC14F3F4EC14",
"=. c #EEA1F583EEA1",
"-. c #F5D3F9EDF5D3",
";. c #F616FA02F616",
":. c #F8A2FB9AF8A2",
">. c #FD6CFE5AFD6C",
",. c #FF1BFF8CFF1B",
"<. c #FFFDFFFFFFFD",
"1. c gray100",
/* pixels */
"1.1.1.1.1.1.1.1.1.1.1.1.1.1.1.1.",
"1.1.1.1.1.1.1.1.1.1.1.1.1.1.1.1.",
"+.) ) O.;.1.1.1.1.1.1.&.) ) ^ R ",
"C M b N #.1.1.*.*.1.1.Q m b x e ",
"x w , u ) 1.;.J Y 1.1.K 7 , : # ",
"x w : y ) 1.) k N *.1.U 3 , & # ",
"x 7 , y ) 1.K h a W 1.K 3 , & # ",
"x 7 , y O.:.C t w A 1.K 3 , : # ",
"x 7 , y O.$.v w w x %.U 3 , : # ",
"x w , y ) R u 3 7 p ! U 3 , & # ",
"h 5 & r ~ [ T Z G W @.H * & % # ",
"- $ . = f D D d g F D s O     o ",
"[ / / ` ' { { { { { { ' ` / / ` ",
"1.1.1.1.1.1.1.1.1.1.1.1.1.1.1.1.",
"1.1.1.1.1.1.1.1.1.1.1.1.1.1.1.1.",
"1.1.1.1.1.1.1.1.1.1.1.1.1.1.1.1."
};
