/* XPM */
static const char *NF_xpm[] = {
/* columns rows colors chars-per-pixel */
"16 16 147 2",
"   c black",
".  c #000005050000",
"X  c #00000D0D0000",
"o  c #000013130000",
"O  c #000019190000",
"+  c #000021210000",
"@  c #000027270000",
"#  c #00002F2F0000",
"$  c #000035350000",
"%  c #00003B3B0000",
"&  c #00003D3D0000",
"*  c #000041410000",
"=  c #000043430000",
"-  c #0B0B67670B0B",
";  c #0F0F6A6A0E0E",
":  c #10106A6A1010",
">  c #14146E6E1414",
",  c #191970701919",
"<  c #1A1A70701A1A",
"1  c #1F1F74741F1F",
"2  c #202075752020",
"3  c #252578782525",
"4  c #26267A7A2626",
"5  c #2A2A73732A2A",
"6  c #2F2F77772F2F",
"7  c #2B2B7C7C2B2B",
"8  c #2C2C7B7B2C2C",
"9  c #2C2C7C7C2C2C",
"0  c #2F2F7C7C2F2F",
"q  c #2F2F7D7D2F2F",
"w  c #32327F7F3232",
"e  c #33337F7F3232",
"r  c #35357C7C3535",
"t  c #35357E7E3535",
"y  c #3A3A7F7F3A3A",
"u  c #313181813131",
"i  c #363682823636",
"p  c #3B3B85853B3B",
"a  c #3D3D83833D3D",
"s  c #3F3F89893F3F",
"d  c #3F3F8A8A3F3F",
"f  c #414185854141",
"g  c #434386864343",
"h  c #44448C8C4444",
"j  c #44448E8E4444",
"k  c #45458E8E4545",
"l  c #4A4A8A8A4A4A",
"z  c #49498F8F4949",
"x  c #494991914949",
"c  c #4E4E93934E4E",
"v  c #4F4F95954F4F",
"b  c #50508E8E5050",
"n  c #535396965353",
"m  c #535397975353",
"M  c #545497975454",
"N  c #5A5A92925A5A",
"B  c #595994945959",
"V  c #5D5D91915D5D",
"C  c #5C5C93935C5C",
"Z  c #585898985757",
"A  c #585899995858",
"S  c #58589A9A5858",
"D  c #58589B9B5959",
"F  c #5D5D98985D5D",
"G  c #5C5C9D9D5C5C",
"H  c #5D5D9D9D5D5D",
"J  c #5F5F9F9F5F5F",
"K  c #61619F9F6262",
"L  c #63639C9C6363",
"P  c #6A6A9F9F6A6A",
"I  c #6666A3A36666",
"U  c #6A6AA5A56A6A",
"Y  c #6D6DA0A06D6D",
"T  c #6F6FA8A86F6F",
"R  c #7575A6A67575",
"E  c #7272AAAA7373",
"W  c #7676ADAD7676",
"Q  c #7B7BA7A77B7B",
"!  c #7979A9A97979",
"~  c #7A7AA8A87A7A",
"^  c #7979AEAE7979",
"/  c #7E7EACAC7E7E",
"(  c #7B7BB0B07A7A",
")  c #7B7BB0B07B7B",
"_  c #8080AAAA8080",
"`  c #8585AFAF8585",
"'  c #8686AEAE8686",
"]  c #8B8BB5B58B8B",
"[  c #9090B3B39090",
"{  c #9B9BBCBC9B9B",
"}  c #9B9BBDBD9B9B",
"|  c #A1A1C1C1A1A1",
" . c #B2B2CBCBB2B2",
".. c #B4B4CCCCB4B4",
"X. c #B6B6CFCFB6B6",
"o. c #B9B9D1D1B9B9",
"O. c #BBBBD3D3BBBB",
"+. c #BCBCD2D2BCBC",
"@. c #BEBED5D5BEBE",
"#. c #BFBFD5D5BFBF",
"$. c #C3C3CBCBC3C3",
"%. c #CBCBCFCFCBCB",
"&. c #C0C0D6D6C0C0",
"*. c #C4C4D6D6C4C4",
"=. c #C2C2D8D8C2C2",
"-. c #C4C4D9D9C4C4",
";. c #C6C6DBDBC6C6",
":. c #CBCBD1D1CBCB",
">. c #C8C8DDDDC9C9",
",. c #C9C9DDDDC9C9",
"<. c #CACADDDDCACA",
"1. c #CCCCDFDFCCCC",
"2. c #CDCDDEDECDCD",
"3. c #CECEDFDFCECE",
"4. c #D7D7D7D7D7D7",
"5. c #D7D7D9D9D5D5",
"6. c #DDDDDDDDDDDD",
"7. c #CECEE0E0CECE",
"8. c #D7D7E7E7D7D7",
"9. c #D9D9E3E3D9D9",
"0. c #E2E2EDEDE2E2",
"q. c #E5E5E9E9E5E5",
"w. c #E9E9EEEEE9E9",
"e. c #EBEBEDEDEBEB",
"r. c #EBEBEFEFEBEB",
"t. c #EFEFEFEFEFEF",
"y. c #F1F1F1F1F1F1",
"u. c #F0F0F2F2F0F0",
"i. c #F3F3F3F3F3F3",
"p. c #F1F1F6F6F1F1",
"a. c gray96",
"s. c #F5F5F6F6F5F5",
"d. c #F5F5F7F7F5F5",
"f. c #F6F6F6F6F6F6",
"g. c #F6F6F7F7F6F6",
"h. c gray97",
"j. c #F7F7F8F8F7F7",
"k. c #F8F8F9F9F7F7",
"l. c #F9F9FAFAF9F9",
"z. c gray98",
"x. c #FAFAFBFBFAFA",
"c. c #FBFBFBFBFBFB",
"v. c #FBFBFCFCFBFB",
"b. c gray99",
"n. c #FDFDFDFDFDFD",
"m. c #FDFDFDFDFEFE",
"M. c None",
/* pixels */
"M.M.M.M.M.M.M.M.M.M.M.M.M.M.M.M.",
"M.M.M.M.M.M.M.M.M.M.M.M.M.M.M.M.",
"M.M.M.M.M.M.M.M.M.M.M.M.M.M.M.M.",
"= = = = } r.i.y.r.t.q.] o X .   ",
"= ) ) ^ 8.v.n.p.0.x.x.2.Z n c   ",
"= ) J G 7.v.n./ R x.f.&.u 9 z   ",
"= ^ G D 7.x.x.L F f.h.@.7 4 h   ",
"% W Z M >.v.@.l g ` f.O.4 2 s   ",
"% E m v >.b.Q g y P f.O.1 < p   ",
"$ T v x ;.| P a r B [ X.> > i   ",
"$ U x h *.} b 8 5 r ` ..> : t   ",
"@ I j s *.r.7.C N *.9. .; ; 9   ",
"O L G Z >.f.f._ Q f.y.+.w 9 8   ",
"O O X . ! 5.6.%.$.4.%.V         ",
"M.M.M.M.M.M.M.M.M.M.M.M.M.M.M.M.",
"M.M.M.M.M.M.M.M.M.M.M.M.M.M.M.M."
};
