/* XPM */
static const char *NI_xpm[] = {
/* columns rows colors chars-per-pixel */
"16 16 148 2",
"   c black",
".  c #00000000DDDD",
"X  c #00000000DFDF",
"o  c #00000505DDDD",
"O  c #00000505DFDF",
"+  c #00000909E1E1",
"@  c #00000D0DE3E3",
"#  c #00001313E5E5",
"$  c #00001919E7E7",
"%  c #00001F1FE9E9",
"&  c #00002525EBEB",
"*  c #00002929EBEB",
"=  c #00002B2BEDED",
"-  c #00003333EDED",
";  c #00003737EFEF",
":  c #00003D3DF1F1",
">  c #00005757DFDF",
",  c #00004343F3F3",
"<  c #00004949F5F5",
"1  c #00004D4DF7F7",
"2  c #00004F4FF5F5",
"3  c #00004F4FF7F7",
"4  c #00005F5FE7E7",
"5  c #00005151F9F9",
"6  c #00005555F9F9",
"7  c #00005959FBFB",
"8  c #00005D5DFDFD",
"9  c #00006161FDFD",
"0  c #00006565FDFD",
"q  c #00006767FFFF",
"w  c #00006969FDFD",
"e  c #00006B6BFFFF",
"r  c #00007171FFFF",
"t  c #12127E7EF1F1",
"y  c #16168181F1F1",
"u  c #1B1B8484F2F2",
"i  c #1F1F8787F3F3",
"p  c #25258989F4F4",
"a  c #2A2A8D8DF5F5",
"s  c #2F2F9191F6F6",
"d  c #2F2F9797FBFB",
"f  c #32329292F2F2",
"g  c #33339393F6F6",
"h  c #36369191F2F2",
"j  c #34349393F7F7",
"k  c #35359494F2F2",
"l  c #37379595F3F3",
"z  c #35359B9BFFFF",
"x  c #38389696F7F7",
"c  c #3A3A9696F8F8",
"v  c #3B3B9898F3F3",
"b  c #3E3E9999F8F8",
"n  c #3F3F9A9AF9F9",
"m  c #40409999F4F4",
"M  c #42429C9CF5F5",
"N  c #47479E9EF6F6",
"B  c #43439D9DF9F9",
"V  c #45459D9DFAFA",
"C  c #48489F9FFAFA",
"Z  c #4B4BA1A1F7F7",
"A  c #4F4FA2A2F7F7",
"S  c #4A4AA0A0FAFA",
"D  c #4C4CA2A2FBFB",
"F  c #5050A4A4F7F7",
"G  c #5454A7A7F7F7",
"H  c #5151A5A5FCFC",
"J  c #5555A7A7F8F8",
"K  c #5656A7A7FDFD",
"L  c #5858A9A9F8F8",
"P  c #5959A9A9F9F9",
"I  c #5A5AAAAAFDFD",
"U  c #5D5DABABF9F9",
"Y  c #5E5EACACF9F9",
"T  c #5E5EACACFEFE",
"R  c #6363AAAAF2F2",
"E  c #6666ADADF2F2",
"W  c #6161AEAEFAFA",
"Q  c #6262AFAFFAFA",
"!  c #6161AEAEFEFE",
"~  c #6A6AAEAEF3F3",
"^  c #6565B0B0FBFB",
"/  c #6666B2B2FBFB",
"(  c #6464B0B0FEFE",
")  c #6A6AB0B0F5F5",
"_  c #6E6EB1B1F4F4",
"`  c #6E6EB2B2F6F6",
"'  c #6A6AB3B3FCFC",
"]  c #6B6BB2B2FCFC",
"[  c #6E6EB5B5FCFC",
"{  c #7A7AB5B5E5E5",
"}  c #7D7DB6B6E7E7",
"|  c #7F7FBCBCEFEF",
" . c #7171B3B3F4F4",
".. c #7272B5B5F7F7",
"X. c #7676B7B7F8F8",
"o. c #7171B8B8FDFD",
"O. c #7575BABAFEFE",
"+. c #7A7AB6B6F3F3",
"@. c #7C7CBBBBF7F7",
"#. c #7F7FBABAF6F6",
"$. c #7A7ABABAF9F9",
"%. c #7878BBBBFEFE",
"&. c #7B7BBDBDFEFE",
"*. c #7D7DBEBEFEFE",
"=. c #7F7FBEBEFFFF",
"-. c #7F7FBFBFFFFF",
";. c #CECE91917777",
":. c #EBEBE0E07F7F",
">. c #8282BEBEF3F3",
",. c #8080BDBDF9F9",
"<. c #ADADC3C3B1B1",
"1. c #8484C0C0FAFA",
"2. c #8585C0C0FCFC",
"3. c #8888C2C2FBFB",
"4. c #8888C2C2FDFD",
"5. c #8B8BC4C4FBFB",
"6. c #8B8BC4C4FDFD",
"7. c #8E8EC6C6FEFE",
"8. c #9090C7C7FEFE",
"9. c #A0A0CFCFFCFC",
"0. c #A4A4D2D2FEFE",
"q. c #EEEEE2E28181",
"w. c #F4F4E2E28686",
"e. c #F6F6E4E48B8B",
"r. c #F6F6E9E98989",
"t. c #F7F7E9E98A8A",
"y. c #F8F8ECEC8F8F",
"u. c #FAFAEDED9393",
"i. c #F9F9ECEC9494",
"p. c #FBFBF0F09999",
"a. c gray89",
"s. c gray90",
"d. c #E7E7E7E7E7E7",
"f. c gray95",
"g. c #F3F3F3F3F3F3",
"h. c #F4F4F4F4F4F4",
"j. c #F4F4F5F5F5F5",
"k. c gray96",
"l. c #F6F6F6F6F6F6",
"z. c gray97",
"x. c gray98",
"c. c #FBFBFBFBFBFB",
"v. c #FBFBFCFCFBFB",
"b. c gray99",
"n. c #FDFDFCFCFDFD",
"m. c #FDFDFDFDFDFD",
"M. c #FEFEFEFEFEFE",
"N. c None",
/* pixels */
"N.N.N.N.N.N.N.N.N.N.N.N.N.N.N.N.",
"N.N.N.N.N.N.N.N.N.N.N.N.N.N.N.N.",
"N.N.N.N.N.N.N.N.N.N.N.N.N.N.N.N.",
"r e e e e q 9 8 7 6 3 < , : ; ; ",
"e -.-.*.*.O.O.o.[ ' ^ W U L G * ",
"q -.( ( T I J H D V B n x g A % ",
"z 0.8.8.6.2.2.1.>.$.X...` ~ #.4 ",
"n.n.n.n.n.b.p.e.w.y.z.k.k.k.k.d.",
"n.n.n.n.n.c.u.<.;.r.k.k.k.g.k.d.",
"n.n.v.v.c.c.i.:.:.r.k.h.g.f.g.a.",
"z 8.5.2.1.#.#.} {  ._ ~ E R +.> ",
"6 ..D V n c g s a p i u y t h . ",
"3 ' W Y L J H Z N M m v l l f . ",
"3 , : ; - = & % $ # @ + O . . O ",
"N.N.N.N.N.N.N.N.N.N.N.N.N.N.N.N.",
"N.N.N.N.N.N.N.N.N.N.N.N.N.N.N.N."
};
