/* XPM */
static const char *NL_xpm[] = {
/* columns rows colors chars-per-pixel */
"16 16 138 2",
"   c black",
".  c #000000003B3B",
"X  c #000000003D3D",
"o  c #000000004141",
"O  c #000000004343",
"+  c #000000004747",
"@  c #000000004D4D",
"#  c #000000005151",
"$  c #000000005757",
"%  c #000000005B5B",
"&  c #000000005F5F",
"*  c #000000006565",
"=  c #000000006B6B",
"-  c #000000006F6F",
";  c #000000007575",
":  c #000000007B7B",
">  c #000001017F7F",
",  c #000007078181",
"<  c #000021218F8F",
"1  c #0B0B5050A1A1",
"2  c #0F0F5252A3A3",
"3  c #13135656A5A5",
"4  c #18185A5AA8A8",
"5  c #1E1E5E5EAAAA",
"6  c #23236060A9A9",
"7  c #23236262ADAD",
"8  c #28286363ACAC",
"9  c #29296666AFAF",
"0  c #2C2C6767ADAD",
"q  c #2C2C6767AEAE",
"w  c #2F2F6969AEAE",
"e  c #2F2F6A6AAEAE",
"r  c #2E2E6A6AB2B2",
"t  c #31316B6BB0B0",
"y  c #32326C6CB0B0",
"u  c #35356F6FB2B2",
"i  c #36366F6FB2B2",
"p  c #34346F6FB5B5",
"a  c #39397171B3B3",
"s  c #3B3B7373B5B5",
"d  c #3A3A7373B7B7",
"f  c #3D3D7575B6B6",
"g  c #3F3F7676B9B9",
"h  c #40407777B7B7",
"j  c #43437777B5B5",
"k  c #42427878B8B8",
"l  c #44447A7ABBBB",
"z  c #45457B7BBABA",
"x  c #46467C7CBABA",
"c  c #4A4A7E7EBCBC",
"v  c #4B4B7F7FBCBC",
"b  c #50508282BEBE",
"n  c #50508282BFBF",
"m  c #54548585C0C0",
"M  c #54548585C1C1",
"N  c #58588989C2C2",
"B  c #59598989C3C3",
"V  c #5D5D8D8DC4C4",
"C  c #61619090C6C6",
"Z  c #66669393C8C8",
"A  c #77779E9ECECE",
"S  c #E7E700000000",
"D  c #E9E900000000",
"F  c #EBEB00000000",
"G  c #EDED00000000",
"H  c #EFEF00000000",
"J  c #F1F100000000",
"K  c #F3F300000000",
"L  c #F5F500000000",
"P  c #F7F700000000",
"I  c #F9F900000000",
"U  c #FBFB00000000",
"Y  c #FDFD00000000",
"T  c red",
"R  c #FFFF15153131",
"E  c #F6F62C2C3C3C",
"W  c #F7F731314242",
"Q  c #F8F837374747",
"!  c #F9F93C3C4D4D",
"~  c #F7F749495757",
"^  c #FAFA42425151",
"/  c #FBFB47475656",
"(  c #FCFC4C4C5A5A",
")  c #FDFD51515E5E",
"_  c #F7F74E4E6060",
"`  c #F5F556566A6A",
"'  c #F6F65A5A6E6E",
"]  c #F8F853536565",
"[  c #FDFD54546363",
"{  c #F9F957576868",
"}  c #FEFE59596767",
"|  c #FAFA5C5C6D6D",
" . c #FEFE5C5C6969",
".. c #FEFE5F5F6C6C",
"X. c #F7F75F5F7272",
"o. c #F6F66D6D7F7F",
"O. c #FBFB60607070",
"+. c #F8F864647676",
"@. c #FCFC65657474",
"#. c #F9F968687A7A",
"$. c #FAFA6C6C7D7D",
"%. c #FCFC69697878",
"&. c #FDFD6D6D7B7B",
"*. c #FDFD70707F7F",
"=. c #FBFB70708181",
"-. c #FEFE74748181",
";. c #FCFC74748585",
":. c #FEFE77778484",
">. c #FEFE79798787",
",. c #FFFF7B7B8585",
"<. c #FDFD78788888",
"1. c #FDFD7B7B8B8B",
"2. c #FFFF7B7B8989",
"3. c #FEFE7F7F8F8F",
"4. c #FEFE82829191",
"5. c #FEFE9797A4A4",
"6. c gray82",
"7. c #D5D5D5D5D5D5",
"8. c #EDEDEFEFEFEF",
"9. c #EFEFEFEFEFEF",
"0. c #F1F1F1F1F1F1",
"q. c gray95",
"w. c #F3F3F3F3F3F3",
"e. c #F4F4F4F4F4F4",
"r. c #F4F4F5F5F5F5",
"t. c gray96",
"y. c #F6F6F6F6F6F6",
"u. c gray97",
"i. c #F8F8F8F8F8F8",
"p. c #F9F9F9F9F9F9",
"a. c gray98",
"s. c #FBFBFBFBFBFB",
"d. c #FBFBFCFCFBFB",
"f. c gray99",
"g. c #FDFDFCFCFDFD",
"h. c #FDFDFDFDFDFD",
"j. c #FEFEFEFEFEFE",
"k. c None",
/* pixels */
"k.k.k.k.k.k.k.k.k.k.k.k.k.k.k.k.",
"k.k.k.k.k.k.k.k.k.k.k.k.k.k.k.k.",
"k.k.k.k.k.k.k.k.k.k.k.k.k.k.k.k.",
"T T T T U T T T U U P P K K G G ",
"T 2.2.,.;.-.=.&.%.@.O.| { ] _ F ",
"T ,... .} [ ( ( / ^ ! Q W E ~ F ",
"R 5.4.3.2.<.;.=.$.%.+.X.' ` =.S ",
"0.j.j.j.j.s.s.s.p.u.u.r.r.r.r.7.",
"9.j.j.j.j.s.i.i.u.u.r.r.r.e.e.6.",
"9.j.i.f.i.j.i.i.u.u.r.r.e.e.e.6.",
"< A B m n v z h d u r q 8 6 j @ ",
", Z l g d p r 9 7 5 4 3 2 1 w . ",
"> C V N m b v x k f a u y w q . ",
": ; - = * & % $ # @ + O X X . X ",
"k.k.k.k.k.k.k.k.k.k.k.k.k.k.k.k.",
"k.k.k.k.k.k.k.k.k.k.k.k.k.k.k.k."
};
