/* XPM */
static const char *NO_xpm[] = {
/* columns rows colors chars-per-pixel */
"16 16 127 2",
"   c black",
".  c #00000000A5A5",
"X  c #00001D1DB7B7",
"o  c #03035353CFCF",
"O  c #09095959D1D1",
"+  c #4B4B8383D5D5",
"@  c #50508686D7D7",
"#  c #54548A8AD8D8",
"$  c #59598D8DD9D9",
"%  c #5D5D9090DBDB",
"&  c #62629494DDDD",
"*  c #65659494DADA",
"=  c #65659696DEDE",
"-  c #66669797DEDE",
";  c #6A6A9999E0E0",
":  c #6B6B9A9AE0E0",
">  c #6F6F9C9CE1E1",
",  c #6F6F9D9DE1E1",
"<  c #73739F9FE3E3",
"1  c #7777A3A3E4E4",
"2  c #7A7AA4A4E2E2",
"3  c #7A7AA5A5E5E5",
"4  c #7B7BA6A6E5E5",
"5  c #7E7EA8A8E7E7",
"6  c #B1B100000000",
"7  c #B5B500000000",
"8  c #B9B900000000",
"9  c #BBBB00000000",
"0  c #BDBD00000000",
"q  c #BFBF00000000",
"w  c #C3C300000000",
"e  c #C5C500000000",
"r  c #C9C900000000",
"t  c #CBCB00000000",
"y  c #CFCF00000000",
"u  c #D1D100000000",
"i  c #D5D500000000",
"p  c #D7D700000000",
"a  c #D9D900000000",
"s  c #DBDB00000000",
"d  c #DDDD00000000",
"f  c #DADA0E0E0B0B",
"g  c #DCDC11110E0E",
"h  c #DCDC12121010",
"j  c #DDDD16161313",
"k  c #DDDD17171414",
"l  c #DFDF1B1B1919",
"z  c #DFDF1C1C1919",
"x  c #DEDE2E2E2C2C",
"c  c #E1E100000000",
"v  c #E0E021211E1E",
"b  c #E0E021211F1F",
"n  c #E1E126262323",
"m  c #E2E227272424",
"M  c #E2E229292626",
"N  c #E2E22B2B2929",
"B  c #E2E22C2C2A2A",
"V  c #E4E42E2E2B2B",
"C  c #E4E42E2E2C2C",
"Z  c #E0E031312F2F",
"A  c #E4E430302E2E",
"S  c #E4E431312F2F",
"D  c #E0E034343232",
"F  c #E0E035353232",
"G  c #E2E237373535",
"H  c #E5E534343131",
"J  c #E6E637373434",
"K  c #E7E739393636",
"L  c #E7E73A3A3737",
"P  c #E2E23B3B3939",
"I  c #E8E83E3E3C3C",
"U  c #E8E83F3F3D3D",
"Y  c #E4E440403D3D",
"T  c #E4E444444242",
"R  c #E6E646464444",
"E  c #E6E649494646",
"W  c #E7E74B4B4949",
"Q  c #E7E74C4C4B4B",
"!  c #E9E943434242",
"~  c #E9E944444242",
"^  c #EAEA46464444",
"/  c #EAEA49494747",
"(  c #EBEB49494747",
")  c #EBEB4B4B4949",
"_  c #EBEB4E4E4B4B",
"`  c #EBEB4E4E4C4C",
"'  c #E8E850504E4E",
"]  c #E9E955555353",
"[  c #ECEC52525151",
"{  c #EBEB5A5A5757",
"}  c #ECEC5E5E5C5C",
"|  c #ECEC5F5F5D5D",
" . c #EFEF5D5D5C5C",
".. c #F0F061615F5F",
"X. c #EDED63636060",
"o. c #EDED64646262",
"O. c #EEEE67676565",
"+. c #EEEE68686666",
"@. c #EFEF6B6B6969",
"#. c #EFEF6D6D6A6A",
"$. c #EFEF6F6F6D6D",
"%. c #F0F072727171",
"&. c #F2F27A7A7979",
"*. c #F2F27D7D7A7A",
"=. c #F2F27D7D7B7B",
"-. c #9292B6B6EAEA",
";. c #9595B9B9EBEB",
":. c gray89",
">. c #E7E7E7E7E7E7",
",. c gray93",
"<. c #EFEFEFEFEFEF",
"1. c gray95",
"2. c #F3F3F3F3F3F3",
"3. c #F4F4F4F4F4F4",
"4. c gray96",
"5. c #F6F6F6F6F6F6",
"6. c gray97",
"7. c #F8F8F8F8F8F8",
"8. c #F9F9F9F9F9F9",
"9. c gray98",
"0. c #FBFBFBFBFBFB",
"q. c #FBFBFCFCFBFB",
"w. c gray99",
"e. c #FDFDFDFDFDFD",
"r. c #FEFEFEFEFEFE",
"t. c gray100",
"y. c None",
/* pixels */
"y.y.y.y.y.y.y.y.y.y.y.y.y.y.y.y.",
"y.y.y.y.y.y.y.y.y.y.y.y.y.y.y.y.",
"y.y.y.y.y.y.y.y.y.y.y.y.y.y.y.y.",
"c c c t.O t.d s s s p p u u r r ",
"c =.=.t.;.t.%.$.@.+.X.| { ] ' e ",
"c =.| t.5 0.[ _ ( ~ Y J H C W w ",
"c &. .t.2 t.) R ! I J H B M R q ",
"t.t.t.0.1 t.0.0.0.0.0.4.4.4.4.>.",
"o -.2 1 < : : = & $ $ # @ + * . ",
"q.t.t.0.: 0.0.6.5.5.4.4.2.1.3.:.",
"s #.( 0.: 0.J H N m v l k g F 7 ",
"s O.~ 0.& 0.C N m v l j g f Z 6 ",
"p X.| 0.2 0.W E T Y P G F Z x 6 ",
"u u y <.X ,.w q q 9 9 7 7 6 6 6 ",
"y.y.y.y.y.y.y.y.y.y.y.y.y.y.y.y.",
"y.y.y.y.y.y.y.y.y.y.y.y.y.y.y.y."
};
