/* XPM */
static const char *NP_xpm[] = {
/* columns rows colors chars-per-pixel */
"16 16 67 1",
"  c black",
". c #060609093636",
"X c #07070A0A3737",
"o c #07070B0B3838",
"O c #08080C0C3838",
"+ c #08080D0D3A3A",
"@ c #09090E0E3C3C",
"# c #0A0A0F0F3E3E",
"$ c #161612123636",
"% c #1A1A15153E3E",
"& c #0A0A10104444",
"* c #0B0B10104747",
"= c #0B0B11114949",
"- c #0E0E16165D5D",
"; c #1E1E18185555",
": c #11111A1A7272",
"> c #11111B1B7575",
", c #12121C1C7878",
"< c #13131D1D7F7F",
"1 c #18181E1E7F7F",
"2 c #22221C1C6C6C",
"3 c #1A1A24249D9D",
"4 c #1D1D2D2D9696",
"5 c #1C1C2A2AB7B7",
"6 c #27271F1F8383",
"7 c #2A2A22229999",
"8 c #2E2E2525ABAB",
"9 c #30302727B9B9",
"0 c #1D1D2D2DC9C9",
"q c #1F1F3030D6D6",
"w c #33332929C6C6",
"e c #32322929C9C9",
"r c #2C2C4444B4B4",
"t c #ABAB00000000",
"y c #B3B300000000",
"u c #C1C100000000",
"i c #C2C200000000",
"p c #C7C700000000",
"a c #D0D000000000",
"s c #D8D800000000",
"d c #DCDC00000000",
"f c #DDDD00000000",
"g c #DEDE00000000",
"h c #E7E701010101",
"j c #ECEC00000000",
"k c #F0F000000000",
"l c #DFDF4B4B4B4B",
"z c #E3E352525252",
"x c #E4E457575757",
"c c #E4E45D5D5D5D",
"v c #E7E76D6D6D6D",
"b c #EAEA7D7D7D7D",
"n c #EAEA82828282",
"m c #ECEC88888888",
"M c #F2F2AEAEAEAE",
"N c #F6F6D3D3D3D3",
"B c #F9F9DBDBDBDB",
"V c #F9F9DCDCDCDC",
"C c #F9F9DDDDDDDD",
"Z c #F9F9DFDFDFDF",
"A c #F9F9E0E0E0E0",
"S c #FAFAE4E4E4E4",
"D c #FAFAE6E6E6E6",
"F c #FBFBEAEAEAEA",
"G c #FBFBEBEBEBEB",
"H c #FCFCF0F0F0F0",
"J c None",
/* pixels */
"JJJJJJJJJJJJJJJJ",
"JJJJJJJJJJJJJJJJ",
"JJJJJJJJJJJJJJJJ",
"JJJJeqqJJJJJJJJJ",
"JJJJwkh0JJJJJJJJ",
"JJJJ9jSN5JJJJJJJ",
"JJJJ8HCBS3JJJJJJ",
"JJJJ7MGGfa1JJJJJ",
"JJJJ6ffr46,:JJJJ",
"JJJJ2smn>JJJJJJJ",
"JJJJ;bZCl-JJJJJJ",
"JJJJ%vCCct*JJJJJ",
"JJJJ$pxziit+JJJJ",
"JJJJ**#+++o..JJJ",
"JJJJJJJJJJJJJJJJ",
"JJJJJJJJJJJJJJJJ"
};
