/* XPM */
static char *NU_png[] = {
/* columns rows colors chars-per-pixel */
"16 16 102 2",
"   c #6886688614E9",
".  c #7FFF7FFF0D4F",
"X  c #61AA43A38346",
"o  c #689A62AFA0BA",
"O  c #94D2566B7F05",
"+  c #97486AC14EB3",
"@  c #9EBB6BE84A42",
"#  c #A3C25E8B5A22",
"$  c #B16648FB5B77",
"%  c #BA3452A2610D",
"&  c #A9ED6B4E6340",
"*  c #A3786FF878F4",
"=  c #B8A76AB47F82",
"-  c #CB2055EB5C43",
";  c #DEF85C41573C",
":  c #C75C70225473",
">  c #CBD1661D5EB2",
",  c #C1656CEB7DA8",
"<  c #CB987A2573C2",
"1  c #D3636C5E706C",
"2  c #DFA3731F6F6D",
"3  c #E1BE7C62564D",
"4  c #E7C879525824",
"5  c #9FB05FA987C6",
"6  c #9F207FFDA560",
"7  c #B2277E9A9C65",
"8  c #857485740D5B",
"9  c #860786070D63",
"0  c #8F5D8F5D0DA3",
"q  c #96E896E80839",
"w  c #9F109F1008E3",
"e  c #9FD09FD008EB",
"r  c #970C99EB2AA1",
"t  c #A0639D6A29B0",
"y  c #A0CEA0CE087A",
"u  c #A37EA2B82ED7",
"i  c #B3B7B50839C9",
"p  c #A3C28AFB4611",
"a  c #C7AE8D913506",
"s  c #CF448E9A3346",
"d  c #D162B7B9297A",
"f  c #D7E2B957352F",
"g  c #E87DBD8A1F84",
"h  c #E4EC8D136A41",
"j  c #EB0F8AAB667D",
"k  c #C6CFC6CF1A36",
"l  c #D26ED26E16CC",
"z  c #F947DD6E1AB9",
"x  c #E21EE21E0000",
"c  c #EFD0EFD00000",
"v  c #F0BCF0BC0000",
"b  c #F13BF13B0010",
"n  c #F212F2120000",
"m  c #F576F5760897",
"M  c #FE34FE780075",
"N  c #FF89FED40000",
"B  c #FFBDFF7E0024",
"V  c yellow",
"C  c #FFBEFF9602AF",
"Z  c #FFFFFFFF0258",
"A  c #FFFFFFFF0B55",
"S  c #FFFFFFFF0C47",
"D  c #FE31FE313096",
"F  c #FD7AFD7A3A70",
"G  c #FFFFFFFF391B",
"H  c #FFFFFFFF3AB4",
"J  c #EE02D9994790",
"K  c #F912D85461F3",
"L  c #FE96FED14775",
"P  c #FFFFFFFF4732",
"I  c #FFFFFFFF47A0",
"U  c #9D308E62B5B6",
"Y  c #9E489940C00D",
"T  c #BC43868B9F1D",
"R  c #BC3F94179CB4",
"E  c #AAF09484B385",
"W  c #BC4DBB1F8A39",
"Q  c #BC42A63DC2DD",
"!  c #D3549B8586FC",
"~  c #CF9AA176B12B",
"^  c #C8DFA967BE10",
"/  c #D3C2A240B1C2",
"(  c #FFB9FFB9ACE9",
")  c #D97AD97ACF32",
"_  c #DA6DDA6DCF2C",
"`  c #DC27DC27D10D",
"'  c #CB7CCCB4E23D",
"]  c #D137D024E299",
"[  c #D2BBD41CE5C8",
"{  c #DAE5D3A1E15D",
"}  c #F4E3DFAFDBFD",
"|  c #E899DBABE16D",
" . c #F59DE028E33F",
".. c #E81DE81DD0E1",
"X. c #FFFFFFFFC83A",
"o. c #FFFFFFFFCCBF",
"O. c #FFDFFFFFCD4B",
"+. c #FFFFFFFFCCF3",
"@. c #FCEAF385DF40",
"#. c #EFEFEA8FF06B",
"$. c #FB0CE935E985",
"%. c gray100",
/* pixels */
"%.%.%.%.%.%.%.%.%.%.%.%.%.%.%.%.",
"%.%.%.%.%.%.%.%.%.%.%.%.%.%.%.%.",
"$.#.[ ] } | ' {  .@.O.O.O.O.X.( ",
"E ~ ^ Y ! R 6 / Q W L L L L F l ",
", > 4 1 + # ; h % s Z Z Z Z b y ",
"= < j - @ & 2 3 $ a Z Z Z Z c w ",
"U T O X : * o 7 5 p Z Z Z Z c w ",
"K f t u g d r i J z Z Z Z Z c w ",
"G A Z Z Z Z Z Z Z Z Z Z Z Z c w ",
"F A Z Z Z Z Z Z Z Z Z Z Z Z b w ",
"D m b b b b b b c b b b b b x q ",
"k 0 8 8 8 8 8 8 8 8 8 8 8 8 .   ",
".._ _ _ ) ) ) ) ) ) _ _ _ _ _ ` ",
"%.%.%.%.%.%.%.%.%.%.%.%.%.%.%.%.",
"%.%.%.%.%.%.%.%.%.%.%.%.%.%.%.%.",
"%.%.%.%.%.%.%.%.%.%.%.%.%.%.%.%."
};
