/* XPM */
static const char *OM_xpm[] = {
/* columns rows colors chars-per-pixel */
"16 16 136 2",
"   c black",
".  c #00002D2D0000",
"X  c #000031310000",
"o  c #000033330000",
"O  c #000037370000",
"+  c #00003D3D0000",
"@  c #00003F3F0000",
"#  c #000041410000",
"$  c #00004B4B0000",
"%  c #00004F4F0000",
"&  c #000055550000",
"*  c #0B0B9C9C0B0B",
"=  c #0F0F9E9E0E0E",
"-  c #10109E9E1010",
";  c #1313A0A01313",
":  c #1414A1A11414",
">  c #1818A2A21919",
",  c #1919A3A31919",
"<  c #1E1EA5A51E1E",
"1  c #1F1FA5A51F1F",
"2  c #2323A8A82323",
"3  c #2424A8A82424",
"4  c #2929AAAA2929",
"5  c #2A2AABAB2A2A",
"6  c #2C2CA9A92C2C",
"7  c #2F2FA9A92F2F",
"8  c #2E2EADAD2E2E",
"9  c #2F2FADAD2F2F",
"0  c #3232ABAB3232",
"q  c #3333ACAC3232",
"w  c #3535AEAE3535",
"e  c #3939AFAF3939",
"r  c #3434B0B03434",
"t  c #3A3AB3B33A3A",
"y  c #3D3DB1B13D3D",
"u  c #4242B3B34242",
"i  c #4646B5B54646",
"p  c #4B4BB8B84B4B",
"a  c #5050BABA5050",
"s  c #919100000000",
"d  c #939300000000",
"f  c #9F9F00000000",
"g  c #A3A300000000",
"h  c #A5A500000000",
"j  c #A9A900000000",
"k  c #ADAD00000000",
"l  c #B1B100000000",
"z  c #B5B500000000",
"x  c #B9B900000000",
"c  c #BDBD00000000",
"v  c #BFBF00000000",
"b  c #CACA14141414",
"n  c #C9C91A1A1A1A",
"m  c #CBCB19191919",
"M  c #CBCB1F1F1F1F",
"N  c #CDCD1F1F1F1F",
"B  c #CACA20202020",
"V  c #CCCC25252525",
"C  c #CFCF24242424",
"Z  c #CDCD2B2B2B2B",
"A  c #CECE2B2B2B2B",
"S  c #CFCF30303030",
"D  c #D1D12A2A2A2A",
"F  c #D3D32F2F2F2F",
"G  c #D0D030303030",
"H  c #D1D136363636",
"J  c #D2D236363636",
"K  c #D4D435353535",
"L  c #D0D03B3B3B3B",
"P  c #D3D33A3A3A3A",
"I  c #D2D23B3B3C3C",
"U  c #D1D13F3F3F3F",
"Y  c #D4D43B3B3B3B",
"T  c #D6D63B3B3A3A",
"R  c #D4D43F3F3F3F",
"E  c #D5D53F3F3F3F",
"W  c #D4D441414141",
"Q  c #D6D640404040",
"!  c #D6D644444444",
"~  c #D6D645454545",
"^  c #D6D646464646",
"/  c #D7D746464646",
"(  c #D7D74B4B4B4B",
")  c #D8D840404040",
"_  c #D8D849494949",
"`  c #D8D84A4A4949",
"'  c #D8D84A4A4B4B",
"]  c #DADA4F4F4F4F",
"[  c #DADA4F4F5050",
"{  c #DBDB53535353",
"}  c #D8D854545555",
"|  c #DBDB54545454",
" . c #DADA58585858",
".. c #DBDB5D5D5D5D",
"X. c #DCDC58585858",
"o. c #DDDD59595959",
"O. c #DDDD61616262",
"+. c #DEDE66666666",
"@. c #E0E06A6A6A6A",
"#. c #E1E16F6F6F6F",
"$. c #E2E272727373",
"%. c #E3E376767676",
"&. c #E3E377777777",
"*. c #EEEEB0B0B0B0",
"=. c #F2F2BEBEBEBE",
"-. c #D7D7D7D7D7D7",
";. c gray85",
":. c #DDDDDDDDDDDD",
">. c #DFDFDFDFDFDF",
",. c #F7F7D7D7D7D7",
"<. c #E1E1E1E1E1E1",
"1. c gray89",
"2. c gray90",
"3. c #E7E7E7E7E7E7",
"4. c #E9E9E9E9E9E9",
"5. c gray92",
"6. c gray93",
"7. c #EFEFEFEFEFEF",
"8. c #EFEFEFEFF1F1",
"9. c #F9F9E1E1E1E1",
"0. c gray96",
"q. c #F6F6F6F6F6F6",
"w. c gray97",
"e. c #FCFCF0F0F0F0",
"r. c #FCFCF7F7F7F7",
"t. c #F8F8F8F8F8F8",
"y. c #F9F9F9F9F9F9",
"u. c gray98",
"i. c #FBFBFBFBFBFB",
"p. c #FDFDF9F9F9F9",
"a. c #FEFEFAFAFAFA",
"s. c gray99",
"d. c #FDFDFDFDFDFD",
"f. c #FDFDFDFDFEFE",
"g. c #FEFEFEFEFEFE",
"h. c None",
/* pixels */
"h.h.h.h.h.h.h.h.h.h.h.h.h.h.h.h.",
"h.h.h.h.h.h.h.h.h.h.h.h.h.h.h.h.",
"h.h.h.h.h.h.h.h.h.h.h.h.h.h.h.h.",
"v v v v v 8.6.6.6.6.4.3.3.<.<.>.",
"v e.=.p.%.g.g.s.s.s.s.s.u.u.q.>.",
"v 9.p.,.X.g.g.s.u.s.w.w.q.q.q.-.",
"v r.*.p.| g.g.u.u.u.u.w.q.q.q.-.",
"v %.X.| [ ( ! W U S A Z V B U s ",
"v $.{ ] ' / E Y H G D V M m L s ",
"z #.] ` / ) T H G D V N m b H s ",
"z @.' ! E t r 9 5 3 1 , : - q o ",
"z +.! E P w 7 4 3 1 , ; = * 7 o ",
"l O... .| a p i u y e w 0 7 7 . ",
"k j g g f & & $ # + + O o o . . ",
"h.h.h.h.h.h.h.h.h.h.h.h.h.h.h.h.",
"h.h.h.h.h.h.h.h.h.h.h.h.h.h.h.h."
};
