/* XPM */
static const char *PA_xpm[] = {
/* columns rows colors chars-per-pixel */
"16 16 133 2",
"   c black",
".  c #00001717DDDD",
"X  c #00001D1DDFDF",
"o  c #00002525E1E1",
"O  c #00002B2BE3E3",
"+  c #00003131E5E5",
"@  c #00003737E9E9",
"#  c #00003F3FEBEB",
"$  c #00004545EDED",
"%  c #00004B4BEFEF",
"&  c #00004F4FF1F1",
"*  c #00005555F1F1",
"=  c #00005B5BF3F3",
"-  c #1B1B7F7FF5F5",
";  c #45459292F0F0",
":  c #49499595F1F1",
">  c #4A4A9696F1F1",
",  c #4C4C9696F3F3",
"<  c #4F4F9999F3F3",
"1  c #53539C9CF4F4",
"2  c #54549C9CF4F4",
"3  c #54549D9DF4F4",
"4  c #58589F9FF5F5",
"5  c #59599F9FF5F5",
"6  c #5959A0A0F5F5",
"7  c #5E5EA1A1F2F2",
"8  c #5D5DA2A2F6F6",
"9  c #5E5EA3A3F6F6",
"0  c #6262A4A4F2F2",
"q  c #6262A5A5F7F7",
"w  c #6666A6A6F3F3",
"e  c #6767A8A8F8F8",
"r  c #6A6AA9A9F5F5",
"t  c #6F6FABABF6F6",
"y  c #7373AEAEF7F7",
"u  c #7878ADADF2F2",
"i  c #7777B1B1F7F7",
"p  c #7878B1B1F6F6",
"a  c #7C7CB3B3F7F7",
"s  c #7A7AB3B3F8F8",
"d  c #7F7FB6B6F9F9",
"f  c #D1D100000000",
"g  c #D5D500000000",
"h  c #D7D700000000",
"j  c #DBDB00000000",
"k  c #DDDD00000000",
"l  c #DFDF00000000",
"z  c #E1E100000000",
"x  c #E3E300000000",
"c  c #E7E700000000",
"v  c #E9E900000000",
"b  c #EBEB00000000",
"n  c #EDED00000000",
"m  c #E9E920202020",
"M  c #EBEB25252525",
"N  c #ECEC26262626",
"B  c #ECEC2B2B2B2B",
"V  c #EDED2B2B2B2B",
"C  c #EDED2C2C2C2C",
"Z  c #E8E832323131",
"A  c #EDED30303030",
"S  c #EEEE31313131",
"D  c #EFEF36363636",
"F  c #EFEF37373636",
"G  c #EFEF37373737",
"H  c #ECEC3F3F3F3F",
"J  c #F1F13B3B3C3C",
"K  c #F1F13C3C3C3C",
"L  c #F1F13C3C3D3D",
"P  c #EDED44444444",
"I  c #E9E949494949",
"U  c #EFEF49494949",
"Y  c #F2F242424242",
"T  c #F2F24A4A4A4A",
"R  c #F0F04E4E4E4E",
"E  c #F4F44F4F5050",
"W  c #F1F153535353",
"Q  c #F2F257575757",
"!  c #F3F35C5C5C5C",
"~  c #EDED68686868",
"^  c #EEEE6D6D6D6D",
"/  c #EFEF71717171",
"(  c #EEEE7E7E7E7E",
")  c #F4F460606060",
"_  c #F5F565656565",
"`  c #F0F074747474",
"'  c #F7F770707070",
"]  c #F1F178787878",
"[  c #F2F27D7D7E7E",
"{  c #8080B6B6F7F7",
"}  c #8383B8B8F9F9",
"|  c #8484B8B8F8F8",
" . c #8585B9B9FAFA",
".. c #8787BBBBF9F9",
"X. c #9191C0C0FBFB",
"o. c #9D9DC8C8FAFA",
"O. c #B2B2D3D3FBFB",
"+. c #BEBEDADAFBFB",
"@. c #EDED83838383",
"#. c #EEEE8C8C8C8C",
"$. c #CBCBCBCBCBCB",
"%. c #CFCFCDCDCDCD",
"&. c gray81",
"*. c gray82",
"=. c LightGray",
"-. c #D7D7D7D7D7D7",
";. c #EFEFC7C7C7C7",
":. c #F1F1CBCBCBCB",
">. c #F2F2D3D3D3D3",
",. c #F2F2D5D5D5D5",
"<. c gray93",
"1. c #EFEFEFEFEFEF",
"2. c #E3E3EFEFFCFC",
"3. c #EFEFEFEFF1F1",
"4. c #E5E5F1F1FEFE",
"5. c #EBEBF3F3FEFE",
"6. c #EDEDF5F5FEFE",
"7. c #F1F1F1F1F1F1",
"8. c gray95",
"9. c #F3F3F3F3F3F3",
"0. c #F4F4F4F4F4F4",
"q. c gray96",
"w. c #F6F6F6F6F6F6",
"e. c gray97",
"r. c gray98",
"t. c #FBFBFBFBFBFB",
"y. c gray99",
"u. c #FDFDFCFCFDFD",
"i. c #FDFDFDFDFDFD",
"p. c #FDFDFDFDFEFE",
"a. c #FEFEFEFEFEFE",
"s. c gray100",
"d. c None",
/* pixels */
"d.d.d.d.d.d.d.d.d.d.d.d.d.d.d.d.",
"d.d.d.d.d.d.d.d.d.d.d.d.d.d.d.d.",
"d.d.d.d.d.d.d.d.d.d.d.d.d.d.d.d.",
"7.7.7.7.7.1.1.<.n b b c x x k k ",
"7.s.s.6.6.s.s.t.' _ ) ! Q W R j ",
"7.s.5...} 2.t.t.E Y H D S C U h ",
"7.s.s.+.O.s.t.t.T J D S C N P h ",
"7.s.s.t.s.t.t.t.J D A B N m H f ",
"- o...} { a p u [ ] ` ^ ^ ~ ( h ",
"= } e q 9 6 3 < w.w.w.0.0.7.w.*.",
"* { q 8 6 3 , : w.w.0.#.@.9.7.&.",
"& s 8 4 2 < : ; w.0.:.I Z ;.7.$.",
"& y y y r w 0 7 w.w.w.,.>.7.9.$.",
"$ # @ O O o X . -.*.*.&.%.$.$.$.",
"d.d.d.d.d.d.d.d.d.d.d.d.d.d.d.d.",
"d.d.d.d.d.d.d.d.d.d.d.d.d.d.d.d."
};
