/* XPM */
static const char *PE_xpm[] = {
/* columns rows colors chars-per-pixel */
"16 16 101 2",
"   c black",
".  c #DDDD00000000",
"X  c #DFDF00000000",
"o  c #E1E100000000",
"O  c #E3E300000000",
"+  c #E5E500000000",
"@  c #E7E700000000",
"#  c #E9E900000000",
"$  c #EBEB00000000",
"%  c #EDED00000000",
"&  c #EFEF00000000",
"*  c #F1F100000000",
"=  c #F3F300000000",
"-  c #F5F500000000",
";  c #F7F700000000",
":  c #F1F10B0B0B0B",
">  c #F1F10F0F0E0E",
",  c #F9F900000000",
"<  c #FBFB00000000",
"1  c #FDFD00000000",
"2  c red",
"3  c #F2F210101010",
"4  c #F2F213131313",
"5  c #F2F214141414",
"6  c #F3F319191919",
"7  c #F3F31A1A1A1A",
"8  c #F4F41F1F1F1F",
"9  c #F4F420202020",
"0  c #F5F525252525",
"q  c #F5F526262626",
"w  c #F2F22C2C2C2C",
"e  c #F2F22F2F2F2F",
"r  c #F6F62B2B2B2B",
"t  c #F6F62C2C2C2C",
"y  c #F2F232323232",
"u  c #F3F332323232",
"i  c #F3F335353535",
"p  c #F7F731313131",
"a  c #F4F436363636",
"s  c #F4F43B3B3B3B",
"d  c #F5F53F3F3F3F",
"f  c #F8F837373737",
"g  c #F9F93A3A3A3A",
"h  c #FAFA3F3F3F3F",
"j  c #F6F644444444",
"k  c #F7F749494949",
"l  c #F7F74E4E4E4E",
"z  c #FAFA44444444",
"x  c #FBFB45454545",
"c  c #FBFB49494949",
"v  c #FBFB4A4A4949",
"b  c #FCFC4A4A4B4B",
"n  c #FCFC4F4F4F4F",
"m  c #FDFD4F4F5050",
"M  c #F8F853535353",
"N  c #F9F954545555",
"B  c #F9F957575757",
"V  c #FDFD53535353",
"C  c #FDFD54545454",
"Z  c #F9F958585858",
"A  c #FAFA5C5C5C5C",
"S  c #FAFA5D5D5D5D",
"D  c #FEFE58585858",
"F  c #FEFE59595959",
"G  c #FEFE5C5C5C5C",
"H  c #FEFE5F5F5F5F",
"J  c #FBFB61616262",
"K  c #FCFC66666666",
"L  c #FCFC6A6A6A6A",
"P  c #FDFD6F6F6F6F",
"I  c #FEFE72727373",
"U  c #FEFE76767676",
"Y  c #FEFE77777777",
"T  c #FEFE79797979",
"R  c #FFFF7B7B7A7A",
"E  c #FFFF7B7B7B7B",
"W  c #E3E3C3C3C3C3",
"Q  c #E5E5C5C5C5C5",
"!  c #E7E7C7C7C7C7",
"~  c #E9E9CBCBCBCB",
"^  c #EBEBCDCDCDCD",
"/  c #EDEDCFCFCFCF",
"(  c #F7F7DFDFDFDF",
")  c #F9F9E1E1E1E1",
"_  c #FBFBE3E3E3E3",
"`  c #FDFDE5E5E5E5",
"'  c #FDFDE7E7E7E7",
"]  c #F3F3F3F3F3F3",
"[  c #F4F4F4F4F4F4",
"{  c gray96",
"}  c #F6F6F6F6F6F6",
"|  c gray97",
" . c #F8F8F8F8F8F8",
".. c #F9F9F9F9F9F9",
"X. c gray98",
"o. c #FBFBFBFBFBFB",
"O. c gray99",
"+. c #FDFDFDFDFDFD",
"@. c #FDFDFDFDFEFE",
"#. c #FEFEFEFEFEFE",
"$. c None",
/* pixels */
"$.$.$.$.$.$.$.$.$.$.$.$.$.$.$.$.",
"$.$.$.$.$.$.$.$.$.$.$.$.$.$.$.$.",
"$.$.$.$.$.$.$.$.$.$.$.$.$.$.$.$.",
"2 2 2 2 2 ` ` ` _ ) ( - = = % % ",
"2 E E E U #.#.O.#.#...G B M l $ ",
"2 E G G G #.#.O...o...f p t k $ ",
"2 E G G V #.o.o.......e r q j + ",
"2 U B V n o.o.........r q 9 d + ",
"2 I V n b O.......} } 0 8 6 s O ",
"2 P n b x ......} } } 8 6 3 a O ",
", L b z h ....} } } ] 6 5 3 i . ",
", K z h s ..| } } } ] 3 > : e . ",
"- J S B M .. .| } } [ i u e e . ",
"- - = % % / ^ ~ Q Q W O O . . . ",
"$.$.$.$.$.$.$.$.$.$.$.$.$.$.$.$.",
"$.$.$.$.$.$.$.$.$.$.$.$.$.$.$.$."
};
