/* XPM */
static char *PF_png[] = {
/* columns rows colors chars-per-pixel */
"16 16 89 1",
"  c #688613441344",
". c #7FFF0AB10AB1",
"X c #6A6F62A3F42C",
"o c #70AC6A14F5B6",
"O c #7F687B5BF821",
"+ c #85740A8F0A8F",
"@ c #86190AA50A99",
"# c #8F5D0AFB0AFB",
"$ c #96E81DA11DA1",
"% c #A0CE55BB55BB",
"& c #C6CF180F180F",
"* c #D26E15FC15FC",
"= c #E21E21E221E2",
"- c #EDD920D22431",
"; c #EEBA21CB2431",
": c #F12B23B723B7",
"> c #F14124402431",
", c #F21224532453",
"< c #F1F525FE2431",
"1 c #F5762B552B55",
"2 c #FD7A39293929",
"3 c #FFFF45E045DC",
"4 c #FFFF45EB471A",
"5 c #FFFF468B468B",
"6 c #FFFF479F47A1",
"7 c #FFFF47A8493E",
"8 c #FE314CD24CD2",
"9 c #FFFF4E614E61",
"0 c #FFFF68086808",
"q c #F8F377286546",
"w c #F78678E0763E",
"e c #F1537C907C90",
"r c #A0AD6CAEABEA",
"t c #9B396D37CAB5",
"y c #93E06FA9D613",
"u c #A1707C33D259",
"i c #A57C8050D271",
"p c #F0309F105B2D",
"a c #E1DA975376C6",
"s c #E40D94C97797",
"d c #FFF387577DB6",
"f c #FFFF87007D28",
"g c #ED7CABEA7ABC",
"h c #EF2DD1FA5DC6",
"j c #F67FE83F5F56",
"k c #9FD083F583F5",
"l c #9F149F239F23",
"z c #9F0BA07FA07F",
"x c #AC5A9135BA8E",
"c c #8B298B4CFDE1",
"v c #FFFF86E386DF",
"b c #FFFF86E2884D",
"n c #FFFF8C908C90",
"m c #FFFFA182A182",
"M c #FFB9ACC7ACC7",
"N c #D852B0F4D21C",
"B c #E0A1B86ED1B8",
"V c #FEE4FFFF9B5B",
"C c #FF78FF699FDD",
"Z c #FCACFDA9BC21",
"A c #D97ACF32CF32",
"S c #DA6DCF2CCF2C",
"D c #DC27D10DD10D",
"F c #D063D278E28D",
"G c #D7B7D8D5E7CC",
"H c #DCC5DF98FFFF",
"J c #F0BCC44EC44E",
"K c #E81DD0E1D0E1",
"L c #FFFFC804C804",
"P c #FFFFCC8FCC8C",
"I c #FFFFCCDCCCDC",
"U c #FFFFCEB7CEB7",
"Y c #FEE4D0E3D16F",
"T c #FFCBD12BD171",
"R c #FFFFD17BD16D",
"E c #FFFFD235D235",
"W c #FFFFD3C6D3C6",
"Q c #FFFFD471D471",
"! c #FFFFDC8ADC8A",
"~ c #FD27FDD2C89F",
"^ c #EFD4EFD4EFD4",
"/ c #EFD4EFFBEFFB",
"( c #E3B7E609FFFF",
") c #EFCDF184F184",
"_ c #FFFFFFFFEE81",
"` c #FFFFFFFFF31E",
"' c #FFC8FFBAFF7C",
"] c #FFEAFFE8FFFF",
"[ c gray100",
/* pixels */
"[[[[[[[[[[[[[[[[",
"[[[[[[[[[[[[[[[[",
"QPPPPPPPPPPPPPLM",
"093333373333332*",
"mnvvvbfqwfvvvve%",
"[[[[[`CpgV_[[[)z",
"[[[[[~jsshZ[[[)l",
"[[[[[GxtyrF[[[^l",
"[[[['(cXoOH[[[)z",
"!EYYYYNxuNYYYYJk",
"81;,,,<--<<<,<=$",
"&#++++++++++++. ",
"KSSSAAAAAASSSSSD",
"[[[[[[[[[[[[[[[[",
"[[[[[[[[[[[[[[[[",
"[[[[[[[[[[[[[[[["
};
