/* XPM */
static const char *PG_xpm[] = {
/* columns rows colors chars-per-pixel */
"16 16 141 2",
"   c black",
".  c #181819191919",
"X  c #1E1E1E1E1E1E",
"o  c #212113131313",
"O  c #232323232323",
"+  c gray14",
"@  c gray16",
"#  c #2A2A2A2A2A2A",
"$  c gray18",
"%  c #2F2F2F2F2F2F",
"&  c #39392F2F2F2F",
"*  c #323232323232",
"=  c #343434343434",
"-  c #353535353535",
";  c #393939393939",
":  c gray24",
">  c #4D4D00000000",
",  c #54541F1F1F1F",
"<  c #6F6F00000000",
"1  c #6B6B2F2F2F2F",
"2  c #60603B3B3B3B",
"3  c gray25",
"4  c gray26",
"5  c #444444444444",
"6  c gray27",
"7  c #464646464646",
"8  c #46464B4B4B4B",
"9  c #494949494949",
"0  c #4B4B4A4A4B4B",
"q  c #4B4B4B4B4B4B",
"w  c #4C4C4C4C4C4C",
"e  c #505050505050",
"r  c gray33",
"t  c #585858585858",
"y  c gray36",
"u  c #5D5D5D5D5D5D",
"i  c #5B5B61616161",
"p  c #60605F5F5F5F",
"a  c #79795C5C5C5C",
"s  c #616161616262",
"d  c gray39",
"f  c gray40",
"g  c #6A6A6A6A6A6A",
"h  c #747474747474",
"j  c #767676767676",
"k  c #797979797979",
"l  c gray48",
"z  c #7B7B7B7B7A7A",
"x  c #97970F0F0E0E",
"c  c #98982A2A2A2A",
"v  c #9B9B46464646",
"b  c #9E9E5C5C5C5C",
"n  c #8D8D7B7B7B7B",
"m  c #CDCD19191919",
"M  c #DDDD00000000",
"N  c #DFDF00000000",
"B  c #CFCF36363636",
"V  c #D8D82C2C2C2C",
"C  c #E3E300000000",
"Z  c #E5E500000000",
"A  c #E7E700000000",
"S  c #E9E900000000",
"D  c #EBEB00000000",
"F  c #EDED00000000",
"G  c #EFEF00000000",
"H  c #F1F100000000",
"J  c #F3F300000000",
"K  c #F5F500000000",
"L  c #F7F700000000",
"P  c #F0F00B0B0B0B",
"I  c #F9F900000000",
"U  c #FBFB00000000",
"Y  c #FDFD00000000",
"T  c red",
"R  c #F2F210101010",
"E  c #F2F214141414",
"W  c #F2F217171414",
"Q  c #F4F41F1F1F1F",
"!  c #F1F124242424",
"~  c #F5F52B2B2626",
"^  c #F2F22F2F2F2F",
"/  c #F6F62B2B2B2B",
"(  c #F6F62C2C2C2C",
")  c #F3F332323232",
"_  c #F7F730303030",
"`  c #F4F436363636",
"'  c #F4F43B3B3B3B",
"]  c #F5F53F3F3F3F",
"[  c #F3F342421A1A",
"{  c #F8F85E5E3636",
"}  c #F3F37A7A1919",
"|  c #F7F769693131",
" . c #F9F969693C3C",
".. c #F5F576762525",
"X. c #D2D251515151",
"o. c #D8D87B7B7B7B",
"O. c #F2F242424141",
"+. c #F6F644444444",
"@. c #F7F749494949",
"#. c #F7F74E4E4E4E",
"$. c #FBFB47474747",
"%. c #FBFB4B4B4747",
"&. c #FCFC4B4B4B4B",
"*. c #FCFC4C4C4C4C",
"=. c #F3F359595959",
"-. c #F8F853535353",
";. c #F9F957575757",
":. c #FDFD51515151",
">. c #FDFD54545454",
",. c #FAFA63635C5C",
"<. c #FCFC69696969",
"1. c #FDFD6D6D6D6D",
"2. c #FCFC73736565",
"3. c #FDFD70707171",
"4. c #FEFE74747474",
"5. c #FEFE77777777",
"6. c #FEFE79797979",
"7. c #F5F584842525",
"8. c #F4F491912020",
"9. c #F7F790903030",
"0. c #F4F4B6B61F1F",
"q. c #F6F6AAAA2B2B",
"w. c #F6F6BCBC2B2B",
"e. c #F8F8BCBC3737",
"r. c #FAFA86864242",
"t. c #FAFA89894242",
"y. c #FBFBADAD6060",
"u. c #F9F9CACA3C3C",
"i. c #F7F7DADA3131",
"p. c #F9F9D3D33D3D",
"a. c #F8F8DBDB3636",
"s. c gray55",
"d. c #909090909090",
"f. c #9A9A9A9A9A9A",
"g. c #9B9B9D9D9D9D",
"h. c gray61",
"j. c gray69",
"k. c #B1B1B1B1B1B1",
"l. c #BCBCBDBDBDBD",
"z. c #C1C1C1C1C1C1",
"x. c None",
/* pixels */
"x.x.x.x.x.x.x.x.x.x.x.x.x.x.x.x.",
"x.x.x.x.x.x.x.x.x.x.x.x.x.x.x.x.",
"x.x.x.x.x.x.x.x.x.x.x.x.x.x.x.x.",
"> A T T U T T T U U L L J J F F ",
"  n o.6.5.5.3.1.<.2.y.,.;.-.#.D ",
"  z s b =.:.:.*.%.r.p.e.| ( @.D ",
"  z y i a X.&.$.t.u.a.i.q.~ +.A ",
"  j r l.g.q v O. .{ 9.w...8.] A ",
"  z z.r q j.8 2 B _ / 7.0.[ ' D ",
"  h f.w 7 j 4 - & c ! Q } E ` A ",
"  g q 5 7 f.= $ # + , m W P ) M ",
"  f 5 j.s.= $ # O X . . x P ^ M ",
"  s u d.d e w 7 4 : ; - = 1 V M ",
"                              < ",
"x.x.x.x.x.x.x.x.x.x.x.x.x.x.x.x.",
"x.x.x.x.x.x.x.x.x.x.x.x.x.x.x.x."
};
