/* XPM */
static char *PL_xpm[] = {
/* columns rows colors chars-per-pixel */
"16 16 48 1",
"  c #60C0178714E9",
". c #754610BA0D4F",
"X c #7A4810E90D5B",
"o c #7ACB10F80D63",
"O c #89960C940839",
"+ c #908D0AE80865",
"@ c #8359119F0DA3",
"# c #91D70DBC08EB",
"$ c #B69D1FBC1A36",
"% c #95E24595441D",
"& c #CCE606980000",
"* c #D85803160000",
"= c #DA3906AB0000",
"- c #DA4F07420000",
"; c #DB1B07450000",
": c #DF0D0FFA0897",
"> c #E6F802D60000",
", c #E71D03750000",
"< c #E8C407A20000",
"1 c #E8D208400000",
"2 c #E80A0F820AA2",
"3 c #E9A3084B0000",
"4 c #E99B14360C47",
"5 c #EB7437193096",
"6 c #ECAA3CE238B8",
"7 c #ED96410D3AB4",
"8 c #E156609B5E77",
"9 c #F0B1670F64EE",
"0 c #F19067776556",
"q c #F16D6E656C42",
"w c #9EB29B659B20",
"e c #9F0B9F459F48",
"r c #A0CEA0CEA0CE",
"t c #F44289C38800",
"y c #D888CF84CF32",
"u c #D962CF8BCF2C",
"i c #D26ED26ED26E",
"p c #DB21D164D10D",
"a c #E5F8D194D0E1",
"s c #EF43E9E6E982",
"d c #EFD0F01EF021",
"f c #F153F153F153",
"g c #FF68F9ADF949",
"h c #FFFFFA8EFA2A",
"j c #FF8EFB14FAC1",
"k c #FD7AFD7AFD7A",
"l c #FFB9FFB9FFB9",
"z c gray100",
/* pixels */
"zzzzzzzzzzzzzzzz",
"zzzzzzzzzzzzzzzz",
"zzzzzzzzzzzzzzzz",
"zzzzzzzzzzzzzzky",
"zzzzzzzzzzzzzzdr",
"zzzzzzzzzzzzzzde",
"jjjgggggggjjjjsw",
"tq9999999999998%",
"62><>>><>><>>>*+",
"64<31<<3<<11<<=#",
"5:==========;;&O",
"$@XXXXXXXXXXXX. ",
"ayyyyyyyyyyyyyyp",
"zzzzzzzzzzzzzzzz",
"zzzzzzzzzzzzzzzz",
"zzzzzzzzzzzzzzzz"
};
