/* XPM */
static char *PN_png[] = {
/* columns rows colors chars-per-pixel */
"16 16 143 2",
"   c #115F1B7A3470",
".  c #2DD836073D09",
"X  c #0EA81D704406",
"o  c #0EAC1D834447",
"O  c #0EF61EB947B1",
"+  c #10661ED64443",
"@  c #12F61FB342F2",
"#  c #00001BB06D15",
"$  c #00001E106C2D",
"%  c #00001E946C8F",
"&  c #00001D3F7168",
"*  c #00001E9E72B0",
"=  c #00001F0E73E3",
"-  c #0000201572B7",
";  c #00001FA173D5",
":  c #061B1FF372D7",
">  c #126B20844510",
",  c #12D3228D45BA",
"<  c #199128E446A4",
"1  c #0000204D72F0",
"2  c #000020A073BF",
"3  c #0000215773E8",
"4  c #00F720E774B7",
"5  c #06DB22E97598",
"6  c #079725AF7209",
"7  c #092F26517457",
"8  c #0BB525F9762A",
"9  c #0DF0226373EA",
"0  c #09BC291278AF",
"q  c #0A4C2A60799C",
"w  c #0D0F29B179DD",
"e  c #0FA038696ED7",
"r  c #15292A306269",
"t  c #13AB2A5368EB",
"y  c #108724C77412",
"u  c #200A3AFA6D10",
"i  c #186D376170E0",
"p  c #276E38616A05",
"a  c #20E532907B25",
"s  c #277B3E2F718F",
"d  c #394333327318",
"f  c #357957563FC4",
"g  c #3B3867423D44",
"h  c #2653433E43E4",
"j  c #387959D143A4",
"k  c #22C341747949",
"l  c #320E51C16EF9",
"z  c #4CF931F66A7D",
"x  c #41F252573463",
"c  c #42987861401D",
"v  c #670262073125",
"b  c #43A95CF5529C",
"n  c #4EF74725805E",
"m  c #42D35A5F662A",
"M  c #4E435B9F7CD2",
"N  c #4C7A62BA5DD9",
"B  c #43877B135627",
"V  c #4C2175F855E1",
"C  c #4CD774947707",
"Z  c #6013785D71CD",
"A  c #63867851575C",
"S  c #6BE47320664B",
"D  c #289043A18925",
"F  c #30CC4A618E76",
"G  c #32A74CDE8F37",
"H  c #46DB527C8F4D",
"J  c #47B35E239AB5",
"K  c #49245E029B90",
"L  c #5EFE52188532",
"P  c #4D07630C9CF7",
"I  c #57196727988E",
"U  c #51D26A829C04",
"Y  c #606157728ACF",
"T  c #7020648B930B",
"R  c #666E750CA73D",
"E  c #3E47945F7055",
"W  c #4706808017E9",
"Q  c #4295A0667EDF",
"!  c #61D98CCD4BD9",
"~  c #61CB81AB56F8",
"^  c #69718D495D8F",
"/  c #68459C394E67",
"(  c #73528928636A",
")  c #6457A8E37FA6",
"_  c #35D39706882F",
"`  c #4CD4A85F848C",
"'  c #7093884C9FC2",
"]  c #86BA47E66B8B",
"[  c #8EF94B2A6B31",
"{  c #9E885FC07B55",
"}  c #BB6758C26957",
"|  c #CDCF385A4007",
" . c #CDC73A704277",
".. c #CE564AD95399",
"X. c #D1FA52FE5A78",
"o. c #C0E753F9615F",
"O. c #C2D8690C774A",
"+. c #D647618C67E1",
"@. c #D88965F06BD7",
"#. c #D78A69866F93",
"$. c #DD2669A66E7D",
"%. c #DF567439781F",
"&. c #DE7B76037A62",
"*. c #D980789F7FB3",
"=. c #C4B07A1688DF",
"-. c #C2557EDF8F18",
";. c #DC117D918383",
":. c #82209555506B",
">. c #88819BE65D4C",
",. c #8ACE946CBA59",
"<. c #9E908AC8A9BE",
"1. c #979C9164B1B6",
"2. c #9406A22786BF",
"3. c #B1E187669E83",
"4. c #B0EF891AA064",
"5. c #BE07939BA5FF",
"6. c #BC75A67ABB43",
"7. c #A037A87EC740",
"8. c #ADF3B84ED184",
"9. c #D234840A8DDD",
"0. c #C338A517B682",
"q. c #C7D9B0BCC156",
"w. c #CAF7B819C781",
"e. c #D224B831C4EB",
"r. c #CF85D0BED3F5",
"t. c #CF9ED0E7D440",
"y. c #CFD4D0E2D3FE",
"u. c #D026D2D6D9C8",
"i. c #C8EDCFF3E1CC",
"p. c #CBEBD3AAE428",
"a. c #CD2FD2F3E423",
"s. c #CE8ED4CDE3EF",
"d. c #CEA1D4E2E42C",
"f. c #D2A5D63BE464",
"g. c #D109D74EE5E0",
"h. c #D2B3D7ECE608",
"j. c #DCB6E0B9EBD8",
"k. c #F0F2DD27E00C",
"l. c #E73BDD10E392",
"z. c #EE49E175E5D8",
"x. c #F263E856EB9B",
"c. c #F779F1CDF38B",
"v. c gray100",
/* pixels */
"v.v.v.v.v.v.v.v.v.v.v.v.v.v.v.v.",
"v.v.v.v.v.v.v.v.v.v.v.v.v.v.v.v.",
"c.j.p.l.k.f.f.z.x.f.d.d.s.a.i.8.",
"q.e.7.5.9.1.0.w.,.P J K U ' I t ",
"=.#.&.X.| +.&.O.[ y s m k Z M < ",
"-.;.@...| *.$.} ] 9 l B C ( A v ",
"6.4.Y { o.R <.3.L 5 e V >.2.~ x ",
"T a 4 d z 8 w H n : u :.` ) _ f ",
"F 0 3 3 * 3 * * * * i ^ Q / E g ",
"G q * 3 3 3 3 3 4 4 8 S ! c g . ",
"D 6 % % $ $ $ $ % % % p N g b f ",
"r X X X X X X X X X X + O       ",
"u.t.t.y.t.t.t.t.t.t.t.t.t.t.t.t.",
"v.v.v.v.v.v.v.v.v.v.v.v.v.v.v.v.",
"v.v.v.v.v.v.v.v.v.v.v.v.v.v.v.v.",
"v.v.v.v.v.v.v.v.v.v.v.v.v.v.v.v."
};
