/* XPM */
static char *PT_png[] = {
/* columns rows colors chars-per-pixel */
"16 16 136 2",
"   c #1DAE5AD91CB4",
".  c #20885AE71C90",
"X  c #222A5A901CEF",
"o  c #227E61A81E6E",
"O  c #5D352D32171B",
"+  c #609F18C4176F",
"@  c #7CD50F67109B",
"#  c #754F11C11070",
"$  c #7A57133A112C",
"%  c #7B2410FF10D8",
"&  c #7AC712BA10F9",
"*  c #7AB112F51171",
"=  c #7AA2131B112C",
"-  c #24DF9AF31DE0",
";  c #362B8A0A3062",
":  c #272EA5B62234",
">  c #2ECBA1CA275E",
",  c #30ACA9702BC3",
"<  c #3085A9B72BBD",
"1  c #31C4AA232BD1",
"2  c #31BCA8D52C37",
"3  c #357EAABF2DA7",
"4  c #3C1DA719221E",
"5  c #3C1FA8EB21DC",
"6  c #48F19FB621E8",
"7  c #4631AA6124C7",
"8  c #63D9A92F2731",
"9  c #6862AD87255D",
"0  c #7623A35C2724",
"q  c #7777A9E72995",
"w  c #5204B62B4B34",
"e  c #59BDBA6E5396",
"r  c #5A69BABD541F",
"t  c #5A8FBA655455",
"y  c #62A7BE665F23",
"u  c #6618BBA0600E",
"i  c #64E3BEBD5ED1",
"p  c #6C31C1B266A7",
"a  c #89E20DE60BE3",
"s  c #91460F9A0D76",
"d  c #919F0F990DBF",
"f  c #930B0E430C67",
"g  c #90BB10310DF6",
"h  c #A14F7A8D2964",
"j  c #B5576AAE2DCF",
"k  c #BC7474DD46F8",
"l  c #BE7076465035",
"z  c #CD20093305EA",
"x  c #C1A11DEE1C04",
"c  c #D8B20C1B07D2",
"v  c #DA2309D40685",
"b  c #D9350B0A0772",
"n  c #D94B0B9C079F",
"m  c #DACA0A790722",
"M  c #DA2F0B990764",
"N  c #DB0C08C206A8",
"B  c #DB1E0A8306C6",
"V  c #DB5A0ABF076F",
"C  c #D7C71A750A7F",
"Z  c #DE31278510FF",
"A  c #DD9636551534",
"S  c #E7C7099107EA",
"D  c #E7A00BFF07EB",
"F  c #E8850AEB0740",
"G  c #E8470B3407B1",
"H  c #E7A90C1A07E5",
"J  c #E8970C620859",
"K  c #E87C0D7209D2",
"L  c #E83F0DDA0A13",
"P  c #E80D0F42086F",
"I  c #E95A06EE0671",
"U  c #EA15086E05F9",
"Y  c #EA2109A60661",
"T  c #E91F0AA806EC",
"R  c #E9310ACC0783",
"E  c #E9490B5707A1",
"W  c #EA550A5806DC",
"Q  c #EA430B840751",
"!  c #EB5C08BF05B7",
"~  c #E8EB0B5808EA",
"^  c #EA410CF10921",
"/  c #E6B2140F0B7D",
"(  c #E259296610C1",
")  c #CE2452BD16F6",
"_  c #DE04588519F2",
"`  c #D6F261C91A78",
"'  c #D97C72421CC3",
"]  c #EBBC42B54010",
"[  c #C2C0785154F5",
"{  c #C49879545F7A",
"}  c #EEC54FA04CE8",
"|  c #EF4F4EB64CA9",
" . c #EF0B4F934D1E",
".. c #EEFD50994DB1",
"X. c #F25F4B0D4BDF",
"o. c #857FB3782AE6",
"O. c #9D91B1AD2A04",
"+. c #B1298FEE2F4A",
"@. c #B55C908F2A9D",
"#. c #B2EC814F3B3F",
"$. c #B17386023BEB",
"%. c #BADA883633AE",
"&. c #BE768E5A3589",
"*. c #BDED96082C9F",
"=. c #BC8598BD2EBC",
"-. c #A9B8B6612A60",
";. c #B84BA5912C23",
":. c #BC4EA6382DCA",
">. c #BEE8AA112DE7",
",. c #ABB88082531F",
"<. c #A4268D046FBD",
"1. c #8178CAC17CC5",
"2. c #C88CA5822961",
"3. c #C584A8202C38",
"4. c #C598AE342BE9",
"5. c #CF75AA27286C",
"6. c #C88989EC6C9A",
"7. c #F875B00AAF3A",
"8. c #D0BBD5C8D06E",
"9. c #D0CAD5D5D070",
"0. c #D899CFA1CF87",
"q. c #D0F5D5CBD084",
"w. c #D0ECD677D08D",
"e. c #D60CD1B8CFD6",
"r. c #D4A5DFF2D3D5",
"t. c #DB23D18FD165",
"y. c #D534EDACD365",
"u. c #D529EE02D388",
"i. c #D6BBEE97D566",
"p. c #DB81F097DA49",
"a. c #EEB7D851CFCE",
"s. c #FB54CA57C97D",
"d. c #FB85CEC1CE05",
"f. c #FCA9CDA6CD9C",
"g. c #FB7ACEFBCE3E",
"h. c gray100",
/* pixels */
"h.h.h.h.h.h.h.h.h.h.h.h.h.h.h.h.",
"h.h.h.h.h.h.h.h.h.h.h.h.h.h.h.h.",
"p.i.u.u.i.a.f.g.d.d.d.d.d.d.s.7.",
"1.p i y u [ X.X. . . . . ...] x ",
"t 3 : 7 o.@._ / ~ L ^ ^ L ^ B f ",
"e 1 4 O.=.%.*.` L D ~ F F F B f ",
"e 1 8 >.l <.%.5.( S F ! F ~ B a ",
"e , q :.l <.$.4.A I F F F ^ M g ",
"e < 9 ;.k { &.2.Z F H H H ! M g ",
"e 1 5 -.+.j 3.' F F H H H Q V g ",
"w > - 6 0 h ) C N B M M V V z a ",
"; o X   X O @ % % % % $ = & # + ",
"r.q.q.q.q.e.0.0.0.0.0.0.0.0.0.t.",
"h.h.h.h.h.h.h.h.h.h.h.h.h.h.h.h.",
"h.h.h.h.h.h.h.h.h.h.h.h.h.h.h.h.",
"h.h.h.h.h.h.h.h.h.h.h.h.h.h.h.h."
};
