/* XPM */
static const char *PW_xpm[] = {
/* columns rows colors chars-per-pixel */
"16 16 152 2",
"   c black",
".  c #00002929DDDD",
"X  c #00002B2BDDDD",
"o  c #00002F2FDDDD",
"O  c #00002F2FDFDF",
"+  c #00003131DFDF",
"@  c #00003333DFDF",
"#  c #00003939DDDD",
"$  c #00003535E1E1",
"%  c #00003737E3E3",
"&  c #00003B3BE3E3",
"*  c #00003D3DE5E5",
"=  c #00003F3FE5E5",
"-  c #00004141E7E7",
";  c #00004747E7E7",
":  c #00004545E9E9",
">  c #00004B4BEBEB",
",  c #00004D4DE9E9",
"<  c #00004F4FEBEB",
"1  c #00005151EDED",
"2  c #00005959EDED",
"3  c #00005D5DEFEF",
"4  c #00005F5FEFEF",
"5  c #00006161EFEF",
"6  c #00006363F1F1",
"7  c #00006767F3F3",
"8  c #00006969F3F3",
"9  c #00006D6DF5F5",
"0  c #00007171F7F7",
"q  c #00007777F5F5",
"w  c #00007575F9F9",
"e  c #00007979F9F9",
"r  c #00007979FBFB",
"t  c #00007B7BFBFB",
"y  c #00007D7DFDFD",
"u  c #00008181FDFD",
"i  c #00008383FDFD",
"p  c #00008787FDFD",
"a  c #00008787FFFF",
"s  c #00008989FDFD",
"d  c #00008989FFFF",
"f  c #00009393FFFF",
"g  c #0B0B9595F1F1",
"h  c #0F0F9797F1F1",
"j  c #10109797F2F2",
"k  c #13139999F2F2",
"l  c #14149999F2F2",
"z  c #14149A9AF2F2",
"x  c #18189B9BF3F3",
"c  c #19199C9CF3F3",
"v  c #1A1A9C9CF3F3",
"b  c #1F1F9B9BF4F4",
"n  c #1E1E9D9DF4F4",
"m  c #1F1F9E9EF4F4",
"M  c #1F1F9F9FF4F4",
"N  c #20209F9FF4F4",
"B  c #2B2BA4A4EEEE",
"V  c #2525A0A0F5F5",
"C  c #2525A2A2F5F5",
"Z  c #2626A2A2F5F5",
"A  c #2B2BA4A4F6F6",
"S  c #2B2BA5A5F6F6",
"D  c #2C2CA2A2F2F2",
"F  c #2F2FA4A4F2F2",
"G  c #2C2CA6A6F6F6",
"H  c #3C3CACACE5E5",
"J  c #3232A5A5F3F3",
"K  c #3333A6A6F3F3",
"L  c #3131A8A8F7F7",
"P  c #3131A9A9F7F7",
"I  c #3535A8A8F3F3",
"U  c #3737ABABF2F2",
"Y  c #3636A8A8F4F4",
"T  c #3737A8A8F8F8",
"R  c #3737ABABF8F8",
"E  c #3939A9A9F4F4",
"W  c #3B3BAAAAF5F5",
"Q  c #3D3DABABF5F5",
"!  c #3F3FADADF5F5",
"~  c #3A3AAAAAF9F9",
"^  c #3D3DADADF9F9",
"/  c #3F3FAEAEFAFA",
"(  c #4242ABABF6F6",
")  c #4444AFAFF6F6",
"_  c #4242AEAEFAFA",
"`  c #4747B0B0F6F6",
"'  c #4444B1B1FAFA",
"]  c #4545B0B0FBFB",
"[  c #4949B2B2F7F7",
"{  c #4B4BB2B2F7F7",
"}  c #4E4EB4B4F7F7",
"|  c #4E4EB6B6F7F7",
" . c #4949B4B4FBFB",
".. c #4F4FB6B6FCFC",
"X. c #5050B3B3F8F8",
"o. c #5353B7B7F8F8",
"O. c #5454B7B7F9F9",
"+. c #5353B8B8FDFD",
"@. c #5959BBBBF2F2",
"#. c #5858B9B9F9F9",
"$. c #5858BBBBF9F9",
"%. c #5858B9B9FEFE",
"&. c #5858BBBBFEFE",
"*. c #5959BABAFEFE",
"=. c #5C5CBBBBFAFA",
"-. c #5D5DBCBCFAFA",
";. c #5C5CBDBDFEFE",
":. c #5C5CBEBEFEFE",
">. c #5F5FBFBFFEFE",
",. c #6161BEBEFBFB",
"<. c #6969BFBFFCFC",
"1. c #7575C1C1A3A3",
"2. c #7878C3C3A1A1",
"3. c #7B7BC6C6B2B2",
"4. c #6565C0C0FCFC",
"5. c #6666C0C0FCFC",
"6. c #6A6AC3C3FCFC",
"7. c #6D6DC3C3FDFD",
"8. c #6F6FC4C4FDFD",
"9. c #7070C4C4FEFE",
"0. c #7272C6C6FEFE",
"q. c #7474C4C4FEFE",
"w. c #7676C8C8FEFE",
"e. c #7777C8C8FEFE",
"r. c #7979C8C8FEFE",
"t. c #7979C9C9FEFE",
"y. c #7B7BCACAFFFF",
"u. c #FFFFFCFC0000",
"i. c #FFFFFCFC0303",
"p. c #FEFEFCFC0505",
"a. c #FFFFFCFC0404",
"s. c #FCFCFAFA1212",
"d. c #FDFDFBFB1616",
"f. c #FEFEFCFC1A1A",
"g. c #FEFEFCFC1E1E",
"h. c #F2F2F7F72626",
"j. c #F2F2F8F82A2A",
"k. c #F8F8F7F72121",
"l. c #F1F1F5F53636",
"z. c #FBFBFAFA3434",
"x. c #C4C4E1E15B5B",
"c. c #DBDBEBEB4545",
"v. c #DDDDEDED5353",
"b. c #C4C4E2E26161",
"n. c #CACAE8E87F7F",
"m. c #9E9ED5D58E8E",
"M. c #8484CACAB2B2",
"N. c #8585CCCCBDBD",
"B. c #A7A7DADA9999",
"V. c #8B8BCFCFC7C7",
"C. c #C9C9E9E98383",
"Z. c None",
/* pixels */
"Z.Z.Z.Z.Z.Z.Z.Z.Z.Z.Z.Z.Z.Z.Z.Z.",
"Z.Z.Z.Z.Z.Z.Z.Z.Z.Z.Z.Z.Z.Z.Z.Z.",
"Z.Z.Z.Z.Z.Z.Z.Z.Z.Z.Z.Z.Z.Z.Z.Z.",
"f d d d d u u y t w 0 9 7 6 3 5 ",
"a y.y.y.w.q.8.7.<.4.,.=.#.o.} < ",
"d y.>.;.%.V.C.C.N._ ^ T P G [ < ",
"d y.;.%.B.g.u.f.z.M.T P S Z ) ; ",
"a w.%.$.j.u.u.u.d.v.U S Z N ! = ",
"a q.+.@.a.u.u.u.u.l.H Z n x Q * ",
"u 8...| h.u.u.u.s.c.B N x z Y % ",
"t <. .] m.d.a.s.k.1.N x z h K @ ",
"t 4._ / ~ 3.b.x.1.n x k h g J O ",
"0 ,.-.#.$.} [ ) ( ! E Y J F D . ",
"q 8 7 3 2 1 > : = = & $ @ X . # ",
"Z.Z.Z.Z.Z.Z.Z.Z.Z.Z.Z.Z.Z.Z.Z.Z.",
"Z.Z.Z.Z.Z.Z.Z.Z.Z.Z.Z.Z.Z.Z.Z.Z."
};
