/* XPM */
static char *PY_xpm[] = {
/* columns rows colors chars-per-pixel */
"16 16 86 1",
"  c #1F8B27BB4044",
". c #1C04273348CE",
"X c #1CB828624BFC",
"o c #197826D45196",
"O c #1E7B2AC850E9",
"+ c #1B4430DB740F",
"@ c #1C8033887B70",
"# c #1CFF33FC7BD1",
"$ c #1D3134357C20",
"% c #1D4334727C87",
"& c #26EC33965C2A",
"* c #306B40D573A3",
"= c #724264CF6A86",
"- c #25D93C0F8200",
"; c #2FB3444684D5",
": c #2FFF451889B5",
"> c #324A47BB8C57",
", c #3246488F8D5D",
"< c #32CC490F8DB6",
"1 c #332449A18E02",
"2 c #335149698DE3",
"3 c #3CCE51C3930A",
"4 c #4A0E5D699A98",
"5 c #61F372CCA76C",
"6 c #925209A80783",
"7 c #94E8364F3354",
"8 c #C0CE1CA416CB",
"9 c #DA2A02D00000",
"0 c #E79404C70000",
"q c #E86B04D20000",
"w c #E82C05A90003",
"e c #E8F006CD0015",
"r c #E8E010BB0AFE",
"t c #E4E63A1434C9",
"y c #ED3C3CB437EE",
"u c #EB0240AB3A6E",
"i c #E9D043173E32",
"p c #DF77486B43B2",
"a c #ED3C4AAC45C6",
"s c #EED94CEF46DD",
"d c #EE8C4CED47CD",
"f c #EEC84D5C479F",
"g c #EF154DF347E9",
"h c #EEA54D764858",
"j c #EF3C4DA548B5",
"k c #EFAA55674FA8",
"l c #EF3B55E75104",
"z c #F1BF6DE86924",
"x c #F28E75D271E7",
"c c #8C0579838944",
"v c #873F8A129053",
"b c #98288EF0915E",
"n c #91558D6E98BB",
"m c #9ED79AE39AD5",
"M c #A00FA0289FD4",
"N c #A1E59A7CA009",
"B c #ACDAA260B250",
"V c #F809AFA1ACE9",
"C c #C1C3C021CB58",
"Z c #CB1CBEB7C136",
"A c #C989CE13D820",
"S c #D071D199D498",
"D c #D08DD1BDD515",
"F c #DC1ECD8CD1BC",
"G c #D268D3A2D6E0",
"H c #D27FD512DF2B",
"J c #D3D5D618DD02",
"K c #D712DC08E6BC",
"L c #D77DDC93E727",
"P c #D7DBDCD5E793",
"I c #D8FBDD98E7E8",
"U c #E078E42FEC85",
"Y c #FAD6CA0AC83A",
"T c #FB61CE66CCB5",
"R c #FB64CE84CCD5",
"E c #FB81D07CCEEF",
"W c #FBEED5D5D49D",
"Q c #EF50E91CE905",
"! c #F134EE65ED8E",
"~ c #F7C9F091F0E1",
"^ c #F121F141F0D2",
"/ c #FF79F8DBF8C1",
"( c #FFA3F92DF90F",
") c #FF84FA8CFA78",
"_ c #FFFFF9D9F9B9",
"` c gray100",
/* pixels */
"````````````````",
"````````````````",
"WETTTTTTTTTTTTYV",
"zkffffffffffffu8",
"yr00000qqq000q96",
"xlffddditadfddp7",
"))//)/~BcF)/))Qm",
"``````!n=Z````^M",
"UPLLLLJNbCLKKLAv",
"5311>1>>>11111;&",
"4-@@@@@@@@@@@@+o",
"*XXXXXXXXXXXXX. ",
"JGAGGAGGSASGGAGG",
"``````)`)`)`````",
"````````````````",
"````````````````"
};
