/* XPM */
static char *RU_png[] = {
/* columns rows colors chars-per-pixel */
"16 16 52 1",
"  c #10292FE260DE",
". c #154831DB611C",
"X c #24122A7253E8",
"o c #2B0A357D77F1",
"O c #2DF238FA8009",
"+ c #60B414E914E9",
"@ c #75340D4F0D4F",
"# c #7A340D5B0D5B",
"$ c #7AB70D630D63",
"% c #0B8A3DFE8CC6",
"& c #0BA741E695FD",
"* c #0C3E4263963E",
"= c #0C4A429996CD",
"- c #139641878CF2",
"; c #14C945F4965F",
": c #14EB464196F4",
"> c #17E54B1B9B6E",
", c #201A4EE59B98",
"< c #380142758634",
"1 c #5DAD66209D47",
"2 c #43966D4EAE87",
"3 c #4A4F7070AE7B",
"4 c #772B7FA78D29",
"5 c #83450DA30DA3",
"6 c #8AC008270812",
"7 c #85ED0CD71194",
"8 c #B68D1A361A36",
"9 c #C73D062A0DE1",
"0 c #CEBF00000000",
"q c #D4B7069B0EDF",
"w c #D57A06B10EFC",
"e c #DC4A00000000",
"r c #DD1800000000",
"t c #D69412981A92",
"y c #E0FF086A0854",
"u c #ED0C30623020",
"i c #DE273FBD465E",
"p c #A2E6A278A1C1",
"a c #B054BD80D364",
"s c #BC3ECA6FE1BD",
"d c #BCEFCB2AE291",
"f c #BF80CCFBE340",
"g c #D888CF32CF32",
"h c #D962CF2CCF2C",
"j c #D26FD26FD26E",
"k c #DB21D10DD10D",
"l c #CB9CD6EAE888",
"z c #E5F8D0E1D0E1",
"x c #F2C7F296F24B",
"c c #FD7BFD7BFD7B",
"v c #FFB9FFB9FFB9",
"b c gray100",
/* pixels */
"bbbbbbbbbbbbbbbb",
"bbbbbbbbbbbbbbbb",
"bbbbbbbbbbbbbbbb",
"bbbbbbbbbbbbbbbj",
"bbbbbbbbbbbbbbxp",
"lfssssssssssssa4",
"3,;;;;;;;;;;;;-.",
"2>&&*******&&&% ",
"1<OOOOOOOOOOOOoX",
"itqqqqqqqqqqqq97",
"ureeeeeeeeeeee06",
"87$$$$$$$$$$$$@+",
"zggggggggggghhhk",
"bbbbbbbbbbbbbbbb",
"bbbbbbbbbbbbbbbb",
"bbbbbbbbbbbbbbbb"
};
