/* XPM */
static const char *RU_xpm[] = {
/* columns rows colors chars-per-pixel */
"16 16 137 2",
"   c black",
".  c #7B7B00000000",
"X  c #00000000E3E3",
"o  c #00000000E5E5",
"O  c #00000000E7E7",
"+  c #00000000FDFD",
"@  c #14141414F2F2",
"#  c #19191919F3F3",
"$  c #1A1A1A1AF3F3",
"%  c #1F1F1F1FF4F4",
"&  c #20202020F4F4",
"*  c #24242424F5F5",
"=  c #25252525F5F5",
"-  c #2A2A2A2AF6F6",
";  c #2A2A2B2BF6F6",
":  c #2B2B2B2BF6F6",
">  c #2F2F2F2FF7F7",
",  c #30303030F7F7",
"<  c #36363636F4F4",
"1  c #35353535F8F8",
"2  c #36363636F8F8",
"3  c #3B3B3B3BF5F5",
"4  c #3F3F3F3FF5F5",
"5  c #3B3B3B3BF9F9",
"6  c #40404040FAFA",
"7  c #41414141FAFA",
"8  c #45454545FBFB",
"9  c #46464646FBFB",
"0  c #49494A4AFBFB",
"q  c #49494949FFFF",
"w  c #4B4B4A4AFCFC",
"e  c #4B4B4B4BFCFC",
"r  c #4F4F4F4FFCFC",
"t  c #50504F4FFDFD",
"y  c #53535353FDFD",
"u  c #54545454FDFD",
"i  c #58585858FEFE",
"p  c #6F6F6F6FFDFD",
"a  c #72727272FEFE",
"s  c #76767676FEFE",
"d  c #7D7D7D7DF5F5",
"f  c #B3B300000000",
"g  c #BDBD10104343",
"h  c #BFBF14144646",
"j  c #DDDD00000000",
"k  c #DFDF00000000",
"l  c #E1E100000000",
"z  c #E3E300000000",
"x  c #E5E500000000",
"c  c #E7E700000000",
"v  c #E9E900000000",
"b  c #EBEB00000000",
"n  c #EDED00000000",
"m  c #EFEF00000000",
"M  c #F1F100000000",
"N  c #F3F300000000",
"B  c #F5F500000000",
"V  c #F7F700000000",
"C  c #F1F10B0B0B0B",
"Z  c #F1F10F0F0E0E",
"A  c #F9F900000000",
"S  c #F2F213131313",
"D  c #F3F319191919",
"F  c #F4F41E1E1E1E",
"G  c #F5F523232323",
"H  c #F2F22C2C2C2C",
"J  c #F2F22F2F2F2F",
"K  c #F6F629292929",
"L  c #F7F72E2E2E2E",
"P  c #F2F232323232",
"I  c #F3F335353535",
"U  c #F4F439393939",
"Y  c #F5F53D3D3D3D",
"T  c #F8F834343434",
"R  c #F9F93A3A3A3A",
"E  c #FAFA3F3F3F3F",
"W  c #C2C219194B4B",
"Q  c #C4C41F1F4F4F",
"!  c #C6C624245353",
"~  c #C8C82A2A5858",
"^  c #CACA2F2F5D5D",
"/  c #C8C832325E5E",
"(  c #CCCC34346161",
")  c #CECE3A3A6666",
"_  c #D0D03F3F6A6A",
"`  c #D1D145456E6E",
"'  c #D3D349497272",
"]  c #F6F642424242",
"[  c #F7F746464646",
"{  c #F7F74B4B4B4B",
"}  c #FAFA44444444",
"|  c #F8F850505050",
" . c #F9F954545555",
".. c #F9F958585858",
"X. c #FAFA5D5D5D5D",
"o. c #FBFB61616262",
"O. c #FCFC66666666",
"+. c #DCDC6A6A8C8C",
"@. c #81818181F6F6",
"#. c #85858585F7F7",
"$. c #8F8F8F8FF6F6",
"%. c #88888888F8F8",
"&. c #8C8C8C8CF9F9",
"*. c #8F8F8F8FFAFA",
"=. c #93939393FBFB",
"-. c #96969696FCFC",
";. c #98989898FDFD",
":. c #9B9B9B9BFDFD",
">. c #9E9E9E9EFEFE",
",. c #A0A0A0A0FEFE",
"<. c #B1B1B1B1FEFE",
"1. c #DDDDDDDDE9E9",
"2. c #DFDFDFDFEBEB",
"3. c #E1E1E3E3EFEF",
"4. c #E5E5E5E5EFEF",
"5. c #E7E7E7E7F1F1",
"6. c #E9E9E9E9F3F3",
"7. c #EBEBEBEBF5F5",
"8. c #EDEDEDEDF7F7",
"9. c #EFEFEFEFF9F9",
"0. c #EFEFEFEFFBFB",
"q. c #F6F6F6F6F6F6",
"w. c gray97",
"e. c #F1F1F1F1FDFD",
"r. c #F3F3F3F3FDFD",
"t. c #F5F5F5F5FDFD",
"y. c #F5F5F5F5FFFF",
"u. c #F8F8F8F8F8F8",
"i. c #F9F9F9F9F9F9",
"p. c gray98",
"a. c #FBFBFBFBFBFB",
"s. c gray99",
"d. c #FDFDFDFDFDFD",
"f. c #FDFDFDFDFEFE",
"g. c #FEFEFEFEFEFE",
"h. c gray100",
"j. c None",
/* pixels */
"j.j.j.j.j.j.j.j.j.j.j.j.j.j.j.j.",
"j.j.j.j.j.j.j.j.j.j.j.j.j.j.j.j.",
"j.j.j.j.j.j.j.j.j.j.j.j.j.j.j.j.",
"y.y.y.y.y.y.e.e.0.0.8.7.6.5.4.3.",
"y.h.h.h.h.h.h.a.p.h.p.p.p.p.q.2.",
"y.h.h.h.h.p.h.a.p.p.p.p.q.q.q.2.",
"q <.,.>.;.;.-.=.*.%.%.#.@.d $.o ",
"+ s i u t e 9 7 5 2 , : = % 4 o ",
"+ a y t q 9 4 5 2 , : = % # 3 o ",
"+ p r e 9 6 5 2 > : = % # @ < o ",
"f +.' ` _ ) ( ^ ~ ! Q W h g / . ",
"A O.[ E R T L K G F D S Z C J k ",
"A o.X. . .| { [ ] Y U I P J J j ",
"B N N n n n n c c x x k k j j j ",
"j.j.j.j.j.j.j.j.j.j.j.j.j.j.j.j.",
"j.j.j.j.j.j.j.j.j.j.j.j.j.j.j.j."
};
