/* XPM */
static const char *SA_xpm[] = {
/* columns rows colors chars-per-pixel */
"16 16 139 2",
"   c black",
".  c #000007070000",
"X  c #00000F0F0000",
"o  c #000017170000",
"O  c #00001D1D0000",
"+  c #000023230000",
"@  c #00002B2B0000",
"#  c #000031310000",
"$  c #000033330000",
"%  c #000037370000",
"&  c #000039390000",
"*  c #00003B3B0000",
"=  c #00003F3F0000",
"-  c #000041410000",
";  c #000045450000",
":  c #000047470000",
">  c #000049490000",
",  c #00004B4B0000",
"<  c #14146E6E1313",
"1  c #181870701717",
"2  c #1C1C72721B1B",
"3  c #1F1F73731E1E",
"4  c #202075751F1F",
"5  c #212175752020",
"6  c #222276762121",
"7  c #232378782323",
"8  c #26267A7A2626",
"9  c #29297B7B2727",
"0  c #29297B7B2929",
"q  c #2F2F7E7E2F2F",
"w  c #353582823333",
"e  c #353580803434",
"r  c #343482823434",
"t  c #363682823636",
"y  c #373782823636",
"u  c #383884843838",
"i  c #3A3A84843A3A",
"p  c #3A3A85853A3A",
"a  c #3B3B85853A3A",
"s  c #3E3E86863D3D",
"d  c #3F3F87873E3E",
"f  c #3C3C88883C3C",
"g  c #404088883F3F",
"h  c #40408A8A3F3F",
"j  c #41418A8A4040",
"k  c #43438A8A4242",
"l  c #44448A8A4545",
"z  c #44448C8C4343",
"x  c #45458C8C4444",
"c  c #47478D8D4646",
"v  c #47478F8F4646",
"b  c #49498F8F4848",
"n  c #4A4A91914949",
"m  c #4B4B91914A4A",
"M  c #4C4C90904B4B",
"N  c #4C4C91914C4C",
"B  c #4D4D91914D4D",
"V  c #4C4C92924C4C",
"C  c #4E4E91914D4D",
"Z  c #505094944F4F",
"A  c #515194945050",
"S  c #515196965151",
"D  c #525294945151",
"F  c #535397975252",
"G  c #545496965353",
"H  c #565697975555",
"J  c #575797975656",
"K  c #565699995656",
"L  c #57579A9A5656",
"P  c #5C5C97975C5C",
"I  c #5B5B9A9A5A5A",
"U  c #5B5B9A9A5B5B",
"Y  c #5B5B9B9B5B5B",
"T  c #5B5B9D9D5B5B",
"R  c #5C5C9B9B5B5B",
"E  c #5E5E9C9C5D5D",
"W  c #5F5FA0A05E5E",
"Q  c #60609E9E5F5F",
"!  c #60609A9A6262",
"~  c #61619E9E6060",
"^  c #6464A0A06464",
"/  c #6464A2A26464",
"(  c #6666A2A26565",
")  c #6666A2A26666",
"_  c #6666A4A46666",
"`  c #6868A0A06969",
"'  c #6868A4A46868",
"]  c #6A6AA4A46A6A",
"[  c #6D6DA6A66C6C",
"{  c #6E6EA7A76D6D",
"}  c #7070A3A37373",
"|  c #7171A9A97070",
" . c #7272AAAA7171",
".. c #7575ACAC7474",
"X. c #7676ACAC7575",
"o. c #7878AEAE7777",
"O. c #7878A9A97979",
"+. c #7A7AABAB7D7D",
"@. c #7878AEAE7878",
"#. c #7B7BB0B07A7A",
"$. c #7B7BB0B07B7B",
"%. c #7F7FB2B27F7F",
"&. c #7F7FB3B37E7E",
"*. c #8080ADAD8181",
"=. c #8080B3B38080",
"-. c #8181B3B38080",
";. c #8A8AB3B38C8C",
":. c #8989B4B48A8A",
">. c #8989B4B48B8B",
",. c #8A8AB5B58C8C",
"<. c #8C8CB4B48D8D",
"1. c #9191B7B79393",
"2. c #9494BDBD9595",
"3. c #9696BBBB9898",
"4. c #9999BDBD9999",
"5. c #9999BDBD9A9A",
"6. c #9999C1C19A9A",
"7. c #A3A3C2C2A4A4",
"8. c #A1A1C4C4A4A4",
"9. c #A8A8C8C8A9A9",
"0. c #AAAAC9C9ACAC",
"q. c #ADADC9C9ADAD",
"w. c #AEAECBCBAFAF",
"e. c #ADADCCCCACAC",
"r. c #AFAFCCCCB1B1",
"t. c #B1B1CBCBB1B1",
"y. c #B0B0CBCBB2B2",
"u. c #B3B3CDCDB3B3",
"i. c #B3B3CCCCB4B4",
"p. c #B3B3CCCCB5B5",
"a. c #B6B6CDCDB6B6",
"s. c #B6B6CFCFB6B6",
"d. c #B6B6CECEB8B8",
"f. c #B7B7D0D0B7B7",
"g. c #B6B6D0D0B8B8",
"h. c #BBBBD0D0BBBB",
"j. c #BCBCD4D4BFBF",
"k. c #CECEDFDFCFCF",
"l. c None",
/* pixels */
"l.l.l.l.l.l.l.l.l.l.l.l.l.l.l.l.",
"l.l.l.l.l.l.l.l.l.l.l.l.l.l.l.l.",
"l.l.l.l.l.l.l.l.l.l.l.l.l.l.l.l.",
", , , , , ; - * % # @ + O o X . ",
", -.-.%.$.X.X. .{ ] / ~ E U H   ",
", -._ / / _ R H R J N N j w A   ",
", %.W 6.j.w.+.0.y.p.O.d.:.9 M   ",
"; $.T 2.w.g.5.p.1.;.` 7.<.7 c   ",
"- X.L 9.k.8.<.:.5.! } *.x 4 k   ",
"- ..L F G Z n x g u u 8 6 4 g   ",
"*  .F n e.f.g.p.y.q.h.a.4 1 a   ",
"# { V v g f d q q 0 5.P 2 < y   ",
"@ ] ^ E R J A N b c j k u y q   ",
"+ O o o .                       ",
"l.l.l.l.l.l.l.l.l.l.l.l.l.l.l.l.",
"l.l.l.l.l.l.l.l.l.l.l.l.l.l.l.l."
};
