/* XPM */
static char *SB_png[] = {
/* columns rows colors chars-per-pixel */
"16 16 140 2",
"   c #1F725B0F1BF5",
".  c #1CAE5DFA1C8F",
"X  c #20045F171CA3",
"o  c #1EED69051A71",
"O  c #1E106DEE1BD9",
"+  c #221F4DA81F82",
"@  c #20C05F501CAA",
"#  c #20C35F7D1CB6",
"$  c #23C0602F1D11",
"%  c #210C6EC31BEF",
"&  c #21246ECB1BF0",
"*  c #21296F521C33",
"=  c #3C1D78431D11",
"-  c #560A70071EE2",
";  c #7F567F001EC7",
":  c #58266DBC7A71",
">  c #24DD46CF966F",
",  c #252F470D9680",
"<  c #25CD47BE984E",
"1  c #268B4958911D",
"2  c #27E3487C9520",
"3  c #2BA449EA93E7",
"4  c #2AD04ADE93B0",
"5  c #285449D794EF",
"6  c #297D4AFA9693",
"7  c #2B394C4595AE",
"8  c #2F274B94945F",
"9  c #2D774E1F90B5",
"0  c #36B553E88EE4",
"q  c #403B5B55892C",
"w  c #3811534F9813",
"e  c #3208513A996A",
"r  c #31E151C499E9",
"t  c #3376518998BF",
"y  c #389852869896",
"u  c #3A6756529AA2",
"i  c #3D3356FE9B42",
"p  c #4D37651D8170",
"a  c #51E9685493B7",
"s  c #49FC6242A3DE",
"d  c #4BDC623DA0B0",
"f  c #4B4A61F0A79E",
"g  c #59B46BD9A30C",
"h  c #5AFD6CFEA67C",
"j  c #575E71B5AEF9",
"k  c #5937728FACF9",
"l  c #5B0E742FAD3A",
"z  c #6B067A36AD93",
"x  c #6D1A7C2CAE4B",
"c  c #63E77C2EB200",
"v  c #62E17B3AB3C0",
"b  c #65637AFBB0D2",
"n  c #65207BF8B187",
"m  c #648E7C7DB19B",
"M  c #653E7D16B264",
"N  c #65C57D48B28C",
"B  c #6F977E97B140",
"V  c #23E5994E1CDA",
"C  c #25D0A27A1EF5",
"Z  c #2448A2D91E8F",
"A  c #267BA3401EB6",
"S  c #26DEA3801F38",
"D  c #2686A4081EBB",
"F  c #27E4A3CB1ED8",
"G  c #28AAA35E1F58",
"H  c #2362AC6E2109",
"J  c #2483ACC12139",
"K  c #25CBACC5210F",
"L  c #26A2AD232106",
"P  c #27E1ADE32138",
"I  c #28D2AD91211D",
"U  c #295CAE3E213E",
"Y  c #297AAEFD2164",
"T  c #305FAFF521A2",
"R  c #3471B17D21F4",
"E  c #38EAB2B121FD",
"W  c #45C3B6A22272",
"Q  c #50B8B09C207C",
"!  c #5E6EBEB72378",
"~  c #74F1859C6C71",
"^  c #7430889C6941",
"/  c #7119C441242B",
"(  c #6E8881249AA2",
")  c #70038264B408",
"_  c #73BF81D6AFC3",
"`  c #71FD85A8B6CC",
"'  c #75C484ABB534",
"]  c #76458821B6E0",
"[  c #8DFC891020F2",
"{  c #92359CB15A2C",
"}  c #94119E085C77",
"|  c #903CA222557F",
" . c #A5FFA1D94955",
".. c #B203B5544E2A",
"X. c #BD05BEB94A6B",
"o. c #891FCC6624DA",
"O. c #8F05CE39251E",
"+. c #99F1C8C923FC",
"@. c #A2A5CAD82315",
"#. c #A86FD622259D",
"$. c #C008DF3125D9",
"%. c #C53EC3DD34B7",
"&. c #CFD8CB843320",
"*. c #CFB4CEC33CB4",
"=. c #C2DBE013261B",
"-. c #DEA5EA4525C5",
";. c #E348E0A83417",
":. c #E464E1782470",
">. c #EAECE48F3006",
",. c #E97DEDF52664",
"<. c #EC7CEF32288E",
"1. c #F0E0EAF72BFE",
"2. c #F4A0EFC728E5",
"3. c #F707F0B62894",
"4. c #F70AF1EE269D",
"5. c #FB31F0F32A49",
"6. c #C9F5C86940B0",
"7. c #D739D7BB7691",
"8. c #F7F6F0875B4B",
"9. c #88BC9A7C9A99",
"0. c #85CB94C4BE8B",
"q. c #8C0D97DDBF8E",
"w. c #8E559C35C394",
"e. c #FFFFFC38B9F3",
"r. c #CFCAD5D3D069",
"t. c #D0BAD625D071",
"y. c #D513D752D0A7",
"u. c #D2BFD88FD268",
"i. c #DA4DD9BAD0E4",
"p. c #D207D915EC10",
"a. c #D3D9DA85E9F5",
"s. c #D454DAF3EA42",
"d. c #D4A4DB0BEAFE",
"f. c #D534DB8BEA94",
"g. c #D5F2DC7CEAEE",
"h. c #DB7BE017E7E2",
"j. c #DB28E0DFED93",
"k. c #E950E7D6D3DB",
"l. c #F6B3F5F5D5B7",
"z. c gray100",
/* pixels */
"z.z.z.z.z.z.z.z.z.z.z.z.z.z.z.z.",
"z.z.z.z.z.z.z.z.z.z.z.z.z.z.z.z.",
"j.g.f.f.f.a.g.f.f.f.f.f.a.h.l.e.",
"w.q.n N 0.` N N N N v v 9.7.8.%.",
") z w i x d 5 5 5 < q } ;.,.+.= ",
"l t h ' 8 3 1 , 9 ^ *.3.$.! G O ",
"] _ w u B s 4 : ..2.-.o.E J C & ",
"n g 4 , f a | >.3.#.W L L U C & ",
"j e > w ~ *.2.=./ Y J U U U G & ",
"j 6 : X.3.,.O.R J U U U U U K & ",
"z { &.:.@.Q C C G K V G D D V o ",
" .[ ; - @ . X @ @ @ @ @ @ # + + ",
"k.i.y.r.r.t.t.t.t.t.r.r.t.t.t.y.",
"z.z.z.z.z.z.z.z.z.z.z.z.z.z.z.z.",
"z.z.z.z.z.z.z.z.z.z.z.z.z.z.z.z.",
"z.z.z.z.z.z.z.z.z.z.z.z.z.z.z.z."
};
