/* XPM */
static const char *SD_xpm[] = {
/* columns rows colors chars-per-pixel */
"16 16 137 2",
"   c black",
".  c #0B0B0B0B0B0B",
"X  c #0F0F0F0F0E0E",
"o  c #131313131313",
"O  c #181819191919",
"+  c #1E1E1E1E1E1E",
"@  c #00003D3D0000",
"#  c #232323232323",
"$  c gray16",
"%  c #2C2C2C2C2C2C",
"&  c gray18",
"*  c #2F2F2F2F2F2F",
"=  c #323232323232",
"-  c #343434343434",
";  c #353535353535",
":  c #393939393939",
">  c #3A3A3A3A3A3A",
",  c gray24",
"<  c #19195F5F0000",
"1  c #00006D6D0000",
"2  c #000079790000",
"3  c #00007B7B0000",
"4  c #00007F7F0000",
"5  c #3F3F46463F3F",
"6  c gray26",
"7  c #464646464646",
"8  c #4B4B4B4B4B4B",
"9  c #505050505050",
"0  c #545454545555",
"q  c #585858585858",
"w  c #5D5D61615D5D",
"e  c #000083830000",
"r  c #000087870000",
"t  c #00008B8B0000",
"y  c #00008F8F0000",
"u  c #53539F9F5353",
"i  c #4949B5B54949",
"p  c #4949B6B64949",
"a  c #4B4BB4B44B4B",
"s  c #4F4FB7B74F4F",
"d  c #5454A1A15454",
"f  c #5C5CA9A95C5C",
"g  c #5353B9B95353",
"h  c #5454BCBC5454",
"j  c #5858BCBC5858",
"k  c #6E6EACAC6F6F",
"l  c #6262B1B16262",
"z  c #6868B0B06868",
"x  c #7070AFAF6B6B",
"c  c #7878B2B27171",
"v  c #5C5CC2C25C5C",
"b  c #6666C2C26666",
"n  c #6A6AC3C36A6A",
"m  c #6F6FC4C46F6F",
"M  c #7272C6C67373",
"N  c #7676C8C87676",
"B  c #7979C9C97979",
"V  c #7B7BCFCF7A7A",
"C  c #E9E900000000",
"Z  c #EBEB00000000",
"A  c #EDED00000000",
"S  c #EFEF00000000",
"D  c #F1F100000000",
"F  c #F3F300000000",
"G  c #F5F500000000",
"H  c #F7F700000000",
"J  c #F9F900000000",
"K  c #FBFB00000000",
"L  c #FDFD00000000",
"P  c red",
"I  c #F6F62C2C2C2C",
"U  c #F7F731313131",
"Y  c #F8F837373737",
"T  c #F9F93C3C3D3D",
"R  c #F7F749494949",
"E  c #F7F74E4E4E4E",
"W  c #FAFA42424242",
"Q  c #FBFB47474747",
"!  c #FCFC4C4C4C4C",
"~  c #F8F853535353",
"^  c #F9F957575757",
"/  c #FDFD51515151",
"(  c #FDFD54545454",
")  c #FAFA5C5C5C5C",
"_  c #FEFE59595959",
"`  c #FCFC5E5E5C5C",
"'  c #FBFB60606060",
"]  c #FCFC65656565",
"[  c #FCFC69696969",
"{  c #FDFD6D6D6D6D",
"}  c #FDFD70707171",
"|  c #FEFE74747474",
" . c #FEFE77777777",
".. c #FEFE79797979",
"X. c #FCFC7D7D7B7B",
"o. c #9090BFBF8A8A",
"O. c gray74",
"+. c #CBCBCBCBCBCB",
"@. c #CDCDCDCDCDCD",
"#. c gray81",
"$. c #DEDEF2F2DEDE",
"%. c #E7E7C7C7C7C7",
"&. c gray88",
"*. c #E1E1E1E1E1E1",
"=. c #E2E2E2E2E2E2",
"-. c gray89",
";. c #E4E4E4E4E4E4",
":. c #E6E6E6E6E6E6",
">. c #E7E7E7E7E7E7",
",. c #E9E9E9E9E9E9",
"<. c #E9E9EBEBE9E9",
"1. c gray92",
"2. c #E0E0F4F4E4E4",
"3. c #F5F5E5E5E5E5",
"4. c #F6F6E6E6E6E6",
"5. c #F7F7E8E8E7E7",
"6. c #F6F6E8E8E8E8",
"7. c #F8F8E9E9E8E8",
"8. c #F9F9EAEAEAEA",
"9. c #FAFAEBEBEBEB",
"0. c #FBFBECECECEC",
"q. c #FBFBEFEFEEEE",
"w. c #FCFCEDEDEDED",
"e. c #FDFDEEEEEFEF",
"r. c gray95",
"t. c #F3F3F3F3F3F3",
"y. c #F4F4F4F4F4F4",
"u. c #F4F4F5F5F5F5",
"i. c gray96",
"p. c #F6F6F6F6F6F6",
"a. c gray97",
"s. c #F8F8F8F8F8F8",
"d. c #F9F9F9F9F9F9",
"f. c #F8F8FAFAF9F9",
"g. c gray98",
"h. c #FBFBFBFBFBFB",
"j. c None",
/* pixels */
"j.j.j.j.j.j.j.j.j.j.j.j.j.j.j.j.",
"j.j.j.j.j.j.j.j.j.j.j.j.j.j.j.j.",
"j.j.j.j.j.j.j.j.j.j.j.j.j.j.j.j.",
"< P P P K P P P K K H H F F A A ",
"y o.X... . .} { [ ] ' ` ^ ~ E Z ",
"t V c ` _ / ! ! Q W T Y U I R Z ",
"r B v x q.e.e.q.6.e.6.6.3.3.6.%.",
"r N j h z 2.g.g.g.s.a.a.u.u.u.#.",
"e M g s i f g.g.a.a.a.u.y.y.y.+.",
"4 m s i l $.g.g.a.u.u.y.y.r.y.+.",
"3 n i d ,.,.1.:.:.;.-.-.&.&.-.O.",
"3 b u 5 > ; % $ # + O o X . *   ",
"1 k w q 0 9 8 7 6 , > ; = * %   ",
"@                               ",
"j.j.j.j.j.j.j.j.j.j.j.j.j.j.j.j.",
"j.j.j.j.j.j.j.j.j.j.j.j.j.j.j.j."
};
