/* XPM */
static const char *SI_xpm[] = {
/* columns rows colors chars-per-pixel */
"16 16 151 2",
"   c black",
".  c #3F3F00000000",
"X  c #000000008181",
"o  c #000000008383",
"O  c #000000008585",
"+  c #000000009797",
"@  c #00000000B5B5",
"#  c #00000000B7B7",
"$  c #00000000B9B9",
"%  c #03031111C3C3",
"&  c #14142626C3C3",
"*  c #1A1A2828C1C1",
"=  c #19192B2BC6C6",
"-  c #1F1F2E2EC3C3",
";  c #1F1F3030C7C7",
":  c #20202C2CC1C1",
">  c #25253131C4C4",
",  c #25253333C5C5",
"<  c #24243535CACA",
"1  c #2B2B3737C6C6",
"2  c #2A2A3838C7C7",
"3  c #2A2A3A3ACBCB",
"4  c #30303C3CC8C8",
"5  c #30303D3DC9C9",
"6  c #2F2F4040CDCD",
"7  c #36364141CACA",
"8  c #36364343CBCB",
"9  c #36364545CBCB",
"0  c #35354444CFCF",
"q  c #3B3B4747C9C9",
"w  c #3B3B4747CCCC",
"e  c #3B3B4848CDCD",
"r  c #3F3F4A4AC9C9",
"t  c #3B3B4949D0D0",
"y  c #41414C4CCECE",
"u  c #40404E4ECFCF",
"i  c #40404E4ED2D2",
"p  c #45454F4FD3D3",
"a  c #46464F4FD0D0",
"s  c #4B4B5050CDCD",
"d  c #4F4F5858CECE",
"f  c #46465050D0D0",
"g  c #49495454D5D5",
"h  c #4F4F5C5CD7D7",
"j  c #53535C5CD0D0",
"k  c #58586161D2D2",
"l  c #5D5D6565D4D4",
"z  c #61616969D6D6",
"x  c #66666D6DD7D7",
"c  c #67676F6FD5D5",
"v  c #6A6A7272D9D9",
"b  c #6E6E7676DBDB",
"n  c #6F6F7A7ADFDF",
"m  c #78787A7ACECE",
"M  c #70707777DBDB",
"N  c #75757C7CD1D1",
"B  c #72727C7CDDDD",
"V  c #76767D7DDDDD",
"C  c #7C7C8383DEDE",
"Z  c #858500001515",
"A  c #9E9E16165050",
"S  c #A1A11B1B5353",
"D  c #A3A31F1F5757",
"F  c #A5A525255B5B",
"G  c #A8A829295F5F",
"H  c #ABAB2F2F6363",
"J  c #ACAC37376969",
"K  c #AEAE34346868",
"L  c #B0B039396C6C",
"P  c #B3B33F3F7070",
"I  c #B5B544447474",
"U  c #B8B84A4A7878",
"Y  c #BABA4E4E7C7C",
"T  c #DDDD00000000",
"R  c #DFDF00000000",
"E  c #E1E100000000",
"W  c #E3E300000000",
"Q  c #E5E500000000",
"!  c #E7E700000000",
"~  c #E9E900000000",
"^  c #EBEB00000000",
"/  c #EDED00000000",
"(  c #EFEF00000000",
")  c #F1F100000000",
"_  c #F3F300000000",
"`  c #F5F500000000",
"'  c #F7F700000000",
"]  c #F1F10B0B0B0B",
"[  c #F1F10F0F0E0E",
"{  c #F9F900000000",
"}  c #F2F213131313",
"|  c #F3F319191919",
" . c #F4F41E1E1E1E",
".. c #F5F523232323",
"X. c #F2F22C2C2C2C",
"o. c #F2F22F2F2F2F",
"O. c #F6F629292929",
"+. c #F7F72E2E2E2E",
"@. c #F2F232323232",
"#. c #F3F335353535",
"$. c #F4F439393939",
"%. c #F5F53D3D3D3D",
"&. c #F8F834343434",
"*. c #F9F93A3A3A3A",
"=. c #FAFA3F3F3F3F",
"-. c #F6F642424242",
";. c #F7F746464646",
":. c #F7F74B4B4B4B",
">. c #FAFA44444444",
",. c #F8F850505050",
"<. c #F9F954545555",
"1. c #F9F958585858",
"2. c #FAFA5D5D5D5D",
"3. c #FBFB61616262",
"4. c #FCFC66666666",
"5. c #96965959A3A3",
"6. c #A6A65F5F9A9A",
"7. c #AAAA64649D9D",
"8. c #C8C86F6F9494",
"9. c #86868C8CE1E1",
"0. c #8D8D9292E2E2",
"q. c #93939999E5E5",
"w. c #F3F3AFAFB5B5",
"e. c #F4F4B2B2B9B9",
"r. c #E1E1E3E3E3E3",
"t. c gray90",
"y. c #E7E7E7E7E7E7",
"u. c #E9E9E9E9E9E9",
"i. c gray92",
"p. c gray93",
"a. c #EFEFEFEFEFEF",
"s. c #E0E0E0E0F4F4",
"d. c #F1F1EEEEF6F6",
"f. c #F1F1F1F1F1F1",
"g. c #F3F3F3F3F3F3",
"h. c gray96",
"j. c #F6F6F6F6F6F6",
"k. c gray97",
"l. c #F6F6F7F7FBFB",
"z. c #F6F6F6F6FCFC",
"x. c #F8F8F8F8F8F8",
"c. c #F9F9F9F9F9F9",
"v. c gray98",
"b. c #FBFBFBFBFBFB",
"n. c #FDFDFBFBFBFB",
"m. c gray99",
"M. c #FDFDFDFDFDFD",
"N. c #FDFDFDFDFEFE",
"B. c #FEFEFEFEFFFF",
"V. c gray100",
"C. c None",
/* pixels */
"C.C.C.C.C.C.C.C.C.C.C.C.C.C.C.C.",
"C.C.C.C.C.C.C.C.C.C.C.C.C.C.C.C.",
"C.C.C.C.C.C.C.C.C.C.C.C.C.C.C.C.",
"h.h.h.h.h.g.g.d.a.a.p.i.u.y.t.r.",
"h.V.V.z.l.V.V.b.b.V.b.c.c.c.k.i.",
"h.V.0.N m v.b.V.c.c.c.c.k.h.k.u.",
"% q.9.s.C M b v x z l k j d c + ",
"# V e.d.w.s a y w 8 4 1 > : r o ",
"# B 5.7.7.f u e 8 4 2 > - * q o ",
"$ n j g i i t 0 6 3 < ; = & 9 O ",
"Z 8.Y U I L L K H G F D S A J . ",
"{ 4.>.>.*.&.+.O... .| } [ ] o.R ",
"{ 3.2.1.<.,.:.;.-.%.$.#.@.o.X.T ",
"` _ _ / / / / ! ! Q Q R R T T T ",
"C.C.C.C.C.C.C.C.C.C.C.C.C.C.C.C.",
"C.C.C.C.C.C.C.C.C.C.C.C.C.C.C.C."
};
