/* XPM */
static char *SK_png[] = {
/* columns rows colors chars-per-pixel */
"16 16 105 2",
"   c #1C101F05457F",
".  c #10BF20AD4D13",
"X  c #154323694E21",
"o  c #0C8526216C9C",
"O  c #088428EE7642",
"+  c #082E29AE7723",
"@  c #0D6A28897417",
"#  c #1343279B701E",
"$  c #138C2A9D6E98",
"%  c #1ECB236B60B9",
"&  c #1F05260A6894",
"*  c #14CF2D4E7642",
"=  c #14DF2D8076B3",
"-  c #10572E2B78AD",
";  c #156C33E77CC8",
":  c #372820E75993",
">  c #20F825A7673A",
",  c #211725D06799",
"<  c #203E37607BCF",
"1  c #287E30ED70BA",
"2  c #57BF14E914E9",
"3  c #68E70D4F0D4F",
"4  c #6A460EB0100A",
"5  c #6DE80D620D62",
"6  c #6C950E090EC2",
"7  c #6F300D3C0D00",
"8  c #6FA70D2E0CD3",
"9  c #6DE10DE31458",
"0  c #754C0DA30DA3",
"q  c #7C210827080F",
"w  c #626614E038E5",
"e  c #671014DA3C26",
"r  c #7EA413DC2FF6",
"t  c #79CF13993373",
"y  c #4F55190A4456",
"u  c #4AE71C1B4CEB",
"i  c #4D1F19F54B98",
"p  c #57351A4E47CF",
"a  c #5485278B57C0",
"s  c #606617804118",
"d  c #63511F1C4940",
"f  c #4469597293B5",
"g  c #49A15D5D9630",
"h  c #53BA573E89E3",
"j  c #772B7B6A87AA",
"k  c #88020E642A3B",
"l  c #8E2B0DCA25F1",
"z  c #AC8605070D77",
"x  c #A15707BA1215",
"c  c #AB3A07F01484",
"v  c #AEED07A8126F",
"b  c #AC290846134F",
"n  c #A43E1A361A36",
"m  c #B02F142F1EA0",
"M  c #B7BA00000000",
"N  c #B9B1029C06E5",
"B  c #BEC4415349A5",
"V  c #C43900000000",
"C  c #C53C00000000",
"Z  c #C5EB00000000",
"A  c #C8E0086A0851",
"S  c #CE510F7F0F85",
"D  c #CDDB13591328",
"F  c #D39F1D751E13",
"G  c #D1D623E9236A",
"H  c #D9EE2E8D2CE0",
"J  c #D87530613018",
"K  c #D61134A2338C",
"L  c #C4024D7252EE",
"P  c #DC3B451B4404",
"I  c #DCC955785534",
"U  c #C29B66217075",
"Y  c #DC6574ED7770",
"T  c #E3856E116B07",
"R  c #E31872887275",
"E  c #E40A795777B2",
"W  c #A2E6A2AFA20F",
"Q  c #B054B6E6CAA7",
"!  c #BE44C06CD362",
"~  c #BC40C338D85F",
"^  c #BB0FC4BADA5E",
"/  c #BCEFC3EDD925",
"(  c #DC568DA391BA",
")  c #E9FD94EA93E6",
"_  c #E93A968A9623",
"`  c #EF7BB3B2B305",
"'  c #D770CF30CF2F",
"]  c #D831CF2CCF2C",
"[  c #D26FD26FD26F",
"{  c #D9EED10DD10D",
"}  c #CB8CD1B0E243",
"|  c #E36FD0E1D0E1",
" . c #F49CC59DC4A6",
".. c #F535CA0FCA0F",
"X. c #F527CAF8CAF4",
"o. c #F692D078D07B",
"O. c #F6E6D300D301",
"+. c #F846D61AD55D",
"@. c #FA6FE43FE44B",
"#. c #FB41E934E91A",
"$. c #F2C7F2AEF26D",
"%. c #FF1BFBAEFB1F",
"&. c #FD7BFD7BFD7B",
"*. c #FFD2FFB7FFB9",
"=. c gray100",
/* pixels */
"=.=.=.=.=.=.=.=.=.=.=.=.=.=.=.=.",
"=.=.=.=.=.=.=.=.=.=.=.=.=.=.=.=.",
"=.=.=.=.=.=.=.=.=.=.=.=.=.=.=.=.",
"=.=.@...o.o...#.=.=.=.=.=.=.=.[ ",
"=.%.E S R I D ) =.=.=.=.=.=.$.W ",
"} ! L J ` ) G U ^ ~ ~ ~ ~ ~ Q j ",
"g < r T +. .P e @ = * * * * $ X ",
"f ; p H ( Y F i + @ @ @ @ @ o . ",
"h 1 u k a d l : & , , , , , %   ",
"B m b p @ # t v b b b b b b x 9 ",
"J A V z y w N V V V V V V V M q ",
"n 8 7 7 9 6 6 6 6 6 6 8 8 6 3 2 ",
"| ] ' ' ' ' ' ' ' ' ' ' ] ' ' { ",
"=.=.=.=.=.=.=.=.=.=.=.=.=.=.=.=.",
"=.=.=.=.=.=.=.=.=.=.=.=.=.=.=.=.",
"=.=.=.=.=.=.=.=.=.=.=.=.=.=.=.=."
};
