/* XPM */
static const char *SK_xpm[] = {
/* columns rows colors chars-per-pixel */
"16 16 154 2",
"   c black",
".  c #000000009D9D",
"X  c #00000000A3A3",
"o  c #00000303B5B5",
"O  c #00001F1FC9C9",
"+  c #00001F1FCFCF",
"@  c #03032323C9C9",
"#  c #3E3E5757CFCF",
"$  c #38385555D2D2",
"%  c #3C3C5959D4D4",
"&  c #3F3F5959D9D9",
"*  c #42425A5ACFCF",
"=  c #43435A5AD1D1",
"-  c #40405D5DD6D6",
";  c #48485E5ED1D1",
":  c #48485E5ED2D2",
">  c #45456161D7D7",
",  c #4C4C6363D3D3",
"<  c #4D4D6363D4D4",
"1  c #4A4A6565D8D8",
"2  c #4D4D6969DBDB",
"3  c #51516666D4D4",
"4  c #51516767D6D6",
"5  c #56566A6AD6D6",
"6  c #52526C6CD9D9",
"7  c #54546E6ED8D8",
"8  c #56566E6EDADA",
"9  c #5B5B6F6FD5D5",
"0  c #5E5E7171D5D5",
"q  c #59597373DDDD",
"w  c #6B6B6E6ECECE",
"e  c #60607676DDDD",
"r  c #6B6B7575D5D5",
"t  c #70707878D4D4",
"y  c #7D7D7E7ED2D2",
"u  c #76768787DBDB",
"i  c #7A7A8A8ADDDD",
"p  c #7E7E8E8EDFDF",
"a  c #8D8D00000000",
"s  c #BFBF00000000",
"d  c #DDDD00000000",
"f  c #DFDF00000000",
"g  c #C7C723233F3F",
"h  c #E1E100000000",
"j  c #E3E300000000",
"k  c #E5E500000000",
"l  c #E7E700000000",
"z  c #E9E900000000",
"x  c #EBEB00000000",
"c  c #EDED00000000",
"v  c #EFEF00000000",
"b  c #F1F100000000",
"n  c #F3F300000000",
"m  c #F5F500000000",
"M  c #F7F700000000",
"N  c #F1F10B0B0B0B",
"B  c #F1F10F0F0E0E",
"V  c #F9F900000000",
"C  c #F2F213131313",
"Z  c #F3F319191919",
"A  c #F4F41E1E1E1E",
"S  c #F5F523232323",
"D  c #F2F22C2C2C2C",
"F  c #F2F22F2F2F2F",
"G  c #F6F629292929",
"H  c #F7F72E2E2E2E",
"J  c #F2F232323232",
"K  c #F3F335353535",
"L  c #F4F439393939",
"P  c #F5F53D3D3D3D",
"I  c #C9C928284343",
"U  c #CACA2C2C4848",
"Y  c #CCCC31314B4B",
"T  c #CECE36365050",
"R  c #D0D03B3B5555",
"E  c #CECE43435B5B",
"W  c #D2D240405959",
"Q  c #F6F642424242",
"!  c #F7F746464646",
"~  c #F7F74B4B4B4B",
"^  c #FAFA44444444",
"/  c #F7F758585B5B",
"(  c #F8F850505050",
")  c #F9F954545555",
"_  c #F9F958585858",
"`  c #F9F95A5A5A5A",
"'  c #FAFA5A5A5B5B",
"]  c #FAFA5D5D5D5D",
"[  c #EFEF69697272",
"{  c #FBFB61616262",
"}  c #FEFE63636161",
"|  c #FCFC65656060",
" . c #FCFC66666666",
".. c #F1F16C6C7474",
"X. c #F3F374747C7C",
"o. c #F1F17B7B7F7F",
"O. c #FAFA74747272",
"+. c #86867575C3C3",
"@. c #E1E177778A8A",
"#. c #E1E17F7F8E8E",
"$. c #89899797DFDF",
"%. c #82829191E0E0",
"&. c #85859494E2E2",
"*. c #82829898E9E9",
"=. c #83839999EBEB",
"-. c #84849B9BECEC",
";. c #88889898E4E4",
":. c #90909A9AE1E1",
">. c #ACACB7B7EEEE",
",. c #E6E686869494",
"<. c #F4F48B8B8F8F",
"1. c #FDFD85858484",
"2. c #FBFB89898686",
"3. c #F4F48B8B9191",
"4. c #F5F58F8F9494",
"5. c #F6F690909696",
"6. c #F6F69E9EA2A2",
"7. c #F0F0ADADB3B3",
"8. c #E0E0B3B3C3C3",
"9. c #D2D2C1C1DDDD",
"0. c #D7D7C2C2D9D9",
"q. c #DDDDC5C5D8D8",
"w. c #E7E7DDDDDFDF",
"e. c #FDFDCDCDCCCC",
"r. c #FCFCDEDEDEDE",
"t. c #FDFDDEDEDEDE",
"y. c #EBEBE1E1E3E3",
"u. c #EDEDE3E3E5E5",
"i. c #EFEFE5E5E5E5",
"p. c #F1F1E7E7E9E9",
"a. c #F3F3E9E9EBEB",
"s. c #F5F5EBEBEDED",
"d. c #F5F5EDEDEFEF",
"f. c #F7F7EFEFEFEF",
"g. c #FCFCE2E2E1E1",
"h. c #FDFDEDEDECEC",
"j. c #F9F9EFEFF1F1",
"k. c #F6F6F6F6F6F6",
"l. c gray97",
"z. c #FBFBF1F1F3F3",
"x. c #FBFBF3F3F3F3",
"c. c #FDFDF3F3F3F3",
"v. c #FDFDF5F5F5F5",
"b. c #FDFDF5F5F7F7",
"n. c #F8F8F8F8F8F8",
"m. c #F9F9F9F9F9F9",
"M. c gray98",
"N. c #FBFBFBFBFBFB",
"B. c gray99",
"V. c #FDFDFDFDFDFD",
"C. c #FDFDFDFDFEFE",
"Z. c #FEFEFEFEFEFE",
"A. c gray100",
"S. c None",
/* pixels */
"S.S.S.S.S.S.S.S.S.S.S.S.S.S.S.S.",
"S.S.S.S.S.S.S.S.S.S.S.S.S.S.S.S.",
"S.S.S.S.S.S.S.S.S.S.S.S.S.S.S.S.",
"v.v.v.v.v.c.x.h.j.f.f.s.a.p.i.u.",
"b.A.A.A.A.A.A.A.N.A.N.m.m.m.l.y.",
"v.A.6.5.4.<.<.B.m.m.m.m.l.k.l.w.",
"& >.X.} r.1.` ;.;.&.%.p i u $.o ",
"@ -...e.h.g./ y 8 5 3 , ; * 0 . ",
"O -.[ | r.1.` t 6 3 < : = % 9 . ",
"+ *.9.+.r w 8.q 2 1 > - % $ 7 X ",
"s @.,.q.q q.#.E R T Y U I g E a ",
"V  .^ O.7.o.H G S A Z C B N F h ",
"M { ] ` ) ( ~ ! Q P L K J F F d ",
"M b b c c c x x l l h h h d d d ",
"S.S.S.S.S.S.S.S.S.S.S.S.S.S.S.S.",
"S.S.S.S.S.S.S.S.S.S.S.S.S.S.S.S."
};
