/* XPM */
static const char *SL_xpm[] = {
/* columns rows colors chars-per-pixel */
"16 16 139 2",
"   c black",
".  c #000000007979",
"X  c #000000007B7B",
"o  c #000000007D7D",
"O  c #000000007F7F",
"+  c #000000008383",
"@  c #000000008787",
"#  c #000000008989",
"$  c #000000008D8D",
"%  c #000000009191",
"&  c #000000009595",
"*  c #000000009999",
"=  c #000000009D9D",
"-  c #00000000A1A1",
";  c #00000000A5A5",
":  c #00000000A7A7",
">  c #00000000A9A9",
",  c #00000000ABAB",
"<  c #00000000AFAF",
"1  c #0B0B0B0BBFBF",
"2  c #0F0F0F0FC1C1",
"3  c #13131313C3C3",
"4  c #18181919C5C5",
"5  c #1E1E1E1EC7C7",
"6  c #23232323C8C8",
"7  c #29292929CACA",
"8  c #2C2C2C2CC8C8",
"9  c #2F2F2F2FC8C8",
"0  c #2E2E2E2ECCCC",
"q  c #2D2D2D2DD1D1",
"w  c #32323232C9C9",
"e  c #35353535CBCB",
"r  c #34343434CECE",
"t  c #39393939CDCD",
"y  c #3D3D3D3DCECE",
"u  c #3A3A3A3AD0D0",
"i  c #3F3F3F3FD2D2",
"p  c #42424242CFCF",
"a  c #46464646D1D1",
"s  c #44444444D4D4",
"d  c #4B4B4B4BD3D3",
"f  c #50505050D4D4",
"g  c #54545454D6D6",
"h  c #58585858D8D8",
"j  c #5D5D5D5DD9D9",
"k  c #63636363D5D5",
"l  c #66666666D6D6",
"z  c #61616161DBDB",
"x  c #66666666DDDD",
"c  c #6A6A6A6AD7D7",
"v  c #6E6E6E6ED9D9",
"b  c #71717171DBDB",
"n  c #75757575DDDD",
"m  c #7A7A7A7ADBDB",
"M  c #79797878DEDE",
"N  c #7C7C7C7CE0E0",
"B  c #00009B9B0000",
"V  c #00009F9F0000",
"C  c #0000A3A30000",
"Z  c #0000A7A70000",
"A  c #0000ABAB0000",
"S  c #0000AFAF0000",
"D  c #0000B1B10000",
"F  c #0000B3B30000",
"G  c #0000B5B50000",
"H  c #0000B7B70000",
"J  c #0000B9B90000",
"K  c #0000BDBD0000",
"L  c #0000C1C10000",
"P  c #0000C3C30000",
"I  c #3838D0D03838",
"U  c #3D3DD2D23D3D",
"Y  c #3D3DD9D93D3D",
"T  c #4242D4D44242",
"R  c #4848D6D64848",
"E  c #4D4DD7D74D4D",
"W  c #5353D7D75353",
"Q  c #5252D9D95252",
"!  c #5757DBDB5757",
"~  c #5858D8D85858",
"^  c #5B5BDCDC5B5B",
"/  c #5C5CDADA5C5C",
"(  c #5E5EDEDE5E5E",
")  c #6161DBDB6060",
"_  c #6262DEDE6262",
"`  c #6565DDDD6565",
"'  c #6A6ADDDD6A6A",
"]  c #6D6DDBDB6D6D",
"[  c #6E6EDFDF6E6E",
"{  c #7171DCDC7171",
"}  c #7676DEDE7575",
"|  c #7979DFDF7979",
" . c #6666E0E06666",
".. c #6868E1E16969",
"X. c #7272E1E17272",
"o. c #7575E2E27575",
"O. c #7979E3E37A7A",
"+. c #7B7BE3E37B7B",
"@. c #7D7DE1E17D7D",
"#. c #7F7FE5E57F7F",
"$. c #80808080E1E1",
"%. c #84848484E3E3",
"&. c #88888888E4E4",
"*. c #8B8B8B8BE6E6",
"=. c #A0A0A0A0EAEA",
"-. c #8282DFDF8181",
";. c #8181E2E28181",
":. c #8080E6E68080",
">. c #8383E6E68383",
",. c #8585E4E48585",
"<. c #8888E5E58888",
"1. c #8C8CE6E68C8C",
"2. c #8E8EE8E88E8E",
"3. c #9191E8E89191",
"4. c #9494E9E99494",
"5. c #A7A7EDEDA7A7",
"6. c #D3D3D3D3DFDF",
"7. c #D5D5D5D5E1E1",
"8. c #D7D7D7D7E3E3",
"9. c gray95",
"0. c #F3F3F3F3F3F3",
"q. c #F4F4F4F4F4F4",
"w. c #F4F4F5F5F5F5",
"e. c gray96",
"r. c #F6F6F6F6F6F6",
"t. c gray97",
"y. c #F1F1F1F1F9F9",
"u. c #F3F3F3F3FBFB",
"i. c #F5F5F5F5FBFB",
"p. c #F8F8F8F8F8F8",
"a. c #F9F9F9F9F9F9",
"s. c gray98",
"d. c #FBFBFBFBFBFB",
"f. c #FBFBFCFCFBFB",
"g. c gray99",
"h. c #FDFDFCFCFDFD",
"j. c #FDFDFDFDFDFD",
"k. c #FEFEFEFEFEFE",
"l. c None",
/* pixels */
"l.l.l.l.l.l.l.l.l.l.l.l.l.l.l.l.",
"l.l.l.l.l.l.l.l.l.l.l.l.l.l.l.l.",
"l.l.l.l.l.l.l.l.l.l.l.l.l.l.l.l.",
"P P P P P P K K J H F F S A Z C ",
"P >.>.>.#.O.O.o.X.[ ' ` ) / ~ V ",
"P >...` _ ( ^ ! Q E R T U I W B ",
"Y 5.4.3.2.1.,.,.;.@.| } { ] -.H ",
"i.k.k.k.k.f.k.a.a.a.t.e.e.q.e.8.",
"u.k.k.d.a.k.a.a.t.t.e.e.e.9.e.8.",
"u.k.d.k.k.a.a.a.t.e.e.e.q.9.0.6.",
"0 =.*.&.%.N N M n b v c l k m : ",
"< x s i u e 0 7 6 5 4 3 2 1 9 X ",
", z j g g f d a p y t e w 9 9 X ",
", : - = * & % $ # # + o o X . X ",
"l.l.l.l.l.l.l.l.l.l.l.l.l.l.l.l.",
"l.l.l.l.l.l.l.l.l.l.l.l.l.l.l.l."
};
