/* XPM */
static char *SM_xpm[] = {
/* columns rows colors chars-per-pixel */
"16 16 45 1",
"  c #1F822AD14561",
". c #1BF52B215017",
"X c #1C972CBD5347",
"o c #1CAB2CEB53A1",
"O c #1A732D395AB4",
"+ c #1BD92FBD602E",
"@ c #1E6D2F51590E",
"# c #1CB330196024",
"$ c #3062470E7E32",
"% c #1CDC39FB8342",
"& c #1E933D8F8B7D",
"* c #1E263DDD8BC7",
"= c #1E9F3E4E8C14",
"- c #1FB53EC18B6C",
"; c #1EBE3E7E8C97",
": c #20084179948F",
"> c #214742919484",
", c #209441FC94DE",
"< c #21CD430794C6",
"1 c #21F243479553",
"2 c #275E45D791FA",
"3 c #2B5C4ABB9A20",
"4 c #2C814C129A0B",
"5 c #4B3765FEA85E",
"6 c #539C6D21AD76",
"7 c #54496E1DAD3D",
"8 c #71DC789B892F",
"9 c #9F0B9F0A9F07",
"0 c #A121A0CFA010",
"q c #A0CEA0CEA0CE",
"w c #A7A2B22ECCFE",
"e c #B2A5BE22DAC4",
"r c #B2D4BE50DADB",
"t c #B379BEFDDBA8",
"y c #B684C16CDCB4",
"u c #D073D1E6D541",
"i c #D26ED26ED26E",
"p c #D268D3F4D78F",
"a c #D3D5D6E4DE54",
"s c #C452CD8EE336",
"d c #EFD1EFCFEFCB",
"f c #F18DF17BF13C",
"g c #FD7AFD7AFD7A",
"h c #FFB9FFB9FFB9",
"j c gray100",
/* pixels */
"jjjjjjjjjjjjjjjj",
"jjjjjjjjjjjjjjjj",
"jjjjjjjjjjjjjjjj",
"jjjjjjjjjjjjjjji",
"jjjjjjjjjjjjjjd9",
"jjjjjjjjjjjjjjd9",
"jjjjjjjjjjjjjjd9",
"syeeeeeeeeeeeyw8",
"73<1,,,,<<<<<<*#",
"63<<,,,:<<:<<:*+",
"52&*-&&&******%O",
"$@XXXXXXXooooXX ",
"apuuuuuuuuuuppup",
"jjjjjjjjjjjjjjjj",
"jjjjjjjjjjjjjjjj",
"jjjjjjjjjjjjjjjj"
};
