/* XPM */
static const char *SY_xpm[] = {
/* columns rows colors chars-per-pixel */
"16 16 108 2",
"   c black",
".  c #0B0B0B0B0B0B",
"X  c #0F0F0F0F0E0E",
"o  c #131313131313",
"O  c #181819191919",
"+  c #1E1E1E1E1E1E",
"@  c #232323232323",
"#  c gray16",
"$  c #2C2C2C2C2C2C",
"%  c gray18",
"&  c #2F2F2F2F2F2F",
"*  c #323232323232",
"=  c #343434343434",
"-  c #353535353535",
";  c #393939393939",
":  c #3A3A3A3A3A3A",
">  c gray24",
",  c #3F3F3F3F3F3F",
"<  c gray26",
"1  c #444444444444",
"2  c #464646464646",
"3  c #4B4B4B4B4B4B",
"4  c #505050505050",
"5  c #545454545555",
"6  c #585858585858",
"7  c #5D5D5D5D5D5D",
"8  c #616161616262",
"9  c gray40",
"0  c #5252B5B55454",
"q  c #6666BFBF6767",
"w  c #E9E900000000",
"e  c #EBEB00000000",
"r  c #EDED00000000",
"t  c #EFEF00000000",
"y  c #F1F100000000",
"u  c #F3F300000000",
"i  c #F5F500000000",
"p  c #F7F700000000",
"a  c #F9F900000000",
"s  c #FBFB00000000",
"d  c #FDFD00000000",
"f  c red",
"g  c #F6F62C2C2C2C",
"h  c #F7F731313131",
"j  c #F8F837373737",
"k  c #F9F93C3C3D3D",
"l  c #F7F749494949",
"z  c #F7F74E4E4E4E",
"x  c #FAFA42424242",
"c  c #FBFB47474747",
"v  c #FCFC4C4C4C4C",
"b  c #F8F853535353",
"n  c #F9F957575757",
"m  c #FDFD51515151",
"M  c #FDFD54545454",
"N  c #FAFA5C5C5C5C",
"B  c #FEFE59595959",
"V  c #FEFE5C5C5C5C",
"C  c #FEFE5F5F5F5F",
"Z  c #FBFB60606060",
"A  c #FCFC65656565",
"S  c #FCFC69696969",
"D  c #FDFD6D6D6D6D",
"F  c #FDFD70707171",
"G  c #FEFE74747474",
"H  c #FEFE77777777",
"J  c #FEFE79797979",
"K  c #FFFF7B7B7A7A",
"L  c #FFFF7B7B7B7B",
"P  c #8080C8C88282",
"I  c #8585CACA8686",
"U  c #9595D3D39696",
"Y  c #9797D3D39A9A",
"T  c #9D9DD4D49F9F",
"R  c #9D9DD6D69F9F",
"E  c #A3A3DADAA5A5",
"W  c #A7A7DBDBA9A9",
"Q  c gray81",
"!  c gray82",
"~  c #D5D5D5D5D5D5",
"^  c #D7D7D7D7D7D7",
"/  c gray93",
"(  c #EDEDEFEFEFEF",
")  c #EFEFEFEFEFEF",
"_  c #E1E1F0F0E1E1",
"`  c #E9E9F3F3EBEB",
"'  c #F1F1F1F1F1F1",
"]  c gray95",
"[  c #F3F3F3F3F3F3",
"{  c #F4F4F4F4F4F4",
"}  c #F4F4F5F5F5F5",
"|  c gray96",
" . c #F6F6F6F6F6F6",
".. c gray97",
"X. c #F1F1F9F9F0F0",
"o. c #F3F3F8F8F6F6",
"O. c #F3F3FBFBF7F7",
"+. c #F5F5FBFBF5F5",
"@. c #F4F4FBFBF6F6",
"#. c #F8F8F8F8F8F8",
"$. c #F9F9F9F9F9F9",
"%. c gray98",
"&. c #FBFBFBFBFBFB",
"*. c #FBFBFCFCFBFB",
"=. c gray99",
"-. c #FDFDFDFDFDFD",
";. c #FEFEFEFEFEFE",
":. c None",
/* pixels */
":.:.:.:.:.:.:.:.:.:.:.:.:.:.:.:.",
":.:.:.:.:.:.:.:.:.:.:.:.:.:.:.:.",
":.:.:.:.:.:.:.:.:.:.:.:.:.:.:.:.",
"f f f f s f f f s s p p u u r r ",
"f L L L G G F D S A Z N n b z e ",
"f L C V V M m v c x k j h g l e ",
"' ;.;.;.;.*.*.&.%.%... . . . .^ ",
"' ;.;.;.o.W O.%.%.o.Y `  .[ [ ^ ",
"/ ;.;.;.E q T %...T 0 P  .[  .! ",
"/ ;.&.*.O.U X.%. . .I _ ' ' [ ! ",
"/ ;.*.*.%.#.%... . .[ [ [ ' [ Q ",
"  9 1 > : = $ # @ + O o X . &   ",
"  8 7 6 5 4 3 2 < > : - * & $   ",
"                                ",
":.:.:.:.:.:.:.:.:.:.:.:.:.:.:.:.",
":.:.:.:.:.:.:.:.:.:.:.:.:.:.:.:."
};
