/* XPM */
static char *SY_png[] = {
/* columns rows colors chars-per-pixel */
"16 16 85 1",
"  c black",
". c #07F607F607F6",
"X c #083D083C083D",
"o c #0D660D660D66",
"O c #14E914E914E9",
"+ c #168217701673",
"@ c #17ED17DB17CE",
"# c #17CD185417C5",
"$ c #18D8183C18A6",
"% c #191919481911",
"& c #199B19921990",
"* c #1A361A361A36",
"= c #1B591A251B35",
"- c #222522EE2225",
"; c #2FDD2FD82FDD",
": c #4C5E4D1C4C5E",
"> c #5B7DC5C55BEA",
", c #65A5C9586558",
"< c #925207830783",
"1 c #94E833543354",
"2 c #C0CE16CB16CB",
"3 c #DA2A00000000",
"4 c #E79D00000000",
"5 c #E83000000000",
"6 c #E8E00AFE0AFE",
"7 c #ED3C37EE37EE",
"8 c #EB023A6E3A6E",
"9 c #DF7743B243B2",
"0 c #EC4946D745CD",
"q c #EED946DD46DD",
"w c #EEC747834784",
"e c #EF1547E947E9",
"r c #EEC44838486C",
"t c #EEC94853487B",
"y c #EF6F48844882",
"u c #EFAA4FA84FA8",
"i c #EF3B51045104",
"p c #F1BF69246924",
"a c #F28E71E771E7",
"s c #895E895E895E",
"d c #9ED79AD59AD5",
"f c #A030A063A063",
"g c #8A57BA9488D1",
"h c #8B88BC668A0E",
"j c #9BB6DC019C6A",
"k c #A8C0C58DA7A4",
"l c #AB43C7DEA9E7",
"z c #A18BDE88A108",
"x c #BC0EE013B709",
"c c #F809ACE9ACE9",
"v c #C421D013C3B0",
"b c #CD1ECD1ECD1E",
"n c #CF31CF31CF31",
"m c #CDC1D5B6CD64",
"M c #D0F7D0F7D0F7",
"N c #D493D636D493",
"B c #D694D832D694",
"V c #D70AD7ABD6E1",
"C c #DB33DAC1DB08",
"Z c #DB2DDAE8DB17",
"A c #DBE0DBD4DBE2",
"S c #DE61DFE0DE61",
"D c #C6DCE565C12C",
"F c #DABFEB50D602",
"G c #DDF7EDD5D86A",
"H c #FAD6C83AC83A",
"J c #FB61CCB5CCB5",
"K c #FB64CCD5CCD5",
"L c #FB81CEEFCEEF",
"P c #FBEED49DD49D",
"I c #EF50E905E905",
"U c #E488F6DDE4AB",
"Y c #E7B1F845E778",
"T c #F14DF178F178",
"R c #F826F701F282",
"E c #FE20F8A0F7B8",
"W c #FE68F8AFF81D",
"Q c #FF93F8C8F8E1",
"! c #FFD4F8D8F90D",
"~ c #FF7AF90EF90E",
"^ c #FF84FA78FA78",
"/ c #FFFFF9B0F9C7",
"( c #FDAAFF78FDBD",
") c #FE4AFF6FFE7C",
"_ c gray100",
/* pixels */
"________________",
"________________",
"PJJJJJJJJJJJJJHc",
"puwwwwwwwwwwww82",
"764444444444453<",
"aiwwr0wwrr0wrr91",
"^^^EFxR^^RDGE^Id",
"____j>U__Y,z__Tf",
"FBVVkhvVCmhlAAns",
":-OO@$O#$$$$$$$$",
";X             X",
"=ooooooooooooooO",
"MbnnnnnnnnnnnnnM",
"________________",
"________________",
"________________"
};
