/* XPM */
static char *SZ_xpm[] = {
/* columns rows colors chars-per-pixel */
"16 16 118 2",
"   c #1DAE2C5A498B",
".  c #19052D53558C",
"X  c #19992ED15942",
"o  c #199E2EF05981",
"O  c #1AE0319A5F4E",
"+  c #7736080D08E3",
"@  c #77CC08AE08E3",
"#  c #7C9614B9086C",
"$  c #80180EDA2042",
"%  c #633635AE2EB6",
"&  c #6BC03B4A3D51",
"*  c #7E463B2A3261",
"=  c #4AD83AD942A4",
"-  c #65DF409F3FA3",
";  c #7861582E2221",
":  c #614C62A12FAB",
">  c #4255431344C8",
",  c #481D42D642F8",
"<  c #520F4827415E",
"1  c #5FF05931514F",
"2  c #6DC5672E6248",
"3  c #2B6349828733",
"4  c #355F547485DD",
"5  c #616A8096A994",
"6  c #6E2F8B63AF35",
"7  c #6EEA8C07AF89",
"8  c #74D390E8B31E",
"9  c #85790E211C0F",
"0  c #8DE40D381B5F",
"q  c #96F2057F0A74",
"w  c #92481CA71489",
"e  c #8C701E30227F",
"r  c #83D62204203B",
"t  c #826C29F122BE",
"y  c #B06E00000000",
"u  c #A5250E7C12E2",
"i  c #A9061D551519",
"p  c #B14400000000",
"a  c #B20900000000",
"s  c #BB480436036B",
"d  c #BCC700000000",
"f  c #BDF100000000",
"g  c #BCC90065025F",
"h  c #BE610172020A",
"j  c #BF1800000000",
"k  c #BFE700000000",
"l  c #BF980A370C29",
"z  c #C09F0AEE0C24",
"x  c #B90512E80000",
"c  c #BD321B5D066E",
"v  c #BFB027092934",
"b  c #89DC41DA08ED",
"n  c #819041A52119",
"m  c #AB2245BC1515",
"M  c #B5E26809084D",
"N  c #B2EB7F2528A9",
"B  c #9DF54A6D430E",
"V  c #C1270C0D0C21",
"C  c #C3D2166300DF",
"Z  c #C54713B20000",
"A  c #C5C0141D0000",
"S  c #C63714850000",
"D  c #C64C15690000",
"F  c #C5031771028B",
"G  c #C8541F710AAE",
"H  c #CBD037B23A34",
"J  c #CC8D39033A35",
"K  c #CD143A1F3A34",
"L  c #CDB75AE80000",
"P  c #D2B249D738AB",
"I  c #DB6760980048",
"U  c #DC9160D50076",
"Y  c #DC7660BB013F",
"T  c #DC8961690021",
"R  c #DD6E68A90C33",
"E  c #D2C251E540A9",
"W  c #98AF813D1F5A",
"Q  c #8DB08FAF3DF4",
"!  c #975795BF3F2E",
"~  c #BE9D83642ACD",
"^  c #BF9087762B92",
"/  c #BFAB87A22BD1",
"(  c #BFCF876C2B84",
")  c #C05288322BF4",
"_  c #BD6885452E99",
"`  c #C01F87172D98",
"'  c #96CA969940F3",
"]  c #96E2996C41D9",
"[  c #982399084210",
"{  c #971899914246",
"}  c #973699BD425E",
"|  c #99A498494158",
" . c #9A649D8C4B92",
".. c #B3AA86D278CB",
"X. c #A874AD7E6FCB",
"o. c #C27F865D2B94",
"O. c #C2618D6835CD",
"+. c #E59E8DE62E0C",
"@. c #E478858E3A09",
"#. c #D2C48BCA7DA6",
"$. c #CD9FA2955B4B",
"%. c #DE2BC23F5EF5",
"&. c #91808AFB89C1",
"*. c #9D619C939BC3",
"=. c #8821A043BED9",
"-. c #BDB79210910A",
";. c #B6E5B479ADDB",
":. c #B639C410E0B4",
">. c #C28FAB45AA65",
",. c #D093D248D575",
"<. c #D0B4D28BD608",
"1. c #D27CD458D7D7",
"2. c #D40AD7B9DF04",
"3. c #CD7BD700EBBA",
"4. c #D173D9F4ED8F",
"5. c #D36BDBA3EE27",
"6. c #D8A8DFF7F001",
"7. c gray100",
/* pixels */
"7.7.7.7.7.7.7.7.7.7.7.7.7.7.7.7.",
"7.7.7.7.7.7.7.7.7.7.7.7.7.7.7.7.",
"6.4.4.4.4.4.4.4.4.4.4.4.4.4.3.:.",
"=.8 6 6 6 7 7 7 6 6 6 6 6 6 5 4 ",
"$.O.( ( / / o.o._ _ ` _ ^ ^ ~ ; ",
"P G Z Z Z Z w * -.E F c Z Z x # ",
"K V d s i t = > *.>.m m c s y + ",
"K V k e & % 1 < 2 >...* r s y + ",
"J z d 0 $ u - , &.-.H q 9 s y + ",
"@.R T T T T M W %.+.T T I I L b ",
"X. .' } ' } ' [ ! ! ! ! ' ' Q : ",
"3 O . O . O X . X X O X O X .   ",
"2.<.<.<.,.,.,.,.,.,.,.,.,.,.,.1.",
"7.7.7.7.7.7.7.7.7.7.7.7.7.7.7.7.",
"7.7.7.7.7.7.7.7.7.7.7.7.7.7.7.7.",
"7.7.7.7.7.7.7.7.7.7.7.7.7.7.7.7."
};
