/* XPM */
static const char *TC_xpm[] = {
/* columns rows colors chars-per-pixel */
"16 16 164 2",
"   c black",
".  c #000000000B0B",
"X  c #000000000D0D",
"o  c #000000000F0F",
"O  c #000000001111",
"+  c #000000001515",
"@  c #000000001717",
"#  c #000000001D1D",
"$  c #000000001F1F",
"%  c #000000002121",
"&  c #000000002525",
"*  c #000000002B2B",
"=  c #000000003131",
"-  c #000000003737",
";  c #000000003D3D",
":  c #000000003F3F",
">  c #000000004343",
",  c #000000004949",
"<  c #000000004F4F",
"1  c #000000005555",
"2  c #000000005B5B",
"3  c #000000005F5F",
"4  c #000000006161",
"5  c #000000006363",
"6  c #000000006565",
"7  c #000000006969",
"8  c #27274E4E7D7D",
"9  c #2E2E52527E7E",
"0  c #5D5D2D2D5D5D",
"q  c #5B5B3F3F7171",
"w  c #737321214747",
"e  c #7F7F35355B5B",
"r  c #4C4C62627474",
"t  c #57576D6D7D7D",
"y  c #00001D1D8787",
"u  c #00002F2F9595",
"i  c #1D1D37378383",
"p  c #1E1E4E4E9696",
"a  c #232352529999",
"s  c #242451519999",
"d  c #292957579C9C",
"f  c #2A2A57579C9C",
"g  c #2C2C58589A9A",
"h  c #2F2F5A5A9D9D",
"j  c #2E2E5B5B9F9F",
"k  c #2F2F5B5B9F9F",
"l  c #303055558181",
"z  c #333358588686",
"x  c #33335B5B9E9E",
"c  c #32325D5D9E9E",
"v  c #3A3A5F5F9F9F",
"b  c #2A2A5151A2A2",
"n  c #2F2F5C5CA0A0",
"m  c #30305757A9A9",
"M  c #36365B5BA6A6",
"N  c #35356060A0A0",
"B  c #34346060A2A2",
"V  c #35356161A2A2",
"C  c #39396363A3A3",
"Z  c #3A3A6464A5A5",
"A  c #3A3A6565A5A5",
"S  c #3B3B6565A5A5",
"D  c #3D3D6666A4A4",
"F  c #3E3E6565A6A6",
"G  c #3B3B6060AAAA",
"H  c #3C3C6363A8A8",
"J  c #3F3F6666ABAB",
"K  c #3F3F6969A8A8",
"L  c #525270709494",
"P  c #5F5F7B7B9E9E",
"I  c #41416666AEAE",
"U  c #42426A6AA6A6",
"Y  c #40406969A8A8",
"T  c #40406A6AA8A8",
"R  c #42426969ACAC",
"E  c #47476B6BA8A8",
"W  c #44446A6AAEAE",
"Q  c #44446D6DABAB",
"!  c #45456E6EABAB",
"~  c #46466E6EA9A9",
"^  c #45456D6DAEAE",
"/  c #46466C6CAEAE",
"(  c #49496F6FACAC",
")  c #49497272AEAE",
"_  c #4B4B7171ACAC",
"`  c #4E4E7575AEAE",
"'  c #4F4F7575AFAF",
"]  c #49497171B0B0",
"[  c #50506F6FA8A8",
"{  c #50507575AEAE",
"}  c #5F5F7373A9A9",
"|  c #53537979B0B0",
" . c #53537A7AB7B7",
".. c #54547979B1B1",
"X. c #58587B7BB3B3",
"o. c #58587D7DB3B3",
"O. c #5C5C7F7FB5B5",
"+. c #77777777A3A3",
"@. c #7F7F7878A1A1",
"#. c #5D5D8181B5B5",
"$. c #727284848C8C",
"%. c #747486868E8E",
"&. c #61618383B8B8",
"*. c #61618484B9B9",
"=. c #62628585B9B9",
"-. c #65658787BABA",
";. c #66668888BABA",
":. c #69698A8ABCBC",
">. c #6A6A8B8BBDBD",
",. c #6F6F8F8FBFBF",
"<. c #838325254343",
"1. c #ADAD5F5F7373",
"2. c #BFBF6F6F7D7D",
"3. c #CDCD19191919",
"4. c #D5D56F6F7474",
"5. c #E2E268686969",
"6. c #E5E573737272",
"7. c #E0E079797A7A",
"8. c #E9E97C7C7979",
"9. c #808074749C9C",
"0. c #E0E07F7F8181",
"q. c #B1B19B9B3E3E",
"w. c #BCBCA3A33F3F",
"e. c #8383BFBF4D4D",
"r. c #B7B79F9F4747",
"t. c #B8B8A2A24F4F",
"y. c #9090C3C34444",
"u. c #C8C8ACAC2E2E",
"i. c #C8C8AEAE3535",
"p. c #C7C7B3B33737",
"a. c #CBCBBFBF3B3B",
"s. c #E3E3AEAE3030",
"d. c #E7E7BBBB3434",
"f. c #C3C3A5A54343",
"g. c #D2D2B2B24141",
"h. c #DDDDBABA5050",
"j. c #F0F0CBCB5E5E",
"k. c #8A8A9494B9B9",
"l. c #91918686A7A7",
"z. c #94948686A7A7",
"x. c #97979797B9B9",
"c. c #A9A982829B9B",
"v. c #BCBC85859797",
"b. c #9696ACACD0D0",
"n. c #9393B0B0D5D5",
"m. c #C3C384849393",
"M. c #D3D38A8A9292",
"N. c #D6D69F9FA9A9",
"B. c #D5D5AEAEB7B7",
"V. c #D6D6ACACB6B6",
"C. c #E1E185858787",
"Z. c #ECEC83838181",
"A. c #E6E694949595",
"S. c #F1F1A6A6A4A4",
"D. c #F0F0A8A8A7A7",
"F. c #D4D4B9B9C4C4",
"G. c #DDDDBABAC3C3",
"H. c #E0E0B9B9C0C0",
"J. c #E4E4D2D2A1A1",
"K. c #DDDDD4D4DEDE",
"L. c #E2E2C3C3CACA",
"P. c #E2E2CCCCD3D3",
"I. c #F6F6E9E9CDCD",
"U. c None",
/* pixels */
"U.U.U.U.U.U.U.U.U.U.U.U.U.U.U.U.",
"U.U.U.U.U.U.U.U.U.U.U.U.U.U.U.U.",
"U.U.U.U.U.U.U.U.U.U.U.U.U.U.U.U.",
"2.+.u w <.y 0 1.5 3 2 1 < , > : ",
"i G.K.V.N.F.P.b.:.-.&.O.o.| ` - ",
"3.A.Z.6.5.8.7.4.[ R P %.$.L ( = ",
"e H.S.0.C.D.M.c.E H h.j.d.t.W * ",
"} L.x.v.m.n.V.z.F I J.I.s.r.J & ",
"q k. .@.9.^ =.l.v m g.a.p.w.G $ ",
"7 ,.] ] ^ T A N n b f.e.y.q.M @ ",
"6 ,._ Q T A B n f s t i.u.r x @ ",
"5 ;.^ K A N h f a p z l 9 8 h o ",
"2 =.#.o.| { _ ~ U F C N c h g o ",
"1 < , > : - = * & $ $ @ O o . . ",
"U.U.U.U.U.U.U.U.U.U.U.U.U.U.U.U.",
"U.U.U.U.U.U.U.U.U.U.U.U.U.U.U.U."
};
