/* XPM */
static char *TC_png[] = {
/* columns rows colors chars-per-pixel */
"16 16 129 2",
"   c #0B470B123FC0",
".  c #0D630D633C2B",
"X  c #0EAB0E8939EF",
"o  c #0C6C0C723CAE",
"O  c #0DA30DA33FF5",
"+  c #1466146935B0",
"@  c #11AE112D3B92",
"#  c #1BBA1AF03760",
"$  c #3D373D372E70",
"%  c #3C983BCA30DA",
"&  c #000000005D32",
"*  c #000000005DA2",
"=  c #09D009785BC4",
"-  c #1648164E5CE9",
";  c #1A361A365D06",
":  c #0000000061FA",
">  c #00000000630E",
",  c #0000000063DF",
"<  c #0000000264F2",
"1  c #0356020265D5",
"2  c #0476062363B8",
"3  c #0897089764AA",
"4  c #0B770BC16AB2",
"5  c #0DEA0C89688D",
"6  c #0C470C476B3A",
"7  c #151815186085",
"8  c #141010F56A55",
"9  c #155B16D66F2A",
"0  c #2C5B1787640D",
"q  c #366D1C5562BF",
"w  c #2D282DB351E8",
"e  c #30AB2EF8520B",
"r  c #320B30F350DC",
"t  c #380D22316A19",
"y  c #3DC742273E62",
"u  c #4A2D1FE75A82",
"i  c #57E12A145FA1",
"p  c #4B233ADD7AAB",
"a  c #69762C8C56AB",
"s  c #50B259643A74",
"d  c #5F635F5B3264",
"f  c #5AE85AE539F8",
"g  c #470B707130D2",
"h  c #52E76B103260",
"j  c #604A60A236D8",
"k  c #786178411813",
"l  c #68C167483D97",
"z  c #693069493CD7",
"x  c #5CA85BE54195",
"c  c #61915EB64115",
"v  c #7BA27C1656E1",
"b  c #7548746C6A64",
"n  c #3096309680A1",
"m  c #37CC37CC87BA",
"M  c #38DC396A8685",
"N  c #3AB43AB4875F",
"B  c #4720474F8E0F",
"V  c #469846978F42",
"C  c #43CA440490CA",
"Z  c #4439446E9094",
"A  c #445B445C9150",
"S  c #600E4CC9842F",
"D  c #5FD460939B0B",
"F  c #60D751648A7D",
"G  c #6CDD6AB6A192",
"H  c #7DFD8E7323C1",
"J  c #AD166635725D",
"K  c #FD1C4BD723BE",
"L  c #FA8E4F7528A7",
"P  c #FA0158D835B7",
"I  c #C16E5D135B2E",
"U  c #DB6A612A4BE4",
"Y  c #D658618250F9",
"T  c #EC006E9A55E8",
"R  c #F2D66A534E3F",
"E  c #FCBC6C2D49A6",
"W  c #F252754E5B5D",
"Q  c #F75F783D5CEC",
"!  c #FDFC7576531F",
"~  c #F9E078B85CC3",
"^  c #968D68B18389",
"/  c #A897717C8389",
"(  c #827A82F51849",
")  c #93D39F4F1DCB",
"_  c #8B8AA36D2030",
"`  c #B818952324DF",
"'  c #ADECBE5415CC",
"]  c #BDB1BDC51A2E",
"[  c #BD31BAF221DC",
"{  c #BB77C6E00D00",
"}  c #EBBF85397284",
"|  c #EDDE8EC47CE7",
" . c #FB23873A6A46",
".. c #F20E8BBC751D",
"X. c #E4FBD315127C",
"o. c #E83AD57B168A",
"O. c #F74ED6281DBB",
"+. c #E487C35022EC",
"@. c #EC47CCBF21B2",
"#. c #FA18CA6728C2",
"$. c #E691E5F70F04",
"%. c #E93EE6D60AD3",
"&. c #B08087F9996F",
"*. c #A7B3899DA302",
"=. c #A3649C81BD29",
"-. c #ACE4ACE4CD23",
";. c #D07292BE9560",
":. c #D037A7DFAED8",
">. c #C271AE25BFAD",
",. c #CC85B129BBA8",
"<. c #DB85B0ABB29A",
"1. c #E7D398928E12",
"2. c #E369BA59BB26",
"3. c #C82EC82EDE09",
"4. c #CF28CF28D32D",
"5. c #CCC7CCC6E093",
"6. c #CD09CD2AE0A6",
"7. c #D10ED10ED54E",
"8. c #D0E1D0E1D9D9",
"9. c #DB55D47CE0CB",
"0. c #CD8CCEFDE210",
"q. c #D38DD382E363",
"w. c #D3C7D51DE5E4",
"e. c #F927DFAFDB4D",
"r. c #E485DEDEE732",
"t. c #ECF1DDFBE10D",
"y. c #F0C5ED14F1E5",
"u. c #F914E772E4F6",
"i. c gray100",
/* pixels */
"i.i.i.i.i.i.i.i.i.i.i.i.i.i.i.i.",
"i.i.i.i.i.i.i.i.i.i.i.i.i.i.i.i.",
"y.w.q.e.t.0.9.u.r.0.5.0.0.0.3.-.",
"2.,.=.| ;.*.<.>.G B B V N V m - ",
"} ! ~ K P E Q Y a < - c c c l $ ",
"1. .T L R ..W I i < r +.O.$.v d ",
":.^ S U J D &./ t < r @.#.o.b l ",
"F 8 5 u q 2 9 p 0 < w %.X.` ] k ",
"M 4 1 1 1 & 1 & < < - ] ' h { k ",
"N 3 1 & 1 1 1 1 1 < < x _ g ) % ",
"t 4 & & & & & & & & & = s H y   ",
"; = . . . . . . . . . . @ # . + ",
"7.4.4.4.4.4.4.4.4.4.4.4.4.4.4.7.",
"i.i.i.i.i.i.i.i.i.i.i.i.i.i.i.i.",
"i.i.i.i.i.i.i.i.i.i.i.i.i.i.i.i.",
"i.i.i.i.i.i.i.i.i.i.i.i.i.i.i.i."
};
