/* XPM */
static char *TG_png[] = {
/* columns rows colors chars-per-pixel */
"16 16 100 2",
"   c #1D174D201FD8",
".  c #18235A651C63",
"X  c #19065DDD1D2B",
"o  c #191B5E371D48",
"O  c #191C5E6D1D55",
"+  c #17D86DFC1CC4",
"@  c #1A3664C61EB8",
"#  c #50F6753A1484",
"$  c #523F7A6516F7",
"%  c #5ACB74DF177A",
"&  c #5F277D9D1490",
"*  c #5F847D2A1594",
"=  c #1782A1732002",
"-  c #13B2B09A22C4",
";  c #18E8AC1D221C",
":  c #191EABED2216",
">  c #1902ACC32241",
",  c #2BA88E1730E9",
"<  c #2CE295982F02",
"1  c #73B8AC9E1313",
"2  c #7520B5F31561",
"3  c #7B5EB7F7142D",
"4  c #7BC8B81B14BE",
"5  c #7FB5BCFC1D60",
"6  c #50B4BE1F53AF",
"7  c #79FAC7001727",
"8  c #7CF6C21416C1",
"9  c #5C49C4135F6D",
"0  c #58A5C7625FD4",
"q  c #5CA2C42A5FAF",
"w  c #E44504450273",
"e  c #E5FE048E0018",
"r  c #E6F907A202F7",
"t  c #E80F05CD071D",
"y  c #E90509BB022E",
"u  c #E9030A00085A",
"i  c #E8B60D841093",
"p  c #EA4B19DA1843",
"a  c #E9F01CCC1ACF",
"s  c #EBB1293A28B1",
"d  c #ED403B6332AD",
"f  c #ED3838F538E1",
"g  c #ED2A3940395F",
"h  c #ECFE38D13B1A",
"j  c #ED7B3AC73AE8",
"k  c #EE7E460333F4",
"l  c #F28E6C0B0A55",
"z  c #F2EF6C780B36",
"x  c #F18F6F030C31",
"c  c #F33873F21711",
"v  c #EE04464A42AF",
"b  c #EC2E49E947BC",
"n  c #EF1D48AB48A0",
"m  c #EFA84F564F75",
"M  c #F0555E9C5625",
"N  c #F1BF69246922",
"B  c #9EE384670F7C",
"V  c #9FC189870FFD",
"C  c #9EA58CEB0D7C",
"Z  c #89ACBA6712D4",
"A  c #8BECBC111309",
"S  c #B04189250FDA",
"D  c #B194AA32119B",
"F  c #8AF59C835788",
"G  c #908BC9821451",
"H  c #9328C729141F",
"J  c #93A8C7E51435",
"K  c #968AC7B51661",
"L  c #9671C7EB1661",
"P  c #96F4C898166F",
"I  c #941BCD06168C",
"U  c #9289CC904351",
"Y  c #FA17988504C7",
"T  c #F5A68E9B436D",
"R  c #F42782937888",
"E  c #EEF4D27E073E",
"W  c #F0FCD267067D",
"Q  c #FEF7E0C807C6",
"!  c #FFFFE02E077D",
"~  c #FFE1E19807CF",
"^  c #FFFFE0FA078F",
"/  c #FFFFE5F00789",
"(  c #FF39E16A0818",
")  c #FFBEE3550889",
"_  c #FFD1E4A914A0",
"`  c #FFFFE9C14138",
"'  c #B770E541B7A8",
"]  c #F9CCBFDEB490",
"[  c #D086D638D070",
"{  c #D276D892D266",
"}  c #D3F7E09AD3D1",
"|  c #CF36EE0DCF86",
" . c #D21BF082D39A",
".. c #D348EF94D394",
"X. c #DFD0E495D132",
"o. c #FB62CC8FCC95",
"O. c #FA7ECD96CCF5",
"+. c #FB81CEEFCEEE",
"@. c #FBEED49DD49D",
"#. c gray100",
/* pixels */
"#.#.#.#.#.#.#.#.#.#.#.#.#.#.#.#.",
"#.#.#.#.#.#.#.#.#.#.#.#.#.#.#.#.",
"@.o.o.o.o.X. . .............| ' ",
"N m n n b F 0 9 9 9 9 9 9 9 6 < ",
"j p d p r S I P K K K K P K A * ",
"j v ] M y Y / ~ ~ ! ! ~ ~ ~ E V ",
"j s R k r B 7 4 8 8 8 8 8 8 2 $ ",
"j i t u w % - : : : : : : : = + ",
"T c z x x D G H H H H H H J A * ",
"` _ Q ) Q Q Q Q ! ~ Q Q Q Q E C ",
"U 5 4 4 4 4 3 3 3 3 3 4 4 4 1 # ",
", @ X X X X o o X X X X o o .   ",
"X.[ [ [ [ [ [ [ [ [ [ [ [ [ [ { ",
"#.#.#.#.#.#.#.#.#.#.#.#.#.#.#.#.",
"#.#.#.#.#.#.#.#.#.#.#.#.#.#.#.#.",
"#.#.#.#.#.#.#.#.#.#.#.#.#.#.#.#."
};
