/* XPM */
static const char *TG_xpm[] = {
/* columns rows colors chars-per-pixel */
"16 16 157 2",
"   c black",
".  c #000027270000",
"X  c #000029290000",
"o  c #00002B2B0000",
"O  c #00002D2D0000",
"+  c #00002F2F0000",
"@  c #000031310000",
"#  c #000033330000",
"$  c #000037370000",
"%  c #00003D3D0000",
"&  c #00003F3F0000",
"*  c #000045450000",
"=  c #00004B4B0000",
"-  c #00004D4D0000",
";  c #00004F4F0000",
":  c #000051510000",
">  c #000055550000",
",  c #00005B5B0000",
"<  c #00005F5F0000",
"1  c #000061610000",
"2  c #000065650000",
"3  c #00006B6B0000",
"4  c #00006F6F0000",
"5  c #000071710000",
"6  c #000073730000",
"7  c #000077770000",
"8  c #000087870000",
"9  c #1A1A97971A1A",
"0  c #1F1F9A9A1F1F",
"q  c #25259D9D2525",
"w  c #2A2AA0A02B2B",
"e  c #3030A3A32C2C",
"r  c #3333A4A42F2F",
"t  c #3030A3A33030",
"y  c #3535A6A63232",
"u  c #3636A6A63636",
"i  c #3B3BA6A63B3B",
"p  c #3939A8A83535",
"a  c #3D3DAAAA3939",
"s  c #3B3BB1B13B3B",
"d  c #4B4BA3A31414",
"f  c #4F4FA5A51919",
"g  c #5454A8A81F1F",
"h  c #4141ADAD3D3D",
"j  c #5B5BA9A92020",
"k  c #5858ABAB2424",
"l  c #5F5FACAC2525",
"z  c #5D5DADAD2A2A",
"x  c #5555B0B03535",
"c  c #6363AEAE2B2B",
"v  c #6161B0B02F2F",
"b  c #6767B1B13030",
"n  c #6565B0B03636",
"m  c #6B6BB4B43636",
"M  c #6F6FB6B63C3C",
"N  c #7272B5B53F3F",
"B  c #4545AEAE4242",
"V  c #4A4AB0B04646",
"C  c #4E4EB3B34B4B",
"Z  c #5050B4B44E4E",
"A  c #5353B5B55050",
"S  c #5454B7B75353",
"D  c #5757B8B85555",
"F  c #5959B9B95757",
"G  c #5B5BBABA5858",
"H  c #5E5EBBBB5C5C",
"J  c #6060BCBC5D5D",
"K  c #7474BEBE4141",
"L  c #6262BEBE6060",
"P  c #6565BEBE6262",
"I  c #6666C0C06565",
"U  c #6A6AC2C26969",
"Y  c #6F6FC9C96D6D",
"T  c #ABAB7D7D0000",
"R  c #FDFD00000000",
"E  c red",
"W  c #F9F946464646",
"Q  c #FBFB46464646",
"!  c #FAFA4B4B4B4B",
"~  c #FCFC4B4B4B4B",
"^  c #FBFB50505050",
"/  c #FBFB51515151",
"(  c #FBFB55555454",
")  c #FCFC55555555",
"_  c #FCFC56565656",
"`  c #FCFC59595959",
"'  c #FDFD5B5B5B5B",
"]  c #FDFD5E5E5E5E",
"[  c #FEFE71717272",
"{  c #FDFD77777777",
"}  c #FEFE76767676",
"|  c #FEFE77777777",
" . c #FDFD79797A7A",
".. c #FEFE7B7B7B7B",
"X. c #FFFF7B7B7B7B",
"o. c #FEFE7D7D7D7D",
"O. c #FEFE7E7E7E7E",
"+. c #DFDF8D8D0000",
"@. c #D5D597970000",
"#. c #D3D3B1B10000",
"$. c #D6D6BEBE0B0B",
"%. c #E7E79D9D0000",
"&. c #D7D7C0C00E0E",
"*. c #D9D9C2C21313",
"=. c #DADAC4C41919",
"-. c #DCDCC6C61E1E",
";. c #DDDDC7C72323",
":. c #DFDFCACA2929",
">. c #DCDCC8C82F2F",
",. c #FBFBC5C50000",
"<. c #F2F2C7C71010",
"1. c #F2F2C9C91414",
"2. c #F3F3CACA1919",
"3. c #F4F4CCCC1F1F",
"4. c #E1E1CCCC2E2E",
"5. c #EBEBCECE2C2C",
"6. c #E2E2CECE3434",
"7. c #E4E4CFCF3A3A",
"8. c #E4E4D1D13F3F",
"9. c #EDEDD0D03131",
"0. c #EEEED2D23737",
"q. c #EFEFD4D43D3D",
"w. c #F5F5CECE2424",
"e. c #F5F5CFCF2626",
"r. c #F3F3CECE3232",
"t. c #F6F6D0D02A2A",
"y. c #F6F6D1D12B2B",
"u. c #F7F7D2D22F2F",
"i. c #F7F7D3D33131",
"p. c #F8F8D5D53434",
"a. c #F8F8D5D53636",
"s. c #F9F9D6D63C3C",
"d. c #F9F9D9D93A3A",
"f. c #FAFADADA3F3F",
"g. c #E6E6D3D34444",
"h. c #EDEDD5D54949",
"j. c #EDEDDADA4C4C",
"k. c #F0F0D5D54242",
"l. c #F1F1D7D74747",
"z. c #F6F6D6D64444",
"x. c #FAFAD8D84242",
"c. c #FBFBDCDC4545",
"v. c #FBFBDDDD4949",
"b. c #EBEBDCDC6666",
"n. c #FBFBE3E34747",
"m. c #FCFCE4E46A6A",
"M. c #FFFF83838383",
"N. c #FEFE87878787",
"B. c #FEFE9B9B9B9B",
"V. c #FDFDB3B3B4B4",
"C. c #FEFEB7B7B7B7",
"Z. c #FEFED0D0D0D0",
"A. c #FEFEDADADADA",
"S. c #FDFDDEDEDEDE",
"D. c #FDFDE4E4E4E4",
"F. c #FEFEFEFEFEFE",
"G. c None",
/* pixels */
"G.G.G.G.G.G.G.G.G.G.G.G.G.G.G.G.",
"G.G.G.G.G.G.G.G.G.G.G.G.G.G.G.G.",
"G.G.G.G.G.G.G.G.G.G.G.G.G.G.G.G.",
"E E E E R E E 8 7 6 4 3 2 1 , < ",
"E X.X.o.} o.X.Y U I L H F S Z - ",
"E M.B.Z.[ ] ' j.l.k.q.0.9.5.h.@.",
"E o.A.F.S.' _ n.x.s.a.i.y.e.z.%.",
"E } C.D.V.! / K M m b c l j N : ",
"E N.] ' _ Q ! s u t w q 0 9 i + ",
"E { ` ( ~ ! W x v z j g f d n * ",
",.m.c.c.x.d.a.u.y.w.3.2.1.<.r.+.",
"#.b.g.8.8.6.4.:.;.-.=.*.&.$.>.T ",
"6 P H G F A C V B h a p y t e o ",
"6 2 1 , > : = * % % $ @ + o . @ ",
"G.G.G.G.G.G.G.G.G.G.G.G.G.G.G.G.",
"G.G.G.G.G.G.G.G.G.G.G.G.G.G.G.G."
};
