/* XPM */
static const char *TH_xpm[] = {
/* columns rows colors chars-per-pixel */
"16 16 144 2",
"   c black",
".  c #000000002525",
"X  c #000000003131",
"o  c #000000003333",
"O  c #000000005B5B",
"+  c #000000007373",
"@  c #000000007B7B",
"#  c #000000007D7D",
"$  c #000000007F7F",
"%  c #0B0B0D0D9999",
"&  c #141414149494",
"*  c #191919199696",
"=  c #1A1A1A1A9A9A",
"-  c #1F1F1F1F9999",
";  c #1F1F1F1F9D9D",
":  c #202020209B9B",
">  c #242424249C9C",
",  c #252525259E9E",
"<  c #252525259F9F",
"1  c #2A2A2A2A9F9F",
"2  c #2B2B2B2BA1A1",
"3  c #2A2A2B2BA3A3",
"4  c #2F2F2F2FA2A2",
"5  c #30303030A4A4",
"6  c #30303030A5A5",
"7  c #36363636A3A3",
"8  c #35353535A5A5",
"9  c #36363636A7A7",
"0  c #36363636A8A8",
"q  c #3B3B3B3BA7A7",
"w  c #3B3B3B3BA9A9",
"e  c #3B3B3B3BAAAA",
"r  c #3B3B3B3BABAB",
"t  c #3F3F3F3FA9A9",
"y  c #40404040AAAA",
"u  c #41414141ACAC",
"i  c #40404040AEAE",
"p  c #45454545ADAD",
"a  c #46464646AFAF",
"s  c #41414545B1B1",
"d  c #46464646B1B1",
"f  c #49494A4AB0B0",
"g  c #4B4B4A4AB3B3",
"h  c #4B4B4B4BB2B2",
"j  c #4F4F4F4FB2B2",
"k  c #4F4F4F4FB5B5",
"l  c #4E4E5050AFAF",
"z  c #50504F4FB4B4",
"x  c #51515353B1B1",
"c  c #53535353B7B7",
"v  c #55555757B3B3",
"b  c #54545454B6B6",
"n  c #59595B5BB5B5",
"m  c #58585858B8B8",
"M  c #5D5D5F5FB8B8",
"N  c #62626363BABA",
"B  c #66666767BCBC",
"V  c #67676969BABA",
"C  c #6A6A6C6CBFBF",
"Z  c #6F6F6F6FC0C0",
"A  c #6E6E7070C1C1",
"S  c #72727272C4C4",
"D  c #73737474C3C3",
"F  c #76767676C5C5",
"G  c #77777979C2C2",
"H  c #77777878C6C6",
"J  c #7B7B7B7BC4C4",
"K  c #7B7B7C7CC7C7",
"L  c #7F7F8080C6C6",
"P  c #DDDD00000000",
"I  c #DFDF00000000",
"U  c #E1E100000000",
"Y  c #E3E300000000",
"T  c #E5E500000000",
"R  c #E7E700000000",
"E  c #E9E900000000",
"W  c #EBEB00000000",
"Q  c #EDED00000000",
"!  c #EFEF00000000",
"~  c #F1F100000000",
"^  c #F3F300000000",
"/  c #F5F500000000",
"(  c #F7F700000000",
")  c #F9F900000000",
"_  c #FBFB00000000",
"`  c #FDFD00000000",
"'  c red",
"]  c #F2F243434343",
"[  c #F2F246464646",
"{  c #F2F249494949",
"}  c #F3F34B4B4B4B",
"|  c #F4F44F4F4F4F",
" . c #F5F553535353",
".. c #F6F657575757",
"X. c #F7F758585858",
"o. c #F7F75B5B5B5B",
"O. c #F8F85C5C5C5C",
"+. c #F7F760606060",
"@. c #F9F960606060",
"#. c #F8F863636464",
"$. c #FAFA65656565",
"%. c #F9F968686868",
"&. c #F9F96B6B6B6B",
"*. c #FBFB6A6A6A6A",
"=. c #FAFA6F6F6F6F",
"-. c #FCFC6E6E6E6E",
";. c #FBFB74747474",
":. c #FCFC72727272",
">. c #FDFD75757575",
",. c #FDFD79797A7A",
"<. c #FEFE7B7B7B7B",
"1. c #FEFE7F7F7F7F",
"2. c #82828383C8C8",
"3. c #85858787CACA",
"4. c #8A8A8B8BCBCB",
"5. c #89898A8ACCCC",
"6. c #8C8C8E8ECFCF",
"7. c #90909191D0D0",
"8. c #93939494D2D2",
"9. c #93939595D2D2",
"0. c #96969797D4D4",
"q. c #98989A9AD5D5",
"w. c #9B9B9C9CD6D6",
"e. c #ADADAEAEDDDD",
"r. c #FEFE81818080",
"t. c #FFFF83838383",
"y. c #DFDFDFDFDFDF",
"u. c #E9E9E9E9E9E9",
"i. c #F1F1F1F1F1F1",
"p. c gray95",
"a. c #F3F3F3F3F3F3",
"s. c #F4F4F4F4F4F4",
"d. c gray96",
"f. c #F6F6F6F6F6F6",
"g. c gray97",
"h. c #F8F8F8F8F8F8",
"j. c #F9F9F9F9F9F9",
"k. c gray98",
"l. c #FBFBFBFBFBFB",
"z. c gray99",
"x. c #FDFDFDFDFDFD",
"c. c #FEFEFEFEFEFE",
"v. c gray100",
"b. c None",
/* pixels */
"b.b.b.b.b.b.b.b.b.b.b.b.b.b.b.b.",
"b.b.b.b.b.b.b.b.b.b.b.b.b.b.b.b.",
"b.b.b.b.b.b.b.b.b.b.b.b.b.b.b.b.",
"' ' ' ' _ ' ' ' _ _ ( ( ^ ^ Q Q ",
"' t.t.1.1.<.<.;.:.-.*.$.@.o.X.W ",
"v.v.v.v.v.v.l.v.v.h.h.h.g.g.g.u.",
"s e.w.q.9.9.7.6.5.3.2.L J G 4.# ",
"# F m b j h a u w 9 6 2 < : t o ",
"@ S c k g d i r 0 4 3 < : = w X ",
"+ A j f p y w 8 4 2 > - * & 7 . ",
"% 9.K H D A Z N N M n b x l V O ",
"h.v.l.l.h.g.g.f.g.a.p.p.p.p.p.y.",
"( ;.=.&.*.+.+.o... . .{ { [ ] P ",
"( ^ ^ Q Q Q W W R R U U P P P P ",
"b.b.b.b.b.b.b.b.b.b.b.b.b.b.b.b.",
"b.b.b.b.b.b.b.b.b.b.b.b.b.b.b.b."
};
