/* XPM */
static const char *TK_xpm[] = {
/* columns rows colors chars-per-pixel */
"16 16 157 2",
"   c black",
".  c #000000007171",
"X  c #000000007373",
"o  c #000000007777",
"O  c #000000007979",
"+  c #000000007B7B",
"@  c #000000007D7D",
"#  c #000000007F7F",
"$  c #40407C7C6868",
"%  c #000000008181",
"&  c #000000008383",
"*  c #000000008585",
"=  c #000000008787",
"-  c #000000008D8D",
";  c #000000009191",
":  c #000000009393",
">  c #000000009999",
",  c #000000009D9D",
"<  c #00000000A1A1",
"1  c #00000000A5A5",
"2  c #00000000A7A7",
"3  c #00000000A9A9",
"4  c #00000000ABAB",
"5  c #00000000ADAD",
"6  c #00000000AFAF",
"7  c #00000000B3B3",
"8  c #00000000B5B5",
"9  c #00000000B9B9",
"0  c #00000000BBBB",
"q  c #0B0B2C2CBEBE",
"w  c #10103030BFBF",
"e  c #13133434BBBB",
"r  c #00000000C3C3",
"t  c #00000101C3C3",
"y  c #00000303C5C5",
"u  c #00000505C5C5",
"i  c #00000B0BC5C5",
"p  c #14143535C1C1",
"a  c #1A1A3A3AC4C4",
"s  c #20203F3FC6C6",
"d  c #2A2A5656B9B9",
"f  c #2D2D5A5AB1B1",
"g  c #26264545C8C8",
"h  c #2C2C4848C6C6",
"j  c #2F2F4B4BC7C7",
"k  c #2C2C4949CACA",
"l  c #2F2F4B4BC8C8",
"z  c #2F2F4C4CCFCF",
"x  c #32324D4DC8C8",
"c  c #33334E4EC8C8",
"v  c #36365151C9C9",
"b  c #36365151CFCF",
"n  c #3B3B5656CCCC",
"m  c #3F3F5A5ACDCD",
"M  c #35355151D0D0",
"N  c #3B3B5656D1D1",
"B  c #3B3B5656D2D2",
"V  c #46465D5DBCBC",
"C  c #44446161BEBE",
"Z  c #44445E5ECFCF",
"A  c #41415B5BD2D2",
"S  c #44445F5FD2D2",
"D  c #49496363D1D1",
"F  c #49496363D4D4",
"G  c #4E4E6767D3D3",
"H  c #4F4F6868D6D6",
"J  c #52526868C3C3",
"K  c #51516C6CC5C5",
"L  c #53536B6BD4D4",
"P  c #55556E6ED3D3",
"I  c #53536C6CD8D8",
"U  c #58586F6FD6D6",
"Y  c #5D5D7777D2D2",
"T  c #5F5F7676D4D4",
"R  c #58587171D9D9",
"E  c #58587070DADA",
"W  c #5D5D7575D8D8",
"Q  c #5C5C7A7ADFDF",
"!  c #5F5F7D7DE0E0",
"~  c #65657878C8C8",
"^  c #6D6D7F7FCCCC",
"/  c #61617878D9D9",
"(  c #60607C7CDCDC",
")  c #66667C7CDBDB",
"_  c #5252A0A03B3B",
"`  c #5757A3A33F3F",
"'  c #434380806B6B",
"]  c #49498A8A6565",
"[  c #5A5A8E8E7E7E",
"{  c #5B5BA4A45050",
"}  c #6060A4A44848",
"|  c #7A7A83838D8D",
" . c #7B7B8B8BBEBE",
".. c #6A6A8080DDDD",
"X. c #6F6F8484DEDE",
"o. c #72728686DFDF",
"O. c #7F7F9191DADA",
"+. c #76768A8AE0E0",
"@. c #79799191E5E5",
"#. c #79799292E5E5",
"$. c #7B7B9494E6E6",
"%. c #969696966262",
"&. c #A3A3A6A65E5E",
"*. c #AFAFB0B05D5D",
"=. c #A7A7A4A46464",
"-. c #A4A4A5A56B6B",
";. c #A6A6A6A67979",
":. c #A7A7A8A87A7A",
">. c #B0B0B1B16161",
",. c #B0B0B1B16464",
"<. c #B4B4B5B56868",
"1. c #B7B7B9B96B6B",
"2. c #B0B0B2B27D7D",
"3. c #B4B4B4B47F7F",
"4. c #B7B7B8B87272",
"5. c #B8B8B6B67F7F",
"6. c #BABAB8B87171",
"7. c #BABABCBC7A7A",
"8. c #C5C5BABA4545",
"9. c #C1C1BBBB5A5A",
"0. c #CACAC2C25555",
"q. c #CCCCC4C45959",
"w. c #CECEC8C85D5D",
"e. c #D9D9CECE4D4D",
"r. c #D3D3CBCB5858",
"t. c #DDDDD2D25858",
"y. c #CFCFC8C86060",
"u. c #C9C9C6C67979",
"i. c #D6D6CDCD6E6E",
"p. c #D8D8D0D06565",
"a. c #DFDFD9D97C7C",
"s. c #EAEADBDB4B4B",
"d. c #EBEBDDDD5050",
"f. c #F3F3E6E67070",
"g. c #F4F4E8E87474",
"h. c #82828E8E8282",
"j. c #81818E8E8888",
"k. c #898990908E8E",
"l. c #8B8B97978E8E",
"z. c #8B8B93939C9C",
"x. c #8C8C99999191",
"c. c #91919E9E8181",
"v. c #91919C9C9999",
"b. c #8C8C9696A7A7",
"n. c #9D9DA9A98E8E",
"m. c #9797A2A29B9B",
"M. c #A0A0A5A59595",
"N. c #A1A1A7A79B9B",
"B. c #A0A0ABAB9292",
"V. c #A4A4B0B09393",
"C. c #AAAAAFAFA1A1",
"Z. c #B3B3B8B8AEAE",
"A. c #E3E3DCDC8686",
"S. c #E2E2E7E7F6F6",
"D. c #E7E7EAEAF8F8",
"F. c #E9E9EBEBF7F7",
"G. c None",
/* pixels */
"G.G.G.G.G.G.G.G.G.G.G.G.G.G.G.G.",
"G.G.G.G.G.G.G.G.G.G.G.G.G.G.G.G.",
"G.G.G.G.G.G.G.G.G.G.G.G.G.G.G.G.",
"i u u u r 0 8 2 < 5 5 4 2 < , , ",
"y $.$.$.O.Z.A.g.f.a.V...R L G : ",
"u $.Q ( D. .u.V.B.n.r.:.V h D : ",
"y @.Q E T F.Y 3.2.6.1.0.| g Z - ",
"r +.E N.b.P S.A N l.<.| =.g m * ",
"0 +.I i.m.7.K m b C ,.| 8.s n # ",
"8 X.L 5.v.t.x.v x d { } %.e v # ",
"7 ) G z.6.w.e.*.-.f ] ` $ w v + ",
"7 ) D C :.q.n.>.*.=.' _ e q j + ",
"4 / T R ..n.t.d.s.t.| | c j h o ",
"4 2 < , > > - X . # # + + + + + ",
"G.G.G.G.G.G.G.G.G.G.G.G.G.G.G.G.",
"G.G.G.G.G.G.G.G.G.G.G.G.G.G.G.G."
};
