/* XPM */
static const char *TL_xpm[] = {
/* columns rows colors chars-per-pixel */
"16 16 135 2",
"   c black",
".  c #454500000000",
"X  c #717119190000",
"o  c #494949494949",
"O  c #4B4B4A4A4B4B",
"+  c #4C4C4C4C5252",
"@  c #545454545858",
"#  c gray36",
"$  c #717171714545",
"%  c gray40",
"&  c #6D6D6D6D6D6D",
"*  c #797979797979",
"=  c #7B7B7B7B7A7A",
"-  c #7A7A80804545",
";  c #7F7F81815050",
":  c #DDDD00000000",
">  c #DFDF00000000",
",  c #E1E100000000",
"<  c #E3E300000000",
"1  c #E5E500000000",
"2  c #E7E700000000",
"3  c #E9E900000000",
"4  c #EBEB00000000",
"5  c #EDED00000000",
"6  c #EFEF00000000",
"7  c #F1F100000000",
"8  c #F3F300000000",
"9  c #F5F500000000",
"0  c #F7F700000000",
"q  c #F1F10B0B0B0B",
"w  c #F1F10F0F0E0E",
"e  c #F9F900000000",
"r  c #FBFB00000000",
"t  c #FDFD00000000",
"y  c red",
"u  c #FFFF09090000",
"i  c #F2F210101010",
"p  c #F2F213131313",
"a  c #F2F214141414",
"s  c #F3F319191919",
"d  c #F3F31A1A1A1A",
"f  c #F4F41E1E1E1E",
"g  c #F4F41F1F1F1F",
"h  c #F4F420202020",
"j  c #F5F523232323",
"k  c #F5F524242424",
"l  c #F5F525252525",
"z  c #F5F526262626",
"x  c #F2F22C2C2C2C",
"c  c #F2F22F2F2F2F",
"v  c #F6F629292929",
"b  c #F6F62A2A2A2A",
"n  c #F6F62B2B2B2B",
"m  c #F6F62C2C2C2C",
"M  c #F7F72E2E2E2E",
"N  c #F7F72F2F2F2F",
"B  c #F2F232323232",
"V  c #F3F332323232",
"C  c #F3F335353535",
"Z  c #F7F730303030",
"A  c #F7F731313131",
"S  c #F4F436363636",
"D  c #F7F73A3A3030",
"F  c #F4F439393939",
"G  c #F4F43B3B3B3B",
"H  c #F5F53D3D3D3D",
"J  c #F5F53F3F3F3F",
"K  c #F8F834343434",
"L  c #F8F836363636",
"P  c #F8F837373636",
"I  c #F8F837373737",
"U  c #F9F93C3C3C3C",
"Y  c #F9F93C3C3D3D",
"T  c #F9F943433D3D",
"R  c #F8F84C4C3535",
"E  c #F9F976763B3B",
"W  c #F6F642424242",
"Q  c #F6F644444444",
"!  c #F7F746464646",
"~  c #F7F749494949",
"^  c #F7F74B4B4B4B",
"/  c #F7F74E4E4E4E",
"(  c #FAFA41414242",
")  c #FAFA42424242",
"_  c #FBFB47474747",
"`  c #FCFC4C4C4C4C",
"'  c #FCFC5C5C4C4C",
"]  c #F8F850505050",
"[  c #F8F853535353",
"{  c #F9F954545555",
"}  c #F9F957575757",
"|  c #FDFD51515151",
" . c #FDFD54545454",
".. c #FAFA5C5C5C5C",
"X. c #F9F966665959",
"o. c #FBFB60606060",
"O. c #FCFC65656565",
"+. c #FCFC69696969",
"@. c #FDFD6D6D6D6D",
"#. c #FDFD70707171",
"$. c #FEFE74747474",
"%. c #FEFE77777777",
"&. c #81818A8A4444",
"*. c #8E8E8D8D4747",
"=. c #8F8F96965959",
"-. c #9D9D96966262",
";. c #9A9AA2A25F5F",
":. c #B3B3ABAB7C7C",
">. c #F8F887873636",
",. c #F8F88B8B3838",
"<. c #F9F9B3B33C3C",
"1. c #FAFA86864242",
"2. c #FEFE85855A5A",
"3. c #FEFE81817A7A",
"4. c #F7F7ADAD5E5E",
"5. c #FDFDB6B65151",
"6. c #FDFDBABA7C7C",
"7. c #F2F2D7D73F3F",
"8. c #F9F9E5E53B3B",
"9. c #F9F9F9F93C3C",
"0. c #F9F9DDDD5D5D",
"q. c #E1E1E8E84141",
"w. c #E8E8EFEF4C4C",
"e. c #EEEEF0F04040",
"r. c #FBFBE1E14747",
"t. c #F9F9FAFA4040",
"y. c #F6F6F3F35555",
"u. c #A3A3A3A3A2A2",
"i. c #A4A4A4A4A4A4",
"p. c #D5D5D5D5D5D5",
"a. c #D7D7D7D7D7D7",
"s. c #D7D7D7D7D8D8",
"d. c #EEEEEDEDEDED",
"f. c gray96",
"g. c None",
/* pixels */
"g.g.g.g.g.g.g.g.g.g.g.g.g.g.g.g.",
"g.g.g.g.g.g.g.g.g.g.g.g.g.g.g.g.",
"g.g.g.g.g.g.g.g.g.g.g.g.g.g.g.g.",
"X u y y r y y y r r 0 0 8 8 5 5 ",
"  :.6.%.%.%.#.@.+.O.o...} [ / 4 ",
"  = ;.0.2. .| ` _ ( Y I A M ~ 4 ",
"  = # =.y.5.' _ ( U S A n z Q 1 ",
"  i.a.@ ; w.r.1.T I Z n z h T 1 ",
"  d.f.a.O *.t.9.,.N n z f s G 1 ",
"  i.a.+ $ q.8.>.D n z f s p S 1 ",
"  & o $ e.<.R A n j f s p p B > ",
"  % &.7.E I M n j f s p w q c > ",
"  -.4.X.{ ] ~ Q ( H F C B c c > ",
". 8 7 7 5 5 4 4 1 1 , , > > : : ",
"g.g.g.g.g.g.g.g.g.g.g.g.g.g.g.g.",
"g.g.g.g.g.g.g.g.g.g.g.g.g.g.g.g."
};
