/* XPM */
static char *TT_xpm[] = {
/* columns rows colors chars-per-pixel */
"16 16 126 2",
"   c black",
".  c #008A00FC0114",
"X  c #000D01280176",
"o  c #01AA025E028E",
"O  c #01D003420378",
"+  c #022303D5046B",
"@  c #037A05950626",
"#  c #049E067B0710",
"$  c #092B0A980B12",
"%  c #0B6B0B7E0B7F",
"&  c #0A200CEA0DA0",
"*  c #1135138413E7",
"=  c #1237129212CC",
"-  c #14C9170B17AB",
";  c #17ED1ADD1BFF",
":  c #1B3C1CDD1D8D",
">  c #21AB26012705",
",  c #2C912D292D5C",
"<  c #34EF35D935FD",
"1  c #373B379E3737",
"2  c #632C37F12E49",
"3  c #489341A53FDE",
"4  c #7FEE48803B73",
"5  c #44854443442C",
"6  c #447044AE442C",
"7  c #4723476E477F",
"8  c #4D244A054962",
"9  c #4C5D4D274D6A",
"0  c #593C4BA34847",
"q  c #58D953BB5210",
"w  c #5C7357915661",
"e  c #653C5F2C5D9B",
"r  c #6E185FFB5C77",
"t  c #6ABD6CF76D91",
"y  c #844624640C68",
"u  c #842D254C0D64",
"i  c #853D23F50E0F",
"p  c #8DA627920DA1",
"a  c #9418243E0AFB",
"s  c #9B28271E08E3",
"d  c #9B2B272A08E3",
"f  c #9BE426A208A6",
"g  c #9D4326AF087C",
"h  c #B7983CA91ABE",
"j  c #831C69F96370",
"k  c #8D296D73667A",
"l  c #84AD74ED70E2",
"z  c #C87D3C1D177A",
"x  c #EFDB30190000",
"c  c #EFDF30320000",
"v  c #F1432EB10000",
"b  c #F0F12E5901A3",
"n  c #F14B2FAE0000",
"m  c #FFFF2FD9002B",
"M  c #F19930D700C4",
"N  c #F1ED3314095C",
"B  c #F5AF38090895",
"V  c #FFFF308F0000",
"C  c #FFFF31FD0000",
"Z  c #FFFF32D00019",
"A  c #FFFF33530000",
"S  c #FFFF35150268",
"D  c #FFFF35360256",
"F  c #FFFF343A07B5",
"G  c #FFFF3A170ACD",
"H  c #FFFF3AA50E14",
"J  c #FFFF3D580C2E",
"K  c #FFFF3DB511EE",
"L  c #FFFF3C5F12DB",
"P  c #FFFF43BB19AB",
"I  c #FFFF44F31B19",
"U  c #FFAC48161EAD",
"Y  c #FF7A4A2322E9",
"T  c #FFFF4F4B2672",
"R  c #F14659C13125",
"E  c #FBDA5C663978",
"W  c #FE455D28397B",
"Q  c #FDEC5F5F3BD9",
"!  c #F29C61FF3AB3",
"~  c #F2A5627B3B43",
"^  c #F33460613A87",
"/  c #F9B261963A82",
"(  c #D8E25B754083",
")  c #D21D7EF96CA1",
"_  c #DDE67C4E666B",
"`  c #E88866DC4928",
"'  c #F02674FF597A",
"]  c #FC766A5F4645",
"[  c #FC6D6C274754",
"{  c #FCA66CAE47EB",
"}  c #FD9A733A5482",
"|  c #E80C7A7761A0",
" . c #A7AC823178FE",
".. c #B6C284D878AB",
"X. c #C04483CE7529",
"o. c #BF2886FA795D",
"O. c #C8A9834E731E",
"+. c #D8C683F36FED",
"@. c #D909858E7289",
"#. c #E82B845A6EA9",
"$. c #906787CF85FB",
"%. c #C9D0A5509C90",
"&. c #F3309A2983FA",
"*. c #EA71A2FA91C1",
"=. c #F4B4BD86AD8B",
"-. c #CA93CAE2CAFB",
";. c #CC56CC4BCC48",
":. c #CEB5CEAFCEA9",
">. c #CF1ECF1DCF1D",
",. c #D0AFD142D151",
"<. c #D8EDD09FCEAB",
"1. c #D89DD13FCF2E",
"2. c #D98AD168CF2B",
"3. c #D17ED193D1AB",
"4. c #D5B7D67CD6AC",
"5. c #D8EAD50ED40F",
"6. c #D9CCD847D7CB",
"7. c #D9D8DBACDC32",
"8. c #E4F4D58FD0FC",
"9. c #F9AED37EC859",
"0. c #F9E3D5AFCBA8",
"q. c #F9EBD6F2CCDB",
"w. c #FBE0D8DDD03F",
"e. c #F5DFEA66E6D8",
"r. c #F6ECECEDEA19",
"t. c gray100",
/* pixels */
"t.t.t.t.t.t.t.t.t.t.t.t.t.t.t.t.",
"t.t.t.t.t.t.t.t.t.t.t.t.t.t.t.t.",
"r.7.-.;.4.e.w.0.q.q.q.q.q.q.9.=.",
"&.%.t 7 9 $.*.} ] [ [ [ [ [ / z ",
"^ W X.< X $ e #.L C D A A A M g ",
"^ G Y O.7 X # q @.I C C A A c d ",
"^ J C I +.8 X + 7 ) Y m A A c d ",
"^ J A C K _ w @ X < o.T C A c d ",
"^ J C A C L | r & X , ..E C x s ",
"~ J A C C C D ' l = X >  .W b s ",
"R B M M b M b N ` j - X : k ( a ",
"h p y y y y y y i 4 3 = $ ; 0 2 ",
"8.<.1.1.<.<.<.1.<.<.5.3.>.;.3.6.",
"t.t.t.t.t.t.t.t.t.t.t.t.t.t.t.t.",
"t.t.t.t.t.t.t.t.t.t.t.t.t.t.t.t.",
"t.t.t.t.t.t.t.t.t.t.t.t.t.t.t.t."
};
