/* XPM */
static char *TV_png[] = {
/* columns rows colors chars-per-pixel */
"16 16 147 2",
"   c #1F725B0F6A02",
".  c #1F855EA66FCB",
"X  c #1E855ED370AC",
"o  c #1EEE69057B42",
"O  c #221F4DA85878",
"+  c #20945F3B6F18",
"@  c #20C15F836F4C",
"#  c #29D461656978",
"$  c #227B659676B2",
"%  c #2F8872B8798B",
"&  c #318863176479",
"*  c #361674C2763D",
"=  c #38A9748D7393",
"-  c #1F266E798382",
";  c #20CD6ED0826C",
":  c #21076F4F82EA",
">  c #6AC57F789CB5",
",  c #23EC91E9BBD1",
"<  c #24D6921DBC06",
"1  c #23F79950B663",
"2  c #362B8F25A58D",
"3  c #3E3C92EFB500",
"4  c #2B93A4EABFAA",
"5  c #3942A79CB623",
"6  c #3AC8A8B4B638",
"7  c #24C3A27EC2B9",
"8  c #24D8A3CBC4B2",
"9  c #25D2A345C30C",
"0  c #2665A35FC2BB",
"q  c #279BA32FC10D",
"w  c #2660A373C2EF",
"e  c #2607AE05CFAE",
"r  c #2716AD76D02A",
"t  c #27E9AD59CF86",
"y  c #2766AE87CFB2",
"u  c #2711AED0D06E",
"i  c #2BB0A3C7C78C",
"p  c #2ED1A93CC7F8",
"a  c #29BBAE09CE93",
"s  c #2846AD67CF65",
"d  c #28A9ADE1CF32",
"f  c #2861AE0FD00B",
"g  c #295FAE3BCF80",
"h  c #2899AEF8CFCC",
"j  c #2894AF95D024",
"k  c #292BAFBFD039",
"l  c #2AF7AE52CF78",
"z  c #2C94AE76CC92",
"x  c #2D25AEB9CC3A",
"c  c #2EEAAFCDCC1B",
"v  c #2D88AD25CD31",
"b  c #2C99AFBCCE7B",
"n  c #2689AFD3D14A",
"m  c #272BAFFCD113",
"M  c #28ABAFDBD13E",
"N  c #377AA5C1C31B",
"B  c #32F5B04BC8AA",
"V  c #312AB06FCAA3",
"C  c #3B3CA377C152",
"Z  c #3C64A305C3D0",
"A  c #3405B0F2C8B5",
"S  c #357BB0C8C6C4",
"D  c #37F5B1CCC715",
"F  c #3333B0E9C997",
"G  c #39D0B1E2C4AD",
"H  c #39FFB2B1C51A",
"J  c #3DE0B2C6C260",
"K  c #3176B2CED272",
"L  c #33D4B25FD187",
"P  c #494D9B23A1B0",
"I  c #45EC92B1B2A1",
"U  c #45B4AAF3AD81",
"Y  c #4BD0AC86ABF6",
"T  c #4869AB78AE7D",
"R  c #43BFAA5AB0B2",
"E  c #4A15A458C01D",
"W  c #423FB479BF86",
"Q  c #504FB745B615",
"!  c #520BADAEA887",
"~  c #5119ADD8A935",
"^  c #5EC8BAA0ADA1",
"/  c #51E7B7F4B6E4",
"(  c #5714B959B325",
")  c #6DA68AEBAEDE",
"_  c #7531846AA329",
"`  c #60C9BC27AE9C",
"'  c #4E71AD22C6AE",
"]  c #5203BCE2D77A",
"[  c #65E9BD08D6B2",
"{  c #7AB2BD48CE8A",
"}  c #5771C0D7DB18",
"|  c #5A75C0F5DA50",
" . c #64F9C4D7DC8B",
".. c #672EC570DB2D",
"X. c #64D4C5DEDD1E",
"o. c #7518C557C712",
"O. c #7455C8AFD3C6",
"+. c #91EC5D6D7A94",
"@. c #A5855E7D7537",
"#. c #A5B26A6B776C",
"$. c #B2E577DB7DBA",
"%. c #DDFD4C744EC9",
"&. c #D738531B5711",
"*. c #DEEF5D8D5BC6",
"=. c #DE115F355ED2",
"-. c #C0E3642D62AF",
";. c #CA6C7D087716",
":. c #DB246DA16F86",
">. c #D6C970157338",
",. c #DF2571A16EE1",
"<. c #DD977D617E62",
"1. c #98D8799B8231",
"2. c #C74A75BE81A7",
"3. c #8C7A9B40B910",
"4. c #9D0B95A3A601",
"5. c #AFB689699E0D",
"6. c #C047809A91FD",
"7. c #A3BA9C9BAC76",
"8. c #A18AA328BA2B",
"9. c #A444AE4FC04C",
"0. c #953BAE3BC564",
"q. c #9FAEAC44C32E",
"w. c #B9EBE54AF076",
"e. c #C229865596B1",
"r. c #DB7D944782D6",
"t. c #C85DB908BBCA",
"y. c #CA5FBA82C302",
"u. c #D0BDD624D79C",
"i. c #D031D604D7F3",
"p. c #D0D4D626D786",
"a. c #D0ECD6C5D84D",
"s. c #D2BFD88FDA20",
"d. c #D10DD9CAE831",
"f. c #D1DEDA7AE7B5",
"g. c #D4A5E092E3A3",
"h. c #D04FEDFBF5DA",
"j. c #D4BCEFA9F67A",
"k. c #D3F8EF66F722",
"l. c #D529EFA2F65D",
"z. c #D851EFBBF506",
"x. c #EB74DB43E0D8",
"c. c #E5AEDAD2E24A",
"v. c #E474E4AAE8C2",
"b. c #E72CE7B4EEA4",
"n. c #F0D1EF78EE78",
"m. c #F70EEEDDEF3D",
"M. c gray100",
/* pixels */
"M.M.M.M.M.M.M.M.M.M.M.M.M.M.M.M.",
"M.M.M.M.M.M.M.M.M.M.M.M.M.M.M.M.",
"m.b.d.c.x.f.v.n.z.j.j.j.j.h.h.w.",
"9.t.q.5.e.8.y.0.[ X.X.X...O.o.P ",
"$.-.:.&.%.,.>.#.C r v v H ` ~ * ",
"6.2.<.=.*.r.;.1.N r r B ^ c 7 - ",
"3.7._ +.@.) 4.> i m t v H M 5 % ",
"{ E , 3 I < Z ' v v c a a c U = ",
"} L m m m m e e r r Q F J Q q : ",
"| L M m M r v F ( F F W H b w : ",
"] p 4 1 7 w 7 4 Y T ~ R 5 7 1 o ",
"2 $ + + + $ + . X # & . + $   O ",
"g.i.i.p.p.p.p.p.p.p.p.p.p.p.p.p.",
"M.M.M.M.M.M.M.M.M.M.M.M.M.M.M.M.",
"M.M.M.M.M.M.M.M.M.M.M.M.M.M.M.M.",
"M.M.M.M.M.M.M.M.M.M.M.M.M.M.M.M."
};
