/* XPM */
static const char *UM_xpm[] = {
/* columns rows colors chars-per-pixel */
"16 16 132 2",
"   c black",
".  c #717100000000",
"X  c #7B7B00000000",
"o  c #7E7E00000000",
"O  c #4C4C4C4C4C4C",
"+  c #5C5C59595959",
"@  c gray47",
"#  c #4F4F7777C9C9",
"$  c #53537B7BCDCD",
"%  c #55557D7DCFCF",
"&  c #57577D7DCFCF",
"*  c #57577F7FD1D1",
"=  c #59598181D3D3",
"-  c #59598383D3D3",
";  c #5B5B8383D5D5",
":  c #60609595D9D9",
">  c #6B6BA4A4DADA",
",  c #6E6EA7A7DADA",
"<  c #7B7BB4B4DCDC",
"1  c #7C7CB4B4DDDD",
"2  c #8B8B00000000",
"3  c #959500000000",
"4  c #9F9F00000000",
"5  c #A6A600000000",
"6  c #B2B200000000",
"7  c #BABA00000000",
"8  c #C0C000000000",
"9  c #CCCC00000000",
"0  c #CDCD00000000",
"q  c #CFCF00000000",
"w  c #CDCD1C1C1C1C",
"e  c #D2D200000000",
"r  c #D3D300000000",
"t  c #D6D600000000",
"y  c #D9D900000000",
"u  c #DCDC00000000",
"i  c #DDDD02020101",
"p  c #DDDD02020202",
"a  c #D4D41F1F1F1F",
"s  c #D9D922222222",
"d  c #DBDB24242424",
"f  c #D3D337373737",
"g  c #DBDB3C3C3C3C",
"h  c #E0E026262626",
"j  c #E0E028282828",
"k  c #E3E328282828",
"l  c #E6E62A2A2A2A",
"z  c #E6E62C2C2C2C",
"x  c #E6E62D2D2D2D",
"c  c #E7E72F2F2F2F",
"v  c #E3E333333333",
"b  c #E7E731313131",
"n  c #E8E832323232",
"m  c #E8E836363636",
"M  c #E8E838383838",
"N  c #E9E939393939",
"B  c #E9E93A3A3A3A",
"V  c #E9E93D3D3D3D",
"C  c #E9E942424242",
"Z  c #EAEA41414141",
"A  c #EBEB42424242",
"S  c #EBEB46464646",
"D  c #EBEB49494949",
"F  c #EBEB4D4D4C4C",
"G  c #ECEC4B4B4C4C",
"H  c #ECEC4F4F4F4F",
"J  c #EEEE56565757",
"K  c #EEEE5C5C5C5C",
"L  c #EEEE64646464",
"P  c #EFEF6F6F6F6F",
"I  c gray52",
"U  c #A7A7A7A7A7A7",
"Y  c #8D8DB5B5DEDE",
"T  c #8E8EB5B5DEDE",
"R  c #9292B6B6DEDE",
"E  c #9393B6B6DFDF",
"W  c #A3A3B7B7E0E0",
"Q  c #A3A3B8B8E0E0",
"!  c #A4A4B9B9E1E1",
"~  c #A5A5B9B9E2E2",
"^  c #A6A6BABAE2E2",
"/  c #A6A6BABAE3E3",
"(  c #A7A7BBBBE3E3",
")  c #A8A8BCBCE5E5",
"_  c #A9A9BDBDE6E6",
"`  c #A9A9BEBEE7E7",
"'  c #AAAABEBEE7E7",
"]  c #ABABBFBFE8E8",
"[  c #ACACC0C0E9E9",
"{  c #B4B4C5C5E7E7",
"}  c #B6B6C7C7E9E9",
"|  c #B6B6C8C8EAEA",
" . c #B9B9C9C9EBEB",
".. c #B9B9C9C9ECEC",
"X. c #B9B9CACAEDED",
"o. c #BABACBCBEDED",
"O. c #F2F29F9F9F9F",
"+. c gray76",
"@. c gray81",
"#. c #D0D0D0D0D0D0",
"$. c gray83",
"%. c #D9D9D9D9DADA",
"&. c #DCDCDADADADA",
"*. c gainsboro",
"=. c #E1E1E1E1E1E1",
"-. c gray90",
";. c #E7E7E7E7E7E7",
":. c gray91",
">. c #E9E9E9E9E9E9",
",. c #E9E9EAEAEAEA",
"<. c #EAEAEAEAEAEA",
"1. c #EBEBEBEBEAEA",
"2. c #ECECECECECEC",
"3. c gray93",
"4. c #EEEEEEEEEEEE",
"5. c #EFEFEFEFEFEF",
"6. c gray94",
"7. c #F1F1F1F1F1F1",
"8. c gray95",
"9. c #F3F3F3F3F3F3",
"0. c #F4F4F4F4F4F4",
"q. c #F4F4F5F5F5F5",
"w. c gray96",
"e. c #F6F6F6F6F6F6",
"r. c gray97",
"t. c #F8F8F8F8F8F8",
"y. c #F9F9F9F9F9F9",
"u. c gray98",
"i. c gray99",
"p. c #FDFDFEFEFDFD",
"a. c #FEFEFEFEFEFE",
"s. c None",
/* pixels */
"s.s.s.s.s.s.s.s.s.s.s.s.s.s.s.s.",
"s.s.s.s.s.s.s.s.s.s.s.s.s.s.s.s.",
"s.s.s.s.s.s.s.s.s.s.s.s.s.s.s.s.",
"; ; ; ; - - $ $ # v j p p p r r ",
"; a.o.a.o.i.| u.{ r.r.w.7.7.7.@ ",
"; o.] ` ` ) ~ ~ W L J G A N F 0 ",
"- o.i.` u.^ r.~ E 7.5.3.3.1.3.U ",
"-  .) ) ) ~ W E 1 D C N n x C 7 ",
"$ a.) t.~ w.T 7., 3.3.<.<.;.<.I ",
"$ | / ~ Q Y 1 > : N n l h d g 4 ",
"@.t.w.w.9.7.3.3.3.<.:.;.-.&.&.O ",
"v O.P K H S V m c l h s a w f o ",
"+.w.w.9.9.7.3.3.2.<.<.=.%.$.#.+ ",
"p p u r r r e 0 7 6 5 3 2 X . . ",
"s.s.s.s.s.s.s.s.s.s.s.s.s.s.s.s.",
"s.s.s.s.s.s.s.s.s.s.s.s.s.s.s.s."
};
