/* XPM */
static const char *UZ_xpm[] = {
/* columns rows colors chars-per-pixel */
"16 16 141 2",
"   c black",
".  c #000001010000",
"X  c #000007070000",
"o  c #00000B0B0000",
"O  c #000000001515",
"+  c #000000001D1D",
"@  c #000011110000",
"#  c #000019190000",
"$  c #00001F1F0000",
"%  c #151500000000",
"&  c #000000002525",
"*  c #000000002B2B",
"=  c #000000003131",
"-  c #000000003939",
";  c #000000003F3F",
":  c #000027270000",
">  c #00002D2D0000",
",  c #000033330000",
"<  c #000039390000",
"1  c #00003F3F0000",
"2  c #000000004545",
"3  c #000000004949",
"4  c #000000005B5B",
"5  c #000000005F5F",
"6  c #000000006161",
"7  c #000047470000",
"8  c #00004F4F0000",
"9  c #0B0B7D7D0B0B",
"0  c #535300000000",
"q  c #656500000000",
"w  c #2C2C2C2C9191",
"e  c #313131319494",
"r  c #373737379898",
"t  c #3D3D3C3C9B9B",
"y  c #424242429E9E",
"u  c #49494949A0A0",
"i  c #4E4E4E4EA3A3",
"p  c #53535353A6A6",
"a  c #58585757A9A9",
"s  c #5C5C5C5CABAB",
"d  c #5F5F5F5FAFAF",
"f  c #61616060AEAE",
"g  c #65656565B0B0",
"h  c #77777777BABA",
"j  c #79797979BCBC",
"k  c #0F0F80800E0E",
"l  c #131383831313",
"z  c #181886861919",
"x  c #1E1E88881E1E",
"c  c #23238C8C2323",
"v  c #29298F8F2929",
"b  c #2C2C8E8E2C2C",
"n  c #2F2F90902F2F",
"m  c #2E2E92922E2E",
"M  c #323291913232",
"N  c #343495953434",
"B  c #353594943535",
"V  c #393997973939",
"C  c #3A3A99993A3A",
"Z  c #3D3D99993D3D",
"A  c #3F3F9C9C3F3F",
"S  c #42429B9B4242",
"D  c #44449F9F4444",
"F  c #46469E9E4646",
"G  c #4B4BA1A14B4B",
"H  c #5050A4A45050",
"J  c #5454A6A65555",
"K  c #5858A9A95858",
"L  c #5D5DACAC5D5D",
"P  c #6161AEAE6262",
"I  c #6666B1B16666",
"U  c #838310103030",
"Y  c #868614143535",
"T  c #888819193939",
"R  c #8B8B1F1F3E3E",
"E  c #8F8F24244242",
"W  c #909026264444",
"Q  c #92922A2A4747",
"!  c #93932B2B4949",
"~  c #95952F2F4C4C",
"^  c #949432324E4E",
"/  c #979731314E4E",
"(  c #989834345151",
")  c #999937375353",
"_  c #9C9C3A3A5555",
"`  c #9C9C3C3C5858",
"'  c #9F9F3F3F5A5A",
"]  c #9F9F44445E5E",
"[  c #A0A041415D5D",
"{  c #A2A245455F5F",
"}  c #A2A247476060",
"|  c #A4A449496363",
" . c #A5A54B4B6565",
".. c #A8A851516969",
"X. c #ABAB54546D6D",
"o. c #ACAC59597171",
"O. c #AFAF5C5C7474",
"+. c #B5B56A6A8080",
"@. c #BEBE79798C8C",
"#. c #8F8F8D8DC3C3",
"$. c #97979797CACA",
"%. c #ABABABABD4D4",
"&. c #ADADADADD7D7",
"*. c #B3B3B3B3D7D7",
"=. c #BDBDBDBDD1D1",
"-. c #B9B9B9B9D9D9",
";. c #C1C1C1C1D1D1",
":. c #C3C3C3C3D5D5",
">. c #C2C2C2C2DFDF",
",. c #C6C6C6C6E1E1",
"<. c #CCCCCCCCE4E4",
"1. c #D5D5D5D5E8E8",
"2. c #D5D5D5D5EBEB",
"3. c #D9D9D8D8EAEA",
"4. c #D9D9D9D9ECEC",
"5. c #DCDCDCDCECEC",
"6. c #DDDDDDDDEDED",
"7. c #DFDFDFDFEDED",
"8. c #E2E2E2E2EFEF",
"9. c #EAEAEAEAF4F4",
"0. c #EDEDEFEFF5F5",
"q. c #EFEFEFEFF7F7",
"w. c gray95",
"e. c #F3F3F3F3F3F3",
"r. c #F2F2F2F2F7F7",
"t. c #F4F4F4F4F4F4",
"y. c #F4F4F5F5F5F5",
"u. c gray96",
"i. c #F6F6F6F6F6F6",
"p. c gray97",
"a. c #F1F1F1F1F9F9",
"s. c #F8F8F8F8F8F8",
"d. c #F9F9F9F9F9F9",
"f. c gray98",
"g. c #FBFBFBFBFBFB",
"h. c #FBFBFCFCFBFB",
"j. c gray99",
"k. c #FDFDFCFCFDFD",
"l. c #FDFDFDFDFDFD",
"z. c #FEFEFEFEFEFE",
"x. c None",
/* pixels */
"x.x.x.x.x.x.x.x.x.x.x.x.x.x.x.x.",
"x.x.x.x.x.x.x.x.x.x.x.x.x.x.x.x.",
"x.x.x.x.x.x.x.x.x.x.x.x.x.x.x.x.",
"6 &.2.d 5 4 -.#.*.3 2 ; - = * & ",
"6 r.%.j h 8.4.7.<.g f s a p i + ",
"6 6.9.$.6.,.3.>.2.y t r e w u O ",
"q @.O.o.X. . .} ] _ ) / ! E ] % ",
"a.z.z.z.g.z.z.d.d.d.p.p.u.u.u.:.",
"0.z.z.h.z.h.d.d.p.u.u.u.u.e.u.;.",
"0.z.h.h.d.d.d.p.p.p.u.u.e.e.e.=.",
"0 O.{ { ' _ ) ~ Q E R T Y U /   ",
"8 I G A V B n v c x z l k 9 n   ",
"8 I L K J H G F S Z V B M n b   ",
"7 < , > : $ # @ o o             ",
"x.x.x.x.x.x.x.x.x.x.x.x.x.x.x.x.",
"x.x.x.x.x.x.x.x.x.x.x.x.x.x.x.x."
};
