/* XPM */
static char *VA_png[] = {
/* columns rows colors chars-per-pixel */
"16 16 107 2",
"   c #67C35EC24C97",
".  c #709A64CC42C5",
"X  c #7C626F914BE0",
"o  c #688A688A688A",
"O  c #800A800A800A",
"+  c #86006D9D0C08",
"@  c #85746D9E0D5B",
"#  c #86006E160D63",
"$  c #8F5D756D0DA3",
"%  c #860070F62133",
"&  c #8E4480735432",
"*  c #909C82AC4F8B",
"=  c #96A3888F5842",
"-  c #86018229725B",
";  c #880E854E7A7F",
":  c #865085367FB5",
">  c #95F18CC56AA4",
",  c #9B5F8EE965A3",
"<  c #94188CCE783A",
"1  c #9CE193BE7B97",
"2  c #A1AE97B172E3",
"3  c #C6CFA45C1A36",
"4  c #F13AC02F0000",
"5  c #F136C10F0000",
"6  c #F576C5F40897",
"7  c #FFFFCC650000",
"8  c #FFFFCD080000",
"9  c #FFFFCD3701C7",
"0  c #FFFFCD5E0266",
"q  c #FFFFCF050C2B",
"w  c #FFFFCF730E65",
"e  c #F138C6E5278B",
"r  c #FFFFD3332A1E",
"t  c #FFFFD3AE2AAA",
"y  c #FFFFD38F2C10",
"u  c #FFFFD45F2AB9",
"i  c #FFFFD4092B2E",
"p  c #FE31D5F03096",
"a  c #FFFFD8273A2A",
"s  c #FFFFD8673ACC",
"d  c #FFFFDA7E453F",
"f  c #FFFFDB1946E0",
"g  c #FFFFDB354752",
"h  c #FFFFDCB14FAA",
"j  c #FFFFDFB065AA",
"k  c #FFFFE1E36926",
"l  c #862D862F8638",
"z  c #8605864A8774",
"x  c #86A186A986CE",
"c  c #8765877987A9",
"v  c #8B1C8A0D84EE",
"b  c #906A8DD8865D",
"n  c #9603904F8237",
"m  c #9A539542871E",
"M  c #972C97329752",
"N  c #9CA19CD19BFE",
"B  c #A17A9B658D93",
"V  c #AC6CA9499F1D",
"C  c #B2B3A8F788E0",
"Z  c #B78EB0DD9D97",
"A  c #A0EDA0EBA0E9",
"S  c #B174ADF0A709",
"D  c #BF12B91FA28E",
"F  c #BD76B974AF8B",
"G  c #BCC5B8E1B09A",
"H  c #CAEFC418AD52",
"J  c #C33CC113B920",
"K  c #C957C562B796",
"L  c #D2A3CED8BDDD",
"P  c #D974D763CF2C",
"I  c #DA6DD831CF2C",
"U  c #D26ED26ED26E",
"Y  c #D5BAD3F8D124",
"T  c #D978D7B2D0E9",
"R  c #D978D92BD7D3",
"E  c #DB0ADA01D5F1",
"W  c #DE88DC8FD4D6",
"Q  c #D980D981D985",
"!  c #DC27DC27DC27",
"~  c #E272E02FD8C0",
"^  c #E81DE36FD0E1",
"/  c #E99FE668DAB5",
"(  c #F153E982C9E8",
")  c #F4E0ED12CACA",
"_  c #F896F07ACED4",
"`  c #FA97F1EDCEE3",
"'  c #FA99F24BCF6B",
"]  c #FFFFF5CFCC79",
"[  c #FFFFF5EBCCCF",
"{  c #FFFFF64CCEEF",
"}  c #FFFFF77AD49D",
"|  c #FF55F728D545",
" . c #FFFFF71DD530",
".. c #FFFFF7CED6AE",
"X. c #E2A0E2B0E2E1",
"o. c #E6E9E57DE10E",
"O. c #EA9DE8F0E4A6",
"+. c #E9F5E9A5E7BA",
"@. c #F17CF194F06D",
"#. c #FFFFFA11E1EA",
"$. c #F256F24CF265",
"%. c #F254F2DCF41D",
"&. c #F35BF366F2D9",
"*. c #FFFFFE5AF7A0",
"=. c #FD7AFD7AFD7B",
"-. c #FFB9FFB9FFB9",
";. c gray100",
/* pixels */
";.;.;.;.;.;.;.;.;.;.;.;.;.;.;.;.",
";.;.;.;.;.;.;.;.;.;.;.;.;.;.;.;.",
"..] ] ] ] ] ] ..*.;.;.;.;.;.;.;.",
"k h g g g g d k ..;.;.;.;.;.;.U ",
"s w 7 7 0 0 7 y ..;.;.O.~ ;.$.V ",
"a w 7 7 7 7 7 u ..$.o.C 1 ^ E M ",
"a q 7 7 7 7 7 y ) S < , * = * : ",
"a q 7 7 7 7 7 y _ U L > X D H b ",
"s q 7 7 7 7 7 t _ F 1 .   m V : ",
"s q 8 7 7 7 7 u _ K Z B n G J v ",
"p 6 5 5 4 4 4 e ( $.&.O.T $.X.M ",
"3 $ # # # # + % - c x x x l l o ",
"^ I I P P P P T R Q Q Q Q Q Q ! ",
";.;.;.;.;.;.;.;.;.;.;.;.;.;.;.;.",
";.;.;.;.;.;.;.;.;.;.;.;.;.;.;.;.",
";.;.;.;.;.;.;.;.;.;.;.;.;.;.;.;."
};
