/* XPM */
static const char *VA_xpm[] = {
/* columns rows colors chars-per-pixel */
"16 16 145 2",
"   c black",
".  c #BBBBB7B73232",
"X  c #A9A988886E6E",
"o  c #A8A8ACAC6E6E",
"O  c #BEBEA3A36161",
"+  c #CDCDA7A70000",
"@  c #CFCFA7A70000",
"#  c #D1D1ABAB0000",
"$  c #D5D5AFAF0000",
"%  c #D7D7B3B30000",
"&  c #D9D9B7B70000",
"*  c #DBDBB7B70000",
"=  c #DDDDBFBF0000",
"-  c #DFDFBFBF0000",
";  c #CCCCBCBC5F5F",
":  c #C9C9BFBF7D7D",
">  c #E3E3C3C30000",
",  c #E5E5C5C50000",
"<  c #E7E7C7C70000",
"1  c #E5E5C9C90101",
"2  c #E7E7C9C90000",
"3  c #E9E9C9C90000",
"4  c #E9E9CBCB0101",
"5  c #E9E9CDCD0303",
"6  c #EBEBCDCD0303",
"7  c #EBEBCDCD0505",
"8  c #EBEBCDCD0707",
"9  c #EBEBCFCF1515",
"0  c #C4C4C2C27C7C",
"q  c #DDDDD0D06363",
"w  c #F4F4DFDF4E4E",
"e  c #F3F3E0E05757",
"r  c #F5F5E1E15353",
"t  c #F5F5E1E15656",
"y  c #F6F6E2E25858",
"u  c #F6F6E3E35B5B",
"i  c #F4F4E2E25C5C",
"p  c #F7F7E4E45E5E",
"a  c #F7F7E4E45F5F",
"s  c #F5F5E3E36161",
"d  c #F5F5E2E26666",
"f  c #F7F7E4E46060",
"g  c #F6F6E5E56565",
"h  c #F4F4E3E36E6E",
"j  c #F7F7E6E66A6A",
"k  c #F6F6E5E56D6D",
"l  c #F8F8E5E56262",
"z  c #F8F8E5E56464",
"x  c #F8F8E6E66464",
"c  c #F8F8E6E66565",
"v  c #F9F9E7E76767",
"b  c #F9F9E6E66868",
"n  c #F9F9E7E76969",
"m  c #F9F9E7E76A6A",
"M  c #FAFAE8E86B6B",
"N  c #F8F8E8E86F6F",
"B  c #FAFAE8E86D6D",
"V  c #FAFAE8E86E6E",
"C  c #FAFAE9E96E6E",
"Z  c #F7F7E6E67171",
"A  c #F7F7E7E77575",
"S  c #F9F9E9E97373",
"D  c #FAFAE9E97171",
"F  c #FBFBE9E97171",
"G  c #FBFBEAEA7575",
"H  c #F8F8E8E87979",
"J  c #F9F9E9E97C7C",
"K  c #FCFCEBEB7878",
"L  c #FCFCECEC7B7B",
"P  c #BDBDBCBC8181",
"I  c #BBBBB6B6AFAF",
"U  c #D9D9A4A4B6B6",
"Y  c #DFDFADADB9B9",
"T  c #E0E0B1B19D9D",
"R  c #E0E0A7A7A6A6",
"E  c #FAFAEAEA8080",
"W  c #FBFBECEC8484",
"Q  c #FBFBEDED8787",
"!  c #FCFCEDED8787",
"~  c #FBFBEDED8D8D",
"^  c #FCFCEDED8A8A",
"/  c #FCFCEDED8B8B",
"(  c #FCFCEEEE8E8E",
")  c #FCFCEFEF8F8F",
"_  c #FCFCF0F09292",
"`  c #EAEAE6E6AEAE",
"'  c #ECECE7E7A9A9",
"]  c gray81",
"[  c #CDCDD0D0CCCC",
"{  c #D9D9D7D7C3C3",
"}  c gray82",
"|  c #D3D3D3D3D1D1",
" . c LightGray",
".. c #D5D5D5D5D5D5",
"X. c #D7D7D7D7D7D7",
"o. c gray86",
"O. c #DDDDDDDDDDDD",
"+. c #DFDFDFDFDFDF",
"@. c #DBDBDCDCEAEA",
"#. c #E5E5E2E2C3C3",
"$. c #E5E5E3E3CCCC",
"%. c #EFEFEDEDDFDF",
"&. c #F3F3F0F0DDDD",
"*. c #E1E1E3E3E3E3",
"=. c gray90",
"-. c #E7E7E7E7E7E7",
";. c #EAEAE1E1E1E1",
":. c #EBEBE3E3E2E2",
">. c #E9E9E9E9E9E9",
",. c #EAEAEBEBEAEA",
"<. c gray92",
"1. c gray93",
"2. c #EFEFEDEDEDED",
"3. c #EFEFEFEFEFEF",
"4. c #F1F1EFEFE1E1",
"5. c #F1F1F1F1E2E2",
"6. c #F0F0F0F0EBEB",
"7. c #F5F5F3F3E9E9",
"8. c #F6F6F4F4EBEB",
"9. c #F5F5F5F5EFEF",
"0. c #F6F6F5F5EFEF",
"q. c #F8F8F6F6EDED",
"w. c #F1F1F1F1F1F1",
"e. c gray95",
"r. c #F2F2F2F2F3F3",
"t. c #F3F3F3F3F3F3",
"y. c #F1F1F1F1F6F6",
"u. c #F4F4F4F4F4F4",
"i. c #F4F4F5F5F4F4",
"p. c gray96",
"a. c #F7F7F7F7F4F4",
"s. c #F7F7F7F7F5F5",
"d. c #F6F6F6F6F6F6",
"f. c gray97",
"g. c #FBFBF9F9F0F0",
"h. c #FAFAFAFAF2F2",
"j. c #F8F8F8F8F6F6",
"k. c #F9F9F9F9F6F6",
"l. c #FCFCFCFCF4F4",
"z. c #F8F8F8F8F8F8",
"x. c #F9F9F9F9F9F9",
"c. c gray98",
"v. c #FBFBFBFBFBFB",
"b. c gray99",
"n. c None",
/* pixels */
"n.n.n.n.n.n.n.n.n.n.n.n.n.n.n.n.",
"n.n.n.n.n.n.n.n.n.n.n.n.n.n.n.n.",
"n.n.n.n.n.n.n.n.n.n.n.n.n.n.n.n.",
"9 6 8 8 6 4 < 1 %.3.3.,.,.=.=.*.",
"8 _ _ ) ( ^ Q ~ l.b.b.x.x.x.d.+.",
"8 _ L K G F C F g.x.x.j.s.d.f.O.",
"8 ( K G F C v C g.y.$.0 P #.&.o.",
"4 ( G F C m l j x.@.o : ; . ` X.",
"4 ^ F B v v p g q.x.i.O X 6.i...",
"< Q B m v l y s d.' q T U I ] | ",
"< W v l i y r i 0.5.4.U R 2.,.| ",
"> J v p p e w e 7.i.e.%.%.e.e.] ",
"- J H A Z k d h 8.d.u.u.3.y.3.] ",
"- & & % $ # @ + { X.....] ] ] ] ",
"n.n.n.n.n.n.n.n.n.n.n.n.n.n.n.n.",
"n.n.n.n.n.n.n.n.n.n.n.n.n.n.n.n."
};
