/* XPM */
static const char *VE_xpm[] = {
/* columns rows colors chars-per-pixel */
"16 16 159 2",
"   c black",
".  c #434300003B3B",
"X  c #777710107272",
"o  c #7B7B14147575",
"O  c #7D7D19197878",
"+  c #000000008989",
"@  c #000000008D8D",
"#  c #000000009191",
"$  c #00000000BBBB",
"%  c #00000000BFBF",
"&  c #00000000C1C1",
"*  c #14141414C8C8",
"=  c #19191919C9C9",
"-  c #1A1A1A1ACACA",
";  c #1F1F1F1FCBCB",
":  c #20202020CCCC",
">  c #25252525CDCD",
",  c #2A2A2A2ACFCF",
"<  c #2B2B2B2BCFCF",
"1  c #2F2F2F2FD1D1",
"2  c #36363636CFCF",
"3  c #30303030D1D1",
"4  c #35353535D3D3",
"5  c #36363636D3D3",
"6  c #3B3B3B3BD1D1",
"7  c #3B3B3B3BD4D4",
"8  c #3B3B3B3BD5D5",
"9  c #3F3F3F3FD3D3",
"0  c #49494A4ADADA",
"q  c #4B4B4A4ADADA",
"w  c #4B4B4B4BDADA",
"e  c #4F4F4F4FDBDB",
"r  c #50504F4FDBDB",
"t  c #53535353DCDC",
"y  c #54545454DDDD",
"u  c #58585858DDDD",
"i  c #67676969D8D8",
"p  c #6F6F6F6FE2E2",
"a  c #72727272E2E2",
"s  c #76767676E4E4",
"d  c #414197970000",
"f  c #434395950000",
"g  c #80801F1F7C7C",
"h  c #DDDD00000000",
"j  c #DFDF00000000",
"k  c #E1E100000000",
"l  c #E3E300000000",
"z  c #E5E500000000",
"x  c #E7E700000000",
"c  c #E9E900000000",
"v  c #EBEB00000000",
"b  c #EDED00000000",
"n  c #EFEF00000000",
"m  c #F1F100000000",
"M  c #F3F300000000",
"N  c #F5F500000000",
"B  c #F7F700000000",
"V  c #F1F10B0B0B0B",
"C  c #F1F10F0F0E0E",
"Z  c #F9F900000000",
"A  c #F2F213131313",
"S  c #F3F319191919",
"D  c #F4F41E1E1E1E",
"F  c #F5F523232323",
"G  c #F2F22C2C2C2C",
"H  c #F2F22F2F2F2F",
"J  c #F6F629292929",
"K  c #F7F72E2E2E2E",
"L  c #F2F232323232",
"P  c #F3F335353535",
"I  c #F4F439393939",
"U  c #F5F53D3D3D3D",
"Y  c #F8F834343434",
"T  c #F9F93A3A3A3A",
"R  c #FAFA3F3F3F3F",
"E  c #F6F642424242",
"W  c #F7F746464646",
"Q  c #F7F74B4B4B4B",
"!  c #FAFA44444444",
"~  c #F8F850505050",
"^  c #F9F954545555",
"/  c #F9F958585858",
"(  c #FAFA5D5D5D5D",
")  c #FBFB61616262",
"_  c #FCFC66666666",
"`  c #848424248080",
"'  c #87872A2A8282",
"]  c #8B8B2F2F8686",
"[  c #8B8B32328686",
"{  c #8E8E34348989",
"}  c #92923A3A8D8D",
"|  c #95953F3F9090",
" . c #989845459494",
".. c #9B9B49499797",
"X. c #AEAE6A6AAAAA",
"o. c #B7B7D3D30000",
"O. c #B7B7D5D50000",
"+. c #B9B9DADA6969",
"@. c #E7E7B9B90000",
"#. c #E9E9BDBD0000",
"$. c #F3F38A8A7F7F",
"%. c #EBEBC1C10000",
"&. c #EDEDCDCD0000",
"*. c #EFEFD1D10000",
"=. c #F1F1D5D50000",
"-. c #F3F3D7D70000",
";. c #F5F5DBDB0000",
":. c #F7F7DBDB0000",
">. c #F9F9DDDD0000",
",. c #FBFBDFDF0000",
"<. c #FFFFDDDD0000",
"1. c #FDFDE1E10000",
"2. c #FDFDE3E30000",
"3. c #FDFDE5E50000",
"4. c #FFFFE7E70000",
"5. c #FDFDEBEB0000",
"6. c #F5F5F5F52626",
"7. c #F6F6F6F62B2B",
"8. c #F6F6F6F62C2C",
"9. c #F7F7F7F73131",
"0. c #F8F8F8F83636",
"q. c #F8F8F8F83737",
"w. c #F9F9F9F93C3C",
"e. c #F9F9F9F93D3D",
"r. c #F6F6F6F64444",
"t. c #F7F7F7F74949",
"y. c #F7F7F7F74E4E",
"u. c #FAFAFAFA4242",
"i. c #FBFBFBFB4747",
"p. c #FCFCFCFC4B4B",
"a. c #FCFCFCFC4C4C",
"s. c #F8F8F8F85353",
"d. c #F9F9F9F95757",
"f. c #FDFDFDFD5151",
"g. c #FDFDFDFD5454",
"h. c #FAFAFAFA5C5C",
"j. c #FEFEFEFE5959",
"k. c #FEFEFEFE5C5C",
"l. c #FBFBFBFB6060",
"z. c #FCFCFCFC6565",
"x. c #FCFCFCFC6969",
"c. c #FDFDFDFD6D6D",
"v. c #FDFDFDFD7171",
"b. c #FEFEFEFE7474",
"n. c #FEFEFEFE7777",
"m. c #FEFEFEFE7979",
"M. c #FCFCFCFC7C7C",
"N. c #83838484DEDE",
"B. c #95959595E3E3",
"V. c #9C9C9C9CE6E6",
"C. c #A5A5A5A5EAEA",
"Z. c #ACACD2D28989",
"A. c #DFDFE0E0F0F0",
"S. c #E3E3E3E3F2F2",
"D. c #E6E6E6E6F4F4",
"F. c #E9E9E9E9F7F7",
"G. c #F1F1F1F1F8F8",
"H. c #F2F2F2F2F9F9",
"J. c None",
/* pixels */
"J.J.J.J.J.J.J.J.J.J.J.J.J.J.J.J.",
"J.J.J.J.J.J.J.J.J.J.J.J.J.J.J.J.",
"J.J.J.J.J.J.J.J.J.J.J.J.J.J.J.J.",
"5.o.O.4.4.4.1.1.,.,.:.:.=.=.*.&.",
"d $.M.Z.n.n.v.c.x.z.l.k.d.s.y.%.",
"d N.i +.j.f.f.a.i.u.e.q.9.8.t.#.",
"<.m.k.j.g.f.p.i.u.e.0.8.7.6.r.@.",
"& s u y r w F.H.H.D.< , > - 0 # ",
"% a t r w F.C.8 5 V.S.> ; - 6 @ ",
"$ p e w F.C.8 5 1 , B.A.- * 2 + ",
". X... .} } { ] ' ` g O o X [   ",
"Z _ ! E T Y K J F D S A C V H j ",
"Z ) ( ^ ^ ~ Q W E U I P L H H j ",
"N M M b b b v v x x k k j j h h ",
"J.J.J.J.J.J.J.J.J.J.J.J.J.J.J.J.",
"J.J.J.J.J.J.J.J.J.J.J.J.J.J.J.J."
};
