/* XPM */
static char *VN_xpm[] = {
/* columns rows colors chars-per-pixel */
"16 16 79 1",
"  c #60C014E914E9",
". c #75460D4F0D4F",
"X c #7A480D5B0D5B",
"o c #7AAD0C880D56",
"O c #7ACE0D5A0D62",
"+ c #83590DA30DA3",
"@ c #899608390839",
"# c #911F08E308E3",
"$ c #922F08B208B2",
"% c #B69D1A361A36",
"& c #CCE600000000",
"* c #C0CE16CC16CC",
"= c #D93100000000",
"- c #DA4E001C001C",
"; c #DA6B01550000",
": c #DA0102410016",
"> c #DAC40326000E",
", c #DB1B00000000",
"< c #DAD90582002E",
"1 c #DC1B0F070073",
"2 c #DF0D08970897",
"3 c #DD14177000AA",
"4 c #E7B300090002",
"5 c #E85400150001",
"6 c #E7ED01C701C7",
"7 c #E7E301A20257",
"8 c #E7E901EF0266",
"9 c #E811029B0028",
"0 c #E81602600263",
"q c #E8C90C240C24",
"w c #E99700000000",
"e c #E92F02F10026",
"r c #E94B0EFE031E",
"t c #E9910C470C47",
"y c #E93F0E650E65",
"u c #E99710A30366",
"i c #EA1218F0013C",
"p c #EBB7271E024B",
"a c #EBFF280A02C6",
"s c #ED23326E03A2",
"d c #ED5635930255",
"f c #EE8B3D160299",
"g c #EB7430963096",
"h c #EB033A703A70",
"j c #ED523A2A3A2A",
"k c #ED893ACC3ACC",
"l c #EF8843BB031B",
"z c #F03B4B1A032B",
"x c #EFC34C4704EB",
"c c #F0454FCB04A9",
"v c #F08050FD0370",
"b c #F17C4C2B0386",
"n c #F1CE4F63034E",
"m c #F20A566203DA",
"M c #F4F179D10558",
"N c #EED946E046E0",
"B c #EED246CF474A",
"V c #EEE147534752",
"C c #EF1647ED47ED",
"Z c #EFAA4FAA4FAA",
"A c #F1BF69266926",
"S c #F75C8F310668",
"D c #F72B8FE2067B",
"F c #F91E9F2C06A0",
"G c #FCFAC12B079E",
"H c #FD6CC89A07FB",
"J c #FEEED13A0804",
"K c #FF76D6FA0856",
"L c #F809ACE9ACE9",
"P c #D888CF32CF32",
"I c #D962CF2CCF2C",
"U c #DB21D10DD10D",
"Y c #E5F8D0E1D0E1",
"T c #FAD6C83AC83A",
"R c #FB61CCB5CCB5",
"E c #FB64CCD5CCD5",
"W c #FB81CEEFCEEF",
"Q c #FBEED49DD49D",
"! c gray100",
/* pixels */
"!!!!!!!!!!!!!!!!",
"!!!!!!!!!!!!!!!!",
"QRRRRRRRRRRRRRTL",
"AZVVVVCCVVVVNNj%",
"ky40044ru404ww,$",
"ky44044fx44000,$",
"kq440axDFcs040,#",
"kq444iMJKDp400,#",
"kq4444dGHv4440,#",
"ky4400bmlbe400,#",
"g2,,,,3<,1,,,,&@",
"%+OOOOoOOOOOOO. ",
"YPPPPPPPPPPPPPPU",
"!!!!!!!!!!!!!!!!",
"!!!!!!!!!!!!!!!!",
"!!!!!!!!!!!!!!!!"
};
