/* XPM */
static char *ZA_png[] = {
/* columns rows colors chars-per-pixel */
"16 16 140 2",
"   c #033C0447010A",
".  c #0AB60AA10BC3",
"X  c #1E0F1FC31080",
"o  c #25DC28270EB4",
"O  c #388A38563A2B",
"+  c #3A0539FE3A25",
"@  c #39A839823AE5",
"#  c #365C365C4704",
"$  c #3B253B255210",
"%  c #3BB73B665502",
"&  c #3C4D3C4A54D7",
"*  c #3DB23DB155AA",
"=  c #3FDB3FBF5CA9",
"-  c #3D3F6D782514",
";  c #3F48747D2846",
":  c #44814CF70749",
">  c #55C0625006B1",
",  c #463370AF3006",
"<  c #40D77FB020AB",
"1  c #634B73BD0728",
"2  c #72A67A074016",
"3  c #4BBA4A6C60E3",
"4  c #62FA783D56C1",
"5  c #6B546E3D7129",
"6  c #6B596CE27C6D",
"7  c #57F657CB85FF",
"8  c #5D235CFA8EBE",
"9  c #5DAF5D818F4A",
"0  c #5E0B5DDD8FCC",
"q  c #684068129721",
"w  c #590CBD8425D4",
"e  c #5D7FC02D2E41",
"r  c #6116A5843D1E",
"t  c #5D058CEA4BC8",
"y  c #64E18C0D5182",
"u  c #7A2D84D541BB",
"i  c #5F1ACA932831",
"p  c #5F6DCB48285E",
"a  c #5F25C0C23037",
"s  c #61AFCB4D2CCF",
"d  c #629FCB3B2F4C",
"f  c #67DCC3F9385F",
"g  c #63E2CC5C307A",
"h  c #6384CBC232BE",
"j  c #6343CCD832A8",
"k  c #6494CC33311C",
"l  c #64F1CC9432A7",
"z  c #676CCE23356C",
"x  c #6915CDE932BA",
"c  c #68BFCDC63462",
"v  c #6D5DCFB63147",
"b  c #6BF2CF9E3BA7",
"n  c #71F6D1AC2FAC",
"m  c #7DD3D77B2ED6",
"M  c #73DAD53F310E",
"N  c #7ED4D1DF322C",
"B  c #754CD2F24605",
"V  c #79D2D4A14914",
"C  c #79CDD66E4F32",
"Z  c #A16D23E70A3A",
"A  c #978F671D5569",
"S  c #D26E3C3B16BE",
"D  c #F2212C8603D0",
"F  c #FFFF2FEB0580",
"G  c #FFFF307C0600",
"H  c #FFFF306E0607",
"J  c #FDC048331C7A",
"K  c #FD7A61C43A5A",
"L  c #FFFF69FA4638",
"P  c #FFFF6C50473E",
"I  c #FFFF6CDF47D5",
"U  c #FFFF6B26497F",
"Y  c #91DEAFB81C2F",
"T  c #9C99BF6D1304",
"R  c #9FCECA4615DE",
"E  c #8CC4DDD836AE",
"W  c #92C7DA1023F5",
"Q  c #917BDBBC257A",
"!  c #9FD6E5BA1FB3",
"~  c #AEC8CE690ECC",
"^  c #A32AC3171CE9",
"/  c #A380DF701EF1",
"(  c #A0AEE27F21D8",
")  c #8970D9755CFF",
"_  c #868CD3476CB4",
"`  c #90A7DAF36BD0",
"'  c #942FDC626CD6",
"]  c #938FD2177554",
"[  c #95CCD13C74F8",
"{  c #9470DC0F7371",
"}  c #9DBBE0317C51",
"|  c #9D5FE06C7CFB",
" . c #8F81E14E7281",
".. c #8F89E1C473AA",
"X. c #8FB1E1CB73E1",
"o. c #9004E2927412",
"O. c #9DE1E1347D5B",
"+. c #AF99E3AF4A53",
"@. c #BD08E80251FB",
"#. c #E42F96CE7A69",
"$. c #FA36907570F3",
"%. c #FF658D947518",
"&. c #92F8950EB18C",
"*. c #9DA39FEAB954",
"=. c #A85DAAE0C5A1",
"-. c #A8F9AB82C65E",
";. c #AA0BAC64C66F",
":. c #A531E07F82E3",
">. c #B4CACA7FB0D1",
",. c #A533E11D8522",
"<. c #A7E7E37A8678",
"1. c #B006E19E94EC",
"2. c #C097CC0AC96C",
"3. c #F3ACA0D88291",
"4. c #F481A186830A",
"5. c #F41AA1E385D7",
"6. c #FFB9BD86ACE9",
"7. c #DD7CC60397E0",
"8. c #D6F9D759A5A9",
"9. c #D101E85BB750",
"0. c #F329C7BDAF59",
"q. c #D278D27AD4DA",
"w. c #D349D346D561",
"e. c #D3ACD774D18D",
"r. c #D39ED832D157",
"t. c #D57ED57ED7B7",
"y. c #D7CFD8D6D6E9",
"u. c #D85FD7BED98C",
"i. c #DA16E36ED58C",
"p. c #FFFFD37EC83A",
"a. c #FFFFD412CA55",
"s. c #FFFFD692CC5C",
"d. c #FFFFD6F2CCDC",
"f. c #FFFFD82BD06E",
"g. c #E233F636D858",
"h. c #E35FF656D95C",
"j. c #E594F745DD43",
"k. c #FFABF107EE9B",
"l. c #F6A3FCB5F31F",
"z. c gray100",
/* pixels */
"z.z.z.z.z.z.z.z.z.z.z.z.z.z.z.z.",
"z.z.z.z.z.z.z.z.z.z.z.z.z.z.z.z.",
"j.h.h.l.k.f.a.s.s.s.s.s.s.s.a.6.",
",.{ ` ,.9.0.%.U L P P P P P K S ",
"@.E h a b ' 8.$.J F G G G G D Z ",
"4 Y / Q j j B :.7.5.3.3.3.4.#.A ",
"+ o > T Q n j g C ........o._ t ",
"+ .   : ~ ! x l s i i i p p w < ",
"+ o 1 ^ Q v s c ) } O.O.O.O.] y ",
"u ^ ! M j l V 1.2.;.;.;.=.=.*.6 ",
"+.N e e f [ >.&.q 8 8 0 8 8 7 = ",
"r ; - , 4 5 3 % & & & & & & $ # ",
"i.r.r.y.u.w.w.w.w.w.w.w.t.w.w.t.",
"z.z.z.z.z.z.z.z.z.z.z.z.z.z.z.z.",
"z.z.z.z.z.z.z.z.z.z.z.z.z.z.z.z.",
"z.z.z.z.z.z.z.z.z.z.z.z.z.z.z.z."
};
