/* XPM */
static const char *ZA_xpm[] = {
/* columns rows colors chars-per-pixel */
"16 16 169 2",
"   c black",
".  c #00002D2D0000",
"X  c #000039390000",
"o  c #000045450000",
"O  c #000065650000",
"+  c #000069690000",
"@  c #535353535353",
"#  c #6F6F6F6F6F6F",
"$  c #727272727373",
"%  c #767676767676",
"&  c #000000008181",
"*  c #000000008383",
"=  c #000000008787",
"-  c #000000008989",
";  c #000000008B8B",
":  c #000000008F8F",
">  c #000000009191",
",  c #000000009393",
"<  c #000000009999",
"1  c #000000009B9B",
"2  c #000000009D9D",
"3  c #00000000B5B5",
"4  c #0B0B0B0BC0C0",
"5  c #0F0F0F0FC2C2",
"6  c #13131313C4C4",
"7  c #18181919C6C6",
"8  c #1E1E1E1EC7C7",
"9  c #23232323C9C9",
"0  c #2C2C2C2CCACA",
"q  c #2F2F2F2FC9C9",
"w  c #2F2F2F2FCACA",
"e  c #32323232CCCC",
"r  c #35353535CDCD",
"t  c #39393939CFCF",
"y  c #3B3B3838D2D2",
"u  c #3D3D3D3DD0D0",
"i  c #42424242D2D2",
"p  c #46464646D2D2",
"a  c #51514F4FD8D8",
"s  c #63635F5FCBCB",
"d  c #000085850F0F",
"f  c #000085851313",
"g  c #17179D9D3B3B",
"h  c #1A1A95953434",
"j  c #1F1F98983838",
"k  c #25259A9A3D3D",
"l  c #2A2A9D9D4242",
"z  c #2929A1A14C4C",
"x  c #2E2EA3A35050",
"c  c #3030A0A04848",
"v  c #3636A3A34D4D",
"b  c #3232A5A55555",
"n  c #3434A7A75858",
"m  c #3737A8A85959",
"M  c #3737AAAA5A5A",
"N  c #3B3BA4A45151",
"B  c #3A3AA8A85959",
"V  c #3939A8A85C5C",
"C  c #3B3BABAB5C5C",
"Z  c #3B3BABAB5D5D",
"A  c #3C3CABAB5E5E",
"S  c #3F3FAFAF5F5F",
"D  c #3E3EABAB6161",
"F  c #3F3FAAAA6060",
"G  c #4040AEAE6060",
"H  c #4040AEAE6464",
"J  c #4343AEAE6565",
"K  c #4343AFAF6767",
"L  c #4747AEAE6565",
"P  c #4343B0B06565",
"I  c #4646B1B16565",
"U  c #4848B1B16969",
"Y  c #4B4BB3B36D6D",
"T  c #4B4BBFBF7777",
"R  c #5252B3B36262",
"E  c #5353B5B56464",
"W  c #5050B3B36F6F",
"Q  c #5151B4B46D6D",
"!  c #5858B7B76C6C",
"~  c #5454B7B77676",
"^  c #5D5DB7B77777",
"/  c #5C5CB9B97979",
"(  c #7272BABA5D5D",
")  c #6E6EBCBC6060",
"_  c #6161BDBD7F7F",
"`  c #6666BEBE7B7B",
"'  c #6D6DBFBF7272",
"]  c #7373BBBB6767",
"[  c #5C5CC0C07E7E",
"{  c #7777C9C98C8C",
"}  c #7B7BC6C69090",
"|  c #7B7BC8C89494",
" . c #E9E900000000",
".. c #EBEB00000000",
"X. c #EDED00000000",
"o. c #EFEF00000000",
"O. c #F1F100000000",
"+. c #F3F300000000",
"@. c #F5F500000000",
"#. c #F7F700000000",
"$. c #F9F900000000",
"%. c #FBFB00000000",
"&. c #FDFD00000000",
"*. c #F3F327272727",
"=. c #F6F62C2C2C2C",
"-. c #F7F731313131",
";. c #F8F837373737",
":. c #F9F93C3C3D3D",
">. c #F7F749494949",
",. c #F7F74E4E4E4E",
"<. c #FAFA42424242",
"1. c #FBFB47474747",
"2. c #F8F853535353",
"3. c #F9F957575757",
"4. c #FAFA5C5C5C5C",
"5. c #E7E769696B6B",
"6. c #FBFB60606060",
"7. c #FCFC65656565",
"8. c #FCFC67676B6B",
"9. c #FCFC69696969",
"0. c #FDFD6D6D6D6D",
"q. c #FDFD70707272",
"w. c #9F9F83830000",
"e. c #B3B39B9B0000",
"r. c #8D8D8D8D5656",
"t. c #999995955555",
"y. c #8484BBBB5A5A",
"u. c #A2A29E9E5E5E",
"i. c #BEBEB6B67070",
"p. c #8181C3C30000",
"a. c #9D9DCDCD0000",
"s. c #DCDCD4D45454",
"d. c #C9C9C1C17E7E",
"f. c #E2E2DBDB5E5E",
"g. c #E9E9DBDB5555",
"h. c #E6E6E3E35656",
"j. c #EAEAE8E86868",
"k. c #E5E5ECEC7474",
"l. c #88888B8BDDDD",
"z. c #85858181E4E4",
"x. c #9595ADADCBCB",
"c. c #B0B0AEAEE6E6",
"v. c #B3B3B0B0E8E8",
"b. c #B5B5B2B2E9E9",
"n. c #B7B7B4B4EAEA",
"m. c #BABAB7B7EBEB",
"M. c #BCBCB9B9EAEA",
"N. c #9292D8D8ABAB",
"B. c #ADADDCDCB9B9",
"V. c #F8F8A1A1A0A0",
"C. c #F9F9ABABACAC",
"Z. c #F5F5B5B5B6B6",
"A. c #F6F6B7B7B8B8",
"S. c #F7F7BABABABA",
"D. c #F8F8BCBCBDBD",
"F. c #F9F9BEBEBFBF",
"G. c #F6F6BEBEC0C0",
"H. c #E9E9F2F28787",
"J. c #D9D9D1D1CBCB",
"K. c #C4C4C3C3EEEE",
"L. c #C4C4E5E5D5D5",
"P. c #CDCDE3E3DBDB",
"I. c #CDCDE4E4D8D8",
"U. c #D3D3EBEBDFDF",
"Y. c #D8D8E6E6E3E3",
"T. c #FAFAC9C9CACA",
"R. c #E4E4EEEEE8E8",
"E. c #E8E8EBEBE4E4",
"W. c None",
/* pixels */
"W.W.W.W.W.W.W.W.W.W.W.W.W.W.W.W.",
"W.W.W.W.W.W.W.W.W.W.W.W.W.W.W.W.",
"W.W.W.W.W.W.W.W.W.W.W.W.W.W.W.W.",
"f d T J.*.&.&.&.%.%.#.#.+.+.X.X.",
"p.| } N.R.C.q.0.9.7.4.4.3.2.,...",
"e.H.` / [ U.V.8.1.<.:.;.-.=.>...",
"  d.j.' ~ Q L.E.T.G.D.S.A.Z.G.5.",
"  % u.f.] ! I P Y Y J H V n Y o ",
"  $ @ r.g.( P Z v c l k j h N . ",
"  # t.s.y.E V M G A B b z z L X ",
"  i.h.) H B I.Y.K.m.n.b.b.c.M.s ",
"w.k.E H S B.l.y 9 8 7 6 5 4 w * ",
"a._ ^ { P.z.a p p t y r e w 0 * ",
"+ O g x.3 2 2 < > > : - * - * - ",
"W.W.W.W.W.W.W.W.W.W.W.W.W.W.W.W.",
"W.W.W.W.W.W.W.W.W.W.W.W.W.W.W.W."
};
