/* XPM */
static const char *ZM_xpm[] = {
/* columns rows colors chars-per-pixel */
"16 16 145 2",
"   c black",
".  c #10100F0F0B0B",
"X  c #151514141010",
"o  c #1A1A19191414",
"O  c #1F1F1D1D1A1A",
"+  c #000033330000",
"@  c #000039390000",
"#  c #00003B3B0000",
"$  c #00003D3D0000",
"%  c #111127270000",
"&  c #24240F0F0E0E",
"*  c #292914141414",
"=  c #2E2E19191919",
"-  c #33331F1F1F1F",
";  c #232323232020",
":  c #373725252525",
">  c #343433332F2F",
",  c #3E3E34343232",
"<  c #000041410000",
"1  c #000047470000",
"2  c #00004D4D0000",
"3  c #000053530000",
"4  c #000059590000",
"5  c #00005D5D0000",
"6  c #000063630000",
"7  c #000069690000",
"8  c #00006D6D0000",
"9  c #00006F6F0000",
"0  c #000073730000",
"q  c #000075750000",
"w  c #000077770000",
"e  c #000079790000",
"r  c #00007B7B0000",
"t  c #00007D7D0000",
"y  c #00007F7F0000",
"u  c #03037F7F0303",
"i  c #030381810303",
"p  c #49499F9F4949",
"a  c #4D4DA1A14D4D",
"s  c #4E4EA2A24E4E",
"d  c #5050A2A25050",
"f  c #5252A4A45252",
"g  c #5353A5A55353",
"h  c #5454A5A55454",
"j  c #5656A6A65656",
"k  c #5757A7A75757",
"l  c #5757A8A85757",
"z  c #5858A8A85858",
"x  c #5959A8A85959",
"c  c #5B5BA9A95B5B",
"v  c #5B5BAAAA5B5B",
"b  c #5C5CAAAA5C5C",
"n  c #5D5DABAB5D5D",
"m  c #5E5EABAB5D5D",
"M  c #5E5EABAB5E5E",
"N  c #5E5EAEAE5D5D",
"B  c #5959B4B46666",
"V  c #6060ACAC6060",
"C  c #6060ADAD6060",
"Z  c #6161ADAD6161",
"A  c #6262ACAC6262",
"S  c #6262AEAE6262",
"D  c #6464AFAF6464",
"F  c #6565AEAE6565",
"G  c #6565AFAF6464",
"H  c #6868AFAF6868",
"J  c #6565B0B06565",
"K  c #6666B0B06565",
"L  c #6767B0B06767",
"P  c #6767B1B16767",
"I  c #6969B0B06969",
"U  c #6969B1B16969",
"Y  c #6969B2B26969",
"T  c #6A6AB2B26A6A",
"R  c #6A6AB3B36A6A",
"E  c #6B6BB3B36C6C",
"W  c #6D6DB2B26D6D",
"Q  c #6D6DB4B46D6D",
"!  c #6D6DB5B56D6D",
"~  c #6E6EB5B56E6E",
"^  c #6E6EB6B66E6E",
"/  c #6F6FB6B66F6F",
"(  c #7878AEAE6868",
")  c #7171B4B47171",
"_  c #7171B7B77171",
"`  c #7272B7B77272",
"'  c #7373B7B77272",
"]  c #7575B7B77575",
"[  c #7676B9B97676",
"{  c #7676BABA7676",
"}  c #7979B9B97979",
"|  c #7979BCBC7979",
" . c #7979BCBC7A7A",
".. c #7A7ABCBC7A7A",
"X. c #7C7CBDBD7C7C",
"o. c #7D7DBCBC7D7D",
"O. c #7C7CBEBE7C7C",
"+. c #7F7FBFBF7F7F",
"@. c #C5C500000000",
"#. c #CFCF00000000",
"$. c #D7D700000000",
"%. c #DDDD00000000",
"&. c #DFDF00000000",
"*. c #E3E300000000",
"=. c #E5E500000000",
"-. c #E7E700000000",
";. c #EDED13131313",
":. c #EEEE19191919",
">. c #EFEF1F1F1F1F",
",. c #E4E424241C1C",
"<. c #E6E629292222",
"1. c #E7E72F2F2828",
"2. c #E9E934342E2E",
"3. c #EFEF35353535",
"4. c #EBEB3A3A3333",
"5. c #F1F125252525",
"6. c #F5F52B2B2B2B",
"7. c #E8E842423C3C",
"8. c #EBEB7E7E3535",
"9. c #EDED7F7F3737",
"0. c #9C9CB0B07575",
"q. c #E7E78C8C3F3F",
"w. c #EDED83833B3B",
"e. c #EDED85853F3F",
"r. c #E8E888883939",
"t. c #DDDD9F9F5B5B",
"y. c #EEEE88884343",
"u. c #E8E899995757",
"i. c #F1F18A8A4747",
"p. c #E3E3A2A25F5F",
"a. c #E8E8A4A46565",
"s. c #8080BEBE8080",
"d. c #8484C0C08484",
"f. c #8787C2C28787",
"g. c #8888C3C38888",
"h. c #8A8AC3C38A8A",
"j. c #8B8BC4C48B8B",
"k. c #8D8DC5C58D8D",
"l. c #8E8EC6C68F8F",
"z. c #8F8FC7C78F8F",
"x. c #9191C8C89191",
"c. c #9494C8C89494",
"v. c #9494C9C99494",
"b. c #9595CACA9595",
"n. c None",
/* pixels */
"n.n.n.n.n.n.n.n.n.n.n.n.n.n.n.n.",
"n.n.n.n.n.n.n.n.n.n.n.n.n.n.n.n.",
"n.n.n.n.n.n.n.n.n.n.n.n.n.n.n.n.",
"i i i i u u e w 0 8 7 6 5 4 3 2 ",
"i b.b.b.x.z.z.g.g.d.0.a.p.t.u.% ",
"i b.+.O...] ' / E J B N q.r.( < ",
"u b.....] ' / R J S M x h d H # ",
"u z.| ] ' / R J S M 4.6.: ; i.-.",
"u z.] ) / I J S M x 2.5.- O y.-.",
"w g.' / I F N M l g 1.>.= o e.*.",
"0 g./ I J S x x g a <.:.* X w.&.",
"8 d.I S S x h g a p ,.;.& . 9.&.",
"7 +.O.| ] ) W I F S 7.3., > 8.&.",
"6 5 4 3 2 1 < $ # + @.$.    #.&.",
"n.n.n.n.n.n.n.n.n.n.n.n.n.n.n.n.",
"n.n.n.n.n.n.n.n.n.n.n.n.n.n.n.n."
};
