/* XPM */
static char *ZM_png[] = {
/* columns rows colors chars-per-pixel */
"16 16 101 2",
"   c #19700B7E0000",
".  c #1B0D0C320000",
"X  c #1AEE0D2F00E1",
"o  c #1B240C520000",
"O  c #1A10131C0D63",
"+  c #22360D340D63",
"@  c #292D00000000",
"#  c #2BE700000000",
"$  c #2B79014400B9",
"%  c #34985D4B1DC6",
"&  c #2DC84FB123AA",
"*  c #253155542531",
"=  c #254F55AE254D",
"-  c #2439568825A6",
";  c #27925B662792",
":  c #2F1361851D52",
">  c #2800630425C8",
",  c #7A390C5C0D08",
"<  c #735B1BE01226",
"1  c #6E0F34540D4F",
"2  c #69A7373314E9",
"3  c #53C558611BE4",
"4  c #65B979961F43",
"5  c #70636BE623A0",
"6  c #6CC4741C2A6B",
"7  c #730F610020DF",
"8  c #2F58907D2F58",
"9  c #2FCB90C72FC7",
"0  c #2D929273305C",
"q  c #3CA981D73CA9",
"w  c #380996AA3809",
"e  c #30DB9B5833CA",
"r  c #310B9BF333FD",
"t  c #32F1997632F0",
"y  c #332099B03320",
"u  c #32379A323368",
"i  c #3343998D332F",
"p  c #334699CE3345",
"a  c #31999D0D35C1",
"s  c #348F9A79348F",
"d  c #34EE9AD0350D",
"f  c #398F94A83184",
"g  c #3D369E9C3D36",
"h  c #3D569EC73D56",
"j  c #3EF19F5A3EF1",
"k  c #405484692BA2",
"l  c #44CC8C8B2EB6",
"z  c #44D28CCC2EC6",
"x  c #4D7F86DF2659",
"c  c #436E96D52F8F",
"v  c #788C84D81DA4",
"b  c #59C1AC7559C1",
"n  c #6201B0BC6201",
"m  c #627FB127627F",
"M  c #6C0FB6286C15",
"N  c #6B5EB65B6C83",
"B  c #72F9B94272F9",
"V  c #992B42B10839",
"C  c #8DC37CFE1625",
"Z  c #A17E46A508E3",
"A  c #A0BF466A0916",
"S  c #A237472008EB",
"D  c #BE114C8B0000",
"F  c #CBCF1CAE093E",
"G  c #D97100000000",
"H  c #D8851E9909F0",
"J  c #D79D1F8C0A49",
"K  c #D9131EC509F9",
"L  c #E5C800000000",
"P  c #E6C700000000",
"I  c #E71B00000000",
"U  c #C9505130002E",
"Y  c #C9CD51060000",
"T  c #CA7C51AB0000",
"R  c #88CBA96960F7",
"E  c #B65D93A244ED",
"W  c #B38E9D98533E",
"Q  c #C56C9D2C4FE8",
"!  c #C7249DBE4F1F",
"~  c #8742C3AA8742",
"^  c #CB02D7C4B7CF",
"/  c #D03DCFA2CF32",
"(  c #D105CF2ECF32",
")  c #D87BCF1BCF2A",
"_  c #D7EAD05FCF9C",
"`  c #D81ED2D4CF2D",
"'  c #D13ED55ED143",
"]  c #D168D5F5D168",
"[  c #D1F5D4DCD125",
"{  c #D58FDEE1D58F",
"}  c #DC40D59CD10D",
"|  c #DAE0E670D07D",
" . c #D6D1EB69D6D1",
".. c #D6ECEB71D6E7",
"X. c #D8A2EC6AD8A2",
"o. c #DF4BE864D3CC",
"O. c #DAB8EA5DD5F5",
"+. c #DDAAE981D4A0",
"@. c #DD21EE91DD21",
"#. c #E11AE6F9D2F0",
"$. c gray100",
/* pixels */
"$.$.$.$.$.$.$.$.$.$.$.$.$.$.$.$.",
"$.$.$.$.$.$.$.$.$.$.$.$.$.$.$.$.",
"@.X. . . . . .X. . .#.o.o.O.| ^ ",
"~ B M M M M M M M N R W Q Q E 6 ",
"m j t s s s s s s d a c v C x > ",
"m j t t t t t t t f 5 7 % : 4 3 ",
"m g t t t t s t r z J I $ o U A ",
"n g t t t t t t r z K I $ o U A ",
"n g t t t t t t e z K I $ o U A ",
"n j t t t t d t r z K I $ o T A ",
"b w 8 8 t 8 8 8 0 q F G $ o D V ",
"> ; * * * * * * - & < , + O 1 2 ",
"@.' ' ' ' ' ' ' ' [ ` ) ( ( ` } ",
"$.$.$.$.$.$.$.$.$.$.$.$.$.$.$.$.",
"$.$.$.$.$.$.$.$.$.$.$.$.$.$.$.$.",
"$.$.$.$.$.$.$.$.$.$.$.$.$.$.$.$."
};
