/* XPM */
static const char *ZW_xpm[] = {
/* columns rows colors chars-per-pixel */
"16 16 167 2",
"   c black",
".  c #000001010000",
"X  c #00001F1F0000",
"o  c gray10",
"O  c gray12",
"+  c #000021210000",
"@  c #000025250000",
"#  c #000029290000",
"$  c #00002B2B0000",
"%  c #00002D2D0000",
"&  c #000033330000",
"*  c #000037370000",
"=  c #000039390000",
"-  c #00003D3D0000",
";  c #252525252525",
":  c #2A2A2B2B2B2B",
">  c gray19",
",  c gray21",
"<  c gray23",
"1  c #000041410000",
"2  c #000047470000",
"3  c #00004D4D0000",
"4  c #000053530000",
"5  c #000059590000",
"6  c #00005D5D0000",
"7  c #00005F5F0000",
"8  c #000063630000",
"9  c #000069690000",
"0  c #00006D6D0000",
"q  c #00006F6F0000",
"w  c #000073730000",
"e  c #000075750000",
"r  c #000079790000",
"t  c #00007D7D0000",
"y  c #00007F7F0000",
"u  c #5F5F00000000",
"i  c #404042424242",
"p  c #000081810000",
"a  c #000085850000",
"s  c #050593930000",
"d  c #898900000000",
"f  c #ADAD00000000",
"g  c #B9B900000000",
"h  c #B0B02F2F2020",
"j  c #B3B334342525",
"k  c #B5B539392B2B",
"l  c #B8B83F3F3030",
"z  c #BBBB44443636",
"x  c #BBBB4C4C3F3F",
"c  c #BCBC49493C3C",
"v  c #9C9C5C5C5656",
"b  c #969663634E4E",
"n  c #A1A157574646",
"m  c #BEBE4E4E4141",
"M  c #A4A477775D5D",
"N  c #C5C536361414",
"B  c #C7C73A3A1919",
"V  c #C9C93F3F1F1F",
"C  c #D7D73C3C1010",
"Z  c #D8D840401414",
"A  c #D9D944441919",
"S  c #DBDB49491F1F",
"D  c #CACA43432424",
"F  c #CCCC48482A2A",
"G  c #CECE4D4D2F2F",
"H  c #CDCD52523636",
"J  c #DDDD4E4E2424",
"K  c #DEDE52522A2A",
"L  c #DEDE58582626",
"P  c #D0D052523535",
"I  c #D3D357573A3A",
"U  c #DDDD58583232",
"Y  c #DDDD5A5A3A3A",
"T  c #E0E055552F2F",
"R  c #E0E05C5C2B2B",
"E  c #E1E15B5B3434",
"W  c #E1E161613131",
"Q  c #E3E365653636",
"!  c #E4E469693C3C",
"~  c #C1C153534646",
"^  c #E2E26F6F4444",
"/  c #E5E56D6D4242",
"(  c #E7E772724747",
")  c #E8E876764B4B",
"_  c #E6E675755151",
"`  c #8A8AA9A96262",
"'  c #9595B3B37E7E",
"]  c #A7A7A5A54B4B",
"[  c #B9B9B7B76262",
"{  c #8686C3C33131",
"}  c #8787C4C43434",
"|  c #8A8AC6C63737",
" . c #8C8CC7C73B3B",
".. c #8E8EC8C83F3F",
"X. c #9090CBCB4242",
"o. c #9494CDCD4646",
"O. c #9797CECE4B4B",
"+. c #9494D2D24E4E",
"@. c #9999D0D05050",
"#. c #9898D3D35353",
"$. c #9B9BD5D55757",
"%. c #9C9CD1D15454",
"&. c #9F9FD3D35959",
"*. c #9E9ED7D75C5C",
"=. c #A2A2D4D45D5D",
"-. c #A1A1D8D86060",
";. c #A4A4DADA6565",
":. c #A7A7DCDC6969",
">. c #A9A9DDDD6D6D",
",. c #ABABDEDE7171",
"<. c #ADADDFDF7474",
"1. c #AFAFE0E07777",
"2. c #B2B2E1E17979",
"3. c #E7E787876F6F",
"4. c #EDED93937979",
"5. c #EEEE97977D7D",
"6. c #EEEE97977E7E",
"7. c #F2F2BDBD5E5E",
"8. c #DFDFDDDD0000",
"9. c #E9E9E9E90000",
"0. c #F1F1F0F00B0B",
"q. c #F1F1F1F10E0E",
"w. c #F2F2F1F11313",
"e. c #F3F3F2F21919",
"r. c #F4F4F3F31E1E",
"t. c #F5F5F4F42323",
"y. c #F2F2F1F12F2F",
"u. c #F6F6F5F52929",
"i. c #F6F6F6F62C2C",
"p. c #F7F7F7F72E2E",
"a. c #F7F7F7F73131",
"s. c #F9F9F4F43A3A",
"d. c #F8F8F8F83434",
"f. c #F8F8F8F83737",
"g. c #F9F9F9F93D3D",
"h. c #F7F7F7F74949",
"j. c #FAFAFAFA4242",
"k. c #FBFBFBFB4747",
"l. c #FCFCFBFB4F4F",
"z. c #FCFCFCFC4C4C",
"x. c #FDFDFDFD5151",
"c. c #FDFDFCFC5353",
"v. c #FDFDFDFD5454",
"b. c #FEFEFCFC5959",
"n. c #FEFEFDFD5858",
"m. c #F1F1A2A28C8C",
"M. c #F1F1A6A69090",
"N. c #F2F2B9B9A9A9",
"B. c #F7F7D6D68F8F",
"V. c #EDEDC5C5BDBD",
"C. c #FEFEFDFD8484",
"Z. c #D7D7E1E1D7D7",
"A. c #E1E1E7E7E1E1",
"S. c #EFEFEFEFEFEF",
"D. c #EFEFF2F2F0F0",
"F. c #F1F1ECECE8E8",
"G. c #F1F1EFEFF1F1",
"H. c #F4F4F3F3F4F4",
"J. c #F5F5F3F3F5F5",
"K. c #F5F5F4F4F0F0",
"L. c gray96",
"P. c gray97",
"I. c #FAFAFAFAF9F9",
"U. c #FFFFFAFAFCFC",
"Y. c #FCFCFCFCFBFB",
"T. c gray99",
"R. c None",
/* pixels */
"R.R.R.R.R.R.R.R.R.R.R.R.R.R.R.R.",
"R.R.R.R.R.R.R.R.R.R.R.R.R.R.R.R.",
"R.R.R.R.R.R.R.R.R.R.R.R.R.R.R.R.",
"Z.* a p t t r e e 0 9 8 6 5 4 5 ",
"J.T.' 2.1.<.,.>.:.;.-.*.$.#.+.s ",
"L.U.Y.[ n.v.x.z.k.j.g.f.a.i.h.9.",
"L.C.M.Y.M _ ) ( / ! Q W R L ^ g ",
"3.B.n.6.4.v ~ m c z l k j h x u ",
"V.m.x.l.N.P.i < , > : ; O o <   ",
"G.6.l.7.L.n I P G F D V B N H d ",
"S.Y.I.F.b Y E T K J S A Z C U f ",
"S.U.K.] s.d.p.u.t.r.e.w.q.0.y.8.",
"L.D.` =.&.%.#.O.o.X... .| } { 0 ",
"A.  8 4 3 2 - - = & % # @ + X % ",
"R.R.R.R.R.R.R.R.R.R.R.R.R.R.R.R.",
"R.R.R.R.R.R.R.R.R.R.R.R.R.R.R.R."
};
